<?xml version="1.0" encoding="utf-8"?>
<!-- Generator: Adobe Illustrator 17.0.0, SVG Export Plug-In . SVG Version: 6.00 Build 0)  -->
<!DOCTYPE svg PUBLIC "-//W3C//DTD SVG 1.1//EN" "http://www.w3.org/Graphics/SVG/1.1/DTD/svg11.dtd">
<svg version="1.1" id="Layer_1" xmlns="http://www.w3.org/2000/svg" xmlns:xlink="http://www.w3.org/1999/xlink" x="0px" y="0px"
	 width="1188.055px" height="623.391px" viewBox="0 0 1188.055 623.391" enable-background="new 0 0 1188.055 623.391"
	 xml:space="preserve">
<g id="Land_1_">
	<path fill="#8DCEE0" d="M1136.449,28.647c-7.925-2.261-17.659-13.256-26.569-9.256h1.244c-1.961,1-4.605-2.078-6.23-1.073
		c-2.042,1.263,3.445,5.63,4.611,6.93c4.811,5.366,8.285,6.72,15.181,7.76c7.839,1.182,15.182,5.868,23.38,5.53
		C1148.359,32.151,1141.294,30.029,1136.449,28.647z"/>
	<path fill="#8DCEE0" d="M111.436-0.118c5.533,7.166,16.065,3.561,20.747,9.583c2.272,2.922,2.225,6.74,4.433,9.842
		c1.109,1.559,7.103,5.405,3.029,7.193c1.912,1.535,5.036,5.444,7.797,3.381c2.717,2.694,2.256,4.386,6.157,5.672
		c4.514,1.489,5.451,1.076,5.965,6.483c0.283,2.98,0.842,10.172,5.328,9.265c1.429,13.827-11.158,1.646-16.775-0.679
		c-1.967-0.814-4.064-0.492-6.079-1.37c-2.436-1.061-3.33-3.469-5.71-4.273c1.062-2.506,6.897-5.936,6.266-8.694
		c-1.382-6.042-4.427,3.686-4.685,3.903c-2.723,2.304-4.003-0.841-5.817-0.735c-3.05,0.179-2.183,1.505-4.86,2.354
		c-2.435-2.909-2.237-2.958-2.023-5.664c0.101-1.277,2.74-1.442,1.19-3.938c-0.52-0.837-6.966-2.945-7.904-3.286
		c-2.103-0.765-2.433,0.21-3.748-1.249c0.012,0.013-1.215-3.844-1.267-4.002c-1.122-3.423,0.072-2.751-3.338-4.271
		c-2.073-0.924-3.184-2.25-5.382,1.244c-3.87-1.145-1.633-4.449-1.764-7.031c-2.142,0.377-3.792-1.214-5.848-1.732
		c-3.044-0.766-3.88,0.443-5.643-2.921c-1.642-3.132-4.321-8.741-4.127-12.396L111.436-0.118z"/>
	<path fill="#8DCEE0" d="M746.204,589.98c-6.466-0.708-12.984-4.085-19.802-3.174c-8.436,1.126-17.857,3.955-26.204,5.618
		c-12.069,2.404-7.107,5.855-10.023,14.637c-1.526,4.594-8.713,13.33-6.096,19.33h44.799c6.236,0,4.955-11.086,6.734-15.809
		C738.31,603.414,747.84,598.212,746.204,589.98z"/>
	<g>
		<path fill="#8DCEE0" d="M932.994,602.751c-3.378-0.896-6.207-2.092-10.528-2.32c0.383-1.123-0.048-2.436,0.584-3.681
			c-3.482-1.431-6.951,0.707-10.476-0.523c-1.207-0.422-1.976-1.984-3.091-2.419c-1.851-0.723-4.471-0.667-6.187-1.371
			c-3.992-1.636-7.277-4.068-11.257-6.331c-4.762-2.707-8.879-3.501-13.19-6.222c-3.53-2.228-3.487-4.14-8.218-5.351
			c-2.087-0.534-4.689-0.177-6.715-0.842c-5.944-1.953-10.186-7.719-16.823-9.28c-6.879-1.618-14.739-2.565-21.817-3.237
			c-9.237-0.877-17.427,1.565-26.086,2.019l-5.6,1.244c-1.745,1.045-5.198,2.02-6.409,3.629c-1.291,1.714-0.118,2.859-1.059,4.492
			c-1.464,2.541-3.34,3.138-4.975,5.07c-4.961,5.858,3.63,2.924,7.328,1.135c1.48-0.716,3.511-3.114,5.106-3.656
			c4.577-1.553,10.201,0.686,14.762-2.036c2.458-1.467,3.629-4.478,6.638-6.145c4.373-2.422,10.294-3.946,14.066-0.034
			c-2.231,2.674-8.792,1.93-7.933,6.199c4.404-0.116,7.552,1.757,11.084,2.544c4.451,0.992,9.061-1.301,13.452,0.084
			c3.61,1.139,7.179,4.677,10.182,6.262c5.068,2.675,9.662,3.585,15.519,3.611c3.017,0.014,6.451-0.83,8.118,1.356
			c2.151,2.822-0.412,6.8,2.432,9.752c4.719,4.898,14.089,1.797,18.13,8.776c-0.856,1.116-7.838,5.967-7.633,6.869
			c0.986,4.338,7.86,1.593,10.433,1.232c7.862-1.104,14.696-0.369,22.68-0.638c3.461-0.117,6.359,1.13,10.052-0.128
			c2.455-0.837,2.796-2.732,4.878-2.993c3.05-0.382,11.448,5.608,10.781-1.797C946.07,603.827,938.641,604.249,932.994,602.751z"/>
		<path fill="#8DCEE0" d="M809,581.236v0.622c-2,0.03-3.35,2.135-2.81,4.884c-2.694-0.128-2.768,0.883-4.039,1.726
			c2.974,0.831,12.719-0.589,12.775-4.308C814.979,580.699,810,580.914,809,581.236z"/>
		<path fill="#8DCEE0" d="M1012.561,621.106c-3.496-1.278-6.426-3.749-10.39-4.157c-5.12-0.528-10.703,1.295-16.022,0.388
			c-7.022-1.198-18.674-8.58-24.672-1.239c1.889,2.384,4.879,2.726,6.863,4.51c2.245,2.019,3.328,4.432,5.067,6.672l46.666,3.111
			C1016.396,623.842,1019.898,623.788,1012.561,621.106z"/>
	</g>
	<path fill="#8DCEE0" d="M1186.205-2.192L140.888,0.297c0.203,2.794,1.36,4.844,1.298,7.85c1.979-0.401,4.084-1.477,6.177-1.089
		c0.507,2.608-2.033,3.658-2.588,5.984c-0.517,2.166,0.605,6.677,2.122,8.406c2.649,3.02,3.01,1.999,5.435-0.017
		c2.349-1.952,1.493-3.888,3.057-5.815c2.889-3.558,3.182,0.125,2.679,2.611c-0.203,1.002-1.234,2.339-1.503,3.648
		c-0.225,1.096,1.226,1.365,1.197,2.046c-0.054,1.242-2.174,2.313-1.756,3.482c0.45,1.26,1.514,0.581,1.812,1.101
		c0.813,1.417,3.378,0.128,2.85,3.687c2.861-0.072,4.161-6.943,7.495-8.367c0.809,3.092-1.099,6.926-0.097,10.387
		c1.738-0.682,2.446-3.099,4.556-3.627c1.374,3.081-4.504,6.61-2.801,9.57c1.2,2.086,4.492,1.206,6.092,2.861
		c1.364,1.411,2.555,6.213,2.963,8.106c0.557,2.582-0.548,7.209,0.802,9.37c1.389,2.225,5.033,1.512,4.298,4.928
		c-0.591,2.747-3.969,2.825-4.288,6.11c-0.258,2.658,7.814,13.47,0.912,12.196c0.865,3.791-5.846,5.264-8.363,4.142
		c0.98-1.753,2.535-3.447,1.668-5.405c-1.293,0.75-2.948,1.289-4.512,1.143c0.397-2.542,0.615-5.328,1.282-7.897
		c1.047-4.033,6.66-5.955,6.079-9.778c-4.928,1.074-11.685,0.531-16.148-1.754c-2.594-1.327-14.953-7.314-15.688-3.386
		c-0.439,2.347,2.405,3.516,3.284,5.607c0.953,2.266,1.396,5.755,2.054,8.152c0.9,3.277,0.881,7.04,2.394,10.124
		c0.993,2.025,4.15,3.312,4.708,4.887c0.838,2.422-1.226,1.55-1.211,2.491c0.027,1.736-0.504,0.831,0.22,2.803
		c0.407,1.11,2.146,2.855,3.126,3.603c-0.781-0.598-2.091-0.724-2.959-1.094c-1.208,3.454-0.805,6.356,1.572,8.304
		c2.232,1.83,7.948,1.164,9.143,4.398c-2.583,0.353-9.389-1.095-11.261,0.872c-1.34,1.408-0.061,5.984-0.318,7.916
		c-0.309,2.318-1.198,4.324-1.282,6.705c-0.104,2.94,1.337,5.257,1.624,7.954c0.556,5.228-1.841,10.68-1.585,16.135
		c0.152,3.237,1.257,7.21,0.828,10.358c-0.157,1.155-1.627,1.767-1.603,2.907c0.024,1.179,1.627,1.781,1.613,2.778
		c-0.065,4.426-5.618,9.152-7.335,13.095c-2.385,5.477-1.076,12.824,1.199,18.213c1.695,4.015,4.968,7.037,5.286,11.211
		c0.355,4.645-0.36,10.603-0.655,15.294c-0.196,3.129,0.013,1.808-2.165,4.804c-1.466,2.017-3.247,4.454-2.518,7.19
		c0.922,3.461,5.856,7.569,7.756,10.364c1.792,2.636,2.748,6.966,3.309,9.97c0.878,4.705-0.114,8.345,1.741,12.764
		c1.997,4.756,3.173,8.397,6.687,11.739c1.026,0.975,8.965,8.111,9.03,8.662c-0.92-7.795,12.721-9.755,17.672-6.59
		c6.671,4.264-9.352,4.448-11.851,5.443c1.149,3.085,3.787,7.117,4.207,10.161c-3.212-4.173-11.875-9.28-10.522-1.178
		c0.544,3.257,1.379,6.427,4.68,7.87c2.285,0.999,7.956-0.636,8.744,2.543c0.513,2.07-2.873,4.368-2.888,6.221
		c-0.014,1.739,1.794,3.912,2.946,5.032c1.842,1.79,4.088,2.372,5.691,4.499c1.88,2.494,3.163,5.399,5.032,7.942
		c2.93,3.986,6.425,8.837,7.839,13.632c1.761,5.975,1.983,9.988,9.077,10.821c2.992,0.352,7.516-1.636,10.46-0.463
		c2.351,0.937,2.892,3.595,4.708,5.399c3.909,3.882,11.523,0.393,10.651,7.738c4.574-2.685,7.131,2.565,9.404,5.241
		c2.694,3.172,6.971,5.257,8.886,9.051c2.373,4.703,2.774,8.786,6.165,13.362c2.57,3.468,2.612,6.852,5.372,10.676
		c3.09,4.28,1.542,8.574,4.623,12.515c1.698,2.171,2.252,2.635,3.259,4.976c0.85,1.976,1.782,3.064,2.787,4.865
		c3.307,5.931,0.564,11.566,7.21,16.238c4.298,3.022,7.978,4.354,10.628,9.105c1.759,3.152,3.059,6.957,5.58,9.611
		c2.077,2.186,6.661,3.489,6.56,7.077c-0.068,2.405-1.926,1.623-2.445,3.224c-0.868,2.68,0.007,5.642,3.649,5.444
		c1.143,7.403-12.127-2.226-14.913-0.918c-4.843,2.274,0.52,2.992,2.53,4.68c2.188,1.838,1.783,4.111,3.717,5.662
		c1.659,1.331,4.208,1.09,6.273,2.594c1.744,1.271,3.255,4.122,5.186,4.895c3.031,1.213,8.065-1.582,11.322-3.293
		c-0.293,8.466,5.519,10.19,11.13,14.595c2.774,2.178,4.085,5.197,4.573,8.607c0.623,4.353-1.979,10.465-0.028,14.416
		c0.963,1.949,5.361,4.86,7.152,6.306c3.43,2.77,6.86,5.586,10.308,8.681c3.427,3.078,4.835,7.09,8.783,9.572
		c1.804,1.134,3.453,0.99,4.939,3.278c1.244,1.915,1.226,4.447,2.558,6.327c4.312-2.709,8.212-5.158,5.797-10.799
		c-0.573-1.338-2.042-1.571-2.528-2.874c-0.412-1.105,0.487-2.673-0.056-3.784c-0.634-1.296-5.735-4.414-6.902-4.908
		c1.043,7.929-6.478,2.054-7.425-2.143c-0.576-2.551,0.343-5.083-0.399-7.735c-0.581-2.079-2.033-4.068-2.913-6.077
		c-1.349-3.08-3.849-6.324-5.006-9.303c-0.722-1.861-0.918-3.973-1.225-6.184c-0.78-5.618-4.163-11.416-8.687-14.951
		c0.794,1.713,1.024,3.717,0.327,5.419c-2.328-0.407-5.297-9.07-6.669-11.598c-2.612-4.814-7.166-8.87-9.028-14.018
		c-2.125-5.875-1.18-8.82-6.317-12.333c0.061,0.042-2.009-2.037-1.983-2.01c-0.467-0.482-1.389-0.001-2.082-0.802
		c-1.229-1.421-1.677-4.134-2.989-5.807c-1.339-1.707-3.605-5.02-4.925-6.262c-2.187-2.057-6.199-2.864-7.973-5.455
		c-2.368-3.459-1.546-9.656-2.873-13.585c-0.601-1.779-0.716-4.185-1.63-5.809c-1.565-2.781-2.765-2.875-2.943-6.059
		c-0.177-3.183,0.81-3.972-0.716-7.264c-1.215-2.621-3.295-4.682-2.953-7.847c4.128,0.641,6.462,7.091,10.668,6.984
		c2.743-0.07,1.425-2.307,2.894-2.786c3.356-1.096,4.949,1.654,6.797,3.584c1.15,1.202,2.184,2.733,3.708,3.527
		c1.443,0.752,4.497,0.252,5.661,1.515c1.712,1.857-0.194,2.698,0.479,4.623c0.718,2.055,2.737,2.076,3.711,3.707
		c1.023,1.714,0.245,4.259,0.854,6.233c0.682,2.213,2.45,4.838,3.44,7.061c0.897,2.014,1.45,4.642,2.336,6.502
		c0.945,1.985,4.245,4.182,5.078,6.333c1.695,4.374,0.794,7.124,3.924,11.181c1.467,1.902,2.146,4.349,3.535,6.145
		c2.978,3.851,7.09,6.705,10.79,9.755c3.048-2.969,2.501-2.533,5.74-0.601c3.771,2.249,2.259,1.379,2.984,5.454
		c1.169,6.571,9.027,7.243,9.935,13.631c3.599,0.22,7.245-0.128,10.131,2.359c2.822,2.432,2.417,6.209,4.351,8.872
		c-0.518-0.713-1.419-0.994-2-1.544c-1.987,2.135-4.932,3.051-5.063,6.228c-0.042,1.029,1.358,5.127,2.141,5.572
		c1.716,0.977,2.468-0.617,3.902-0.182c2.87,0.87,1.296,1.468,3.457,3.539c3.093,2.964,8.678,2.553,10.869,6.725
		c0.827,1.575,0.016,3.403,0.858,5.012c0.887,1.696,2.879,2.278,4.207,3.411c1.982,1.691,3.682,3.632,5.653,5.291
		c6.949,5.848,12.17,13.519,18.161,20.315c3.298,3.741,7.927,6.759,10.408,11.188c1.911,3.412,1.526,7.183,2.989,10.511
		c1.769,4.022,6.64,4.165,6.542,8.916c-0.049,2.37-1.753,4.217-3.09,5.909c-1.046,1.323-3.255,0.435-2.556,2.912
		c0.509,1.804,1.978,0.479,2.837,1.307c6.968,6.72-6.665,3.131-5.006,9.563c0.924,3.582,6.103,5.128,8.033,8.171
		c2.094,3.302,3.843,9.472,7.758,10.806l134.398-2.904c-1.779-5.649-8.013-8.675-11.209-13.542
		c-2.642-4.023-4.334-8.868-6.527-13.112c-4.799-9.29-9.758-20.352-7.89-31.073c0.667-3.827,1.699-7.628,2.095-11.537
		c0.599-5.913-1.408-10.856-1.377-16.599c0.026-4.733,2.836-8.762,3.68-13.432c1.276-7.058,5.865-14.344,3.068-21.472
		c-0.93-2.366-3.224-3.197-4.198-5.336c-1.153-2.533,0.85-6.035-0.563-8.624c-1.289-2.361-4.364-1.654-3.603-5.859
		c1.648,1.24,3.552,2.919,5.749,3.261c0.858-1.315,2.768-3.023,2.976-4.56c0.431-3.197,0.138-1.158-1.323-2.98
		c-0.763-0.951-5.781-1.272-2.902-4.419c0.589-0.644,4.585-0.055,5.428-0.1c-0.057-2.316,1.879-6.893,3.797-7.856
		c1.392-0.699,2.604,0.902,4.116-0.368c0.109-0.091,0.795-2.12,1.177-2.571c-2.229-5.357,2.934-3.967,5.403-2.954
		c5.02,2.061,5.39,1.136,9.982-1.452c3.502-1.973,4.461-3.858,7.126-6.812c1.201-1.331,3.041-1.959,3.22-3.731
		c0.221-2.193-4.016-3.824-2.397-7.389c3.916,2.696,11.388-8.311,8.253,2.466c2.613-0.03,6.164,0.016,8.273-1.242
		c2.662-1.588,2.393-7.275,6.192-5.285c-0.382,2.411-2.955,4.003-3.287,6.497c4.757,0.233,9.333-0.581,14.057-0.774
		c5.121-0.209,9.309,1.75,14.038,2.057c-0.516-4.242,1.265-6.525,6.02-6.295c4.432,0.215,3.786,5.863,8.921,4.715
		c-0.399,1.893-1.6,3.128-0.619,5.349c0.728,1.649,5.204,4.071,7.049,3.677c2.598-0.555,3.28-4.255,6.533-3.643
		c2.49,0.468,2.385,4.348,6.197,2.464c-0.459-2.57-3.492-4.046-1.973-7.068c3.432-0.746,2.621,2.124,4.78,3.267
		c1.536,0.814,3.151-0.054,4.756,0.488c2.211,0.747,3.101,3.448,5.021,4.266c3.344,1.425,5.147-0.366,2.777-3.486
		c-1.67-2.198-8.75-1.657-9.481-4.65c-0.74-3.032,4.442-3.147,3.227-6.666c-1.299-3.762-3.563,1.353-5.438,1.383
		c-1.591,0.025-3.871-2.248-5.178-2.91c-1.474-0.747-3.642,0.527-3.843-2.157c-0.078-1.039,1.883-3.046,2.857-3.262
		c3.299-0.733,4.208,3.393,7.942,2.846c3.294-0.483,5.862-3.602,9.301-4.092c3.483-0.497,7.15,1.565,10.527-0.5
		c2.368-1.449,3.968-6.629,7.821-6.095c2.32,0.321,2.51,3.012,3.913,4.519c4.659,5.001,3.917,1.169,7.704-0.435
		c3.75-1.588,2.645,0.734,5.561,1.302c3.05,0.594,5.671-1.609,8.677-1.425c2.594,0.158,5.814,1.788,8.139,2.929
		c2.315,1.136,4.551,2.309,6.052,4.544c0.42,0.626,2.479,6.765,2.031,6.74c3.46,0.198,6.239-0.117,9.558-1.088
		c4.59-1.343,4.115-3.576,7.797-5.587c6.933-3.785,12.877,4.269,15.672,9.542c3.234,6.1,9.363,7.612,10.472,14.963
		c0.523,3.467,0.781,7.394-0.436,10.796c-0.923,2.579-2.578,3.859-2.021,7.047c4.232,0.447,1.278-5.302,4.108-5.284
		c4.833,0.031,1.208,6.692,0.797,7.766c-1.115,2.916-0.782,12.785,3.288,13.716c-0.082-0.592,0.133-1.379,0.125-1.988
		c1.743-0.057,3.548-0.064,5.295,0.01c-2.108,2.153-2.824,5.416-1.636,8.313c0.621-0.983,1.423-4.095,2.801-4.567
		c3.087-1.059,0.763,2.038,0.83,2.932c0.221,2.955-0.351,8.187,1.441,10.681c0.981,1.366,2.922,1.331,4.074,2.458
		c1.347,1.318,2.81,4.258,3.742,5.837c2.144,3.634,1.834,5.252,6.617,5.819c3.172,0.376,7.899,0.514,9.248-2.874
		c0.898-2.256-0.721-5.842-1.042-8.228c-0.378-2.805-0.195-4.993,0.415-7.791c0.735-3.372,2.631-6.676,2.581-10.099
		c-0.069-4.718-3.964-3.62-4.508-7.448c4.555-0.505-2.673-9.898-3.661-11.946c-2.577-5.345-2.109-11.135-3.82-16.329
		c0.727,0.122,1.474-0.256,2.419,0.264c-0.849-2.563-3.886-4.788-5.364-7.287c-2.042-3.452-3.201-6.729-3.743-10.713
		c-1.185-8.712-5.047-19.197-1.253-27.035c-4.511-1.852-1.432-4.462,0.519-6.887c0.783-0.974,1.775-1.764,2.414-2.656
		c0.388-0.54-0.071-1.81,0.489-2.538c0.48-0.623,1.672-0.442,1.988-0.78c0.585-0.626,3.081-2.464,3.267-3.338
		c0.546-2.574-1.029-2.204-1.535-4.037c-1.555-5.633,3.872-4.234,3.32-0.559c1.048-0.785,1.459-2.165,1.236-3.637
		c2.697,0.079,9.81,0.004,8.252-3.743c0.642,0.336,2.027,0.286,2.801,0.734c0.297-1.058,1.206-1.709,1.397-2.8
		c1.451-0.499,7.531-4.63,8.648-5.982c1.964-2.378-0.003-1.845,0.48-3.598c0.462-1.673-0.612-3.791,2.344-2.552
		c0.906-3.477,5.423-5.359,8.286-7.123c1.655-1.02,1.711-1.608,3.763-2.053c2.208-0.479,4.12,0.835,5.768-0.004
		c2.981-1.52,2.717-5.355,4.141-7.464c1.015-1.502,3.289-2.092,3.839-3.631c0.417-1.168-0.85-3.131-0.774-4.507
		c1.824,0.214,2.075,2.567,3.651,2.857c1.783,0.328,2.469-1.612,3.816-2.01c3.247-0.96,7.423,0.605,9.022-3.296
		c-1.703-0.736-4.29,0.237-5.774-0.593c-1.785-0.997-1.906-4.218-2.885-6.072c2.954-0.443,2.972,4.982,5.734,3.57
		c0.994-0.508,0.685-4.216,0.848-5.224c-1.532-0.353-9.793-3.134-6.193-5.421c2.908-1.847,6.136,5.067,7.977,1.233
		c0.398,1.001,0.551,1.755-0.016,3.213c3.354-1.596,5.116,1.591,7.93-0.861c1.985-1.73,3.938-6.499,3.558-8.977
		c-2.369,0.401-2.207,3.268-5.269,3.245c-1.29-1.675-0.532-3.577,0.207-4.897c-3.377-0.717-6.987,2.96-9.794,0.266
		c-1.485-1.425-2.238-6.36-0.752-7.752c1.936,1.267,0.723,4.206,2.8,5.355c1.719,0.951,3.155-0.501,2.976-2.484
		c0.439,0.603,1.521,1.152,2.011,2.02c1.342-3.535,3.967,0.326,5.524-1.566c1.061-1.289-2.585-5.445-2.556-7.04
		c0.788,0.179,2.078-0.331,2.778-0.199c0.09-1.781,0.601-5.05-0.745-6.522c-2.088-2.282-2.288-0.249-4.494-0.27
		c-4.384-0.043-5.887-2.939-10.077-5.018c-2.616-1.298-10.571-4.269-3.217-4.563c5.591-0.223,7.165,6.089,11.478,6.51
		c0.63-4.197-5.862-5.209-6.973-9.057c1.229,0.484,5.016,4.807,6.632,4.162c3.094-1.234-0.543-4.166-1.354-5.005
		c-1.97-2.038-3.779-2.863-5.302-5.497c-1.155-1.998-2.016-3.706-3.812-5.308c4.14-2.515,9.527,5.852,12.026,8.289
		c0.545-1.413,0.648-2.931,0.475-4.455c-4.487-1.787-10.229-5.497-13.677-8.803c-4.836-4.638,2.588-9.417,2.16-2.137
		c3.975-0.531,5.979,4.381,10.658,4.158c0.555-2.585-2.171-7.145-4.874-7.496c-0.107-3.057-1.229-8.96-0.092-11.418
		c1.008-2.18,9.024-9.048,11.188-8.77c0.484,5.33-3.282,7.843-2.437,12.793c0.474,2.779,2.666,8.653,4.15,10.714
		c1.15,1.598,2.953,1.453,3.335,3.383c0.289,1.46-1.302,2.101-1.259,3.347c0.03,0.882,0.753,2.242,0.757,2.594
		c0.034,3.083-0.27,3.549-2.108,6.491c-1.421,2.275-1.971,4.35-2.732,6.602c3.496-0.204,8.005-10.696,8.592-14.039
		c0.649-3.693,0.769-5.393,2.115-8.741c0.33-0.82,1.343-0.403,1.72-1.63c0.191-0.62-0.533-1.767-0.454-2.073l2.074-2.489
		c-3.335-2.579-5.017-3.95-6.211-7.799c-0.729-2.35-1.605-5.096-2.097-7.528c-1.04-5.142,2.171-11.031,8.304-10.348
		c-2.779,5.132-9.313,5.128-4.559,11.903c1.746,2.487,6.9,8.204,9.622,6.724c2.995-1.628,3.269-8.486,5.542-11.245
		c1.399-1.698,2.581-1.813,3.503-4.201c1.07-2.77,3.044-11.986-2.011-11.169c-0.941-4.801,1.398-4.16,3.784-4.592
		c2.591-0.47,5.676-1.918,8.609-2.811c4.176-1.273,20.937-1.731,21.558-6.666c-3.458-1.378-6.009,1.679-9.124,2.537
		c-2.182,0.601-4.497,0.238-6.729,0.489c-3.394,0.382-6.732,2.523-10.207,1.909c-1.301-2.604-3.062-5.585-2.913-8.573
		c2.96,0.197,1.227,3.388,2.924,4.649c1.982,1.473,3.669-1.043,5.634-2.235c4.525-2.747,8.415-2.588,13.325-3.691
		c2.071-0.465,4.208-2.083,6.364-2.552c2.307-0.502,4.673-0.005,6.948-0.467c3.925-0.796,4.3-2.297,4.627-6.075
		c2.088,0.419,4.052,0.202,6.095-0.002c-0.896,1.731-1.236,4.925,2.108,3.606c1.498-0.591,0.89-3.46,3.378-4.061
		c0.383,1.235,0.537,2.695,0.438,4.063c2.258,0.703,2.398-0.899,3.244-1.193c1.236-0.429,3.175-0.737,4.698-1.212
		c3.281-1.024,7.026-5.893,1.404-7.455c-0.34,1.547,0.133,3.164,0.081,4.883c-1.504,0.436-3.36,0.695-4.824,0.838
		c-0.695-1.423-2.626-2.178-3.118-3.476c-0.808-2.132,1.38-5.488-0.666-7.293c-1.666-1.469-4.62,0.771-5.878-1.19
		c-1.373-2.139,0.863-4.28,2.865-4.24c1.193,0.024-1.388-8.591-1.118-9.54c0.815-2.87,5.469-7.975,7.421-10.297
		c0.883-1.05,3.129-2.426,4.08-3.733c0.814-1.119,0.13-2.057,0.458-3.328c0.86-3.337,1.232-3.798,5.03-6.099
		c1.441-0.873,5.126-4.673,4.139,0.663c2.428,0.731,4.353-2.182,5.879-3.273c0.981-0.702,1.385,0.525,2.808-0.886
		c1.602-1.587,0.602-4.713,1.952-6.567c3.563-4.89,1.688,0.881,3.827,2.513c2.816,2.148,4.285-0.884,4.552-3.292
		c1.329,0.636,1.656,0.558,1.753,2.367c3.517-0.198,8.121-5.219,11.553-6.653c1.83-0.764,4.729-0.201,6.128-1.224
		c3.045-2.227,0.226-4.369-0.03-6.142c-0.162-1.124-0.463-6.137,0.8-6.631c1.904-0.745,3.059,2.816,4.319,3.231
		c1.143,0.376,1.891-0.076,2.905,0.063c1.012,0.139,5.604,0.392,6.613-0.294c2.282-1.552,0.566-6.589,4.181-6.633
		c0.692,1.431,0.517,2.85-0.494,4.011c2.369,3.404,11.828-5.112,14.637-6.937c1.854-1.204,5.789-3.804,6.566-5.909
		c0.795-2.153-0.562-3.299-0.391-5.784c3.743,0.392,2.539,9.744,7.382,5.855c0.28,6.678-1.066,3.976-5.765,6.565
		c-2.793,1.54-3.254,3.45,0.438,4.147c3.626,0.684,17.993-4.636,18.646,0.862c-4.361,1.041-9.644,1.711-13.555,4.232
		c1.222,0.779,1.945,2.121,1.893,3.555c-2.36,0.314-5.706-3.707-3.359-5.68c-4.342-0.721-8.594,5.348-12.369,7.121
		c-3.205,1.506-5.218,2.223-7.748,4.781c0.932-0.269,2.266-0.084,3.112-0.197c-1.371,1.694-3.424,3.063-5.196,4.253
		c-0.293-0.167-0.648-0.483-0.911-0.644c-3.078,3.183-5.902,6.027-5.909,10.35c-0.004,2.439,0.168,8.209,3.761,7.394
		c0.103-0.508,0.075-1.029,0.125-1.542c3.208,0.658,2.514,8.832,7.827,6.779c2.799-1.082,3.354-12.914,6.641-5.109
		c2.649-4.053,6.518-3.601,8.744-7.926c0.679-1.319,1.162-4.136,2.012-5.746c0.16-0.303,1.615-0.926,2.097-1.765
		c0.368-0.64-0.52-2.392-0.792-2.901c1.627-0.959,3.429-1.912,5.287-1.99c-0.181,0.805,0.275,1.952,0.096,2.777
		c3.763,0.247,4.49,0.434,7.371,2.112c0.646-3.379-0.707-4.554-3.244-6.298c1.388-1.289,2.821-0.58,3.398,1.304
		c4.935,0.095,11.354-2.617,16.431-5.593c3.745-2.196,7.526-3.883,11.707-5.253c2.872-0.942,8.769-0.473,10.406-2.811
		c-1.615-1.477-4.285-0.485-6.256-1.205c2.341-1.848,1.389-7.068-1.675-8.179c-2.279-0.826-5.6,3.065-5.383-2.541
		c-2.204,1.405-6.333,4.658-8.709,5.318c-1.585,0.441-3.63-0.591-5.359-0.476c0.52-1.62-0.377-1.352,1.098-2.538
		c-2.658-1.996-4.115-1.391-6.949-0.635c-4.167,1.111-2.771,1.43-6.23-0.298c-2.942-1.469-6.718-4.154-9.205-6.867
		c1.216-1.025,2.903-1.018,4.594-0.861c0.109-4.759-5.722-2.106-8.283-2.52c-1.263-0.204-4.868-1.711-5.825-2.397
		c1.871-2.141-0.88-6.64-2.002-8.743c-0.97-1.818-1.977-1.621-2.104-4.136c-0.088-1.739,1.652-2.822,1.21-4.915
		c-2.027-0.117-4.108-0.031-6.138-0.105c-1.881-4.024,2.469-4.822,4.024-7.839c1.424-2.762,3.893-8.357,4.184-11.237
		c-6.691-3.224-9.01,7.732-13.994,6.196c-1.429-4.292-1.421-5.536-5.852-6.886c-1.42-0.432-3.306-1.484-4.674-1.646
		c-1.956-0.231-5.472,2.107-6.892,1.58c-4.239-1.573,3.378-4.955,5.328-5.335c3.54-0.69,6.758,0.583,7.641-3.812
		c1.995,0.709,3.11,3.185,4.852,4.141c2.06,1.13,3.71-0.79,5.32,2.031c2.024-1.238,4.914-3.288,6.657-4.954
		c0.676-0.646,1.406-2.111,2.057-2.578c1.84-1.32,3.803-0.562,5.792-1.548c8.441-4.187-2.107-6.983-3.258-9.477
		c2.176-0.068,4.391,0.538,6.573,0.275c-5.009-2.793-5.53-8.121-11.255-9.578c-6.009-1.53-10.485-1.479-16.58,0.186
		c-14.571,3.979-27.304,8.808-39.775,17.754c-10.986,7.881-18.656,17.368-27.595,27.295c-7.291,8.097-14.127,12.91-24.12,17.194
		c-10.837,4.645-19.048,12.492-26.32,21.051c-4.837,5.693-13.339,15.502-21.866,14.433c1.916-2.214,5.703-4.112,7.129-6.946
		c0.852-1.692,0.008-3.537,1.032-5.33c1.034-1.811,2.762-2.121,4.341-3.391c5.239-4.213,8.547-8.94,14.686-12.464
		c6.062-3.48,11.357-7.274,17.861-10.384c12.617-6.032,20.278-17.524,29.602-26.961c7.571-7.663,0.972-8.425-7.088-9.945
		c-1.003-0.189-6.366-0.329-6.965-1.309c-1.086-1.777,12.298-2.598,14.031-1.905c2.005,0.802,3.426,3.509,5.716,3.638
		c3.191,0.18,3.286-3.36,4.655-6.229c1.791-3.752,4.519-5.506,7.396-8.311c4.466-4.356,8.172-10.68,14.607-11.6
		c3.117-0.446,5.029,0.396,7.872-1.559c3.317-2.282,3.378-5.394,5.001-9.226c2.872-6.782,6.966-10.095,14.507-10.362
		c7.333-0.26,14.09-3.293,21.438-3.755c9.049-0.569,17.963,1.299,26.914,0c9.733-1.413,20.424,0.625,29.931,2.405
		C1165.243,14.632,1187.539,12.713,1186.205-2.192z M632.203,37.467c-2.207,1.947-5.153-0.47-6.14-2.481
		c-2.74,2.243-0.629,8.72-5.498,9.834c-3.366,0.77-5.788-2.581-5.796-5.426c-0.521-0.048-1.041-0.108-1.56-0.178
		c-0.189-5.867,4.644-1.559,6.795-4.424c4.047-5.391-2.435-2.695-4.392-4.961c-2.268-2.626-1.062-4.38,0.464-6.797
		c0.144-0.227,3.119-0.992,3.993-2.244c0.171-0.245-0.592-4.884-0.515-5.712c3.5,0.189,4.248,2.946,4.172,6.168l4.978,6.844
		C629.822,29.588,634.578,35.371,632.203,37.467z M711.456,11.289l7.467-0.622c-1.019-0.229-1.229-0.597-0.631-1.104
		c8.389-5.022,9.305,2.352,8.114,8.087c-1.185,5.711,0.286,10.749-4.964,13.566c-6.055,3.249-8.916-0.837-9.998-5.124
		C710.574,22.644,708.997,13.557,711.456,11.289z M795.869,166.26c-3.856-3.645,10.33-16.441,9.99-21.847
		c-0.059-0.939-2.512-3.638-2.95-4.931c-0.495-1.462-0.222-3.43-0.736-5.035c-0.931-2.909-3.066-1.588-2.968-5.453
		c-4.614,0.65-7.542-4.852-12.293-5.751c-2.757-0.522-9.394-0.476-11.578,1.289c0.87,0.126,3.338,1.581,4.56,1.647
		c-1.984,2.451-4.558,2.664-6.694,5.37c-2.747,3.48-1.328,6.477-2.557,10.412c-4.381-0.147-3.694-4.746-4.385-8.135
		c-9.1,2.73-12.134,32.169-9.918,39.476c1.391,4.586,3.605,5.276,3.718,10.648c0.093,4.451-1.597,8.717-3.165,12.787
		c-2.178,5.652-5.534,12.56-12.983,11.863c-13.091-1.225-16.351-23.362-14.075-32.633c3.306-13.471,12.788-29.766,12.572-43.262
		c-2.958,2.991-5.023,15.906-10.939,14.35c-4.667-1.227-2.013-4.953-0.372-8.291c2.824-5.743,8.489-23.224,15.884-23.086
		c3.034,0.057,4.079,3.067,6.43,3.295c2.351,0.229,6.391-2.129,8.463-3.001c7.171-3.021,10.893-5.14,17.482,0.619
		c2.1-6.136,19.564,0.897,24.918,1.719c4.211,0.647,8.694-0.513,12.926,0c4.027,0.488,4.107,0.875,7.409,2.958
		c2.34,1.477,1.498,4.717,6.279,3.182c0.17-2.942,0.503-5.472-1.271-7.415c1.236,1.353-8.756-3.709-7.58-3.515
		c-1.547-0.255-5.093,1.365-7.247,1.54c-3.748,0.305-8.729-0.679-12.421-1.244c-4.713-0.722-26.786-6.162-25.674-12.214
		c-10.839-4.585-19.328,5.044-29.629,1.773c-4.175-1.326-9.269-3.032-12.735-5.687c-2.361-1.809-1.104-3.76-4.13-4.202
		c-1.901-0.277-4.465,3.014-7.493,2.331c-1.38-1.84-3.936-3.974-3.597-6.641c4.106-1.633,13.826-2.324,12.855-8.319
		c-3.877-1.581-7.126,0.894-10.595,2.454c-3.53,1.588-7.752,3.153-11.219,5.106c-9.637,5.429-16.348,11.763-28.521,10.544
		c0.326-1.237-0.393-2.973-0.119-4.2c-7.225-1.241-12.792,6.716-19.87,3.684c2.613-5.327,5.329-9.792,10.82-13.17
		c8.631-5.308,17.303-10.477,25.931-16.119l4.355-0.622c4.964-7.575,2.25-18.323,14.261-12.501c0.113-7.303,0.533-6.124,5.729-6.151
		c3.666-0.019,11.637-2.333,3.037-4.992c3.645-6.25,8.753-2.893,12.685,0.018c1.882,1.394,4.287,3.445,6.473,4.316
		c2.761,1.1,7.058,0.094,9.391,1.363c4.607,2.506,4.357,11.824,9.334,14.817c3.859,2.321,4.326-0.524,7.336-0.071
		c3.006,0.453,6.503,1.966,9.184,3.184c-4.956,3.538,0.341,7.676,0.983,11.919c0.517,3.415-1.795,5.725,0.661,8.039
		c2.035,1.917,6.256,0.113,8.533,3.691c-5.838,2.611-9.894,4.902-4.695,9.992c1.35,1.322,8.579,5.128,10.264,5.803
		c7.991,3.197,20.294-0.424,28.931,0.865c5.304,0.791,18.716,3.218,22.7,6.782c3.843,3.438,2.174,10.095,4.728,14.086
		c3.35,5.234,11.294,6.314,11.543,13.913c-2.385,0.436-4.701-0.871-6.348-2.817c7.963,8.19-5.992,10.747-11.065,7.303
		c-4.488-3.047-8.995-15.631-13.5-4.131c-1.672,4.267-0.87,11.648-1.991,16.037c-1.329,5.205,0.18,23.265-10.608,20.429
		c-4.922-1.294-6.578-11.24-8.032-15.375C805.877,146.839,804.92,174.817,795.869,166.26z M870.54,187.376
		c-1.607,1.53-4.841,1.71-6.674,3.069c-1.94,1.437-2.768,3.779-4.68,5.217c-4.912,3.694-8.475,1.687-13.452,3.496
		c-7.365,2.676-13.277,10.607-20.96,13.165c-4.841,1.612-14.708,0.945-19.294-1.293c-5.37-2.621-3.49-4.878-3.104-11.237
		c8.068-2.067,13.846-2.485,21-7.11c2.22-1.435,6.465-4.357,8.886-5.32c4.528-1.801,9.534,0.117,14.215-1.854l3.733-1.867
		c3.476-0.798,10.867-1.744,14.654-3.687c3.378-1.733,3.856-5.593,8.336-5.627C875.117,178.341,873.721,184.345,870.54,187.376z
		 M916.68,158.844c1.563,5.206-3.914,8.932-8.605,7.999l-6.844,1.244c-1.911,7.508-14.756,1.745-20.379,1.901
		c-6.499,0.18-14.713,1.433-21.378,2.953c-2.469-11.516,8.96-12.631,18.745-14.185c5.592-0.888,11.419-2.076,16.788-3.862
		c8.712-2.897,17.285-6.19,26.13-8.565C919.045,149.313,912.202,155.584,916.68,158.844z"/>
	<path fill="#8DCEE0" d="M346.218,216.62l-0.622-3.733c-1.427-1.031-3.289-2.23-4.992-3.214c-2.026,1.703-1.572,4.635-3.117,6.414
		c-2.011-1.713-4.392-10.146-8.158-7.457c-2.29,1.635,0.677,8.459,2.984,8.721c-0.317,12.39,9.354,10.711,17.087,4.853
		C348.656,220.291,347.519,218.305,346.218,216.62z"/>
	<path fill="#8DCEE0" d="M844,487.8c-2.06,0.878-3.931,2.138-5.612,3.838l1.867,3.733C845.439,501.403,845.176,490.641,844,487.8z"
		/>
	<g>
		<path fill="#8DCEE0" d="M896.908,492.215c-4.468-1.479-18.218,2.386-21.708,5.036c2.703,1.852,7.166,1.722,10.476,0.608
			l-2.489-1.244c3.39-2.661,8.254-1.989,12.34-1.775c0.325,0.199,2.437,1.852,3.031,2.353c-0.18,2.443-0.77,5.436-0.379,8.124
			C903.513,504.789,901.806,493.837,896.908,492.215z"/>
		<path fill="#8DCEE0" d="M915.542,522.126l1.244,3.733c1.475,2.757,1.418,5.931,2.472,8.733
			C922.834,530.251,917.892,526.015,915.542,522.126z"/>
	</g>
	<path fill="#8DCEE0" d="M959.097,594.925l-1.867,2.489c4.985-1.574,12.119-0.094,12.447-7.167
		C966.63,592.702,962.707,593.543,959.097,594.925z"/>
</g>
<g id="Land">
	<path fill="#F6F0EF" d="M1136.449,26.647c-7.925-2.261-17.659-13.256-26.569-9.256h1.244c-1.961,1-4.605-2.078-6.23-1.073
		c-2.042,1.263,3.445,5.63,4.611,6.93c4.811,5.366,8.285,6.72,15.181,7.76c7.839,1.182,15.182,5.868,23.38,5.53
		C1148.359,30.151,1141.294,28.029,1136.449,26.647z"/>
	<path fill="#F6F0EF" d="M111.436-2.118c5.533,7.166,16.065,3.561,20.747,9.583c2.272,2.922,2.225,6.74,4.433,9.842
		c1.109,1.559,7.103,5.405,3.029,7.193c1.912,1.535,5.036,5.444,7.797,3.381c2.717,2.694,2.256,4.386,6.157,5.672
		c4.514,1.489,5.451,1.076,5.965,6.483c0.283,2.98,0.842,10.172,5.328,9.265c1.429,13.827-11.158,1.646-16.775-0.679
		c-1.967-0.814-4.064-0.492-6.079-1.37c-2.436-1.061-3.33-3.469-5.71-4.273c1.062-2.506,6.897-5.936,6.266-8.694
		c-1.382-6.042-4.427,3.686-4.685,3.903c-2.723,2.304-4.003-0.841-5.817-0.735c-3.05,0.179-2.183,1.505-4.86,2.354
		c-2.435-2.909-2.237-2.958-2.023-5.664c0.101-1.277,2.74-1.442,1.19-3.938c-0.52-0.837-6.966-2.945-7.904-3.286
		c-2.103-0.765-2.433,0.21-3.748-1.249c0.012,0.013-1.215-3.844-1.267-4.002c-1.122-3.423,0.072-2.751-3.338-4.271
		c-2.073-0.924-3.184-2.25-5.382,1.244c-3.87-1.145-1.633-4.449-1.764-7.031c-2.142,0.377-3.792-1.214-5.848-1.732
		c-3.044-0.766-3.88,0.443-5.643-2.921c-1.642-3.132-4.321-8.741-4.127-12.396L111.436-2.118z"/>
	<path fill="#F6F0EF" d="M746.204,587.98c-6.466-0.708-12.984-4.085-19.802-3.174c-8.436,1.126-17.857,3.955-26.204,5.618
		c-12.069,2.404-7.107,5.855-10.023,14.637c-1.526,4.594-8.713,13.33-6.096,19.33h44.799c6.236,0,4.955-11.086,6.734-15.809
		C738.31,601.414,747.84,596.212,746.204,587.98z"/>
	<g>
		<path fill="#F6F0EF" d="M932.994,600.751c-3.378-0.896-6.207-2.092-10.528-2.32c0.383-1.123-0.048-2.436,0.584-3.681
			c-3.482-1.431-6.951,0.707-10.476-0.523c-1.207-0.422-1.976-1.984-3.091-2.419c-1.851-0.723-4.471-0.667-6.187-1.371
			c-3.992-1.636-7.277-4.068-11.257-6.331c-4.762-2.707-8.879-3.501-13.19-6.222c-3.53-2.228-3.487-4.14-8.218-5.351
			c-2.087-0.534-4.689-0.177-6.715-0.842c-5.944-1.953-10.186-7.719-16.823-9.28c-6.879-1.618-14.739-2.565-21.817-3.237
			c-9.237-0.877-17.427,1.565-26.086,2.019l-5.6,1.244c-1.745,1.045-5.198,2.02-6.409,3.629c-1.291,1.714-0.118,2.859-1.059,4.492
			c-1.464,2.541-3.34,3.138-4.975,5.07c-4.961,5.858,3.63,2.924,7.328,1.135c1.48-0.716,3.511-3.114,5.106-3.656
			c4.577-1.553,10.201,0.686,14.762-2.036c2.458-1.467,3.629-4.478,6.638-6.145c4.373-2.422,10.294-3.946,14.066-0.034
			c-2.231,2.674-8.792,1.93-7.933,6.199c4.404-0.116,7.552,1.757,11.084,2.544c4.451,0.992,9.061-1.301,13.452,0.084
			c3.61,1.139,7.179,4.677,10.182,6.262c5.068,2.675,9.662,3.585,15.519,3.611c3.017,0.014,6.451-0.83,8.118,1.356
			c2.151,2.822-0.412,6.8,2.432,9.752c4.719,4.898,14.089,1.797,18.13,8.776c-0.856,1.116-7.838,5.967-7.633,6.869
			c0.986,4.338,7.86,1.593,10.433,1.232c7.862-1.104,14.696-0.369,22.68-0.638c3.461-0.117,6.359,1.13,10.052-0.128
			c2.455-0.837,2.796-2.732,4.878-2.993c3.05-0.382,11.448,5.608,10.781-1.797C946.07,601.827,938.641,602.249,932.994,600.751z"/>
		<path fill="#F6F0EF" d="M809,579.236v0.622c-2,0.03-3.35,2.135-2.81,4.884c-2.694-0.128-2.768,0.883-4.039,1.726
			c2.974,0.831,12.719-0.589,12.775-4.308C814.979,578.699,810,578.914,809,579.236z"/>
		<path fill="#F6F0EF" d="M1012.561,619.106c-3.496-1.278-6.426-3.749-10.39-4.157c-5.12-0.528-10.703,1.295-16.022,0.388
			c-7.022-1.198-18.674-8.58-24.672-1.239c1.889,2.384,4.879,2.726,6.863,4.51c2.245,2.019,3.328,4.432,5.067,6.672l46.666,3.111
			C1016.396,621.842,1019.898,621.788,1012.561,619.106z"/>
	</g>
	<path fill="#F6F0EF" d="M1186.205-4.192L140.888-1.703c0.203,2.794,1.36,4.844,1.298,7.85c1.979-0.401,4.084-1.477,6.177-1.089
		c0.507,2.608-2.033,3.658-2.588,5.984c-0.517,2.166,0.605,6.677,2.122,8.406c2.649,3.02,3.01,1.999,5.435-0.017
		c2.349-1.952,1.493-3.888,3.057-5.815c2.889-3.558,3.182,0.125,2.679,2.611c-0.203,1.002-1.234,2.339-1.503,3.648
		c-0.225,1.096,1.226,1.365,1.197,2.046c-0.054,1.242-2.174,2.313-1.756,3.482c0.45,1.26,1.514,0.581,1.812,1.101
		c0.813,1.417,3.378,0.128,2.85,3.687c2.861-0.072,4.161-6.943,7.495-8.367c0.809,3.092-1.099,6.926-0.097,10.387
		c1.738-0.682,2.446-3.099,4.556-3.627c1.374,3.081-4.504,6.61-2.801,9.57c1.2,2.086,4.492,1.206,6.092,2.861
		c1.364,1.411,2.555,6.213,2.963,8.106c0.557,2.582-0.548,7.209,0.802,9.37c1.389,2.225,5.033,1.512,4.298,4.928
		c-0.591,2.747-3.969,2.825-4.288,6.11c-0.258,2.658,7.814,13.47,0.912,12.196c0.865,3.791-5.846,5.264-8.363,4.142
		c0.98-1.753,2.535-3.447,1.668-5.405c-1.293,0.75-2.948,1.289-4.512,1.143c0.397-2.542,0.615-5.328,1.282-7.897
		c1.047-4.033,6.66-5.955,6.079-9.778c-4.928,1.074-11.685,0.531-16.148-1.754c-2.594-1.327-14.953-7.314-15.688-3.386
		c-0.439,2.347,2.405,3.516,3.284,5.607c0.953,2.266,1.396,5.755,2.054,8.152c0.9,3.277,0.881,7.04,2.394,10.124
		c0.993,2.025,4.15,3.312,4.708,4.887c0.838,2.422-1.226,1.55-1.211,2.491c0.027,1.736-0.504,0.831,0.22,2.803
		c0.407,1.11,2.146,2.855,3.126,3.603c-0.781-0.598-2.091-0.724-2.959-1.094c-1.208,3.454-0.805,6.356,1.572,8.304
		c2.232,1.83,7.948,1.164,9.143,4.398c-2.583,0.353-9.389-1.095-11.261,0.872c-1.34,1.408-0.061,5.984-0.318,7.916
		c-0.309,2.318-1.198,4.324-1.282,6.705c-0.104,2.94,1.337,5.257,1.624,7.954c0.556,5.228-1.841,10.68-1.585,16.135
		c0.152,3.237,1.257,7.21,0.828,10.358c-0.157,1.155-1.627,1.767-1.603,2.907c0.024,1.179,1.627,1.781,1.613,2.778
		c-0.065,4.426-5.618,9.152-7.335,13.095c-2.385,5.477-1.076,12.824,1.199,18.213c1.695,4.015,4.968,7.037,5.286,11.211
		c0.355,4.645-0.36,10.603-0.655,15.294c-0.196,3.129,0.013,1.808-2.165,4.804c-1.466,2.017-3.247,4.454-2.518,7.19
		c0.922,3.461,5.856,7.569,7.756,10.364c1.792,2.636,2.748,6.966,3.309,9.97c0.878,4.705-0.114,8.345,1.741,12.764
		c1.997,4.756,3.173,8.397,6.687,11.739c1.026,0.975,8.965,8.111,9.03,8.662c-0.92-7.795,12.721-9.755,17.672-6.59
		c6.671,4.264-9.352,4.448-11.851,5.443c1.149,3.085,3.787,7.117,4.207,10.161c-3.212-4.173-11.875-9.28-10.522-1.178
		c0.544,3.257,1.379,6.427,4.68,7.87c2.285,0.999,7.956-0.636,8.744,2.543c0.513,2.07-2.873,4.368-2.888,6.221
		c-0.014,1.739,1.794,3.912,2.946,5.032c1.842,1.79,4.088,2.372,5.691,4.499c1.88,2.494,3.163,5.399,5.032,7.942
		c2.93,3.986,6.425,8.837,7.839,13.632c1.761,5.975,1.983,9.988,9.077,10.821c2.992,0.352,7.516-1.636,10.46-0.463
		c2.351,0.937,2.892,3.595,4.708,5.399c3.909,3.882,11.523,0.393,10.651,7.738c4.574-2.685,7.131,2.565,9.404,5.241
		c2.694,3.172,6.971,5.257,8.886,9.051c2.373,4.703,2.774,8.786,6.165,13.362c2.57,3.468,2.612,6.852,5.372,10.676
		c3.09,4.28,1.542,8.574,4.623,12.515c1.698,2.171,2.252,2.635,3.259,4.976c0.85,1.976,1.782,3.064,2.787,4.865
		c3.307,5.931,0.564,11.566,7.21,16.238c4.298,3.022,7.978,4.354,10.628,9.105c1.759,3.152,3.059,6.957,5.58,9.611
		c2.077,2.186,6.661,3.489,6.56,7.077c-0.068,2.405-1.926,1.623-2.445,3.224c-0.868,2.68,0.007,5.642,3.649,5.444
		c1.143,7.403-12.127-2.226-14.913-0.918c-4.843,2.274,0.52,2.992,2.53,4.68c2.188,1.838,1.783,4.111,3.717,5.662
		c1.659,1.331,4.208,1.09,6.273,2.594c1.744,1.271,3.255,4.122,5.186,4.895c3.031,1.213,8.065-1.582,11.322-3.293
		c-0.293,8.466,5.519,10.19,11.13,14.595c2.774,2.178,4.085,5.197,4.573,8.607c0.623,4.353-1.979,10.465-0.028,14.416
		c0.963,1.949,5.361,4.86,7.152,6.306c3.43,2.77,6.86,5.586,10.308,8.681c3.427,3.078,4.835,7.09,8.783,9.572
		c1.804,1.134,3.453,0.99,4.939,3.278c1.244,1.915,1.226,4.447,2.558,6.327c4.312-2.709,8.212-5.158,5.797-10.799
		c-0.573-1.338-2.042-1.571-2.528-2.874c-0.412-1.105,0.487-2.673-0.056-3.784c-0.634-1.296-5.735-4.414-6.902-4.908
		c1.043,7.929-6.478,2.054-7.425-2.143c-0.576-2.551,0.343-5.083-0.399-7.735c-0.581-2.079-2.033-4.068-2.913-6.077
		c-1.349-3.08-3.849-6.324-5.006-9.303c-0.722-1.861-0.918-3.973-1.225-6.184c-0.78-5.618-4.163-11.416-8.687-14.951
		c0.794,1.713,1.024,3.717,0.327,5.419c-2.328-0.407-5.297-9.07-6.669-11.598c-2.612-4.814-7.166-8.87-9.028-14.018
		c-2.125-5.875-1.18-8.82-6.317-12.333c0.061,0.042-2.009-2.037-1.983-2.01c-0.467-0.482-1.389-0.001-2.082-0.802
		c-1.229-1.421-1.677-4.134-2.989-5.807c-1.339-1.707-3.605-5.02-4.925-6.262c-2.187-2.057-6.199-2.864-7.973-5.455
		c-2.368-3.459-1.546-9.656-2.873-13.585c-0.601-1.779-0.716-4.185-1.63-5.809c-1.565-2.781-2.765-2.875-2.943-6.059
		c-0.177-3.183,0.81-3.972-0.716-7.264c-1.215-2.621-3.295-4.682-2.953-7.847c4.128,0.641,6.462,7.091,10.668,6.984
		c2.743-0.07,1.425-2.307,2.894-2.786c3.356-1.096,4.949,1.654,6.797,3.584c1.15,1.202,2.184,2.733,3.708,3.527
		c1.443,0.752,4.497,0.252,5.661,1.515c1.712,1.857-0.194,2.698,0.479,4.623c0.718,2.055,2.737,2.076,3.711,3.707
		c1.023,1.714,0.245,4.259,0.854,6.233c0.682,2.213,2.45,4.838,3.44,7.061c0.897,2.014,1.45,4.642,2.336,6.502
		c0.945,1.985,4.245,4.182,5.078,6.333c1.695,4.374,0.794,7.124,3.924,11.181c1.467,1.902,2.146,4.349,3.535,6.145
		c2.978,3.851,7.09,6.705,10.79,9.755c3.048-2.969,2.501-2.533,5.74-0.601c3.771,2.249,2.259,1.379,2.984,5.454
		c1.169,6.571,9.027,7.243,9.935,13.631c3.599,0.22,7.245-0.128,10.131,2.359c2.822,2.432,2.417,6.209,4.351,8.872
		c-0.518-0.713-1.419-0.994-2-1.544c-1.987,2.135-4.932,3.051-5.063,6.228c-0.042,1.029,1.358,5.127,2.141,5.572
		c1.716,0.977,2.468-0.617,3.902-0.182c2.87,0.87,1.296,1.468,3.457,3.539c3.093,2.964,8.678,2.553,10.869,6.725
		c0.827,1.575,0.016,3.403,0.858,5.012c0.887,1.696,2.879,2.278,4.207,3.411c1.982,1.691,3.682,3.632,5.653,5.291
		c6.949,5.848,12.17,13.519,18.161,20.315c3.298,3.741,7.927,6.759,10.408,11.188c1.911,3.412,1.526,7.183,2.989,10.511
		c1.769,4.022,6.64,4.165,6.542,8.916c-0.049,2.37-1.753,4.217-3.09,5.909c-1.046,1.323-3.255,0.435-2.556,2.912
		c0.509,1.804,1.978,0.479,2.837,1.307c6.968,6.72-6.665,3.131-5.006,9.563c0.924,3.582,6.103,5.128,8.033,8.171
		c2.094,3.302,3.843,9.472,7.758,10.806l134.398-2.904c-1.779-5.649-8.013-8.675-11.209-13.542
		c-2.642-4.023-4.334-8.868-6.527-13.112c-4.799-9.29-9.758-20.352-7.89-31.073c0.667-3.827,1.699-7.628,2.095-11.537
		c0.599-5.913-1.408-10.856-1.377-16.599c0.026-4.733,2.836-8.762,3.68-13.432c1.276-7.058,5.865-14.344,3.068-21.472
		c-0.93-2.366-3.224-3.197-4.198-5.336c-1.153-2.533,0.85-6.035-0.563-8.624c-1.289-2.361-4.364-1.654-3.603-5.859
		c1.648,1.24,3.552,2.919,5.749,3.261c0.858-1.315,2.768-3.023,2.976-4.56c0.431-3.197,0.138-1.158-1.323-2.98
		c-0.763-0.951-5.781-1.272-2.902-4.419c0.589-0.644,4.585-0.055,5.428-0.1c-0.057-2.316,1.879-6.893,3.797-7.856
		c1.392-0.699,2.604,0.902,4.116-0.368c0.109-0.091,0.795-2.12,1.177-2.571c-2.229-5.357,2.934-3.967,5.403-2.954
		c5.02,2.061,5.39,1.136,9.982-1.452c3.502-1.973,4.461-3.858,7.126-6.812c1.201-1.331,3.041-1.959,3.22-3.731
		c0.221-2.193-4.016-3.824-2.397-7.389c3.916,2.696,11.388-8.311,8.253,2.466c2.613-0.03,6.164,0.016,8.273-1.242
		c2.662-1.588,2.393-7.275,6.192-5.285c-0.382,2.411-2.955,4.003-3.287,6.497c4.757,0.233,9.333-0.581,14.057-0.774
		c5.121-0.209,9.309,1.75,14.038,2.057c-0.516-4.242,1.265-6.525,6.02-6.295c4.432,0.215,3.786,5.863,8.921,4.715
		c-0.399,1.893-1.6,3.128-0.619,5.349c0.728,1.649,5.204,4.071,7.049,3.677c2.598-0.555,3.28-4.255,6.533-3.643
		c2.49,0.468,2.385,4.348,6.197,2.464c-0.459-2.57-3.492-4.046-1.973-7.068c3.432-0.746,2.621,2.124,4.78,3.267
		c1.536,0.814,3.151-0.054,4.756,0.488c2.211,0.747,3.101,3.448,5.021,4.266c3.344,1.425,5.147-0.366,2.777-3.486
		c-1.67-2.198-8.75-1.657-9.481-4.65c-0.74-3.032,4.442-3.147,3.227-6.666c-1.299-3.762-3.563,1.353-5.438,1.383
		c-1.591,0.025-3.871-2.248-5.178-2.91c-1.474-0.747-3.642,0.527-3.843-2.157c-0.078-1.039,1.883-3.046,2.857-3.262
		c3.299-0.733,4.208,3.393,7.942,2.846c3.294-0.483,5.862-3.602,9.301-4.092c3.483-0.497,7.15,1.565,10.527-0.5
		c2.368-1.449,3.968-6.629,7.821-6.095c2.32,0.321,2.51,3.012,3.913,4.519c4.659,5.001,3.917,1.169,7.704-0.435
		c3.75-1.588,2.645,0.734,5.561,1.302c3.05,0.594,5.671-1.609,8.677-1.425c2.594,0.158,5.814,1.788,8.139,2.929
		c2.315,1.136,4.551,2.309,6.052,4.544c0.42,0.626,2.479,6.765,2.031,6.74c3.46,0.198,6.239-0.117,9.558-1.088
		c4.59-1.343,4.115-3.576,7.797-5.587c6.933-3.785,12.877,4.269,15.672,9.542c3.234,6.1,9.363,7.612,10.472,14.963
		c0.523,3.467,0.781,7.394-0.436,10.796c-0.923,2.579-2.578,3.859-2.021,7.047c4.232,0.447,1.278-5.302,4.108-5.284
		c4.833,0.031,1.208,6.692,0.797,7.766c-1.115,2.916-0.782,12.785,3.288,13.716c-0.082-0.592,0.133-1.379,0.125-1.988
		c1.743-0.057,3.548-0.064,5.295,0.01c-2.108,2.153-2.824,5.416-1.636,8.313c0.621-0.983,1.423-4.095,2.801-4.567
		c3.087-1.059,0.763,2.038,0.83,2.932c0.221,2.955-0.351,8.187,1.441,10.681c0.981,1.366,2.922,1.331,4.074,2.458
		c1.347,1.318,2.81,4.258,3.742,5.837c2.144,3.634,1.834,5.252,6.617,5.819c3.172,0.376,7.899,0.514,9.248-2.874
		c0.898-2.256-0.721-5.842-1.042-8.228c-0.378-2.805-0.195-4.993,0.415-7.791c0.735-3.372,2.631-6.676,2.581-10.099
		c-0.069-4.718-3.964-3.62-4.508-7.448c4.555-0.505-2.673-9.898-3.661-11.946c-2.577-5.345-2.109-11.135-3.82-16.329
		c0.727,0.122,1.474-0.256,2.419,0.264c-0.849-2.563-3.886-4.788-5.364-7.287c-2.042-3.452-3.201-6.729-3.743-10.713
		c-1.185-8.712-5.047-19.197-1.253-27.035c-4.511-1.852-1.432-4.462,0.519-6.887c0.783-0.974,1.775-1.764,2.414-2.656
		c0.388-0.54-0.071-1.81,0.489-2.538c0.48-0.623,1.672-0.442,1.988-0.78c0.585-0.626,3.081-2.464,3.267-3.338
		c0.546-2.574-1.029-2.204-1.535-4.037c-1.555-5.633,3.872-4.234,3.32-0.559c1.048-0.785,1.459-2.165,1.236-3.637
		c2.697,0.079,9.81,0.004,8.252-3.743c0.642,0.336,2.027,0.286,2.801,0.734c0.297-1.058,1.206-1.709,1.397-2.8
		c1.451-0.499,7.531-4.63,8.648-5.982c1.964-2.378-0.003-1.845,0.48-3.598c0.462-1.673-0.612-3.791,2.344-2.552
		c0.906-3.477,5.423-5.359,8.286-7.123c1.655-1.02,1.711-1.608,3.763-2.053c2.208-0.479,4.12,0.835,5.768-0.004
		c2.981-1.52,2.717-5.355,4.141-7.464c1.015-1.502,3.289-2.092,3.839-3.631c0.417-1.168-0.85-3.131-0.774-4.507
		c1.824,0.214,2.075,2.567,3.651,2.857c1.783,0.328,2.469-1.612,3.816-2.01c3.247-0.96,7.423,0.605,9.022-3.296
		c-1.703-0.736-4.29,0.237-5.774-0.593c-1.785-0.997-1.906-4.218-2.885-6.072c2.954-0.443,2.972,4.982,5.734,3.57
		c0.994-0.508,0.685-4.216,0.848-5.224c-1.532-0.353-9.793-3.134-6.193-5.421c2.908-1.847,6.136,5.067,7.977,1.233
		c0.398,1.001,0.551,1.755-0.016,3.213c3.354-1.596,5.116,1.591,7.93-0.861c1.985-1.73,3.938-6.499,3.558-8.977
		c-2.369,0.401-2.207,3.268-5.269,3.245c-1.29-1.675-0.532-3.577,0.207-4.897c-3.377-0.717-6.987,2.96-9.794,0.266
		c-1.485-1.425-2.238-6.36-0.752-7.752c1.936,1.267,0.723,4.206,2.8,5.355c1.719,0.951,3.155-0.501,2.976-2.484
		c0.439,0.603,1.521,1.152,2.011,2.02c1.342-3.535,3.967,0.326,5.524-1.566c1.061-1.289-2.585-5.445-2.556-7.04
		c0.788,0.179,2.078-0.331,2.778-0.199c0.09-1.781,0.601-5.05-0.745-6.522c-2.088-2.282-2.288-0.249-4.494-0.27
		c-4.384-0.043-5.887-2.939-10.077-5.018c-2.616-1.298-10.571-4.269-3.217-4.563c5.591-0.223,7.165,6.089,11.478,6.51
		c0.63-4.197-5.862-5.209-6.973-9.057c1.229,0.484,5.016,4.807,6.632,4.162c3.094-1.234-0.543-4.166-1.354-5.005
		c-1.97-2.038-3.779-2.863-5.302-5.497c-1.155-1.998-2.016-3.706-3.812-5.308c4.14-2.515,9.527,5.852,12.026,8.289
		c0.545-1.413,0.648-2.931,0.475-4.455c-4.487-1.787-10.229-5.497-13.677-8.803c-4.836-4.638,2.588-9.417,2.16-2.137
		c3.975-0.531,5.979,4.381,10.658,4.158c0.555-2.585-2.171-7.145-4.874-7.496c-0.107-3.057-1.229-8.96-0.092-11.418
		c1.008-2.18,9.024-9.048,11.188-8.77c0.484,5.33-3.282,7.843-2.437,12.793c0.474,2.779,2.666,8.653,4.15,10.714
		c1.15,1.598,2.953,1.453,3.335,3.383c0.289,1.46-1.302,2.101-1.259,3.347c0.03,0.882,0.753,2.242,0.757,2.594
		c0.034,3.083-0.27,3.549-2.108,6.491c-1.421,2.275-1.971,4.35-2.732,6.602c3.496-0.204,8.005-10.696,8.592-14.039
		c0.649-3.693,0.769-5.393,2.115-8.741c0.33-0.82,1.343-0.403,1.72-1.63c0.191-0.62-0.533-1.767-0.454-2.073l2.074-2.489
		c-3.335-2.579-5.017-3.95-6.211-7.799c-0.729-2.35-1.605-5.096-2.097-7.528c-1.04-5.142,2.171-11.031,8.304-10.348
		c-2.779,5.132-9.313,5.128-4.559,11.903c1.746,2.487,6.9,8.204,9.622,6.724c2.995-1.628,3.269-8.486,5.542-11.245
		c1.399-1.698,2.581-1.813,3.503-4.201c1.07-2.77,3.044-11.986-2.011-11.169c-0.941-4.801,1.398-4.16,3.784-4.592
		c2.591-0.47,5.676-1.918,8.609-2.811c4.176-1.273,20.937-1.731,21.558-6.666c-3.458-1.378-6.009,1.679-9.124,2.537
		c-2.182,0.601-4.497,0.238-6.729,0.489c-3.394,0.382-6.732,2.523-10.207,1.909c-1.301-2.604-3.062-5.585-2.913-8.573
		c2.96,0.197,1.227,3.388,2.924,4.649c1.982,1.473,3.669-1.043,5.634-2.235c4.525-2.747,8.415-2.588,13.325-3.691
		c2.071-0.465,4.208-2.083,6.364-2.552c2.307-0.502,4.673-0.005,6.948-0.467c3.925-0.796,4.3-2.297,4.627-6.075
		c2.088,0.419,4.052,0.202,6.095-0.002c-0.896,1.731-1.236,4.925,2.108,3.606c1.498-0.591,0.89-3.46,3.378-4.061
		c0.383,1.235,0.537,2.695,0.438,4.063c2.258,0.703,2.398-0.899,3.244-1.193c1.236-0.429,3.175-0.737,4.698-1.212
		c3.281-1.024,7.026-5.893,1.404-7.455c-0.34,1.547,0.133,3.164,0.081,4.883c-1.504,0.436-3.36,0.695-4.824,0.838
		c-0.695-1.423-2.626-2.178-3.118-3.476c-0.808-2.132,1.38-5.488-0.666-7.293c-1.666-1.469-4.62,0.771-5.878-1.19
		c-1.373-2.139,0.863-4.28,2.865-4.24c1.193,0.024-1.388-8.591-1.118-9.54c0.815-2.87,5.469-7.975,7.421-10.297
		c0.883-1.05,3.129-2.426,4.08-3.733c0.814-1.119,0.13-2.057,0.458-3.328c0.86-3.337,1.232-3.798,5.03-6.099
		c1.441-0.873,5.126-4.673,4.139,0.663c2.428,0.731,4.353-2.182,5.879-3.273c0.981-0.702,1.385,0.525,2.808-0.886
		c1.602-1.587,0.602-4.713,1.952-6.567c3.563-4.89,1.688,0.881,3.827,2.513c2.816,2.148,4.285-0.884,4.552-3.292
		c1.329,0.636,1.656,0.558,1.753,2.367c3.517-0.198,8.121-5.219,11.553-6.653c1.83-0.764,4.729-0.201,6.128-1.224
		c3.045-2.227,0.226-4.369-0.03-6.142c-0.162-1.124-0.463-6.137,0.8-6.631c1.904-0.745,3.059,2.816,4.319,3.231
		c1.143,0.376,1.891-0.076,2.905,0.063c1.012,0.139,5.604,0.392,6.613-0.294c2.282-1.552,0.566-6.589,4.181-6.633
		c0.692,1.431,0.517,2.85-0.494,4.011c2.369,3.404,11.828-5.112,14.637-6.937c1.854-1.204,5.789-3.804,6.566-5.909
		c0.795-2.153-0.562-3.299-0.391-5.784c3.743,0.392,2.539,9.744,7.382,5.855c0.28,6.678-1.066,3.976-5.765,6.565
		c-2.793,1.54-3.254,3.45,0.438,4.147c3.626,0.684,17.993-4.636,18.646,0.862c-4.361,1.041-9.644,1.711-13.555,4.232
		c1.222,0.779,1.945,2.121,1.893,3.555c-2.36,0.314-5.706-3.707-3.359-5.68c-4.342-0.721-8.594,5.348-12.369,7.121
		c-3.205,1.506-5.218,2.223-7.748,4.781c0.932-0.269,2.266-0.084,3.112-0.197c-1.371,1.694-3.424,3.063-5.196,4.253
		c-0.293-0.167-0.648-0.483-0.911-0.644c-3.078,3.183-5.902,6.027-5.909,10.35c-0.004,2.439,0.168,8.209,3.761,7.394
		c0.103-0.508,0.075-1.029,0.125-1.542c3.208,0.658,2.514,8.832,7.827,6.779c2.799-1.082,3.354-12.914,6.641-5.109
		c2.649-4.053,6.518-3.601,8.744-7.926c0.679-1.319,1.162-4.136,2.012-5.746c0.16-0.303,1.615-0.926,2.097-1.765
		c0.368-0.64-0.52-2.392-0.792-2.901c1.627-0.959,3.429-1.912,5.287-1.99c-0.181,0.805,0.275,1.952,0.096,2.777
		c3.763,0.247,4.49,0.434,7.371,2.112c0.646-3.379-0.707-4.554-3.244-6.298c1.388-1.289,2.821-0.58,3.398,1.304
		c4.935,0.095,11.354-2.617,16.431-5.593c3.745-2.196,7.526-3.883,11.707-5.253c2.872-0.942,8.769-0.473,10.406-2.811
		c-1.615-1.477-4.285-0.485-6.256-1.205c2.341-1.848,1.389-7.068-1.675-8.179c-2.279-0.826-5.6,3.065-5.383-2.541
		c-2.204,1.405-6.333,4.658-8.709,5.318c-1.585,0.441-3.63-0.591-5.359-0.476c0.52-1.62-0.377-1.352,1.098-2.538
		c-2.658-1.996-4.115-1.391-6.949-0.635c-4.167,1.111-2.771,1.43-6.23-0.298c-2.942-1.469-6.718-4.154-9.205-6.867
		c1.216-1.025,2.903-1.018,4.594-0.861c0.109-4.759-5.722-2.106-8.283-2.52c-1.263-0.204-4.868-1.711-5.825-2.397
		c1.871-2.141-0.88-6.64-2.002-8.743c-0.97-1.818-1.977-1.621-2.104-4.136c-0.088-1.739,1.652-2.822,1.21-4.915
		c-2.027-0.117-4.108-0.031-6.138-0.105c-1.881-4.024,2.469-4.822,4.024-7.839c1.424-2.762,3.893-8.357,4.184-11.237
		c-6.691-3.224-9.01,7.732-13.994,6.196c-1.429-4.292-1.421-5.536-5.852-6.886c-1.42-0.432-3.306-1.484-4.674-1.646
		c-1.956-0.231-5.472,2.107-6.892,1.58c-4.239-1.573,3.378-4.955,5.328-5.335c3.54-0.69,6.758,0.583,7.641-3.812
		c1.995,0.709,3.11,3.185,4.852,4.141c2.06,1.13,3.71-0.79,5.32,2.031c2.024-1.238,4.914-3.288,6.657-4.954
		c0.676-0.646,1.406-2.111,2.057-2.578c1.84-1.32,3.803-0.562,5.792-1.548c8.441-4.187-2.107-6.983-3.258-9.477
		c2.176-0.068,4.391,0.538,6.573,0.275c-5.009-2.793-5.53-8.121-11.255-9.578c-6.009-1.53-10.485-1.479-16.58,0.186
		c-14.571,3.979-27.304,8.808-39.775,17.754c-10.986,7.881-18.656,17.368-27.595,27.295c-7.291,8.097-14.127,12.91-24.12,17.194
		c-10.837,4.645-19.048,12.492-26.32,21.051c-4.837,5.693-13.339,15.502-21.866,14.433c1.916-2.214,5.703-4.112,7.129-6.946
		c0.852-1.692,0.008-3.537,1.032-5.33c1.034-1.811,2.762-2.121,4.341-3.391c5.239-4.213,8.547-8.94,14.686-12.464
		c6.062-3.48,11.357-7.274,17.861-10.384c12.617-6.032,20.278-17.524,29.602-26.961c7.571-7.663,0.972-8.425-7.088-9.945
		c-1.003-0.189-6.366-0.329-6.965-1.309c-1.086-1.777,12.298-2.598,14.031-1.905c2.005,0.802,3.426,3.509,5.716,3.638
		c3.191,0.18,3.286-3.36,4.655-6.229c1.791-3.752,4.519-5.506,7.396-8.311c4.466-4.356,8.172-10.68,14.607-11.6
		c3.117-0.446,5.029,0.396,7.872-1.559c3.317-2.282,3.378-5.394,5.001-9.226c2.872-6.782,6.966-10.095,14.507-10.362
		c7.333-0.26,14.09-3.293,21.438-3.755c9.049-0.569,17.963,1.299,26.914,0c9.733-1.413,20.424,0.625,29.931,2.405
		C1165.243,12.632,1187.539,10.713,1186.205-4.192z M632.203,35.467c-2.207,1.947-5.153-0.47-6.14-2.481
		c-2.74,2.243-0.629,8.72-5.498,9.834c-3.366,0.77-5.788-2.581-5.796-5.426c-0.521-0.048-1.041-0.108-1.56-0.178
		c-0.189-5.867,4.644-1.559,6.795-4.424c4.047-5.391-2.435-2.695-4.392-4.961c-2.268-2.626-1.062-4.38,0.464-6.797
		c0.144-0.227,3.119-0.992,3.993-2.244c0.171-0.245-0.592-4.884-0.515-5.712c3.5,0.189,4.248,2.946,4.172,6.168l4.978,6.844
		C629.822,27.588,634.578,33.371,632.203,35.467z M711.456,9.289l7.467-0.622c-1.019-0.229-1.229-0.597-0.631-1.104
		c8.389-5.022,9.305,2.352,8.114,8.087c-1.185,5.711,0.286,10.749-4.964,13.566c-6.055,3.249-8.916-0.837-9.998-5.124
		C710.574,20.644,708.997,11.557,711.456,9.289z M795.869,164.26c-3.856-3.645,10.33-16.441,9.99-21.847
		c-0.059-0.939-2.512-3.638-2.95-4.931c-0.495-1.462-0.222-3.43-0.736-5.035c-0.931-2.909-3.066-1.588-2.968-5.453
		c-4.614,0.65-7.542-4.852-12.293-5.751c-2.757-0.522-9.394-0.476-11.578,1.289c0.87,0.126,3.338,1.581,4.56,1.647
		c-1.984,2.451-4.558,2.664-6.694,5.37c-2.747,3.48-1.328,6.477-2.557,10.412c-4.381-0.147-3.694-4.746-4.385-8.135
		c-9.1,2.73-12.134,32.169-9.918,39.476c1.391,4.586,3.605,5.276,3.718,10.648c0.093,4.451-1.597,8.717-3.165,12.787
		c-2.178,5.652-5.534,12.56-12.983,11.863c-13.091-1.225-16.351-23.362-14.075-32.633c3.306-13.471,12.788-29.766,12.572-43.262
		c-2.958,2.991-5.023,15.906-10.939,14.35c-4.667-1.227-2.013-4.953-0.372-8.291c2.824-5.743,8.489-23.224,15.884-23.086
		c3.034,0.057,4.079,3.067,6.43,3.295c2.351,0.229,6.391-2.129,8.463-3.001c7.171-3.021,10.893-5.14,17.482,0.619
		c2.1-6.136,19.564,0.897,24.918,1.719c4.211,0.647,8.694-0.513,12.926,0c4.027,0.488,4.107,0.875,7.409,2.958
		c2.34,1.477,1.498,4.717,6.279,3.182c0.17-2.942,0.503-5.472-1.271-7.415c1.236,1.353-8.756-3.709-7.58-3.515
		c-1.547-0.255-5.093,1.365-7.247,1.54c-3.748,0.305-8.729-0.679-12.421-1.244c-4.713-0.722-26.786-6.162-25.674-12.214
		c-10.839-4.585-19.328,5.044-29.629,1.773c-4.175-1.326-9.269-3.032-12.735-5.687c-2.361-1.809-1.104-3.76-4.13-4.202
		c-1.901-0.277-4.465,3.014-7.493,2.331c-1.38-1.84-3.936-3.974-3.597-6.641c4.106-1.633,13.826-2.324,12.855-8.319
		c-3.877-1.581-7.126,0.894-10.595,2.454c-3.53,1.588-7.752,3.153-11.219,5.106c-9.637,5.429-16.348,11.763-28.521,10.544
		c0.326-1.237-0.393-2.973-0.119-4.2c-7.225-1.241-12.792,6.716-19.87,3.684c2.613-5.327,5.329-9.792,10.82-13.17
		c8.631-5.308,17.303-10.477,25.931-16.119l4.355-0.622c4.964-7.575,2.25-18.323,14.261-12.501c0.113-7.303,0.533-6.124,5.729-6.151
		c3.666-0.019,11.637-2.333,3.037-4.992c3.645-6.25,8.753-2.893,12.685,0.018c1.882,1.394,4.287,3.445,6.473,4.316
		c2.761,1.1,7.058,0.094,9.391,1.363c4.607,2.506,4.357,11.824,9.334,14.817c3.859,2.321,4.326-0.524,7.336-0.071
		c3.006,0.453,6.503,1.966,9.184,3.184c-4.956,3.538,0.341,7.676,0.983,11.919c0.517,3.415-1.795,5.725,0.661,8.039
		c2.035,1.917,6.256,0.113,8.533,3.691c-5.838,2.611-9.894,4.902-4.695,9.992c1.35,1.322,8.579,5.128,10.264,5.803
		c7.991,3.197,20.294-0.424,28.931,0.865c5.304,0.791,18.716,3.218,22.7,6.782c3.843,3.438,2.174,10.095,4.728,14.086
		c3.35,5.234,11.294,6.314,11.543,13.913c-2.385,0.436-4.701-0.871-6.348-2.817c7.963,8.19-5.992,10.747-11.065,7.303
		c-4.488-3.047-8.995-15.631-13.5-4.131c-1.672,4.267-0.87,11.648-1.991,16.037c-1.329,5.205,0.18,23.265-10.608,20.429
		c-4.922-1.294-6.578-11.24-8.032-15.375C805.877,144.839,804.92,172.817,795.869,164.26z M870.54,185.376
		c-1.607,1.53-4.841,1.71-6.674,3.069c-1.94,1.437-2.768,3.779-4.68,5.217c-4.912,3.694-8.475,1.687-13.452,3.496
		c-7.365,2.676-13.277,10.607-20.96,13.165c-4.841,1.612-14.708,0.945-19.294-1.293c-5.37-2.621-3.49-4.878-3.104-11.237
		c8.068-2.067,13.846-2.485,21-7.11c2.22-1.435,6.465-4.357,8.886-5.32c4.528-1.801,9.534,0.117,14.215-1.854l3.733-1.867
		c3.476-0.798,10.867-1.744,14.654-3.687c3.378-1.733,3.856-5.593,8.336-5.627C875.117,176.341,873.721,182.345,870.54,185.376z
		 M916.68,156.844c1.563,5.206-3.914,8.932-8.605,7.999l-6.844,1.244c-1.911,7.508-14.756,1.745-20.379,1.901
		c-6.499,0.18-14.713,1.433-21.378,2.953c-2.469-11.516,8.96-12.631,18.745-14.185c5.592-0.888,11.419-2.076,16.788-3.862
		c8.712-2.897,17.285-6.19,26.13-8.565C919.045,147.313,912.202,153.584,916.68,156.844z"/>
	<path fill="#F6F0EF" d="M346.218,214.62l-0.622-3.733c-1.427-1.031-3.289-2.23-4.992-3.214c-2.026,1.703-1.572,4.635-3.117,6.414
		c-2.011-1.713-4.392-10.146-8.158-7.457c-2.29,1.635,0.677,8.459,2.984,8.721c-0.317,12.39,9.354,10.711,17.087,4.853
		C348.656,218.291,347.519,216.305,346.218,214.62z"/>
	<path fill="#F6F0EF" d="M844,485.8c-2.06,0.878-3.931,2.138-5.612,3.838l1.867,3.733C845.439,499.403,845.176,488.641,844,485.8z"
		/>
	<g>
		<path fill="#F6F0EF" d="M896.908,490.215c-4.468-1.479-18.218,2.386-21.708,5.036c2.703,1.852,7.166,1.722,10.476,0.608
			l-2.489-1.244c3.39-2.661,8.254-1.989,12.34-1.775c0.325,0.199,2.437,1.852,3.031,2.353c-0.18,2.443-0.77,5.436-0.379,8.124
			C903.513,502.789,901.806,491.837,896.908,490.215z"/>
		<path fill="#F6F0EF" d="M915.542,520.126l1.244,3.733c1.475,2.757,1.418,5.931,2.472,8.733
			C922.834,528.251,917.892,524.015,915.542,520.126z"/>
	</g>
	<path fill="#F6F0EF" d="M959.097,592.925l-1.867,2.489c4.985-1.574,12.119-0.094,12.447-7.167
		C966.63,590.702,962.707,591.543,959.097,592.925z"/>
</g>
<g id="Grass">
	<g>
		<path fill="#DEECD2" d="M876.919,259.728c-3.449,0.707-7.613,7.203-10.221,9.624c-1.688,1.568-8.673,13.049-8.111,4.636
			c0.435-6.51,3.774-7.108,8.935-8.986c4.761-1.732-0.717-2.186-0.202-6.205l-2.489-0.933c-2.373-0.183-4.191-3.675-6.78-1.819
			c-1.406,1.008-2.019,4.913-2.491,6.53c-0.602,2.064,0.04,3.099-1.62,4.885c-1.214,1.306-2.976,1.512-4.086,3.112
			c-1.32,1.903-1.856,5.554-1.849,7.721c1.118-1.393,2.489-0.25,4.054,0.156c-0.024,1.75-4.514,5.848,0.585,4.661
			c-0.755,1.25-0.834,2.986-1.876,4.247c-1.397,1.691-3.599,1.937-5.447,2.854c-4.329,2.149-12.486,3.326-15.369,6.563
			c1.177,0.447,2.466,0.68,3.664,1.154c-3.26,2.008-8.495,3.234-10.942,6.257c2.925,1.515,7.834,0.216,10.733-0.954
			c2.247-0.907,3.465-2.56,4.651-3.748c2.783-2.789,9.819-7.786,14.481-7.752c-2.175,0.694-4.686,3.373-6.631,4.7
			c-1.643,1.121-5.297,2.75-6.05,4.746c1.423-0.238,2.117-1.671,3.49-2.27c1.621-0.708,3.299-0.736,5.102-1.671
			c1.451-0.752,3.056-1.234,4.27-2.343c0.685-0.626,0.58-1.924,1.219-2.489c1.417-1.253,4.317-0.826,5.294-2.123
			c0.638-0.846,0.83-3.249,1.237-4.333c1.912-5.09,5.857-7.398,8.428-11.915c1.168-2.053,1.845-4.533,3.384-6.219
			C874.701,265.163,878.667,264.296,876.919,259.728z"/>
		<path fill="#DEECD2" d="M813.098,329.715c-1.921,0.626-5.085,3.255-6.757,3.417c-1.449,0.141-2.839-0.843-4.308-0.938
			c-0.257-2.662,4.149-3.972,5.825-5.659c1.202-1.21,2.071-3.602,3.785-4.535c3.17-1.726,5.148,0.493,7.193,1.863
			c1.991,1.334,3.648,2.521,6.602,1.724c3.283-0.886,6.388-4.641,4.456-7.841c-1.371-2.271-4.999-2.064-2.961-5.197
			c1.528-2.349,12.932-4.945,12.388-7.398l-2.8-0.933c-3.678-0.35-9.568,3.859-12.49,6.238c-0.413,0.337-0.021,1.021-0.315,1.244
			c-0.573,0.436-1.549,0.489-2.043,0.903c-1.846,1.548-1.227,1.498-2.258,3.134c-2.436,3.865-7.89,2.505-11.493,5.264
			c-2.8,2.144-6.626,3.124-9.158,5.744c-1.709,1.769-0.62,1.912-3.303,3.03c-2.982,1.242-6.334,1.87-8.677,4.385
			c-1.652,1.774-5.563,6.355-5.904,8.649c-0.701,4.713,5.081,5.767,8.404,6.419c4.126,0.81,10.226-2.809,14.146-4.379
			c-0.892,1.548-1.664,3.233-2.428,4.806c5.642,3.43,4.564-6.467,6.002-8.826c1.313-2.153,1.012-2.039,4.268-2.407
			C811.258,334.169,816.193,332.599,813.098,329.715z"/>
		<path fill="#DEECD2" d="M806.971,306.643c2.04,0.828,7.278,0.323,8.2-2.035c1.069-2.732-0.863-2.059-2.936-2.874
			c0.508-2.527,5.676-4.455,5.931-5.915l-1.867-0.311c-1.682,0.41-4.15,0.684-5.316,2.162c-1.213,1.538-0.138,1.845-0.596,3.159
			C809.821,302.451,807.969,304.599,806.971,306.643z"/>
		<path fill="#DEECD2" d="M800.433,295.507l-1.244-0.311c-3.425-2.271-7.568-0.627-5.046,3.966c1.174,2.139,5.1,4.929,8.201,3.224
			c2.055-1.13,1.564-1.926,1.486-4.37C802.26,297.37,801.542,295.297,800.433,295.507z"/>
		<path fill="#DEECD2" d="M787.671,300.782c0.362-2.29,1.344-5.375,2.513-7.423c1.343-2.352,5.047-3.571,5.582-5.941l2.489-2.178
			c9.011-2.537,3.375-18.607-1.267-9.232c-1.63,3.291-1.529,6.47-3.842,9.113c-1.597,1.824-3.202,3.503-4.604,5.485
			c-1.57,2.22-1.295,2.661-2.097,4.994c-1.465,4.259-7.466,7.118-6.827,12.991C787.459,308.687,786.692,306.982,787.671,300.782z"/>
		<path fill="#DEECD2" d="M776.208,350.097c0.199-1.213-1.431-2.035-1.3-2.808c0.158-0.93,1.438-1.898,1.57-2.898h0.311
			c-1.107,0-2.189-0.454-3.049-1.068c-0.951,1.305-2.587,1.887-3.504,3.24c-1.407,2.076-0.829,4.644-0.964,6.997
			C772.155,352.469,775.603,353.787,776.208,350.097z"/>
		<path fill="#DEECD2" d="M767.354,361.19c-3.502-0.775-2.989,4.288-4.513,6.22c-1.666,2.113-10.362,7.827-5.703,10.443
			c1.937-1.53,4.341-2.726,6.002-4.575c2.902-3.233,2.95-7.808,5.56-11.195l-0.311,0.311
			C768.082,361.951,767.412,362.13,767.354,361.19z"/>
		<path fill="#DEECD2" d="M797.531,377.401c0.86-0.237,1.666-0.755,2.156-1.445C796.406,374.23,793.86,378.413,797.531,377.401z"/>
		<path fill="#DEECD2" d="M820.033,355.551l-2.178,0.622c-0.766-0.793-1.836,6.393-2.185,7.463c0.809,0.599,2.61,0.486,3.147,0.984
			c0.645,0.599,0.057,2.113,0.891,2.689c4.185,2.89,2.578-3.461,3.431-4.987c0.813-1.454,3.492-0.728,2.834-3.13
			C825.617,357.893,821.059,355.325,820.033,355.551z"/>
		<path fill="#DEECD2" d="M826.288,350.27c-0.118,0.917,1.392,4.558,2.339,4.732c0.158,0.029,5.257-3.28,5.411-3.458
			c2.182-2.524,0.09-2.335-0.628-4.705l-1.556-1.556C830.269,345.601,826.524,348.436,826.288,350.27z"/>
		<path fill="#DEECD2" d="M853.01,347.391h-1.556c-0.948,0-1.282,1.281-0.916,2.465C853.421,349.436,859.797,351.391,853.01,347.391
			z"/>
		<path fill="#DEECD2" d="M853.961,370.238c0.134,2.118,1.789,3.434,2.478,5.202c0.723,1.853,0.177,5.809,3.415,4.066l1.244-2.8
			C865.048,375.393,857.492,368.705,853.961,370.238z"/>
		<path fill="#DEECD2" d="M816.027,413.085c-4.411,1.345-1.725,5.748-0.864,8.814c1.304,4.636-6.273,12.307,1.709,10.776
			c0.281-1.408-1.078-2.123-0.827-3.082c0.477-1.825,2.61-1.655,3.568-2.731c1.881-2.111,1.549-6.954,2.597-9.712l-0.622,0.311
			C824.363,415.355,817.959,412.496,816.027,413.085z"/>
		<path fill="#DEECD2" d="M825.964,432.731c-0.569-0.418-1.179-0.454-1.887-0.337l-0.622,0.311c0.688,1.508-0.595,3.15-0.915,4.693
			C825.303,438.696,825.129,434.587,825.964,432.731z"/>
		<path fill="#DEECD2" d="M831.908,449.226c-0.874-2.291-2.953-1.169-3.81-3.696c-0.528-1.558,1.041-2.948-0.91-4.114l-0.622,0.933
			c-1.323,2.321-1.145,4.529-1.896,6.85c-0.255,0.787-1.808,0.868-1.575,2.102c0.131,0.696,3.37,2.651,4.191,2.852
			c0.637,0.156,3.963-0.679,4.201-0.979C832.193,452.285,830.188,450.674,831.908,449.226z"/>
		<path fill="#DEECD2" d="M781.51,427.168c-1.383,0.476-0.909,1.314-2.858,1.516c-1.789,0.185-2.662-1.387-4.435,0.276
			c-1.648,1.546-1.268,2.857-0.01,4.351c1.964,2.333,1.416,0.913,3.811,0.685c4.667-0.444,4.823-0.202,7.481-4.09l0.933-0.311
			C786.99,426.541,783.332,426.541,781.51,427.168z"/>
		<path fill="#DEECD2" d="M844.314,509.214c-1.768-0.928-1.834-0.093-2.824-1.836c-0.679-1.195-0.277-3.726-0.313-5.055
			c-1.558-0.16-3.517,0.068-4.968,0.068h-0.622c-7.146,1,2.869,14.299,7.884,13.298c1.722-0.344,3.121-1.307,3.089-3.334
			C846.53,510.364,846.647,510.438,844.314,509.214z"/>
		<path fill="#DEECD2" d="M744.274,414.341c-0.369,1.971,3.187,2.646,4.747,2.52c1.536-0.124,4.979-2.938,4.979-2.2v-1.244
			C754,411.305,744.714,411.986,744.274,414.341z"/>
		<path fill="#DEECD2" d="M715.19,419.016h0.622c-0.18-0.034-0.384-0.049-0.591-0.06
			C715.209,418.975,715.202,418.998,715.19,419.016z"/>
		<path fill="#DEECD2" d="M714.834,413.446c-1.894-0.409-8.202-3.052-9.05,0.577c-0.437,1.869,2.827,3.447,4.04,4.06
			c0.091,2.337-5.043,8.199,2.782,6.485c1.632-2.24-0.189-3.252,0.165-5.504c0.724-0.061,1.659-0.152,2.45-0.108
			C716.103,417.608,715.638,414.992,714.834,413.446z"/>
		<path fill="#DEECD2" d="M712.079,405.328l-2.178,0.622c0.22,1.645,5.698,4.949,7.147,4.694c1.717-0.303,2.491-2.31,1.822-3.852
			C717.793,404.306,713.673,404.991,712.079,405.328z"/>
		<path fill="#DEECD2" d="M707.723,393.506l-0.622,1.244c0.53-2.176-4.599-10.833-7.426-8.738c-1.938,1.436,0.641,6.008,1.454,7.311
			c1.756,2.815,2.009,2.737,5.953,2.664C707.226,395.236,707.736,394.252,707.723,393.506z"/>
		<path fill="#DEECD2" d="M684.39,403.461c-1.911,0.949-1.991,3.953-3.992,3.7c0.058-3.029-3.788-2.563-4.942-0.511
			c-0.646,1.149,0.031,5.953,0.955,6.81c3.72,3.448,10.046-5.477,8.601-9.065L684.39,403.461z"/>
		<path fill="#DEECD2" d="M686.879,382.306l0.933-0.622c-1.48-0.291-4.356-2.458-5.553-1.023c-1.39,1.667,1.138,6.79,2.969,6.918
			c0.249-1.224-1.383-3.343-0.563-4.127c1.055-1.01,2.8,0.792,3.738,1.013c0.172-0.575,0.159-1.58-0.017-2.151
			C687.935,382.292,687.32,382.209,686.879,382.306z"/>
		<path fill="#DEECD2" d="M703.648,350.146c-0.458,2.633,2.752,2.819,2.922,5.012c2.88-1.262,9.177-9.475,6.703-12.717
			c-3.901-5.113-8.881,5.601-4.617,5.643l-1.556,0.311C705.312,347.541,703.95,348.412,703.648,350.146z"/>
		<path fill="#DEECD2" d="M739.456,351.195l-0.311-0.622c-2.048,0.022-3.471-0.675-4.05,1.323c-0.386,1.33,0.399,2.74,1.575,3.351
			c-4.031,1.716,0.711,6.864,3.141,4.876c1.169-0.957-0.145-2.065,0.305-2.734c0.313-0.466,0.917-0.865,1.231-1.299
			c0.611-0.843,2.17-1.697,2.973-2.355c-1.581-1.034-3.913-1.057-5.581-2.275C738.869,351.175,739.108,351.086,739.456,351.195z"/>
		<path fill="#DEECD2" d="M649.233,401.641c2.134,0.256,4.77,4.587,6.328,3.441c1.786-1.315-2.359-6.851-2.592-8.776l0.622-1.244
			c-1.284-2.966-4.739-2.013-6.222,0.062c-0.824,1.152-2.133,5.145-1.553,6.314C647.262,404.35,647.677,401.455,649.233,401.641z"/>
		<path fill="#DEECD2" d="M656,412.172c-4-1.813-12.952,2.627-8.486,4.368c1.37,0.534,2.434-0.828,3.675-0.882
			c1.667-0.074,2.593,1.077,3.036,1.134c3.143,0.403,4.774-1.251,1.774-3.686v-0.934H656z"/>
		<path fill="#DEECD2" d="M636.48,403.461c-0.713-2.61-5.378-6.149-6.559-2.774c-0.917,2.62,2.884,4.772,3.484,6.839
			c0.565,1.945-0.088,1.569-0.33,3.523c-0.278,2.248-1.215,2.089,0.568,3.686c1.418,1.271,3.853,1.306,4.678-0.637
			c0.774-1.822-1.635-5.576-1.53-7.839L636.48,403.461z"/>
		<path fill="#DEECD2" d="M628.391,408.75l0.622-0.622c-1.585-1.333-1.706-2.991-4.618-2.442c-0.589,2.602,1.808,4.817,2.157,7.34
			c-1.237-1.113-2.8-2.687-4.667-2.358c-0.091,2.427,3.656,7.269,6.465,4.962C629.983,414.289,628.159,410.74,628.391,408.75z"/>
		<path fill="#DEECD2" d="M617.156,410.033c0.109,0.104,0.224,0.197,0.346,0.272l-0.311-0.933
			C617.175,409.592,617.164,409.813,617.156,410.033z"/>
		<path fill="#DEECD2" d="M611.41,403.791c-3.042,0.467-2.295,3.762-1.936,5.619c0.546,2.82,0.561,4.502,3.546,5.273
			c4.458,1.152,4.027-1.699,4.136-4.65C615.394,408.359,615.191,403.211,611.41,403.791z"/>
		<path fill="#DEECD2" d="M614,424.616v-1.867c-3-0.519-3.421-3.461-6.259-2.828c-2.603,0.58-4.975,4.777-2.387,6.585
			c1.097-1.121,1.899-2.626,3.447-2.807c0.566,1.619,0.733,4.788,2.801,5.559c1.642,0.612,2.214-0.863,3.982-1.009
			C615.577,426.749,615,425.406,614,424.616z"/>
		<path fill="#DEECD2" d="M639.602,342.506c0.712-1.395,3.583-1.78,2.217-3.46c-0.257-0.316-0.805-0.519-1.503-0.635
			c1.671-0.409,2.888-2.269,3.337-3.735c-1.472-0.446-3.085-0.901-4.626-1.13c-0.96,1.353-3.557,4.011-0.984,4.752
			c-1.743,0.056-3.557,0.373-4.266,0.741c0.171,1.399,2.737,3.638,0.213,4.399c-1.911,0.576-2.638-2.61-4.079-2.847
			c-1.608-0.265-3.542,1.707-4.851,2.204c-1.806,0.686-7.11,0.012-6.659,3.036c0.816,5.467,9.985,0.143,12.54,0.971
			c3.84,1.245-0.071,1.691-1.02,2.279c-2.759,1.71-3.128,4.352,1.27,3.669l3.422-0.622c3.423,0.169,7.08-1.638,9.627-3.711
			c2.358-1.919,5.767-3.84,7.872-5.909C650.31,338.918,643.066,343.569,639.602,342.506z"/>
		<path fill="#DEECD2" d="M638.346,334.395l0.641-0.855c-0.124-0.018-0.252-0.045-0.375-0.06
			C638.366,333.73,638.277,334.035,638.346,334.395z"/>
		<path fill="#DEECD2" d="M638.988,333.54c0.013,0.002,0.026,0.004,0.039,0.006c0.104-0.147,0.196-0.284,0.252-0.395L638.988,333.54
			z"/>
		<path fill="#DEECD2" d="M632.198,329.75c1.574,0.469,3.406-0.602,5.216-0.643l1.867-0.622c-0.295,2.257,8.172,4.263,10.253,3.464
			c4.111-1.577,1.554-4.545,0.515-6.883c-1.038-2.336,1.306-2.884-2.825-3.378c-2.093-0.25-4.901,0.156-7.072,0.264
			c-1.018,0.051-2.136-0.228-3.078,0.289c-0.938,0.514-0.789,1.945-1.271,2.231c-1.491,0.884-3.525,0.005-4.92,0.975
			C628.726,326.943,630.028,329.104,632.198,329.75z"/>
		<path fill="#DEECD2" d="M661.368,318.84l-0.933-0.622c-1.914-0.026-3.511-1.231-5.433-0.913c-1.723,5.447,5.635,6.778,8.631,3.391
			C663.281,319.53,662.121,318.6,661.368,318.84z"/>
		<path fill="#DEECD2" d="M642.795,311.039c-0.722-0.501-2.233-1.005-2.647-2.185c0.121-0.282,0.35-0.376,0.688-0.281l-0.622-1.244
			c-1.894-0.726-5.723-1.556-6.872,1.056C631.44,312.708,640.497,313.347,642.795,311.039z"/>
		<path fill="#DEECD2" d="M648.67,310.696c1.881,1.09,7.797,0.074,6.495-2.962c-1.731,0.301-4.305,0.807-3.775-1.945
			c-0.3-0.076-0.604-0.081-0.911-0.016l-0.933-2.8c-0.602-0.728-2.959-2.893-4.065-2.554c-2.867,0.879,0.282,4.791,1.039,6.326
			C647.08,307.884,647.519,310.029,648.67,310.696z"/>
		<path fill="#DEECD2" d="M659.813,302.974c-0.342,1.921,2.236,2.042,1.896,4.323c2.735-2.146,2.758-3.74,2.776-7.083
			c-1.244-0.037-2.481,0.24-3.739,0.271L659.813,302.974z"/>
		<path fill="#DEECD2" d="M666.284,282.086c-1.732-0.012-2.618,9.757-4.916,4.399l-0.933-1.867c0.31-1.212-1.16-0.514-2.246,0.286
			c-2.535,1.867-2.544,6.537,0.055,8.415c2.227,1.609,0.997-0.383,2.835-1.429c0.339-0.193-0.265-0.867,0.595-1.068
			c1.081-0.253,1.422,1.398,2.13,1.312c2.261-0.275,2.499-2.351,3.186-5.05C667.365,285.61,668.762,282.104,666.284,282.086z"/>
		<path fill="#DEECD2" d="M676.91,294.638c2.336,0.484,2.558-2.999,3.495-4.038c0.589-0.653,2.521-0.495,3.088-1.869
			c0.868-2.106-1.282-6.955-4.081-6.29l-1.867-0.622c-3.949-0.946-1.573,3.168-2.209,5.211c-0.41,1.315-2.341,1.197-2.136,3.098
			C673.251,290.59,676.31,294.514,676.91,294.638z"/>
		<path fill="#DEECD2" d="M675.7,310.384c2.768,1.079,8.284,0.394,7.534-3.698c-0.43-2.345-3.845-3.747-4.444-6.201l-1.555-0.311
			c-4.489-1.295-5.697,0.218-3.18,4.239C675.518,306.752,676.322,307.185,675.7,310.384z"/>
		<path fill="#DEECD2" d="M688.746,298.929l-1.867-0.622c-2.974,1.197-1.127,3.49-3.398,4.635c2.964,2.696,6.099,4.209,7.83,0
			C692.143,300.921,692.015,298.176,688.746,298.929z"/>
		<path fill="#DEECD2" d="M693.814,287.087c-3.918-0.751-1.775,4.193-2.074,5.883c-1.836,0.328-2.59-1.334-3.297-2.727
			c0.008-0.42,0.213-0.74,0.615-0.958l-1.867-0.622c-1.994,0.526-1.423,2.685-0.338,3.99c1.682,2.025,4.853,1.798,7.126,1.282
			C694.69,292.38,696.098,287.525,693.814,287.087z"/>
		<path fill="#DEECD2" d="M721.736,286.115c-3.308-0.229-4.451,1.111-7.574,0.291c-1.603-0.421-2.988-1.015-4.572-1.015h-2.178
			c-1.335,0-2.172-1.861-3.195-1.784c-2.919,0.222-0.25,3.659,0.47,5.205c0.771,1.656,1.237,1.357,1.502,3.336
			c0.276,2.057-0.841,4.28-0.574,6.446c6.13-0.052,0.248-15.343,9.231-7.74c2.621,2.219,1.814,3.186,3.448,5.975
			c3.135,5.349,3.24-3.223,2.808-5.645c0.91-0.436,5.026-0.262,5.329-0.695C728.051,288.179,723.35,286.226,721.736,286.115z"/>
		<path fill="#DEECD2" d="M750.312,284.268c0.977-2.254,0.178-5.047,0.975-7.423c0.297-0.886,1.272-1.421,1.501-1.931
			c0.618-1.378,1.549-3.741,0.357-4.917l-1.867-0.622c-0.547,0.156-0.706,0.047-0.477-0.328c5.399-3.866-5.039-9.196-3.054-1.329
			c-2.966,0.182-0.606,6.231-0.514,8.485C747.399,280.289,745.425,282.493,750.312,284.268z"/>
		<path fill="#DEECD2" d="M753.668,259.103c0.544,0.35,1.36,1.07,1.965,1.249l-1.244,1.244c-0.215,1.435,0.57,2.639,1.908,3.199
			C760.976,261.482,755.778,255.72,753.668,259.103z"/>
		<path fill="#DEECD2" d="M813.428,269.083c1.06,0.12,1.831-0.963,2.91-0.93c0.996,0.031,0.21,1.256,1.315,1.242
			c2.281-0.03,4.702-2.267,1.43-3.115c0.022-0.361,0.235-0.574,0.638-0.639l-2.489-1.556
			C811.494,261.714,808.271,268.501,813.428,269.083z"/>
		<path fill="#DEECD2" d="M821.588,252.886l1.867,0.933c-0.643,0.224-0.873,0.558-0.693,1.002c0.881,0.17,2.092-0.024,2.875-0.365
			c-0.46-0.687-2.544-2.413-2.56-3.443c-0.023-1.497,2.246-1.183,1.853-3.081c-0.82-3.96-10.833-1.342-5.605,2.478
			c-1.419,0.93-3.58,2.084-3.906,3.711C817.694,254.345,819.504,252.052,821.588,252.886z"/>
		<path fill="#DEECD2" d="M835.852,252.913c0.852-0.256,3.796-3.486,4.4-4.381c3.85-5.7-6.862-3.577-5.287-1.247l-0.622,1.244
			C832.49,250.376,832.298,253.978,835.852,252.913z"/>
		<path fill="#DEECD2" d="M489.949,443.283l-0.311,0.311c-1.484-1.109-2.652-3.705-5.266-3.755
			c-3.584-0.069-2.411,2.356-3.992,4.705c-1.187,1.763-3.024,1.785-3.205,4.613c-0.137,2.132,0.303,3.402,2.835,4.119
			c3.272,0.926,7.703-1.9,10.9-2.464C491.228,447.93,489.106,446.141,489.949,443.283z"/>
		<path fill="#DEECD2" d="M458.527,387.906l-0.622,0.933c-1.075,0.045-1.963,0.532-2.461,1.528c0.84,1.619,3.271,5.023,4.997,5.918
			C466.422,392.876,459.207,390.642,458.527,387.906z"/>
		<path fill="#DEECD2" d="M448.883,378.573c-1.064-0.367-2.42-0.514-3.426-0.917c-0.587-0.235-0.951-1.507-1.257-1.538
			c-3.18-0.323-4.204,2.763-3.964,5.334c0.27,2.885,4.445,9.056,7.881,5.168c1.095-1.239-0.43-2.229,0.112-3.34
			c0.782-1.601,2.769-1.585,2.738-3.474c-0.339-0.055-0.619,0.053-0.84,0.323L448.883,378.573z"/>
		<path fill="#DEECD2" d="M447.562,364.029c-0.097-0.624-0.788-2.348-1.758-2.291c-2.245,0.131-2.891,3.927-3.087,5.959
			c-0.236,2.441,2.087,7.902,5.233,5.276l-0.311-2.178c-0.15,0.332-1.135-0.308-1.173-1.843c-0.072-2.912,2.572-2.749,4.391-1.988
			c0.747,0.312,1.952,3.885,2.993,0.998C454.949,364.909,449.75,362.675,447.562,364.029z"/>
		<path fill="#DEECD2" d="M442.311,350.253c-0.592,0.23-0.871,0.397-1.202,0.945c1.008,0.712,3.856,5.461,4.934,5.031
			c1.268-0.506,0.323-2.541,0.351-3.479l-1.556-0.933C443.869,351.486,442.998,351.141,442.311,350.253z"/>
		<path fill="#DEECD2" d="M419.95,365.195l-0.311-1.867c-1.173-0.987-0.984-3.774-2.892-4.01c-1.892-0.233-1.34,3.124-1.105,4.423
			c0.293,1.623,1.151,7.56,3.493,7.359c2.271-0.195,2.379-4.666,1.77-6.209C420.389,364.729,420.36,365.016,419.95,365.195z"/>
		<path fill="#DEECD2" d="M412.794,369.391h-3.422c-0.654-1-0.812-0.349-1.564-0.185c-1.425,0.31-0.404,1.016-2.153,0.459
			c-1.004-0.32-1.358-0.823-1.882-1.606c-1.007-1.506-1.55-4.698-1.252-6.508c0.256-1.551,2.615-3.35,2.2-4.811
			c-0.388-1.366-3.306-1.868-4.439-1.149c-1.429,0.907-1.312,2.86-2.99,3.774c-1.87,1.018-6.367,1.163-8.448,0.807
			c-3.751-0.642-3.255-3.207-6.085-4.55c-1.28-0.607-3.028,0.201-4.133-0.391c-1.062-0.569-1.415-2.167-2.348-2.812
			c-1.635-1.131-5.104-1.226-7.061-2.142c-6.384-2.987-12.759-5.512-14.002-13.043c-0.644-3.904-0.292-4.923-3.649-7.125
			c-1.884-1.236-3.846-3.626-6.342-2.291c-1.81,0.968-1.156,3.655-2.423,4.39c-1.087,0.63-0.932-0.345-1.899-0.292
			c-4.893,0.268-4.523-1.278-2.417,3.407c1.228,2.732,0.105,5.225,1.424,8.193c1.18,2.657,2.343,2.743,4.067,4.266
			c3.204,2.831,2.466,7.456,4.488,11.106c2.22,4.007,5.91,6.792,8.597,10.374c2.027,2.702,5.844,4.286,8.116,0.275
			c1.428-2.522-1.398-5.735-1.838-8.262c-1.915-11.001,11.971-3.921,16.759-2.668c5.619,1.47,5.53,7.374,6.253,12.772
			c0.441,3.294,1.617,7.741,5.546,6.274c0.707-0.264,0.767-1.728,1.624-2.143c0.566-0.274,3.995-0.361,4.611-0.007
			c2.326,1.336,2.306,6.463,5.822,7.407c1.04,0.279,2.278-0.675,3.263-0.531c0.88,0.128,1.837,1.544,2.451,1.606
			C417.405,384.77,412.386,372.391,412.794,369.391z"/>
		<path fill="#DEECD2" d="M411.55,342.173c-3.385,1.321-1.244-2.301-1.308-2.856c-0.184-1.602-0.595-4.096-1.395-5.561
			c-1.129-2.068-8.367-6.587-9.745-2.461c-0.836,2.504,5.037,5.938,6.83,6.599c-4.124,1.677-1.746,6.538,2.197,4.242
			c-1.624,5.445,2.676,5.548,6.236,4.952c-0.54-1.096-1.039-1.933-1.571-3.049L411.55,342.173z"/>
		<path fill="#DEECD2" d="M420.528,331.55c0.117-0.184,0.138-0.382,0.063-0.592c-3.668-1.379-3.166,1.09-5.573,1.902
			c0.063-1.404,0.218-3.277-0.986-4.109c-1.271,1.953-0.37,5.946,0.629,7.823l0.933-1.556
			C416.901,335.499,417.997,331.279,420.528,331.55z"/>
		<path fill="#DEECD2" d="M437.706,317.285c1.304-1.613,0.517-1.599,2.915-1.674c2.213-0.069,4.127,2.376,3.537-2.628
			c-0.288-2.442-2.128-3.572-3.363-5.809c-0.857-1.552-0.569-3.051-1.026-4.237c-1.086-2.813-7.17-7.274-2.29-9.954
			c-0.728-1.509-2.072-2.515-2.852-4.018c-0.613-1.18,0.068-2.245-1.034-3.078c0.678-1.117,2.035-1.157,2.556-2.196
			c0.379-0.756,0.358-4.021,0.28-4.904c-0.281-3.179-2.01-3.449-4.61-1.105c0.427-1.035,0.223-1.566-0.385-2.167l4.381-2.095
			c3.298,2.828,3.02-0.713,4.643-1.197c0.973-0.291,1.913-0.029,2.871,0.23c0,0.004,0.002,0.007,0.002,0.01
			c-0.008,1.592-2.334,2.857-2.868,4.327c4.384,1.019,3.139,6.097,4.997,9.161c1.306,2.154,4.755,1.778,4.703,4.24
			c1.943,0.139,0.905,2.262,2.755,2.897c-2.149,1.461-0.155,8.351,2.498,5.843l4.044-1.244c3.942,0.042,0.686-5.323-0.789-6.312
			c-2.176-1.46-3.404-1.717-5.424-3.332c-2.446-1.955-2.59-2.667-4.038-5.298c-0.763-1.386-6.711-8.421-0.395-7.468
			c0.921,0.139,4.866,4.572,5.4,5.585c0.695,1.32,0.211,2.979,0.907,4.395c1.232,2.506,2.731,2.657,3.434-0.61
			c0.31-1.441-0.39-6.204-1.011-7.515c-1.276-2.695-4.976-3.294-7.43-4.584c-1.677-0.882-3.076-2.327-4.735-3.066
			c-0.321-0.455-0.694-0.878-1.072-1.234c-2.796-2.632-2.967-0.751-2.875-4.821c0.048-2.119-1.614-5.417-1.243-7.012
			c0.851-3.657,5.615,1.268,8.151,1.134c1.144-4.454-2.158-4.224-3.196-7.461c-0.672-2.096,1.39-3.924,1.208-5.841
			c-0.646-6.817-11.976-1.442-14.901,0.796c1.659,0.94,3.282,1.993,5.012,2.54c-2.342,2.694-6.854,0.328-9.31,2.175
			c-2.879,2.165,0.309,2.235,0.228,4.905c-5.929,1.163-11.398-4.347-17.426-2.439c0.002,2.485,1.184,3.248-0.477,5.339
			c-1.154,1.453-3.18,1.196-2.594,3.703c1.541-0.031,3.989-0.047,5.482,0.356c1.587,0.429,0.998,2.169,3.551,1.583
			c-1.079,2.956-2.546,5.085-1.739,8.625c2.519-0.313,5.295-0.097,7.669-1.226c2.948-1.402,1.416-1.769,2.43-4.905
			c2.685-0.258,1.397,1.352,2.479,2.705c0.792,0.991,1.738,1.2,2.51,2.231c0.818,1.092,1.589,2.712,1.259,4.123
			c-2.316-1.544-3.987,0.95-5.599,2.385c-1.342,1.195-3.514,1.674-4.68,2.796c-1.847,1.777-0.659,3.78-3.718,4.631
			c-0.025-2.274,0.353-4.324-1.315-5.992c-2.712-2.712-5.06,1.782-8.078,3.303c-0.966,0.487-2.853,0.91-3.631,1.51
			c-2.547,1.966-1.165,2.049-1.507,4.597c-0.441,3.287-1.275,4.878,2.951,5.995c1.914,0.506,4.026,0.965,6.018,1.48
			c1.969,0.509,3.26-0.521,4.601-0.288c2.039,0.354,1.846,1.958,4.366,2.494c2.94,0.625,3.126-1.635,5.311,1.892
			c0.683,1.103,2.682,5.306,3.69,1.25c1.484,0.34,5.302,3.854,5.971,5.606c0.885,2.317-0.715,2.976-1.772,5.976h-1.983
			c-0.024,0,0.027,0.385-0.034,0.694c-2.175-0.315-4.106-2.253-6.534-1.357c-0.227,2.148,0.268,4.499,2.818,4.415
			c-0.021,1.691-1.413,3.185-1.5,4.727c-0.107,1.889,1.06,4.398,2.086,5.805c1.144,1.57,1.25,2.384,4.163,1.746
			c1.514-0.331,2.997-0.462,3.049-2.435c-1.927-1.425-6.424,1.362-5.913-2.735c0.353-2.836,4.672-3.091,5.961-0.677
			c-0.27,0.265-0.473,0.663-0.736,0.941c2.113,0.966,1.189,2.357,1.927,4.036c0.422,0.961-0.609,1.621,0.859,1.9
			c1.474,0.28,2.179-3.668,2.268-4.69C435.906,323.474,435.793,319.65,437.706,317.285z"/>
		<path fill="#DEECD2" d="M421.194,303.285l-2.489,0.311c-2.325,1.592-2.117,8.889,0.918,9.055
			C423.489,312.864,424.492,304.145,421.194,303.285z"/>
		<path fill="#DEECD2" d="M453.216,334.908c0.617-4.532-3.62-8.636-3.063-12.73c0.468-3.437,2.726-5.088,2.006-8.91
			c-1.066-0.263-1.989,0.066-2.654,0.906l-3.111,4.978c-5.291,2.597-3.405,19.158,1.83,16.97c0.503-2.309-0.588-4.227-2.404-5.6
			C450.344,329.169,449.68,334.927,453.216,334.908z"/>
		<path fill="#DEECD2" d="M457.938,304.882c-4.741-0.241-10.016-2.19-9.653,3.759c1.188,0.624,2.061,0.294,2.465-1.001l1.867-0.622
			C453.236,311.916,457.087,306.171,457.938,304.882z"/>
		<path fill="#DEECD2" d="M482.864,285.173c-2.247-0.635-4.67-0.221-6.915-0.866l-0.933,0.311c-0.909,0.287-1.691,1.042-1.98,1.878
			c0.775,0.966,4.878,2.537,6.09,2.523C481.819,288.988,482.181,287.679,482.864,285.173z"/>
		<path fill="#DEECD2" d="M478.719,295.758c-1.18,2.765,4.703,2.553,5.618,2.874c0.57,0.2,1.256-0.243,1.819,0.002
			c0.422,0.184,0.643,1.768,1.021,1.888c2.139,0.678,4.881,0.217,7.21,0.57c1.427,0.216,2.678,1.217,4.036,0.301
			c4.313-2.909-0.587-7.837-4.12-7.752l0.311-0.311c0.595-0.213,0.7-0.309,0.317-0.287c-3.238,1.084-6.919,1.39-10.282,1.865
			C483.514,295.068,479.194,294.645,478.719,295.758z"/>
		<path fill="#DEECD2" d="M494.927,308.574l-2.178,0.311c-1.145,0.295-2.414,0.396-3.536,0.133c-0.769-0.181-1.37-2.107-2.381-1.739
			c-2.33,0.848-0.12,4.213,0.635,5.671c-1.182,0.446-1.368,0.896-1.51,1.868c2.301,0.824,3.646-0.537,5.544-0.606
			c2.045-0.074,3.158,0.577,5.07,1.144c1.364,0.405,3.704,1.559,4.935,0.12C504.374,312.121,496.594,309.233,494.927,308.574z"/>
		<path fill="#DEECD2" d="M454.172,260.974c0.183,1.459,1.584,5.655,3.026,7.196c3.326-2.6,3.93-3.356,3.581-7.292
			c-0.177-1.997,0.284-6.76-1.016-8.315c-1.13-1.352-3.128-1.386-4.983-0.061c-2.094,1.495-1.526,2.638-1.54,5.361L454.172,260.974z
			"/>
		<path fill="#DEECD2" d="M420.546,226.082c1.641,1.452,3.283,1.292,5.019,0.68c1.574,4.095,1.761,10.465,4.029,13.679l2.178-4.355
			c-0.486-1.516-0.639-3.112-0.667-4.73c-0.057-3.398,1.917-5.632,2.197-8.567c0.224-2.347-0.927-4.018-2.854-5.789
			c-0.884-0.813-2.165-1.1-3.008-1.846c-0.55-0.487-0.452-1.869-1.112-2.143c-2.595-1.077-5.988,0.853-6.645,3.498
			c1.841,1.856,4.191,0.979,4.559,4.28c0.328,2.939-0.233,2.188-2.229,2.542C419.853,223.714,417.149,223.078,420.546,226.082z"/>
		<path fill="#DEECD2" d="M418.358,250.402c4.574,0.366,4.553-0.325,5.613-4.127c0.546-1.96,2.406-4.596,0.957-6.455l-1.244,0.311
			c-0.214-1.879-2.948-5.024-4.946-4.942c-0.131,1.175-0.449,2.332-1.235,3.09c-1.42-1.389-3.566-1.676-5.329-0.867
			c0.153,1.885,1.498,3.256,2.445,4.808c-2.046-0.302-4.153,0.49-3.966,2.867C410.927,248.583,415.712,250.19,418.358,250.402z"/>
		<path fill="#DEECD2" d="M437.713,229.531c-7.398,1.223,0.091,10.071,3.652,4.696c-0.02,0.2,0.025,0.384,0.135,0.551
			c3.452-0.366,3.035,6.701,6.425,4.636c1.673-1.018,1.508-6.718,2.84-9.109l-0.328,0.492c-0.963-0.596-2.049-2.424-3.197-2.579
			c-1.288-0.174-2.405,1.372-3.374,1.598C442.063,230.237,440.147,229.128,437.713,229.531z"/>
		<path fill="#DEECD2" d="M436.76,218.846c1.445,0.68,1.494-0.165,3.007-0.192c1.178-0.021,1.233-1.084,2.233,0.01v-0.311
			c0,0.224,0.753,0.322,1.089,0.293c-0.12-0.995-1.414-1.664-1.496-2.245c-0.081-0.574,0.045-1.337-0.012-1.89
			c-0.12-1.153,2.201-5.963-1.994-3.938c-2.439-6.809-7.782-1.769-6.797,2.562C432.998,214.052,435.873,218.429,436.76,218.846z"/>
		<path fill="#DEECD2" d="M483.356,217.96c-3.694-4.289-7.85,0.443-10.517,2.607c-1.773,1.438-4.292,1.581-6.534,1.519l-2.178-0.622
			c-6.968-0.468-2.249,2.002-2.411,5.566c1.874,0.096,4.739,0.641,6.446,0.358c1.41-0.234,2.853-1.863,4.693-1.54
			c2.333,0.409,3.328,3.687,6.032,3.659C484.381,229.449,486.629,221.759,483.356,217.96z"/>
		<path fill="#DEECD2" d="M340.961,287.61c1.891,1.493,3.082,3.193,5.55,1.658c1.597-0.994,1.531-3.056,2.745-4.266
			c1.281-1.277,3.517-1.498,5.081-2.239c-0.291-3.549,4.165-0.421,5.203-0.214c2.003,0.4,3.789-0.729,6.05-0.78
			c4.183-0.094,5.931,2.889,7.714,5.967c0.289,0.499-0.134,1.47,0.213,2.103c0.358,0.654,1.81,1.41,2.379,1.966
			c1.948,1.902,3.797,4.872,7.313,3.757c2.417-0.766,2.885-3.165,3.392-5.7c0.443-2.218-0.319-2.576,1.569-4.57
			c0.893-0.943,2.502-1.734,3.549-2.622c1.704-1.445,3.534-3.074,4.34-5.214c2.227,0.23,4.68-0.863,6.211-2.442
			c-0.054-0.353-0.208-0.605-0.353-0.901c0.441-0.116,0.764-0.397,1.128-0.617c-0.282-0.268-0.16-0.436,0.105-0.699l-6.533-14.311
			c-0.893-1.785-2.725-3.359-4.484-4.448c-2.328-1.442-5.885-3.953-7.67-1.57c-0.904,1.206-0.616,6.206-3.976,3.551
			c-1.936-1.529-0.931-8.11-1.611-10.24c-9.197-1.287-1.92,8.039-3.789,11.517c-2.086,3.881-7.379,1.89-10.146,3.771
			c1.478,3.182-2.889,4.736-3.207,2.122c-4.289,0.108-1.544-3.5-1.252-5.355c0.592-3.758-1.104-6.382-3.831-8.719
			c2.13-1.952,5.6-5.384,8.21-6.194c2.624-0.814,8.921,1.007,8.281-3.683c-3.439,0.168-4.757-2.384-7.945-2.496
			c-2.686-0.094-4.591,0.919-7.411,0.221c-0.349-1.915,1.903-2.872,1.202-4.648c6.746-5.998,19.192-0.189,25.851-4.995
			c1.467-1.059,5.595-4.068,5.571-5.889c-0.058-4.311-6.735-3.181-9.289-3.076c-3.758,0.154-7.495,0.443-11.259,0.598
			c-4.323,0.178-5.539,1.723-9.076,3.405c-1.32,0.628-4.785,0.551-5.778,1.547c-1.305,1.308-0.592,5.144-1.946,7.11
			c-2.024-2.571-4.052-5.555-6.18-8.023c-0.262,2.681,1.535,5.772,2.969,7.969c0.444,0.681,1.755,1.928,2.006,2.39
			c0.952,1.752,1.204,3.987,2.459,5.832c0.676,0.993,2.932,2.587,3.128,3.771c0.409,2.462-1.955,1.931-3.381,3.667
			c-1.537,1.87-0.677,2.213-0.994,4.412c-0.375,2.595-0.681,1.719-1.89,3.83c-0.856,1.495-1.583,3.116-1.614,4.855
			c-5.535,3.191-3.131-10.679-9.21-7.796c-3.311,1.571,2.789,7.766,1.286,10.826c-1.106,2.252-4.017,1.126-5.091,2.631
			c-1.342,1.881,0.389,4.989,0.616,6.935c0.416,3.565,0.823,7.25-3.322,7.936c0.085,1.955-0.727,3.34-1.921,4.948
			c-2.369,3.189-3.003,2.793-0.005,4.984c1.865,1.364,4.609,2.912,6.733,1.569C339.423,291.262,340.004,288.484,340.961,287.61z"/>
		<path fill="#DEECD2" d="M348.395,213.997l4.044,1.556c1.585-1.023,3.344-1.947,5.242-1.865c0.195-2.606-0.38-4.673-0.816-7.162
			c-0.466-2.656-0.186-4.991-0.491-7.61c-0.491-4.222-1.375-7.899-1.449-12.266c-7.774,3.284-1.465,14.02-6.275,18.74
			c-1.635,1.605-2.613,0.209-3.634,2.629C343.968,210.502,345.987,213.639,348.395,213.997z"/>
	</g>
</g>
<g id="Lines">
	<path opacity="0.5" fill="#D8D2D2" enable-background="new    " d="M472,219.391H359v-89h113V219.391z M360,218.391h111v-87H360
		V218.391z"/>
	<rect x="151" y="197.391" opacity="0.5" fill="#D8D2D2" enable-background="new    " width="209" height="1"/>
	<polygon opacity="0.5" fill="#D8D2D2" enable-background="new    " points="298.958,387.599 298.3,379.965 304,371.242 304,363.22 
		309.36,356.268 298,342.571 298,323.391 310,323.391 310,197.391 311,197.391 311,324.391 299,324.391 299,342.211 310.64,356.246 
		305,363.561 305,371.54 299.327,380.223 299.954,387.513 	"/>
	<polygon opacity="0.5" fill="#D8D2D2" enable-background="new    " points="504,303.391 311,303.391 311,302.391 503,302.391 
		503,220.391 472,220.391 472,219.391 504,219.391 	"/>
	<rect x="390" y="218.391" opacity="0.5" fill="#D8D2D2" enable-background="new    " width="1" height="199"/>
	<polygon opacity="0.5" fill="#D8D2D2" enable-background="new    " points="297.659,338.84 214,260.608 214,197.391 215,197.391 
		215,260.174 298.341,338.109 	"/>
	<polygon opacity="0.5" fill="#D8D2D2" enable-background="new    " points="263.874,196.92 262.876,196.862 265.675,148.595 
		259.737,143.006 272.578,115.728 264.632,106.851 261,98.891 261,34.391 262,34.391 262,98.781 265.508,106.363 273.766,115.553 
		260.951,142.776 266.7,148.187 	"/>
	<path opacity="0.5" fill="#D8D2D2" enable-background="new    " d="M177.708,117.475l-5.526-2.666l-2.409-7.739
		c-1.135-2.146-2.647-4.723-3.05-4.998c-0.564-0.22-5.125,0.113-9.186,0.573l-0.112-0.994c3.343-0.378,9.068-0.936,9.853-0.411
		c0.794,0.53,2.815,4.305,3.416,5.449l2.314,7.408l4.785,2.309l8.405-2.521l20.497,1.75L233,107.391h33v1h-32.923l-26.271,8.256
		l-20.503-1.75L177.708,117.475z"/>
	<polygon opacity="0.5" fill="#D8D2D2" enable-background="new    " points="331.006,146.084 326.368,135.523 321.109,133.271 
		313.107,114.134 307.8,121.11 302.897,117.016 307.051,92.29 299.436,90.84 290.906,76.541 284,73.727 284,66.868 278,61.618 
		278,34.391 279,34.391 279,61.164 285,66.414 285,73.054 291.594,75.741 300.064,89.942 308.199,91.491 303.978,116.615 
		307.638,119.672 313.361,112.148 321.875,132.511 327.125,134.759 331.49,144.698 339.626,140.391 360,140.391 360,141.391 
		339.874,141.391 	"/>
	<rect x="471" y="34.391" opacity="0.5" fill="#D8D2D2" enable-background="new    " width="1" height="96"/>
	<polygon opacity="0.5" fill="#D8D2D2" enable-background="new    " points="612.673,241.391 504,241.391 504,240.391 
		611.327,240.391 595.317,187.19 584.373,178.798 571.692,181.16 562.897,177.391 472,177.391 472,176.391 563.103,176.391 
		571.808,180.121 584.627,177.734 584.805,177.869 596.183,186.592 596.229,186.747 	"/>
	<polygon opacity="0.5" fill="#D8D2D2" enable-background="new    " points="636.981,445.582 636.021,445.309 643.264,419.883 
		634,401.51 634,372.281 628,370.781 628,332.128 625.009,316.485 625,260.015 617.271,249.583 621.243,245.797 619.405,242.556 
		612.337,240.362 612.634,239.407 620.079,241.719 622.499,245.982 618.601,249.697 626,259.685 626,316.391 628.991,332.034 
		629,370 635,371.501 635,401.272 644.332,419.781 	"/>
	<polygon opacity="0.5" fill="#D8D2D2" enable-background="new    " points="628.879,371.954 615.323,365.967 597.325,369.945 
		587.162,364.61 582,368.079 582,364.87 570.991,364.412 568.548,361.137 562.393,362.652 553.129,361.026 548.507,353.472 
		541.354,356.103 536,350.678 536,315.391 489,315.391 489,314.391 537,314.391 537,350.268 541.614,354.942 548.931,352.25 
		553.746,360.119 562.357,361.63 568.952,360.008 571.509,363.432 583,363.911 583,366.202 587.1,363.448 597.466,368.889 
		615.427,364.92 629.283,371.039 	"/>
	<polygon opacity="0.5" fill="#D8D2D2" enable-background="new    " points="430,404.391 429,404.391 429,402.391 487,402.391 
		487,302.391 488,302.391 488,403.391 430,403.391 	"/>
	<rect x="504" y="302.391" opacity="0.5" fill="#D8D2D2" enable-background="new    " width="122" height="1"/>
	<polygon opacity="0.5" fill="#D8D2D2" enable-background="new    " points="704.381,324.391 694.093,324.391 698.411,318.344 
		696.647,313.391 626,313.391 626,312.391 697.353,312.391 699.528,318.501 696.036,323.391 703.619,323.391 706.625,312.531 
		712,309.2 712,303.584 706.748,297.801 705.528,288.26 692.801,277.298 696.534,265.214 688.042,264.107 687.12,256.122 
		677.546,246.62 676.02,232.264 671.563,228.391 608,228.391 608,227.391 671.937,227.391 676.973,231.767 678.503,246.161 
		688.073,255.659 688.946,263.216 697.841,264.376 693.949,276.968 706.472,287.752 707.699,297.362 713,303.198 713,309.757 
		707.484,313.175 	"/>
	<polygon opacity="0.5" fill="#D8D2D2" enable-background="new    " points="676.674,231.781 675.826,231.251 684.107,218.026 
		683.083,209.561 693.854,205.518 695,200.336 695,194.579 682.528,180.382 682.498,180.268 675.556,153.919 654.847,136.095 
		656.918,119.025 652.814,113.338 662.014,104.154 663.072,96.947 664.062,97.093 662.955,104.628 654.123,113.444 657.957,118.757 
		655.903,135.686 676.444,153.363 676.483,153.513 683.435,179.9 696,194.202 695.988,200.499 694.713,206.264 684.171,210.221 
		685.143,218.257 	"/>
	<polygon opacity="0.5" fill="#D8D2D2" enable-background="new    " points="593.54,185.74 592.472,181.074 595.954,174.357 
		592.283,164.391 678,164.391 678,165.391 593.717,165.391 597.046,174.425 593.528,181.208 594.515,185.516 	"/>
	<polygon opacity="0.5" fill="#D8D2D2" enable-background="new    " points="595,164.391 594,164.391 594,123.556 588.181,115.712 
		593.261,103.333 581.632,34.474 582.618,34.307 594.294,103.448 594.24,103.581 589.319,115.57 595,123.226 	"/>
	<rect x="472" y="109.391" opacity="0.5" fill="#D8D2D2" enable-background="new    " width="120" height="1"/>
	<polygon opacity="0.5" fill="#D8D2D2" enable-background="new    " points="737,124.391 733,124.391 733,113.933 729,111.683 
		729,109.262 699.298,100.334 695.075,96.118 695.782,95.41 699.827,99.448 730,108.519 730,111.098 734,113.348 734,123.391 
		737,123.391 	"/>
	<rect x="689" y="186.391" opacity="0.5" fill="#D8D2D2" enable-background="new    " width="41" height="1"/>
	<polygon opacity="0.5" fill="#D8D2D2" enable-background="new    " points="713.833,303.445 712.917,303.044 715.295,297.596 
		723,300.535 723,294.016 729.035,292.256 730.518,276.924 738.994,267.246 737.186,258.114 737.188,258.055 739.126,205.31 
		740.126,205.347 738.189,258.033 740.07,267.535 731.482,277.341 729.965,293.026 724,294.766 724,301.986 715.83,298.871 	"/>
	<polygon opacity="0.5" fill="#D8D2D2" enable-background="new    " points="730.314,288.72 729.434,288.246 732.144,283.22 
		737,285.079 737,281.538 745.675,286.392 750.519,281.7 753.52,284.517 758.002,278.207 762.92,281.455 773.664,271.685 
		772.351,267.391 781,267.391 781,203.391 782,203.391 782,268.391 773.702,268.391 774.805,271.998 763.018,282.718 
		758.258,279.574 753.672,286.031 750.53,283.082 745.837,287.628 738,283.243 738,286.532 732.606,284.468 	"/>
	<rect x="752" y="204.391" opacity="0.5" fill="#D8D2D2" enable-background="new    " width="49" height="1"/>
	<polygon opacity="0.5" fill="#D8D2D2" enable-background="new    " points="817.912,273.849 815.114,267.184 799.896,270.175 
		793.012,265.647 788.792,261.391 782,261.391 782,260.391 789.208,260.391 793.686,264.906 800.104,269.115 815.722,266.046 
		818.42,272.477 825.207,269.082 827.671,259.158 832.731,261.912 835.442,252.532 846.328,248.619 849.89,234.096 849.481,227.391 
		852,227.391 852,228.391 850.544,228.391 850.897,234.187 850.879,234.261 847.172,249.379 836.261,253.301 833.347,263.385 
		828.329,260.655 826.066,269.771 	"/>
	<polygon opacity="0.5" fill="#D8D2D2" enable-background="new    " points="833.487,298.505 820.109,283.844 818.946,272.629 
		819.94,272.525 821.07,283.413 833.81,297.375 857.485,290.691 866.491,268.556 872.063,272.87 875.526,265.391 879.793,265.391 
		884.558,260.626 886.993,252.611 895.617,257.547 897.67,254.844 911.104,266.138 910.461,266.904 897.83,256.286 895.883,258.85 
		887.585,254.102 885.442,261.156 880.207,266.391 876.165,266.391 872.444,274.429 866.921,270.154 858.228,291.52 	"/>
	<polygon opacity="0.5" fill="#D8D2D2" enable-background="new    " points="868,257.847 868,247.391 869,247.391 869,255.934 
		879.749,248.465 885.649,250.235 890.035,248.495 896.093,248.631 897.613,255.647 896.637,255.859 895.282,249.614 
		890.215,249.499 885.694,251.292 879.923,249.561 	"/>
	<polygon opacity="0.5" fill="#D8D2D2" enable-background="new    " points="929,248.391 850,248.391 850,196.391 851,196.391 
		851,247.391 929,247.391 	"/>
	<polygon opacity="0.5" fill="#D8D2D2" enable-background="new    " points="940.545,240.545 939.955,239.737 944.662,236.306 
		938,228.576 938,218.193 945.03,210.729 945.759,211.415 939,218.589 939,228.205 946.127,236.475 	"/>
	<polygon opacity="0.5" fill="#D8D2D2" enable-background="new    " points="961,218.391 960,218.391 960,215.098 964,212.848 
		964.018,196.26 968.018,181.51 969.476,162.444 966.368,160.952 966.438,157.88 967.438,157.902 967.382,160.33 970.524,161.838 
		968.998,181.679 965,196.457 965,213.433 961,215.683 	"/>
	<rect x="969" y="182.391" opacity="0.5" fill="#D8D2D2" enable-background="new    " width="33" height="1"/>
	<polygon opacity="0.5" fill="#D8D2D2" enable-background="new    " points="1006.01,202.587 999.846,198.391 965,198.391 
		965,197.391 1000.154,197.391 1006.572,201.761 	"/>
	<polygon opacity="0.5" fill="#D8D2D2" enable-background="new    " points="982.117,181.981 981.133,181.801 987.733,145.592 
		996,140.122 996,129.391 997,129.391 997,140.659 988.642,146.19 	"/>
	<polygon opacity="0.5" fill="#D8D2D2" enable-background="new    " points="1006.545,171.588 1003,165.526 1003,122.391 
		1004,122.391 1004,165.256 1007.408,171.083 	"/>
	<polygon opacity="0.5" fill="#D8D2D2" enable-background="new    " points="732.84,313.391 708,313.391 708,312.391 
		731.16,312.391 729.534,309.391 922,309.391 922,310.391 731.214,310.391 	"/>
	
		<rect x="818.641" y="288.034" transform="matrix(-0.6838 -0.7297 0.7297 -0.6838 1160.0378 1103.574)" opacity="0.5" fill="#D8D2D2" enable-background="new    " width="1" height="24.794"/>
	<polygon opacity="0.5" fill="#D8D2D2" enable-background="new    " points="881.871,364.192 863.795,346.391 848.781,346.391 
		843.517,340.678 822.368,339.149 811,344.391 694.434,344.391 696.31,336.391 705.176,325.849 703.645,323.165 704.514,322.67 
		706.391,325.96 697.229,336.852 695.695,343.391 810.89,343.391 822.181,338.133 822.311,338.142 843.983,339.71 849.219,345.391 
		864.205,345.391 882.572,363.479 	"/>
	<polygon opacity="0.5" fill="#D8D2D2" enable-background="new    " points="791,343.391 790,343.391 790,337.373 797.061,332.674 
		812.135,326.867 817.32,320.269 821.765,322.361 832,317.086 832,309.391 833,309.391 833,317.696 821.784,323.475 
		817.615,321.513 812.752,327.701 797.472,333.588 791,337.908 	"/>
	<polygon opacity="0.5" fill="#D8D2D2" enable-background="new    " points="843.214,399.75 835.573,380.455 820.435,365.381 
		815.03,355.49 806.329,348.82 809.641,342.654 810.521,343.128 807.612,348.544 815.856,354.918 821.277,364.838 836.465,379.99 
		844.144,399.383 	"/>
	<polygon opacity="0.5" fill="#D8D2D2" enable-background="new    " points="825.831,434.378 823.881,428.878 782.099,425.379 
		776.43,405.575 781.871,396.119 776.88,386.012 770.755,343.705 771.745,343.562 777.858,385.79 783.004,396.155 777.508,405.706 
		782.87,424.44 824.607,427.935 826.089,432.113 830.369,425.391 833,425.391 833,426.391 830.918,426.391 	"/>
	<polygon opacity="0.5" fill="#D8D2D2" enable-background="new    " points="739.165,430.968 737.399,421.391 781,421.391 
		781,422.391 738.601,422.391 740.149,430.786 	"/>
	
		<rect x="726.562" y="342.846" transform="matrix(-0.9994 -0.0351 0.0351 -0.9994 1440.1691 794.9734)" opacity="0.5" fill="#D8D2D2" enable-background="new    " width="1.001" height="83.999"/>
	<polygon opacity="0.5" fill="#D8D2D2" enable-background="new    " points="705.04,434.26 702.328,428.387 705.205,422.391 
		672.162,422.391 674.99,406.947 685.122,396.135 679.019,391.486 682.978,390.727 679.689,383.312 681.382,375.391 
		679.862,375.391 677.249,368.252 680,367.944 680,361.577 689,353.174 689,347.716 694.5,346.365 694.738,347.335 690,348.5 
		690,353.608 681,362.012 681,368.838 678.626,369.104 680.562,374.391 682.618,374.391 680.734,383.202 684.401,391.471 
		681.405,392.046 686.608,396.01 675.922,407.415 673.361,421.391 706.795,421.391 703.434,428.395 705.948,433.84 	"/>
	<rect x="635" y="382.391" opacity="0.5" fill="#D8D2D2" enable-background="new    " width="45" height="1"/>
	<path opacity="0.5" fill="#E0B1AF" enable-background="new    " d="M263,392.095"/>
	<path opacity="0.5" fill="#E0B1AF" enable-background="new    " d="M581.131,515.352l-23.093-6.921L545,496.613v-11.969
		c-6.559-4.828-6.654-5.088-6.718-5.262c-0.231-0.497-9.208-17.327-13.977-26.255l-18.311-12.113l-11.656-0.609l-3.019,10.888
		l-8.532,2.91l-17.164-11.791l-8.089-16.726l-24.714-20.295H406v13l-45.69-0.037l-61.483-25.246l3.633-5.494l-39.081,4.795
		l-0.122-0.992l41.233-5.059l-4.158,6.287l60.267,24.746H405v-13h28.179l25.208,20.761l8.021,16.586l16.531,11.355l7.558-2.576
		l3.091-11.153l12.73,0.666l18.75,12.402l0.06,0.112c4.053,7.59,13.301,24.917,14.046,26.396c0.433,0.447,4.267,3.315,6.621,5.048
		l0.204,0.149v12.031l12.542,11.369l22.876,6.856L581.131,515.352z"/>
	<polygon opacity="0.5" fill="#E0B1AF" enable-background="new    " points="958.241,219.444 942.574,209.968 940.319,202.2 
		934.843,198.391 862,198.391 862,188.95 840.518,191.374 821.396,203.943 809,199.75 809,191.092 819.322,185.544 827.406,161.857 
		819.73,123.207 802,112.676 802,104.747 794.854,102.272 793.008,94.071 788.393,95.902 782.118,82.752 726.722,52.436 
		705.879,59.679 690.989,58.564 683.692,52.541 674.936,59.879 667.615,51.047 660.648,55.385 654.576,48.257 658.534,46.028 
		653.524,44.439 642.676,49.015 637.676,43.901 627.843,41.274 620.416,29.931 617.419,26.172 616.455,36.391 171,36.391 
		171,35.391 615.545,35.391 616.655,23.61 621.226,29.346 628.47,40.407 638.199,43.006 642.914,47.829 653.476,43.374 
		661.028,45.77 656.125,48.532 660.852,54.08 667.828,49.737 675.064,58.467 683.687,51.24 691.38,57.59 705.746,58.666 
		726.812,51.346 727.007,51.452 782.882,82.03 788.893,94.627 793.727,92.711 795.708,101.51 803,104.035 803,112.106 
		820.625,122.575 820.668,122.794 828.439,161.925 828.396,162.053 820.143,186.238 810,191.69 810,199.032 821.254,202.839 
		840.168,190.407 863,187.831 863,197.391 935.157,197.391 941.181,201.581 943.426,209.314 958.759,218.588 	"/>
	<path opacity="0.5" fill="#D8D2D2" enable-background="new    " d="M876.712,176.658l-1.767-11.622l12.3-5.645h29.444l6.208-12.417
		l14.573-11.725l9.918-4.858H993c0.059,0.001,2.134,0.002,4.093-2.756c2.113-2.977,4.039-6.217,4.059-6.249l0.19-0.322l4.658,1.184
		v-4.075l10-9.313v-9.62l18.389-27.583l7.466,6.061l9.184-2.902l5.962,6.889v30.411l7.11,4.495l-2.293,6.139l6.895,6.272
		l-0.674,0.739l-7.395-6.728l2.246-6.012l-6.89-4.355V82.077l-5.288-6.111l-9.07,2.867l-7.03-5.708L1017,99.542v9.753l-10,9.313
		v4.925l-5.182-1.317c-0.544,0.899-2.164,3.537-3.911,5.997c-2.275,3.205-4.812,3.175-4.92,3.177h-45.366l-9.66,4.731
		l-14.351,11.561l-6.3,12.708h-29.955l-11.309,5.237l1.653,10.88L876.712,176.658z"/>
</g>
</svg>
