<?xml version="1.0" encoding="utf-8"?>
<!-- Generator: Adobe Illustrator 17.0.0, SVG Export Plug-In . SVG Version: 6.00 Build 0)  -->
<!DOCTYPE svg PUBLIC "-//W3C//DTD SVG 1.1//EN" "http://www.w3.org/Graphics/SVG/1.1/DTD/svg11.dtd">
<svg version="1.1" id="logomark" xmlns="http://www.w3.org/2000/svg" xmlns:xlink="http://www.w3.org/1999/xlink" x="0px" y="0px"
	 width="66px" height="36.333px" viewBox="0 0 66 36.333" enable-background="new 0 0 66 36.333" xml:space="preserve">
<path fill="#B9252D" d="M29.315,31.092c-0.643,0.29-1.412,0.55-2.252,0.786L0.176,35.65l11.338-17.525
	c2.666-4.182,9.155-8.57,19.31-10.472L20.517,22.948c-0.193,0.305-0.583,0.84-0.874,1.388l-3.08,4.594
	c-0.545,0.821-0.224,1.307,0.521,1.293c2.954-0.345,3.575-0.395,4.806-1.619c0.35-0.35,1.954-2.302,2.88-3.428l9.357-1.309
	c2.595-0.445,4.554-0.643,4.554-0.643S36.745,27.707,29.315,31.092z M53.455,27.245c-4.513,1.497-16.975,2.897-16.975,2.897
	c5.792-6.334,9.181-7.16,10.269-7.634c5.125-2.211,17.046-3.556,17.049-3.549C63.798,18.959,61.203,24.672,53.455,27.245z
	 M52.277,10.725c-4.347,0.857-6.67,1.14-9.043,6.175c-0.198,0.428-0.997,2.273-2.99,2.592l-0.859,0.129L28.12,21.203
	c1.8-2.814,4.249-6.344,4.761-7.115c2.595-3.906,5.787-7.977,20.091-10.624c0,0,7.789-1.3,13.028-2.095
	C66,1.57,61.696,8.861,52.277,10.725z"/>
</svg>
