<?xml version="1.0" encoding="utf-8"?>
<!-- Generator: Adobe Illustrator 17.1.0, SVG Export Plug-In . SVG Version: 6.00 Build 0)  -->
<!DOCTYPE svg PUBLIC "-//W3C//DTD SVG 1.1//EN" "http://www.w3.org/Graphics/SVG/1.1/DTD/svg11.dtd">
<svg version="1.1" id="logo" xmlns="http://www.w3.org/2000/svg" xmlns:xlink="http://www.w3.org/1999/xlink" x="0px" y="0px"
	 viewBox="-80 2.5 185 20" enable-background="new -80 2.5 185 20" xml:space="preserve">
<path fill="#AC162C" d="M-63.4,19.7c-0.4,0.2-0.8,0.3-1.3,0.5L-80,22.3l6.5-9.9c1.5-2.4,5.2-4.8,11-6l-5.9,8.7
	c-0.1,0.2-0.3,0.5-0.5,0.8l-1.7,2.6c-0.4,0.5-0.2,0.8,0.3,0.8c1.6-0.2,2-0.2,2.7-1c0.2-0.2,1.2-1.3,1.6-1.9l5.3-0.8
	c1.4-0.3,2.6-0.4,2.6-0.4S-59.3,17.7-63.4,19.7z M-49.7,17.4c-2.6,0.9-9.6,1.6-9.6,1.6c3.3-3.6,5.2-4,5.9-4.3c2.9-1.3,9.6-2,9.6-2
	C-43.8,12.8-45.3,16-49.7,17.4z M-50.4,8.1c-2.5,0.5-3.8,0.7-5.1,3.5c-0.1,0.3-0.6,1.3-1.7,1.4l-0.5,0.1l-6.4,0.9
	c1.1-1.6,2.4-3.6,2.7-4c1.4-2.2,3.3-4.5,11.4-6.1c0,0,4.4-0.8,7.4-1.2C-42.6,2.9-45.1,7-50.4,8.1z"/>
<g>
	<g>
		<path fill="#222222" d="M74.2,16.1h1.3v1.6h-1.3V16.1z"/>
		<path fill="#222222" d="M-39,8.2h1.2v8.6h7.5v1h-8.6L-39,8.2L-39,8.2z"/>
		<path fill="#222222" d="M-28.8,8.2h1.2v9.5h-1.2V8.2z"/>
		<path fill="#222222" d="M-25,8.2h9.1v1h-7.9v3.3h7.4v0.9h-7.5v4.3h-1.2L-25,8.2L-25,8.2z"/>
		<path fill="#222222" d="M-14.2,8.2h9.4v1H-13v3.2h8v0.9h-8v3.6h8.3v1h-9.4V8.2z"/>
		<path fill="#222222" d="M7.8,14.5v0.4c0,1.2-0.1,1.6-0.5,2c-0.3,0.4-0.8,0.6-1.6,0.8c-0.5,0-2,0.1-3.3,0.1c-3.3,0-4-0.2-4.7-0.9
			c-0.5-0.6-0.6-1.3-0.6-4c0-3,0.2-3.8,1.1-4.3c0.7-0.5,1.4-0.5,5.1-0.5c2.2,0,3,0.1,3.6,0.6c0.7,0.4,0.9,1,0.9,2.5h-1V11
			c0-1.6-0.4-1.8-4.1-1.8c-4.3,0-4.3,0-4.3,3.9c0,2.1,0.1,2.9,0.5,3.3c0.4,0.5,1.2,0.6,3.7,0.6c4,0,4.4-0.2,4.4-1.7v-0.6L7.8,14.5
			L7.8,14.5z"/>
		<path fill="#222222" d="M9.9,8.2H11v4.1h8.4V8.2h1.1v9.5h-1.1v-4.4H11v4.4H9.9V8.2z"/>
		<path fill="#222222" d="M33.6,8.2v6.5c0,1.1,0,1.3-0.1,1.6c-0.4,1.2-1.3,1.4-5.2,1.4c-3.1,0-4.1-0.2-4.7-0.8
			c-0.3-0.3-0.5-0.7-0.6-1.3c0-0.2,0-0.5,0-1.2V8.2H24v6.3c0,0.9,0,1,0.1,1.2c0.2,1,0.8,1.2,4.1,1.2c2.9,0,3.6-0.1,4-0.7
			c0.3-0.4,0.3-0.5,0.3-1.7V8.2H33.6z"/>
		<path fill="#222222" d="M59.1,14.5v0.4c0,1.2-0.1,1.6-0.5,2c-0.4,0.4-0.8,0.6-1.6,0.8c-0.5,0-2,0.1-3.3,0.1c-3.3,0-4-0.2-4.7-0.9
			c-0.6-0.7-0.7-1.3-0.7-4c0-3,0.2-3.8,1.1-4.3c0.7-0.5,1.4-0.5,5.1-0.5c2.2,0,3,0.1,3.6,0.6c0.6,0.5,0.8,1.1,0.9,2.5h-1.1V11
			c0-1.6-0.4-1.8-4.1-1.8c-4.3,0-4.3,0-4.3,3.9c0,2.1,0.1,2.9,0.5,3.3c0.4,0.5,1.2,0.6,3.7,0.6c4,0,4.4-0.2,4.4-1.7v-0.6L59.1,14.5
			L59.1,14.5z"/>
		<path fill="#222222" d="M61.1,8.2h1.1v4.1h8.4V8.2h1.1v9.5h-1.1v-4.4h-8.4v4.4h-1.1V8.2z"/>
		<path fill="#222222" d="M80.3,9.2h-4.5v-1H86v1h-4.5v8.6h-1.1L80.3,9.2L80.3,9.2z"/>
		<path fill="#222222" d="M88,8.2l4.5,8.7l4.5-8.7h1.2l-5,9.5h-1.5l-4.9-9.5H88z"/>
		<path fill="#222222" d="M36.2,8.2h7.2c1.3,0,2,0.2,2.5,0.8c0.4,0.4,0.6,1.2,0.6,2.2s-0.2,1.7-0.7,2c-0.3,0.2-0.6,0.3-1.3,0.3
			c0.6,0.1,0.9,0.1,1.2,0.3c0.5,0.3,0.8,0.8,0.8,1.5v2.5h-1.1V16c0-1-0.1-1.3-0.4-1.6c-0.3-0.3-0.7-0.4-1.5-0.4h-6.2v3.9h-1.1V8.2
			L36.2,8.2z M42.9,13c1.8,0,2.3-0.4,2.3-1.9s-0.5-1.9-2.4-1.9h-5.6V13H42.9z"/>
	</g>
</g>
</svg>
