<?xml version="1.0" encoding="utf-8"?>
<!-- Generator: Adobe Illustrator 17.1.0, SVG Export Plug-In . SVG Version: 6.00 Build 0)  -->
<!DOCTYPE svg PUBLIC "-//W3C//DTD SVG 1.1//EN" "http://www.w3.org/Graphics/SVG/1.1/DTD/svg11.dtd">
<svg version="1.1" id="logo" xmlns="http://www.w3.org/2000/svg" xmlns:xlink="http://www.w3.org/1999/xlink" x="0px" y="0px"
	 viewBox="0 0 184.9 20.2" enable-background="new 0 0 184.9 20.2" xml:space="preserve">
<path fill="#AC162C" d="M17.2,17.5c-0.4,0.2-0.8,0.3-1.3,0.5L0,20.2L6.7,9.9c1.6-2.5,5.4-5,11.4-6.2l-6.1,9
	c-0.1,0.2-0.3,0.5-0.5,0.8l-1.8,2.7C9.3,16.7,9.5,17,10,17c1.7-0.2,2.1-0.2,2.8-1c0.2-0.2,1.2-1.4,1.7-2l5.5-0.8
	c1.5-0.3,2.7-0.4,2.7-0.4S21.5,15.5,17.2,17.5z M31.4,15.2c-2.7,0.9-10,1.7-10,1.7c3.4-3.7,5.4-4.2,6.1-4.5c3-1.3,10-2.1,10-2.1
	C37.5,10.4,36,13.7,31.4,15.2z M30.7,5.5c-2.6,0.5-3.9,0.7-5.3,3.6c-0.1,0.3-0.6,1.3-1.8,1.5l-0.5,0.1l-6.6,0.9
	c1.1-1.7,2.5-3.7,2.8-4.2c1.5-2.3,3.4-4.7,11.8-6.3c0,0,4.6-0.8,7.7-1.2C38.8,0.1,36.2,4.4,30.7,5.5z"/>
<g>
	<g>
		<path fill="#231F20" d="M160,13.8h1.4v1.7H160V13.8z"/>
		<path fill="#231F20" d="M42.5,5.6h1.2v8.9h7.8v1h-8.9V5.6z"/>
		<path fill="#231F20" d="M53.1,5.6h1.2v9.9h-1.2V5.6z"/>
		<path fill="#231F20" d="M57.1,5.6h9.4v1h-8.2V10H66v0.9h-7.8v4.5h-1.2V5.6z"/>
		<path fill="#231F20" d="M68.3,5.6h9.8v1h-8.6v3.3h8.3v0.9h-8.3v3.7h8.6v1h-9.8V5.6z"/>
		<path fill="#231F20" d="M91.1,12.1v0.4c0,1.2-0.1,1.7-0.5,2.1c-0.3,0.4-0.8,0.6-1.7,0.8c-0.5,0-2.1,0.1-3.4,0.1
			c-3.4,0-4.2-0.2-4.9-0.9C80.1,14,80,13.2,80,10.5c0-3.1,0.2-3.9,1.1-4.5c0.7-0.5,1.5-0.5,5.3-0.5c2.3,0,3.1,0.1,3.7,0.6
			C90.8,6.5,91,7.1,91,8.7H90V8.5c0-1.7-0.4-1.9-4.3-1.9c-4.5,0-4.5,0-4.5,4c0,2.2,0.1,3,0.5,3.4c0.4,0.5,1.2,0.6,3.8,0.6
			c4.2,0,4.6-0.2,4.6-1.8v-0.6H91.1z"/>
		<path fill="#231F20" d="M93.3,5.6h1.1v4.3h8.7V5.6h1.1v9.9h-1.1v-4.6h-8.7v4.6h-1.1V5.6z"/>
		<path fill="#231F20" d="M117.8,5.6v6.7c0,1.1,0,1.4-0.1,1.7c-0.4,1.2-1.4,1.5-5.4,1.5c-3.2,0-4.3-0.2-4.9-0.8
			c-0.3-0.3-0.5-0.7-0.6-1.3c0-0.2,0-0.5,0-1.2V5.6h1.1v6.5c0,0.9,0,1,0.1,1.2c0.2,1,0.8,1.2,4.3,1.2c3,0,3.7-0.1,4.1-0.7
			c0.3-0.4,0.3-0.5,0.3-1.8V5.6H117.8z"/>
		<path fill="#231F20" d="M144.3,12.1v0.4c0,1.2-0.1,1.7-0.5,2.1c-0.4,0.4-0.8,0.6-1.7,0.8c-0.5,0-2.1,0.1-3.4,0.1
			c-3.4,0-4.2-0.2-4.9-0.9c-0.6-0.7-0.7-1.4-0.7-4.1c0-3.1,0.2-3.9,1.1-4.5c0.7-0.5,1.5-0.5,5.3-0.5c2.3,0,3.1,0.1,3.7,0.6
			c0.6,0.5,0.8,1.1,0.9,2.6h-1.1V8.5c0-1.7-0.4-1.9-4.3-1.9c-4.5,0-4.5,0-4.5,4c0,2.2,0.1,3,0.5,3.4c0.4,0.5,1.2,0.6,3.8,0.6
			c4.2,0,4.6-0.2,4.6-1.8v-0.6H144.3z"/>
		<path fill="#231F20" d="M146.4,5.6h1.1v4.3h8.7V5.6h1.1v9.9h-1.1v-4.6h-8.7v4.6h-1.1V5.6z"/>
		<path fill="#231F20" d="M166.3,6.6h-4.7v-1h10.6v1h-4.7v8.9h-1.1V6.6z"/>
		<path fill="#231F20" d="M174.3,5.6l4.7,9l4.7-9h1.2l-5.2,9.9h-1.6L173,5.6H174.3z"/>
		<path fill="#231F20" d="M120.3,5.6h7.7c1.4,0,2.1,0.2,2.6,0.8c0.4,0.4,0.6,1.2,0.6,2.3c0,1.1-0.2,1.8-0.7,2.1
			c-0.3,0.2-0.6,0.3-1.4,0.3c0.6,0.1,0.9,0.1,1.2,0.3c0.5,0.3,0.8,0.8,0.8,1.6v2.6h-1.1v-1.9c0-1-0.1-1.4-0.4-1.7
			c-0.3-0.3-0.7-0.4-1.6-0.4h-6.4v4h-1.1V5.6z M127.5,10.6c1.9,0,2.4-0.4,2.4-2c0-1.6-0.5-2-2.5-2h-6.1v4H127.5z"/>
	</g>
</g>
</svg>
