<?xml version="1.0" encoding="utf-8"?>
<!-- Generator: Adobe Illustrator 17.1.0, SVG Export Plug-In . SVG Version: 6.00 Build 0)  -->
<!DOCTYPE svg PUBLIC "-//W3C//DTD SVG 1.1//EN" "http://www.w3.org/Graphics/SVG/1.1/DTD/svg11.dtd">
<svg version="1.1" id="Icon_2_" xmlns="http://www.w3.org/2000/svg" xmlns:xlink="http://www.w3.org/1999/xlink" x="0px" y="0px"
	 viewBox="0 0 13 13" enable-background="new 0 0 13 13" xml:space="preserve">
<linearGradient id="SVGID_1_" gradientUnits="userSpaceOnUse" x1="6.5" y1="-2.919478e-10" x2="6.5" y2="13">
	<stop  offset="0" style="stop-color:#F6CB45"/>
	<stop  offset="1" style="stop-color:#E9A33F"/>
</linearGradient>
<rect fill="url(#SVGID_1_)" width="13" height="13"/>
<g>
	<path fill="#FFFFFF" d="M2.1,8.6c0-0.2,0.1-0.3,0.1-0.5C2.3,8,2.4,7.9,2.5,7.8C2.6,7.7,2.8,7.7,3,7.7s0.4,0,0.5,0.1
		C3.7,7.9,3.7,8,3.8,8.1C3.9,8.3,3.9,8.4,4,8.6C4,8.8,4,9,4,9.2c0,0.2,0,0.4,0,0.6c0,0.2-0.1,0.3-0.1,0.5c-0.1,0.1-0.2,0.2-0.3,0.3
		c-0.1,0.1-0.3,0.1-0.5,0.1s-0.4,0-0.5-0.1c-0.1-0.1-0.2-0.2-0.3-0.3C2.1,10.2,2.1,10,2.1,9.8c0-0.2,0-0.4,0-0.6C2,9,2,8.8,2.1,8.6z
		 M2.6,9.7c0,0.1,0,0.2,0.1,0.3c0,0.1,0.1,0.1,0.1,0.2c0.1,0,0.1,0.1,0.2,0.1c0.1,0,0.2,0,0.2-0.1c0.1,0,0.1-0.1,0.1-0.2
		c0-0.1,0-0.2,0.1-0.3c0-0.1,0-0.3,0-0.5c0-0.2,0-0.4,0-0.5c0-0.1,0-0.2-0.1-0.3c0-0.1-0.1-0.1-0.1-0.2C3.2,8.2,3.1,8.1,3,8.1
		c-0.1,0-0.2,0-0.2,0.1c-0.1,0-0.1,0.1-0.1,0.2c0,0.1,0,0.2-0.1,0.3c0,0.1,0,0.3,0,0.5C2.6,9.4,2.6,9.6,2.6,9.7z"/>
	<path fill="#FFFFFF" d="M5.5,7.8c0.1,0,0.3,0,0.4,0.1C6,7.9,6.1,8,6.1,8c0.1,0.1,0.1,0.2,0.1,0.3c0,0.1,0,0.2,0,0.3
		c0,0.1,0,0.3-0.1,0.4c0,0.1-0.1,0.2-0.2,0.3C6,9.4,5.9,9.4,5.7,9.4c-0.1,0-0.2,0.1-0.4,0.1H5.1v1.1H4.5V7.8H5.5z M5.3,9.1
		c0.1,0,0.2,0,0.3-0.1c0.1-0.1,0.1-0.2,0.1-0.3c0-0.1,0-0.3-0.1-0.3C5.6,8.2,5.5,8.2,5.3,8.2H5.1v0.9H5.3z"/>
	<path fill="#FFFFFF" d="M8.2,8.2h-1v0.7h1v0.5h-1v0.8h1.1v0.5H6.6V7.8h1.6L8.2,8.2L8.2,8.2z"/>
	<path fill="#FFFFFF" d="M10,9.7L10,9.7l0-2h0.5v2.9H9.9l-0.7-2h0v2H8.7V7.8h0.7L10,9.7z"/>
</g>
</svg>
