<?xml version="1.0" encoding="utf-8"?>
<!-- Generator: Adobe Illustrator 17.1.0, SVG Export Plug-In . SVG Version: 6.00 Build 0)  -->
<!DOCTYPE svg PUBLIC "-//W3C//DTD SVG 1.1//EN" "http://www.w3.org/Graphics/SVG/1.1/DTD/svg11.dtd">
<svg version="1.1" id="Icon" xmlns="http://www.w3.org/2000/svg" xmlns:xlink="http://www.w3.org/1999/xlink" x="0px" y="0px"
	 viewBox="0 0 13 13" enable-background="new 0 0 13 13" xml:space="preserve">
<linearGradient id="SVGID_1_" gradientUnits="userSpaceOnUse" x1="6.5" y1="13" x2="6.5" y2="-2.919478e-10">
	<stop  offset="0" style="stop-color:#8C44E7"/>
	<stop  offset="0.2126" style="stop-color:#7F39DA"/>
	<stop  offset="0.7376" style="stop-color:#5D1EB9"/>
	<stop  offset="1" style="stop-color:#390197"/>
</linearGradient>
<rect fill="url(#SVGID_1_)" width="13" height="13"/>
<linearGradient id="SVGID_2_" gradientUnits="userSpaceOnUse" x1="6.5434" y1="38.731" x2="6.5434" y2="33.0766" gradientTransform="matrix(1 0 0 -1 0 42)">
	<stop  offset="0" style="stop-color:#FFFFFF"/>
	<stop  offset="0.7156" style="stop-color:#7733D4"/>
</linearGradient>
<path fill="url(#SVGID_2_)" d="M6.5,3.8c1.3,0,2.3,1,2.3,2.3s-1,2.3-2.3,2.3s-2.3-1-2.3-2.3S5.3,3.8,6.5,3.8 M6.5,3.3
	C5,3.3,3.7,4.5,3.7,6.1S5,8.9,6.5,8.9s2.8-1.3,2.8-2.8S8.1,3.3,6.5,3.3L6.5,3.3z"/>
<path fill="#FFFFFF" d="M7.2,11.2c0.1-0.2,0.5-2,0.5-3.2c0-0.6-0.4-0.9-1.1-0.9C5.8,7.1,5.4,7.4,5.4,8c0,1.2,0.4,3,0.5,3.2
	c0,0,0,0,0,0L7.2,11.2C7.1,11.2,7.1,11.2,7.2,11.2z"/>
<circle fill="#FFFFFF" cx="6.5" cy="5.7" r="1.1"/>
<linearGradient id="SVGID_3_" gradientUnits="userSpaceOnUse" x1="6.5435" y1="40.0683" x2="6.5435" y2="30.5062" gradientTransform="matrix(1 0 0 -1 0 42)">
	<stop  offset="0" style="stop-color:#FFFFFF"/>
	<stop  offset="0.6738" style="stop-color:#7733D4"/>
</linearGradient>
<path fill="url(#SVGID_3_)" d="M2.5,6.7c0-2.3,1.8-4.1,4.1-4.1s4.1,1.8,4.1,4.1c0,1-0.3,1.8-0.9,2.5c0.3,0,0.6,0,0.8,0
	c0.5-0.7,0.7-1.6,0.7-2.6c0-2.6-2.1-4.8-4.8-4.8S1.8,4.1,1.8,6.7C1.8,7.6,2,8.4,2.4,9C2.6,9,2.9,9,3.2,9C2.7,8.3,2.5,7.6,2.5,6.7z"
	/>
</svg>
