<?xml version="1.0" encoding="utf-8"?>
<!-- Generator: Adobe Illustrator 17.1.0, SVG Export Plug-In . SVG Version: 6.00 Build 0)  -->
<!DOCTYPE svg PUBLIC "-//W3C//DTD SVG 1.1//EN" "http://www.w3.org/Graphics/SVG/1.1/DTD/svg11.dtd">
<svg version="1.1" id="Icon_1_" xmlns="http://www.w3.org/2000/svg" xmlns:xlink="http://www.w3.org/1999/xlink" x="0px" y="0px"
	 viewBox="0 0 25 25" enable-background="new 0 0 25 25" xml:space="preserve">
<g>
	
		<linearGradient id="SVGID_1_" gradientUnits="userSpaceOnUse" x1="98.8251" y1="16.5858" x2="98.8251" y2="-118.1521" gradientTransform="matrix(0.125 0 0 -0.125 0 6.25)">
		<stop  offset="0" style="stop-color:#F93C2D"/>
		<stop  offset="1" style="stop-color:#D32D20"/>
	</linearGradient>
	<path fill="url(#SVGID_1_)" d="M14.2,4.2c0.7,0,1.4,0.1,2,0.4c0.6,0.2,1.1,0.6,1.6,1s0.8,0.9,1,1.5c0.2,0.6,0.3,1.2,0.3,1.8
		c0,1-0.2,1.8-0.6,2.6c-0.4,0.7-1.1,1.3-2,1.7v0.1c0.5,0.1,0.8,0.3,1.1,0.6c0.3,0.2,0.6,0.6,0.7,0.9s0.3,0.7,0.4,1.2
		c0.1,0.4,0.1,0.9,0.2,1.3c0,0.3,0,0.6,0.1,0.9c0,0.4,0.1,0.7,0.1,1.1c0,0.4,0.1,0.7,0.2,1.1c0.1,0.3,0.2,0.6,0.4,0.9h-3.7
		c-0.2-0.5-0.3-1.2-0.4-1.9c-0.1-0.7-0.1-1.5-0.2-2.1c-0.1-0.9-0.4-1.5-0.8-1.9c-0.4-0.4-1.1-0.6-2-0.6H8.8V21H5.1V4.2H14.2z
		 M12.9,11.8c0.9,0,1.5-0.2,1.9-0.6c0.4-0.4,0.6-1,0.6-1.8c0-0.8-0.2-1.4-0.6-1.8C14.3,7.2,13.7,7,12.9,7H8.8v4.7L12.9,11.8
		L12.9,11.8z"/>
</g>
</svg>
