<?xml version="1.0" encoding="utf-8"?>
<!-- Generator: Adobe Illustrator 17.1.0, SVG Export Plug-In . SVG Version: 6.00 Build 0)  -->
<!DOCTYPE svg PUBLIC "-//W3C//DTD SVG 1.1//EN" "http://www.w3.org/Graphics/SVG/1.1/DTD/svg11.dtd">
<svg version="1.1" id="Icon_1_" xmlns="http://www.w3.org/2000/svg" xmlns:xlink="http://www.w3.org/1999/xlink" x="0px" y="0px"
	 viewBox="0 0 13 13" enable-background="new 0 0 13 13" xml:space="preserve">
<g id="_x31_c1FWp_1_">
	<g>
		<path fill="#333333" d="M12.3,7.1c-0.2,0.1-0.3,0.2-0.5,0.2c-1.1,0-2.2,0-3.2,0c-0.4,0-0.5-0.1-0.5-0.5c0-0.3,0-0.7,0-1
			c0-0.3,0.1-0.4,0.4-0.4c1.1,0,2.3,0,3.4,0c0.1,0,0.3,0.1,0.4,0.2C12.3,6.1,12.3,6.6,12.3,7.1z"/>
		<path fill="#333333" d="M0.8,5.6c0.2-0.1,0.3-0.2,0.5-0.2c1.1,0,2.2,0,3.3,0C4.9,5.3,5,5.5,5,5.8c0,0.4,0,0.7,0,1.1
			c0,0.3-0.1,0.4-0.4,0.4c-1.1,0-2.3,0-3.4,0c-0.1,0-0.3-0.1-0.4-0.2C0.8,6.6,0.8,6.1,0.8,5.6z"/>
		<path fill="#333333" d="M0.8,9.1c0.1-0.5,0.2-1,0.7-1.3C2,7.3,2.9,7.3,3.5,7.7c0.7,0.4,1,1.2,0.7,2c-0.2,0.7-0.8,1.2-1.6,1.3
			c-0.8,0-1.5-0.4-1.7-1.1C0.9,9.6,0.8,9.4,0.8,9.3C0.8,9.2,0.8,9.2,0.8,9.1z M2.5,8.2c-0.5,0-0.9,0.5-0.9,1c0,0.5,0.4,1,1,1
			c0.5,0,1-0.4,1-1C3.5,8.6,3.1,8.2,2.5,8.2z"/>
		<path fill="#333333" d="M10.1,3.7c0,0.4,0,0.7,0,1c0,0.3-0.2,0.5-0.4,0.5C9.4,5.2,9.2,5,9.2,4.7c0-0.9,0-1.8,0-2.7
			c0-0.3,0.1-0.4,0.4-0.5c0.3,0,0.4,0.2,0.4,0.4c0,0.3,0,0.6,0,0.9c0,0,0.1,0,0.1,0.1c0.3-0.3,0.6-0.7,1-1c0.1-0.1,0.1-0.1,0.2-0.2
			c0.2-0.2,0.4-0.2,0.6,0c0.2,0.2,0.2,0.4,0,0.6c-0.3,0.3-0.7,0.7-1,0.9c0.3,0.3,0.6,0.7,0.9,1c0.1,0.1,0.2,0.2,0.3,0.3
			c0.2,0.2,0.2,0.4,0,0.6c-0.2,0.2-0.4,0.2-0.6,0c-0.4-0.4-0.8-0.8-1.1-1.1C10.3,3.9,10.2,3.8,10.1,3.7z"/>
		<path fill="#333333" d="M6.6,4.9C6.5,5,6.4,5.2,6.3,5.2C6.2,5.2,5.9,5.1,5.9,5C5.7,4.5,5.4,4.5,5,4.5c-0.1,0-0.3,0-0.4,0
			c-0.3,0-0.6,0-0.7,0.4C3.9,5.2,3.7,5.3,3.4,5.2C3.2,5.1,3.1,4.9,3.2,4.6c0.4-1,0.9-1.9,1.3-2.9c0.1-0.3,0.6-0.3,0.7,0
			c0.5,1,0.9,2,1.3,3C6.6,4.7,6.6,4.7,6.6,4.9z M5.4,3.8C5.2,3.5,5.1,3.1,4.9,2.7C4.7,3.2,4.6,3.5,4.5,3.8c0.1,0,0.2,0,0.3,0
			C4.9,3.8,5.1,3.8,5.4,3.8z"/>
		<path fill="#333333" d="M11.4,9.7c0.2,0.1,0.3,0.3,0.5,0.4c0.3,0.2,0.3,0.5,0.2,0.7c-0.2,0.2-0.4,0.2-0.7-0.1
			c-0.3-0.3-0.6-0.5-1-0.8c0,0.3,0,0.4,0,0.6c0,0.2-0.1,0.4-0.4,0.4c-0.3,0-0.4-0.2-0.4-0.4c0-0.8,0-1.7,0-2.5
			c0-0.3,0.1-0.4,0.4-0.4c0.3,0,0.6,0,0.9,0c0.5,0,1,0.4,1.1,0.9c0.1,0.5,0,0.9-0.6,1.2C11.5,9.6,11.5,9.6,11.4,9.7z M10.4,9.1
			c0.2,0,0.4,0,0.6,0c0.3-0.1,0.4-0.2,0.4-0.5c0-0.3-0.3-0.5-0.7-0.4c-0.3,0-0.2,0.3-0.2,0.4C10.4,8.8,10.4,8.9,10.4,9.1z"/>
		<path fill="#333333" d="M8.1,8.2C8,8.8,8,8.8,8.5,8.8c0.1,0,0.3,0,0.4,0C9,8.8,9.2,9,9.2,9.1c0,0.1-0.2,0.3-0.3,0.3
			c-0.2,0.1-0.4,0-0.6,0C8,9.4,8,9.6,8,9.7c0,0.2-0.1,0.4,0.2,0.4c0.3,0,0.6,0,0.9,0c0.2,0,0.4,0.1,0.4,0.4c0,0.2-0.2,0.3-0.4,0.3
			c-0.5,0-1,0-1.5,0c-0.3,0-0.4-0.2-0.4-0.4c0-0.9,0-1.7,0-2.6c0-0.3,0.1-0.4,0.4-0.4c0.5,0,0.9,0,1.4,0c0.3,0,0.4,0.1,0.4,0.4
			c0,0.3-0.2,0.3-0.5,0.3C8.7,8.2,8.4,8.2,8.1,8.2z"/>
		<path fill="#333333" d="M5.7,9.6C5.9,9,6.1,8.5,6.3,8c0-0.1,0.1-0.2,0.1-0.3c0.1-0.2,0.3-0.3,0.5-0.2C7.1,7.6,7.2,7.8,7.1,8
			C7,8.3,6.8,8.7,6.7,9C6.4,9.5,6.2,10,6,10.5c-0.1,0.1-0.3,0.3-0.4,0.3c-0.1,0-0.3-0.2-0.4-0.3C4.8,9.7,4.5,8.9,4.1,8.1
			C4,7.8,4,7.6,4.3,7.5c0.3-0.1,0.5,0,0.6,0.3C5.1,8.4,5.3,9,5.7,9.6C5.6,9.6,5.6,9.6,5.7,9.6z"/>
		<path fill="#333333" d="M2,2.3c-0.3,0-0.5,0-0.7,0C1,2.3,0.8,2.2,0.8,2c0-0.3,0.2-0.4,0.4-0.4c0.8,0,1.5,0,2.3,0
			c0.2,0,0.4,0.1,0.4,0.4c0,0.3-0.2,0.4-0.4,0.4c-0.2,0-0.4,0-0.7,0c0,0.4,0,0.7,0,1c0,0.5,0,0.9,0,1.4c0,0.3-0.2,0.4-0.4,0.4
			C2.1,5.2,2,5,2,4.8c0-0.7,0-1.3,0-2C2,2.6,2,2.5,2,2.3z"/>
		<path fill="#333333" d="M6.8,3.4c0-0.4,0-0.9,0-1.3c0-0.3,0.1-0.5,0.4-0.5c0.3,0,0.4,0.2,0.4,0.5c0,0.7,0,1.3,0,2
			c0,0.3,0.1,0.4,0.4,0.4c0.2,0,0.5,0,0.7,0c0.3,0,0.4,0.1,0.4,0.4c0,0.3-0.2,0.4-0.4,0.4c-0.5,0-1,0-1.4,0c-0.3,0-0.5-0.2-0.5-0.5
			C6.8,4.3,6.8,3.8,6.8,3.4z"/>
		<path fill="#333333" d="M7.3,6c0,0.3,0,0.6,0,0.9c0,0.2-0.1,0.4-0.3,0.4c-0.2,0-0.3-0.2-0.3-0.4c0-0.3,0-0.6,0-0.8
			C6.5,5.9,6.1,6,6.2,5.6c0.1-0.3,0.3-0.2,0.6-0.2c0.2,0,0.4,0,0.6,0c0.2,0,0.4,0.1,0.4,0.2c0.1,0.2-0.1,0.3-0.3,0.3
			C7.4,5.9,7.4,6,7.3,6z"/>
		<path fill="#333333" d="M6,6.3c0,0.2,0,0.4,0,0.6C6,7,5.8,7.2,5.7,7.2C5.6,7.2,5.4,7,5.4,6.9c0-0.4,0-0.8,0-1.3
			c0-0.1,0.2-0.3,0.3-0.3C5.8,5.4,6,5.6,6,5.7C6.1,5.9,6,6.1,6,6.3z"/>
	</g>
</g>
</svg>
