<?xml version="1.0" encoding="utf-8"?>
<!-- Generator: Adobe Illustrator 17.1.0, SVG Export Plug-In . SVG Version: 6.00 Build 0)  -->
<!DOCTYPE svg PUBLIC "-//W3C//DTD SVG 1.1//EN" "http://www.w3.org/Graphics/SVG/1.1/DTD/svg11.dtd">
<svg version="1.1" id="Icon" xmlns="http://www.w3.org/2000/svg" xmlns:xlink="http://www.w3.org/1999/xlink" x="0px" y="0px"
	 viewBox="0 0 60 60" enable-background="new 0 0 60 60" xml:space="preserve">
<g>
	<g>
		<defs>
			<path id="SVGID_1_" d="M59.9,48.7c0,6.4-5.1,11.6-11.4,11.6h-37C5.1,60.3,0,55.1,0,48.7V11.2C0,4.7,5.1-0.5,11.4-0.5h37
				c6.3,0,11.4,5.2,11.4,11.6V48.7z"/>
		</defs>
		<clipPath id="SVGID_2_">
			<use xlink:href="#SVGID_1_"  overflow="visible"/>
		</clipPath>
		<g clip-path="url(#SVGID_2_)">
			<g>
				<path fill="#FEC919" d="M57,60.3c-2.5,0-5,0-7.5,0c-0.2-0.1-0.4-0.3-0.5-0.5c-1.6-2.5-3.2-5-4.9-7.5c-1-1.5-1.9-3-2.9-4.5
					c-0.5-0.7-0.9-1.5-1.4-2.2c-0.1-0.2-0.3-0.4,0-0.6c1.3-0.3,2.7-0.3,4.1-0.7c0.5-0.1,1-0.2,1.4-0.5c0.6-0.2,0.9-0.7,0.9-1.4
					c0.1-0.4,0-0.9,0.3-1.3c0.4-0.2,0.6,0.2,0.9,0.3c1.4,0.9,2.8,1.8,4.1,2.7c2.5,1.7,5.1,3.4,7.6,5.1c0.3,0.2,0.6,0.4,0.6,0.8
					c0,2.3,0,4.6,0,6.9c0,1.3-0.5,2.2-1.5,2.9C57.9,60.2,57.4,60.1,57,60.3z"/>
				<path fill="#FEC619" d="M10.7,60.3c-2.6,0-5.3,0-7.9,0c-0.4-0.2-0.9-0.1-1.3-0.4c-1-0.7-1.5-1.7-1.5-2.9c0-2.3,0-4.6,0-6.9
					c0-0.4,0.4-0.5,0.6-0.7c2.6-1.7,5.2-3.5,7.8-5.2c1.1-0.7,2.2-1.5,3.3-2.2c0.2-0.1,0.3-0.3,0.6-0.3c1,0.1,2,0.3,3.1,0.2
					c0.4,0,0.8,0,1.2-0.1c0.3-0.1,0.6,0,0.7,0.3c0.1,0.3,0.1,0.7,0.2,1c0.1,0.4,0.3,0.5,0.6,0.5c0.8,0,1.5,0.1,2.3-0.1
					c0.2,0,0.4,0,0.6,0.1c0.2,0.1,0.2,0.3,0.1,0.4c-0.5,0.8-0.9,1.8-1.7,2.4c-0.2,0-0.3,0-0.4-0.1c-0.6-0.4-1.2-0.3-1.8,0.1
					c-1.7,1.1-3.5,2.1-4.9,3.6c-0.4,0.4-0.6,0.9-0.6,1.4c-0.2,2.3-0.4,4.5-0.6,6.8c0,0.3,0,0.6,0,0.9C11,59.6,11,60,10.7,60.3z"/>
				<path fill="#4F65A8" d="M10.7,60.3c0.2-3,0.5-6.1,0.7-9.1c0-0.4,0.2-0.8,0.5-1.1c1.7-1.8,3.8-3,5.9-4.3c0.2-0.1,0.3-0.1,0.5,0
					c0.4,0.2,0.7,0.4,1.1,0.5c0.1,0,0.3,0,0.4,0.1c2,1.1,3.3,2.9,4.6,4.7c2.2,2.8,4.2,5.7,6.4,8.5c0.2,0.2,0.4,0.4,0.2,0.7
					c-0.9,0-1.9,0-2.8,0c-0.3-0.1-0.4-0.2-0.5-0.5c-0.2-0.6-0.6-1-1-1.5c-0.9-1.3-2.1-2.3-3.2-3.5c-0.9-1.1-2-2-3-2.9
					c-0.6-0.6-1.2-1.1-1.5-1.4c0.5,0.4,1.2,1,1.9,1.7c0.8,0.8,1.6,1.5,2.3,2.3c0.7,0.8,1.6,1.6,2.2,2.6c0,0.1,0.1,0.1,0.2,0.2
					c1,0.6,1.3,1.8,2,2.6c0.1,0.1,0.2,0.3,0.1,0.5c-1.2,0-2.5,0-3.7,0c-0.2-0.1-0.4-0.3-0.6-0.5c-1-1.7-2-3.3-3.1-4.9
					c-1.5-2.1-3.3-4.1-5.5-5.4c1.3,0.7,3.4,2.7,4.3,3.9c1.3,1.7,2.5,3.5,3.6,5.3c0.3,0.5,0.7,1,0.8,1.6c-1.8,0-3.5,0-5.3,0
					c-0.1-0.1-0.3-0.2-0.4-0.4c-0.9-1.7-1.9-3.2-2.9-4.8c-0.5-0.8-1.1-1.6-1.8-2.4c-0.1-0.1-0.1-0.1-0.2-0.1
					c-0.2,0.2-0.2,0.5-0.2,0.7c-0.3,2.1-0.8,4.1-1.1,6.2c0,0.3,0,0.5-0.2,0.7C11.2,60.3,10.9,60.3,10.7,60.3z"/>
				<path fill="#E0DCD9" d="M31,60.3c-0.6-1-1.4-1.9-2.2-2.9c-1.9-2.5-3.8-5-5.7-7.5c-1-1.3-2.1-2.5-3.5-3.4
					c0.1-0.2,0.2-0.2,0.4-0.2c0.4,0.1,0.7,0.4,1,0.7c2.4,2.1,4.8,4.2,7.1,6.3c0.6,0.6,1.4,1,1.9,1.8c0.2,0.1,0.4,0.2,0.6,0.3
					c0.3,0.4,0.8,0.5,1,1c0,0.3-0.3,0.4-0.5,0.6c-0.1,0-0.1,0.1-0.2,0.1c0.1-0.1,0.1-0.1,0.2-0.1c0.2-0.1,0.3-0.3,0.5-0.4
					c0.5,0,0.7,0.5,1.1,0.7c0.3,0.2,0.5,0.4,0.8,0.7c0-0.4,0-0.6-0.1-0.9c0-0.3-0.1-0.7,0.1-1c0.2-0.1,0.4,0.1,0.6,0.1
					c0.3,0.1,0.7,0.1,0.8,0.2c-0.1-0.1-0.4-0.1-0.7-0.2c-0.3-0.1-0.7-0.1-0.9-0.3c-0.1-0.2-0.1-0.5-0.1-0.8c0.1-0.4,0.5-0.6,0.8-0.8
					c0.1,0,0.2-0.1,0.2-0.2c0,0,0.1-0.1,0.1-0.1c0,0-0.1,0.1-0.1,0.1c0,0-0.1,0.1-0.1,0.1c-0.3,0.1-0.4,0.6-0.8,0.4
					C33.1,54,33.1,53,33,52.1c0-0.2,0-0.4,0-0.6c-0.1-1.7-0.4-3.5-0.5-5.2c0-0.4-0.1-0.8,0-1.2c0.1-0.1,0.2-0.1,0.3-0.2
					c0.2,0,0.5,0,0.7,0c0.4,0.2,0.9,0.1,1.3,0.1c0.4,0,0.8,0,1.2,0c0.3,0.1,0.5,0.3,0.6,0.6c0.5,0.9,1,1.7,1.5,2.6
					c0.8,1.6,1.6,3.2,2.2,4.9c0.8,2,1.5,4.1,2.1,6.3c0.1,0.3,0.2,0.6,0,0.8C38.5,60.3,34.8,60.3,31,60.3z"/>
				<path fill="#FED74E" d="M42.3,60.3c-0.1-0.8-0.4-1.6-0.6-2.4c-0.5-1.5-0.9-3-1.6-4.4c0-0.1,0-0.2-0.1-0.3c0-0.3,0.2-0.2,0.3-0.1
					c0.4,0.3,0.7,0.1,1.1-0.1c0.5-0.3,1-0.6,1.5-0.9c0.5-0.3,0.9-0.4,1.4,0c1.6,2.5,3.3,5,4.9,7.6c0.1,0.2,0.2,0.3,0.3,0.5
					C47.1,60.3,44.7,60.3,42.3,60.3z"/>
				<path fill="#D6D2CF" d="M13,52.3c0.8,0.9,1.5,1.7,2.1,2.7c0.1,1.4,0.3,2.9,0.4,4.3c0,0.4,0.3,0.6,0.7,0.6c0.4,0,0.8,0,1.2,0
					c0.2,0,0.5,0,0.6,0.3c-1,0-1.9,0-2.9,0c-0.3-0.1-0.5-0.1-0.8-0.1c-0.5,0-0.7-0.3-0.8-0.7c-0.2-1.1-0.2-2.3-0.4-3.4
					c-0.1-0.6,0-1.3-0.3-1.8c-0.4-0.7-0.2-1.2,0-1.9C12.9,52.4,13,52.3,13,52.3z"/>
				<path fill="#CECAC7" d="M13,52.3c-0.2,0.3-0.2,0.7-0.3,1.1c0,0.1,0,0.2,0,0.2c0.8,0.6,0.5,1.6,0.6,2.4c0.2,1.2,0.3,2.4,0.4,3.6
					c0,0.4,0.2,0.6,0.7,0.6c0.2,0,0.5-0.1,0.7,0.1c-1.2,0-2.5,0-3.7,0c0.1-1.6,0.5-3.1,0.7-4.7c0.2-1,0.4-2,0.6-3.1
					C12.8,52.4,12.8,52.2,13,52.3z"/>
				<path fill="#DFDBD8" d="M18.1,60.3c-0.6-0.3-1.3-0.1-1.9-0.1c-0.5,0-0.8-0.1-0.8-0.7c-0.1-1.3-0.3-2.6-0.4-3.9
					c0-0.2,0-0.4,0.2-0.6c1.2,1.6,2.2,3.4,3.2,5.2C18.2,60.3,18.1,60.3,18.1,60.3z"/>
				<path fill="#494F81" d="M23.6,60.3c-0.5-0.7-0.9-1.4-1.4-2.2c-0.5-0.9-1.2-1.7-1.7-2.6c-0.5-0.8-1.1-1.5-1.6-2.3
					c-1-1.4-2.3-2.4-3.7-3.5c-0.2-0.1-0.4-0.3-0.5-0.4c0.7,0.2,1.3,0.7,1.8,1.2c1.4,1.1,2.5,2.4,3.6,3.8c1.3,1.7,2.4,3.6,3.5,5.5
					c0.1,0.2,0.2,0.4,0.4,0.5C23.9,60.3,23.7,60.3,23.6,60.3z"/>
				<path fill="#484F80" d="M27.8,60.3c-0.2-0.6-0.8-1-1.1-1.6c-0.2-0.3-0.4-0.5-0.5-0.9c0-0.1-0.1-0.2-0.1-0.2
					c-1.1-0.8-1.8-2-2.7-2.9c-1-0.9-1.9-1.9-2.9-2.9c-0.7-0.7-1.5-1.3-2.1-2.2c0.7,0.6,1.5,1.2,2.2,1.9c1,0.9,1.9,1.7,2.8,2.7
					c0.8,0.9,1.7,1.7,2.5,2.7c0.6,0.8,1.3,1.4,1.9,2.3c0.2,0.3,0.2,0.8,0.6,1C28.1,60.3,27.9,60.3,27.8,60.3z"/>
				<path fill="#533327" d="M46.6,41.2c-0.1,0.6-0.1,1.2-0.3,1.7c-0.2,0.5-0.3,1-0.9,1.1c-0.6,0-1.1,0.4-1.7,0.4
					c-0.3,0-0.6,0.1-0.8-0.2c0-0.6,0-1.1,0-1.5c0.1,0.5-0.1,1.1,0.1,1.7c-0.4,0.4-1,0.3-1.5,0.4c-1.6,0.2-3.3,0.4-4.9,0.3
					c-0.3,0-0.6,0-0.9-0.2c-0.3-0.4-0.1-0.9-0.2-1.3c0.1,0.4-0.1,0.8,0.1,1.3c0,0.1-0.1,0.1-0.2,0.1c-1.2,0.1-2.3,0-3.5-0.3
					c-0.6-0.2-0.9-0.6-0.9-1.3c0-0.6,0.1-1.1,0.1-1.6c0.2-1.1,0.2-2.2-0.3-3.3c0-0.1-0.1-0.1-0.1-0.2c0-0.2-0.1-0.4,0.1-0.5
					c0.2-0.1,0.4,0,0.6,0.2c0.2,0.2,0.4,0.4,0.7,0.6c0.4,0.2,0.8,0.4,1.3,0.1c0.6-0.4,1.2-0.7,1.7-1.2c-0.4-0.2-1-0.2-1.3-0.5
					c-0.3-0.3-0.2-0.6-0.2-0.9c0,0.1,0,0.2-0.1,0.3c-0.2,0.3-0.5,0.3-0.8,0.2c-0.5-0.1-0.9-0.3-1.3-0.6c-0.5-0.4-0.7-1.2-0.4-1.8
					c0.3-0.7,1.3-1.3,2-1.1c0.2,0.5,0,1,0.1,1.5c0-0.5,0.1-1.1-0.1-1.7c0-0.1,0.1-0.2,0.2-0.3c0.1,0,0.1,0,0.2,0
					c0.6,0.1,1.3,0,1.9,0c0.6,0,0.7,0.1,0.7,0.7c0,0.3,0,0.6,0,0.9c0-0.3,0-0.6,0-0.9c-0.1-0.5,0.2-0.8,0.7-0.8
					c0.3,0,0.5-0.2,0.7-0.1c1.1,0.3,2,1.1,3.1,1.6c0.4,0.2,0.7,0.4,1.1,0.6c0.1-0.9,0.3-1.8,0.6-2.6c0.3-0.8,0.7-1.6,1.1-2.3
					c0.1-0.2,0.2-0.5,0.5-0.5c0.3,0.2,0.2,0.5,0.2,0.7c0,0.2,0,0.4,0,0.6c0-0.5,0-1.1-0.1-1.7c0-0.2,0.1-0.3,0.2-0.5
					c0.1-0.3,0-0.6,0.1-0.9c0.1-0.2,0.1-0.4,0.3-0.5c0.1,0,0.2,0.2,0.2,0.3c0,2,0.6,3.9,0.9,5.8c0,0.2,0.1,0.4,0.1,0.6
					c0.4,1.8,0.6,3.6,0.7,5.4c0,0.6,0.2,1.1,0.1,1.7C46.8,40.7,46.8,41,46.6,41.2z"/>
				<path fill="#4B2D23" d="M35.6,44.9c1.2,0.2,2.4,0.1,3.7,0.1c0.9,0,1.9-0.2,2.8-0.3c0.3,0,0.6-0.1,0.9-0.2l0,0
					c0.7,0,1.4-0.2,2.1-0.4c0.1-0.1,0.3-0.1,0.4,0c-1.8,0.8-3.8,0.9-5.7,1.1c-0.1,0.1-0.3,0.2-0.5,0.2c-0.4-0.1-0.9,0-1.3,0.1
					c-0.6,0.1-1.3,0.1-1.9-0.1c-0.4,0-0.9,0-1.3-0.1c-0.4-0.1-0.9,0-1.3-0.1c-0.2,0-0.4,0-0.6,0c-0.3,0-0.7,0.1-1,0.1
					c-3-0.3-5.8-1-8.2-3c-1.6-1.6-2.7-3.6-3.5-5.8c-0.1-0.2-0.1-0.3-0.1-0.5c0-0.1,0.1-0.1,0.1-0.2c0.1-0.1,0.2,0,0.3,0.1
					c0.4,0.6,0.7,1.2,0.9,1.8c0.1,0.2,0.2,0.5,0.4,0.7c0,0.1,0,0,0,0c0,0,0,0,0-0.1c0-0.2-0.1-0.5,0.2-0.6c0.3,0.2,0.2,0.5,0.2,0.8
					c0,0.3,0,0.6,0.3,0.7c0.1-0.2,0.1-0.3,0.1-0.5c0-1,0-2,0.1-3.1c0.1-1.4,0-2.8-0.1-4.1c0-0.3-0.1-0.5,0.1-0.7
					c0.3-0.3,0.5,0,0.7,0.2c1.2,1,2.4,2.1,3.6,3.1c1.5,1.3,0.9,1.3,2.6,0.2c0.1,0,0,0,0,0c0.9-0.6,1.8-1.1,2.7-1.6
					c0.4-0.2,0.7-0.5,1.2-0.1c0,0.1-0.1,0.1-0.1,0.2c0,0.1,0,0.2-0.1,0.2c-1.1,0.1-1.9,0.9-1.9,1.9c0,0.7,0.6,1,1.1,1.2
					c0.4,0.2,0.8,0.5,1.2,0.1c0.1,0.2,0.2,0.3,0.1,0.5c-0.2,0.1-0.4,0.1-0.6,0.1c-0.8-0.2-1.6-0.4-2.3-0.7c-0.4-0.3-0.4-0.3-0.4-1.1
					c0,0.5,0,1,0.3,1.3c0.3,0.3,0.4,0.7,0.7,1.1c0.4,0.6,0.9,1.1,1.7,1c0.2,0,0.3,0,0.4,0.2c0.2,0.3-0.1,0.2-0.2,0.3
					c-0.6,0.1-1.2-0.1-1.7-0.6c-0.2-0.2-0.4-0.5-0.7-0.5c-0.1,0.2,0,0.4,0,0.5c0.7,1.3,0.5,2.6,0.3,3.9c-0.1,0.5,0,1-0.1,1.5
					c0,0.4,0.2,0.6,0.5,0.7c0.4,0.1,0.9,0.3,1.3,0.4c0.7,0.1,1.3,0.1,2,0.2C35.3,45,35.5,45,35.6,44.9L35.6,44.9z"/>
				<path fill="#FED74E" d="M59.8,36.3c0,4.6,0,9.1,0,13.7c-2.6-1.7-5.2-3.5-7.8-5.2c-0.2-0.1-0.3-0.3-0.5-0.4
					c-0.4-0.5-0.3-0.9,0-1.4c1.2-2.1,2.1-4.3,2.7-6.7c0.1-0.5,0.5-0.8,0.9-1c0.2-0.1,0.5,0,0.7,0c1.1,0.2,2.2,0.5,3.3,0.7
					C59.4,36,59.7,36,59.8,36.3z"/>
				<path fill="#FEDE6B" d="M55.1,35.4c-0.7,0.3-0.7,1.1-0.9,1.7c-0.6,2.2-1.5,4.2-2.7,6.2c-0.3,0.4,0,0.8-0.1,1.2
					c-1.4-0.9-2.7-1.8-4.1-2.7c-0.3-0.4-0.2-0.9,0-1.3c0.9-1.5,1.6-3.2,2-4.9c0.1-0.6,0.4-1,0.9-1.2c1,0,2,0.4,3,0.5
					c0.4,0.1,0.8,0.2,1.2,0.3C54.8,35.1,55,35.2,55.1,35.4z"/>
				<path fill="#FEDE68" d="M44.3,52.2c-1-0.4-1.7,0.5-2.5,0.8c-0.1,0.1-0.3,0.2-0.4,0.2c-0.5,0.3-0.9,0.3-1.4-0.1
					c-0.7-1.6-1.5-3.2-2.2-4.9c-0.1-0.2,0.1-0.2,0.2-0.2c0.6,0.2,1-0.1,1.5-0.4c0.2-0.1,0.4-0.2,0.7-0.4c0.5-0.3,0.8,0.1,1.1,0.4
					C42.4,49.2,43.3,50.7,44.3,52.2z"/>
				<path fill="#FEE27A" d="M50.3,34.3c-0.7,0.5-0.7,1.3-0.9,2.1c-0.3,1.2-0.8,2.3-1.4,3.4c-0.3,0.6-0.8,1.1-0.6,1.9
					c-0.3-0.2-0.5-0.3-0.8-0.5c0-2.6-0.4-5.2-0.8-7.8c0.2-0.2,0.4-0.1,0.6-0.1c1.2,0.2,2.3,0.4,3.5,0.8C50,34.1,50.2,34.1,50.3,34.3
					z"/>
				<path fill="#FDE480" d="M41.3,47.7c-0.6-0.4-1.1-0.2-1.7,0.2c-0.5,0.4-1.1,0.7-1.8,0.4c-0.6-1-1.1-2.1-1.8-3c0.7,0,1.3,0,2-0.1
					c0.4-0.1,0.9,0,1.3-0.1c0.1,0,0.3,0,0.4,0C40.2,46,40.8,46.9,41.3,47.7z"/>
				<path fill="#FED74E" d="M0,50c0-4.6,0-9.1,0-13.7C0.1,36.1,0.3,36,0.5,36c1.3-0.3,2.7-0.6,4-0.8c0.1,0,0.3,0,0.4,0
					c0.5,0.3,0.7,0.8,0.9,1.4C6.4,38.8,7.2,41,8.4,43c0.3,0.5,0.4,1-0.1,1.4c-1.9,1.3-3.8,2.6-5.7,3.8C1.8,48.8,0.9,49.5,0,50z"/>
				<path fill="#351F15" d="M19.9,35.9c0.3,1.2,0.9,2.3,1.5,3.4c0.5,1,1.3,1.9,2,2.8c0,0.8-0.3,1.4-0.9,1.9c-0.5,0.1-1,0.2-1.5-0.1
					c-1.1,0-2.2,0.1-3.2,0.1c-0.4,0-0.6-0.1-0.6-0.5c0-0.4-0.1-0.8-0.1-1.2c0-0.4-0.3-0.4-0.5-0.3c-1.4,0.3-2.8,0.1-4.2-0.2
					c-0.2-0.4,0.2-0.6,0.3-0.9c0.1-0.1,0.2-0.3,0.3-0.4c0.7-0.8,1-1.8,1.3-2.8c0.1-0.3,0.1-0.8,0.4-1c0.5,0.1,0.3,0.5,0.3,0.8
					c-0.3,1.2-0.7,2.3-1.3,3.3c-0.4,0.7-0.4,0.7,0.4,0.8c0.4,0.1,0.9,0,1.3,0c0.4,0,0.7-0.2,0.7-0.6c0.2-0.8,0.4-1.7,0.2-2.5
					c-0.1-0.5,0.1-0.9,0.3-1.3c0.5-0.8,0.6-1.6,0.3-2.5c-0.1-0.2-0.2-0.3,0.1-0.5c0.4,0,0.6,0.2,0.7,0.5c0.1,1.5-0.1,2.9,0,4.4
					c0,0.7,0,1.4-0.1,2.1c-0.1,0.4,0,0.8-0.1,1.2c0-0.2,0-0.5,0-0.8c0.1-0.7,0.1-1.5,0.1-2.2c0-1.5,0-3.1,0.1-4.6
					c0.4-0.4,0.9-0.1,1.3,0c0.1,0.1,0.2,0.3,0.2,0.4c0.6,1.8,1.2,3.6,1.9,5.3c0.1,0.2,0.2,0.5,0.3,0.7c0-0.1-0.1-0.2-0.1-0.3
					c-0.1-0.2-0.1-0.3-0.2-0.5c-0.7-1.8-1.4-3.7-2-5.5c0-0.1,0-0.1,0.1-0.2c0.4-0.1,0.5,0.2,0.6,0.5C19.9,35.4,19.9,35.6,19.9,35.9z
					"/>
				<path fill="#FEDF6C" d="M12.7,41c0,0.4-0.4,0.4-0.5,0.7c0,0.1-0.2,0.2-0.2,0.3c-1.2,0.9-2.4,1.7-3.7,2.5c0.5-0.8-0.1-1.4-0.5-2
					c-1-1.8-1.8-3.8-2.3-5.8c-0.1-0.4-0.1-0.8-0.6-1c-0.1,0,0-0.2,0-0.3C5.1,35.1,5.3,35,5.5,35c1.2-0.3,2.5-0.5,3.7-0.8
					c0.1,0,0.3,0,0.4,0c0.6,0.2,0.9,0.7,1.1,1.3c0.4,1.5,1,3,1.7,4.3C12.6,40.2,12.8,40.5,12.7,41z"/>
				<path fill="#FEE482" d="M21,43.9c0.6,0,1.1,0,1.7-0.1c0.1,0.2,0,0.4-0.1,0.6c-0.2,0.4-0.4,0.7-0.5,1.1c-0.4,0.8-0.9,1.1-1.8,1
					c-0.2,0-0.3,0-0.5,0.1c-0.1-0.1-0.2-0.1-0.3-0.2C19.9,45.5,20.4,44.7,21,43.9z"/>
				<path fill="#3A241D" d="M12,41.9c-0.1-0.2,0.1-0.2,0.2-0.3c0.7,0.4,1.5,0.3,2.3,0.4c0.6,0.1,1.2,0.1,1.8-0.1
					c0.3-0.1,0.7-0.2,0.7,0.4c-0.1-0.1-0.1-0.3-0.4-0.3C15.1,42.3,13.6,42.1,12,41.9z"/>
				<path fill="#B2806B" d="M20.2,46.5c1.2-0.1,1.7-1,2.1-2c0.1-0.3,0.2-0.5,0.4-0.7c0.3-0.6,0.6-1.2,0.8-1.7c0.3,0,0.5,0.3,0.8,0.5
					c1.8,1.2,3.7,1.8,5.8,2.2c0.5,0.1,1.1,0.2,1.6,0.3c0.3,0.5,0,0.9,0,1.4c0,0.2-0.1,0.5-0.1,0.9c0-0.7,0.1-1.2,0.2-1.8
					c0.1-0.6,0.4-0.5,0.8-0.4c0.2,2.1,0.4,4.3,0.7,6.4c0,0.8-0.5,1.2-1.2,1.3c-0.7,0.1-1.3,0.3-2,0.6c-0.6,0.2-1.2,0.4-1.9,0.1
					C25.5,51.2,22.8,48.9,20.2,46.5z"/>
				<path fill="#A7745C" d="M28.1,53.5c0.8,0,1.5-0.2,2.3-0.5c0.6-0.2,1.3-0.4,1.9-0.5c0.6-0.1,0.7-0.6,0.8-1
					c0.1,1.1,0.2,2.2,0.5,3.3c-0.4,0.9-0.9,1.1-1.8,1c-0.5-0.1-1-0.2-1.5-0.4c-0.2-0.1-0.3-0.1-0.5,0c-0.1,0-0.1-0.1-0.2-0.1
					c0.4-0.4-0.1-0.4-0.2-0.6C29,54.3,28.6,53.9,28.1,53.5z"/>
				<path fill="#9F6E55" d="M33.7,56.3c-0.1,0.8,0.2,1.5,0.1,2.3c-0.8-0.6-1.4-1.3-2.1-1.8C32.1,55.9,33,55.6,33.7,56.3z"/>
				<path fill="#533529" d="M33.7,56.3c0,0-0.1,0-0.1,0c-0.8-0.3-1.4-0.1-1.9,0.6c-0.2,0.1-0.3,0.3-0.5,0.4c-0.1,0.1-0.1,0-0.1-0.1
					c0.1-0.2,0.3-0.3,0.4-0.5c0-0.2,0.2-0.3,0.2-0.5c-0.4-0.2-0.9-0.2-1.3-0.5c-0.2-0.1-0.4-0.2-0.7-0.3c0.2-0.2,0.4-0.1,0.7,0
					c0.2,0.1,0.4,0.1,0.6,0.1c1,0.4,1.8,0.2,2.5-0.7c0.2-0.2,0.5-0.4,0.7-0.6c0,0.1,0,0.1,0,0.2c-0.2,0.2-0.5,0.5-0.7,0.7
					c-0.1,0.2-0.2,0.4-0.4,0.6c0.1,0.1,0.3,0.1,0.4,0.3c0.3,0.2,0.6,0.2,0.9,0.3c0,0.2-0.1,0.1-0.2,0.1
					C34.1,56.4,33.9,56.3,33.7,56.3z"/>
				<path fill="#7E5146" d="M32.5,45.1c-0.4-0.1-0.6,0-0.7,0.4c-0.1,0.8-0.2,1.6-0.4,2.4c-0.1-1,0.2-2,0.2-3c0.4,0,0.7-0.1,1.1,0.1
					C32.6,45.1,32.5,45.1,32.5,45.1z"/>
				<path fill="#A27057" d="M30.6,55.7c0.6-0.1,1.1,0.2,1.8,0.3c-0.3,0.3-0.5,0.5-0.8,0.6C31.3,56.3,30.9,56,30.6,55.7z"/>
				<path fill="#A5745B" d="M33.6,56c-0.3,0-0.5-0.1-0.8-0.2c0.3-0.2,0.5-0.5,0.7-0.7C33.6,55.5,33.6,55.7,33.6,56z"/>
				<path fill="#A89A93" d="M29.5,55.3c-0.3,0.1-0.5-0.1-0.8-0.3c0.3,0,0.5,0.1,0.8,0.1C29.5,55.2,29.5,55.2,29.5,55.3z"/>
				<path fill="#9F6E55" d="M34.3,56.4c0.1,0,0.1-0.1,0.2-0.1c0.3,0.1,0.6,0.1,0.9,0.3C35,56.6,34.6,56.5,34.3,56.4z"/>
				<path fill="#88746A" d="M31.2,57.1c0,0,0.1,0.1,0.1,0.1c-0.2,0.2-0.4,0.4-0.6,0.6c0,0-0.1-0.1-0.1-0.1
					C30.8,57.5,31,57.3,31.2,57.1z"/>
				<path fill="#533327" d="M33.3,45.1c0.4,0,0.9-0.1,1.3,0.1C34.2,45.2,33.8,45.2,33.3,45.1z"/>
				<path fill="#796257" d="M34.3,54.5c0-0.1,0-0.1,0-0.2c0.2-0.2,0.4-0.3,0.5-0.5c0,0,0,0.1,0.1,0.1C34.7,54.1,34.5,54.3,34.3,54.5
					z"/>
				<path fill="#FEC619" d="M49.6-0.4c2.3,0,4.6,0,6.9,0c1.7,0,3.2,1.6,3.3,3.3c0,2.4,0,4.8,0,7.2c-0.1,0.3-0.4,0.5-0.6,0.7
					c-2.4,1.6-4.8,3.2-7.2,4.8c-1.3,0.9-2.6,1.8-3.9,2.6c-0.8,0.5-1.5,1.1-2.3,1.6c-0.4,0.2-0.7,0.5-1.1,0.8
					c-0.2,0.1-0.3,0.3-0.6,0.2c-0.2-0.1-0.2-0.4-0.3-0.6c-0.4-2.6-1.2-5.1-2.2-7.6c-0.1-0.2-0.1-0.4-0.1-0.6c0.6-1.1,1.4-2.1,2-3.2
					c0.3-0.5,0.7-1.1,1-1.6c1.6-2.3,3-4.6,4.5-6.9C49.2,0,49.4-0.3,49.6-0.4z"/>
				<path fill="#FEC819" d="M0,10.1c0-2.4-0.1-4.9,0-7.3c0-1.7,1.6-3.2,3.3-3.3c2.3,0,4.7,0,7,0c0.2,0.1,0.3,0.2,0.5,0.4
					c1.6,2.5,3.2,5,4.8,7.5c0.9,1.4,1.8,2.8,2.8,4.2c0.2,0.3,0.4,0.5,0.4,0.8c-0.3,0.6-0.9,0.9-1.4,1.3c-1.5,1.3-2.5,3-2.7,5
					c0,0.3-0.1,0.5-0.3,0.7c-0.6,0-1-0.5-1.4-0.8c-1.5-1-3-2-4.4-3c-2.5-1.7-5.1-3.4-7.6-5.1C0.4,10.5,0.1,10.4,0,10.1z"/>
				<path fill="#FEC919" d="M50.3,34.3c-1.5-0.3-3-0.6-4.5-1c-0.3-2-0.9-3.9-1-6c0-0.2,0-0.3,0-0.5c0.1-0.2,0.3-0.3,0.5-0.3
					c0.9-0.2,1.8-0.5,2.8-0.6c0.9-0.2,1.9-0.5,2.8-0.6c1.5-0.3,2.9-0.7,4.4-0.9c1.2-0.3,2.4-0.5,3.7-0.8c0.3-0.1,0.5-0.1,0.8,0
					c0,4.2,0,8.4,0,12.6c-1.5-0.3-3.1-0.8-4.7-0.9C53.5,35,51.9,34.7,50.3,34.3z"/>
				<path fill="#FECA19" d="M9.7,34.3c-1.6,0.3-3.1,0.6-4.7,1c-1.7,0.3-3.3,0.7-5,1c0-4.2,0-8.4,0-12.6c0.2-0.2,0.4-0.1,0.5-0.1
					c1.5,0.3,3,0.6,4.5,1c1.7,0.3,3.4,0.6,5.1,1.1c1.1,0.2,2.2,0.4,3.3,0.7c0.3,0.1,0.6,0.1,0.8,0.4c0.3,0.9,0.2,1.9,0.3,2.8
					c0.1,1.1,0.1,2.2,0.2,3.3c0,0.1,0,0.2-0.1,0.3c-0.2,0.3-0.4,0.3-0.7,0.4c-1.2,0.3-2.5,0.5-3.7,0.8C10.1,34.4,9.9,34.5,9.7,34.3z
					"/>
				<path fill="#FEC919" d="M23.7-0.4c3.1,0,6.3,0,9.5,0c1,0,2,0,3,0c0.2,0.2,0.1,0.5,0,0.7c-0.2,1.1-0.4,2.2-0.7,3.3
					c-0.1,0.9-0.4,1.7-0.5,2.6c-0.1,0.3-0.1,0.5-0.3,0.8c-0.2,0.2-0.5,0.2-0.7,0.2c-1.8,0-3.5,0.4-5.2,0.8c-0.9,0.2-1.9,0.5-2.8,0.8
					c-0.2,0.1-0.3,0.1-0.5,0c-0.1-0.1-0.2-0.2-0.2-0.3c-0.3-1.5-0.8-3-0.9-4.6c-0.3-1.2-0.5-2.5-0.8-3.7C23.6-0.1,23.6-0.3,23.7-0.4
					z"/>
				<path fill="#FED74E" d="M5,24.8c-1.7-0.3-3.3-0.7-5-1c0-4.6,0-9.1,0-13.7c1.3,0.8,2.6,1.7,3.9,2.5c1.5,1,3,2,4.5,3.1
					c0.4,0.5,0.4,0.9,0,1.4c-1.2,2-2.1,4.2-2.7,6.5C5.6,24.2,5.4,24.5,5,24.8z"/>
				<path fill="#FED74E" d="M59.8,23.8c-1.5,0.3-3,0.6-4.4,0.9c-0.5-0.2-0.7-0.7-0.8-1.2c-0.5-2.2-1.4-4.4-2.6-6.4
					c-0.3-0.5-0.6-1.1-0.1-1.7c1.8-1.2,3.5-2.4,5.3-3.6c0.9-0.6,1.7-1.2,2.6-1.8C59.8,14.7,59.8,19.2,59.8,23.8z"/>
				<path fill="#FED74E" d="M23.7-0.4C24,1,24.3,2.4,24.6,3.8c-0.2,0.5-0.6,0.7-1.1,0.8c-2.4,0.6-4.6,1.6-6.7,2.8
					c-0.5,0.3-0.9,0.4-1.4,0c-1.8-2.6-3.5-5.3-5.1-7.9C14.7-0.4,19.2-0.4,23.7-0.4z"/>
				<path fill="#FED74E" d="M35.4,3.6c0.2-1.3,0.5-2.7,0.8-4c2.9,0,5.8,0,8.7,0c1.6,0,3.2,0,4.8,0c-0.9,1.4-1.8,2.9-2.8,4.3
					c-0.7,1.1-1.4,2.3-2.3,3.4c-0.4,0.4-0.8,0.4-1.3,0.1c-2.2-1.3-4.5-2.3-7-2.9C35.9,4.3,35.5,4.1,35.4,3.6z"/>
				<path fill="#B2806B" d="M33.4,32.5c-0.4-0.1-0.7,0.1-1,0.3c-1,0.5-1.9,1.1-2.9,1.6c-0.2,0-0.2-0.1-0.1-0.2
					c0.2-0.4,0-0.7-0.3-0.9c-2.7-2.7-5.4-5.5-8.1-8.3c-0.2-0.2-0.4-0.4-0.7-0.5c-0.2,0-0.3-0.2-0.4-0.4c0.2-0.8,0.4-1.5,0.9-2.2
					c0.4-0.4,0.5-0.9,0.9-1.3c0.1-0.1,0.2-0.3,0.4-0.4c0.2,0,0.3-0.1,0.4-0.2c0.3-0.7,1-1.1,1.5-1.7c0.1-0.1,0.2-0.2,0.3-0.3
					c0.3-0.1,0.5,0,0.6,0.2c0.2,0.2,0.1,0.5-0.1,0.6c-0.3,0.2-0.7,0.3-0.9,0.6c-0.4,0.4-0.3,0.7,0.2,0.9c0.7,0.2,1.4,0.3,2.1,0
					c0.7-0.3,2,0.3,2.3,0.9c0.1,0.1,0.1,0.3-0.1,0.3c-0.2,0.1-0.5-0.1-0.7-0.1c-1.2-0.4-2.3,0.2-2.8,1.4c-0.4,1.2,0,2.7,1,3.4
					c0.4,0.4,0.8,0.6,1.3,0.6c0.6,0.2,1.1-0.1,1.5-0.5c0.8-0.7,1-1.5,0.9-2.5c0-0.3-0.2-0.6-0.1-0.9c0.2-0.3,0.3-0.1,0.5,0
					c0.2,0.2,0.4,0.4,0.5,0.6c0.3,0.5,0.6,0.6,1.1,0.3c0.5-0.3,1.2-0.4,1.7-0.7c0.2-0.2,0.5,0,0.7,0.2c0.8,0.4,1.7,0.7,2.5,1.1
					c1,0.5,1.9,1,2.6,1.9c2,2.3,1.3,5.1-1.6,5.9c-1.3,0.4-2.7,0.4-4,0.3L33.4,32.5L33.4,32.5z"/>
				<path fill="#BA876F" d="M44.6,28.1c-0.1,0.1-0.1,0.2-0.2,0.4c0,0.2-0.1,0.4-0.3,0.5c-1.1,1.7-1.9,3.6-2,5.8
					c-1.5-0.8-2.9-1.6-4.3-2.3c0-0.3,0.2-0.3,0.4-0.4c2.4-1.2,2.9-3.7,1.1-5.7c-0.2-0.2-0.4-0.4-0.4-0.7c0-0.2,0.1-0.3,0.2-0.5
					c1.4-1.9,0.7-4.2-1.5-5c-0.1,0-0.2-0.1-0.3-0.1c-0.4-0.3-0.8-0.1-1.2,0.1c-0.2,0.1-0.4,0.2-0.5,0.4c-0.6,0.5-0.9,0.5-1.5-0.1
					c-1.8-1.8-3.6-3.6-5.3-5.4c-0.6-0.6-0.6-0.6-1.3-0.2c-0.2,0.1-0.5,0.2-0.6-0.1c0.1-0.5,0.5-0.7,0.9-0.9c0.4-0.3,0.9-0.6,1.4-0.9
					c0.7-0.3,1.4-0.6,2.1-0.9c0.9-0.4,1.2-0.4,1.9,0.3c1,1,2.1,2.1,3.1,3.1c0.6,0.6,0.5,0.9-0.3,1.3c-0.9,0.4-1.8,0.8-2.7,1.4
					c-0.1,0.2,0.1,0.3,0.2,0.3c0.2,0,0.5,0,0.7,0.1c0.7,0.1,1.3-0.2,1.9-0.5c0.2-0.1,0.4-0.2,0.5-0.4c0.7-0.5,1.1-0.5,1.8,0.2
					c1.4,1.4,2.7,2.8,4.1,4.2c0.3,0.3,0.6,0.6,0.7,1.1c0.5,1.5,1,2.9,1.3,4.5C44.6,27.7,44.6,27.9,44.6,28.1z"/>
				<path fill="#462C23" d="M29.1,13.1c-0.7,0.6-1.6,0.9-2.2,1.6c0,0.2-0.1,0.3-0.2,0.5c-1.5,1.4-2.8,3.1-4,4.8
					c-0.1,0.2-0.2,0.4-0.4,0.4c-0.4,0.6-0.7,1.3-1.2,1.8c-0.2-0.3,0-0.5,0.1-0.8c1-1.8,2.2-3.5,3.5-5c1-1.2,2.2-2.3,3.5-3.1
					c-0.2,0.1-0.5,0.3-0.8,0.5c-0.4,0.2-0.7,0-0.7-0.4c0-0.6,0-1.2,0.1-1.9c-0.4,0.2-0.6,0.4-0.8,0.7c-0.7,0.8-1.5,1.6-2.2,2.5
					c-0.2,0.2-0.3,0.4-0.6,0.5c-0.1,0-0.2-0.1-0.2-0.1c0-0.1,0-0.1,0-0.2c0.1-0.3,0.4-0.5,0.6-0.8c0.8-0.9,1.6-1.9,2.5-2.8
					c0.3-0.3,0.5-0.6,0.6-1.1c0.1-1.1,0.2-1.2,1-1.6c-1.5,0.6-3.3,1.2-5,2.1c-2.3,1.2-4.4,2.6-6.1,4.5c-1.2,1.3-1.5,2.9-1.7,4.5
					c-0.3,2.7-0.2,5.4,0.1,8c0,0.3,0,0.6,0,0.9c0,0.3,0,0.6,0.2,0.8c0.1,0.2,0.1,0.5,0,0.7c-0.2,0.5,0,1.1,0,1.6
					c0.1,1.2,0.1,2.5,0,3.7c0,0.4,0,0.9-0.4,1.2c-0.2,1.2-0.6,2.4-1.2,3.5c-0.1,0.2-0.2,0.4-0.4,0.4c-0.2-0.2,0-0.5,0.1-0.7
					c1-1.8,1.3-3.8,1.4-5.9c0-0.3,0-0.6,0.1-0.9c0-1.9-0.2-3.7-0.3-5.6c0-0.3-0.1-0.6-0.1-0.9c-0.3-0.7-0.3-1.4-0.3-2.1
					c0.1-1.3,0.1-2.6,0-3.9c0-0.5-0.1-0.9,0.2-1.3c0.2-0.3,0.2-0.7,0.2-1c0.3-2.2,1.6-3.9,3.3-5.2c0.3-0.2,0.6-0.5,0.9-0.7
					c0.1-0.2,0.2-0.4,0.4-0.5c1.9-1.3,3.9-2.4,6-3.2c0.2-0.1,0.4-0.1,0.6-0.1c1.7-0.6,3.4-1.1,5.2-1.5c1.3-0.2,2.5-0.4,3.8-0.4
					c0.2-0.1,0.4-0.2,0.6-0.2c2,0.1,3.8,0.6,5,2.4c0.4,0.6,0.8,1.2,1.2,1.9c0.2,0.3,0.3,0.6,0.2,1c1.2,2.8,2,5.7,2.5,8.7
					c0.3,0.2,0.3,0.6,0.3,0.9c0.2,1.4,0.3,2.7,0.5,4.1c0,0.3,0.1,0.7-0.2,1c0,0.2,0,0.4-0.2,0.5c-0.1,0-0.2-0.1-0.2-0.2
					c-0.3-1.4-0.8-2.8-1.2-4.2c-1-3.7-2.3-7.3-3.8-10.9c-0.2-0.5-0.5-1.1-0.8-1.6c-0.2-0.5-0.5-0.6-1-0.5c-1.9,0.3-3.7,0.8-5.5,1.6
					C31.2,12,30.1,12.5,29.1,13.1z"/>
				<path fill="#BF8B72" d="M29.1,13.1c0.5-0.6,1.3-0.9,2-1.3c2.2-1.1,4.5-1.9,7-2.2c0.4-0.1,0.5,0.1,0.7,0.4
					c1.8,3.6,3.2,7.4,4.4,11.2c0.5,1.8,0.9,3.6,1.4,5.4c0.1,0.2-0.1,0.4,0.1,0.6c0,0.3,0.2,0.6,0,0.9c-0.4-1.6-0.8-3.1-1.3-4.6
					c-0.2-0.6-0.5-1-0.9-1.4c-1.4-1.4-2.8-2.8-4.2-4.3c-0.5-0.5-0.9-0.5-1.5-0.1c-0.6,0.5-1.3,0.8-2.1,1c-0.2,0-0.3,0-0.4-0.1
					c0.1-0.3,0.4-0.3,0.7-0.3c0.8-0.3,1.6-0.7,2.3-1.4c-0.5,0.1-0.9,0.2-1.3,0.4c-0.7,0.2-1.3,0.5-2,0.8c-0.2,0.1-0.4,0.2-0.7,0.1
					c-0.1-0.2,0.2-0.2,0.3-0.3c0.9-0.4,1.7-0.9,2.6-1.3c0.5-0.3,0.6-0.3,0.1-0.8c-1.1-1.1-2.1-2.2-3.2-3.3c-0.7-0.7-0.8-0.7-1.7-0.3
					c-0.6,0.3-1.2,0.5-1.7,0.8C29.3,13,29.2,13,29.1,13.1z"/>
				<path fill="#FEE686" d="M44.7,26.7c-0.1-1.8-0.3-3.6-0.6-5.3c0-0.2-0.1-0.5-0.1-0.7c0.5-0.4,1-0.7,1.6-1c0.3,0,0.1,0.2,0.1,0.3
					c-0.1,0.3-0.1,0.6,0.1,0.9c0.7,1.4,1.4,2.9,1.8,4.4c0.1,0.2,0.2,0.4,0.3,0.5c0.1,0.1,0.3,0.2,0.1,0.4c-1.1,0.2-2.2,0.5-3.3,0.7
					C44.8,26.8,44.8,26.8,44.7,26.7z"/>
				<path fill="#FEFEFE" d="M30.8,36c1,0.3,1.9,0.6,2.9,0.8c0.1,0,0.2,0,0.2,0.1c0.5,0.2,1.1,0.3,1.7,0.5c-0.6,0.7-1.3,1.1-2.1,1.4
					c-1.3,0.3-2-0.5-2.6-1.6c-0.1-0.2-0.2-0.4-0.3-0.6c-0.1-0.1-0.2-0.2-0.2-0.4C30.6,35.9,30.7,35.9,30.8,36z"/>
				<path fill="#7B4F44" d="M38.9,25.6c0.3,0.3,0.6,0.7,0.9,1c1.5,2,0.8,4.5-1.5,5.5c-0.2,0.1-0.3,0.2-0.5,0.3
					c-1.4,0.1-1.4,0.1-1.4,1.5c0,0.3,0,0.6,0,0.9c-0.3-0.2-0.2-0.4-0.2-0.6c-0.1-0.5,0.2-1.2-0.1-1.5c-0.3-0.3-1-0.1-1.5-0.1
					c-0.3,0-0.7,0.1-1-0.1c1.5,0,2.9-0.1,4.3-0.7c2.6-1,2.8-3.7,1.1-5.5c-1.3-1.4-2.9-2.1-4.6-2.7c-0.2-0.1-0.4,0-0.4-0.3
					c0.2-0.2,0.5-0.1,0.7,0c0.1,0,0.3,0.1,0.4,0.1c0.9,0.3,1.8,0.6,2.7,1.2C38.1,25,38.6,25.1,38.9,25.6z"/>
				<path fill="#774E43" d="M44.1,40.1c0-0.4,0-0.7,0-1.1c0-0.1,0-0.2,0.1-0.2c0.1,0,0.2,0.1,0.2,0.2c0,0.8,0,1.6,0,2.5
					c0,0.1-0.1,0.2-0.2,0.2c-0.1,0-0.1-0.1-0.1-0.2C44.1,41,44.1,40.5,44.1,40.1z"/>
				<path fill="#7D5247" d="M39.7,36.4c0.2,0.4,0.1,0.8,0.1,1.1c0,0.5,0,0.9,0,1.4c0,0.1,0,0.2-0.1,0.2c-0.1,0-0.2-0.1-0.2-0.2
					C39.5,38.1,39.4,37.3,39.7,36.4z"/>
				<path fill="#764D42" d="M44,29c0.1-0.2,0.2-0.3,0.3-0.5c0.2,0.8,0.1,1.5,0.1,2.3c0,0.1,0,0.3-0.2,0.3c-0.2,0-0.1-0.2-0.1-0.3
					c0-0.5,0-1,0-1.5C44.1,29.1,44.1,29.1,44,29z"/>
				<path fill="#7D5348" d="M37.3,39.2c0,1,0,1.9,0,2.9c-0.2-1-0.2-1.9-0.1-2.9C37.2,39.2,37.3,39.2,37.3,39.2z"/>
				<path fill="#7D5248" d="M42.5,36.3c0,1,0.1,1.9-0.2,2.9c0-1,0-1.9,0-2.9C42.4,36.3,42.4,36.3,42.5,36.3z"/>
				<path fill="#7F5448" d="M45.8,43.2c0-0.9,0-1.9,0-2.8c0.3,0.9,0.2,1.9,0.2,2.8C45.9,43.2,45.9,43.2,45.8,43.2z"/>
				<path fill="#7E5449" d="M35.3,38.4c0,0.8,0,1.7,0,2.5c0,0-0.1,0-0.1,0c0-0.8,0-1.7,0-2.5C35.2,38.4,35.3,38.4,35.3,38.4z"/>
				<path fill="#7F5449" d="M39.4,44.3c0-0.8,0-1.7,0-2.5c0,0,0.1,0,0.1,0c0,0.8,0,1.7,0,2.5C39.5,44.3,39.4,44.3,39.4,44.3z"/>
				<path fill="#7E5348" d="M38.1,34c0,0.8,0,1.7,0,2.5c0,0-0.1,0-0.1,0c0-0.8,0-1.7,0-2.5C38.1,34.1,38.1,34,38.1,34z"/>
				<path fill="#7F5449" d="M33,43.6c0-0.7,0-1.5,0-2.2c0,0,0.1,0,0.1,0C33.1,42.1,33.1,42.9,33,43.6C33,43.6,33,43.6,33,43.6z"/>
				<path fill="#805449" d="M33.1,33c0-0.1,0.1-0.2,0.1-0.2c0.2,0.7,0.1,1.4,0,2.2C33.1,34.3,33.2,33.6,33.1,33z"/>
				<path fill="#7F5449" d="M41.2,41.8c0-0.7,0-1.4,0-2.1c0,0,0.1,0,0.1,0c0,0.7,0,1.4,0,2.1C41.2,41.8,41.2,41.8,41.2,41.8z"/>
				<path fill="#7F5449" d="M35.6,44.9c-0.1,0-0.2-0.1-0.2-0.1c-0.1-0.6-0.1-1.3,0-1.9c0.1,0,0.1,0,0.2,0
					C35.6,43.5,35.6,44.2,35.6,44.9C35.6,44.9,35.6,44.9,35.6,44.9z"/>
				<path fill="#8E5F54" d="M43.7,35.7c0-0.9,0-1.9,0-2.8c0,0,0,0,0.1,0C43.8,33.8,43.8,34.8,43.7,35.7
					C43.7,35.7,43.7,35.7,43.7,35.7z"/>
				<path fill="#7A5146" d="M34,36.8c-0.1,0-0.2-0.1-0.2-0.1c0-0.2-0.1-0.3-0.1-0.5c0-0.3-0.1-0.6,0.2-0.9
					C34,35.8,33.7,36.4,34,36.8z"/>
				<path fill="#8E5F54" d="M43,44.4c-0.3-0.7,0-1.3-0.1-2c0,0,0.1,0,0.1,0C43,43.1,43,43.7,43,44.4C43,44.4,43,44.4,43,44.4z"/>
				<path fill="#40271F" d="M23.1,15c1-1.2,2-2.4,3.1-3.5c0.1-0.1,0.2-0.2,0.3-0.3c0.1-0.1,0.2-0.1,0.3,0c0.1,0.1,0,0.2,0,0.3
					c-0.2,0.6-0.1,1.2-0.1,1.8c0,0.4,0.1,0.5,0.5,0.3c0.5-0.2,0.9-0.6,1.5-0.7c-0.8,0.7-1.5,1.2-2.2,1.7c-0.9,0.8-1.7,1.7-2.4,2.6
					c-1.1,1.3-2,2.7-2.8,4.2c-0.1,0.2-0.2,0.5-0.3,0.7c-0.4,0.7-0.7,1.4-0.9,2.1c0,0.7-0.4,1.4-0.6,2c-0.2,0.6-0.4,1.2,0.1,1.8
					c-0.1,0.6,0,1.2,0,1.8c0.1-0.5-0.1-1.1,0.1-1.6c0.2-0.1,0.3,0,0.4,0.1c0.9,0.7,1.7,1.4,2.5,2.2c0.1,0.1,0.1,0.2,0.1,0.3
					c-0.2,0.6,0,1.2,0,1.8c0.1,1.3,0.1,2.5,0,3.8c-0.1,1,0,2,0,3.1c0,0.1,0.1,0.2,0,0.3c-0.1,0.1-0.2-0.1-0.3-0.1
					c-0.4-0.3-0.6-0.6-0.5-1.2c0-0.2,0.1-0.5-0.1-0.7c-0.3,0.1,0,0.5-0.3,0.6C21,38.1,21,37.5,20.7,37c-0.2-0.4-0.5-0.8-0.6-1.2
					c-0.2-0.7,0-1.5-0.1-2.2c-0.1,0.6,0.1,1.3-0.1,2c0,0,0,0.1,0,0.1c-0.2-0.2-0.2-0.4-0.3-0.7c-0.1-0.3-0.2-0.4-0.5-0.4
					c0.1-1.1-0.3-2.2-0.5-3.2c-0.1-0.8-0.3-1.5-0.5-2.3c-0.1-0.3-0.1-0.6-0.3-0.8c-0.2-0.2-0.5-0.3-0.6-0.7c0-0.4-0.2-0.8-0.1-1.2
					c0.2-0.2,0.4-0.3,0.7-0.4c0.2-1,0.3-1.9,0.6-2.9c0.5-1.8,1.3-3.5,2.3-5.1c0.6-1,1.2-1.9,1.9-2.8C22.7,15.2,22.8,15,23.1,15z"/>
				<path fill="#A0725C" d="M19.5,28c-0.6-0.3-0.6-0.7-0.4-1.3c0.3-0.8,0.5-1.7,1-2.5c2,1.1,3.2,3,4.8,4.5c1.6,1.5,3.1,3.2,4.7,4.7
					c0.4,0.4,0.1,0.7,0,1c0,0,0,0.1-0.1,0.1c-1.4,1-1.4,1-2.6-0.1c-1.4-1.2-2.8-2.5-4.2-3.6c-1-0.8-1.9-1.7-2.9-2.5
					C19.6,28.2,19.5,28.1,19.5,28z"/>
				<path fill="#7C5247" d="M19.9,35.7c0-1,0-2.1,0-3.1c0.1,0,0.1,0,0.2,0c0.1,1.1,0,2.1,0,3.2C20.1,35.8,20,35.8,19.9,35.7z"/>
				<path fill="#7F5449" d="M27,41.6c0-0.9,0-1.9,0-2.8c0.2,0.9,0.2,1.9,0.2,2.8C27.1,41.6,27.1,41.6,27,41.6z"/>
				<path fill="#7C5247" d="M23.5,39.1c0-0.6,0-1.3,0-1.9c0-0.2-0.3-0.7,0.1-0.7c0.3,0,0.1,0.5,0.2,0.7c0,0.6,0,1.2,0,1.9
					C23.7,39.1,23.6,39.1,23.5,39.1z"/>
				<path fill="#7C5247" d="M30.6,41.9c0-0.8,0-1.7,0-2.5c0,0,0.1,0,0.1,0c0,0.8,0,1.7,0,2.5C30.7,41.9,30.7,41.9,30.6,41.9z"/>
				<path fill="#7E5348" d="M28.5,37.6c0,0.8,0,1.6,0,2.5C28.3,39.7,28.3,38.2,28.5,37.6z"/>
				<path fill="#7C5247" d="M23.6,34c-0.1-0.7,0-1.3-0.1-2c0-0.1,0-0.2,0.1-0.2c0,0,0.1,0,0.1,0.1C23.9,32.2,23.8,33.7,23.6,34z"/>
				<path fill="#7D5348" d="M25.4,40.6c0,0.8,0,1.5,0,2.3c0,0-0.1,0-0.1,0c-0.1-0.8,0-1.5,0-2.3C25.3,40.6,25.3,40.6,25.4,40.6z"/>
				<path fill="#7F5349" d="M25.1,35.3c0,0.7,0,1.5,0,2.2c0,0-0.1,0-0.1,0c0-0.7,0-1.5,0-2.2C25.1,35.3,25.1,35.3,25.1,35.3z"/>
				<path fill="#7F564B" d="M30.8,36c-0.6,0-0.1,0.3-0.1,0.5c-0.1,0-0.3,0.1-0.3,0c0-0.7-0.2-1.4,0.1-2.2
					C30.8,34.8,30.3,35.5,30.8,36z"/>
				<path fill="#7C5247" d="M29,44.1c0-0.7,0-1.4,0-2.1c0,0,0.1,0,0.1,0c0,0.7,0,1.4,0,2.1C29,44.1,29,44.1,29,44.1z"/>
				<path fill="#7F5449" d="M27.1,36.4C26.9,35.9,27,35.5,27,35C27.3,35.5,27.1,35.9,27.1,36.4z"/>
				<path fill="#7E5348" d="M21.4,38.3c0-0.2,0-0.4,0-0.6c0.1-0.3,0.2-0.1,0.2,0c0,0.4,0,0.8,0,1.2C21.4,38.8,21.5,38.5,21.4,38.3z"
					/>
				<path fill="#533327" d="M39.3,45.1c-0.4,0.1-0.9,0.1-1.3,0.1C38.4,45,38.8,45.1,39.3,45.1z"/>
				<path fill="#3A241D" d="M14.6,36.7c0.1-0.5,0.2-0.9,0.2-1.4c0-1.5,0.1-3.1-0.1-4.6c0-0.2,0-0.4,0.1-0.5c0.2,0.1,0.2,0.3,0.3,0.4
					c0.2,1.4,0.9,2.5,1.9,3.4c0,0.1,0,0.1,0,0.2c0.4,0.6,0.3,1.2,0.2,1.9c-0.1,0.4-0.1,0.8-0.4,1.1c-0.3,0.4-0.5,0.8-0.3,1.3
					c0.2,1-0.1,1.9-0.3,2.8c-0.1,0.4-0.3,0.5-0.7,0.5c-0.6,0-1.2,0-1.9-0.1c-0.7-0.1-0.7-0.2-0.3-0.7c0.7-1.1,1.2-2.4,1.5-3.7
					C14.7,37,14.9,36.8,14.6,36.7z"/>
				<path fill="#FEE37C" d="M14.6,33.2c0.2,2.4-0.2,4.7-1.4,6.8c-0.1,0.2-0.2,0.4-0.3,0.6c0,0.2-0.1,0.3-0.2,0.4
					c-0.9-2-1.9-3.9-2.3-6c-0.1-0.4-0.6-0.3-0.7-0.7C11.3,34,13,33.6,14.6,33.2z"/>
				<path fill="#966650" d="M18,28.3c0.2,0.1,0.3,0.3,0.4,0.5c0.3,1.8,0.7,3.6,1.1,5.4c0.1,0.3,0,0.5-0.2,0.6l0,0
					c0,0.1-0.1,0.1-0.1,0c-0.4,0-0.8-0.1-1.3-0.1c0,0-0.1-0.1-0.1-0.2c0-0.7,0-1.3,0-2c0-0.4,0-0.8,0.3-1.1c0.1-0.1,0.2-0.1,0.3,0
					c-0.2-0.5-0.9-0.8-1-1.5c0-0.4,0-0.8,0-1.2C17.4,28.3,17.5,28.1,18,28.3z"/>
				<path fill="#A37059" d="M18.1,31.3c-0.4,0.9-0.2,1.9-0.2,2.9c0,0.2,0.1,0.3-0.2,0.4c0,0-0.1,0.1-0.1,0.1c0,0-0.1,0-0.1-0.1
					c-0.2-0.1-0.4-0.3-0.6-0.4c0,0,0-0.1,0-0.1c0-0.1-0.1-0.2-0.1-0.3c0-1.1-0.1-2.3,0.3-3.4c0.3-0.3,0.5,0,0.6,0.2
					C17.8,30.8,18.1,31,18.1,31.3z"/>
				<path fill="#5F4944" d="M17.6,34.6c0,0,0.1,0,0.1,0c0,0,0,0.1,0,0.1c0.1,0.4,0.1,0.9,0.1,1.3c-0.1,1-0.1,2.1-0.1,3.1
					c0,0.9-0.2,1.7-0.1,2.5c-0.3,0-0.1-0.2-0.1-0.3c0-0.7,0-1.5,0-2.2c0.1-1,0-2,0.1-3C17.6,35.5,17.5,35.1,17.6,34.6z"/>
				<path fill="#5B4540" d="M19,34.8c0,0,0.1,0,0.1,0c0.7,1.9,1.3,3.8,2,5.7l0,0c-0.5-0.7-0.7-1.5-1-2.3
					C19.7,37.1,19.3,35.9,19,34.8z"/>
				<path fill="#3A241D" d="M17.6,34.6c0,1.3,0,2.6,0,3.9c0,0.2,0,0.4-0.1,0.6c0-1.5,0-3,0-4.5C17.5,34.6,17.6,34.6,17.6,34.6z"/>
				<path fill="#3A241D" d="M17.5,41.3c0,0.1,0,0.3,0.1,0.3c0,0.5,0,0.9-0.2,1.3C17.4,42.4,17.3,41.9,17.5,41.3z"/>
				<path fill="#5B4540" d="M21.1,40.5c0.2,0.3,0.3,0.6,0.4,0.9C21.3,41.1,21.1,40.9,21.1,40.5C21.1,40.5,21.1,40.5,21.1,40.5z"/>
				<path fill="#FEDE68" d="M51.8,15.4c-0.3,0.8,0.2,1.4,0.5,2c1,1.9,1.9,3.9,2.3,6.1c0.1,0.5,0.5,0.8,0.7,1.2
					c-1.5,0.3-3,0.6-4.4,0.9c-0.5-0.1-0.7-0.4-0.9-0.9c-0.5-1.9-1.2-3.8-2.2-5.5c-0.2-0.4-0.2-0.8,0.2-1.2
					C49.3,17.2,50.6,16.3,51.8,15.4z"/>
				<path fill="#FEDD64" d="M41.6,11.9C41.1,11,40.7,10,40,9.2c-1.2-1.6-2.8-2.2-4.6-2.3c-0.2,0-0.5,0.1-0.7-0.1
					c0.2-1.1,0.5-2.2,0.7-3.3c0.6,0.6,1.3,0.7,2.1,0.9c2.1,0.6,4,1.5,5.8,2.6c0.5,0.3,0.9,0.4,1.3,0.2c-0.9,1.5-1.9,3-2.8,4.5
					C41.7,11.8,41.7,11.9,41.6,11.9z"/>
				<path fill="#FEE277" d="M48,18c-0.3,0.6,0,1.1,0.3,1.6c0.8,1.4,1.4,2.9,1.8,4.5c0.1,0.6,0.3,1.1,0.8,1.4
					C50,25.8,49,26,48.1,26.2c-0.8-0.5-0.8-1.4-1-2.2c-0.3-0.9-0.7-1.8-1.2-2.7c-0.3-0.6-0.6-1.1-0.2-1.8C46.4,19,47.2,18.5,48,18z"
					/>
				<path fill="#FEDF6C" d="M5,24.8c0-0.1,0-0.2,0-0.2c0.6-0.3,0.6-1,0.8-1.6c0.6-2.1,1.4-4.2,2.6-6.1c0.3-0.5,0-0.8,0-1.2
					c1.5,1,3,1.9,4.4,3c0.5,0.5,0.4,1,0.1,1.5c-0.8,1.4-1.4,3-1.9,4.6c-0.1,0.5-0.4,0.9-0.9,1C8.4,25.5,6.7,25.2,5,24.8z"/>
				<path fill="#FEDD66" d="M25.6,8.7c-1.2,0.6-2.5,1.1-3.7,1.7c-1.2,0.6-2.3,1.4-3.4,2.1c-0.9-1.4-1.9-2.9-2.8-4.3
					c-0.1-0.2-0.3-0.4-0.4-0.7c0.7,0.3,1.2-0.2,1.8-0.5c2-1.1,4-2,6.2-2.5c0.5-0.1,0.8-0.4,1.2-0.7c0.2,1.5,0.7,2.9,0.9,4.4
					C25.5,8.4,25.6,8.5,25.6,8.7z"/>
				<path fill="#FEE480" d="M10.1,25.9c0-0.1,0-0.2,0-0.2c0.6-0.1,0.6-0.6,0.7-1.1c0.4-1.5,1-3,1.7-4.4c0.3-0.5,0.5-1,0.2-1.6
					c0.4,0.3,0.9,0.6,1.3,0.8c-0.1,0.4,0.1,0.9,0,1.3c-0.1,1.3-0.1,2.6,0,3.9c0,0.7,0.1,1.4,0.1,2.1C12.8,26.4,11.5,26.2,10.1,25.9z
					"/>
				<path fill="#B8856F" d="M34.7,23.5c-0.2,0-0.5-0.1-0.7-0.1c-0.3-0.2-0.6-0.3-0.8,0.1c-0.1,0.1-0.2,0.1-0.4,0.1
					c-0.4,0-0.7,0.2-1,0.4c-0.7,0.5-1.1,0.4-1.5-0.4C30.2,23.3,30,23,29.6,23c-0.5-0.4-1-1-1.3-1.6c-0.3-0.7-1.5-1.3-2.1-1
					c-0.8,0.4-1.6,0.2-2.3-0.1c-0.5-0.2-0.6-0.6-0.2-1c0.2-0.3,0.5-0.5,0.8-0.6c0.2-0.1,0.4,0,0.4-0.3c0-0.2-0.1-0.3-0.3-0.4
					c-0.2-0.1-0.4,0.1-0.5,0.3c-0.5,0.7-1.3,1.2-1.7,2c-0.1,0.1-0.2,0.4-0.3,0c0.7-1.3,1.6-2.3,2.5-3.4c0.6-0.8,1.3-1.5,2.1-2.2
					c0.3,0.3,0.5,0.1,0.6-0.1c0.4-0.4,0.7-0.4,1.1,0c1.3,1.4,2.7,2.7,4,4.1c0.6,0.6,1.3,1.2,1.9,1.8c0.3,0.3,0.6,0.3,0.9,0
					c0.4-0.4,0.9-0.7,1.4-0.8c0.2,0,0.4-0.1,0.5,0.2c-0.1,0.2-0.4,0.2-0.6,0.3c-1.1,0.3-1.7,1.1-1.8,2.3
					C34.9,22.8,35,23.2,34.7,23.5z"/>
				<path fill="#FEFEFE" d="M28.3,21.4c0.6,0.4,1,1,1.3,1.6c0.2,0.7,0.3,1.4,0.1,2.1c-0.3,1-1.3,2.2-2.6,1.9c0-0.1,0-0.2,0.1-0.3
					c0.8-0.6,0.8-1.5,0.8-2.4c-0.1-0.4-0.3-0.8-0.6-1.2c-0.6-0.4-1.1-0.3-1.5,0.3c-0.4,0.7-0.4,1.4-0.3,2.2c0.1,0.2,0.2,0.5,0.1,0.7
					c-1-0.6-1.3-1.7-1.3-2.8c0-1.1,0.5-2,1.5-2.4C26.8,20.8,27.6,21.1,28.3,21.4z"/>
				<path fill="#221E1F" d="M25.8,26.4c-0.6-1-0.6-2,0-3c0.4-0.8,1.1-0.9,1.9-0.4c0,0.2-0.2,0.3-0.3,0.4c-0.3,0.2-0.3,0.5-0.2,0.8
					c0.1,0.4,0.4,0.5,0.7,0.3c0.1-0.1,0.2-0.3,0.4-0.2c0.2,1.3-0.1,2.2-1.1,2.7C26.6,27.1,26.2,26.8,25.8,26.4z"/>
				<path fill="#BD9281" d="M37.2,29c-0.6,0-1.2,0-1.8-0.4c-0.6-0.4-0.6-0.8,0-1.1c1.2-0.5,2.4-0.5,3.5,0c0.6,0.3,0.6,0.8,0,1.1
					C38.5,28.9,37.8,29,37.2,29z"/>
				<path fill="#7E5146" d="M29.7,25.8c-0.4,1.4-1.8,2.2-3,1.8C28.1,27.7,29,27,29.7,25.8z"/>
				<path fill="#FEFEFE" d="M34.7,23.5c0-0.4,0-0.8,0-1.2c0.1-1.4,1.1-2.2,2.6-2.3c1.3,0.2,2.1,1,2.5,2.2c0.4,1.2,0.2,2.3-0.7,3.3
					c-0.1,0.1-0.1,0.1-0.2,0.2c-0.4-0.3-0.8-0.5-1.2-0.8c-0.2-0.4,0-0.8-0.1-1.2c-0.1-0.4-0.2-0.9-0.5-1.2c-0.6-0.6-1.3-0.4-1.7,0.4
					c-0.1,0.3-0.1,0.6-0.4,0.8C34.9,23.6,34.8,23.6,34.7,23.5z"/>
				<path fill="#56382B" d="M33.1,18.1c1.2-0.5,2.4-1,3.7-1.4c0.2-0.1,0.4-0.2,0.6,0c0.1,0.2-0.2,0.3-0.3,0.5
					c-0.8,0.8-1.8,1.3-2.9,1.5c-0.3,0-0.6,0-0.9-0.1c-0.2,0-0.4,0-0.4-0.2C32.7,18.2,33,18.2,33.1,18.1z"/>
				<path fill="#3A241D" d="M17.8,26.2c-0.1,0.2-0.2,0.5-0.6,0.2C17,26.1,17,25.6,17,25.2c-0.2-1.5-0.5-3-0.8-4.5c0-0.1,0-0.2,0-0.2
					c0.1,0.5,0.2,1,0.3,1.6c0.3,1.7,0.5,3.5,0.8,5.2c0,0.1,0,0.3-0.1,0.4c-0.2,0.1-0.4,0.1-0.6,0.1c-0.8,0-1.1,0.2-1.4,0.9
					C15,29,15,29.3,14.8,29.4c-0.2,0-0.2-0.2-0.2-0.3c-0.1-2.8-0.4-5.6-0.2-8.5c0.1-1.9,0.3-3.8,1.6-5.4c0.8-0.9,1.7-1.8,2.7-2.5
					c1.2-0.9,2.4-1.7,3.8-2.3c0.1,0.3-0.2,0.4-0.4,0.6c-0.2,0.2-0.5,0.4-0.8,0.6c-0.2,0.2-0.4,0.4-0.4,0.8c0,1.3,0,2.5,0,3.8
					c0,0.1,0,0.1,0.1,0.2c0.5-0.4,0.7-0.9,1.2-1.3c0.2-0.2,0.4-0.4,0.7-0.4c0,0,0,0.1,0,0.1c-0.2,0.6-0.7,1.1-1,1.6
					c-1.5,2.2-2.8,4.6-3.5,7.2c-0.2,0.8-0.3,1.5-0.4,2.3C17.9,26,17.9,26.2,17.8,26.2z"/>
				<path fill="#40271F" d="M23,14.7c-0.6,0.5-1.1,1.1-1.6,1.7c-0.1,0.2-0.3,0.4-0.5,0.3c-0.2-0.1-0.1-0.4-0.1-0.6
					c0-1.2,0-2.4,0-3.6c0-0.5,0.1-0.8,0.6-1.1c0.4-0.3,0.9-0.6,1.2-1c1.6-1,3.3-1.6,5-2.1c0.2-0.1,0.5-0.1,0.7-0.1
					c-0.4,0.3-0.8,0.5-1.2,0.7c-0.3,0.2-0.4,0.4-0.4,0.8c0.1,0.7-0.2,1.2-0.7,1.7c-0.9,0.9-1.7,1.9-2.6,2.9
					C23.3,14.4,23.1,14.6,23,14.7z"/>
				<path fill="#B27B62" d="M14.8,29.4c0-0.3,0.1-0.7,0.2-1c0.4-0.8,1-1.1,2-0.8c0.1,0,0.3-0.1,0.3,0.1c0.2,0.2,0.4,0.3,0.6,0.5
					c-0.3,0-0.5,0.2-0.5,0.5c0,0.4,0.1,0.8-0.1,1.2c-0.4,0.2-0.7-0.3-1-0.3c0.2,0.2,0.7,0.2,0.7,0.6c-0.1,1.2-0.2,2.5-0.3,3.7
					c-1.1-0.7-1.6-1.9-1.9-3.1c-0.1-0.3-0.1-0.6-0.2-0.9C14.8,29.9,14.8,29.7,14.8,29.4z"/>
				<path fill="#695450" d="M17.8,26.2c0.1-2.5,1.1-4.7,2.2-6.9c0.8-1.6,1.9-3.1,3-4.5c0,0,0.1,0.1,0.1,0.1c-2,2.6-3.7,5.4-4.6,8.6
					c-0.3,1-0.5,2.1-0.5,3.2C17.8,26.6,17.9,26.4,17.8,26.2z"/>
				<path fill="#FEDF6C" d="M14.1,24.7c-0.2-0.9-0.1-1.8-0.1-2.7c0-0.4-0.1-0.8,0.1-1.1C14.1,22.1,14.1,23.4,14.1,24.7z"/>
				<path fill="#221E1F" d="M37.8,23.5c0,0.4,0.1,0.9-0.1,1.3c-0.9-0.5-1.8-0.8-2.7-1.2c0-0.4,0.2-0.8,0.4-1.1
					c0.5-0.8,1.2-0.9,1.9-0.2c0,0.2-0.1,0.2-0.2,0.2c-0.4,0.2-0.5,0.6-0.3,1c0.2,0.4,0.5,0.3,0.8,0C37.6,23.5,37.7,23.5,37.8,23.5z"
					/>
				<path fill="#604A46" d="M17.4,27.8c-0.1,0-0.2-0.1-0.3-0.1c0.3-0.5,0-1,0-1.4c-0.2-1.8-0.5-3.7-0.8-5.5c0-0.2-0.1-0.3,0-0.7
					c0.5,2.2,0.8,4.3,1.1,6.4C17.3,26.9,17.3,27.4,17.4,27.8z"/>
				<path fill="#6C463C" d="M19.5,28c0.1,0,0.2,0.1,0.2,0.2c0,0.7,0,1.4,0,2c0,0.1,0,0.3-0.1,0.3c-0.1,0-0.2-0.1-0.2-0.3
					C19.4,29.5,19.3,28.8,19.5,28z"/>
				<path fill="#7D5348" d="M22.2,35.9c-0.2,0-0.2-0.2-0.2-0.3c0-0.7,0-1.5,0-2.2c0-0.1,0-0.4,0.2-0.2C22.2,34,22.3,34.9,22.2,35.9z
					"/>
				<path fill="#80554A" d="M21.4,29.9c0,0.6,0,1.1,0,1.7c0,0-0.1,0-0.1,0C21.3,31.1,21.3,30.5,21.4,29.9
					C21.3,29.9,21.4,29.9,21.4,29.9z"/>
				<path fill="#4B2D23" d="M22.2,35.9c0-0.9,0-1.8,0-2.7C22.3,34,22.4,34.9,22.2,35.9z"/>
				<path fill="#7B4E44" d="M17.1,30.4c-0.4-0.3-0.8-0.6-1.3-0.9c0.6,0,1,0.3,1.5,0.5c0.4,0.5,0.9,1,1.1,1.7c-0.3,0-0.3-0.3-0.4-0.4
					C17.8,31,17.5,30.7,17.1,30.4z"/>
				<path fill="#56382B" d="M24.5,20.2c-0.1,0-0.2,0-0.3,0c-0.2,0-0.5-0.1-0.5-0.3c0-0.2,0.2-0.3,0.4-0.4c1.2-0.5,2.4-1,3.6-1.3
					c0.2,0,0.4-0.2,0.5,0c0.1,0.2-0.1,0.3-0.3,0.5C26.9,19.6,25.8,20.1,24.5,20.2z"/>
				<path fill="#908E8E" d="M28.2,24.2c-0.2,0.3-0.3,0.8-0.9,0.6c-0.4-0.1-0.5-0.5-0.5-0.9c0-0.5,0.2-0.8,0.7-0.8c0,0,0-0.1,0.1-0.1
					C28,23.4,28.1,23.8,28.2,24.2z"/>
				<path fill="#918F8F" d="M37.8,23.5C37.8,23.5,37.8,23.5,37.8,23.5c-0.3,0.3-0.5,0.7-0.9,0.5c-0.4-0.2-0.5-0.6-0.4-1.1
					c0.1-0.5,0.4-0.6,0.8-0.6C37.6,22.7,37.7,23.1,37.8,23.5z"/>
			</g>
		</g>
	</g>
</g>
</svg>
