<?xml version="1.0" encoding="utf-8"?>
<!-- Generator: Adobe Illustrator 17.1.0, SVG Export Plug-In . SVG Version: 6.00 Build 0)  -->
<!DOCTYPE svg PUBLIC "-//W3C//DTD SVG 1.1//EN" "http://www.w3.org/Graphics/SVG/1.1/DTD/svg11.dtd">
<svg version="1.1" id="Icon" xmlns="http://www.w3.org/2000/svg" xmlns:xlink="http://www.w3.org/1999/xlink" x="0px" y="0px"
	 viewBox="-17.5 -17.5 60 60" enable-background="new -17.5 -17.5 60 60" xml:space="preserve">
<g>
	<path fill="#64B4F2" d="M42.5,39.5c0,1.6-1.3,3-3,3h-53.9c-1.6,0-3-1.3-3-3v-53.9c0-1.6,1.3-3,3-3h53.9c1.6,0,3,1.3,3,3V39.5z"/>
	<g>
		<g>
			<path fill="#FFFFFF" d="M26.4,12.2L12.5,26.2L-1.4,12.2L9.7,1.1L6.9-1.7L-5.6,10.8c-0.4,0.4-0.6,0.9-0.6,1.4s0.2,1,0.6,1.4
				l16.7,16.7c0.4,0.4,0.9,0.6,1.4,0.6s1-0.2,1.4-0.6l16.7-16.7c0.8-0.8,0.8-2,0-2.8L13.9-5.9c-0.8-0.8-2-0.8-2.8,0L9.7-4.5
				L26.4,12.2z"/>
		</g>
	</g>
</g>
</svg>
