<?xml version="1.0" encoding="utf-8"?>
<!-- Generator: Adobe Illustrator 17.1.0, SVG Export Plug-In . SVG Version: 6.00 Build 0)  -->
<!DOCTYPE svg PUBLIC "-//W3C//DTD SVG 1.1//EN" "http://www.w3.org/Graphics/SVG/1.1/DTD/svg11.dtd">
<svg version="1.1" id="Icons" xmlns="http://www.w3.org/2000/svg" xmlns:xlink="http://www.w3.org/1999/xlink" x="0px" y="0px"
	 viewBox="0 0 40 40" enable-background="new 0 0 40 40" xml:space="preserve">
<path fill="#0EA9D6" d="M17.2,13.5l8.5,6.6l-8.5,6.6V13.5 M15.2,9.4v21.4l13.8-10.8L15.2,9.4L15.2,9.4z"/>
<path fill="#0EA9D6" d="M19.9,39.8C9.1,39.8,0.3,31,0.3,20.1S9.1,0.5,19.9,0.5s19.6,8.8,19.6,19.6S30.7,39.8,19.9,39.8z M19.9,2.5
	c-9.7,0-17.6,7.9-17.6,17.6c0,9.7,7.9,17.6,17.6,17.6c9.7,0,17.6-7.9,17.6-17.6C37.5,10.4,29.6,2.5,19.9,2.5z"/>
</svg>
