<?xml version="1.0" encoding="utf-8"?>
<!-- Generator: Adobe Illustrator 17.0.0, SVG Export Plug-In . SVG Version: 6.00 Build 0)  -->
<!DOCTYPE svg PUBLIC "-//W3C//DTD SVG 1.1//EN" "http://www.w3.org/Graphics/SVG/1.1/DTD/svg11.dtd">
<svg version="1.1" id="Icons" xmlns="http://www.w3.org/2000/svg" xmlns:xlink="http://www.w3.org/1999/xlink" x="0px" y="0px"
	 width="40px" height="40px" viewBox="0 0 40 40" enable-background="new 0 0 40 40" xml:space="preserve">
<polygon fill="#929292" points="16.471,31.524 15.07,30.099 25.287,20.059 15.075,10.165 16.466,8.729 28.151,20.049 "/>
<path fill="#929292" d="M20,39.767c-10.828,0-19.637-8.81-19.637-19.638S9.172,0.492,20,0.492s19.638,8.809,19.638,19.637
	S30.828,39.767,20,39.767z M20,2.492c-9.725,0-17.637,7.912-17.637,17.637c0,9.726,7.912,17.638,17.637,17.638
	c9.726,0,17.638-7.912,17.638-17.638C37.638,10.404,29.726,2.492,20,2.492z"/>
</svg>
