<?xml version="1.0" encoding="utf-8"?>
<!-- Generator: Adobe Illustrator 17.1.0, SVG Export Plug-In . SVG Version: 6.00 Build 0)  -->
<!DOCTYPE svg PUBLIC "-//W3C//DTD SVG 1.1//EN" "http://www.w3.org/Graphics/SVG/1.1/DTD/svg11.dtd">
<svg version="1.1" id="Icons" xmlns="http://www.w3.org/2000/svg" xmlns:xlink="http://www.w3.org/1999/xlink" x="0px" y="0px"
	 viewBox="0 0 40 40" enable-background="new 0 0 40 40" xml:space="preserve">
<polygon fill="#0EA9D6" points="16.5,31.5 15.1,30.1 25.3,20.1 15.1,10.2 16.5,8.7 28.2,20 "/>
<path fill="#0EA9D6" d="M20,39.8C9.2,39.8,0.4,31,0.4,20.1S9.2,0.5,20,0.5s19.6,8.8,19.6,19.6S30.8,39.8,20,39.8z M20,2.5
	c-9.7,0-17.6,7.9-17.6,17.6c0,9.7,7.9,17.6,17.6,17.6c9.7,0,17.6-7.9,17.6-17.6C37.6,10.4,29.7,2.5,20,2.5z"/>
</svg>
