<?xml version="1.0" encoding="utf-8"?>
<!-- Generator: Adobe Illustrator 17.0.0, SVG Export Plug-In . SVG Version: 6.00 Build 0)  -->
<!DOCTYPE svg PUBLIC "-//W3C//DTD SVG 1.1//EN" "http://www.w3.org/Graphics/SVG/1.1/DTD/svg11.dtd">
<svg version="1.1" id="Icons" xmlns="http://www.w3.org/2000/svg" xmlns:xlink="http://www.w3.org/1999/xlink" x="0px" y="0px"
	 width="40px" height="40px" viewBox="0 0 40 40" enable-background="new 0 0 40 40" xml:space="preserve">
<path fill="#929292" d="M17.181,13.513l8.504,6.553l-8.504,6.645V13.513 M15.181,9.447v21.365l13.767-10.757L15.181,9.447
	L15.181,9.447z"/>
<path fill="#929292" d="M19.895,39.767c-10.828,0-19.637-8.81-19.637-19.638S9.066,0.492,19.895,0.492s19.638,8.809,19.638,19.637
	S30.723,39.767,19.895,39.767z M19.895,2.492c-9.725,0-17.637,7.912-17.637,17.637c0,9.726,7.912,17.638,17.637,17.638
	c9.726,0,17.638-7.912,17.638-17.638C37.532,10.404,29.62,2.492,19.895,2.492z"/>
</svg>
