<?xml version="1.0" encoding="utf-8"?>
<!-- Generator: Adobe Illustrator 17.1.0, SVG Export Plug-In . SVG Version: 6.00 Build 0)  -->
<!DOCTYPE svg PUBLIC "-//W3C//DTD SVG 1.1//EN" "http://www.w3.org/Graphics/SVG/1.1/DTD/svg11.dtd">
<svg version="1.1" id="icon" xmlns="http://www.w3.org/2000/svg" xmlns:xlink="http://www.w3.org/1999/xlink" x="0px" y="0px"
	 viewBox="0 0 25 25" enable-background="new 0 0 25 25" xml:space="preserve">
<g>
	<path fill="#333333" d="M11.4,21.9c-2.9-0.3-5.7-1.3-7.9-2.9l2.6-3.9c1.9,1.3,3.6,2.1,5.4,2.4v-3.5C6.9,13,4.5,11.4,4.5,7.8V7.7
		c0-3.4,2.5-5.8,7-6.1v-1.7h3v1.7c2.4,0.3,4.4,1.1,6.1,2.3l-2.4,3.9C17,7,15.6,6.4,14.3,6.1v3.4c4.6,1.1,7,2.7,7,6.4v0.1
		c0,3.6-2.7,5.7-6.9,6.1v2.9h-3V21.9z M11.6,5.8c-1.4,0.1-2,0.7-2,1.5v0.1c0,0.8,0.4,1.2,2,1.6V5.8z M16.2,16.2L16.2,16.2
		c0-0.8-0.4-1.3-2-1.7v3.2C15.6,17.6,16.2,17.1,16.2,16.2z"/>
</g>
</svg>
