<?xml version="1.0" encoding="utf-8"?>
<!-- Generator: Adobe Illustrator 17.1.0, SVG Export Plug-In . SVG Version: 6.00 Build 0)  -->
<!DOCTYPE svg PUBLIC "-//W3C//DTD SVG 1.1//EN" "http://www.w3.org/Graphics/SVG/1.1/DTD/svg11.dtd">
<svg version="1.1" id="icon" xmlns="http://www.w3.org/2000/svg" xmlns:xlink="http://www.w3.org/1999/xlink" x="0px" y="0px"
	 viewBox="0 0 25 25" enable-background="new 0 0 25 25" xml:space="preserve">
<g>
	<g>
		<path fill="#FFFFFF" d="M18.7,15.5H5c-2.8,0-5-2.2-5-5s2.2-5,5-5c0.2,0,0.4,0,0.6,0C6.8,3,9.3,1.3,12.1,1.3c1.8,0,3.4,0.6,4.7,1.8
			c0.6-0.2,1.2-0.3,1.8-0.3c3.5,0,6.3,2.8,6.3,6.3S22.2,15.5,18.7,15.5z M5,6.9c-2,0-3.6,1.6-3.6,3.6S3,14.1,5,14.1h13.7
			c2.7,0,4.9-2.2,4.9-4.9s-2.2-4.9-4.9-4.9c-0.6,0-1.2,0.1-1.8,0.3l-0.4,0.2l-0.3-0.3c-1.1-1.1-2.5-1.7-4.1-1.7
			c-2.4,0-4.6,1.5-5.4,3.8L6.5,7.1L5.9,7C5.6,6.9,5.3,6.9,5,6.9z"/>
	</g>
	<path fill="#FFFFFF" d="M7.9,20.4c-0.2,0.5-0.8,0.7-1.3,0.5C6,20.6,5.8,20,6.1,19.5C6.3,19,8,17.8,8,17.8S8.1,19.9,7.9,20.4z"/>
	<path fill="#FFFFFF" d="M17.8,20.4c-0.2,0.5-0.8,0.7-1.3,0.5c-0.5-0.2-0.7-0.8-0.5-1.3c0.2-0.5,1.9-1.7,1.9-1.7S18,19.9,17.8,20.4z
		"/>
	<path fill="#FFFFFF" d="M12.5,23.1c-0.2,0.5-0.8,0.7-1.3,0.5c-0.5-0.2-0.7-0.8-0.5-1.3c0.2-0.5,1.9-1.7,1.9-1.7
		S12.7,22.6,12.5,23.1z"/>
</g>
</svg>
