<?xml version="1.0" encoding="utf-8"?>
<!-- Generator: Adobe Illustrator 17.1.0, SVG Export Plug-In . SVG Version: 6.00 Build 0)  -->
<!DOCTYPE svg PUBLIC "-//W3C//DTD SVG 1.1//EN" "http://www.w3.org/Graphics/SVG/1.1/DTD/svg11.dtd">
<svg version="1.1" id="icon" xmlns="http://www.w3.org/2000/svg" xmlns:xlink="http://www.w3.org/1999/xlink" x="0px" y="0px"
	 viewBox="0 0 25 25" enable-background="new 0 0 25 25" xml:space="preserve">
<g>
	<path fill="#FFFFFF" d="M13.8,10.7c0.5,0.1,1,0,1.4-0.2l-1.3-1.8l0.4-0.3c0.1,0,0.1,0.1,0.2,0.1C14.8,8.5,15,8.3,15,8
		c0-0.2-0.2-0.5-0.5-0.5c-0.2,0-0.5,0.2-0.5,0.5c0,0,0,0.1,0,0.1l-0.4,0.3l-1.2-1.8c-0.3,0.3-0.5,0.8-0.6,1.2
		C11.6,9.2,12.5,10.5,13.8,10.7z"/>
	<path fill="#FFFFFF" d="M14.3,14.5c0,0,3.4-1.4,9.2-1.6v-1.2H10.6V9.5H2.7v2.1H0.1v5.8h18v-2.1h1.6v2.1h0.2v-2.1h1.6v2.1h2v-3.7
		c0.5,0,1,0,1.5,0v-0.7c-6.7,0-10.5,1.6-10.6,1.6L14.3,14.5z M6,13.9c-0.1,0-0.1,0.1-0.2,0.1L3,14.4l1.1-1.8c0.3-0.4,0.9-0.9,2-1.1
		l-1,1.6c0,0-0.1,0.1-0.1,0.1l-0.3,0.5c-0.1,0.1,0,0.1,0.1,0.1c0.3,0,0.4,0,0.5-0.2c0,0,0.2-0.2,0.3-0.4l1-0.1
		c0.3,0,0.5-0.1,0.5-0.1S6.7,13.6,6,13.9z M8.5,13.5c-0.5,0.2-1.7,0.3-1.7,0.3c0.6-0.7,0.9-0.7,1-0.8c0.5-0.2,1.7-0.4,1.7-0.4
		C9.5,12.6,9.2,13.2,8.5,13.5z M8.3,11.8c-0.4,0.1-0.7,0.1-0.9,0.6c0,0-0.1,0.2-0.3,0.3l-0.1,0l-1.2,0.2c0.2-0.3,0.4-0.7,0.5-0.7
		c0.3-0.4,0.6-0.8,2.1-1.1c0,0,0.8-0.1,1.3-0.2C9.7,10.8,9.3,11.6,8.3,11.8z"/>
</g>
</svg>
