<?xml version="1.0" encoding="utf-8"?>
<!-- Generator: Adobe Illustrator 17.1.0, SVG Export Plug-In . SVG Version: 6.00 Build 0)  -->
<!DOCTYPE svg PUBLIC "-//W3C//DTD SVG 1.1//EN" "http://www.w3.org/Graphics/SVG/1.1/DTD/svg11.dtd">
<svg version="1.1" id="icon" xmlns="http://www.w3.org/2000/svg" xmlns:xlink="http://www.w3.org/1999/xlink" x="0px" y="0px"
	 viewBox="0 0 25 25" enable-background="new 0 0 25 25" xml:space="preserve">
<g>
	<path fill="#333333" d="M24.7,19.8L14.6,2.3c-0.4-0.7-1.2-1.2-2-1.2c-0.8,0-1.6,0.4-2,1.2L0.5,19.8c-0.4,0.7-0.4,1.6,0,2.3
		c0.4,0.7,1.2,1.2,2,1.2h20.2c0.8,0,1.6-0.4,2-1.2C25.2,21.5,25.2,20.6,24.7,19.8z M23.4,21.4c-0.1,0.2-0.4,0.4-0.7,0.4H2.5
		c-0.3,0-0.5-0.1-0.7-0.4c-0.1-0.2-0.1-0.5,0-0.8L12,3.1c0.1-0.2,0.4-0.4,0.7-0.4c0.3,0,0.5,0.1,0.7,0.4l10.1,17.5
		C23.5,20.9,23.5,21.2,23.4,21.4z"/>
	<polygon fill="#333333" points="11.2,8.8 11.9,15.9 13.3,15.9 14,8.8 14,8.5 11.2,8.5 	"/>
	<rect x="11.3" y="17.1" fill="#333333" width="2.6" height="2.5"/>
</g>
</svg>
