<?xml version="1.0" encoding="utf-8"?>
<!-- Generator: Adobe Illustrator 17.1.0, SVG Export Plug-In . SVG Version: 6.00 Build 0)  -->
<!DOCTYPE svg PUBLIC "-//W3C//DTD SVG 1.1//EN" "http://www.w3.org/Graphics/SVG/1.1/DTD/svg11.dtd">
<svg version="1.1" id="icon" xmlns="http://www.w3.org/2000/svg" xmlns:xlink="http://www.w3.org/1999/xlink" x="0px" y="0px"
	 viewBox="0 0 25 25" enable-background="new 0 0 25 25" xml:space="preserve">
<g>
	<path fill="#333333" d="M0.4,24.2c0,0.2,0.1,0.3,0.3,0.3h23.4c0.2,0,0.3-0.1,0.3-0.3V7.5H0.4V24.2z M17.5,10.4h1.7v11.3h-2.4v-8.8
		l-2,0.5l-0.5-2L17.5,10.4z M10,17.2C9.6,17,9,16.8,8.4,16.8h-1l-0.4-1.6l2.7-2.7H5.2v-2.1h7.6v1.9L10,15c0.4,0.1,0.8,0.2,1.1,0.3
		c0.4,0.1,0.7,0.3,1,0.6c0.3,0.2,0.5,0.6,0.7,0.9c0.2,0.4,0.3,0.8,0.3,1.3v0c0,0.5-0.1,1-0.3,1.5c-0.2,0.4-0.5,0.8-0.8,1.2
		c-0.4,0.3-0.8,0.6-1.3,0.8c-0.5,0.2-1.1,0.3-1.7,0.3c-1,0-1.9-0.2-2.6-0.5C5.6,21,5,20.5,4.5,19.9l1.7-1.6c0.4,0.4,0.8,0.8,1.2,1
		c0.4,0.2,0.9,0.3,1.5,0.3c0.5,0,0.9-0.1,1.1-0.4c0.3-0.2,0.4-0.6,0.4-1v0C10.6,17.8,10.4,17.5,10,17.2z"/>
	<path fill="#333333" d="M24.1,0.4H0.7c-0.2,0-0.3,0.1-0.3,0.3v5.4h24.1V0.7C24.4,0.6,24.3,0.4,24.1,0.4z M7.3,4.5
		C6.7,4.5,6.1,4,6.1,3.3s0.5-1.2,1.2-1.2s1.2,0.5,1.2,1.2S8,4.5,7.3,4.5z M17.4,4.5c-0.7,0-1.2-0.5-1.2-1.2s0.5-1.2,1.2-1.2
		c0.7,0,1.2,0.5,1.2,1.2S18.1,4.5,17.4,4.5z"/>
</g>
</svg>
