<?xml version="1.0" encoding="utf-8"?>
<!-- Generator: Adobe Illustrator 17.1.0, SVG Export Plug-In . SVG Version: 6.00 Build 0)  -->
<!DOCTYPE svg PUBLIC "-//W3C//DTD SVG 1.1//EN" "http://www.w3.org/Graphics/SVG/1.1/DTD/svg11.dtd">
<svg version="1.1" id="icon" xmlns="http://www.w3.org/2000/svg" xmlns:xlink="http://www.w3.org/1999/xlink" x="0px" y="0px"
	 viewBox="0 0 25 25" enable-background="new 0 0 25 25" xml:space="preserve">
<g>
	<g>
		<path fill="#333333" d="M18.7,15.3H5c-2.8,0-5-2.2-5-5s2.2-5,5-5c0.2,0,0.4,0,0.6,0c1.1-2.5,3.7-4.2,6.5-4.2
			c1.8,0,3.4,0.6,4.8,1.8c0.6-0.2,1.2-0.3,1.8-0.3C22.2,2.7,25,5.5,25,9S22.2,15.3,18.7,15.3z M5,6.7c-2,0-3.6,1.6-3.6,3.6
			S3,13.9,5,13.9h13.7c2.7,0,4.9-2.2,4.9-4.9s-2.2-4.9-4.9-4.9c-0.6,0-1.2,0.1-1.8,0.3l-0.4,0.2l-0.3-0.3c-1.1-1.1-2.5-1.7-4.1-1.7
			c-2.4,0-4.6,1.5-5.4,3.8L6.5,7L5.9,6.8C5.6,6.8,5.3,6.7,5,6.7z"/>
	</g>
	<path fill="#333333" d="M9.6,20.5L8.9,20l0.7-0.4c0.2-0.1,0.2-0.3,0.1-0.5c-0.1-0.2-0.3-0.2-0.5-0.1l-0.6,0.4v-0.7
		c0-0.2-0.2-0.4-0.4-0.4c-0.2,0-0.4,0.2-0.4,0.4v0.7L7.3,19c-0.2-0.1-0.4-0.1-0.5,0.1c-0.1,0.2-0.1,0.4,0.1,0.5L7.6,20l-0.7,0.4
		c-0.2,0.1-0.2,0.3-0.1,0.5c0.1,0.1,0.2,0.2,0.3,0.2c0.1,0,0.1,0,0.2-0.1l0.6-0.4v0.7c0,0.2,0.2,0.4,0.4,0.4c0.2,0,0.4-0.2,0.4-0.4
		v-0.7l0.6,0.4c0.1,0,0.1,0.1,0.2,0.1c0.1,0,0.2-0.1,0.3-0.2C9.9,20.8,9.8,20.6,9.6,20.5z"/>
	<path fill="#333333" d="M17.6,22.5l-0.7-0.4l0.7-0.4c0.2-0.1,0.2-0.3,0.1-0.5c-0.1-0.2-0.3-0.2-0.5-0.1l-0.6,0.4v-0.7
		c0-0.2-0.2-0.4-0.4-0.4c-0.2,0-0.4,0.2-0.4,0.4v0.7L15.3,21c-0.2-0.1-0.4-0.1-0.5,0.1c-0.1,0.2-0.1,0.4,0.1,0.5l0.7,0.4l-0.7,0.4
		c-0.2,0.1-0.2,0.3-0.1,0.5c0.1,0.1,0.2,0.2,0.3,0.2c0.1,0,0.1,0,0.2-0.1l0.6-0.4v0.7c0,0.2,0.2,0.4,0.4,0.4c0.2,0,0.4-0.2,0.4-0.4
		v-0.7l0.6,0.4c0.1,0,0.1,0.1,0.2,0.1c0.1,0,0.2-0.1,0.3-0.2C17.9,22.9,17.8,22.7,17.6,22.5z"/>
</g>
</svg>
