<?xml version="1.0" encoding="utf-8"?>
<!-- Generator: Adobe Illustrator 17.1.0, SVG Export Plug-In . SVG Version: 6.00 Build 0)  -->
<!DOCTYPE svg PUBLIC "-//W3C//DTD SVG 1.1//EN" "http://www.w3.org/Graphics/SVG/1.1/DTD/svg11.dtd">
<svg version="1.1" id="icon" xmlns="http://www.w3.org/2000/svg" xmlns:xlink="http://www.w3.org/1999/xlink" x="0px" y="0px"
	 viewBox="0 0 13.3 13.2" enable-background="new 0 0 13.3 13.2" xml:space="preserve">
<path fill="#21AAD4" d="M11.4,0.1H1.7c-0.9,0-1.6,0.7-1.6,1.6v9.8c0,0.9,0.7,1.6,1.6,1.6h9.7c0.9,0,1.6-0.7,1.6-1.6V1.8
	C13,0.9,12.3,0.1,11.4,0.1z M9.2,6.7c0,1.5-1.2,2.7-2.7,2.7c-1.5,0-2.7-1.2-2.7-2.7c0-0.4,0.1-0.9,0.3-1.2C4.7,4.6,5.6,4,6.6,4
	c1,0,1.9,0.6,2.4,1.4C9.1,5.8,9.2,6.2,9.2,6.7z M11.6,11c0,0.4-0.3,0.7-0.7,0.7H2.3c-0.4,0-0.7-0.3-0.7-0.7V5.4h1.1
	C2.6,5.8,2.5,6.2,2.5,6.7c0,2.2,1.8,4,4,4c2.2,0,4-1.8,4-4c0-0.4-0.1-0.8-0.2-1.2h1.2L11.6,11L11.6,11z M11.6,3.3
	c0,0.4-0.3,0.7-0.7,0.7h-1C9.5,4,9.2,3.7,9.2,3.3V2.2c0-0.3,0.2-0.5,0.5-0.6h1.2c0.4,0,0.7,0.3,0.7,0.7L11.6,3.3L11.6,3.3z"/>
</svg>
