<?xml version="1.0" encoding="utf-8"?>
<!-- Generator: Adobe Illustrator 17.1.0, SVG Export Plug-In . SVG Version: 6.00 Build 0)  -->
<!DOCTYPE svg PUBLIC "-//W3C//DTD SVG 1.1//EN" "http://www.w3.org/Graphics/SVG/1.1/DTD/svg11.dtd">
<svg version="1.1" id="icon" xmlns="http://www.w3.org/2000/svg" xmlns:xlink="http://www.w3.org/1999/xlink" x="0px" y="0px"
	 viewBox="0 0 16.3 13.2" enable-background="new 0 0 16.3 13.2" xml:space="preserve">
<path fill="#21AAD4" d="M16.3,1.5c-0.6,0.3-1.2,0.4-1.9,0.5c0.7-0.4,1.2-1.1,1.5-1.9c-0.6,0.4-1.4,0.7-2.1,0.8
	c-0.6-0.7-1.5-1.1-2.4-1.1C9.5-0.1,8,1.4,8,3.3C8,3.5,8,3.8,8,4C5.3,3.9,2.8,2.5,1.1,0.5C0.8,1,0.7,1.6,0.7,2.2
	c0,1.2,0.6,2.2,1.5,2.8C1.6,5,1.1,4.8,0.7,4.6c0,0,0,0,0,0c0,1.6,1.2,3,2.7,3.3C3.1,8,2.8,8,2.5,8C2.2,8,2,8,1.8,8
	c0.4,1.3,1.7,2.3,3.1,2.3c-1.1,0.9-2.6,1.4-4.2,1.4c-0.3,0-0.5,0-0.8,0c1.5,1,3.2,1.5,5.1,1.5c6.2,0,9.5-5.1,9.5-9.5
	c0-0.1,0-0.3,0-0.4C15.3,2.7,15.9,2.1,16.3,1.5z"/>
</svg>
