<?xml version="1.0" encoding="utf-8"?>
<!-- Generator: Adobe Illustrator 17.1.0, SVG Export Plug-In . SVG Version: 6.00 Build 0)  -->
<!DOCTYPE svg PUBLIC "-//W3C//DTD SVG 1.1//EN" "http://www.w3.org/Graphics/SVG/1.1/DTD/svg11.dtd">
<svg version="1.1" id="icon" xmlns="http://www.w3.org/2000/svg" xmlns:xlink="http://www.w3.org/1999/xlink" x="0px" y="0px"
	 viewBox="0 0 13.2 13.2" enable-background="new 0 0 13.2 13.2" xml:space="preserve">
<path fill="#21AAD4" d="M7,7.7C6.7,7.6,6.4,7.6,6.2,7.6c-0.2,0-0.5,0-1-0.1c-0.4,0-0.8,0-1.1-0.1c-0.2,0-0.5,0-0.7,0
	c-0.2,0-0.4,0-0.6-0.1c-0.2,0-0.3-0.1-0.4-0.2C2.3,7,2.2,6.8,2.2,6.6c0-0.2,0.1-0.4,0.2-0.5s0.3-0.2,0.4-0.3h1.1
	c0.8,0,1.5-0.3,2.2-0.8C6.7,4.5,7,3.9,7,3.1C7,2.8,7,2.5,6.8,2.2C6.7,1.9,6.6,1.6,6.4,1.4V1.3h2V0.5h-3C5.1,0.4,4.8,0.3,4.6,0.3
	S4.1,0.2,3.8,0.2C2.8,0.2,2,0.5,1.4,1C0.8,1.5,0.5,2.2,0.5,3c0,0.5,0.2,1,0.5,1.4c0.3,0.4,0.7,0.8,1.3,1v0.1C1.8,5.8,1.5,6,1.3,6.3
	C1.1,6.5,1,6.8,1,7.1c0,0.2,0,0.5,0.1,0.6c0.1,0.2,0.2,0.3,0.4,0.4C1.6,8.3,1.8,8.4,2,8.5c0.2,0.1,0.4,0.1,0.5,0.2v0.1
	C1.8,8.8,1.2,9,0.7,9.4C0.2,9.7,0,10.2,0,10.8c0,0.7,0.3,1.3,1,1.7c0.7,0.4,1.6,0.6,3,0.6c0.8,0,1.5-0.1,2-0.2
	c0.5-0.2,1-0.4,1.4-0.6c0.4-0.3,0.6-0.6,0.8-1c0.2-0.4,0.3-0.8,0.3-1.2c0-0.4-0.1-0.8-0.2-1C8.1,8.7,7.9,8.5,7.7,8.2
	C7.5,8,7.2,7.9,7,7.7z M4.9,4.6C4.6,5,4.3,5.2,3.8,5.2C3.3,5.2,2.9,5,2.6,4.6C2.4,4.2,2.2,3.7,2.2,3c0-0.3,0-0.6,0.1-0.8
	c0-0.3,0.1-0.5,0.3-0.7C2.7,1.3,2.8,1.1,3,1s0.4-0.2,0.7-0.2c0.5,0,0.9,0.2,1.2,0.6c0.3,0.4,0.4,1,0.4,1.6C5.3,3.7,5.2,4.2,4.9,4.6z
	 M6.3,11.9c-0.5,0.3-1.2,0.5-2,0.5c-0.5,0-0.9,0-1.3-0.1c-0.3-0.1-0.6-0.2-0.8-0.4c-0.2-0.2-0.4-0.3-0.5-0.5
	c-0.1-0.2-0.1-0.4-0.1-0.6c0-0.5,0.1-0.8,0.4-1.1C2.2,9.3,2.7,9.1,3.3,9C4,9,4.6,9,5.1,9c0.5,0,0.8,0.1,1,0.1
	c0.3,0.1,0.5,0.2,0.7,0.4C6.9,9.8,7,10,7,10.4C7,11,6.8,11.5,6.3,11.9z"/>
<path fill="#21AAD4" d="M10.4,3.1v1.7h0.7V3.1h1.7V2.4h-1.7V0.7h-0.7v1.7H8.7v0.7L10.4,3.1L10.4,3.1z"/>
</svg>
