<?xml version="1.0" encoding="utf-8"?>
<!-- Generator: Adobe Illustrator 17.1.0, SVG Export Plug-In . SVG Version: 6.00 Build 0)  -->
<!DOCTYPE svg PUBLIC "-//W3C//DTD SVG 1.1//EN" "http://www.w3.org/Graphics/SVG/1.1/DTD/svg11.dtd">
<svg version="1.1" id="icon" xmlns="http://www.w3.org/2000/svg" xmlns:xlink="http://www.w3.org/1999/xlink" x="0px" y="0px"
	 viewBox="0 0 18.8 13.2" enable-background="new 0 0 18.8 13.2" xml:space="preserve">
<path fill="#21AAD4" d="M18.6,2.7c0,0,0-2.5-2.9-2.6C12.9,0,9.7,0,9.7,0H9.1c0,0-3.2,0-6,0.1S0.2,2.7,0.2,2.7s-0.4,4.1,0,7.1
	c0.3,2.3,0.8,3.1,3.4,3.2c2.7,0.1,5.5,0.1,5.5,0.1h0.6c0,0,2.8,0,5.5-0.1c2.7-0.1,3.2-0.9,3.4-3.2C19,6.8,18.6,2.7,18.6,2.7z
	 M7.4,9.2V3.9l5.1,2.7L7.4,9.2z"/>
</svg>
