<?xml version="1.0" encoding="utf-8"?>
<!-- Generator: Adobe Illustrator 17.1.0, SVG Export Plug-In . SVG Version: 6.00 Build 0)  -->
<!DOCTYPE svg PUBLIC "-//W3C//DTD SVG 1.1//EN" "http://www.w3.org/Graphics/SVG/1.1/DTD/svg11.dtd">
<svg version="1.1" id="icon" xmlns="http://www.w3.org/2000/svg" xmlns:xlink="http://www.w3.org/1999/xlink" x="0px" y="0px"
	 viewBox="0 0 11.1 13.2" enable-background="new 0 0 11.1 13.2" xml:space="preserve">
<path fill="#21AAD4" d="M8.2,0.1c0,0-1.3,0-2.1,0c-1.2,0-2.6,0.5-2.6,2.3c0,0.6,0,1.2,0,1.9H2.1v2.3h1.5v6.6h2.7V6.6H8l0.2-2.2h-2
	c0,0,0-1,0-1.3c0-0.7,0.7-0.7,0.8-0.7c0.4,0,1,0,1.2,0L8.2,0.1L8.2,0.1C8.2,0.1,8.2,0.1,8.2,0.1z"/>
</svg>
