<?xml version="1.0" encoding="utf-8"?>
<!-- Generator: Adobe Illustrator 17.1.0, SVG Export Plug-In . SVG Version: 6.00 Build 0)  -->
<!DOCTYPE svg PUBLIC "-//W3C//DTD SVG 1.1//EN" "http://www.w3.org/Graphics/SVG/1.1/DTD/svg11.dtd">
<svg version="1.1" id="icon" xmlns="http://www.w3.org/2000/svg" xmlns:xlink="http://www.w3.org/1999/xlink" x="0px" y="0px"
	 viewBox="0 0 13.9 13.2" enable-background="new 0 0 13.9 13.2" xml:space="preserve">
<g id="krecRE_1_">
	<g>
		<g>
			<path fill="#21AAD4" d="M4.3,12.6c-3.1-1.3-4.7-5.1-3.5-8.4c1.3-3.4,5.1-5.1,8.4-3.9c3.4,1.3,5.2,4.9,4,8.4
				c-1.1,3.3-4.8,5.2-8,4.2c0.3-1,0.7-2.1,1-3.1c1,0.9,2.4,1,3.5,0.1c1.5-1.1,2.1-3.7,1.3-5.4C10.5,3.1,9.4,2.4,8,2.2
				C6.1,1.9,4.4,2.4,3.2,4c-0.8,1.2-1,2.4-0.4,3.8c0.2,0.4,0.5,0.7,0.9,1C4,8.9,4.1,8.8,4.2,8.6c0.1-0.4,0.1-0.7-0.1-1
				c-0.5-0.8-0.4-1.6,0-2.4C4.8,3.3,7.5,2.6,9,3.9c0.5,0.4,0.7,1,0.8,1.6c0.1,0.9-0.1,1.9-0.5,2.7C9,8.7,8.6,9.1,8,9.3
				C7.1,9.5,6.5,8.9,6.7,8C6.8,7.4,7,6.8,7.2,6.2c0-0.2,0.1-0.3,0.1-0.5c0-0.5-0.2-0.8-0.5-1C6.4,4.6,5.9,4.7,5.6,5
				C5,5.7,5,6.4,5.2,7.1c0.1,0.3,0.1,0.5,0,0.8c-0.3,1.2-0.5,2.3-0.8,3.5C4.3,11.8,4.3,12.2,4.3,12.6z"/>
		</g>
	</g>
</g>
</svg>
