<?xml version="1.0" encoding="utf-8"?>
<!-- Generator: Adobe Illustrator 17.1.0, SVG Export Plug-In . SVG Version: 6.00 Build 0)  -->
<!DOCTYPE svg PUBLIC "-//W3C//DTD SVG 1.1//EN" "http://www.w3.org/Graphics/SVG/1.1/DTD/svg11.dtd">
<svg version="1.1" id="Icon" xmlns="http://www.w3.org/2000/svg" xmlns:xlink="http://www.w3.org/1999/xlink" x="0px" y="0px"
	 viewBox="-17.5 -17.5 60 60" enable-background="new -17.5 -17.5 60 60" xml:space="preserve">
<g>
	<path fill="#7FD161" d="M42.5,39.6c0,1.6-1.3,3-3,3h-53.9c-1.6,0-3-1.3-3-3v-53.9c0-1.6,1.3-3,3-3h53.9c1.6,0,3,1.3,3,3V39.6z"/>
	<g>
		<g>
			<g>
				<path fill="#FFFFFF" d="M-3,26.7L-5.3,23L5.8,5.2c0.4-0.6,1-0.9,1.7-0.9s1.3,0.4,1.7,0.9l4.3,6.9l7.6-12.2
					c0.4-0.6,1-0.9,1.7-0.9c0.7,0,1.3,0.4,1.7,0.9l5.9,9.5l-2.3,3.7l-5.3-8.4l-7.6,12.2c-0.4,0.6-1,0.9-1.7,0.9
					c-0.7,0-1.3-0.4-1.7-0.9L7.5,10L-3,26.7z"/>
			</g>
		</g>
	</g>
</g>
</svg>
