<?xml version="1.0" encoding="utf-8"?>
<!-- Generator: Adobe Illustrator 17.1.0, SVG Export Plug-In . SVG Version: 6.00 Build 0)  -->
<!DOCTYPE svg PUBLIC "-//W3C//DTD SVG 1.1//EN" "http://www.w3.org/Graphics/SVG/1.1/DTD/svg11.dtd">
<svg version="1.1" id="Icon" xmlns="http://www.w3.org/2000/svg" xmlns:xlink="http://www.w3.org/1999/xlink" x="0px" y="0px"
	 viewBox="-17.5 -17.5 60 60" enable-background="new -17.5 -17.5 60 60" xml:space="preserve">
<g id="church_online_platform">
	<path fill="#FFAC48" d="M42.7,39.6c0,1.6-1.3,3-3,3h-53.9c-1.6,0-3-1.3-3-3v-53.9c0-1.6,1.3-3,3-3h53.9c1.6,0,3,1.3,3,3V39.6z"/>
	<g>
		<g>
			<path fill="#FFFFFF" d="M12.7-5c4.7,0,9,1.9,12.2,4.9l-3,2.6C19.4,0.3,16.2-1,12.7-1C5.2-1-0.9,5.1-0.9,12.6s6.1,13.6,13.6,13.6
				c3.5,0,6.7-1.3,9.1-3.5l3,2.6c-3.2,3.1-7.5,4.9-12.2,4.9C3,30.2-4.9,22.3-4.9,12.6S3-5,12.7-5z M27.4,3l-3.1,2.6
				c1.2,2,1.9,4.4,1.9,7s-0.7,5-1.9,7l3.1,2.6c1.8-2.8,2.8-6,2.8-9.6S29.2,5.8,27.4,3z"/>
		</g>
	</g>
</g>
</svg>
