<?xml version="1.0" encoding="utf-8"?>
<!-- Generator: Adobe Illustrator 17.1.0, SVG Export Plug-In . SVG Version: 6.00 Build 0)  -->
<!DOCTYPE svg PUBLIC "-//W3C//DTD SVG 1.1//EN" "http://www.w3.org/Graphics/SVG/1.1/DTD/svg11.dtd">
<svg version="1.1" id="Icon" xmlns="http://www.w3.org/2000/svg" xmlns:xlink="http://www.w3.org/1999/xlink" x="0px" y="0px"
	 viewBox="0 0 60 60" enable-background="new 0 0 60 60" xml:space="preserve">
<linearGradient id="SVGID_1_" gradientUnits="userSpaceOnUse" x1="30" y1="-8.976713e-10" x2="30" y2="60">
	<stop  offset="0" style="stop-color:#333331"/>
	<stop  offset="1" style="stop-color:#2A2A29"/>
</linearGradient>
<path fill="url(#SVGID_1_)" d="M60,50c0,5.5-4.5,10-10,10H10C4.5,60,0,55.5,0,50V10C0,4.5,4.5,0,10,0h40c5.5,0,10,4.5,10,10V50z"/>
<path id="church_metrics_logomark" fill="#FFFFFF" d="M19.9,39.5c-5.4,0-9.1-4.3-9.1-9.6c0-5.3,3.9-9.3,9-9.3c2.6,0,6.8,1.1,6.8,3.9
	v1.5h-1.7v-1c0-1.7-3-2.7-5.1-2.7c-4.1,0-7.2,3.2-7.2,7.6c0,4.4,3.1,7.9,7.3,7.9c3.8,0,6-2.6,6-2.6l1,1.3
	C26.9,36.5,24.4,39.5,19.9,39.5z M49.3,39.1h-1.8c-1.1,0-1.5-0.5-1.6-1.6L45,26.4c-0.1-1-0.1-2.5-0.1-2.5h-0.1c0,0-0.5,1.6-0.9,2.5
	l-4.3,9.3H38l-4.3-9.3c-0.4-0.9-1-2.6-1-2.6h-0.1c0,0,0,1.6-0.1,2.6l-0.9,11.1c-0.1,1.1-0.5,1.6-1.6,1.6h-1.7v-1.6h1
	c0.4,0,0.5-0.2,0.6-0.6l1.3-16.1H33l4.8,10.6c0.4,0.9,0.9,2.2,0.9,2.2h0.1c0,0,0.5-1.2,0.9-2.2l4.8-10.6h1.8L47.7,37
	c0,0.4,0.2,0.6,0.6,0.6h1L49.3,39.1L49.3,39.1z"/>
</svg>
