<?xml version="1.0" encoding="utf-8"?>
<!-- Generator: Adobe Illustrator 17.1.0, SVG Export Plug-In . SVG Version: 6.00 Build 0)  -->
<!DOCTYPE svg PUBLIC "-//W3C//DTD SVG 1.1//EN" "http://www.w3.org/Graphics/SVG/1.1/DTD/svg11.dtd">
<svg version="1.1" id="Icon" xmlns="http://www.w3.org/2000/svg" xmlns:xlink="http://www.w3.org/1999/xlink" x="0px" y="0px"
	 viewBox="-17.5 -17.5 60 60" enable-background="new -17.5 -17.5 60 60" xml:space="preserve">
<linearGradient id="SVGID_1_" gradientUnits="userSpaceOnUse" x1="30" y1="67" x2="30" y2="-77" gradientTransform="matrix(0.4167 0 0 -0.4167 0 10.4167)">
	<stop  offset="0" style="stop-color:#64B4F2"/>
	<stop  offset="0.5072" style="stop-color:#64B4F2"/>
	<stop  offset="1" style="stop-color:#6497F2"/>
</linearGradient>
<path fill="url(#SVGID_1_)" d="M42.2,32.5c0,5.5-4.5,10-9.9,10H-7.3c-5.5,0-9.9-4.5-9.9-10v-40c0-5.5,4.5-10,9.9-10h39.7
	c5.5,0,9.9,4.5,9.9,10V32.5z"/>
<path fill="#FFFFFF" d="M34.9,11.2L14.4-9.3c-1.2-1.2-3.1-1.2-4.2,0L8-7.1l6.3,6.3l0,0l14.2,14.2l-16,16L-3.8,13.1l13-13L5-4.1
	L-10.1,11c-0.6,0.6-0.9,1.3-0.9,2.1c0,0.8,0.3,1.6,0.9,2.1l20.5,20.5c0.6,0.6,1.4,0.9,2.1,0.9s1.5-0.3,2.1-0.9l20.3-20.3
	c0.6-0.6,0.9-1.3,0.9-2.1S35.4,11.8,34.9,11.2z"/>
</svg>
