<?xml version="1.0" encoding="utf-8"?>
<!-- Generator: Adobe Illustrator 17.1.0, SVG Export Plug-In . SVG Version: 6.00 Build 0)  -->
<!DOCTYPE svg PUBLIC "-//W3C//DTD SVG 1.1//EN" "http://www.w3.org/Graphics/SVG/1.1/DTD/svg11.dtd">
<svg version="1.1" id="Layer_1" xmlns="http://www.w3.org/2000/svg" xmlns:xlink="http://www.w3.org/1999/xlink" x="0px" y="0px"
	 viewBox="-79.2 121 411.5 398" enable-background="new -79.2 121 411.5 398" xml:space="preserve">
<g id="Layer_1_1_">
	<g id="Phones">
		<g>
			<circle fill="#232323" cx="-47.2" cy="463.6" r="18.3"/>
			<path fill="#232323" d="M293.7,480.6c-2.2,0-3.9-1.8-3.9-3.9v-28.8c0-2.2,1.8-3.9,3.9-3.9l0,0c2.2,0,3.9,1.8,3.9,3.9v28.8
				C297.8,478.7,296,480.6,293.7,480.6L293.7,480.6z"/>
			<circle fill="#232323" cx="308.8" cy="462.1" r="3.9"/>
		</g>
		<g>
			<path fill="#E7E7E9" d="M-47.4,518.5c-17.2,0-31.1-13.9-31.1-31.1V352.8c0-17.2,13.9-31.1,31.1-31.1h346
				c17.2,0,31.1,13.9,31.1,31.1v134.7c0,17.2-13.9,31.1-31.1,31.1L-47.4,518.5L-47.4,518.5z"/>
			<path fill="#010005" d="M-47.4,513.1c-14.7,0-26.5-11.9-26.5-26.5V354.1c0-14.7,11.9-26.5,26.5-26.5h345.2
				c14.7,0,26.5,11.9,26.5,26.5v132.5c0,14.7-11.9,26.5-26.5,26.5L-47.4,513.1L-47.4,513.1z"/>
			<rect x="329.6" y="451.8" fill="#E7E7E9" width="2.6" height="31.1"/>
			<circle fill="#232323" cx="-47.2" cy="420.5" r="18.3"/>
			<path fill="#232323" d="M293.7,437.4c-2.2,0-3.9-1.8-3.9-3.9v-28.8c0-2.2,1.8-3.9,3.9-3.9l0,0c2.2,0,3.9,1.8,3.9,3.9v28.8
				C297.8,435.6,296,437.4,293.7,437.4L293.7,437.4z"/>
			<circle fill="#232323" cx="308.8" cy="419" r="3.9"/>
			<rect x="-19.3" y="337.4" fill="#232323" width="291.2" height="165.4"/>
		</g>
	</g>
	<rect x="179.2" y="337.4" fill="#B1DCF1" width="92.6" height="165.5"/>
	<g id="Content">
		<circle fill="#FFFFFF" cx="266.6" cy="342.6" r="1.3"/>
		<circle fill="#FFFFFF" cx="266.6" cy="346.4" r="1.3"/>
		<circle fill="#FFFFFF" cx="266.6" cy="353.6" r="1.3"/>
		<circle fill="#FFFFFF" cx="266.6" cy="357.2" r="1.3"/>
		<circle fill="#FFFFFF" cx="266.6" cy="349.9" r="1.3"/>
		<g enable-background="new    ">
			<path fill="#FFFFFF" d="M269,360.6v0.9h-4.2v2.5h-0.7v-3.4H269z"/>
		</g>
		<g enable-background="new    ">
			<path fill="#FFFFFF" d="M267.5,367.4c0.1-0.1,0.3-0.1,0.4-0.1c0.1-0.1,0.2-0.1,0.3-0.3c0.1-0.1,0.1-0.2,0.2-0.3
				c0.1-0.1,0.1-0.3,0.1-0.5c0-0.3-0.1-0.5-0.1-0.7c-0.1-0.2-0.3-0.3-0.4-0.5c-0.2-0.1-0.4-0.2-0.6-0.3c-0.2-0.1-0.5-0.1-0.7-0.1
				c-0.2,0-0.5,0-0.7,0.1c-0.2,0.1-0.4,0.1-0.6,0.3s-0.3,0.3-0.4,0.5c-0.1,0.2-0.1,0.4-0.1,0.7c0,0.2,0,0.3,0.1,0.5
				c0.1,0.1,0.1,0.3,0.3,0.4c0.1,0.1,0.3,0.2,0.4,0.3c0.1,0.1,0.3,0.1,0.5,0.1v0.8c-0.3,0-0.5-0.1-0.8-0.2c-0.3-0.1-0.5-0.3-0.6-0.4
				c-0.2-0.2-0.3-0.4-0.4-0.7c-0.1-0.3-0.1-0.5-0.1-0.8c0-0.3,0.1-0.7,0.2-1c0.1-0.3,0.3-0.5,0.5-0.7c0.2-0.2,0.5-0.3,0.8-0.5
				c0.3-0.1,0.7-0.1,1-0.1c0.3,0,0.7,0.1,1,0.1s0.6,0.3,0.8,0.5c0.2,0.2,0.4,0.5,0.5,0.7c0.1,0.3,0.2,0.6,0.2,1
				c0,0.3-0.1,0.5-0.1,0.8c-0.1,0.3-0.2,0.5-0.3,0.7c-0.1,0.2-0.3,0.3-0.5,0.5c-0.2,0.1-0.5,0.2-0.7,0.2L267.5,367.4L267.5,367.4z"
				/>
		</g>
		<g enable-background="new    ">
			<path fill="#FFFFFF" d="M269,368.6v4h-0.7V371h-4.2v-0.9h4.2v-1.6C268.3,368.6,269,368.6,269,368.6z"/>
		</g>
		<g enable-background="new    ">
			<path fill="#FFFFFF" d="M269,372.7v0.9l-3.9,1.2l0,0l3.9,1.3v0.9l-4.9-1.7v-0.9L269,372.7z"/>
		</g>
		<g enable-background="new    ">
			<path fill="#FFFFFF" d="M265.6,409.6c-0.2,0-0.3,0.1-0.4,0.2c-0.1,0.1-0.1,0.3-0.1,0.5c0,0.2,0.1,0.3,0.1,0.5
				c0.1,0.1,0.2,0.2,0.4,0.3c0.1,0.1,0.3,0.1,0.5,0.1c0.2,0,0.3,0.1,0.5,0.1l0,0c-0.2-0.1-0.3-0.2-0.4-0.4c-0.1-0.1-0.1-0.3-0.1-0.5
				s0.1-0.4,0.1-0.5c0.1-0.1,0.1-0.3,0.3-0.4c0.1-0.1,0.3-0.2,0.5-0.3c0.2-0.1,0.4-0.1,0.6-0.1c0.2,0,0.4,0,0.6,0.1
				c0.2,0.1,0.3,0.1,0.5,0.3c0.1,0.1,0.3,0.3,0.3,0.5c0.1,0.2,0.1,0.4,0.1,0.6c0,0.3-0.1,0.5-0.2,0.7c-0.1,0.2-0.3,0.3-0.5,0.5
				c-0.2,0.1-0.5,0.2-0.7,0.3s-0.6,0.1-0.9,0.1c-0.3,0-0.5,0-0.8-0.1c-0.3-0.1-0.5-0.1-0.7-0.3c-0.2-0.1-0.4-0.3-0.5-0.5
				c-0.1-0.2-0.2-0.5-0.2-0.7c0-0.2,0-0.3,0.1-0.5c0.1-0.1,0.1-0.3,0.3-0.4c0.1-0.1,0.2-0.2,0.4-0.3c0.1-0.1,0.3-0.1,0.5-0.1
				L265.6,409.6L265.6,409.6z M268.4,410.3c0-0.1,0-0.3-0.1-0.3c-0.1-0.1-0.1-0.2-0.2-0.3c-0.1-0.1-0.2-0.1-0.3-0.1
				c-0.1,0-0.2-0.1-0.3-0.1c-0.1,0-0.2,0-0.3,0.1c-0.1,0-0.2,0.1-0.3,0.1s-0.1,0.1-0.2,0.3c-0.1,0.1-0.1,0.2-0.1,0.3
				c0,0.1,0,0.3,0.1,0.3c0.1,0.1,0.1,0.2,0.2,0.3s0.2,0.1,0.3,0.1c0.1,0,0.2,0.1,0.3,0.1c0.1,0,0.2,0,0.3-0.1c0.1,0,0.2-0.1,0.3-0.1
				c0.1-0.1,0.1-0.1,0.2-0.3C268.3,410.5,268.4,410.4,268.4,410.3z"/>
			<path fill="#FFFFFF" d="M267.7,412.5v0.9h-0.8v-0.9H267.7z M265.4,412.5v0.9h-0.8v-0.9H265.4z"/>
			<path fill="#FFFFFF" d="M265.6,417v-0.5h-1v-0.7h1v-1.9h0.7l2.6,1.9v0.7h-2.8v0.5H265.6z M266.1,414.5v1.4h2l0,0L266.1,414.5z"/>
			<path fill="#FFFFFF" d="M268.9,417.5v3h-0.6c-0.3-0.2-0.5-0.4-0.8-0.6c-0.3-0.2-0.5-0.3-0.9-0.5c-0.3-0.1-0.6-0.3-1-0.3
				c-0.3-0.1-0.7-0.1-1.1-0.2V418c0.3,0,0.7,0.1,1,0.2c0.3,0.1,0.7,0.2,0.9,0.3c0.3,0.1,0.6,0.3,0.9,0.5c0.3,0.2,0.5,0.4,0.8,0.6
				v-2.2H268.9z"/>
			<path fill="#FFFFFF" d="M268.9,424.1v0.8l-4.5,1.7v-0.8l1.1-0.4v-1.8l-1.1-0.4v-0.8L268.9,424.1z M266.3,423.8v1.4l1.9-0.7l0,0
				L266.3,423.8z"/>
			<path fill="#FFFFFF" d="M268.9,427v1.1l-3.4,1.2l0,0l3.4,1.2v1.1h-4.5v-0.7h3.4l0,0l-3.4-1.2V429l3.4-1.2l0,0h-3.4v-0.7
				L268.9,427L268.9,427z"/>
		</g>
		<g>
			<path fill="#FFFFFF" d="M263.9,498.9v-11.6h5.1v11.6H263.9z M264.2,487.5v11.1h4.6v-11.1C268.8,487.5,264.2,487.5,264.2,487.5z"
				/>
		</g>
		<rect x="264.8" y="488" fill="#FFFFFF" width="3.4" height="6.9"/>
		<rect x="265.6" y="499.3" fill="#FFFFFF" width="1.7" height="0.7"/>
	</g>
</g>
<g id="Layer_2">
	<rect x="-20.5" y="338.1" fill="#5F8643" width="113.8" height="164.9"/>
	<path fill="#577E3B" d="M-5,366.1c-0.9,10.1-1,20.1-0.7,30.2c0.7,35.9,5.5,71.6,13.6,106.6h85.5V338.1H-2.6
		C-3,347.4-4.1,356.8-5,366.1z"/>
	<path fill="#47702D" d="M-12.7,465.2c-2-21.5-3.1-43.2-4.2-64.8c-0.5-11.1-1.2-22.3-0.9-33.4c0.1-5.3,0.4-10.7,1.2-16.1
		c0.6-4.3,1.5-8.6,2-12.9h-5.8v164.9H-8C-10,490.4-11.6,477.9-12.7,465.2z"/>
	<path fill="#5F8641" d="M35.8,347.4c-0.9,3.8-1.7,7.7-2.2,11.6c-1.1,8.4-1.6,16.9-1.6,25.4c-0.3,39.6,2,79.1,5.4,118.5h55.9V338.1
		H37.5C37.3,341.2,36.6,344.3,35.8,347.4z"/>
	<path fill="#9A8B63" d="M38.3,363.9c-0.8,9.5-0.9,19.1-1.1,28.6c-0.2,11-0.3,22.1,0.1,33.1c0.4,11,1.6,21.9,2.2,32.9
		c0.9,14.8,1.5,29.7,3.2,44.4h50.6V338.1H41.5C40.8,346.7,39,355.2,38.3,363.9z"/>
	<path fill="#A1926E" d="M47.7,345.4c-1.1,3.9-1.8,8-2.4,12.1c-0.9,7.9-1.3,15.9-1.6,23.8c-1.8,40.7,0.9,81.4,6.8,121.6h42.8V338.1
		H49.8C49.4,340.5,48.5,342.9,47.7,345.4z"/>
	<path fill="#9A8A62" d="M64.5,385.5c-1.3,39.3,1.8,78.6,7.6,117.5h21.3V338.1H68.8C66.5,353.8,65,369.6,64.5,385.5z"/>
	<polygon fill="#96BAA6" points="231.9,337.4 213,337.4 218.4,502.7 225.5,502.9 	"/>
	<polygon fill="#81A663" points="213,337.4 137,337.4 137,502.9 218.4,502.9 	"/>
	<path fill="#658946" d="M71.1,392.6c0.3,10.3,0.3,20.5,0.5,30.7c0.1,10.8,0.7,21.5,1.4,32.3c0.9,15.7,1.1,31.7,3.6,47.3h16.8V338.1
		h-18C70,355.7,70.5,374.4,71.1,392.6z"/>
	<path fill="#5F8643" d="M79.8,344.1c-1.4,4.3-2.1,8.6-2.6,13.1c-0.9,9.2-1.6,18.5-2,27.8c-0.9,21.9,0.3,43.7,2.2,65.4
		c1.5,17.6,3.6,35.2,7.1,52.5h8.8V338.1H81.4C81,340.1,80.4,342,79.8,344.1z"/>
	<path fill="#336343" d="M121,485.7c0.5,0.1,34,0.7,34.7-15.4S121,452.1,121,452.1V485.7z"/>
	<path fill="#386E4A" d="M121,470.3c1,0.9,17.1,12,26.6,3.7c9.5-8.3-9.1-21.5-26.6-17.2V470.3z"/>
	<polygon fill="#5D7471" points="188.4,498.8 181.3,499.1 186.3,471.8 203,470.3 200.9,485.4 	"/>
	<polygon fill="#C6D0CF" points="228.9,502.7 212.5,502.7 200.9,490.8 205.9,488.3 	"/>
	<polygon fill="#C6D0CF" points="228.9,467.2 207.1,469 200.9,446.8 212.8,448.7 	"/>
	<polygon fill="#C6D0CF" points="214.8,444.6 203.4,443.1 189.4,426.2 	"/>
	<polygon fill="#C6D0CF" points="214.8,474.5 203,479.4 204.9,484.1 	"/>
	<polygon fill="#9EA5A3" points="228.9,467.2 205.9,488.3 200.9,490.8 204.9,484.1 203,479.4 207.1,469 	"/>
	<polygon fill="#9EA5A3" points="203.4,443.1 200.9,446.8 212.8,448.7 214.8,444.6 	"/>
	<polygon fill="#77918D" points="203.4,443.1 195.8,443.1 175.2,415.9 189.4,426.2 	"/>
	<polygon fill="#77918D" points="200.9,446.8 195.1,448.7 203,470.3 207.1,469 	"/>
	<polygon fill="#77918D" points="204.9,484.1 200.9,485.4 198.6,480.9 203,479.4 	"/>
	<polygon fill="#77918D" points="200.9,490.8 212.5,502.7 196.1,502.9 188.4,498.8 	"/>
	<polygon fill="#698480" points="195.1,448.7 180.3,452.2 186.3,471.8 203,470.3 	"/>
	<polygon fill="#698480" points="195.8,443.1 182.1,438.2 175.2,415.9 	"/>
	<polygon fill="#698480" points="200.9,485.4 189.4,483.3 198.6,480.9 	"/>
	<polygon fill="#688381" points="196.1,502.9 181.3,502.9 181.3,499.1 188.4,498.8 	"/>
	<polygon fill="#6A807E" points="207.1,469 203,479.4 198.6,480.9 203,470.3 	"/>
	<polygon fill="#627675" points="203.4,443.1 200.9,446.8 195.1,448.7 195.8,443.1 	"/>
	<polygon fill="#586F6B" points="195.8,443.1 195.1,448.7 180.3,452.2 182.1,438.2 	"/>
	<polygon fill="#475955" points="186.3,471.8 162.4,479.4 162.4,502.9 181.3,502.9 	"/>
	<polygon fill="#4B5F5D" points="186.3,471.8 180.3,452.2 169.9,455.2 162.4,479.4 	"/>
	<polygon fill="#475955" points="182.1,438.2 180.3,452.2 169.9,455.2 169.9,437.3 	"/>
	<polygon fill="#415451" points="175.2,415.9 182.1,438.2 169.9,437.3 	"/>
	<path fill="#2B492F" d="M207.1,397.6c0,0-51.2,14.5-51.1,14c0.1-0.5,0-22.8,0-22.8L207.1,397.6z"/>
	<polygon fill="#385A3D" points="207.1,397.6 158.2,404.4 156.7,388.7 	"/>
	<polygon fill="#446C4A" points="202.1,397.6 158.2,397.6 159,391.1 	"/>
	<path fill="#5A4838" d="M195.8,398l-13,1.2c0,0-0.9,3.7-0.7,3.4c0.1-0.3,0-3.2,0-3.2l-11.1,0.9l-1.1,4.2v-4.1l-8.6,0.8l-1.6,4.1
		v-3.6h-9.1l0.6-2.8h12.8l-0.3-4.1l1.8,3.9l12.2-0.3l-0.7-2.2l1.6,2L195.8,398z"/>
	<path fill="#2B492F" d="M193.2,384.3c0,0-76.2,21.6-76,20.8c0.1-0.8,0-34,0-34L193.2,384.3z"/>
	<polygon fill="#385A3D" points="193.2,384.3 120.4,394.4 118.3,371.1 	"/>
	<polygon fill="#446C4A" points="185.8,384.3 120.4,384.3 121.6,374.6 	"/>
	<path fill="#5A4838" d="M176.4,385l-19.2,1.8c0,0-1.4,5.5-1.1,5c0.3-0.5,0-4.9,0-4.9l-16.5,1.4l-1.6,6.3v-6l-12.8,1.1l-2.4,6v-5.5
		h-13.6l0.8-4.3h19.1l-0.5-6l2.7,5.9l18.1-0.5l-1-3.2l2.4,3L176.4,385z"/>
	<path fill="#2B492F" d="M221.5,358c0,0-40.9,11.6-40.8,11.1s0-18.2,0-18.2L221.5,358z"/>
	<polygon fill="#385A3D" points="221.5,358 182.4,363.4 181.2,350.9 	"/>
	<polygon fill="#446C4A" points="217.5,358 182.4,358 183,352.8 	"/>
	<path fill="#5A4838" d="M212.4,358.3l-10.3,1c0,0-0.7,3-0.6,2.7s0-2.6,0-2.6l-8.8,0.7l-0.9,3.4v-3.2l-6.9,0.6l-1.3,3.2v-2.9h-7.3
		l0.5-2.3H187l-0.3-3.2l1.4,3.2l9.7-0.3l-0.5-1.7l1.3,1.6L212.4,358.3z"/>
	<path fill="#2B492F" d="M220.2,347.9c0,0-46.1,13-45.9,12.6c0.1-0.5,0-20.5,0-20.5L220.2,347.9z"/>
	<polygon fill="#385A3D" points="220.2,347.9 176.1,354 174.9,339.9 	"/>
	<polygon fill="#446C4A" points="215.7,347.9 176.1,347.9 176.9,342 	"/>
	<path fill="#5A4838" d="M210,348.3l-11.6,1.1c0,0-0.8,3.3-0.7,3c0.1-0.3,0-2.9,0-2.9l-9.9,0.9l-0.9,3.8v-3.6l-7.8,0.7l-1.5,3.7
		v-3.3h-8.2l0.5-2.6h11.5l-0.3-3.6l1.6,3.5l10.9-0.3l-0.6-1.9l1.4,1.8L210,348.3z"/>
	<path fill="#336343" d="M136.4,458.5c0.7,0.2,44.9,1,45.8-20.3s-45.8-24-45.8-24V458.5z"/>
	<path fill="#386E4A" d="M136.4,438.2c1.4,1.2,22.5,15.8,35.1,4.9c12.6-10.9-12-28.4-35.1-22.6V438.2z"/>
	<path fill="#5A4838" d="M135.7,435.4c-0.3-1.2,21.8,0,21.8,0l-18.2,1c0,0,1.6,4.1,7.3,4.1C146.6,440.5,137.4,442.5,135.7,435.4z"/>
	<path fill="#2B492F" d="M210.7,471.3c0,0-47,13.4-46.9,12.8c0.1-0.5,0-21,0-21L210.7,471.3z"/>
	<polygon fill="#385A3D" points="210.4,471.7 165.4,477.8 164.1,463.5 	"/>
	<polygon fill="#446C4A" points="206.1,471.3 165.7,471.3 166.4,465.3 	"/>
	<path fill="#5A4838" d="M200,472.1l-11.9,1.1c0,0-0.8,3.4-0.7,3.1s0-3,0-3l-10.2,0.9l-1,3.8v-3.7l-7.9,0.7l-1.4,3.7v-3.4h-8.4
		l0.5-2.6h11.8l-0.3-3.7l1.7,3.6l11.1-0.3l-0.6-2l1.4,1.9L200,472.1z"/>
	<rect x="93.3" y="338.1" fill="#101010" width="43.6" height="164.9"/>
	<g>
		<g>
			<g>
				<g>
					<defs>
						<path id="SVGID_1_" d="M105.4,486.2c-3.2,0-5.9-2.6-5.9-5.8v-18.9c0-3.2,2.6-5.9,5.9-5.9h19.1c3.3,0,5.9,2.6,5.9,5.8v18.9
							c0,3.2-2.6,5.8-5.9,5.8L105.4,486.2L105.4,486.2z"/>
					</defs>
					<clipPath id="SVGID_2_">
						<use xlink:href="#SVGID_1_"  overflow="visible"/>
					</clipPath>
					<g clip-path="url(#SVGID_2_)">
						<g>
							<path fill="#FEC919" d="M99.5,484.7c0-1.3,0-2.6,0-3.8c0.1-0.1,0.1-0.2,0.3-0.3c1.3-0.8,2.6-1.6,3.8-2.5
								c0.7-0.5,1.6-0.9,2.3-1.5c0.3-0.3,0.7-0.5,1.1-0.7c0.1-0.1,0.2-0.1,0.3,0c0.1,0.7,0.1,1.4,0.3,2.1c0.1,0.3,0.1,0.5,0.3,0.7
								c0.1,0.3,0.3,0.5,0.7,0.5c0.2,0.1,0.5,0,0.7,0.1c0.1,0.2-0.1,0.3-0.1,0.5c-0.5,0.7-0.9,1.4-1.4,2.1c-0.9,1.3-1.8,2.6-2.6,3.8
								c-0.1,0.1-0.2,0.3-0.4,0.3c-1.1,0-2.4,0-3.5,0c-0.7,0-1.1-0.3-1.5-0.7C99.6,485.2,99.6,484.9,99.5,484.7z"/>
							<path fill="#FEC619" d="M99.5,461c0-1.4,0-2.7,0-4.1c0.1-0.2,0.1-0.5,0.2-0.7c0.3-0.5,0.9-0.7,1.5-0.7c1.1,0,2.4,0,3.5,0
								c0.2,0,0.3,0.2,0.3,0.3c0.9,1.4,1.8,2.6,2.6,4c0.3,0.5,0.7,1.1,1.1,1.7c0.1,0.1,0.1,0.1,0.1,0.3c-0.1,0.5-0.1,1-0.1,1.6
								c0,0.2,0,0.4,0.1,0.6c0.1,0.1,0,0.3-0.1,0.3c-0.1,0.1-0.3,0.1-0.5,0.1c-0.2,0.1-0.3,0.1-0.3,0.3c0,0.4-0.1,0.7,0.1,1.1
								c0,0.1,0,0.2-0.1,0.3c-0.1,0.1-0.1,0.1-0.2,0.1c-0.4-0.3-0.9-0.5-1.2-0.9c0-0.1,0-0.1,0.1-0.2c0.2-0.3,0.1-0.6-0.1-0.9
								c-0.5-0.9-1.1-1.8-1.8-2.5c-0.2-0.2-0.5-0.3-0.7-0.3c-1.1-0.1-2.3-0.2-3.4-0.3c-0.1,0-0.3,0-0.5,0
								C99.8,461.2,99.6,461.2,99.5,461z"/>
							<path fill="#4F65A8" d="M99.5,461c1.6,0.1,3.1,0.3,4.7,0.3c0.2,0,0.4,0.1,0.5,0.3c0.9,0.9,1.6,2,2.2,3c0.1,0.1,0.1,0.1,0,0.3
								c-0.1,0.2-0.2,0.3-0.3,0.5c0,0.1,0,0.1-0.1,0.2c-0.5,1-1.5,1.7-2.4,2.4c-1.4,1.1-2.9,2.2-4.3,3.2c-0.1,0.1-0.2,0.2-0.3,0.1
								c0-0.5,0-0.9,0-1.4c0.1-0.1,0.1-0.2,0.3-0.3c0.3-0.1,0.5-0.3,0.7-0.5c0.7-0.5,1.1-1.1,1.8-1.6c0.5-0.5,1-1,1.5-1.6
								c0.3-0.3,0.5-0.6,0.7-0.7c-0.2,0.3-0.5,0.6-0.9,0.9c-0.4,0.4-0.7,0.8-1.1,1.1s-0.8,0.8-1.4,1.1c-0.1,0-0.1,0.1-0.1,0.1
								c-0.3,0.5-0.9,0.7-1.4,1c-0.1,0.1-0.1,0.1-0.3,0.1c0-0.6,0-1.3,0-1.9c0.1-0.1,0.1-0.2,0.3-0.3c0.9-0.5,1.7-1,2.5-1.6
								c1.1-0.7,2.1-1.7,2.8-2.8c-0.3,0.7-1.4,1.8-2,2.2c-0.9,0.7-1.8,1.3-2.7,1.8c-0.3,0.1-0.5,0.3-0.8,0.4c0-0.9,0-1.8,0-2.7
								c0.1-0.1,0.1-0.1,0.2-0.2c0.9-0.5,1.6-0.9,2.4-1.5c0.4-0.3,0.8-0.5,1.2-0.9c0.1-0.1,0.1-0.1,0.1-0.1
								c-0.1-0.1-0.3-0.1-0.3-0.1c-1.1-0.1-2.1-0.4-3.2-0.5c-0.1,0-0.3,0-0.3-0.1C99.5,461.3,99.5,461.2,99.5,461z"/>
							<path fill="#E0DCD9" d="M99.5,471.4c0.5-0.3,0.9-0.7,1.5-1.1c1.3-0.9,2.6-2,3.8-2.9c0.7-0.5,1.3-1.1,1.8-1.8
								c0.1,0.1,0.1,0.1,0.1,0.2c-0.1,0.2-0.2,0.3-0.3,0.5c-1.1,1.2-2.2,2.4-3.2,3.6c-0.3,0.3-0.5,0.7-0.9,0.9
								c-0.1,0.1-0.1,0.2-0.1,0.3c-0.2,0.1-0.3,0.4-0.5,0.5c-0.1,0-0.2-0.1-0.3-0.3c0-0.1-0.1-0.1-0.1-0.1c0.1,0.1,0.1,0.1,0.1,0.1
								c0.1,0.1,0.1,0.1,0.2,0.3c0,0.3-0.3,0.3-0.3,0.5c-0.1,0.1-0.2,0.3-0.3,0.4c0.2,0,0.3,0,0.5-0.1c0.1,0,0.3-0.1,0.5,0.1
								c0.1,0.1-0.1,0.2-0.1,0.3c-0.1,0.1-0.1,0.3-0.1,0.4c0.1-0.1,0.1-0.2,0.1-0.3c0.1-0.1,0.1-0.3,0.1-0.5
								c0.1-0.1,0.3-0.1,0.4-0.1c0.2,0.1,0.3,0.3,0.4,0.4c0,0.1,0.1,0.1,0.1,0.1l0.1,0.1l-0.1-0.1l-0.1-0.1
								c-0.1-0.1-0.3-0.2-0.2-0.4c0.3-0.1,0.8-0.1,1.3-0.1c0.1,0,0.2,0,0.3,0c0.9-0.1,1.8-0.2,2.6-0.3c0.2,0,0.4-0.1,0.6,0
								c0.1,0.1,0.1,0.1,0.1,0.1c0,0.1,0,0.3,0,0.3c-0.1,0.2-0.1,0.5-0.1,0.7c0,0.2,0,0.4,0,0.6c-0.1,0.1-0.1,0.3-0.3,0.3
								c-0.5,0.3-0.9,0.5-1.4,0.7c-0.8,0.4-1.6,0.8-2.5,1.1c-1,0.4-2.1,0.7-3.2,1.1c-0.1,0.1-0.3,0.1-0.4,0
								C99.5,475.3,99.5,473.4,99.5,471.4z"/>
							<path fill="#FED74E" d="M99.5,477.2c0.4-0.1,0.8-0.2,1.2-0.3c0.7-0.3,1.6-0.5,2.2-0.8c0.1,0,0.1,0,0.1-0.1
								c0.1,0,0.1,0.1,0.1,0.1c-0.1,0.2-0.1,0.3,0.1,0.5c0.1,0.3,0.3,0.5,0.5,0.7c0.1,0.3,0.2,0.5,0,0.7c-1.3,0.8-2.6,1.7-3.8,2.5
								c-0.1,0.1-0.1,0.1-0.3,0.1C99.5,479.7,99.5,478.4,99.5,477.2z"/>
							<path fill="#D6D2CF" d="M103.5,462.3c-0.5,0.4-0.9,0.7-1.4,1.1c-0.7,0.1-1.5,0.1-2.2,0.2c-0.2,0-0.3,0.1-0.3,0.3
								c0,0.2,0,0.4,0,0.6c0,0.1,0,0.3-0.1,0.3c0-0.5,0-0.9,0-1.5c0.1-0.1,0.1-0.3,0.1-0.4c0-0.3,0.1-0.3,0.3-0.4
								c0.5-0.1,1.1-0.1,1.8-0.2c0.3-0.1,0.7,0,0.9-0.1C103,462,103.3,462.1,103.5,462.3C103.5,462.2,103.5,462.3,103.5,462.3z"/>
							<path fill="#CECAC7" d="M103.5,462.3c-0.1-0.1-0.3-0.1-0.5-0.1c-0.1,0-0.1,0-0.1,0c-0.3,0.4-0.8,0.3-1.2,0.3
								c-0.6,0.1-1.2,0.1-1.8,0.2c-0.2,0-0.3,0.1-0.3,0.3c0,0.1,0.1,0.3-0.1,0.3c0-0.6,0-1.3,0-1.9c0.8,0.1,1.6,0.3,2.4,0.3
								c0.5,0.1,1,0.2,1.6,0.3C103.5,462.1,103.6,462.1,103.5,462.3z"/>
							<path fill="#DFDBD8" d="M99.5,464.8c0.1-0.3,0.1-0.7,0.1-0.9c0-0.3,0.1-0.4,0.3-0.4c0.7-0.1,1.4-0.1,2-0.2
								c0.1,0,0.2,0,0.3,0.1c-0.8,0.6-1.8,1.1-2.6,1.6C99.5,464.9,99.5,464.8,99.5,464.8z"/>
							<path fill="#494F81" d="M99.5,467.7c0.3-0.3,0.7-0.5,1.1-0.7c0.5-0.3,0.9-0.6,1.4-0.9c0.4-0.3,0.7-0.5,1.1-0.8
								c0.7-0.5,1.2-1.1,1.8-1.9c0.1-0.1,0.1-0.2,0.2-0.3c-0.1,0.3-0.3,0.7-0.6,0.9c-0.5,0.7-1.2,1.3-2,1.8
								c-0.9,0.7-1.8,1.2-2.8,1.8c-0.1,0.1-0.2,0.1-0.3,0.2C99.5,467.8,99.5,467.7,99.5,467.7z"/>
							<path fill="#484F80" d="M99.5,469.8c0.3-0.1,0.5-0.4,0.8-0.5c0.1-0.1,0.3-0.2,0.5-0.3c0.1,0,0.1-0.1,0.1-0.1
								c0.4-0.5,1-0.9,1.5-1.4c0.5-0.5,0.9-0.9,1.5-1.5c0.3-0.3,0.7-0.7,1.1-1.1c-0.3,0.3-0.6,0.7-0.9,1.1c-0.5,0.5-0.9,0.9-1.4,1.4
								c-0.5,0.4-0.9,0.9-1.4,1.3c-0.4,0.3-0.7,0.7-1.1,0.9c-0.1,0.1-0.4,0.1-0.5,0.3C99.5,470,99.5,469.8,99.5,469.8z"/>
							<path fill="#533327" d="M109.2,479.4c-0.3-0.1-0.6-0.1-0.9-0.1c-0.3-0.1-0.5-0.1-0.5-0.5c0-0.3-0.2-0.5-0.2-0.9
								c0-0.1-0.1-0.3,0.1-0.4c0.3,0,0.5,0,0.7,0c-0.3,0.1-0.5-0.1-0.9,0.1c-0.2-0.2-0.1-0.5-0.2-0.7c-0.1-0.8-0.2-1.7-0.1-2.5
								c0-0.1,0-0.3,0.1-0.5c0.2-0.1,0.5-0.1,0.7-0.1c-0.2,0.1-0.4-0.1-0.7,0.1c-0.1,0-0.1-0.1-0.1-0.1c-0.1-0.6,0-1.1,0.1-1.8
								c0.1-0.3,0.3-0.5,0.7-0.5s0.5,0.1,0.8,0.1c0.5,0.1,1.1,0.1,1.7-0.1c0.1,0,0.1-0.1,0.1-0.1c0.1,0,0.2-0.1,0.3,0.1
								c0.1,0.1,0,0.2-0.1,0.3c-0.1,0.1-0.2,0.2-0.3,0.3c-0.1,0.2-0.2,0.4-0.1,0.7c0.2,0.3,0.3,0.6,0.6,0.9c0.1-0.2,0.1-0.5,0.3-0.7
								c0.1-0.1,0.3-0.1,0.5-0.1c-0.1,0-0.1,0-0.1-0.1c-0.1-0.1-0.1-0.3-0.1-0.4c0.1-0.3,0.1-0.5,0.3-0.7c0.2-0.3,0.6-0.3,0.9-0.2
								c0.3,0.1,0.7,0.7,0.5,1c-0.3,0.1-0.5,0-0.7,0.1c0.3,0,0.5,0.1,0.9-0.1c0.1,0,0.1,0.1,0.1,0.1s0,0.1,0,0.1
								c-0.1,0.3,0,0.7,0,0.9c0,0.3-0.1,0.3-0.3,0.3c-0.1,0-0.3,0-0.5,0c0.1,0,0.3,0,0.5,0c0.3-0.1,0.4,0.1,0.4,0.3
								c0,0.1,0.1,0.3,0.1,0.3c-0.1,0.5-0.5,1-0.8,1.6c-0.1,0.2-0.2,0.3-0.3,0.5c0.5,0.1,0.9,0.1,1.4,0.3c0.4,0.1,0.8,0.3,1.1,0.5
								c0.1,0.1,0.3,0.1,0.3,0.3c-0.1,0.1-0.3,0.1-0.3,0.1c-0.1,0-0.2,0-0.3,0c0.3,0,0.5,0,0.9-0.1c0.1,0,0.1,0.1,0.3,0.1
								c0.1,0.1,0.3,0,0.5,0.1c0.1,0.1,0.2,0.1,0.3,0.1c0,0.1-0.1,0.1-0.1,0.1c-1,0-2,0.3-3,0.5c-0.1,0-0.2,0.1-0.3,0.1
								c-0.9,0.2-1.8,0.3-2.8,0.3c-0.3,0-0.5,0.1-0.9,0.1C109.5,479.5,109.3,479.5,109.2,479.4z"/>
							<path fill="#4B2D23" d="M107.3,473.8c-0.1,0.6-0.1,1.2-0.1,1.9c0,0.5,0.1,0.9,0.1,1.4c0,0.1,0.1,0.3,0.1,0.5l0,0
								c0,0.3,0.1,0.7,0.2,1.1c0.1,0.1,0.1,0.1,0,0.2c-0.4-0.9-0.5-2-0.5-2.9c-0.1-0.1-0.1-0.1-0.1-0.3c0.1-0.2,0-0.5-0.1-0.7
								c-0.1-0.3-0.1-0.7,0.1-0.9c0-0.2,0-0.5,0.1-0.7c0.1-0.2,0-0.5,0.1-0.7c0-0.1,0-0.2,0-0.3c0-0.1-0.1-0.3-0.1-0.5
								c0.1-1.6,0.5-3,1.6-4.2c0.8-0.8,1.8-1.4,3-1.8c0.1-0.1,0.1-0.1,0.3-0.1c0.1,0,0.1,0.1,0.1,0.1c0.1,0.1,0,0.1-0.1,0.1
								c-0.3,0.2-0.6,0.3-0.9,0.5c-0.1,0.1-0.3,0.1-0.3,0.2c-0.1,0,0,0,0,0s0,0,0.1,0c0.1,0,0.3-0.1,0.3,0.1
								c-0.1,0.1-0.3,0.1-0.4,0.1c-0.1,0-0.3,0-0.3,0.1c0.1,0.1,0.1,0.1,0.3,0.1c0.5,0,1,0,1.6,0.1c0.7,0.1,1.4,0,2.1-0.1
								c0.1,0,0.3-0.1,0.3,0.1c0.1,0.1,0,0.3-0.1,0.3c-0.5,0.6-1.1,1.2-1.6,1.8c-0.7,0.7-0.7,0.5-0.1,1.4c0,0.1,0,0,0,0
								c0.3,0.5,0.5,0.9,0.8,1.4c0.1,0.2,0.3,0.3,0.1,0.6c-0.1,0-0.1-0.1-0.1-0.1c-0.1,0-0.1,0-0.1-0.1c-0.1-0.5-0.5-0.9-0.9-0.9
								c-0.3,0-0.5,0.3-0.6,0.5c-0.1,0.2-0.3,0.4-0.1,0.6c-0.1,0.1-0.1,0.1-0.3,0.1c-0.1-0.1-0.1-0.2-0.1-0.3
								c0.1-0.4,0.2-0.8,0.3-1.1c0.1-0.2,0.1-0.2,0.5-0.2c-0.3,0-0.5,0-0.7,0.1c-0.1,0.1-0.3,0.2-0.5,0.3c-0.3,0.2-0.5,0.5-0.5,0.9
								c0,0.1,0,0.1-0.1,0.2c-0.1,0.1-0.1-0.1-0.1-0.1c-0.1-0.3,0.1-0.6,0.3-0.9c0.1-0.1,0.3-0.2,0.3-0.3c-0.1-0.1-0.2,0-0.3,0
								c-0.7,0.3-1.4,0.3-2,0.1c-0.3-0.1-0.5,0-0.7-0.1c-0.2,0-0.3,0.1-0.3,0.3c-0.1,0.2-0.1,0.5-0.2,0.7c-0.1,0.3-0.1,0.7-0.1,1
								C107.3,473.6,107.3,473.7,107.3,473.8L107.3,473.8z"/>
							<path fill="#FED74E" d="M111.7,486.2c-2.4,0-4.7,0-7,0c0.9-1.4,1.8-2.6,2.6-4c0.1-0.1,0.1-0.1,0.2-0.3c0.3-0.2,0.5-0.1,0.7,0
								c1.1,0.6,2.2,1.1,3.4,1.4c0.3,0.1,0.4,0.3,0.5,0.5c0.1,0.1,0,0.3,0,0.3c-0.1,0.5-0.3,1.1-0.3,1.7
								C111.8,486,111.8,486.1,111.7,486.2z"/>
							<path fill="#FEDE6B" d="M112.2,483.7c-0.1-0.3-0.5-0.3-0.9-0.5c-1.1-0.3-2.2-0.7-3.2-1.4c-0.2-0.1-0.4,0-0.6-0.1
								c0.5-0.7,0.9-1.4,1.4-2.1c0.2-0.1,0.5-0.1,0.7,0c0.7,0.5,1.6,0.8,2.5,1c0.3,0.1,0.5,0.2,0.6,0.5c0,0.5-0.2,1-0.3,1.6
								c-0.1,0.2-0.1,0.4-0.1,0.6C112.3,483.6,112.2,483.7,112.2,483.7z"/>
							<path fill="#FEDE68" d="M103.6,478.2c0.2-0.5-0.3-0.9-0.4-1.3c-0.1-0.1-0.1-0.1-0.1-0.2c-0.1-0.3-0.1-0.5,0.1-0.7
								c0.8-0.3,1.6-0.7,2.5-1.1c0.1-0.1,0.1,0.1,0.1,0.1c-0.1,0.3,0.1,0.5,0.2,0.7c0.1,0.1,0.1,0.2,0.2,0.3
								c0.1,0.3-0.1,0.4-0.2,0.5C105.2,477.3,104.3,477.7,103.6,478.2z"/>
							<path fill="#FEE27A" d="M112.7,481.3c-0.3-0.3-0.7-0.3-1.1-0.5c-0.6-0.1-1.1-0.4-1.8-0.7c-0.3-0.1-0.5-0.4-0.9-0.3
								c0.1-0.1,0.1-0.3,0.3-0.4c1.4,0,2.6-0.2,4-0.4c0.1,0.1,0.1,0.2,0.1,0.3c-0.1,0.6-0.2,1.1-0.4,1.8
								C112.9,481.2,112.9,481.2,112.7,481.3z"/>
							<path fill="#FDE480" d="M105.9,476.7c0.2-0.3,0.1-0.5-0.1-0.9c-0.2-0.3-0.3-0.5-0.2-0.9c0.5-0.3,1.1-0.5,1.6-0.9
								c0,0.3,0,0.7,0.1,1c0.1,0.2,0,0.5,0.1,0.7c0,0.1,0,0.1,0,0.2C106.8,476.1,106.3,476.4,105.9,476.7z"/>
							<path fill="#FED74E" d="M104.8,455.6c2.4,0,4.7,0,7,0c0.1,0.1,0.1,0.1,0.1,0.3c0.1,0.7,0.3,1.4,0.4,2c0,0.1,0,0.1,0,0.2
								c-0.1,0.3-0.4,0.3-0.7,0.5c-1.1,0.3-2.2,0.7-3.2,1.4c-0.3,0.1-0.5,0.2-0.7-0.1c-0.7-0.9-1.4-2-2-2.9
								C105.4,456.5,105,456,104.8,455.6z"/>
							<path fill="#351F15" d="M111.9,465.8c-0.6,0.1-1.1,0.5-1.8,0.7c-0.5,0.3-0.9,0.7-1.4,1c-0.4,0-0.7-0.1-0.9-0.5
								c-0.1-0.3-0.1-0.5,0.1-0.7c0-0.5-0.1-1.1-0.1-1.6c0-0.2,0.1-0.3,0.3-0.3c0.2,0,0.4-0.1,0.6-0.1c0.2,0,0.2-0.1,0.1-0.3
								c-0.1-0.7-0.1-1.4,0.1-2.2c0.2-0.1,0.3,0.1,0.5,0.1c0.1,0.1,0.1,0.1,0.2,0.1c0.4,0.3,0.9,0.5,1.4,0.7
								c0.1,0.1,0.4,0.1,0.5,0.2c-0.1,0.3-0.3,0.1-0.4,0.1c-0.6-0.1-1.1-0.3-1.7-0.7c-0.3-0.2-0.3-0.2-0.4,0.2c-0.1,0.2,0,0.5,0,0.7
								c0,0.2,0.1,0.3,0.3,0.3c0.4,0.1,0.9,0.2,1.3,0.1c0.3-0.1,0.5,0.1,0.7,0.1c0.4,0.3,0.8,0.3,1.3,0.1c0.1-0.1,0.1-0.1,0.3,0.1
								c0,0.2-0.1,0.3-0.3,0.3c-0.7,0.1-1.5-0.1-2.2,0c-0.3,0-0.7,0-1.1-0.1c-0.2-0.1-0.4,0-0.6-0.1c0.1,0,0.3,0,0.4,0
								c0.3,0.1,0.7,0.1,1.1,0.1c0.7,0,1.6,0,2.4,0.1c0.2,0.2,0.1,0.5,0,0.7c-0.1,0.1-0.1,0.1-0.2,0.1c-0.9,0.3-1.8,0.6-2.7,0.9
								c-0.1,0.1-0.3,0.1-0.3,0.1c0.1,0,0.1-0.1,0.1-0.1c0.1-0.1,0.1-0.1,0.3-0.1c0.9-0.3,1.9-0.7,2.8-1c0.1,0,0.1,0,0.1,0.1
								c0.1,0.2-0.1,0.3-0.3,0.3C112.2,465.8,112,465.8,111.9,465.8z"/>
							<path fill="#FEDF6C" d="M109.3,462.1c-0.2,0-0.2-0.2-0.3-0.3c-0.1,0-0.1-0.1-0.1-0.1c-0.5-0.6-0.9-1.2-1.3-1.9
								c0.4,0.3,0.7-0.1,1-0.3c0.9-0.5,2-0.9,3-1.1c0.2-0.1,0.4-0.1,0.5-0.3c0-0.1,0.1,0,0.1,0c0.1,0.1,0.2,0.2,0.2,0.3
								c0.1,0.6,0.3,1.3,0.4,1.9c0,0.1,0,0.1,0,0.2c-0.1,0.3-0.3,0.5-0.7,0.5c-0.7,0.2-1.6,0.5-2.2,0.9
								C109.7,462.1,109.5,462.1,109.3,462.1z"/>
							<path fill="#FEE482" d="M107.9,466.3c0,0.3,0,0.5,0.1,0.9c-0.1,0.1-0.2,0-0.3-0.1c-0.2-0.1-0.3-0.2-0.5-0.3
								c-0.4-0.2-0.5-0.5-0.5-0.9c0-0.1,0-0.1-0.1-0.3c0.1-0.1,0.1-0.1,0.1-0.1C107,465.8,107.5,466,107.9,466.3z"/>
							<path fill="#3A241D" d="M108.9,461.7c0.1-0.1,0.1,0.1,0.1,0.1c-0.2,0.3-0.1,0.7-0.2,1.1c-0.1,0.3-0.1,0.6,0.1,0.9
								c0.1,0.1,0.1,0.3-0.2,0.3c0.1-0.1,0.1-0.1,0.1-0.2C108.7,463.3,108.7,462.5,108.9,461.7z"/>
							<path fill="#B2806B" d="M106.5,465.9c0.1,0.6,0.5,0.9,1,1.1c0.1,0.1,0.3,0.1,0.3,0.2c0.3,0.1,0.6,0.3,0.9,0.4
								c0,0.1-0.1,0.3-0.3,0.4c-0.6,0.9-0.9,1.9-1.1,3c-0.1,0.3-0.1,0.5-0.1,0.8c-0.3,0.1-0.5,0-0.7,0c-0.1,0-0.3-0.1-0.5-0.1
								c0.3,0,0.6,0.1,0.9,0.1c0.3,0.1,0.3,0.2,0.2,0.4c-1.1,0.1-2.2,0.2-3.2,0.3c-0.4,0-0.6-0.3-0.7-0.6s-0.1-0.7-0.3-1
								c-0.1-0.3-0.2-0.6-0.1-0.9C104.1,468.6,105.3,467.3,106.5,465.9z"/>
							<path fill="#A7745C" d="M102.9,470c0,0.4,0.1,0.7,0.3,1.1c0.1,0.3,0.2,0.7,0.3,0.9c0.1,0.3,0.3,0.3,0.5,0.4
								c-0.5,0.1-1.1,0.1-1.7,0.3c-0.5-0.2-0.5-0.5-0.5-0.9c0.1-0.3,0.1-0.5,0.2-0.7c0.1-0.1,0.1-0.1,0-0.3c0-0.1,0.1-0.1,0.1-0.1
								c0.2,0.2,0.2-0.1,0.3-0.1C102.5,470.4,102.7,470.2,102.9,470z"/>
							<path fill="#9F6E55" d="M101.5,472.8c-0.4-0.1-0.7,0.1-1.1,0.1c0.3-0.4,0.7-0.7,0.9-1.1C101.7,472,101.8,472.5,101.5,472.8z"
								/>
							<path fill="#533529" d="M101.5,472.8L101.5,472.8c0.1-0.5,0.1-0.7-0.3-1c-0.1-0.1-0.1-0.1-0.2-0.3c-0.1-0.1,0-0.1,0.1-0.1
								c0.1,0.1,0.1,0.1,0.3,0.2c0.1,0,0.1,0.1,0.3,0.1c0.1-0.2,0.1-0.5,0.3-0.7c0.1-0.1,0.1-0.2,0.1-0.3c0.1,0.1,0.1,0.2,0,0.3
								c-0.1,0.1-0.1,0.2-0.1,0.3c-0.2,0.5-0.1,0.9,0.3,1.3c0.1,0.1,0.2,0.3,0.3,0.3c-0.1,0-0.1,0-0.1,0c-0.1-0.1-0.3-0.3-0.3-0.3
								c-0.1-0.1-0.2-0.1-0.3-0.2c-0.1,0.1-0.1,0.1-0.1,0.2c-0.1,0.1-0.1,0.3-0.1,0.5c-0.1,0-0.1-0.1-0.1-0.1
								S101.5,472.9,101.5,472.8z"/>
							<path fill="#7E5146" d="M107.3,472.2c0.1-0.2,0-0.3-0.2-0.3c-0.4-0.1-0.8-0.1-1.2-0.2c0.5-0.1,1,0.1,1.6,0.1
								c0,0.2,0.1,0.3-0.1,0.5C107.3,472.3,107.3,472.2,107.3,472.2z"/>
							<path fill="#A27057" d="M101.8,471.2c0.1,0.3-0.1,0.5-0.1,0.9c-0.1-0.1-0.3-0.3-0.3-0.4C101.5,471.6,101.6,471.4,101.8,471.2
								z"/>
							<path fill="#A5745B" d="M101.6,472.7c0-0.1,0.1-0.3,0.1-0.4c0.1,0.1,0.3,0.3,0.3,0.3C101.9,472.7,101.8,472.7,101.6,472.7z"
								/>
							<path fill="#A89A93" d="M102.1,470.6c-0.1-0.1,0.1-0.3,0.1-0.4C102.2,470.4,102.1,470.5,102.1,470.6
								C102.1,470.6,102.1,470.6,102.1,470.6z"/>
							<path fill="#9F6E55" d="M101.4,473.1c0,0.1,0.1,0.1,0.1,0.1c-0.1,0.1-0.1,0.3-0.1,0.5C101.4,473.5,101.4,473.3,101.4,473.1z"
								/>
							<path fill="#88746A" d="M101.1,471.5L101.1,471.5c-0.1-0.1-0.3-0.1-0.3-0.3l0.1-0.1C100.9,471.3,101,471.4,101.1,471.5z"/>
							<path fill="#533327" d="M107.3,472.6c0,0.2,0.1,0.5-0.1,0.7C107.2,473.1,107.2,472.9,107.3,472.6z"/>
							<path fill="#796257" d="M102.5,473.1c0.1,0,0.1,0,0.1,0c0.1,0.1,0.1,0.2,0.3,0.3c0,0-0.1,0-0.1,0.1
								C102.7,473.3,102.5,473.2,102.5,473.1z"/>
							<path fill="#FEC619" d="M130.4,480.9c0,1.1,0,2.4,0,3.5c0,0.9-0.8,1.6-1.7,1.7c-1.2,0-2.4,0-3.6,0c-0.1-0.1-0.3-0.2-0.3-0.3
								c-0.8-1.2-1.6-2.4-2.4-3.6c-0.5-0.7-0.9-1.4-1.4-2c-0.3-0.4-0.5-0.7-0.8-1.1c-0.1-0.2-0.3-0.3-0.4-0.5
								c-0.1-0.1-0.1-0.1-0.1-0.3c0.1-0.1,0.2-0.1,0.3-0.1c1.4-0.2,2.6-0.6,3.8-1.1c0.1-0.1,0.2-0.1,0.3-0.1c0.5,0.3,1.1,0.7,1.6,1
								c0.3,0.1,0.5,0.3,0.8,0.5c1.1,0.8,2.4,1.6,3.5,2.3C130.2,480.7,130.3,480.8,130.4,480.9z"/>
							<path fill="#FEC819" d="M125.1,455.6c1.2,0,2.5-0.1,3.7,0c0.9,0,1.6,0.8,1.7,1.7c0,1.1,0,2.4,0,3.6c-0.1,0.1-0.1,0.1-0.2,0.3
								c-1.3,0.8-2.6,1.6-3.8,2.4c-0.7,0.5-1.4,0.9-2.2,1.4c-0.1,0.1-0.3,0.2-0.4,0.2c-0.3-0.1-0.5-0.5-0.7-0.7
								c-0.7-0.7-1.6-1.3-2.6-1.4c-0.1,0-0.3-0.1-0.3-0.1c0-0.3,0.3-0.5,0.4-0.7c0.5-0.7,1-1.6,1.6-2.2c0.9-1.3,1.8-2.6,2.6-3.8
								C124.9,455.8,124.9,455.6,125.1,455.6z"/>
							<path fill="#FEC919" d="M112.7,481.3c0.1-0.7,0.3-1.6,0.5-2.3c1-0.1,2-0.5,3-0.5c0.1,0,0.1,0,0.3,0c0.1,0.1,0.1,0.1,0.1,0.3
								c0.1,0.5,0.3,0.9,0.3,1.4c0.1,0.5,0.3,0.9,0.3,1.4c0.1,0.7,0.3,1.5,0.5,2.2c0.1,0.6,0.3,1.2,0.4,1.9c0.1,0.1,0.1,0.3,0,0.4
								c-2.2,0-4.3,0-6.4,0c0.1-0.7,0.4-1.6,0.5-2.4C112.4,482.9,112.5,482.1,112.7,481.3z"/>
							<path fill="#FECA19" d="M112.7,460.6c-0.1-0.8-0.3-1.6-0.5-2.4c-0.1-0.9-0.3-1.7-0.5-2.6c2.2,0,4.3,0,6.4,0
								c0.1,0.1,0.1,0.2,0.1,0.3c-0.1,0.7-0.3,1.6-0.5,2.3c-0.1,0.9-0.3,1.8-0.5,2.6c-0.1,0.5-0.2,1.1-0.3,1.7
								c-0.1,0.1-0.1,0.3-0.2,0.4c-0.5,0.1-0.9,0.1-1.4,0.1c-0.5,0.1-1.1,0.1-1.7,0.1c-0.1,0-0.1,0-0.1-0.1
								c-0.1-0.1-0.1-0.2-0.2-0.3c-0.1-0.6-0.3-1.3-0.4-1.9C112.7,460.8,112.7,460.6,112.7,460.6z"/>
							<path fill="#FEC919" d="M130.4,467.7c0,1.6,0,3.2,0,4.9c0,0.5,0,1,0,1.6c-0.1,0.1-0.3,0.1-0.3,0c-0.5-0.1-1.1-0.2-1.7-0.3
								c-0.5-0.1-0.9-0.2-1.4-0.3c-0.1-0.1-0.3-0.1-0.4-0.1c-0.1-0.1-0.1-0.3-0.1-0.3c0-0.9-0.2-1.8-0.4-2.6
								c-0.1-0.5-0.3-0.9-0.4-1.4c-0.1-0.1-0.1-0.1,0-0.3c0.1-0.1,0.1-0.1,0.1-0.1c0.7-0.1,1.6-0.4,2.4-0.5c0.6-0.1,1.3-0.3,1.9-0.4
								C130.3,467.7,130.3,467.7,130.4,467.7z"/>
							<path fill="#FED74E" d="M117.6,458.1c0.1-0.9,0.3-1.7,0.5-2.6c2.4,0,4.7,0,7,0c-0.4,0.7-0.9,1.4-1.3,2
								c-0.5,0.7-1,1.6-1.6,2.3c-0.3,0.2-0.5,0.2-0.7,0c-1-0.6-2.2-1.1-3.3-1.4C117.9,458.5,117.7,458.3,117.6,458.1z"/>
							<path fill="#FED74E" d="M118.1,486.2c-0.1-0.7-0.3-1.6-0.5-2.2c0.1-0.3,0.3-0.3,0.6-0.4c1.1-0.3,2.2-0.7,3.2-1.4
								c0.3-0.1,0.5-0.3,0.9-0.1c0.6,0.9,1.2,1.8,1.8,2.7c0.3,0.5,0.6,0.9,0.9,1.4C122.7,486.2,120.4,486.2,118.1,486.2z"/>
							<path fill="#FED74E" d="M130.4,467.7c-0.7,0.1-1.4,0.3-2.2,0.5c-0.3-0.1-0.3-0.3-0.4-0.5c-0.3-1.2-0.8-2.4-1.4-3.4
								c-0.1-0.3-0.2-0.5,0-0.7c1.4-0.9,2.7-1.8,4.1-2.6C130.4,463.1,130.4,465.4,130.4,467.7z"/>
							<path fill="#FED74E" d="M128.4,473.7c0.7,0.1,1.4,0.3,2,0.4c0,1.5,0,3,0,4.5c0,0.8,0,1.6,0,2.4c-0.7-0.5-1.5-0.9-2.2-1.4
								c-0.5-0.3-1.1-0.7-1.8-1.1c-0.2-0.2-0.2-0.4-0.1-0.7c0.7-1.1,1.1-2.3,1.5-3.6C128.1,473.9,128.1,473.7,128.4,473.7z"/>
							<path fill="#B2806B" d="M113.7,472.7c0.1-0.2-0.1-0.3-0.1-0.5c-0.3-0.5-0.5-0.9-0.8-1.5c0-0.1,0.1-0.1,0.1-0.1
								c0.2,0.1,0.3,0,0.5-0.1c1.4-1.4,2.8-2.8,4.3-4.1c0.1-0.1,0.2-0.2,0.3-0.3c0-0.1,0.1-0.1,0.2-0.2c0.4,0.1,0.7,0.2,1.1,0.5
								c0.2,0.2,0.5,0.3,0.7,0.5c0.1,0.1,0.1,0.1,0.2,0.2c0,0.1,0.1,0.1,0.1,0.2c0.3,0.1,0.5,0.5,0.9,0.7c0.1,0.1,0.1,0.1,0.1,0.1
								c0.1,0.1,0,0.3-0.1,0.3c-0.1,0.1-0.3,0.1-0.3-0.1c-0.1-0.1-0.1-0.3-0.3-0.5c-0.2-0.2-0.3-0.1-0.5,0.1c-0.1,0.3-0.1,0.7,0,1.1
								c0.1,0.3-0.1,1-0.5,1.1c-0.1,0.1-0.1,0.1-0.1-0.1c-0.1-0.1,0.1-0.3,0.1-0.3c0.2-0.6-0.1-1.1-0.7-1.4c-0.6-0.2-1.4,0-1.8,0.5
								c-0.2,0.2-0.3,0.4-0.3,0.7c-0.1,0.3,0.1,0.5,0.3,0.7c0.3,0.4,0.7,0.5,1.3,0.5c0.1,0,0.3-0.1,0.5-0.1c0.1,0.1,0.1,0.1,0,0.3
								c-0.1,0.1-0.2,0.2-0.3,0.3c-0.3,0.1-0.3,0.3-0.1,0.5c0.1,0.3,0.2,0.6,0.3,0.9c0.1,0.1,0,0.3-0.1,0.3
								c-0.2,0.4-0.3,0.9-0.5,1.3c-0.3,0.5-0.5,0.9-0.9,1.4c-1.1,1-2.6,0.7-3-0.8C113.6,474.1,113.6,473.4,113.7,472.7L113.7,472.7
								L113.7,472.7z"/>
							<path fill="#BA876F" d="M115.9,478.4c-0.1-0.1-0.1-0.1-0.2-0.1c-0.1,0-0.2-0.1-0.3-0.1c-0.9-0.5-1.8-0.9-3-1
								c0.4-0.7,0.8-1.5,1.1-2.2c0.1,0,0.1,0.1,0.2,0.2c0.6,1.2,1.9,1.5,2.9,0.5c0.1-0.1,0.2-0.2,0.3-0.2c0.1,0,0.1,0.1,0.3,0.1
								c0.9,0.7,2.2,0.3,2.6-0.7c0-0.1,0.1-0.1,0.1-0.1c0.1-0.2,0.1-0.4-0.1-0.6c-0.1-0.1-0.1-0.2-0.2-0.3c-0.3-0.3-0.3-0.5,0.1-0.7
								c0.9-0.9,1.8-1.8,2.8-2.7c0.3-0.3,0.3-0.3,0.1-0.7c-0.1-0.1-0.1-0.3,0.1-0.3c0.3,0.1,0.3,0.3,0.5,0.5
								c0.1,0.2,0.3,0.5,0.5,0.7c0.1,0.3,0.3,0.7,0.5,1.1c0.2,0.5,0.2,0.6-0.1,0.9c-0.5,0.5-1.1,1.1-1.6,1.6
								c-0.3,0.3-0.5,0.3-0.7-0.1c-0.2-0.5-0.4-0.9-0.7-1.4c-0.1-0.1-0.1,0.1-0.1,0.1c0,0.1,0,0.3-0.1,0.3c-0.1,0.3,0.1,0.7,0.3,0.9
								c0.1,0.1,0.1,0.2,0.2,0.3c0.3,0.3,0.3,0.5-0.1,0.9c-0.7,0.7-1.4,1.4-2.2,2.1c-0.1,0.1-0.3,0.3-0.5,0.3
								c-0.7,0.3-1.5,0.5-2.3,0.7C116.1,478.4,116,478.4,115.9,478.4z"/>
							<path fill="#462C23" d="M123.5,470.4c-0.3-0.3-0.5-0.8-0.8-1.1c-0.1,0-0.1-0.1-0.3-0.1c-0.7-0.7-1.6-1.4-2.4-2
								c-0.1-0.1-0.2-0.1-0.2-0.2c-0.3-0.2-0.7-0.3-0.9-0.6c0.1-0.1,0.3,0,0.4,0.1c0.9,0.5,1.8,1.1,2.6,1.8c0.6,0.5,1.1,1.1,1.6,1.8
								c-0.1-0.1-0.1-0.3-0.3-0.4c-0.1-0.2,0-0.3,0.2-0.3c0.3,0,0.6,0,0.9,0.1c-0.1-0.2-0.2-0.3-0.3-0.4c-0.4-0.3-0.8-0.7-1.3-1.1
								c-0.1-0.1-0.2-0.1-0.3-0.3c0-0.1,0.1-0.1,0.1-0.1c0.1,0,0.1,0,0.1,0c0.1,0.1,0.3,0.2,0.4,0.3c0.5,0.4,0.9,0.8,1.4,1.3
								c0.1,0.1,0.3,0.3,0.5,0.3c0.5,0.1,0.6,0.1,0.8,0.5c-0.3-0.7-0.6-1.7-1.1-2.6c-0.6-1.1-1.4-2.2-2.3-3.1
								c-0.7-0.6-1.5-0.7-2.3-0.9c-1.4-0.1-2.8-0.1-4.1,0.1c-0.1,0-0.3,0-0.5,0s-0.3,0-0.4,0.1c-0.1,0.1-0.3,0.1-0.3,0
								c-0.3-0.1-0.5,0-0.8,0c-0.6,0.1-1.3,0.1-1.9,0c-0.2,0-0.5,0-0.6-0.2c-0.6-0.1-1.2-0.3-1.8-0.6c-0.1-0.1-0.2-0.1-0.2-0.2
								c0.1-0.1,0.3,0,0.3,0.1c0.9,0.5,2,0.7,3,0.7c0.1,0,0.3,0,0.5,0.1c0.9,0,1.9-0.1,2.8-0.1c0.1,0,0.3-0.1,0.5-0.1
								c0.3-0.1,0.7-0.1,1.1-0.1c0.7,0.1,1.4,0.1,2,0c0.3,0,0.5-0.1,0.7,0.1c0.1,0.1,0.3,0.1,0.5,0.1c1.1,0.1,2,0.8,2.6,1.7
								c0.1,0.1,0.3,0.3,0.3,0.5c0.1,0.1,0.2,0.1,0.3,0.2c0.7,0.9,1.2,2,1.6,3c0.1,0.1,0.1,0.2,0.1,0.3c0.3,0.9,0.5,1.8,0.7,2.6
								c0.1,0.7,0.2,1.3,0.2,2c0.1,0.1,0.1,0.2,0.1,0.3c-0.1,1-0.3,2-1.2,2.6c-0.3,0.2-0.6,0.4-0.9,0.6c-0.1,0.1-0.3,0.1-0.5,0.1
								c-1.4,0.6-2.9,1-4.5,1.3c-0.1,0.1-0.3,0.1-0.5,0.1c-0.7,0.1-1.4,0.1-2.1,0.3c-0.1,0-0.3,0.1-0.5-0.1c-0.1,0-0.2,0-0.3-0.1
								c0-0.1,0.1-0.1,0.1-0.1c0.7-0.1,1.4-0.4,2.2-0.6c1.9-0.5,3.7-1.1,5.5-2c0.3-0.1,0.5-0.3,0.8-0.4c0.3-0.1,0.3-0.3,0.3-0.5
								c-0.1-0.9-0.4-1.9-0.8-2.8C124.1,471.5,123.9,471,123.5,470.4z"/>
							<path fill="#BF8B72" d="M123.5,470.4c0.3,0.3,0.5,0.7,0.7,1c0.5,1.1,0.9,2.3,1.1,3.6c0.1,0.2-0.1,0.3-0.2,0.3
								c-1.8,0.9-3.8,1.6-5.7,2.2c-0.9,0.3-1.8,0.5-2.8,0.7c-0.1,0.1-0.2-0.1-0.3,0.1c-0.1,0-0.3,0.1-0.5,0c0.8-0.2,1.6-0.4,2.4-0.7
								c0.3-0.1,0.5-0.3,0.7-0.5c0.7-0.7,1.4-1.4,2.2-2.2c0.3-0.3,0.3-0.5,0.1-0.7c-0.3-0.3-0.4-0.7-0.5-1.1c0-0.1,0-0.1,0.1-0.2
								c0.1,0.1,0.1,0.2,0.1,0.3c0.1,0.4,0.3,0.8,0.7,1.1c-0.1-0.3-0.1-0.5-0.2-0.7c-0.1-0.3-0.3-0.7-0.4-1
								c-0.1-0.1-0.1-0.2-0.1-0.3c0.1-0.1,0.1,0.1,0.1,0.1c0.2,0.5,0.5,0.9,0.7,1.4c0.1,0.3,0.1,0.3,0.4,0.1
								c0.5-0.5,1.1-1.1,1.7-1.6c0.3-0.3,0.3-0.4,0.1-0.9c-0.1-0.3-0.3-0.6-0.4-0.9C123.6,470.6,123.6,470.5,123.5,470.4z"/>
							<path fill="#FEE686" d="M116.6,478.4c0.9-0.1,1.8-0.1,2.7-0.3c0.1,0,0.3-0.1,0.3-0.1c0.2,0.3,0.3,0.5,0.5,0.8
								c0,0.1-0.1,0.1-0.1,0.1c-0.1-0.1-0.3-0.1-0.5,0.1c-0.7,0.3-1.5,0.7-2.2,0.9c-0.1,0.1-0.2,0.1-0.3,0.1
								c-0.1,0.1-0.1,0.1-0.2,0.1C116.8,479.6,116.6,478.9,116.6,478.4C116.6,478.5,116.6,478.5,116.6,478.4z"/>
							<path fill="#FEFEFE" d="M111.8,471.3c-0.1,0.5-0.3,0.9-0.4,1.5c0,0.1,0,0.1-0.1,0.1c-0.1,0.3-0.1,0.5-0.3,0.9
								c-0.3-0.3-0.5-0.7-0.7-1.1c-0.1-0.7,0.3-1,0.8-1.4c0.1-0.1,0.2-0.1,0.3-0.1c0.1-0.1,0.1-0.1,0.2-0.1
								C111.9,471.2,111.9,471.3,111.8,471.3z"/>
							<path fill="#7B4F44" d="M117.2,475.5c-0.1,0.1-0.3,0.3-0.5,0.5c-1,0.7-2.3,0.4-2.8-0.7c-0.1-0.1-0.1-0.1-0.1-0.3
								c-0.1-0.7-0.1-0.7-0.7-0.7c-0.1,0-0.3,0-0.5,0c0.1-0.1,0.2-0.1,0.3-0.1c0.3-0.1,0.6,0.1,0.7-0.1c0.1-0.1,0.1-0.5,0.1-0.7
								c0-0.1-0.1-0.3,0.1-0.5c0,0.7,0.1,1.5,0.3,2.2c0.5,1.4,1.9,1.4,2.8,0.5c0.7-0.7,1.1-1.5,1.4-2.4c0.1-0.1,0-0.2,0.1-0.2
								c0.1,0.1,0.1,0.3,0,0.3c0,0.1-0.1,0.1-0.1,0.2c-0.1,0.5-0.3,0.9-0.6,1.4C117.4,475,117.4,475.3,117.2,475.5z"/>
							<path fill="#774E43" d="M109.7,478.1c0.2,0,0.3,0,0.5,0c0.1,0,0.1,0,0.1,0.1c0,0.1-0.1,0.1-0.1,0.1c-0.4,0-0.8,0-1.3,0
								c-0.1,0-0.1-0.1-0.1-0.1s0.1-0.1,0.1-0.1C109.3,478.1,109.5,478.1,109.7,478.1z"/>
							<path fill="#7D5247" d="M111.6,475.9c-0.2,0.1-0.4,0.1-0.5,0.1c-0.3,0-0.5,0-0.7,0c-0.1,0-0.1,0-0.1-0.1
								c0-0.1,0.1-0.1,0.1-0.1C110.8,475.8,111.2,475.7,111.6,475.9z"/>
							<path fill="#764D42" d="M115.4,478.1c0.1,0.1,0.1,0.1,0.3,0.1c-0.4,0.1-0.7,0.1-1.1,0.1c-0.1,0-0.1,0-0.1-0.1
								c0-0.1,0.1-0.1,0.1-0.1c0.3,0,0.5,0,0.7,0C115.4,478.1,115.4,478.1,115.4,478.1z"/>
							<path fill="#7D5348" d="M110.2,474.6c-0.5,0-0.9,0-1.5,0C109.3,474.6,109.7,474.6,110.2,474.6L110.2,474.6z"/>
							<path fill="#7D5248" d="M111.7,477.3c-0.5,0-0.9,0.1-1.5-0.1c0.5,0,0.9,0,1.5,0C111.7,477.3,111.7,477.3,111.7,477.3z"/>
							<path fill="#7F5448" d="M108.2,479c0.5,0,0.9,0,1.4,0c-0.5,0.1-0.9,0.1-1.4,0.1C108.2,479,108.2,479,108.2,479z"/>
							<path fill="#7E5449" d="M110.6,473.6c-0.4,0-0.9,0-1.3,0v-0.1C109.7,473.6,110.2,473.6,110.6,473.6L110.6,473.6z"/>
							<path fill="#7F5449" d="M107.7,475.7c0.4,0,0.9,0,1.3,0v0.1C108.5,475.8,108.1,475.8,107.7,475.7L107.7,475.7z"/>
							<path fill="#7E5348" d="M112.9,475c-0.4,0-0.9,0-1.3,0V475C112,475,112.5,475,112.9,475L112.9,475z"/>
							<path fill="#7F5449" d="M108,472.5c0.3,0,0.7,0,1.1,0v0.1C108.7,472.5,108.3,472.5,108,472.5L108,472.5z"/>
							<path fill="#805449" d="M113.4,472.5c0.1,0,0.1,0.1,0.1,0.1c-0.3,0.1-0.7,0.1-1.1,0C112.7,472.5,113.1,472.5,113.4,472.5z"/>
							<path fill="#7F5449" d="M108.9,476.6c0.3,0,0.7,0,1.1,0v0.1C109.6,476.7,109.3,476.7,108.9,476.6L108.9,476.6z"/>
							<path fill="#7F5449" d="M107.3,473.8c0-0.1,0.1-0.1,0.1-0.1c0.3-0.1,0.7-0.1,0.9,0c0,0.1,0,0.1,0,0.1
								C108.1,473.8,107.7,473.8,107.3,473.8L107.3,473.8z"/>
							<path fill="#8E5F54" d="M112,477.9c0.5,0,0.9,0,1.4,0c0,0,0,0,0,0.1C113,478,112.5,478,112,477.9L112,477.9z"/>
							<path fill="#7A5146" d="M111.4,472.9c0-0.1,0.1-0.1,0.1-0.1c0.1,0,0.1-0.1,0.3-0.1c0.1,0,0.3-0.1,0.5,0.1
								C112,472.9,111.6,472.8,111.4,472.9z"/>
							<path fill="#8E5F54" d="M107.6,477.6c0.3-0.1,0.7,0,1-0.1v0.1C108.3,477.6,107.9,477.6,107.6,477.6L107.6,477.6z"/>
							<path fill="#40271F" d="M122.6,467.4c0.6,0.5,1.2,1,1.8,1.6c0.1,0.1,0.1,0.1,0.1,0.1c0.1,0.1,0.1,0.1,0,0.1
								c-0.1,0.1-0.1,0-0.1,0c-0.3-0.1-0.6-0.1-0.9-0.1c-0.2,0-0.3,0.1-0.1,0.3c0.1,0.3,0.3,0.5,0.3,0.7c-0.3-0.4-0.6-0.7-0.9-1.1
								c-0.4-0.5-0.9-0.9-1.4-1.2c-0.7-0.5-1.4-1-2.2-1.4c-0.1-0.1-0.3-0.1-0.3-0.1c-0.3-0.2-0.7-0.3-1.1-0.5c-0.3,0-0.7-0.2-1-0.3
								c-0.3-0.1-0.6-0.2-0.9,0.1c-0.3-0.1-0.6,0-0.9,0c0.3,0.1,0.5-0.1,0.8,0.1c0.1,0.1,0,0.1-0.1,0.2c-0.3,0.5-0.7,0.9-1.1,1.3
								c-0.1,0.1-0.1,0.1-0.1,0.1c-0.3-0.1-0.6,0-0.9,0c-0.7,0.1-1.3,0.1-2,0c-0.5-0.1-1,0-1.6,0c-0.1,0-0.1,0.1-0.1,0
								c-0.1-0.1,0.1-0.1,0.1-0.1c0.1-0.2,0.3-0.3,0.6-0.3c0.1,0,0.3,0.1,0.3-0.1c-0.1-0.1-0.3,0-0.3-0.1c0.1-0.3,0.5-0.3,0.7-0.4
								c0.2-0.1,0.4-0.3,0.6-0.3c0.3-0.1,0.7,0,1.1-0.1c-0.3-0.1-0.7,0.1-1-0.1h-0.1c0.1-0.1,0.2-0.1,0.3-0.1
								c0.1-0.1,0.2-0.1,0.2-0.3c0.5,0.1,1.1-0.1,1.6-0.3c0.4-0.1,0.7-0.1,1.1-0.3c0.1-0.1,0.3-0.1,0.4-0.1c0.1-0.1,0.1-0.3,0.3-0.3
								c0.2,0,0.4-0.1,0.6-0.1c0.1,0.1,0.1,0.2,0.2,0.3c0.5,0.1,0.9,0.1,1.5,0.3c0.9,0.3,1.8,0.7,2.6,1.1c0.5,0.3,0.9,0.6,1.4,0.9
								C122.4,467.2,122.6,467.3,122.6,467.4z"/>
							<path fill="#A0725C" d="M116,465.6c0.1-0.3,0.3-0.3,0.7-0.2c0.4,0.1,0.9,0.3,1.3,0.5c-0.5,1-1.6,1.6-2.3,2.4
								c-0.7,0.8-1.6,1.6-2.4,2.4c-0.2,0.2-0.3,0.1-0.5,0c0,0-0.1,0-0.1-0.1c-0.5-0.7-0.5-0.7,0.1-1.4c0.6-0.7,1.3-1.4,1.8-2.2
								c0.4-0.5,0.9-0.9,1.3-1.5C115.8,465.6,115.9,465.6,116,465.6z"/>
							<path fill="#7C5247" d="M112,465.8c0.5,0,1.1,0,1.6,0c0,0.1,0,0.1,0,0.1c-0.5,0.1-1.1,0-1.6,0C112,465.8,112,465.8,112,465.8
								z"/>
							<path fill="#7F5449" d="M109,469.4c0.5,0,0.9,0,1.4,0c-0.5,0.1-0.9,0.1-1.4,0.1C109,469.4,109,469.4,109,469.4z"/>
							<path fill="#7C5247" d="M110.3,467.6c0.3,0,0.7,0,0.9,0c0.1,0,0.3-0.1,0.3,0.1c0,0.1-0.3,0.1-0.3,0.1c-0.3,0-0.6,0-0.9,0
								C110.3,467.7,110.3,467.7,110.3,467.6z"/>
							<path fill="#7C5247" d="M108.9,471.2c0.4,0,0.9,0,1.3,0v0.1C109.7,471.3,109.3,471.3,108.9,471.2
								C108.9,471.3,108.9,471.3,108.9,471.2z"/>
							<path fill="#7E5348" d="M111,470.2c-0.4,0-0.8,0-1.3,0C110,470,110.8,470,111,470.2z"/>
							<path fill="#7C5247" d="M112.9,467.7c0.3-0.1,0.7,0,1-0.1c0.1,0,0.1,0,0.1,0.1c0,0,0,0.1-0.1,0.1
								C113.8,467.8,113.1,467.7,112.9,467.7z"/>
							<path fill="#7D5348" d="M109.5,468.5c-0.4,0-0.7,0-1.1,0v-0.1C108.7,468.5,109.1,468.5,109.5,468.5L109.5,468.5z"/>
							<path fill="#7F5349" d="M112.2,468.4c-0.3,0-0.7,0-1.1,0v-0.1C111.4,468.3,111.8,468.3,112.2,468.4L112.2,468.4z"/>
							<path fill="#7F564B" d="M111.8,471.3c0-0.3-0.1-0.1-0.3-0.1c0-0.1-0.1-0.1,0-0.1c0.3,0,0.7-0.1,1.1,0.1
								C112.5,471.3,112.1,471,111.8,471.3z"/>
							<path fill="#7C5247" d="M107.7,470.4c0.3,0,0.7,0,1.1,0v0.1C108.5,470.4,108.1,470.4,107.7,470.4L107.7,470.4z"/>
							<path fill="#7F5449" d="M111.6,469.4c0.3-0.1,0.5-0.1,0.7-0.1C112.1,469.6,111.9,469.4,111.6,469.4z"/>
							<path fill="#7E5348" d="M110.7,466.5c0.1,0,0.2,0,0.3,0c0.1,0.1,0.1,0.1,0,0.1c-0.2,0-0.4,0-0.6,0
								C110.4,466.5,110.6,466.6,110.7,466.5z"/>
							<path fill="#533327" d="M107.3,475.7c-0.1-0.2-0.1-0.5-0.1-0.7C107.3,475.2,107.3,475.4,107.3,475.7z"/>
							<path fill="#3A241D" d="M111.5,463.1c0.3,0.1,0.5,0.1,0.7,0.1c0.7,0,1.6,0.1,2.4-0.1c0.1,0,0.2,0,0.3,0.1
								c-0.1,0.1-0.1,0.1-0.2,0.1c-0.7,0.1-1.3,0.5-1.8,0.9c-0.1,0-0.1,0-0.1,0c-0.3,0.2-0.6,0.1-0.9,0.1c-0.2-0.1-0.4-0.1-0.5-0.2
								c-0.2-0.1-0.4-0.3-0.7-0.1c-0.5,0.1-0.9-0.1-1.4-0.1c-0.2-0.1-0.3-0.1-0.3-0.3c0-0.3,0-0.6,0.1-0.9c0.1-0.3,0.1-0.3,0.3-0.1
								c0.5,0.3,1.2,0.6,1.9,0.7C111.4,463.1,111.4,463.2,111.5,463.1z"/>
							<path fill="#FEE37C" d="M113.3,463.1c-1.2,0.1-2.4-0.1-3.4-0.7c-0.1-0.1-0.2-0.1-0.3-0.1c-0.1,0-0.1-0.1-0.2-0.1
								c1-0.5,2-0.9,3-1.1c0.2-0.1,0.1-0.3,0.3-0.3C112.9,461.4,113.1,462.3,113.3,463.1z"/>
							<path fill="#966650" d="M115.8,464.8c-0.1,0.1-0.1,0.1-0.3,0.2c-0.9,0.1-1.8,0.3-2.8,0.5c-0.1,0.1-0.3,0-0.3-0.1l0,0
								c-0.1,0-0.1-0.1,0-0.1c0-0.2,0.1-0.4,0.1-0.7c0,0,0.1-0.1,0.1-0.1c0.3,0,0.7,0,1,0c0.2,0,0.4,0,0.5,0.1
								c0.1,0.1,0.1,0.1,0,0.1c0.3-0.1,0.4-0.5,0.7-0.5c0.2,0,0.4,0,0.6,0S115.9,464.6,115.8,464.8z"/>
							<path fill="#A37059" d="M114.3,464.8c-0.5-0.2-0.9-0.1-1.5-0.1c-0.1,0-0.1,0.1-0.2-0.1l-0.1-0.1c0,0,0-0.1,0.1-0.1
								c0.1-0.1,0.1-0.2,0.2-0.3h0.1c0.1,0,0.1-0.1,0.1-0.1c0.5,0,1.1-0.1,1.8,0.1c0.1,0.1,0,0.3-0.1,0.3
								C114.5,464.7,114.4,464.8,114.3,464.8z"/>
							<path fill="#5F4944" d="M112.6,464.6L112.6,464.6L112.6,464.6c-0.3,0.1-0.5,0.1-0.7,0.1c-0.5-0.1-1.1-0.1-1.6-0.1
								c-0.5,0-0.9-0.1-1.3-0.1c0-0.1,0.1-0.1,0.1-0.1c0.3,0,0.7,0,1.1,0c0.5,0.1,1,0,1.6,0.1C112.1,464.6,112.3,464.6,112.6,464.6z
								"/>
							<path fill="#5B4540" d="M112.5,465.3L112.5,465.3c-0.9,0.4-2,0.7-2.9,1.1l0,0c0.3-0.3,0.7-0.3,1.1-0.5
								C111.3,465.6,111.9,465.4,112.5,465.3z"/>
							<path fill="#3A241D" d="M112.6,464.6c-0.7,0-1.4,0-2,0c-0.1,0-0.2,0-0.3-0.1C111,464.6,111.8,464.6,112.6,464.6L112.6,464.6z
								"/>
							<path fill="#3A241D" d="M109.1,464.6c-0.1,0-0.1,0-0.1,0.1c-0.3,0-0.5,0-0.7-0.1C108.6,464.5,108.9,464.4,109.1,464.6z"/>
							<path fill="#5B4540" d="M109.5,466.4c-0.1,0.1-0.3,0.1-0.5,0.2C109.3,466.5,109.3,466.4,109.5,466.4L109.5,466.4z"/>
							<path fill="#FEDE68" d="M122.4,482.1c-0.4-0.1-0.7,0.1-1,0.3c-0.9,0.5-2,0.9-3.1,1.1c-0.3,0.1-0.4,0.3-0.6,0.3
								c-0.1-0.7-0.3-1.6-0.5-2.2c0.1-0.3,0.2-0.3,0.5-0.5c0.9-0.3,2-0.6,2.8-1.1c0.2-0.1,0.4-0.1,0.6,0.1
								C121.4,480.8,121.9,481.4,122.4,482.1z"/>
							<path fill="#FEDD64" d="M124.1,476.9c0.5-0.3,0.9-0.5,1.4-0.8c0.8-0.6,1.1-1.4,1.1-2.4c0-0.1-0.1-0.3,0.1-0.3
								c0.5,0.1,1.1,0.3,1.7,0.3c-0.3,0.3-0.3,0.7-0.5,1.1c-0.3,1.1-0.7,2-1.4,3c-0.1,0.3-0.2,0.5-0.1,0.7c-0.7-0.5-1.6-0.9-2.3-1.4
								C124.2,476.9,124.1,476.9,124.1,476.9z"/>
							<path fill="#FEE277" d="M121,480.1c-0.3-0.1-0.5,0-0.8,0.1c-0.7,0.4-1.5,0.7-2.3,0.9c-0.3,0.1-0.5,0.1-0.7,0.4
								c-0.1-0.5-0.3-0.9-0.3-1.4c0.3-0.4,0.7-0.4,1.1-0.5c0.5-0.1,0.9-0.3,1.4-0.6c0.3-0.1,0.5-0.3,0.9-0.1
								C120.6,479.3,120.8,479.7,121,480.1z"/>
							<path fill="#FEDF6C" d="M117.6,458.1c0.1,0,0.1,0,0.1,0c0.1,0.3,0.5,0.3,0.8,0.4c1.1,0.3,2.2,0.7,3.1,1.4
								c0.3,0.1,0.4,0,0.6,0c-0.5,0.7-0.9,1.6-1.6,2.2c-0.3,0.3-0.5,0.2-0.7,0.1c-0.7-0.4-1.6-0.7-2.4-0.9c-0.3-0.1-0.5-0.2-0.5-0.5
								C117.2,459.9,117.4,459,117.6,458.1z"/>
							<path fill="#FEDD66" d="M125.8,468.7c-0.3-0.6-0.5-1.3-0.9-1.9c-0.3-0.6-0.7-1.1-1.1-1.8c0.7-0.5,1.5-0.9,2.2-1.4
								c0.1-0.1,0.2-0.1,0.3-0.2c-0.1,0.3,0.1,0.6,0.3,0.9c0.5,1,1,2,1.3,3.2c0.1,0.3,0.2,0.4,0.3,0.6c-0.7,0.1-1.5,0.3-2.2,0.5
								C126,468.6,125.9,468.7,125.8,468.7z"/>
							<path fill="#FEE480" d="M117,460.8c0.1,0,0.1,0,0.1,0c0.1,0.3,0.3,0.3,0.5,0.3c0.7,0.2,1.6,0.5,2.2,0.9
								c0.3,0.1,0.5,0.3,0.8,0.1c-0.1,0.2-0.3,0.5-0.4,0.7c-0.2-0.1-0.5,0.1-0.7,0c-0.7-0.1-1.4-0.1-2,0c-0.3,0-0.7,0.1-1.1,0.1
								C116.8,462.1,116.8,461.5,117,460.8z"/>
							<path fill="#B8856F" d="M118.3,473.3c0-0.1,0.1-0.3,0.1-0.3c0.1-0.1,0.1-0.3-0.1-0.4c-0.1-0.1-0.1-0.1-0.1-0.2
								c0-0.2-0.1-0.3-0.2-0.5c-0.3-0.3-0.2-0.5,0.2-0.7c0.1-0.1,0.3-0.1,0.3-0.3c0.2-0.3,0.5-0.5,0.8-0.7c0.3-0.1,0.7-0.7,0.5-1.1
								c-0.2-0.4-0.1-0.8,0.1-1.1c0.1-0.3,0.3-0.3,0.5-0.1c0.1,0.1,0.3,0.3,0.3,0.4c0.1,0.1,0,0.2,0.1,0.2c0.1,0,0.1-0.1,0.2-0.1
								c0.1-0.1-0.1-0.2-0.1-0.3c-0.3-0.3-0.6-0.7-1-0.9c-0.1-0.1-0.2-0.1,0-0.1c0.7,0.3,1.1,0.8,1.8,1.3c0.4,0.3,0.7,0.7,1.1,1.1
								c-0.1,0.1-0.1,0.3,0.1,0.3c0.2,0.2,0.2,0.3,0,0.5c-0.7,0.7-1.4,1.4-2.1,2c-0.3,0.3-0.6,0.7-0.9,0.9c-0.1,0.1-0.1,0.3,0,0.5
								c0.2,0.2,0.3,0.5,0.4,0.7c0,0.1,0.1,0.2-0.1,0.3c-0.1-0.1-0.1-0.2-0.1-0.3c-0.1-0.5-0.5-0.9-1.1-0.9
								C118.6,473.4,118.4,473.5,118.3,473.3z"/>
							<path fill="#FEFEFE" d="M119.3,470c-0.2,0.3-0.5,0.5-0.8,0.7c-0.3,0.1-0.7,0.1-1.1,0.1c-0.5-0.1-1.1-0.7-0.9-1.4
								c0.1,0,0.1,0,0.1,0.1c0.3,0.4,0.7,0.4,1.2,0.4c0.2-0.1,0.4-0.1,0.6-0.3c0.2-0.3,0.1-0.5-0.1-0.7c-0.3-0.2-0.7-0.2-1.1-0.1
								c-0.1,0.1-0.3,0.1-0.3,0.1c0.3-0.5,0.9-0.7,1.4-0.7c0.5,0,1,0.3,1.2,0.7C119.6,469.3,119.5,469.7,119.3,470z"/>
							<path fill="#221E1F" d="M116.8,468.7c0.5-0.3,1-0.3,1.6,0c0.4,0.2,0.5,0.5,0.2,0.9c-0.1,0-0.1-0.1-0.2-0.1
								c-0.1-0.1-0.3-0.1-0.4-0.1c-0.2,0.1-0.3,0.2-0.1,0.3c0.1,0.1,0.1,0.1,0.1,0.2c-0.7,0.1-1.1-0.1-1.4-0.5
								C116.4,469.2,116.6,469,116.8,468.7z"/>
							<path fill="#BD9281" d="M115.4,474.6c0-0.3,0-0.6,0.2-0.9c0.2-0.3,0.4-0.3,0.5,0c0.3,0.6,0.3,1.2,0,1.8
								c-0.1,0.3-0.4,0.3-0.5,0C115.5,475.3,115.4,474.9,115.4,474.6z"/>
							<path fill="#7E5146" d="M117,470.8c-0.7-0.2-1.1-0.9-0.9-1.6C116.1,470,116.4,470.4,117,470.8z"/>
							<path fill="#FEFEFE" d="M118.3,473.3c0.2,0,0.4,0,0.6,0c0.7,0.1,1.1,0.5,1.1,1.4c-0.1,0.7-0.5,1.1-1.1,1.3
								c-0.6,0.2-1.1,0.1-1.7-0.3c-0.1-0.1-0.1-0.1-0.1-0.1c0.1-0.2,0.3-0.4,0.4-0.6c0.2-0.1,0.4,0,0.6-0.1c0.2-0.1,0.5-0.1,0.6-0.3
								c0.3-0.3,0.2-0.7-0.2-0.9c-0.1-0.1-0.3-0.1-0.4-0.2C118.2,473.4,118.2,473.4,118.3,473.3z"/>
							<path fill="#56382B" d="M121,472.5c0.3,0.6,0.5,1.2,0.7,1.9c0.1,0.1,0.1,0.2,0,0.3c-0.1,0.1-0.1-0.1-0.3-0.1
								c-0.4-0.4-0.7-0.9-0.7-1.5c0-0.1,0-0.3,0.1-0.5C120.8,472.5,120.8,472.5,121,472.5C121,472.3,121,472.5,121,472.5z"/>
							<path fill="#3A241D" d="M116.8,464.7c-0.1-0.1-0.3-0.1-0.1-0.3c0.1-0.1,0.4-0.1,0.6-0.1c0.7-0.1,1.6-0.3,2.3-0.4
								c0.1,0,0.1,0,0.1,0c-0.3,0.1-0.5,0.1-0.8,0.1c-0.9,0.1-1.8,0.3-2.6,0.4c-0.1,0-0.1,0-0.2-0.1c-0.1-0.1-0.1-0.2-0.1-0.3
								c0-0.4-0.1-0.5-0.5-0.7c-0.1-0.1-0.3-0.1-0.3-0.2c0-0.1,0.1-0.1,0.1-0.1c1.4-0.1,2.8-0.2,4.3-0.1c0.9,0.1,2,0.1,2.8,0.8
								c0.5,0.4,0.9,0.9,1.3,1.4c0.5,0.6,0.9,1.2,1.1,2c-0.1,0.1-0.2-0.1-0.3-0.2c-0.1-0.1-0.2-0.3-0.3-0.4
								c-0.1-0.1-0.2-0.2-0.4-0.2c-0.7,0-1.3,0-2,0c-0.1,0-0.1,0-0.1,0.1c0.2,0.3,0.5,0.3,0.7,0.6c0.1,0.1,0.2,0.2,0.2,0.3h-0.1
								c-0.3-0.1-0.5-0.3-0.8-0.5c-1.1-0.7-2.4-1.4-3.6-1.8c-0.4-0.1-0.7-0.1-1.1-0.2C117,464.8,116.8,464.8,116.8,464.7z"/>
							<path fill="#40271F" d="M122.7,467.3c-0.3-0.3-0.5-0.5-0.9-0.8c-0.1-0.1-0.2-0.1-0.1-0.3c0.1-0.1,0.2-0.1,0.3-0.1
								c0.6,0,1.2,0,1.8,0c0.3,0,0.4,0.1,0.5,0.3c0.1,0.2,0.3,0.5,0.5,0.6c0.5,0.8,0.8,1.7,1.1,2.6c0.1,0.1,0.1,0.3,0.1,0.3
								c-0.1-0.2-0.3-0.4-0.3-0.6c-0.1-0.1-0.2-0.2-0.4-0.2c-0.3,0.1-0.6-0.1-0.9-0.3c-0.5-0.5-0.9-0.9-1.5-1.4
								C122.9,467.5,122.8,467.4,122.7,467.3z"/>
							<path fill="#B27B62" d="M115.2,463.1c0.1,0,0.3,0.1,0.5,0.1c0.4,0.2,0.5,0.5,0.4,1c0,0.1,0.1,0.1-0.1,0.1
								c-0.1,0.1-0.1,0.2-0.3,0.3c0-0.1-0.1-0.3-0.3-0.3c-0.2,0-0.4,0.1-0.6-0.1c-0.1-0.2,0.1-0.3,0.1-0.5c-0.1,0.1-0.1,0.3-0.3,0.3
								c-0.6-0.1-1.3-0.1-1.9-0.1c0.3-0.5,0.9-0.8,1.6-0.9c0.1-0.1,0.3-0.1,0.5-0.1C115,463.1,115.1,463.1,115.2,463.1z"/>
							<path fill="#695450" d="M116.8,464.7c1.3,0.1,2.4,0.5,3.5,1.1c0.8,0.4,1.6,0.9,2.3,1.6l-0.1,0.1c-1.4-1-2.8-1.9-4.4-2.4
								c-0.5-0.1-1.1-0.3-1.6-0.3C116.6,464.7,116.8,464.8,116.8,464.7z"/>
							<path fill="#FEDF6C" d="M117.7,462.8c0.5-0.1,0.9-0.1,1.4-0.1c0.2,0,0.4-0.1,0.5,0.1C118.9,462.8,118.3,462.8,117.7,462.8z"
								/>
							<path fill="#221E1F" d="M118.3,474.9c-0.2,0-0.5,0.1-0.7-0.1c0.3-0.5,0.4-0.9,0.6-1.4c0.2,0,0.4,0.1,0.5,0.2
								c0.4,0.3,0.5,0.6,0.1,0.9c-0.1,0-0.1-0.1-0.1-0.1c-0.1-0.2-0.3-0.3-0.5-0.1c-0.2,0.1-0.1,0.3,0,0.4
								C118.3,474.8,118.3,474.8,118.3,474.9z"/>
							<path fill="#604A46" d="M116,464.5c0-0.1,0.1-0.1,0.1-0.1c0.3,0.1,0.5,0,0.7,0c0.9-0.1,1.9-0.3,2.8-0.4c0.1,0,0.1-0.1,0.3,0
								c-1.1,0.3-2.2,0.4-3.2,0.5C116.5,464.4,116.2,464.4,116,464.5z"/>
							<path fill="#6C463C" d="M116,465.6c0,0.1-0.1,0.1-0.1,0.1c-0.3,0-0.7,0-1,0c-0.1,0-0.1,0-0.1-0.1c0-0.1,0.1-0.1,0.1-0.1
								C115.2,465.5,115.6,465.4,116,465.6z"/>
							<path fill="#7D5348" d="M111.9,466.9c0-0.1,0.1-0.1,0.1-0.1c0.3,0,0.7,0,1.1,0c0.1,0,0.2,0,0.1,0.1
								C112.9,466.9,112.5,467,111.9,466.9z"/>
							<path fill="#80554A" d="M115,466.5c-0.3,0-0.5,0-0.9,0v-0.1C114.3,466.5,114.7,466.5,115,466.5
								C115,466.5,115,466.5,115,466.5z"/>
							<path fill="#4B2D23" d="M111.9,466.9c0.5,0,0.9,0,1.4,0C112.9,467,112.5,467.1,111.9,466.9z"/>
							<path fill="#7B4E44" d="M114.7,464.4c0.1-0.2,0.3-0.4,0.5-0.7c0,0.3-0.1,0.5-0.3,0.7c-0.3,0.2-0.5,0.5-0.9,0.5
								c0-0.1,0.1-0.1,0.2-0.2C114.4,464.7,114.5,464.6,114.7,464.4z"/>
							<path fill="#56382B" d="M119.9,468.1c0-0.1,0-0.1,0-0.1c0-0.1,0.1-0.3,0.1-0.3c0.1,0,0.1,0.1,0.2,0.2
								c0.3,0.6,0.5,1.2,0.7,1.8c0,0.1,0.1,0.2,0,0.3c-0.1,0.1-0.1-0.1-0.3-0.1C120.2,469.4,119.9,468.7,119.9,468.1z"/>
							<path fill="#908E8E" d="M117.9,470c-0.1-0.1-0.4-0.1-0.3-0.5c0.1-0.2,0.3-0.3,0.5-0.3c0.3,0,0.4,0.1,0.4,0.3
								c0,0,0.1,0,0.1,0.1C118.3,469.9,118.1,470,117.9,470z"/>
							<path fill="#918F8F" d="M118.3,474.9L118.3,474.9c-0.1-0.1-0.3-0.3-0.3-0.5c0.1-0.2,0.3-0.3,0.5-0.2s0.3,0.2,0.3,0.4
								C118.7,474.8,118.5,474.8,118.3,474.9z"/>
						</g>
					</g>
				</g>
			</g>
		</g>
	</g>
	
		<text transform="matrix(4.587534e-11 1.0218 -1 4.489659e-11 113.8447 355.2505)" fill="#FFFFFF" font-family="'HelveticaNeue-Thin'" font-size="15.7152">The Bible App</text>
	<g>
		<path fill="#66AB46" d="M109.6,402.2l-0.1,1.5c0,0.2,0.1,0.3,0.3,0.3c0.2,0,0.3-0.1,0.3-0.3l0.1-1.5c0-0.4,0.1-1-0.3-1.5l-0.1-0.1
			l-4.5,0.1c-0.2,0-0.3,0.1-0.3,0.3l0,0c0,0.2,0.1,0.3,0.3,0.3h1.6c0,0.5,0.1,1.1,0,1.6c0,0.2,0.1,0.3,0.3,0.3s0.3-0.1,0.3-0.3
			c0-0.5,0-1.1,0-1.7h1.9C109.6,401.5,109.6,401.8,109.6,402.2z"/>
		<path fill="#66AB46" d="M110,408.8c0.3-0.5,0.4-1.1,0.5-1.6c0.1-0.5,0.1-0.9,0-1.3c-0.1-0.5-0.5-1.1-1-1.5
			c-0.6-0.5-1.4-0.7-2.1-0.6c-0.7,0.1-1.5,0.5-1.9,1.1c-0.3,0.5-0.5,1-0.5,1.6c0,0.2,0,0.5,0.1,0.7c0.1,0.5,0.3,0.9,0.6,1.3
			c0.2,0.2,0.4,0.3,0.5,0.5c0.7,0.5,1.3,0.7,1.9,0.7C108.9,409.7,109.6,409.4,110,408.8z M106.6,408.4c-0.1-0.1-0.3-0.2-0.5-0.3
			c-0.2-0.2-0.3-0.5-0.5-0.9c-0.1-0.2-0.1-0.3-0.1-0.5c0-0.5,0.1-0.9,0.3-1.2c0.3-0.5,0.8-0.7,1.4-0.8c0.5-0.1,1.1,0.1,1.6,0.5
			c0.4,0.3,0.7,0.7,0.7,1.1c0,0.1,0.1,0.3,0.1,0.5c0,0.2,0,0.4-0.1,0.6c-0.1,0.4-0.1,0.9-0.3,1.3c-0.3,0.4-0.8,0.6-1.4,0.6
			C107.7,409,107.1,408.8,106.6,408.4z"/>
		<path fill="#66AB46" d="M105,413.4c0.9-0.6,1.8-1.2,2.6-2c0.1,0.4,0.4,0.8,0.8,1.1c0.5,0.4,1.4,0.5,2-0.1c0.4-0.5,0.5-1.2,0.2-2
			l-0.1-0.3l-0.3,0.1c-0.5,0.1-0.9,0.1-1.4,0.1c-0.3,0-0.5,0-0.9,0l-0.1-0.1l-0.1,0.1l-2.6-0.1c-0.2,0-0.3,0.1-0.3,0.3
			c0,0.2,0.1,0.3,0.3,0.3h1.9c-0.7,0.7-1.6,1.2-2.4,1.8c-0.1,0.1-0.1,0.2-0.1,0.3s0,0.1,0.1,0.2C104.6,413.4,104.8,413.5,105,413.4z
			 M108.7,411.1c0.4,0,0.8-0.1,1.1-0.1c0.1,0.3,0.1,0.8-0.1,1.1c-0.3,0.3-0.7,0.2-1.1,0c-0.3-0.2-0.5-0.5-0.6-0.9
			C108.3,411.1,108.5,411.1,108.7,411.1z"/>
	</g>
	<g>
		<path fill="#3E7FB1" d="M110.6,418.3l-1.8-2.2c0.5,0,1.1,0,1.7,0c0.2,0,0.3-0.2,0.3-0.3c0-0.2-0.2-0.3-0.3-0.3
			c-0.7,0.1-1.5,0-2.3,0l-0.5-0.7l0.1,0.5v0.1c-0.5,0-1.1-0.1-1.7-0.1c-0.1,0-0.2,0.1-0.3,0.1h-0.2c0.1,0,0.1,0,0.1,0
			s-0.1,0-0.1,0.1c-0.1,0.1-0.1,0.1-0.1,0.2c0,0.1,0,0.2,0.1,0.3c0.1,0.1,0.3,0.1,0.5,0.1l0.1-0.1c0.5,0,0.9,0,1.4,0.1
			c-0.1,0.1-0.1,0.1-0.2,0.2l-0.1,0.1c-0.1,0.2-0.3,0.3-0.4,0.5c-0.1,0.1-0.1,0.3-0.3,0.3c-0.1,0.1-0.4,0.4-0.7,0.5
			c-0.2,0-0.3,0.1-0.3,0.3l0,0c0,0.2,0.2,0.3,0.3,0.3c0.4,0,0.8-0.3,1.1-0.7c0.1-0.1,0.2-0.3,0.3-0.4c0.1-0.2,0.2-0.3,0.3-0.5
			l0.1-0.1c0.1-0.1,0.2-0.2,0.3-0.3l2,2.3c0.1,0.1,0.3,0.1,0.5,0.1C110.7,418.6,110.7,418.4,110.6,418.3z"/>
		<path fill="#3E7FB1" d="M106.4,421.7v-0.7c1,0,2-0.1,3-0.2c0,0.4,0.1,0.8,0.2,1l0.1,0.1h0.5v-0.3c0-0.4,0-0.8,0-1.1s0-0.7,0-1.1
			l0,0c0-0.2-0.1-0.3-0.3-0.3s-0.3,0.1-0.3,0.3c0,0.3,0,0.5,0,0.8c-1.1,0.1-2.1,0.2-3.2,0.2v-0.8h-0.7l-0.1,1.5h0.1v0.7l0,0
			c0,0.2,0.1,0.3,0.3,0.3C106.2,422.1,106.4,421.9,106.4,421.7z"/>
		<path fill="#3E7FB1" d="M110.8,424.2c0.2-0.6,0.1-1.1-0.1-1.5l-0.1-0.1h-0.2c-1.4,0.2-2.8,0.3-4.3,0.4h-0.3l-0.1,0.3
			c0,0.1,0,0.1,0,0.2c0,0.5,0.3,0.9,0.5,1.2c0.2,0.3,0.4,0.5,0.7,0.7c0.3,0.1,0.5,0.2,0.8,0.3c0.3,0.1,0.5,0.1,0.9,0.1
			C109.7,425.9,110.6,425,110.8,424.2z M108,425.1c-0.2-0.1-0.5-0.1-0.6-0.2c-0.2-0.1-0.4-0.3-0.5-0.5c-0.1-0.2-0.3-0.5-0.4-0.7
			c1.3-0.1,2.6-0.2,3.8-0.4c0.1,0.1,0.1,0.4-0.1,0.7c-0.2,0.6-0.7,1.2-1.4,1.3C108.5,425.2,108.3,425.1,108,425.1z"/>
		<path fill="#3E7FB1" d="M108.9,428.9c0.2-0.4,0.1-0.8,0.1-1.2c0-0.2-0.1-0.4-0.1-0.6c0-0.2,0.1-0.3,0.1-0.4c0.1-0.1,0.3-0.1,0.7,0
			c0.3,0.1,0.7,0.2,0.9,0.4c0.2,0.3,0.3,0.7,0.1,1c-0.1,0.3-0.4,0.7-0.7,0.9c-0.1,0.1-0.2,0.3-0.1,0.5c0.1,0.1,0.3,0.2,0.5,0.1
			c0.5-0.3,0.9-0.7,1-1.3c0.2-0.6,0.1-1.2-0.3-1.7c-0.3-0.4-0.9-0.5-1.2-0.7c-0.3-0.1-0.8-0.1-1.2,0.1c-0.2,0.2-0.4,0.5-0.4,0.9
			c0,0.3,0,0.5,0.1,0.7c0.1,0.3,0.1,0.6,0,0.9c-0.1,0.3-0.6,0.5-1,0.3c-0.4-0.1-0.7-0.6-0.7-1.1c0-0.3,0-0.5,0.1-0.6
			c0.1-0.1,0.3-0.3,0.5-0.4c0.1-0.1,0.2-0.3,0.1-0.5c-0.1-0.1-0.3-0.2-0.5-0.1c-0.2,0.1-0.5,0.3-0.6,0.5c-0.1,0.2-0.3,0.5-0.3,0.9
			c0,0.1,0,0.1,0,0.2c0.1,0.7,0.5,1.4,1.1,1.6C107.7,429.9,108.6,429.6,108.9,428.9z"/>
	</g>
	<path fill="#336343" d="M-20.4,474.3c0.7,0.2,44.9,1,45.8-20.3s-45.8-24-45.8-24V474.3z"/>
	<path fill="#386E4A" d="M-20.4,454.7c1.4,1.2,22.5,15.8,35.1,4.9s-12-28.4-35.1-22.6V454.7z"/>
	<path fill="#5A4838" d="M-20.5,452.7c2.9,4.5,10,3,10,3c-5.7,0-7.3-4.1-7.3-4.1l18.2-1c0,0-16.8-0.9-20.9-0.3V452.7z"/>
	<polygon fill="#6A807E" points="204.9,484.1 200.9,490.8 188.4,498.8 200.9,485.4 	"/>
</g>
</svg>
