<?xml version="1.0" encoding="utf-8"?>
<!-- Generator: Adobe Illustrator 17.1.0, SVG Export Plug-In . SVG Version: 6.00 Build 0)  -->
<!DOCTYPE svg PUBLIC "-//W3C//DTD SVG 1.1//EN" "http://www.w3.org/Graphics/SVG/1.1/DTD/svg11.dtd">
<svg version="1.1" xmlns="http://www.w3.org/2000/svg" xmlns:xlink="http://www.w3.org/1999/xlink" x="0px" y="0px"
	 viewBox="0 0 300 610" enable-background="new 0 0 300 610" xml:space="preserve">
<g id="Layer_1">
	<g id="Phones">
		<g>
			<circle fill="#232323" cx="214.9" cy="561.8" r="27.1"/>
			<path fill="#232323" d="M240,57c0,3.3-2.7,5.8-5.8,5.8h-42.6c-3.3,0-5.8-2.7-5.8-5.8l0,0c0-3.3,2.7-5.8,5.8-5.8h42.6
				C237.3,51,240,53.7,240,57L240,57z"/>
			<circle fill="#232323" cx="212.7" cy="34.7" r="5.8"/>
		</g>
		<g>
			<path fill="#E7E7E9" d="M296.2,562.1c0,25.4-20.6,46-46,46H50.8c-25.4,0-46-20.6-46-46V49.8c0-25.4,20.6-46,46-46h199.5
				c25.4,0,46,20.6,46,46V562.1z"/>
			<path fill="#010005" d="M288.2,562.1c0,21.7-17.6,39.3-39.3,39.3H52.8c-21.7,0-39.3-17.6-39.3-39.3V51
				c0-21.7,17.6-39.3,39.3-39.3h196.2c21.7,0,39.3,17.6,39.3,39.3v511.1H288.2z"/>
			<rect x="197.4" y="0" fill="#E7E7E9" width="46" height="3.9"/>
			<circle fill="#232323" cx="151" cy="561.8" r="27.1"/>
			<path fill="#232323" d="M176.1,57c0,3.3-2.7,5.8-5.8,5.8h-42.7c-3.3,0-5.8-2.7-5.8-5.8l0,0c0-3.3,2.7-5.8,5.8-5.8h42.6
				C173.4,51,176.1,53.7,176.1,57L176.1,57z"/>
			<circle fill="#232323" cx="148.8" cy="34.7" r="5.8"/>
			<rect x="28.1" y="89.4" fill="#232323" width="244.9" height="431.1"/>
		</g>
	</g>
	<rect x="28.1" y="89.4" fill="#B1DCF1" width="245" height="137.1"/>
	<g id="Content">
		<circle fill="#FFFFFF" cx="35.8" cy="97.1" r="1.9"/>
		<circle fill="#FFFFFF" cx="41.4" cy="97.1" r="1.9"/>
		<circle fill="#FFFFFF" cx="52" cy="97.1" r="1.9"/>
		<circle fill="#FFFFFF" cx="57.3" cy="97.1" r="1.9"/>
		<circle fill="#FFFFFF" cx="46.6" cy="97.1" r="1.9"/>
		<g enable-background="new    ">
			<path fill="#FFFFFF" d="M62.4,93.6h1.3v6.2h3.7v1.1h-5V93.6z"/>
		</g>
		<g enable-background="new    ">
			<path fill="#FFFFFF" d="M72.4,95.9c-0.1-0.2-0.1-0.4-0.2-0.6c-0.1-0.2-0.2-0.3-0.4-0.5c-0.1-0.1-0.3-0.2-0.5-0.3
				c-0.2-0.1-0.4-0.1-0.7-0.1c-0.4,0-0.7,0.1-1,0.2c-0.3,0.2-0.5,0.4-0.7,0.6c-0.2,0.3-0.3,0.6-0.4,0.9c-0.1,0.3-0.1,0.7-0.1,1
				c0,0.3,0,0.7,0.1,1c0.1,0.3,0.2,0.6,0.4,0.9c0.2,0.3,0.4,0.5,0.7,0.6c0.3,0.2,0.6,0.2,1,0.2c0.3,0,0.5,0,0.8-0.1
				c0.2-0.1,0.4-0.2,0.6-0.4c0.2-0.2,0.3-0.4,0.4-0.6c0.1-0.2,0.1-0.5,0.2-0.7h1.2c0,0.4-0.1,0.8-0.3,1.2c-0.2,0.4-0.4,0.7-0.6,0.9
				c-0.3,0.3-0.6,0.5-1,0.6c-0.4,0.1-0.8,0.2-1.2,0.2c-0.5,0-1-0.1-1.5-0.3c-0.4-0.2-0.8-0.5-1.1-0.8c-0.3-0.3-0.5-0.8-0.7-1.2
				s-0.2-1-0.2-1.5c0-0.5,0.1-1,0.2-1.5s0.4-0.9,0.7-1.2c0.3-0.3,0.7-0.6,1.1-0.8c0.4-0.2,0.9-0.3,1.5-0.3c0.4,0,0.8,0.1,1.2,0.2
				c0.4,0.1,0.7,0.3,1,0.5c0.3,0.2,0.5,0.5,0.7,0.8s0.3,0.7,0.3,1H72.4z"/>
		</g>
		<g enable-background="new    ">
			<path fill="#FFFFFF" d="M74.2,93.6h5.9v1.1h-2.3v6.2h-1.3v-6.2h-2.3V93.6z"/>
		</g>
		<g enable-background="new    ">
			<path fill="#FFFFFF" d="M80.3,93.6h1.3l1.8,5.8h0l1.9-5.8h1.3l-2.5,7.3h-1.4L80.3,93.6z"/>
		</g>
		<g enable-background="new    ">
			<path fill="#FFFFFF" d="M134.9,98.6c0,0.3,0.1,0.5,0.3,0.6c0.2,0.2,0.4,0.2,0.7,0.2c0.3,0,0.5-0.1,0.7-0.2
				c0.2-0.2,0.3-0.3,0.4-0.6c0.1-0.2,0.2-0.5,0.2-0.7c0-0.3,0.1-0.5,0.1-0.7l0,0c-0.1,0.3-0.3,0.4-0.6,0.6c-0.2,0.1-0.5,0.2-0.8,0.2
				c-0.3,0-0.6-0.1-0.8-0.2c-0.2-0.1-0.5-0.2-0.6-0.4c-0.2-0.2-0.3-0.4-0.4-0.7c-0.1-0.3-0.1-0.6-0.1-0.9c0-0.3,0-0.6,0.1-0.9
				c0.1-0.3,0.2-0.5,0.4-0.7c0.2-0.2,0.4-0.4,0.7-0.5c0.3-0.1,0.6-0.2,0.9-0.2c0.5,0,0.8,0.1,1.1,0.3c0.3,0.2,0.5,0.4,0.7,0.7
				c0.2,0.3,0.3,0.7,0.4,1.1c0.1,0.4,0.1,0.9,0.1,1.3c0,0.4,0,0.8-0.1,1.2c-0.1,0.4-0.2,0.8-0.4,1.1c-0.2,0.3-0.4,0.6-0.8,0.8
				c-0.3,0.2-0.7,0.3-1.1,0.3c-0.3,0-0.5,0-0.7-0.1c-0.2-0.1-0.4-0.2-0.6-0.4c-0.2-0.2-0.3-0.3-0.4-0.6c-0.1-0.2-0.2-0.5-0.2-0.7
				H134.9z M135.9,94.5c-0.2,0-0.4,0-0.5,0.1c-0.1,0.1-0.3,0.2-0.4,0.3c-0.1,0.1-0.2,0.3-0.2,0.4c0,0.2-0.1,0.3-0.1,0.5
				c0,0.2,0,0.3,0.1,0.5c0,0.2,0.1,0.3,0.2,0.4c0.1,0.1,0.2,0.2,0.4,0.3c0.1,0.1,0.3,0.1,0.5,0.1c0.2,0,0.4,0,0.5-0.1
				c0.1-0.1,0.3-0.2,0.4-0.3c0.1-0.1,0.2-0.3,0.2-0.4c0-0.2,0.1-0.3,0.1-0.5c0-0.2,0-0.3-0.1-0.5c0-0.2-0.1-0.3-0.2-0.4
				c-0.1-0.1-0.2-0.2-0.4-0.3C136.3,94.6,136.1,94.5,135.9,94.5z"/>
			<path fill="#FFFFFF" d="M139.2,95.6h1.3v1.2h-1.3V95.6z M139.2,99h1.3v1.2h-1.3V99z"/>
			<path fill="#FFFFFF" d="M145.9,98.7h-0.8v1.5h-1v-1.5h-2.8v-1l2.8-3.9h1v4.1h0.8V98.7z M142.2,97.9h2V95h0L142.2,97.9z"/>
			<path fill="#FFFFFF" d="M146.6,93.8h4.4v0.9c-0.3,0.4-0.6,0.8-0.9,1.2c-0.3,0.4-0.5,0.8-0.7,1.3c-0.2,0.5-0.4,0.9-0.5,1.5
				c-0.1,0.5-0.2,1.1-0.3,1.6h-1.2c0-0.5,0.1-1,0.3-1.5c0.1-0.5,0.3-1,0.5-1.4c0.2-0.5,0.5-0.9,0.8-1.3c0.3-0.4,0.6-0.8,0.9-1.2
				h-3.3V93.8z"/>
			<path fill="#FFFFFF" d="M156.4,93.7h1.2l2.5,6.6h-1.2l-0.6-1.7h-2.6l-0.6,1.7h-1.2L156.4,93.7z M156,97.6h2l-1-2.8h0L156,97.6z"
				/>
			<path fill="#FFFFFF" d="M160.7,93.7h1.6l1.8,5.1h0l1.8-5.1h1.6v6.6h-1.1v-5.1h0l-1.8,5.1h-0.9l-1.8-5.1h0v5.1h-1.1V93.7z"/>
		</g>
		<g>
			<path fill="#FFFFFF" d="M267.1,101.1h-17.2v-7.6h17.2V101.1z M250.2,100.7h16.5v-6.8h-16.5C250.2,93.9,250.2,100.7,250.2,100.7z"
				/>
		</g>
		<rect x="251" y="94.8" fill="#FFFFFF" width="10.2" height="5"/>
		<rect x="267.7" y="96.1" fill="#FFFFFF" width="1" height="2.5"/>
	</g>
</g>
<g id="Layer_2">
	<rect x="29" y="353.7" fill="#5F8643" width="244.1" height="168.5"/>
	<path fill="#577E3B" d="M70.5,499.3c14.9,1.3,29.8,1.5,44.7,1.1c53.2-1.1,106-8.2,157.9-20.1V353.7H29v142
		C42.9,496.3,56.7,498,70.5,499.3z"/>
	<path fill="#47702D" d="M217.3,510.7c-31.9,3-63.9,4.6-95.9,6.2c-16.5,0.8-33,1.8-49.5,1.4c-7.9-0.2-15.9-0.6-23.8-1.8
		c-6.4-0.9-12.7-2.2-19.1-3v8.6h244.1v-18.4C254.6,506.7,236,509,217.3,510.7z"/>
	<path fill="#5F8641" d="M42.9,438.9c5.7,1.4,11.4,2.5,17.2,3.3c12.5,1.7,25,2.3,37.6,2.3c58.6,0.4,117.1-3,175.4-8v-82.8H29v82.6
		C33.7,436.7,38.3,437.7,42.9,438.9z"/>
	<path fill="#9A8B63" d="M67.2,435.2c14,1.2,28.3,1.3,42.4,1.6c16.3,0.3,32.7,0.4,49-0.2c16.3-0.6,32.4-2.3,48.7-3.3
		c21.9-1.4,43.9-2.2,65.7-4.7v-74.9H29v76.7C41.8,431.5,54.4,434.1,67.2,435.2z"/>
	<path fill="#A1926E" d="M39.8,421.2c5.8,1.7,11.9,2.7,17.9,3.5c11.7,1.4,23.5,1.9,35.3,2.4c60.2,2.7,120.5-1.3,180.1-10v-63.4H29
		v64.4C32.6,418.8,36.2,420.1,39.8,421.2z"/>
	<path fill="#9A8A62" d="M99.2,396.4c58.2,1.9,116.4-2.6,173.9-11.2v-31.5H29v36.4C52.3,393.4,75.7,395.6,99.2,396.4z"/>
	<polygon fill="#96BAA6" points="28.1,148.5 28.1,176.5 272.8,168.5 273.1,158 	"/>
	<polygon fill="#81A663" points="28.1,176.5 28.1,289.1 273.1,289.1 273.1,168.5 	"/>
	<path fill="#658946" d="M109.8,386.6c15.2-0.5,30.3-0.5,45.5-0.7c16-0.1,31.8-1.1,47.8-2.1c23.3-1.4,46.9-1.6,70-5.4v-24.8H29v26.7
		C55.1,388.2,82.8,387.5,109.8,386.6z"/>
	<path fill="#5F8643" d="M37.9,373.8c6.4,2,12.7,3.1,19.4,3.8c13.6,1.4,27.4,2.3,41.1,2.9c32.4,1.3,64.7-0.5,96.9-3.2
		c26.1-2.2,52.1-5.4,77.8-10.5v-13H29v17.6C32,371.9,34.9,372.9,37.9,373.8z"/>
	<path fill="#336343" d="M247.6,312.7c0.2-0.8,1.1-50.4-22.8-51.4s-27,51.4-27,51.4H247.6z"/>
	<path fill="#386E4A" d="M224.8,312.7c1.3-1.5,17.8-25.3,5.5-39.4s-31.9,13.4-25.4,39.4H224.8z"/>
	<polygon fill="#5D7471" points="267,213 267.5,223.5 227,216 224.8,191.3 247.2,194.5 	"/>
	<polygon fill="#C6D0CF" points="272.8,153 272.8,177.3 255.2,194.5 251.5,187 	"/>
	<polygon fill="#C6D0CF" points="220.2,153 222.8,185.3 190,194.5 192.8,176.8 	"/>
	<polygon fill="#C6D0CF" points="186.8,173.8 184.5,190.8 159.5,211.5 	"/>
	<polygon fill="#C6D0CF" points="231,173.8 238.2,191.3 245.2,188.5 	"/>
	<polygon fill="#9EA5A3" points="220.2,153 251.5,187 255.2,194.5 245.2,188.5 238.2,191.3 222.8,185.3 	"/>
	<polygon fill="#9EA5A3" points="184.5,190.8 190,194.5 192.8,176.8 186.8,173.8 	"/>
	<polygon fill="#77918D" points="184.5,190.8 184.5,202 144.2,232.5 159.5,211.5 	"/>
	<polygon fill="#77918D" points="190,194.5 192.8,203 224.8,191.3 222.8,185.3 	"/>
	<polygon fill="#77918D" points="245.2,188.5 247.2,194.5 240.5,197.8 238.2,191.3 	"/>
	<polygon fill="#77918D" points="255.2,194.5 272.8,177.3 273.1,201.5 267,213 	"/>
	<polygon fill="#698480" points="192.8,203 198,225 227,216 224.8,191.3 	"/>
	<polygon fill="#698480" points="184.5,202 177.2,222.3 144.2,232.5 	"/>
	<polygon fill="#698480" points="247.2,194.5 244,211.5 240.5,197.8 	"/>
	<polygon fill="#688381" points="273.1,201.5 273.1,223.5 267.5,223.5 267,213 	"/>
	<polygon fill="#6A807E" points="222.8,185.3 238.2,191.3 240.5,197.8 224.8,191.3 	"/>
	<polygon fill="#627675" points="184.5,190.8 190,194.5 192.8,203 184.5,202 	"/>
	<polygon fill="#586F6B" points="184.5,202 192.8,203 198,225 177.2,222.3 	"/>
	<polygon fill="#475955" points="227,216 238.2,251.5 273.1,251.5 273.1,223.5 	"/>
	<polygon fill="#4B5F5D" points="227,216 198,225 202.5,240.3 238.2,251.5 	"/>
	<polygon fill="#475955" points="177.2,222.3 198,225 202.5,240.3 176,240.3 	"/>
	<polygon fill="#415451" points="144.2,232.5 177.2,222.3 176,240.3 	"/>
	<path fill="#2B492F" d="M117.2,185.3c0,0,21.5,75.8,20.7,75.6c-0.8-0.2-33.8,0-33.8,0L117.2,185.3z"/>
	<polygon fill="#385A3D" points="117.2,185.3 127.2,257.7 104,259.9 	"/>
	<polygon fill="#446C4A" points="117.2,192.7 117.2,257.7 107.5,256.5 	"/>
	<path fill="#5A4838" d="M117.8,202l1.8,19.2c0,0,5.5,1.3,5,1.1s-4.8,0-4.8,0l1.4,16.4l6.2,1.6h-6l1.2,12.8l6,2.3h-5.4v13.5L119,268
		v-19l-6,0.5l5.8-2.7l-0.5-18l-3.2,1l3-2.3L117.8,202z"/>
	<path fill="#2B492F" d="M97.5,205.8c0,0,32,112.8,30.8,112.5c-1.2-0.2-50.4,0-50.4,0L97.5,205.8z"/>
	<polygon fill="#385A3D" points="97.5,205.8 112.4,313.6 77.9,316.8 	"/>
	<polygon fill="#446C4A" points="97.5,216.8 97.5,313.6 83.1,311.9 	"/>
	<path fill="#5A4838" d="M98.5,230.7l2.7,28.5c0,0,8.2,2,7.4,1.6s-7.2,0-7.2,0l2.1,24.4l9.3,2.4h-8.9l1.7,19l8.9,3.5h-8.1v20.1
		l-6.3-1.2v-28.3l-8.9,0.7l8.7-4l-0.7-26.8l-4.7,1.5l4.5-3.5L98.5,230.7z"/>
	<path fill="#2B492F" d="M58.5,164c0,0,17.2,60.5,16.5,60.4s-27,0-27,0L58.5,164z"/>
	<polygon fill="#385A3D" points="58.5,164 66.5,221.8 48,223.6 	"/>
	<polygon fill="#446C4A" points="58.5,169.9 58.5,221.8 50.8,220.9 	"/>
	<path fill="#5A4838" d="M59,177.4l1.5,15.3c0,0,4.4,1.1,4,0.9c-0.4-0.2-3.9,0-3.9,0l1.1,13.1l5,1.3H62l0.9,10.2l4.8,1.9h-4.3v10.8
		l-3.4-0.7v-15.2l-4.8,0.4l4.7-2.1l-0.4-14.4l-2.5,0.8l2.4-1.9L59,177.4z"/>
	<path fill="#2B492F" d="M43.6,165.9c0,0,19.3,68.2,18.6,68c-0.7-0.1-30.4,0-30.4,0L43.6,165.9z"/>
	<polygon fill="#385A3D" points="43.6,165.9 52.6,231.1 31.8,233 	"/>
	<polygon fill="#446C4A" points="43.6,172.5 43.6,231.1 34.9,230 	"/>
	<path fill="#5A4838" d="M44.2,181l1.6,17.2c0,0,4.9,1.2,4.5,1c-0.4-0.2-4.3,0-4.3,0l1.3,14.7l5.6,1.4h-5.4l1,11.5L54,229h-4.9v12.1
		l-3.8-0.7v-17.1l-5.4,0.4l5.2-2.4l-0.4-16.2l-2.8,0.9l2.7-2.1L44.2,181z"/>
	<path fill="#336343" d="M207.4,290c0.3-1,1.5-66.5-30.1-67.8S141.7,290,141.7,290H207.4z"/>
	<path fill="#386E4A" d="M177.2,290c1.8-2,23.4-33.3,7.2-52s-42.1,17.7-33.5,52H177.2z"/>
	<path fill="#5A4838" d="M173.1,291c-1.8,0.5,0-32.3,0-32.3l1.5,27c0,0,6-2.3,6-10.8C180.7,274.9,183.6,288.4,173.1,291z"/>
	<path fill="#2B492F" d="M226.3,180c0,0,19.8,69.6,19,69.4c-0.8-0.2-31.1,0-31.1,0L226.3,180z"/>
	<polygon fill="#385A3D" points="226.8,180.4 235.9,247 214.7,249 	"/>
	<polygon fill="#446C4A" points="226.3,186.8 226.3,246.5 217.4,245.5 	"/>
	<path fill="#5A4838" d="M227.4,195.8l1.7,17.6c0,0,5.1,1.2,4.6,1c-0.5-0.2-4.4,0-4.4,0l1.3,15.1l5.7,1.5h-5.5l1.1,11.7l5.5,2.1h-5
		v12.4l-3.9-0.8V239l-5.5,0.5l5.4-2.5l-0.5-16.5l-2.9,0.9l2.8-2.1L227.4,195.8z"/>
	<rect x="29" y="289.1" fill="#101010" width="244.1" height="64.6"/>
	<g>
		<g>
			<g>
				<defs>
					<path id="SVGID_1_" d="M248.3,335.8c0,4.8-3.9,8.8-8.6,8.8h-28c-4.8,0-8.7-3.9-8.7-8.8v-28.3c0-4.9,3.9-8.8,8.6-8.8h28
						c4.8,0,8.6,3.9,8.6,8.8L248.3,335.8L248.3,335.8z"/>
				</defs>
				<clipPath id="SVGID_2_">
					<use xlink:href="#SVGID_1_"  overflow="visible"/>
				</clipPath>
				<g clip-path="url(#SVGID_2_)">
					<g>
						<path fill="#FEC919" d="M246.1,344.6c-1.9,0-3.8,0-5.7,0c-0.2-0.1-0.3-0.2-0.4-0.4c-1.2-1.9-2.4-3.8-3.7-5.7
							c-0.8-1.1-1.4-2.3-2.2-3.4c-0.4-0.5-0.7-1.1-1.1-1.7c-0.1-0.2-0.2-0.3,0-0.5c1-0.2,2-0.2,3.1-0.5c0.4-0.1,0.8-0.2,1.1-0.4
							c0.5-0.2,0.7-0.5,0.7-1.1c0.1-0.3,0-0.7,0.2-1c0.3-0.2,0.5,0.2,0.7,0.2c1.1,0.7,2.1,1.4,3.1,2c1.9,1.3,3.9,2.6,5.7,3.9
							c0.2,0.2,0.5,0.3,0.5,0.6c0,1.7,0,3.5,0,5.2c0,1-0.4,1.7-1.1,2.2C246.8,344.5,246.4,344.5,246.1,344.6z"/>
						<path fill="#FEC619" d="M211.1,344.6c-2,0-4,0-6,0c-0.3-0.2-0.7-0.1-1-0.3c-0.8-0.5-1.1-1.3-1.1-2.2c0-1.7,0-3.5,0-5.2
							c0-0.3,0.3-0.4,0.5-0.5c2-1.3,3.9-2.6,5.9-3.9c0.8-0.5,1.7-1.1,2.5-1.7c0.2-0.1,0.2-0.2,0.5-0.2c0.8,0.1,1.5,0.2,2.3,0.2
							c0.3,0,0.6,0,0.9-0.1c0.2-0.1,0.5,0,0.5,0.2c0.1,0.2,0.1,0.5,0.2,0.8c0.1,0.3,0.2,0.4,0.5,0.4c0.6,0,1.1,0.1,1.7-0.1
							c0.2,0,0.3,0,0.5,0.1c0.2,0.1,0.2,0.2,0.1,0.3c-0.4,0.6-0.7,1.4-1.3,1.8c-0.2,0-0.2,0-0.3-0.1c-0.5-0.3-0.9-0.2-1.4,0.1
							c-1.3,0.8-2.6,1.6-3.7,2.7c-0.3,0.3-0.5,0.7-0.5,1.1c-0.2,1.7-0.3,3.4-0.5,5.1c0,0.2,0,0.5,0,0.7
							C211.3,344.1,211.3,344.4,211.1,344.6z"/>
						<path fill="#4F65A8" d="M211.1,344.6c0.2-2.3,0.4-4.6,0.5-6.9c0-0.3,0.2-0.6,0.4-0.8c1.3-1.4,2.9-2.3,4.5-3.2
							c0.2-0.1,0.2-0.1,0.4,0c0.3,0.2,0.5,0.3,0.8,0.4c0.1,0,0.2,0,0.3,0.1c1.5,0.8,2.5,2.2,3.5,3.5c1.7,2.1,3.2,4.3,4.8,6.4
							c0.2,0.2,0.3,0.3,0.2,0.5c-0.7,0-1.4,0-2.1,0c-0.2-0.1-0.3-0.2-0.4-0.4c-0.2-0.5-0.5-0.8-0.8-1.1c-0.7-1-1.6-1.7-2.4-2.6
							c-0.7-0.8-1.5-1.5-2.3-2.2c-0.5-0.5-0.9-0.8-1.1-1.1c0.4,0.3,0.9,0.8,1.4,1.3c0.6,0.6,1.2,1.1,1.7,1.7c0.5,0.6,1.2,1.2,1.7,2
							c0,0.1,0.1,0.1,0.2,0.2c0.8,0.5,1,1.4,1.5,2c0.1,0.1,0.2,0.2,0.1,0.4c-0.9,0-1.9,0-2.8,0c-0.2-0.1-0.3-0.2-0.5-0.4
							c-0.8-1.3-1.5-2.5-2.3-3.7c-1.1-1.6-2.5-3.1-4.2-4.1c1,0.5,2.6,2,3.3,2.9c1,1.3,1.9,2.6,2.7,4c0.2,0.4,0.5,0.8,0.6,1.2
							c-1.4,0-2.6,0-4,0c-0.1-0.1-0.2-0.2-0.3-0.3c-0.7-1.3-1.4-2.4-2.2-3.6c-0.4-0.6-0.8-1.2-1.4-1.8c-0.1-0.1-0.1-0.1-0.2-0.1
							c-0.2,0.2-0.2,0.4-0.2,0.5c-0.2,1.6-0.6,3.1-0.8,4.7c0,0.2,0,0.4-0.2,0.5C211.5,344.6,211.3,344.6,211.1,344.6z"/>
						<path fill="#E0DCD9" d="M226.5,344.6c-0.5-0.8-1.1-1.4-1.7-2.2c-1.4-1.9-2.9-3.8-4.3-5.7c-0.8-1-1.6-1.9-2.6-2.6
							c0.1-0.2,0.2-0.2,0.3-0.2c0.3,0.1,0.5,0.3,0.8,0.5c1.8,1.6,3.6,3.2,5.4,4.8c0.5,0.5,1.1,0.8,1.4,1.4c0.2,0.1,0.3,0.2,0.5,0.2
							c0.2,0.3,0.6,0.4,0.8,0.8c0,0.2-0.2,0.3-0.4,0.5c-0.1,0-0.1,0.1-0.2,0.1c0.1-0.1,0.1-0.1,0.2-0.1c0.2-0.1,0.2-0.2,0.4-0.3
							c0.4,0,0.5,0.4,0.8,0.5c0.2,0.2,0.4,0.3,0.6,0.5c0-0.3,0-0.5-0.1-0.7c0-0.2-0.1-0.5,0.1-0.8c0.2-0.1,0.3,0.1,0.5,0.1
							c0.2,0.1,0.5,0.1,0.6,0.2c-0.1-0.1-0.3-0.1-0.5-0.2s-0.5-0.1-0.7-0.2c-0.1-0.2-0.1-0.4-0.1-0.6c0.1-0.3,0.4-0.5,0.6-0.6
							c0.1,0,0.2-0.1,0.2-0.2l0.1-0.1l-0.1,0.1l-0.1,0.1c-0.2,0.1-0.3,0.5-0.6,0.3c-0.2-0.5-0.2-1.2-0.2-1.9c0-0.2,0-0.3,0-0.5
							c-0.1-1.3-0.3-2.6-0.4-3.9c0-0.3-0.1-0.6,0-0.9c0.1-0.1,0.2-0.1,0.2-0.2c0.2,0,0.4,0,0.5,0c0.3,0.2,0.7,0.1,1,0.1s0.6,0,0.9,0
							c0.2,0.1,0.4,0.2,0.5,0.5c0.4,0.7,0.8,1.3,1.1,2c0.6,1.2,1.2,2.4,1.7,3.7c0.6,1.5,1.1,3.1,1.6,4.8c0.1,0.2,0.2,0.5,0,0.6
							C232.2,344.6,229.4,344.6,226.5,344.6z"/>
						<path fill="#FED74E" d="M235,344.6c-0.1-0.6-0.3-1.2-0.5-1.8c-0.4-1.1-0.7-2.3-1.2-3.3c0-0.1,0-0.2-0.1-0.2
							c0-0.2,0.2-0.2,0.2-0.1c0.3,0.2,0.5,0.1,0.8-0.1c0.4-0.2,0.8-0.5,1.1-0.7c0.4-0.2,0.7-0.3,1.1,0c1.2,1.9,2.5,3.8,3.7,5.7
							c0.1,0.2,0.2,0.2,0.2,0.4C238.7,344.6,236.8,344.6,235,344.6z"/>
						<path fill="#D6D2CF" d="M212.9,338.6c0.6,0.7,1.1,1.3,1.6,2c0.1,1.1,0.2,2.2,0.3,3.2c0,0.3,0.2,0.5,0.5,0.5s0.6,0,0.9,0
							c0.2,0,0.4,0,0.5,0.2c-0.8,0-1.4,0-2.2,0c-0.2-0.1-0.4-0.1-0.6-0.1c-0.4,0-0.5-0.2-0.6-0.5c-0.2-0.8-0.2-1.7-0.3-2.6
							c-0.1-0.5,0-1-0.2-1.4c-0.3-0.5-0.2-0.9,0-1.4C212.8,338.6,212.9,338.6,212.9,338.6z"/>
						<path fill="#CECAC7" d="M212.9,338.6c-0.2,0.2-0.2,0.5-0.2,0.8c0,0.1,0,0.2,0,0.2c0.6,0.5,0.4,1.2,0.5,1.8
							c0.2,0.9,0.2,1.8,0.3,2.7c0,0.3,0.2,0.5,0.5,0.5c0.2,0,0.4-0.1,0.5,0.1c-0.9,0-1.9,0-2.8,0c0.1-1.2,0.4-2.3,0.5-3.5
							c0.2-0.8,0.3-1.5,0.5-2.3C212.7,338.6,212.7,338.5,212.9,338.6z"/>
						<path fill="#DFDBD8" d="M216.7,344.6c-0.5-0.2-1-0.1-1.4-0.1c-0.4,0-0.6-0.1-0.6-0.5c-0.1-1-0.2-2-0.3-2.9
							c0-0.2,0-0.3,0.2-0.5c0.9,1.2,1.7,2.6,2.4,3.9C216.8,344.6,216.7,344.6,216.7,344.6z"/>
						<path fill="#494F81" d="M220.9,344.6c-0.4-0.5-0.7-1.1-1.1-1.7c-0.4-0.7-0.9-1.3-1.3-2c-0.4-0.6-0.8-1.1-1.2-1.7
							c-0.8-1.1-1.7-1.8-2.8-2.6c-0.2-0.1-0.3-0.2-0.4-0.3c0.5,0.2,1,0.5,1.4,0.9c1.1,0.8,1.9,1.8,2.7,2.9c1,1.3,1.8,2.7,2.6,4.2
							c0.1,0.2,0.2,0.3,0.3,0.4C221.1,344.6,221,344.6,220.9,344.6z"/>
						<path fill="#484F80" d="M224.1,344.6c-0.2-0.5-0.6-0.8-0.8-1.2c-0.2-0.2-0.3-0.4-0.4-0.7c0-0.1-0.1-0.2-0.1-0.2
							c-0.8-0.6-1.4-1.5-2-2.2c-0.8-0.7-1.4-1.4-2.2-2.2c-0.5-0.5-1.1-1-1.6-1.7c0.5,0.5,1.1,0.9,1.7,1.4c0.8,0.7,1.4,1.3,2.1,2
							c0.6,0.7,1.3,1.3,1.9,2c0.5,0.6,1,1.1,1.4,1.7c0.2,0.2,0.2,0.6,0.5,0.8C224.3,344.6,224.1,344.6,224.1,344.6z"/>
						<path fill="#533327" d="M238.3,330.2c-0.1,0.5-0.1,0.9-0.2,1.3c-0.2,0.4-0.2,0.8-0.7,0.8c-0.5,0-0.8,0.3-1.3,0.3
							c-0.2,0-0.5,0.1-0.6-0.2c0-0.5,0-0.8,0-1.1c0.1,0.4-0.1,0.8,0.1,1.3c-0.3,0.3-0.8,0.2-1.1,0.3c-1.2,0.2-2.5,0.3-3.7,0.2
							c-0.2,0-0.5,0-0.7-0.2c-0.2-0.3-0.1-0.7-0.2-1c0.1,0.3-0.1,0.6,0.1,1c0,0.1-0.1,0.1-0.2,0.1c-0.9,0.1-1.7,0-2.6-0.2
							c-0.5-0.2-0.7-0.5-0.7-1c0-0.5,0.1-0.8,0.1-1.2c0.2-0.8,0.2-1.7-0.2-2.5c0-0.1-0.1-0.1-0.1-0.2c0-0.2-0.1-0.3,0.1-0.4
							s0.3,0,0.5,0.2c0.2,0.2,0.3,0.3,0.5,0.5c0.3,0.2,0.6,0.3,1,0.1c0.5-0.3,0.9-0.5,1.3-0.9c-0.3-0.2-0.8-0.2-1-0.4
							c-0.2-0.2-0.2-0.5-0.2-0.7c0,0.1,0,0.2-0.1,0.2c-0.2,0.2-0.4,0.2-0.6,0.2c-0.4-0.1-0.7-0.2-1-0.5c-0.4-0.3-0.5-0.9-0.3-1.4
							c0.2-0.5,1-1,1.5-0.8c0.2,0.4,0,0.8,0.1,1.1c0-0.4,0.1-0.8-0.1-1.3c0-0.1,0.1-0.2,0.2-0.2c0.1,0,0.1,0,0.2,0
							c0.5,0.1,1,0,1.4,0c0.5,0,0.5,0.1,0.5,0.5c0,0.2,0,0.5,0,0.7c0-0.2,0-0.5,0-0.7c-0.1-0.4,0.2-0.6,0.5-0.6
							c0.2,0,0.4-0.2,0.5-0.1c0.8,0.2,1.5,0.8,2.3,1.2c0.3,0.2,0.5,0.3,0.8,0.5c0.1-0.7,0.2-1.4,0.5-2c0.2-0.6,0.5-1.2,0.8-1.7
							c0.1-0.2,0.2-0.4,0.4-0.4c0.2,0.2,0.2,0.4,0.2,0.5c0,0.2,0,0.3,0,0.5c0-0.4,0-0.8-0.1-1.3c0-0.2,0.1-0.2,0.2-0.4
							c0.1-0.2,0-0.5,0.1-0.7c0.1-0.2,0.1-0.3,0.2-0.4c0.1,0,0.2,0.2,0.2,0.2c0,1.5,0.5,2.9,0.7,4.4c0,0.2,0.1,0.3,0.1,0.5
							c0.3,1.4,0.5,2.7,0.5,4.1c0,0.5,0.2,0.8,0.1,1.3C238.4,329.8,238.4,330,238.3,330.2z"/>
						<path fill="#4B2D23" d="M230,333c0.9,0.2,1.8,0.1,2.8,0.1c0.7,0,1.4-0.2,2.1-0.2c0.2,0,0.5-0.1,0.7-0.2l0,0
							c0.5,0,1.1-0.2,1.6-0.3c0.1-0.1,0.2-0.1,0.3,0c-1.4,0.6-2.9,0.7-4.3,0.8c-0.1,0.1-0.2,0.2-0.4,0.2c-0.3-0.1-0.7,0-1,0.1
							c-0.5,0.1-1,0.1-1.4-0.1c-0.3,0-0.7,0-1-0.1c-0.3-0.1-0.7,0-1-0.1c-0.2,0-0.3,0-0.5,0c-0.2,0-0.5,0.1-0.8,0.1
							c-2.3-0.2-4.4-0.8-6.2-2.3c-1.2-1.2-2-2.7-2.6-4.4c-0.1-0.2-0.1-0.2-0.1-0.4c0-0.1,0.1-0.1,0.1-0.2c0.1-0.1,0.2,0,0.2,0.1
							c0.3,0.5,0.5,0.9,0.7,1.4c0.1,0.2,0.2,0.4,0.3,0.5c0,0.1,0,0,0,0s0,0,0-0.1c0-0.2-0.1-0.4,0.2-0.5c0.2,0.2,0.2,0.4,0.2,0.6
							c0,0.2,0,0.5,0.2,0.5c0.1-0.2,0.1-0.2,0.1-0.4c0-0.8,0-1.5,0.1-2.3c0.1-1.1,0-2.1-0.1-3.1c0-0.2-0.1-0.4,0.1-0.5
							c0.2-0.2,0.4,0,0.5,0.2c0.9,0.8,1.8,1.6,2.7,2.3c1.1,1,0.7,1,2,0.2c0.1,0,0,0,0,0c0.7-0.5,1.4-0.8,2-1.2
							c0.3-0.2,0.5-0.4,0.9-0.1c0,0.1-0.1,0.1-0.1,0.2c0,0.1,0,0.2-0.1,0.2c-0.8,0.1-1.4,0.7-1.4,1.4c0,0.5,0.5,0.8,0.8,0.9
							c0.3,0.2,0.6,0.4,0.9,0.1c0.1,0.2,0.2,0.2,0.1,0.4c-0.2,0.1-0.3,0.1-0.5,0.1c-0.6-0.2-1.2-0.3-1.7-0.5
							c-0.3-0.2-0.3-0.2-0.3-0.8c0,0.4,0,0.8,0.2,1c0.2,0.2,0.3,0.5,0.5,0.8c0.3,0.5,0.7,0.8,1.3,0.8c0.2,0,0.2,0,0.3,0.2
							c0.2,0.2-0.1,0.2-0.2,0.2c-0.5,0.1-0.9-0.1-1.3-0.5c-0.2-0.2-0.3-0.4-0.5-0.4c-0.1,0.2,0,0.3,0,0.4c0.5,1,0.4,2,0.2,2.9
							c-0.1,0.4,0,0.8-0.1,1.1c0,0.3,0.2,0.5,0.4,0.5c0.3,0.1,0.7,0.2,1,0.3c0.5,0.1,1,0.1,1.5,0.2C229.7,333.1,229.9,333.1,230,333
							L230,333z"/>
						<path fill="#FED74E" d="M248.3,326.5c0,3.5,0,6.9,0,10.3c-2-1.3-3.9-2.6-5.9-3.9c-0.2-0.1-0.2-0.2-0.4-0.3
							c-0.3-0.4-0.2-0.7,0-1.1c0.9-1.6,1.6-3.2,2-5.1c0.1-0.4,0.4-0.6,0.7-0.8c0.2-0.1,0.4,0,0.5,0c0.8,0.2,1.7,0.4,2.5,0.5
							C248,326.3,248.2,326.3,248.3,326.5z"/>
						<path fill="#FEDE6B" d="M244.7,325.8c-0.5,0.2-0.5,0.8-0.7,1.3c-0.5,1.7-1.1,3.2-2,4.7c-0.2,0.3,0,0.6-0.1,0.9
							c-1.1-0.7-2-1.4-3.1-2c-0.2-0.3-0.2-0.7,0-1c0.7-1.1,1.2-2.4,1.5-3.7c0.1-0.5,0.3-0.8,0.7-0.9c0.8,0,1.5,0.3,2.3,0.4
							c0.3,0.1,0.6,0.2,0.9,0.2C244.5,325.6,244.6,325.7,244.7,325.8z"/>
						<path fill="#FEDE68" d="M236.5,338.5c-0.8-0.3-1.3,0.4-1.9,0.6c-0.1,0.1-0.2,0.2-0.3,0.2c-0.4,0.2-0.7,0.2-1.1-0.1
							c-0.5-1.2-1.1-2.4-1.7-3.7c-0.1-0.2,0.1-0.2,0.2-0.2c0.5,0.2,0.8-0.1,1.1-0.3c0.2-0.1,0.3-0.2,0.5-0.3
							c0.4-0.2,0.6,0.1,0.8,0.3C235.1,336.2,235.8,337.4,236.5,338.5z"/>
						<path fill="#FEE27A" d="M241.1,325c-0.5,0.4-0.5,1-0.7,1.6c-0.2,0.9-0.6,1.7-1.1,2.6c-0.2,0.5-0.6,0.8-0.5,1.4
							c-0.2-0.2-0.4-0.2-0.6-0.4c0-2-0.3-3.9-0.6-5.9c0.2-0.2,0.3-0.1,0.5-0.1c0.9,0.2,1.7,0.3,2.6,0.6
							C240.9,324.8,241,324.8,241.1,325z"/>
						<path fill="#FDE480" d="M234.3,335.1c-0.5-0.3-0.8-0.2-1.3,0.2c-0.4,0.3-0.8,0.5-1.4,0.3c-0.5-0.8-0.8-1.6-1.4-2.3
							c0.5,0,1,0,1.5-0.1c0.3-0.1,0.7,0,1-0.1c0.1,0,0.2,0,0.3,0C233.4,333.8,233.9,334.5,234.3,335.1z"/>
						<path fill="#FED74E" d="M203,336.8c0-3.5,0-6.9,0-10.3c0.1-0.2,0.2-0.2,0.4-0.2c1-0.2,2-0.5,3-0.6c0.1,0,0.2,0,0.3,0
							c0.4,0.2,0.5,0.6,0.7,1.1c0.5,1.7,1.1,3.3,2,4.8c0.2,0.4,0.3,0.8-0.1,1.1c-1.4,1-2.9,2-4.3,2.9
							C204.4,335.9,203.7,336.5,203,336.8z"/>
						<path fill="#351F15" d="M218.1,326.2c0.2,0.9,0.7,1.7,1.1,2.6c0.4,0.8,1,1.4,1.5,2.1c0,0.6-0.2,1.1-0.7,1.4
							c-0.4,0.1-0.8,0.2-1.1-0.1c-0.8,0-1.7,0.1-2.4,0.1c-0.3,0-0.5-0.1-0.5-0.4s-0.1-0.6-0.1-0.9c0-0.3-0.2-0.3-0.4-0.2
							c-1.1,0.2-2.1,0.1-3.2-0.2c-0.2-0.3,0.2-0.5,0.2-0.7c0.1-0.1,0.2-0.2,0.2-0.3c0.5-0.6,0.8-1.4,1-2.1c0.1-0.2,0.1-0.6,0.3-0.8
							c0.4,0.1,0.2,0.4,0.2,0.6c-0.2,0.9-0.5,1.7-1,2.5c-0.3,0.5-0.3,0.5,0.3,0.6c0.3,0.1,0.7,0,1,0c0.3,0,0.5-0.2,0.5-0.5
							c0.2-0.6,0.3-1.3,0.2-1.9c-0.1-0.4,0.1-0.7,0.2-1c0.4-0.6,0.5-1.2,0.2-1.9c-0.1-0.2-0.2-0.2,0.1-0.4c0.3,0,0.5,0.2,0.5,0.4
							c0.1,1.1-0.1,2.2,0,3.3c0,0.5,0,1.1-0.1,1.6c-0.1,0.3,0,0.6-0.1,0.9c0-0.2,0-0.4,0-0.6c0.1-0.5,0.1-1.1,0.1-1.7
							c0-1.1,0-2.3,0.1-3.5c0.3-0.3,0.7-0.1,1,0c0.1,0.1,0.2,0.2,0.2,0.3c0.5,1.4,0.9,2.7,1.4,4c0.1,0.2,0.2,0.4,0.2,0.5
							c0-0.1-0.1-0.2-0.1-0.2c-0.1-0.2-0.1-0.2-0.2-0.4c-0.5-1.4-1.1-2.8-1.5-4.2c0-0.1,0-0.1,0.1-0.2c0.3-0.1,0.4,0.2,0.5,0.4
							C218.1,325.8,218.1,326,218.1,326.2z"/>
						<path fill="#FEDF6C" d="M212.6,330c0,0.3-0.3,0.3-0.4,0.5c0,0.1-0.2,0.2-0.2,0.2c-0.9,0.7-1.8,1.3-2.8,1.9
							c0.4-0.6-0.1-1.1-0.4-1.5c-0.8-1.4-1.4-2.9-1.7-4.4c-0.1-0.3-0.1-0.6-0.5-0.8c-0.1,0,0-0.2,0-0.2c0.2-0.2,0.3-0.3,0.5-0.3
							c0.9-0.2,1.9-0.4,2.8-0.6c0.1,0,0.2,0,0.3,0c0.5,0.2,0.7,0.5,0.8,1c0.3,1.1,0.8,2.3,1.3,3.2
							C212.6,329.4,212.7,329.7,212.6,330z"/>
						<path fill="#FEE482" d="M218.9,332.2c0.5,0,0.8,0,1.3-0.1c0.1,0.2,0,0.3-0.1,0.5c-0.2,0.3-0.3,0.5-0.4,0.8
							c-0.3,0.6-0.7,0.8-1.4,0.8c-0.2,0-0.2,0-0.4,0.1c-0.1-0.1-0.2-0.1-0.2-0.2C218.1,333.4,218.5,332.8,218.9,332.2z"/>
						<path fill="#3A241D" d="M212.1,330.7c-0.1-0.2,0.1-0.2,0.2-0.2c0.5,0.3,1.1,0.2,1.7,0.3c0.5,0.1,0.9,0.1,1.4-0.1
							c0.2-0.1,0.5-0.2,0.5,0.3c-0.1-0.1-0.1-0.2-0.3-0.2C214.4,331,213.3,330.9,212.1,330.7z"/>
						<path fill="#B2806B" d="M218.3,334.2c0.9-0.1,1.3-0.8,1.6-1.5c0.1-0.2,0.2-0.4,0.3-0.5c0.2-0.5,0.5-0.9,0.6-1.3
							c0.2,0,0.4,0.2,0.6,0.4c1.4,0.9,2.8,1.4,4.4,1.7c0.4,0.1,0.8,0.2,1.2,0.2c0.2,0.4,0,0.7,0,1.1c0,0.2-0.1,0.4-0.1,0.7
							c0-0.5,0.1-0.9,0.2-1.4c0.1-0.5,0.3-0.4,0.6-0.3c0.2,1.6,0.3,3.2,0.5,4.8c0,0.6-0.4,0.9-0.9,1c-0.5,0.1-1,0.2-1.5,0.5
							c-0.5,0.2-0.9,0.3-1.4,0.1C222.3,337.7,220.3,336,218.3,334.2z"/>
						<path fill="#A7745C" d="M224.3,339.5c0.6,0,1.1-0.2,1.7-0.4c0.5-0.2,1-0.3,1.4-0.4s0.5-0.5,0.6-0.8c0.1,0.8,0.2,1.7,0.4,2.5
							c-0.3,0.7-0.7,0.8-1.4,0.8c-0.4-0.1-0.8-0.2-1.1-0.3c-0.2-0.1-0.2-0.1-0.4,0c-0.1,0-0.1-0.1-0.2-0.1c0.3-0.3-0.1-0.3-0.2-0.5
							C225,340.1,224.7,339.8,224.3,339.5z"/>
						<path fill="#9F6E55" d="M228.5,341.6c-0.1,0.6,0.2,1.1,0.1,1.7c-0.6-0.5-1.1-1-1.6-1.4C227.3,341.3,228,341.1,228.5,341.6z"/>
						<path fill="#533529" d="M228.5,341.6L228.5,341.6c-0.7-0.2-1.1-0.1-1.5,0.5c-0.2,0.1-0.2,0.2-0.4,0.3c-0.1,0.1-0.1,0-0.1-0.1
							c0.1-0.2,0.2-0.2,0.3-0.4c0-0.2,0.2-0.2,0.2-0.4c-0.3-0.2-0.7-0.2-1-0.4c-0.2-0.1-0.3-0.2-0.5-0.2c0.2-0.2,0.3-0.1,0.5,0
							c0.2,0.1,0.3,0.1,0.5,0.1c0.8,0.3,1.4,0.2,1.9-0.5c0.2-0.2,0.4-0.3,0.5-0.5c0,0.1,0,0.1,0,0.2c-0.2,0.2-0.4,0.4-0.5,0.5
							c-0.1,0.2-0.2,0.3-0.3,0.5c0.1,0.1,0.2,0.1,0.3,0.2c0.2,0.2,0.5,0.2,0.7,0.2c0,0.2-0.1,0.1-0.2,0.1S228.7,341.6,228.5,341.6z"
							/>
						<path fill="#7E5146" d="M227.6,333.1c-0.3-0.1-0.5,0-0.5,0.3c-0.1,0.6-0.2,1.2-0.3,1.8c-0.1-0.8,0.2-1.5,0.2-2.3
							c0.3,0,0.5-0.1,0.8,0.1C227.7,333.1,227.6,333.1,227.6,333.1z"/>
						<path fill="#A27057" d="M226.2,341.1c0.5-0.1,0.8,0.2,1.4,0.2c-0.2,0.2-0.4,0.4-0.6,0.5C226.7,341.6,226.4,341.4,226.2,341.1z
							"/>
						<path fill="#A5745B" d="M228.4,341.4c-0.2,0-0.4-0.1-0.6-0.2c0.2-0.2,0.4-0.4,0.5-0.5C228.4,341,228.4,341.1,228.4,341.4z"/>
						<path fill="#A89A93" d="M225.3,340.8c-0.2,0.1-0.4-0.1-0.6-0.2c0.2,0,0.4,0.1,0.6,0.1C225.3,340.8,225.3,340.8,225.3,340.8z"
							/>
						<path fill="#9F6E55" d="M229,341.7c0.1,0,0.1-0.1,0.2-0.1c0.2,0.1,0.5,0.1,0.7,0.2C229.5,341.8,229.2,341.7,229,341.7z"/>
						<path fill="#88746A" d="M226.6,342.2L226.6,342.2c-0.1,0.2-0.2,0.4-0.4,0.5l-0.1-0.1C226.3,342.5,226.5,342.3,226.6,342.2z"/>
						<path fill="#533327" d="M228.2,333.1c0.3,0,0.7-0.1,1,0.1C228.9,333.2,228.6,333.2,228.2,333.1z"/>
						<path fill="#796257" d="M229,340.2c0-0.1,0-0.1,0-0.2c0.2-0.2,0.3-0.2,0.4-0.4c0,0,0,0.1,0.1,0.1
							C229.3,339.9,229.1,340.1,229,340.2z"/>
						<path fill="#FEC619" d="M240.5,298.8c1.7,0,3.5,0,5.2,0c1.3,0,2.4,1.2,2.5,2.5c0,1.8,0,3.6,0,5.4c-0.1,0.2-0.3,0.4-0.5,0.5
							c-1.8,1.2-3.6,2.4-5.4,3.6c-1,0.7-2,1.4-3,2c-0.6,0.4-1.1,0.8-1.7,1.2c-0.3,0.2-0.5,0.4-0.8,0.6c-0.2,0.1-0.2,0.2-0.5,0.2
							c-0.2-0.1-0.2-0.3-0.2-0.5c-0.3-2-0.9-3.9-1.7-5.7c-0.1-0.2-0.1-0.3-0.1-0.5c0.5-0.8,1.1-1.6,1.5-2.4c0.2-0.4,0.5-0.8,0.8-1.2
							c1.2-1.7,2.3-3.5,3.4-5.2C240.2,299.1,240.4,298.9,240.5,298.8z"/>
						<path fill="#FEC819" d="M203,306.7c0-1.8-0.1-3.7,0-5.5c0-1.3,1.2-2.4,2.5-2.5c1.7,0,3.6,0,5.3,0c0.2,0.1,0.2,0.2,0.4,0.3
							c1.2,1.9,2.4,3.8,3.6,5.7c0.7,1.1,1.4,2.1,2.1,3.2c0.2,0.2,0.3,0.4,0.3,0.6c-0.2,0.5-0.7,0.7-1.1,1c-1.1,1-1.9,2.3-2,3.8
							c0,0.2-0.1,0.4-0.2,0.5c-0.5,0-0.8-0.4-1.1-0.6c-1.1-0.8-2.3-1.5-3.3-2.3c-1.9-1.3-3.9-2.6-5.7-3.9
							C203.3,307,203.1,306.9,203,306.7z"/>
						<path fill="#FEC919" d="M241.1,325c-1.1-0.2-2.3-0.5-3.4-0.8c-0.2-1.5-0.7-2.9-0.8-4.5c0-0.2,0-0.2,0-0.4
							c0.1-0.2,0.2-0.2,0.4-0.2c0.7-0.2,1.4-0.4,2.1-0.5c0.7-0.2,1.4-0.4,2.1-0.5c1.1-0.2,2.2-0.5,3.3-0.7c0.9-0.2,1.8-0.4,2.8-0.6
							c0.2-0.1,0.4-0.1,0.6,0c0,3.2,0,6.3,0,9.5c-1.1-0.2-2.3-0.6-3.6-0.7C243.5,325.5,242.3,325.3,241.1,325z"/>
						<path fill="#FECA19" d="M210.4,325c-1.2,0.2-2.3,0.5-3.6,0.8c-1.3,0.2-2.5,0.5-3.8,0.8c0-3.2,0-6.3,0-9.5
							c0.2-0.2,0.3-0.1,0.4-0.1c1.1,0.2,2.3,0.5,3.4,0.8c1.3,0.2,2.6,0.5,3.9,0.8c0.8,0.2,1.7,0.3,2.5,0.5c0.2,0.1,0.5,0.1,0.6,0.3
							c0.2,0.7,0.2,1.4,0.2,2.1c0.1,0.8,0.1,1.7,0.2,2.5c0,0.1,0,0.2-0.1,0.2c-0.2,0.2-0.3,0.2-0.5,0.3c-0.9,0.2-1.9,0.4-2.8,0.6
							C210.7,325.1,210.5,325.1,210.4,325z"/>
						<path fill="#FEC919" d="M221,298.8c2.3,0,4.8,0,7.2,0c0.8,0,1.5,0,2.3,0c0.2,0.2,0.1,0.4,0,0.5c-0.2,0.8-0.3,1.7-0.5,2.5
							c-0.1,0.7-0.3,1.3-0.4,2c-0.1,0.2-0.1,0.4-0.2,0.6c-0.2,0.2-0.4,0.2-0.5,0.2c-1.4,0-2.6,0.3-3.9,0.6c-0.7,0.2-1.4,0.4-2.1,0.6
							c-0.2,0.1-0.2,0.1-0.4,0c-0.1-0.1-0.2-0.2-0.2-0.2c-0.2-1.1-0.6-2.3-0.7-3.5c-0.2-0.9-0.4-1.9-0.6-2.8
							C220.9,299,220.9,298.9,221,298.8z"/>
						<path fill="#FED74E" d="M206.8,317.8c-1.3-0.2-2.5-0.5-3.8-0.8c0-3.5,0-6.9,0-10.3c1,0.6,2,1.3,3,1.9c1.1,0.8,2.3,1.5,3.4,2.3
							c0.3,0.4,0.3,0.7,0,1.1c-0.9,1.5-1.6,3.2-2,4.9C207.3,317.4,207.1,317.6,206.8,317.8z"/>
						<path fill="#FED74E" d="M248.3,317.1c-1.1,0.2-2.3,0.5-3.3,0.7c-0.4-0.2-0.5-0.5-0.6-0.9c-0.4-1.7-1.1-3.3-2-4.8
							c-0.2-0.4-0.5-0.8-0.1-1.3c1.4-0.9,2.6-1.8,4-2.7c0.7-0.5,1.3-0.9,2-1.4C248.3,310.2,248.3,313.6,248.3,317.1z"/>
						<path fill="#FED74E" d="M221,298.8c0.2,1.1,0.5,2.1,0.7,3.2c-0.2,0.4-0.5,0.5-0.8,0.6c-1.8,0.5-3.5,1.2-5.1,2.1
							c-0.4,0.2-0.7,0.3-1.1,0c-1.4-2-2.6-4-3.9-6C214.1,298.8,217.6,298.8,221,298.8z"/>
						<path fill="#FED74E" d="M229.8,301.8c0.2-1,0.4-2,0.6-3c2.2,0,4.4,0,6.6,0c1.2,0,2.4,0,3.6,0c-0.7,1.1-1.4,2.2-2.1,3.2
							c-0.5,0.8-1.1,1.7-1.7,2.6c-0.3,0.3-0.6,0.3-1,0.1c-1.7-1-3.4-1.7-5.3-2.2C230.2,302.3,229.9,302.2,229.8,301.8z"/>
						<path fill="#B2806B" d="M228.3,323.6c-0.3-0.1-0.5,0.1-0.8,0.2c-0.8,0.4-1.4,0.8-2.2,1.2c-0.2,0-0.2-0.1-0.1-0.2
							c0.2-0.3,0-0.5-0.2-0.7c-2-2-4.1-4.2-6.1-6.3c-0.2-0.2-0.3-0.3-0.5-0.4c-0.2,0-0.2-0.2-0.3-0.3c0.2-0.6,0.3-1.1,0.7-1.7
							c0.3-0.3,0.4-0.7,0.7-1c0.1-0.1,0.2-0.2,0.3-0.3c0.2,0,0.2-0.1,0.3-0.2c0.2-0.5,0.8-0.8,1.1-1.3c0.1-0.1,0.2-0.2,0.2-0.2
							c0.2-0.1,0.4,0,0.5,0.2c0.2,0.2,0.1,0.4-0.1,0.5c-0.2,0.2-0.5,0.2-0.7,0.5c-0.3,0.3-0.2,0.5,0.2,0.7c0.5,0.2,1.1,0.2,1.6,0
							c0.5-0.2,1.5,0.2,1.7,0.7c0.1,0.1,0.1,0.2-0.1,0.2c-0.2,0.1-0.4-0.1-0.5-0.1c-0.9-0.3-1.7,0.2-2.1,1.1c-0.3,0.9,0,2,0.8,2.6
							c0.3,0.3,0.6,0.5,1,0.5c0.5,0.2,0.8-0.1,1.1-0.4c0.6-0.5,0.8-1.1,0.7-1.9c0-0.2-0.2-0.5-0.1-0.7c0.2-0.2,0.2-0.1,0.4,0
							c0.2,0.2,0.3,0.3,0.4,0.5c0.2,0.4,0.5,0.5,0.8,0.2c0.4-0.2,0.9-0.3,1.3-0.5c0.2-0.2,0.4,0,0.5,0.2c0.6,0.3,1.3,0.5,1.9,0.8
							c0.8,0.4,1.4,0.8,2,1.4c1.5,1.7,1,3.9-1.2,4.5C230.4,323.7,229.4,323.7,228.3,323.6L228.3,323.6L228.3,323.6z"/>
						<path fill="#BA876F" d="M236.8,320.3c-0.1,0.1-0.1,0.2-0.2,0.3c0,0.2-0.1,0.3-0.2,0.4c-0.8,1.3-1.4,2.7-1.5,4.4
							c-1.1-0.6-2.2-1.2-3.3-1.7c0-0.2,0.2-0.2,0.3-0.3c1.8-0.9,2.2-2.8,0.8-4.3c-0.2-0.2-0.3-0.3-0.3-0.5c0-0.2,0.1-0.2,0.2-0.4
							c1.1-1.4,0.5-3.2-1.1-3.8c-0.1,0-0.2-0.1-0.2-0.1c-0.3-0.2-0.6-0.1-0.9,0.1c-0.2,0.1-0.3,0.2-0.4,0.3
							c-0.5,0.4-0.7,0.4-1.1-0.1c-1.4-1.4-2.7-2.7-4-4.1c-0.5-0.5-0.5-0.5-1-0.2c-0.2,0.1-0.4,0.2-0.5-0.1c0.1-0.4,0.4-0.5,0.7-0.7
							c0.3-0.2,0.7-0.5,1.1-0.7c0.5-0.2,1.1-0.5,1.6-0.7c0.7-0.3,0.9-0.3,1.4,0.2c0.8,0.8,1.6,1.6,2.3,2.3c0.5,0.5,0.4,0.7-0.2,1
							c-0.7,0.3-1.4,0.6-2,1.1c-0.1,0.2,0.1,0.2,0.2,0.2c0.2,0,0.4,0,0.5,0.1c0.5,0.1,1-0.2,1.4-0.4c0.2-0.1,0.3-0.2,0.4-0.3
							c0.5-0.4,0.8-0.4,1.4,0.2c1.1,1.1,2,2.1,3.1,3.2c0.2,0.2,0.5,0.5,0.5,0.8c0.4,1.1,0.8,2.2,1,3.4
							C236.8,320,236.8,320.1,236.8,320.3z"/>
						<path fill="#462C23" d="M225,309c-0.5,0.5-1.2,0.7-1.7,1.2c0,0.2-0.1,0.2-0.2,0.4c-1.1,1.1-2.1,2.3-3,3.6
							c-0.1,0.2-0.2,0.3-0.3,0.3c-0.3,0.5-0.5,1-0.9,1.4c-0.2-0.2,0-0.4,0.1-0.6c0.8-1.4,1.7-2.6,2.6-3.8c0.8-0.9,1.7-1.7,2.6-2.3
							c-0.2,0.1-0.4,0.2-0.6,0.4c-0.3,0.2-0.5,0-0.5-0.3c0-0.5,0-0.9,0.1-1.4c-0.3,0.2-0.5,0.3-0.6,0.5c-0.5,0.6-1.1,1.2-1.7,1.9
							c-0.2,0.2-0.2,0.3-0.5,0.4c-0.1,0-0.2-0.1-0.2-0.1c0-0.1,0-0.1,0-0.2c0.1-0.2,0.3-0.4,0.5-0.6c0.6-0.7,1.2-1.4,1.9-2.1
							c0.2-0.2,0.4-0.5,0.5-0.8c0.1-0.8,0.2-0.9,0.8-1.2c-1.1,0.5-2.5,0.9-3.8,1.6c-1.7,0.9-3.3,2-4.6,3.4c-0.9,1-1.1,2.2-1.3,3.4
							c-0.2,2-0.2,4.1,0.1,6c0,0.2,0,0.5,0,0.7s0,0.5,0.2,0.6c0.1,0.2,0.1,0.4,0,0.5c-0.2,0.4,0,0.8,0,1.2c0.1,0.9,0.1,1.9,0,2.8
							c0,0.3,0,0.7-0.3,0.9c-0.2,0.9-0.5,1.8-0.9,2.6c-0.1,0.2-0.2,0.3-0.3,0.3c-0.2-0.2,0-0.4,0.1-0.5c0.8-1.4,1-2.9,1.1-4.5
							c0-0.2,0-0.5,0.1-0.7c0-1.4-0.2-2.8-0.2-4.2c0-0.2-0.1-0.5-0.1-0.7c-0.2-0.5-0.2-1.1-0.2-1.6c0.1-1,0.1-2,0-2.9
							c0-0.4-0.1-0.7,0.2-1c0.2-0.2,0.2-0.5,0.2-0.8c0.2-1.7,1.2-2.9,2.5-3.9c0.2-0.2,0.5-0.4,0.7-0.5c0.1-0.2,0.2-0.3,0.3-0.4
							c1.4-1,3-1.8,4.5-2.4c0.2-0.1,0.3-0.1,0.5-0.1c1.3-0.5,2.6-0.8,3.9-1.1c1-0.2,1.9-0.3,2.9-0.3c0.2-0.1,0.3-0.2,0.5-0.2
							c1.5,0.1,2.9,0.5,3.8,1.8c0.3,0.5,0.6,0.9,0.9,1.4c0.2,0.2,0.2,0.5,0.2,0.8c0.9,2.1,1.5,4.3,1.9,6.6c0.2,0.2,0.2,0.5,0.2,0.7
							c0.2,1.1,0.2,2,0.4,3.1c0,0.2,0.1,0.5-0.2,0.8c0,0.2,0,0.3-0.2,0.4c-0.1,0-0.2-0.1-0.2-0.2c-0.2-1.1-0.6-2.1-0.9-3.2
							c-0.8-2.8-1.7-5.5-2.9-8.2c-0.2-0.4-0.4-0.8-0.6-1.2c-0.2-0.4-0.4-0.5-0.8-0.4c-1.4,0.2-2.8,0.6-4.2,1.2
							C226.6,308.1,225.8,308.5,225,309z"/>
						<path fill="#BF8B72" d="M225,309c0.4-0.5,1-0.7,1.5-1c1.7-0.8,3.4-1.4,5.3-1.7c0.3-0.1,0.4,0.1,0.5,0.3
							c1.4,2.7,2.4,5.6,3.3,8.5c0.4,1.4,0.7,2.7,1.1,4.1c0.1,0.2-0.1,0.3,0.1,0.5c0,0.2,0.2,0.5,0,0.7c-0.3-1.2-0.6-2.3-1-3.5
							c-0.2-0.5-0.4-0.8-0.7-1.1c-1.1-1.1-2.1-2.1-3.2-3.2c-0.4-0.4-0.7-0.4-1.1-0.1c-0.5,0.4-1,0.6-1.6,0.8c-0.2,0-0.2,0-0.3-0.1
							c0.1-0.2,0.3-0.2,0.5-0.2c0.6-0.2,1.2-0.5,1.7-1.1c-0.4,0.1-0.7,0.2-1,0.3c-0.5,0.2-1,0.4-1.5,0.6c-0.2,0.1-0.3,0.2-0.5,0.1
							c-0.1-0.2,0.2-0.2,0.2-0.2c0.7-0.3,1.3-0.7,2-1c0.4-0.2,0.5-0.2,0.1-0.6c-0.8-0.8-1.6-1.7-2.4-2.5c-0.5-0.5-0.6-0.5-1.3-0.2
							c-0.5,0.2-0.9,0.4-1.3,0.6C225.2,308.9,225.1,308.9,225,309z"/>
						<path fill="#FEE686" d="M236.8,319.2c-0.1-1.4-0.2-2.7-0.5-4c0-0.2-0.1-0.4-0.1-0.5c0.4-0.3,0.8-0.5,1.2-0.8
							c0.2,0,0.1,0.2,0.1,0.2c-0.1,0.2-0.1,0.5,0.1,0.7c0.5,1.1,1.1,2.2,1.4,3.3c0.1,0.2,0.2,0.3,0.2,0.4c0.1,0.1,0.2,0.2,0.1,0.3
							c-0.8,0.2-1.7,0.4-2.5,0.5C236.9,319.3,236.9,319.3,236.8,319.2z"/>
						<path fill="#FEFEFE" d="M226.3,326.3c0.8,0.2,1.4,0.5,2.2,0.6c0.1,0,0.2,0,0.2,0.1c0.4,0.2,0.8,0.2,1.3,0.4
							c-0.5,0.5-1,0.8-1.6,1.1c-1,0.2-1.5-0.4-2-1.2c-0.1-0.2-0.2-0.3-0.2-0.5c-0.1-0.1-0.2-0.2-0.2-0.3
							C226.2,326.2,226.3,326.2,226.3,326.3z"/>
						<path fill="#7B4F44" d="M232.5,318.4c0.2,0.2,0.5,0.5,0.7,0.8c1.1,1.5,0.6,3.4-1.1,4.2c-0.2,0.1-0.2,0.2-0.4,0.2
							c-1.1,0.1-1.1,0.1-1.1,1.1c0,0.2,0,0.5,0,0.7c-0.2-0.2-0.2-0.3-0.2-0.5c-0.1-0.4,0.2-0.9-0.1-1.1c-0.2-0.2-0.8-0.1-1.1-0.1
							c-0.2,0-0.5,0.1-0.8-0.1c1.1,0,2.2-0.1,3.3-0.5c2-0.8,2.1-2.8,0.8-4.2c-1-1.1-2.2-1.6-3.5-2c-0.2-0.1-0.3,0-0.3-0.2
							c0.2-0.2,0.4-0.1,0.5,0c0.1,0,0.2,0.1,0.3,0.1c0.7,0.2,1.4,0.5,2,0.9C231.8,318,232.2,318,232.5,318.4z"/>
						<path fill="#774E43" d="M236.4,329.4c0-0.3,0-0.5,0-0.8c0-0.1,0-0.2,0.1-0.2c0.1,0,0.2,0.1,0.2,0.2c0,0.6,0,1.2,0,1.9
							c0,0.1-0.1,0.2-0.2,0.2s-0.1-0.1-0.1-0.2C236.4,330,236.4,329.7,236.4,329.4z"/>
						<path fill="#7D5247" d="M233.1,326.6c0.2,0.3,0.1,0.6,0.1,0.8c0,0.4,0,0.7,0,1.1c0,0.1,0,0.2-0.1,0.2s-0.2-0.1-0.2-0.2
							C232.9,327.8,232.8,327.2,233.1,326.6z"/>
						<path fill="#764D42" d="M236.3,321c0.1-0.2,0.2-0.2,0.2-0.4c0.2,0.6,0.1,1.1,0.1,1.7c0,0.1,0,0.2-0.2,0.2
							c-0.2,0-0.1-0.2-0.1-0.2c0-0.4,0-0.8,0-1.1C236.4,321.1,236.4,321.1,236.3,321z"/>
						<path fill="#7D5348" d="M231.2,328.7c0,0.8,0,1.4,0,2.2C231.1,330.1,231.1,329.4,231.2,328.7L231.2,328.7z"/>
						<path fill="#7D5248" d="M235.2,326.5c0,0.8,0.1,1.4-0.2,2.2c0-0.8,0-1.4,0-2.2C235.1,326.5,235.1,326.5,235.2,326.5z"/>
						<path fill="#7F5448" d="M237.7,331.7c0-0.7,0-1.4,0-2.1c0.2,0.7,0.2,1.4,0.2,2.1C237.7,331.7,237.7,331.7,237.7,331.7z"/>
						<path fill="#7E5449" d="M229.7,328.1c0,0.6,0,1.3,0,1.9h-0.1C229.7,329.4,229.7,328.7,229.7,328.1L229.7,328.1z"/>
						<path fill="#7F5449" d="M232.8,332.5c0-0.6,0-1.3,0-1.9h0.1C232.9,331.2,232.9,331.9,232.8,332.5L232.8,332.5z"/>
						<path fill="#7E5348" d="M231.8,324.8c0,0.6,0,1.3,0,1.9h-0.1C231.8,326,231.8,325.4,231.8,324.8
							C231.8,324.8,231.8,324.8,231.8,324.8z"/>
						<path fill="#7F5449" d="M228,332c0-0.5,0-1.1,0-1.7h0.1C228.1,330.9,228.1,331.5,228,332L228,332z"/>
						<path fill="#805449" d="M228.1,324c0-0.1,0.1-0.2,0.1-0.2c0.2,0.5,0.1,1.1,0,1.7C228.1,325,228.1,324.4,228.1,324z"/>
						<path fill="#7F5449" d="M234.2,330.6c0-0.5,0-1.1,0-1.6h0.1C234.3,329.6,234.3,330.1,234.2,330.6
							C234.2,330.6,234.2,330.6,234.2,330.6z"/>
						<path fill="#7F5449" d="M230,333c-0.1,0-0.2-0.1-0.2-0.1c-0.1-0.5-0.1-1,0-1.4c0.1,0,0.1,0,0.2,0C230,331.9,230,332.5,230,333
							L230,333z"/>
						<path fill="#8E5F54" d="M236.1,326c0-0.7,0-1.4,0-2.1c0,0,0,0,0.1,0C236.2,324.6,236.2,325.4,236.1,326L236.1,326z"/>
						<path fill="#7A5146" d="M228.7,326.9c-0.1,0-0.2-0.1-0.2-0.1c0-0.2-0.1-0.2-0.1-0.4c0-0.2-0.1-0.5,0.2-0.7
							C228.7,326.1,228.5,326.6,228.7,326.9z"/>
						<path fill="#8E5F54" d="M235.6,332.6c-0.2-0.5,0-1-0.1-1.5h0.1C235.6,331.6,235.6,332.1,235.6,332.6L235.6,332.6z"/>
						<path fill="#40271F" d="M220.5,310.4c0.8-0.9,1.5-1.8,2.3-2.6c0.1-0.1,0.2-0.2,0.2-0.2c0.1-0.1,0.2-0.1,0.2,0
							c0.1,0.1,0,0.2,0,0.2c-0.2,0.5-0.1,0.9-0.1,1.4c0,0.3,0.1,0.4,0.4,0.2c0.4-0.2,0.7-0.5,1.1-0.5c-0.6,0.5-1.1,0.9-1.7,1.3
							c-0.7,0.6-1.3,1.3-1.8,2c-0.8,1-1.5,2-2.1,3.2c-0.1,0.2-0.2,0.4-0.2,0.5c-0.3,0.5-0.5,1.1-0.7,1.6c0,0.5-0.3,1.1-0.5,1.5
							s-0.3,0.9,0.1,1.4c-0.1,0.5,0,0.9,0,1.4c0.1-0.4-0.1-0.8,0.1-1.2c0.2-0.1,0.2,0,0.3,0.1c0.7,0.5,1.3,1.1,1.9,1.7
							c0.1,0.1,0.1,0.2,0.1,0.2c-0.2,0.5,0,0.9,0,1.4c0.1,1,0.1,1.9,0,2.9c-0.1,0.8,0,1.5,0,2.3c0,0.1,0.1,0.2,0,0.2
							c-0.1,0.1-0.2-0.1-0.2-0.1c-0.3-0.2-0.5-0.5-0.4-0.9c0-0.2,0.1-0.4-0.1-0.5c-0.2,0.1,0,0.4-0.2,0.5c-0.4-0.2-0.4-0.7-0.6-1.1
							c-0.2-0.3-0.4-0.6-0.5-0.9c-0.2-0.5,0-1.1-0.1-1.7c-0.1,0.5,0.1,1-0.1,1.5v0.1c-0.2-0.2-0.2-0.3-0.2-0.5
							c-0.1-0.2-0.2-0.3-0.4-0.3c0.1-0.8-0.2-1.7-0.4-2.4c-0.1-0.6-0.2-1.1-0.4-1.7c-0.1-0.2-0.1-0.5-0.2-0.6
							c-0.2-0.2-0.4-0.2-0.5-0.5c0-0.3-0.2-0.6-0.1-0.9c0.2-0.2,0.3-0.2,0.5-0.3c0.2-0.8,0.2-1.4,0.5-2.2c0.4-1.4,1-2.6,1.7-3.9
							c0.5-0.8,0.9-1.4,1.4-2.1C220.2,310.6,220.3,310.4,220.5,310.4z"/>
						<path fill="#A0725C" d="M217.8,320.2c-0.5-0.2-0.5-0.5-0.3-1c0.2-0.6,0.4-1.3,0.8-1.9c1.5,0.8,2.4,2.3,3.6,3.4
							s2.3,2.4,3.6,3.5c0.3,0.3,0.1,0.5,0,0.8c0,0,0,0.1-0.1,0.1c-1.1,0.8-1.1,0.8-2-0.1c-1.1-0.9-2.1-1.9-3.2-2.7
							c-0.8-0.6-1.4-1.3-2.2-1.9C217.9,320.4,217.8,320.3,217.8,320.2z"/>
						<path fill="#7C5247" d="M218.1,326c0-0.8,0-1.6,0-2.3c0.1,0,0.1,0,0.2,0c0.1,0.8,0,1.6,0,2.4
							C218.2,326.1,218.2,326.1,218.1,326z"/>
						<path fill="#7F5449" d="M223.5,330.5c0-0.7,0-1.4,0-2.1c0.2,0.7,0.2,1.4,0.2,2.1C223.5,330.5,223.5,330.5,223.5,330.5z"/>
						<path fill="#7C5247" d="M220.8,328.6c0-0.5,0-1,0-1.4c0-0.2-0.2-0.5,0.1-0.5c0.2,0,0.1,0.4,0.2,0.5c0,0.5,0,0.9,0,1.4
							C221,328.6,220.9,328.6,220.8,328.6z"/>
						<path fill="#7C5247" d="M226.2,330.7c0-0.6,0-1.3,0-1.9h0.1C226.3,329.4,226.3,330.1,226.2,330.7
							C226.3,330.7,226.3,330.7,226.2,330.7z"/>
						<path fill="#7E5348" d="M224.6,327.5c0,0.6,0,1.2,0,1.9C224.4,329.1,224.4,327.9,224.6,327.5z"/>
						<path fill="#7C5247" d="M220.9,324.8c-0.1-0.5,0-1-0.1-1.5c0-0.1,0-0.2,0.1-0.2c0,0,0.1,0,0.1,0.1
							C221.1,323.4,221,324.5,220.9,324.8z"/>
						<path fill="#7D5348" d="M222.2,329.7c0,0.6,0,1.1,0,1.7h-0.1C222.1,330.9,222.2,330.3,222.2,329.7
							C222.2,329.7,222.2,329.7,222.2,329.7z"/>
						<path fill="#7F5349" d="M222,325.7c0,0.5,0,1.1,0,1.7h-0.1C221.9,326.9,221.9,326.3,222,325.7C222,325.7,222,325.7,222,325.7z
							"/>
						<path fill="#7F564B" d="M226.3,326.3c-0.5,0-0.1,0.2-0.1,0.4c-0.1,0-0.2,0.1-0.2,0c0-0.5-0.2-1.1,0.1-1.7
							C226.3,325.4,225.9,325.9,226.3,326.3z"/>
						<path fill="#7C5247" d="M225,332.4c0-0.5,0-1.1,0-1.6h0.1C225,331.3,225,331.8,225,332.4C225,332.4,225,332.4,225,332.4z"/>
						<path fill="#7F5449" d="M223.5,326.6c-0.2-0.4-0.1-0.7-0.1-1.1C223.7,325.9,223.5,326.2,223.5,326.6z"/>
						<path fill="#7E5348" d="M219.2,328c0-0.2,0-0.3,0-0.5c0.1-0.2,0.2-0.1,0.2,0c0,0.3,0,0.6,0,0.9
							C219.2,328.4,219.3,328.1,219.2,328z"/>
						<path fill="#533327" d="M232.8,333.1c-0.3,0.1-0.7,0.1-1,0.1C232.1,333.1,232.4,333.1,232.8,333.1z"/>
						<path fill="#3A241D" d="M214.1,326.8c0.1-0.4,0.2-0.7,0.2-1.1c0-1.1,0.1-2.3-0.1-3.5c0-0.2,0-0.3,0.1-0.4
							c0.2,0.1,0.2,0.2,0.2,0.3c0.2,1.1,0.7,1.9,1.4,2.6c0,0.1,0,0.1,0,0.2c0.3,0.5,0.2,0.9,0.2,1.4c-0.1,0.3-0.1,0.6-0.3,0.8
							c-0.2,0.3-0.4,0.6-0.2,1c0.2,0.8-0.1,1.4-0.2,2.1c-0.1,0.3-0.2,0.4-0.5,0.4c-0.5,0-0.9,0-1.4-0.1c-0.5-0.1-0.5-0.2-0.2-0.5
							c0.5-0.8,0.9-1.8,1.1-2.8C214.1,327,214.3,326.9,214.1,326.8z"/>
						<path fill="#FEE37C" d="M214.1,324.1c0.2,1.8-0.2,3.5-1.1,5.1c-0.1,0.2-0.2,0.3-0.2,0.5c0,0.2-0.1,0.2-0.2,0.3
							c-0.7-1.5-1.4-2.9-1.7-4.5c-0.1-0.3-0.5-0.2-0.5-0.5C211.6,324.8,212.9,324.4,214.1,324.1z"/>
						<path fill="#966650" d="M216.6,320.4c0.2,0.1,0.2,0.2,0.3,0.4c0.2,1.4,0.5,2.7,0.8,4.1c0.1,0.2,0,0.4-0.2,0.5l0,0
							c0,0.1-0.1,0.1-0.1,0c-0.3,0-0.6-0.1-1-0.1c0,0-0.1-0.1-0.1-0.2c0-0.5,0-1,0-1.5c0-0.3,0-0.6,0.2-0.8c0.1-0.1,0.2-0.1,0.2,0
							c-0.2-0.4-0.7-0.6-0.8-1.1c0-0.3,0-0.6,0-0.9S216.3,320.3,216.6,320.4z"/>
						<path fill="#A37059" d="M216.7,322.7c-0.3,0.7-0.2,1.4-0.2,2.2c0,0.2,0.1,0.2-0.2,0.3l-0.1,0.1c0,0-0.1,0-0.1-0.1
							c-0.2-0.1-0.3-0.2-0.5-0.3v-0.1c0-0.1-0.1-0.2-0.1-0.2c0-0.8-0.1-1.7,0.2-2.6c0.2-0.2,0.4,0,0.5,0.2
							C216.5,322.3,216.7,322.5,216.7,322.7z"/>
						<path fill="#5F4944" d="M216.3,325.2L216.3,325.2L216.3,325.2c0.2,0.4,0.2,0.8,0.2,1.1c-0.1,0.8-0.1,1.6-0.1,2.3
							c0,0.7-0.2,1.3-0.1,1.9c-0.2,0-0.1-0.2-0.1-0.2c0-0.5,0-1.1,0-1.7c0.1-0.8,0-1.5,0.1-2.3C216.3,325.9,216.3,325.6,216.3,325.2
							z"/>
						<path fill="#5B4540" d="M217.4,325.4L217.4,325.4c0.6,1.4,1.1,2.9,1.6,4.3l0,0c-0.4-0.5-0.5-1.1-0.8-1.7
							C217.9,327.1,217.6,326.2,217.4,325.4z"/>
						<path fill="#3A241D" d="M216.3,325.2c0,1,0,2,0,2.9c0,0.2,0,0.3-0.1,0.5C216.3,327.5,216.3,326.3,216.3,325.2L216.3,325.2z"/>
						<path fill="#3A241D" d="M216.3,330.3c0,0.1,0,0.2,0.1,0.2c0,0.4,0,0.7-0.2,1C216.2,331.1,216.1,330.7,216.3,330.3z"/>
						<path fill="#5B4540" d="M219,329.7c0.2,0.2,0.2,0.5,0.3,0.7C219.1,330.1,219,330,219,329.7L219,329.7z"/>
						<path fill="#FEDE68" d="M242.2,310.7c-0.2,0.6,0.2,1.1,0.4,1.5c0.8,1.4,1.4,2.9,1.7,4.6c0.1,0.4,0.4,0.6,0.5,0.9
							c-1.1,0.2-2.3,0.5-3.3,0.7c-0.4-0.1-0.5-0.3-0.7-0.7c-0.4-1.4-0.9-2.9-1.7-4.2c-0.2-0.3-0.2-0.6,0.2-0.9
							C240.3,312.1,241.3,311.4,242.2,310.7z"/>
						<path fill="#FEDD64" d="M234.5,308.1c-0.4-0.7-0.7-1.4-1.2-2c-0.9-1.2-2.1-1.7-3.5-1.7c-0.2,0-0.4,0.1-0.5-0.1
							c0.2-0.8,0.4-1.7,0.5-2.5c0.5,0.5,1,0.5,1.6,0.7c1.6,0.5,3,1.1,4.4,2c0.4,0.2,0.7,0.3,1,0.2c-0.7,1.1-1.4,2.3-2.1,3.4
							C234.6,308,234.6,308.1,234.5,308.1z"/>
						<path fill="#FEE277" d="M239.3,312.7c-0.2,0.5,0,0.8,0.2,1.2c0.6,1.1,1.1,2.2,1.4,3.4c0.1,0.5,0.2,0.8,0.6,1.1
							c-0.7,0.2-1.4,0.4-2.1,0.5c-0.6-0.4-0.6-1.1-0.8-1.7c-0.2-0.7-0.5-1.4-0.9-2c-0.2-0.5-0.5-0.8-0.2-1.4
							C238.1,313.4,238.7,313,239.3,312.7z"/>
						<path fill="#FEDF6C" d="M206.8,317.8c0-0.1,0-0.2,0-0.2c0.5-0.2,0.5-0.8,0.6-1.2c0.5-1.6,1.1-3.2,2-4.6c0.2-0.4,0-0.6,0-0.9
							c1.1,0.8,2.3,1.4,3.3,2.3c0.4,0.4,0.3,0.8,0.1,1.1c-0.6,1.1-1.1,2.3-1.4,3.5c-0.1,0.4-0.3,0.7-0.7,0.8
							C209.4,318.3,208.1,318.1,206.8,317.8z"/>
						<path fill="#FEDD66" d="M222.4,305.7c-0.9,0.5-1.9,0.8-2.8,1.3c-0.9,0.5-1.7,1.1-2.6,1.6c-0.7-1.1-1.4-2.2-2.1-3.2
							c-0.1-0.2-0.2-0.3-0.3-0.5c0.5,0.2,0.9-0.2,1.4-0.4c1.5-0.8,3-1.5,4.7-1.9c0.4-0.1,0.6-0.3,0.9-0.5c0.2,1.1,0.5,2.2,0.7,3.3
							C222.3,305.4,222.4,305.5,222.4,305.7z"/>
						<path fill="#FEE480" d="M210.7,318.6c0-0.1,0-0.2,0-0.2c0.5-0.1,0.5-0.5,0.5-0.8c0.3-1.1,0.8-2.3,1.3-3.3
							c0.2-0.4,0.4-0.8,0.2-1.2c0.3,0.2,0.7,0.5,1,0.6c-0.1,0.3,0.1,0.7,0,1c-0.1,1-0.1,2,0,2.9c0,0.5,0.1,1.1,0.1,1.6
							C212.7,319,211.7,318.9,210.7,318.6z"/>
						<path fill="#B8856F" d="M229.3,316.8c-0.2,0-0.4-0.1-0.5-0.1c-0.2-0.2-0.5-0.2-0.6,0.1c-0.1,0.1-0.2,0.1-0.3,0.1
							c-0.3,0-0.5,0.2-0.8,0.3c-0.5,0.4-0.8,0.3-1.1-0.3c-0.1-0.2-0.2-0.5-0.5-0.5c-0.4-0.3-0.8-0.8-1-1.2c-0.2-0.5-1.1-1-1.6-0.8
							c-0.6,0.3-1.2,0.2-1.7-0.1c-0.4-0.2-0.5-0.5-0.2-0.8c0.2-0.2,0.4-0.4,0.6-0.5c0.2-0.1,0.3,0,0.3-0.2c0-0.2-0.1-0.2-0.2-0.3
							c-0.2-0.1-0.3,0.1-0.4,0.2c-0.4,0.5-1,0.9-1.3,1.5c-0.1,0.1-0.2,0.3-0.2,0c0.5-1,1.2-1.7,1.9-2.6c0.5-0.6,1-1.1,1.6-1.7
							c0.2,0.2,0.4,0.1,0.5-0.1c0.3-0.3,0.5-0.3,0.8,0c1,1.1,2,2,3,3.1c0.5,0.5,1,0.9,1.4,1.4c0.2,0.2,0.5,0.2,0.7,0
							c0.3-0.3,0.7-0.5,1.1-0.6c0.2,0,0.3-0.1,0.4,0.2c-0.1,0.2-0.3,0.2-0.5,0.2c-0.8,0.2-1.3,0.8-1.4,1.7
							C229.4,316.3,229.5,316.6,229.3,316.8z"/>
						<path fill="#FEFEFE" d="M224.4,315.2c0.5,0.3,0.8,0.8,1,1.2c0.2,0.5,0.2,1.1,0.1,1.6c-0.2,0.8-1,1.7-2,1.4
							c0-0.1,0-0.2,0.1-0.2c0.6-0.5,0.6-1.1,0.6-1.8c-0.1-0.3-0.2-0.6-0.5-0.9c-0.5-0.3-0.8-0.2-1.1,0.2c-0.3,0.5-0.3,1.1-0.2,1.7
							c0.1,0.2,0.2,0.4,0.1,0.5c-0.8-0.5-1-1.3-1-2.1c0-0.8,0.4-1.5,1.1-1.8C223.3,314.8,223.9,315,224.4,315.2z"/>
						<path fill="#221E1F" d="M222.5,319c-0.5-0.8-0.5-1.5,0-2.3c0.3-0.6,0.8-0.7,1.4-0.3c0,0.2-0.2,0.2-0.2,0.3
							c-0.2,0.2-0.2,0.4-0.2,0.6c0.1,0.3,0.3,0.4,0.5,0.2c0.1-0.1,0.2-0.2,0.3-0.2c0.2,1-0.1,1.7-0.8,2
							C223.1,319.5,222.8,319.3,222.5,319z"/>
						<path fill="#BD9281" d="M231.2,321c-0.5,0-0.9,0-1.4-0.3c-0.5-0.3-0.5-0.6,0-0.8c0.9-0.4,1.8-0.4,2.6,0c0.5,0.2,0.5,0.6,0,0.8
							C232.2,320.9,231.6,321,231.2,321z"/>
						<path fill="#7E5146" d="M225.5,318.6c-0.3,1.1-1.4,1.7-2.3,1.4C224.3,320,225,319.5,225.5,318.6z"/>
						<path fill="#FEFEFE" d="M229.3,316.8c0-0.3,0-0.6,0-0.9c0.1-1.1,0.8-1.7,2-1.7c1,0.2,1.6,0.8,1.9,1.7c0.3,0.9,0.2,1.7-0.5,2.5
							c-0.1,0.1-0.1,0.1-0.2,0.2c-0.3-0.2-0.6-0.4-0.9-0.6c-0.2-0.3,0-0.6-0.1-0.9c-0.1-0.3-0.2-0.7-0.4-0.9c-0.5-0.5-1-0.3-1.3,0.3
							c-0.1,0.2-0.1,0.5-0.3,0.6C229.4,316.9,229.4,316.9,229.3,316.8z"/>
						<path fill="#56382B" d="M228.1,312.7c0.9-0.4,1.8-0.8,2.8-1.1c0.2-0.1,0.3-0.2,0.5,0c0.1,0.2-0.2,0.2-0.2,0.4
							c-0.6,0.6-1.4,1-2.2,1.1c-0.2,0-0.5,0-0.7-0.1c-0.2,0-0.3,0-0.3-0.2C227.8,312.8,228,312.8,228.1,312.7z"/>
						<path fill="#3A241D" d="M216.5,318.9c-0.1,0.2-0.2,0.4-0.5,0.2c-0.2-0.2-0.2-0.6-0.2-0.9c-0.2-1.1-0.4-2.3-0.6-3.4
							c0-0.1,0-0.2,0-0.2c0.1,0.4,0.2,0.8,0.2,1.2c0.2,1.3,0.4,2.6,0.6,3.9c0,0.1,0,0.2-0.1,0.3c-0.2,0.1-0.3,0.1-0.5,0.1
							c-0.6,0-0.8,0.2-1.1,0.7c-0.2,0.2-0.2,0.5-0.3,0.5c-0.2,0-0.2-0.2-0.2-0.2c-0.1-2.1-0.3-4.2-0.2-6.4c0.1-1.4,0.2-2.9,1.2-4.1
							c0.6-0.7,1.3-1.4,2-1.9c0.9-0.7,1.8-1.3,2.9-1.7c0.1,0.2-0.2,0.3-0.3,0.5s-0.4,0.3-0.6,0.5c-0.2,0.2-0.3,0.3-0.3,0.6
							c0,1,0,1.9,0,2.9c0,0.1,0,0.1,0.1,0.2c0.4-0.3,0.5-0.7,0.9-1c0.2-0.2,0.3-0.3,0.5-0.3v0.1c-0.2,0.5-0.5,0.8-0.8,1.2
							c-1.1,1.7-2.1,3.5-2.6,5.4c-0.2,0.6-0.2,1.1-0.3,1.7C216.6,318.7,216.6,318.9,216.5,318.9z"/>
						<path fill="#40271F" d="M220.4,310.2c-0.5,0.4-0.8,0.8-1.2,1.3c-0.1,0.2-0.2,0.3-0.4,0.2s-0.1-0.3-0.1-0.5c0-0.9,0-1.8,0-2.7
							c0-0.4,0.1-0.6,0.5-0.8c0.3-0.2,0.7-0.5,0.9-0.8c1.2-0.8,2.5-1.2,3.8-1.6c0.2-0.1,0.4-0.1,0.5-0.1c-0.3,0.2-0.6,0.4-0.9,0.5
							c-0.2,0.2-0.3,0.3-0.3,0.6c0.1,0.5-0.2,0.9-0.5,1.3c-0.7,0.7-1.3,1.4-2,2.2C220.7,310,220.5,310.1,220.4,310.2z"/>
						<path fill="#B27B62" d="M214.2,321.3c0-0.2,0.1-0.5,0.2-0.8c0.3-0.6,0.8-0.8,1.5-0.6c0.1,0,0.2-0.1,0.2,0.1
							c0.2,0.2,0.3,0.2,0.5,0.4c-0.2,0-0.4,0.2-0.4,0.4c0,0.3,0.1,0.6-0.1,0.9c-0.3,0.2-0.5-0.2-0.8-0.2c0.2,0.2,0.5,0.2,0.5,0.5
							c-0.1,0.9-0.2,1.9-0.2,2.8c-0.8-0.5-1.2-1.4-1.4-2.3c-0.1-0.2-0.1-0.5-0.2-0.7C214.2,321.7,214.2,321.5,214.2,321.3z"/>
						<path fill="#695450" d="M216.5,318.9c0.1-1.9,0.8-3.5,1.7-5.2c0.6-1.2,1.4-2.3,2.3-3.4l0.1,0.1c-1.5,2-2.8,4.1-3.5,6.5
							c-0.2,0.8-0.4,1.6-0.4,2.4C216.5,319.2,216.6,319,216.5,318.9z"/>
						<path fill="#FEDF6C" d="M213.7,317.7c-0.2-0.7-0.1-1.4-0.1-2c0-0.3-0.1-0.6,0.1-0.8C213.7,315.8,213.7,316.7,213.7,317.7z"/>
						<path fill="#221E1F" d="M231.6,316.8c0,0.3,0.1,0.7-0.1,1c-0.7-0.4-1.4-0.6-2-0.9c0-0.3,0.2-0.6,0.3-0.8
							c0.4-0.6,0.9-0.7,1.4-0.2c0,0.2-0.1,0.2-0.2,0.2c-0.3,0.2-0.4,0.5-0.2,0.8s0.4,0.2,0.6,0C231.5,316.8,231.5,316.8,231.6,316.8
							z"/>
						<path fill="#604A46" d="M216.2,320.1c-0.1,0-0.2-0.1-0.2-0.1c0.2-0.4,0-0.8,0-1.1c-0.2-1.4-0.4-2.8-0.6-4.2
							c0-0.2-0.1-0.2,0-0.5c0.4,1.7,0.6,3.2,0.8,4.8C216.1,319.4,216.1,319.8,216.2,320.1z"/>
						<path fill="#6C463C" d="M217.8,320.2c0.1,0,0.2,0.1,0.2,0.2c0,0.5,0,1.1,0,1.5c0,0.1,0,0.2-0.1,0.2s-0.2-0.1-0.2-0.2
							C217.7,321.4,217.6,320.8,217.8,320.2z"/>
						<path fill="#7D5348" d="M219.8,326.2c-0.2,0-0.2-0.2-0.2-0.2c0-0.5,0-1.1,0-1.7c0-0.1,0-0.3,0.2-0.2
							C219.8,324.8,219.9,325.4,219.8,326.2z"/>
						<path fill="#80554A" d="M219.2,321.7c0,0.5,0,0.8,0,1.3h-0.1C219.1,322.6,219.1,322.1,219.2,321.7
							C219.1,321.7,219.2,321.7,219.2,321.7z"/>
						<path fill="#4B2D23" d="M219.8,326.2c0-0.7,0-1.4,0-2C219.9,324.8,220,325.4,219.8,326.2z"/>
						<path fill="#7B4E44" d="M216,322c-0.3-0.2-0.6-0.5-1-0.7c0.5,0,0.8,0.2,1.1,0.4c0.3,0.4,0.7,0.8,0.8,1.3
							c-0.2,0-0.2-0.2-0.3-0.3C216.5,322.5,216.3,322.3,216,322z"/>
						<path fill="#56382B" d="M221.6,314.3c-0.1,0-0.2,0-0.2,0c-0.2,0-0.4-0.1-0.4-0.2c0-0.2,0.2-0.2,0.3-0.3c0.9-0.4,1.8-0.8,2.7-1
							c0.2,0,0.3-0.2,0.4,0c0.1,0.2-0.1,0.2-0.2,0.4C223.4,313.9,222.5,314.3,221.6,314.3z"/>
						<path fill="#908E8E" d="M224.4,317.4c-0.2,0.2-0.2,0.6-0.7,0.5c-0.3-0.1-0.4-0.4-0.4-0.7c0-0.4,0.2-0.6,0.5-0.6
							c0,0,0-0.1,0.1-0.1C224.2,316.7,224.3,317.1,224.4,317.4z"/>
						<path fill="#918F8F" d="M231.6,316.8L231.6,316.8c-0.2,0.2-0.4,0.5-0.7,0.4c-0.3-0.2-0.4-0.5-0.3-0.8s0.3-0.5,0.6-0.5
							C231.5,316.2,231.5,316.5,231.6,316.8z"/>
					</g>
				</g>
			</g>
		</g>
	</g>
	<text transform="matrix(1.0218 0 0 1 54.4585 323.336)" fill="#FFFFFF" font-family="'HelveticaNeue-Thin'" font-size="23.2676">The Bible App</text>
	<g>
		<path fill="#66AB46" d="M123.9,329.6l2.2,0.1c0.3,0,0.5-0.2,0.5-0.5s-0.2-0.5-0.5-0.5l-2.2-0.1c-0.6,0-1.5-0.1-2.2,0.4l-0.2,0.2
			l0.1,6.7c0,0.3,0.2,0.5,0.5,0.5c0,0,0,0,0,0c0.3,0,0.5-0.2,0.5-0.5l0-2.4c0.8,0,1.6-0.1,2.4,0c0.3,0,0.5-0.2,0.5-0.5
			s-0.2-0.5-0.5-0.5c-0.8,0-1.7,0-2.5,0l0-2.8C122.9,329.6,123.4,329.6,123.9,329.6z"/>
		<path fill="#66AB46" d="M133.8,329c-0.7-0.5-1.6-0.6-2.4-0.7c-0.7-0.1-1.4-0.1-1.9,0c-0.8,0.2-1.6,0.7-2.2,1.5
			c-0.7,0.9-1,2-0.9,3.1c0.1,1.1,0.7,2.2,1.6,2.8c0.7,0.5,1.5,0.7,2.4,0.7c0.3,0,0.7,0,1-0.1c0.8-0.2,1.4-0.5,1.9-0.9
			c0.3-0.3,0.5-0.6,0.7-0.8c0.7-1,1-1.9,1.1-2.8C135.1,330.7,134.6,329.6,133.8,329z M133.2,334.1c-0.1,0.2-0.3,0.5-0.5,0.7
			c-0.3,0.3-0.8,0.5-1.4,0.7c-0.3,0.1-0.5,0.1-0.8,0.1c-0.7,0-1.3-0.2-1.8-0.5c-0.7-0.5-1.1-1.2-1.2-2.1c-0.1-0.8,0.2-1.7,0.7-2.4
			c0.4-0.6,1-1,1.6-1.1c0.2,0,0.4-0.1,0.7-0.1c0.3,0,0.6,0,0.9,0.1c0.6,0.1,1.4,0.1,1.9,0.5c0.6,0.4,0.9,1.2,0.9,2
			C134,332.5,133.7,333.3,133.2,334.1z"/>
		<path fill="#66AB46" d="M140.5,336.5c-0.9-1.3-1.8-2.6-2.9-3.8c0.6-0.2,1.2-0.6,1.6-1.2c0.6-0.8,0.7-2.1-0.1-2.9
			c-0.7-0.6-1.8-0.7-3-0.3l-0.4,0.2l0.1,0.4c0.1,0.7,0.2,1.3,0.2,2c0,0.4,0,0.8,0,1.3l-0.2,0.1l0.2,0.2l-0.1,3.8
			c0,0.3,0.2,0.5,0.5,0.5c0.3,0,0.5-0.2,0.5-0.5l0-2.8c1,1.1,1.8,2.3,2.6,3.5c0.1,0.1,0.3,0.2,0.4,0.2c0.1,0,0.2,0,0.3-0.1
			C140.6,337,140.7,336.7,140.5,336.5z M137.1,330.9c0-0.6-0.1-1.2-0.2-1.7c0.5-0.1,1.2-0.2,1.6,0.2c0.4,0.4,0.3,1.1,0,1.6
			c-0.3,0.4-0.7,0.7-1.4,0.9C137.1,331.5,137.1,331.2,137.1,330.9z"/>
	</g>
	<g>
		<path fill="#3E7FB1" d="M147.8,328.2l-3.2,2.7c0-0.8,0-1.7,0-2.5c0-0.3-0.3-0.5-0.5-0.5c-0.3,0-0.5,0.3-0.5,0.5
			c0.1,1.1,0,2.2,0,3.4l-1,0.8l0.8-0.1l0.1,0c0,0.8-0.1,1.7-0.1,2.5c0,0.2,0.1,0.3,0.1,0.4l0,0.3c0-0.1,0-0.2,0-0.2
			c0,0,0,0.1,0.1,0.1c0.1,0.1,0.2,0.1,0.3,0.1c0.1,0,0.3,0,0.4-0.1c0.2-0.1,0.2-0.5,0.1-0.7c0,0-0.1-0.1-0.1-0.1c0-0.7,0-1.3,0.1-2
			c0.1,0.1,0.2,0.2,0.3,0.3l0.2,0.2c0.3,0.2,0.5,0.4,0.8,0.6c0.2,0.1,0.4,0.2,0.5,0.4c0.2,0.2,0.6,0.6,0.7,1c0,0.3,0.2,0.5,0.5,0.5
			c0,0,0,0,0,0c0.3,0,0.5-0.3,0.5-0.5c0-0.6-0.4-1.2-1-1.7c-0.2-0.2-0.4-0.3-0.6-0.4c-0.3-0.2-0.5-0.3-0.7-0.5l-0.2-0.2
			c-0.2-0.1-0.3-0.3-0.5-0.5l3.4-2.9c0.2-0.2,0.2-0.5,0.1-0.7C148.3,328,148,328,147.8,328.2z"/>
		<path fill="#3E7FB1" d="M152.9,334.4l-1,0c0-1.5-0.1-3-0.3-4.5c0.6,0,1.2-0.1,1.5-0.3l0.2-0.2v-0.7l-0.5,0c-0.6,0-1.2,0-1.7,0
			c-0.5,0-1.1,0-1.7,0c0,0,0,0,0,0c-0.3,0-0.5,0.2-0.5,0.5c0,0.3,0.2,0.5,0.5,0.5c0.4,0,0.8,0,1.2,0c0.2,1.6,0.3,3.1,0.3,4.7l-1.2,0
			l0,1l2.2,0.1l0-0.1l1,0c0,0,0,0,0,0c0.3,0,0.5-0.2,0.5-0.5C153.4,334.7,153.2,334.4,152.9,334.4z"/>
		<path fill="#3E7FB1" d="M156.5,327.8c-0.9-0.3-1.7-0.2-2.2,0.2l-0.2,0.2l0,0.3c0.3,2.1,0.5,4.2,0.6,6.4l0,0.4l0.4,0.1
			c0.1,0,0.2,0,0.3,0c0.7,0,1.3-0.4,1.8-0.8c0.4-0.3,0.8-0.6,1.1-1.1c0.2-0.4,0.3-0.8,0.4-1.2c0.1-0.4,0.2-0.8,0.2-1.3
			C159,329.4,157.7,328.2,156.5,327.8z M157.9,332c-0.1,0.3-0.2,0.7-0.3,0.9c-0.2,0.3-0.5,0.6-0.8,0.8c-0.3,0.2-0.7,0.5-1,0.6
			c-0.1-1.9-0.3-3.8-0.6-5.6c0.2-0.1,0.6-0.1,1,0.1c0.9,0.3,1.8,1.1,1.9,2.1C158,331.3,157.9,331.6,157.9,332z"/>
		<path fill="#3E7FB1" d="M163.5,330.7c-0.6-0.3-1.2-0.2-1.8-0.1c-0.3,0-0.6,0.1-0.9,0.1c-0.3,0-0.5-0.1-0.6-0.2
			c-0.1-0.2-0.2-0.5,0-1c0.1-0.4,0.3-1,0.6-1.3c0.4-0.3,1-0.4,1.5-0.2c0.5,0.2,1,0.6,1.3,1.1c0.2,0.2,0.5,0.3,0.7,0.1
			c0.2-0.2,0.3-0.5,0.1-0.7c-0.5-0.7-1.1-1.3-1.9-1.5c-0.9-0.3-1.8-0.1-2.5,0.4c-0.6,0.5-0.8,1.3-1,1.8c-0.1,0.5-0.2,1.2,0.2,1.8
			c0.3,0.3,0.7,0.6,1.3,0.6c0.4,0,0.7,0,1.1-0.1c0.5-0.1,0.9-0.1,1.3,0c0.5,0.2,0.8,0.9,0.5,1.5c-0.2,0.6-0.9,1-1.6,1.1
			c-0.4,0-0.7,0-0.9-0.2c-0.2-0.1-0.4-0.4-0.6-0.7c-0.2-0.2-0.5-0.3-0.7-0.1s-0.3,0.5-0.1,0.7c0.2,0.3,0.5,0.7,0.8,0.9
			c0.3,0.2,0.8,0.4,1.3,0.4c0.1,0,0.2,0,0.3,0c1.1-0.1,2-0.8,2.4-1.7C165,332.4,164.5,331.1,163.5,330.7z"/>
	</g>
	<path fill="#336343" d="M230.7,522.1c0.3-1,1.5-66.5-30.1-67.8S165,522.1,165,522.1H230.7z"/>
	<path fill="#386E4A" d="M201.7,522.1c1.8-2,23.4-33.3,7.2-52c-16.2-18.7-42.1,17.7-33.5,52H201.7z"/>
	<path fill="#5A4838" d="M198.8,522.2c6.6-4.3,4.4-14.8,4.4-14.8c0,8.5-6,10.8-6,10.8l-1.5-27c0,0-1.4,24.9-0.5,31H198.8z"/>
	<polygon fill="#6A807E" points="245.2,188.5 255.2,194.5 267,213 247.2,194.5 	"/>
</g>
</svg>
