<?xml version="1.0" encoding="utf-8"?>
<!-- Generator: Adobe Illustrator 17.1.0, SVG Export Plug-In . SVG Version: 6.00 Build 0)  -->
<!DOCTYPE svg PUBLIC "-//W3C//DTD SVG 1.1//EN" "http://www.w3.org/Graphics/SVG/1.1/DTD/svg11.dtd">
<svg version="1.1" id="Icon" xmlns="http://www.w3.org/2000/svg" xmlns:xlink="http://www.w3.org/1999/xlink" x="0px" y="0px"
	 viewBox="-17.5 -17.5 60 60" enable-background="new -17.5 -17.5 60 60" xml:space="preserve">
<g id="open">
	<path fill="#FCDB51" d="M42.4,39.6c0,1.6-1.3,3-3,3h-53.9c-1.6,0-3-1.3-3-3v-53.9c0-1.6,1.3-3,3-3h53.9c1.6,0,3,1.3,3,3V39.6z"/>
	<g>
		<g>
			<path fill="#FFFFFF" d="M25.2,29.9c-0.1,0-0.2,0-0.3,0L-0.5,26c-1-0.1-1.7-1-1.7-2V1.1c0-1,0.7-1.8,1.7-2l25.4-3.8
				c0.6-0.1,1.1,0.1,1.6,0.5c0.4,0.4,0.7,0.9,0.7,1.5v30.6c0,0.6-0.3,1.1-0.7,1.5C26.1,29.7,25.6,29.9,25.2,29.9z M1.7,22.4
				l21.5,3.2v-26L1.7,2.8V22.4z"/>
		</g>
	</g>
</g>
</svg>
