<?xml version="1.0" encoding="utf-8"?>
<!-- Generator: Adobe Illustrator 17.1.0, SVG Export Plug-In . SVG Version: 6.00 Build 0)  -->
<!DOCTYPE svg PUBLIC "-//W3C//DTD SVG 1.1//EN" "http://www.w3.org/Graphics/SVG/1.1/DTD/svg11.dtd">
<svg version="1.1" id="Icon" xmlns="http://www.w3.org/2000/svg" xmlns:xlink="http://www.w3.org/1999/xlink" x="0px" y="0px"
	 viewBox="0 0 60 60" enable-background="new 0 0 60 60" xml:space="preserve">
<linearGradient id="SVGID_1_" gradientUnits="userSpaceOnUse" x1="30" y1="-8.976713e-10" x2="30" y2="60">
	<stop  offset="0" style="stop-color:#F6CB45"/>
	<stop  offset="1" style="stop-color:#E9A33F"/>
</linearGradient>
<path fill="url(#SVGID_1_)" d="M60,50c0,5.5-4.5,10-10,10H10C4.5,60,0,55.5,0,50V10C0,4.5,4.5,0,10,0h40c5.5,0,10,4.5,10,10V50z"/>
<g>
	<path fill="#FFFFFF" d="M8.2,41.8c0.1-0.9,0.3-1.8,0.7-2.4c0.4-0.7,0.9-1.2,1.5-1.6c0.7-0.4,1.5-0.6,2.7-0.6s2,0.2,2.7,0.6
		c0.7,0.4,1.2,0.9,1.5,1.6c0.4,0.7,0.6,1.5,0.7,2.4c0.1,0.9,0.2,2,0.2,3.1c0,1.1-0.1,2.2-0.2,3.1c-0.1,0.9-0.3,1.7-0.7,2.4
		c-0.4,0.7-0.9,1.2-1.5,1.5c-0.7,0.4-1.5,0.5-2.7,0.5s-2-0.2-2.7-0.5s-1.2-0.9-1.5-1.5c-0.4-0.7-0.6-1.5-0.7-2.4
		c-0.1-0.9-0.2-2-0.2-3.1C8.1,43.8,8.1,42.7,8.2,41.8z M11.1,47.4c0,0.7,0.1,1.3,0.3,1.7s0.4,0.7,0.6,0.9c0.3,0.2,0.6,0.3,1.1,0.3
		c0.4,0,0.8-0.1,1.1-0.3c0.3-0.2,0.5-0.5,0.6-0.9c0.1-0.4,0.2-1,0.3-1.7c0-0.7,0.1-1.5,0.1-2.5c0-1,0-1.8-0.1-2.5
		c0-0.7-0.1-1.3-0.3-1.7c-0.1-0.4-0.4-0.8-0.6-1c-0.3-0.2-0.6-0.3-1.1-0.3c-0.4,0-0.8,0.1-1.1,0.3c-0.3,0.2-0.5,0.5-0.6,1
		c-0.1,0.4-0.2,1-0.3,1.7c0,0.7-0.1,1.5-0.1,2.5C11.1,45.9,11.1,46.7,11.1,47.4z"/>
	<path fill="#FFFFFF" d="M25.9,37.5c0.8,0,1.4,0.1,1.9,0.4c0.5,0.3,0.9,0.6,1.2,1c0.3,0.4,0.5,0.9,0.7,1.4c0.1,0.5,0.2,1.1,0.2,1.6
		c0,0.8-0.1,1.4-0.3,2c-0.2,0.6-0.5,1-0.9,1.4c-0.4,0.4-0.9,0.6-1.5,0.8c-0.6,0.2-1.2,0.3-1.9,0.3h-1.6v5.9h-3V37.5H25.9z M25,44.2
		c0.6,0,1.1-0.2,1.4-0.5c0.4-0.4,0.5-0.9,0.5-1.7c0-0.7-0.2-1.3-0.5-1.7c-0.3-0.4-0.8-0.6-1.6-0.6h-1.2v4.5H25z"/>
	<path fill="#FFFFFF" d="M39.6,39.9h-5.3v3.5h5v2.4h-5v4h5.5v2.4h-8.4V37.5h8.2L39.6,39.9L39.6,39.9z"/>
	<path fill="#FFFFFF" d="M49.2,47.6L49.2,47.6l0-10.1h2.7v14.7h-3.4l-3.6-10.3h0v10.3h-2.7V37.5h3.4L49.2,47.6z"/>
</g>
</svg>
