<?xml version="1.0" encoding="utf-8"?>
<!-- Generator: Adobe Illustrator 17.1.0, SVG Export Plug-In . SVG Version: 6.00 Build 0)  -->
<!DOCTYPE svg PUBLIC "-//W3C//DTD SVG 1.1//EN" "http://www.w3.org/Graphics/SVG/1.1/DTD/svg11.dtd">
<svg version="1.1" id="icon" xmlns="http://www.w3.org/2000/svg" xmlns:xlink="http://www.w3.org/1999/xlink" x="0px" y="0px"
	 viewBox="0 0 80 80" enable-background="new 0 0 80 80" xml:space="preserve">
<path d="M76.6,23h-7.2c-1-1-3.4-4.4-4.4-6.4V0c-2,0-8.5,5.7-11.4,8.4c-4.3-1.8-9.2-2.9-14.4-2.9c-15.6,0-28.5,9.2-31.3,21.2
	c-2.7,0.3-4.8,2.6-4.8,5.4c0,2.9,2,5.3,4.9,5.4c1.4,4.7,5,8.9,8,12.3V64h13v-5h18v5h13V51.2c5-2.7,7.1-5.2,8.9-10.2h7.7
	c0.9,0,1.4-0.6,1.4-1.5V24.9C78,24,77.5,23,76.6,23z M51.3,17.3c-0.5,0.6-1.2,1-2,1c-0.5,0-1-0.2-1.5-0.5
	c-8.2-6.1-16.2-0.7-16.6-0.4c-1.1,0.8-2.6,0.5-3.4-0.6c-0.8-1.1-0.5-2.6,0.6-3.4c3.9-2.7,13.5-6.1,22.3,0.5
	C51.9,14.7,52.1,16.2,51.3,17.3z"/>
</svg>
