<?xml version="1.0" encoding="utf-8"?>
<!-- Generator: Adobe Illustrator 17.1.0, SVG Export Plug-In . SVG Version: 6.00 Build 0)  -->
<!DOCTYPE svg PUBLIC "-//W3C//DTD SVG 1.1//EN" "http://www.w3.org/Graphics/SVG/1.1/DTD/svg11.dtd">
<svg version="1.1" id="icon" xmlns="http://www.w3.org/2000/svg" xmlns:xlink="http://www.w3.org/1999/xlink" x="0px" y="0px"
	 viewBox="0 0 80 80" enable-background="new 0 0 80 80" xml:space="preserve">
<path d="M51.9,78H25.8c-2.3,0-4.2-1.9-4.2-4.2v-63c0-2.3,1.9-4.2,4.2-4.2h26.1c2.3,0,4.2,1.9,4.2,4.2v63C56.1,76.1,54.2,78,51.9,78z
	 M25.8,10.7c-0.1,0-0.2,0.1-0.2,0.2v63c0,0.1,0.1,0.2,0.2,0.2h26.1c0.1,0,0.2-0.1,0.2-0.2v-63c0-0.1-0.1-0.2-0.2-0.2H25.8z"/>
<path d="M45.4,6.5c0,1.2-1,2.2-2.2,2.2h-8.7c-1.2,0-2.2-1-2.2-2.2l0,0c0-1.2,1-2.2,2.2-2.2h8.7C44.4,4.3,45.4,5.3,45.4,6.5L45.4,6.5
	z"/>
<rect x="28" y="58.6" width="21.7" height="13"/>
<rect x="28" y="43.4" width="21.7" height="13"/>
</svg>
