<?xml version="1.0" encoding="utf-8"?>
<!-- Generator: Adobe Illustrator 17.1.0, SVG Export Plug-In . SVG Version: 6.00 Build 0)  -->
<!DOCTYPE svg PUBLIC "-//W3C//DTD SVG 1.1//EN" "http://www.w3.org/Graphics/SVG/1.1/DTD/svg11.dtd">
<svg version="1.1" id="icon" xmlns="http://www.w3.org/2000/svg" xmlns:xlink="http://www.w3.org/1999/xlink" x="0px" y="0px"
	 viewBox="0 0 80 80" enable-background="new 0 0 80 80" xml:space="preserve">
<g>
	<path d="M34.2,60.7c0-12-1.8-17.5-3.4-22.4l-0.2-0.5c-2.5-7.8-1.7-22.1,11.3-27.5c4-1.7,8.3-2.1,12.4-1.5C50,6.8,45.3,5.8,40.3,5.8
		C20.8,5.8,5.1,21.5,5.1,41c0,13.7,7.8,25.5,19.2,31.3C26.4,71.9,34.2,69.9,34.2,60.7z"/>
	<path d="M62,17.2c-5.3-3.5-12-4.3-18.1-1.8c-10.8,4.5-9.5,16.8-8.2,20.8l0.2,0.5c1.6,5,3.7,11.2,3.7,24c0,7.4-3.8,11.9-7.9,14.4
		c2.8,0.7,5.6,1.1,8.6,1.1c16.3,0,29.9-11,33.9-26C76.9,29.7,67.6,20.9,62,17.2z"/>
</g>
</svg>
