<?xml version="1.0" encoding="utf-8"?>
<!-- Generator: Adobe Illustrator 17.1.0, SVG Export Plug-In . SVG Version: 6.00 Build 0)  -->
<!DOCTYPE svg PUBLIC "-//W3C//DTD SVG 1.1//EN" "http://www.w3.org/Graphics/SVG/1.1/DTD/svg11.dtd">
<svg version="1.1" id="icon" xmlns="http://www.w3.org/2000/svg" xmlns:xlink="http://www.w3.org/1999/xlink" x="0px" y="0px"
	 viewBox="0 0 80 80" enable-background="new 0 0 80 80" xml:space="preserve">
<g>
	<path d="M29.1,26.4h0.8h16h0.8c1.3,0,2.3-1,2.3-2.3V10.5c0-1.3-1-2.3-2.3-2.3h-7.2c1.2-0.6,2-1.8,2-3.2c0-2-1.6-3.6-3.6-3.6
		c-2,0-3.6,1.6-3.6,3.6c0,1.4,0.8,2.6,2,3.2h-6.4c-1.3,0-2.3,1-2.3,2.3v0.8v12.9v0.8C27.6,25.8,28.3,26.4,29.1,26.4z M37.9,3
		c1.1,0,2,0.9,2,2c0,1.1-0.9,2-2,2c-1.1,0-2-0.9-2-2C35.8,3.9,36.8,3,37.9,3z M44.3,23.4H32.2v-3h12.2V23.4z M42.6,12
		c1.6,0,2.9,1.3,2.9,2.9c0,1.6-1.3,2.9-2.9,2.9c-1.6,0-2.9-1.3-2.9-2.9C39.7,13.3,41,12,42.6,12z M33.4,12c1.6,0,2.9,1.3,2.9,2.9
		c0,1.6-1.3,2.9-2.9,2.9c-1.6,0-2.9-1.3-2.9-2.9C30.5,13.3,31.8,12,33.4,12z"/>
	<path d="M63.8,14.1c-1-1.9-3-2.9-5-2.7c0.8,0.1,1.6,0.7,2,1.5c0.7,1.4,0.1,3.1-1.2,3.8c-1.4,0.7-3.1,0.1-3.8-1.2
		c-0.4-0.8-0.4-1.7,0-2.5c-1.4,1.5-1.8,3.7-0.8,5.6c0.6,1.2,1.7,2.1,2.9,2.5c0.2,2.4-0.2,4.3-1.3,5.8c-0.9,1.1-2,1.8-3.1,2.2
		c0-0.8-0.7-1-1.6-1H24.6c-0.9,0-1.6,0.2-1.6,1V30c-1.4-0.1-4.2,0.1-6.3,2.1c-1.9,1.7-2.7,4.4-2.5,7.7c-1.6,1-2.6,2.8-2.3,4.8
		c0.3,2.1,1.9,3.7,3.8,4.2c-0.7-0.4-1.3-1.2-1.4-2.1c-0.2-1.5,0.9-2.9,2.4-3.1c1.5-0.2,2.9,0.9,3.1,2.4c0.1,0.9-0.2,1.8-0.8,2.4
		c1.8-0.9,2.9-2.9,2.7-5c-0.2-1.8-1.4-3.2-2.9-3.9c-0.1-1.4,0-3.1,1-4.1c1-1,2.7-0.9,3.2-0.9v16.3c0,0.9,0.7,1.5,1.6,1.5h1.4v18.3
		h-1.5v7.6h12.2v-7.6h-1.5V52.3h6.1v18.3h-1.5v7.6H52v-7.6h-1.5V52.3h1.4c0.9,0,1.6-0.7,1.6-1.5v-17c1.9-0.5,4.6-1.6,6.6-4.1
		c2-2.5,2.7-5.6,2.3-9.4C64.2,18.8,64.9,16.2,63.8,14.1z"/>
</g>
</svg>
