<?xml version="1.0" encoding="utf-8"?>
<!-- Generator: Adobe Illustrator 17.1.0, SVG Export Plug-In . SVG Version: 6.00 Build 0)  -->
<!DOCTYPE svg PUBLIC "-//W3C//DTD SVG 1.1//EN" "http://www.w3.org/Graphics/SVG/1.1/DTD/svg11.dtd">
<svg version="1.1" id="icon" xmlns="http://www.w3.org/2000/svg" xmlns:xlink="http://www.w3.org/1999/xlink" x="0px" y="0px"
	 viewBox="0 0 80 80" enable-background="new 0 0 80 80" xml:space="preserve">
<g>
	<path d="M46.8,20.8c-3.9,0-7.1,3.1-7.1,7c0,3.9,3.1,7,7,7c3.9,0,7-3.1,7-7C53.7,23.9,50.6,20.8,46.8,20.8z"/>
	<path d="M42.9,0.7c-13.7,0-31.3,7.7-31.3,31.2c0,0-5.1,11.2-5.1,17.2H11v11.2c0,0,0,10.8,11.1,10.8c5.2,0,6.9,0,6.9,0v8h33V55
		c0,0,10.9-9,10.9-27.9C72.9,8.2,56.7,0.7,42.9,0.7z M20.2,35.9c-1.4,0-2.5-1.1-2.5-2.5c0-1.4,1.1-2.5,2.5-2.5s2.5,1.1,2.5,2.5
		C22.7,34.8,21.6,35.9,20.2,35.9z M59.7,34.9c-0.1,0.1-0.4,0.2-0.6,0.2c-0.5-0.1-1-0.3-1.5-0.4c-0.1,0-0.3,0.1-0.4,0.2
		c-0.6,0.7-1.2,1.4-1.8,2.2c-0.1,0.1-0.1,0.3-0.1,0.5c0.2,0.5,0.5,0.9,0.7,1.4c0.1,0.3,0.1,0.5-0.1,0.6c-1.5,1.2-3.2,2-5,2.6
		c-0.3,0.1-0.5,0-0.6-0.2c-0.2-0.5-0.5-0.9-0.7-1.4c-0.1-0.2-0.2-0.2-0.5-0.2c-0.9,0.1-1.8,0.2-2.7,0.2c-0.3,0-0.4,0.3-0.5,0.6
		c-0.2,0.6-0.4,0-0.7,2c-0.1,0-0.2,0-0.4,0c-0.1,0-0.2-0.3-0.3-0.3c-1.7-0.3-3.4-0.9-5-1.7c-0.4-0.2-0.5-0.4-0.3-0.8
		c0.2-0.4,0.3-0.9,0.4-1.3c0.1-0.3,0.1-0.4-0.2-0.6c-0.4-0.3-0.8-0.6-1.2-0.9c-0.4-0.3-0.8-1-1.2-1c-0.5,0-1,0.4-1.5,0.7
		c-0.4,0.2-0.6,0.1-0.8-0.2c-1.1-1.5-1.9-3.1-2.5-4.8c-0.1-0.3,0-0.5,0.3-0.7c0.4-0.2,0.9-0.5,1.3-0.7c0.2-0.1,0.3-0.2,0.3-0.5
		C34.1,29.5,34,28.7,34,28c0-0.8,0.1-0.8-0.8-1.1c-0.4-0.2-1.2-0.4-1.2-0.6c0-0.1,0-0.2,0-0.3c0-0.6,0.1-1.2,0.3-1.7
		c0.4-1.2,0.8-2.3,1.3-3.5c0.2-0.4,0.4-0.5,0.8-0.3c0.4,0.2,0.9,0.3,1.3,0.4c0.1,0,0.3,0,0.4-0.1c0.6-0.7,1.2-1.4,1.9-2.2
		c0.2-0.2,0.2-0.3,0.1-0.5c-0.2-0.4-0.5-0.9-0.7-1.3c-0.1-0.3-0.1-0.5,0.1-0.6c1.5-1.2,3.2-2,5-2.6c0.3-0.1,0.5,0,0.6,0.3
		c0.2,0.4,0.5,0.9,0.7,1.3c0.1,0.2,0.3,0.3,0.5,0.3c0.9-0.1,1.8-0.2,2.7-0.2c0.3,0,0.4-0.1,0.5-0.3c0.1-0.5,0.3-0.9,0.4-1.4
		c0.1-0.3,0.2-0.4,0.6-0.4c1.9,0.3,3.7,0.8,5.4,1.7c0.3,0.1,0.3,0.3,0.2,0.6c-0.2,0.5-0.3,1-0.5,1.5c-0.1,0.2,0,0.3,0.2,0.5
		c0.7,0.6,1.4,1.2,2.1,1.8c0.2,0.2,0.3,0.2,0.5,0.1c0.4-0.2,0.9-0.5,1.3-0.7c0.3-0.2,0.5-0.1,0.7,0.2c1.1,1.5,2,3.1,2.5,4.9
		c0.1,0.3,0,0.5-0.3,0.7c-0.4,0.2-0.9,0.5-1.3,0.7c-0.2,0.1-0.3,0.3-0.2,0.5c0.1,0.9,0.2,1.8,0.2,2.7c0,0.3,0.1,0.4,0.4,0.5
		c0.5,0.1,0.9,0.3,1.3,0.4c0.3,0.1,0.4,0.2,0.4,0.6C61.2,31.4,60.7,33.2,59.7,34.9z"/>
</g>
<ellipse cx="20.2" cy="33.3" rx="0.2" ry="0"/>
</svg>
