<?xml version="1.0" encoding="utf-8"?>
<!-- Generator: Adobe Illustrator 17.1.0, SVG Export Plug-In . SVG Version: 6.00 Build 0)  -->
<!DOCTYPE svg PUBLIC "-//W3C//DTD SVG 1.1//EN" "http://www.w3.org/Graphics/SVG/1.1/DTD/svg11.dtd">
<svg version="1.1" id="icon" xmlns="http://www.w3.org/2000/svg" xmlns:xlink="http://www.w3.org/1999/xlink" x="0px" y="0px"
	 viewBox="0 0 80 80" enable-background="new 0 0 80 80" xml:space="preserve">
<circle cx="31.2" cy="5.2" r="3.9"/>
<circle cx="61.6" cy="5.2" r="3.9"/>
<path d="M5.7,37.3c1.1-0.7,1.9-2.3,2-3.3h0c0.1,2,2,4.1,4.3,4.1s4.2-2.1,4.3-4.1h0c0.1,2,2,4.1,4.3,4.1S25,36,25.1,34h0
	c0.1,2,2,4.1,4.3,4.1s4.2-2.1,4.3-4.1h0c0.1,2,2,4.1,4.3,4.1c2.3,0,4.2-2.1,4.3-4.1h0c0.1,2,2,4.1,4.3,4.1c2.3,0,4.2-2.1,4.3-4.1h0
	c0.1,2,2,4.1,4.3,4.1c2.3,0,4.2-2.1,4.3-4.1h0c0.1,2,2,4.1,4.3,4.1c2.3,0,4.2-2.1,4.3-4.1h0c0.1,2,2,4,4.3,4c0.3,0,0.5-0.1,0.8-0.1
	c1.6-1.2,2.7-2.3,3.5-3.6c0-0.1,0-0.3,0.1-0.3h0.2c4.2-8-4.1-14.8-4.1-14.8c-1.1,3.3-10.2,6.7-10.2,6.7c-2.5-3.6-6-6.1-6-6.1
	c-0.2-1.5,0.6-2.8,0.6-2.8c5.1,2.9,9.1-2.2,10.3-2.9c1.2-0.7,1.9-1.9,1.1-3.3c-0.8-1.3-2.1-0.1-2.1-0.1L62.8,14
	c-2.4-3.3-7.8-5-7.8-5s-9,5-11,15.6V26H32.7c-2.5-4-6-6.2-6-6.2c-0.2-1.5,0.6-3,0.6-3c5.1,2.9,9.1-2.1,10.3-2.8
	c1.2-0.7,1.9-1.9,1.1-3.2c-0.8-1.3-2.1-0.1-2.1-0.1l-4.2,3.4c-2.4-3.3-7.6-4.9-7.6-4.9S15.8,14.4,13.9,25c0,0-5.4-2.3-7.6-5.4
	C6.3,19.6-4.3,28.8,5.7,37.3z M55.1,22.4c3.5,1.1,5,3.6,5,3.6h-1.3h-5.1C53.2,24,55.1,22.4,55.1,22.4z M24.7,22.4
	c3.5,1.1,5,3.6,5,3.6h-1.3h-5.1C22.7,24,24.7,22.4,24.7,22.4z"/>
</svg>
