<?xml version="1.0" encoding="utf-8"?>
<!-- Generator: Adobe Illustrator 17.1.0, SVG Export Plug-In . SVG Version: 6.00 Build 0)  -->
<!DOCTYPE svg PUBLIC "-//W3C//DTD SVG 1.1//EN" "http://www.w3.org/Graphics/SVG/1.1/DTD/svg11.dtd">
<svg version="1.1" id="icon" xmlns="http://www.w3.org/2000/svg" xmlns:xlink="http://www.w3.org/1999/xlink" x="0px" y="0px"
	 viewBox="0 0 80 80" enable-background="new 0 0 80 80" xml:space="preserve">
<path d="M58.8,3.3H20.5c-0.8,0-1.5,0.7-1.5,1.7v70.3c0,0.9,0.7,1.7,1.5,1.7h38.3c0.8,0,2.1-0.7,2.1-1.7V5
	C60.9,4.1,59.6,3.3,58.8,3.3z M34.1,8.4h11.7V10H34.1V8.4z M40,75.2c-2,0-3.6-1.6-3.6-3.6c0-2,1.6-3.6,3.6-3.6s3.6,1.6,3.6,3.6
	C43.6,73.6,42,75.2,40,75.2z M57,67H21.9l0.6-53.6h35.2L57,67z"/>
</svg>
