<?xml version="1.0" encoding="utf-8"?>
<!-- Generator: Adobe Illustrator 17.1.0, SVG Export Plug-In . SVG Version: 6.00 Build 0)  -->
<!DOCTYPE svg PUBLIC "-//W3C//DTD SVG 1.1//EN" "http://www.w3.org/Graphics/SVG/1.1/DTD/svg11.dtd">
<svg version="1.1" id="icon" xmlns="http://www.w3.org/2000/svg" xmlns:xlink="http://www.w3.org/1999/xlink" x="0px" y="0px"
	 viewBox="0 0 80 80" enable-background="new 0 0 80 80" xml:space="preserve">
<path d="M75,32.7L75,32.7c1.2-3.5,1.8-5.6,1.8-8.5c0-10.5-8.2-19.1-18.4-19.1c-8.8,0-16.2,6.4-18,14.9c-1.8-8.6-9.1-15-18-15
	C12.3,5,4.1,13.7,4.1,24.2c0,3,0.7,5,1.9,8.5h0c0,0,0-0.2,0.1,0c0.5,1,1.1,1.9,1.8,2.8C11.9,42,22.6,53.8,39.6,68h0.8
	c15.9-13.4,26.9-24.4,31.8-31.4c1.1-1.3,2-2.4,2.8-4C74.9,32.5,75,32.7,75,32.7z"/>
</svg>
