<?xml version="1.0" encoding="utf-8"?>
<!-- Generator: Adobe Illustrator 17.1.0, SVG Export Plug-In . SVG Version: 6.00 Build 0)  -->
<!DOCTYPE svg PUBLIC "-//W3C//DTD SVG 1.1//EN" "http://www.w3.org/Graphics/SVG/1.1/DTD/svg11.dtd">
<svg version="1.1" id="icon" xmlns="http://www.w3.org/2000/svg" xmlns:xlink="http://www.w3.org/1999/xlink" x="0px" y="0px"
	 viewBox="0 0 80 80" enable-background="new 0 0 80 80" xml:space="preserve">
<path d="M78.3,0.7c0,0-4.3,9.7-25.3,13.6s-20.8,22-17.9,28.4c0,0,3.9-10.5,12.1-12.1c0,0-7.8,4.3-11.3,16.6c0,0-6.2-12.9-16.8-10.7
	S2.7,38.9,2.7,38.9s16.8,29.8,31,19.6c0,0-0.6-5.1-3.9-8c0,0,4.7,1,7.2,13.2c2.5,12.1,2.8,15.2,2.8,15.2l4.6-1
	c0,0-6.5-19.7-2.7-29.4c0,0,12.4,5.5,23.5-4.9S77.6,10.8,78.3,0.7z"/>
</svg>
