<?xml version="1.0" encoding="utf-8"?>
<!-- Generator: Adobe Illustrator 17.1.0, SVG Export Plug-In . SVG Version: 6.00 Build 0)  -->
<!DOCTYPE svg PUBLIC "-//W3C//DTD SVG 1.1//EN" "http://www.w3.org/Graphics/SVG/1.1/DTD/svg11.dtd">
<svg version="1.1" id="Logo" xmlns="http://www.w3.org/2000/svg" xmlns:xlink="http://www.w3.org/1999/xlink" x="0px" y="0px"
	 viewBox="0 0 52.6 25.1" enable-background="new 0 0 52.6 25.1" xml:space="preserve">
<g>
	<g>
		<path fill="#0083C1" d="M5.7,3.9C5.5,3.8,5.2,3.6,4.9,3.5c-0.3-0.1-0.6-0.2-1-0.3C3.6,3.1,3.3,3,3.1,2.9C2.9,2.8,2.7,2.8,2.6,2.7
			C2.5,2.6,2.4,2.6,2.4,2.5c0-0.1-0.1-0.2-0.1-0.3v0c0-0.2,0.1-0.3,0.2-0.5c0.2-0.1,0.4-0.2,0.7-0.2c0.3,0,0.6,0.1,1,0.2
			c0.3,0.1,0.7,0.3,1,0.5L6.1,1C5.7,0.7,5.3,0.4,4.8,0.3C4.3,0.1,3.8,0,3.3,0C2.9,0,2.5,0.1,2.2,0.2C1.9,0.3,1.6,0.4,1.4,0.6
			C1.2,0.8,1,1.1,0.8,1.4C0.7,1.6,0.7,1.9,0.7,2.3v0c0,0.4,0.1,0.7,0.2,0.9c0.1,0.3,0.3,0.5,0.5,0.6C1.5,4,1.8,4.2,2.1,4.3
			c0.3,0.1,0.7,0.2,1,0.3c0.3,0.1,0.6,0.2,0.8,0.2C4.1,4.9,4.3,5,4.4,5.1c0.1,0.1,0.2,0.1,0.2,0.2c0,0.1,0.1,0.2,0.1,0.3v0
			c0,0.2-0.1,0.4-0.3,0.5C4.2,6.2,3.9,6.3,3.6,6.3c-0.4,0-0.8-0.1-1.2-0.2C2,5.9,1.7,5.7,1.3,5.4l-1,1.2c0.5,0.4,1,0.7,1.5,0.9
			C2.4,7.7,3,7.8,3.6,7.8c0.4,0,0.8-0.1,1.1-0.2C5,7.5,5.3,7.3,5.5,7.1C5.8,6.9,6,6.7,6.1,6.4c0.1-0.3,0.2-0.6,0.2-1v0
			c0-0.3-0.1-0.6-0.2-0.8C6,4.3,5.9,4.1,5.7,3.9z"/>
	</g>
	<g>
		<polygon fill="#0083C1" points="14.5,5.2 12.9,0.1 11.4,0.1 9.7,5.2 8.2,0.1 6.4,0.1 9,7.7 10.4,7.7 12.1,2.8 13.8,7.7 15.3,7.7 
			17.8,0.1 16.1,0.1 		"/>
	</g>
	<g>
		<rect x="18.6" y="0.1" fill="#0083C1" width="1.7" height="7.5"/>
	</g>
	<g>
		<polygon fill="#0083C1" points="21.1,1.7 23.4,1.7 23.4,7.6 25,7.6 25,1.7 27.3,1.7 27.3,0.1 21.1,0.1 		"/>
	</g>
	<g>
		<path fill="#0083C1" d="M32.4,6c-0.3,0.2-0.7,0.2-1.1,0.2c-0.3,0-0.6-0.1-0.9-0.2c-0.3-0.1-0.5-0.3-0.7-0.5
			c-0.2-0.2-0.3-0.5-0.4-0.8c-0.1-0.3-0.2-0.6-0.2-0.9v0c0-0.3,0.1-0.6,0.2-0.9c0.1-0.3,0.3-0.5,0.5-0.7c0.2-0.2,0.4-0.4,0.7-0.5
			c0.3-0.1,0.6-0.2,0.9-0.2c0.4,0,0.7,0.1,1,0.2c0.3,0.1,0.6,0.4,0.9,0.6l1.1-1.2c-0.2-0.2-0.4-0.3-0.6-0.5
			c-0.2-0.1-0.4-0.3-0.7-0.4c-0.2-0.1-0.5-0.2-0.8-0.2C32,0,31.6,0,31.3,0c-0.6,0-1.1,0.1-1.6,0.3c-0.5,0.2-0.9,0.5-1.2,0.8
			c-0.3,0.4-0.6,0.8-0.8,1.2c-0.2,0.5-0.3,1-0.3,1.5v0c0,0.5,0.1,1,0.3,1.5c0.2,0.5,0.5,0.9,0.8,1.2c0.3,0.3,0.8,0.6,1.2,0.8
			c0.5,0.2,1,0.3,1.5,0.3c0.4,0,0.7,0,1-0.1c0.3-0.1,0.6-0.2,0.8-0.3c0.2-0.1,0.5-0.3,0.7-0.4c0.2-0.2,0.4-0.4,0.6-0.6l-1.1-1.1
			C32.9,5.6,32.7,5.8,32.4,6z"/>
	</g>
	<g>
		<path fill="#0083C1" d="M42.5,0.1L42.5,0.1l-2.8,0v3h-3v-3H35v7.5h1.7v-3h3v3l2.8,0v0h2.7c1.3,0,2.5-0.2,3.6-1.1
			c1.5-1.2,1.9-4,0.7-4.9c0,0,1.7,1.3,2.7,3.1V0.1H42.5z M43.7,7.1c-0.3-0.2-0.2-0.5-0.1-0.8C44.6,3.7,47,1.7,47,1.7
			c-1.6,1.5-0.1,4,1.3,4.6C47.4,7.3,44.6,7.7,43.7,7.1z M49.6,4.2c-0.4-0.4-1.6-0.8-2.7,0c-0.7-2.3,1.3-3.1,1.3-3.1
			C50.1,2,49.8,3.7,49.6,4.2z"/>
	</g>
</g>
<g>
	<path fill="#0083C1" d="M5,14.8c-0.3,0.2-0.6,0.4-0.9,0.5S3.4,15.6,3,15.6c-0.3,0-0.6,0-0.9-0.1c-0.3-0.1-0.5-0.2-0.7-0.4
		c-0.2-0.2-0.4-0.4-0.5-0.6c-0.1-0.2-0.2-0.5-0.2-0.8v0c0-0.4,0.1-0.8,0.3-1.1s0.6-0.6,1-0.8c-0.2-0.2-0.3-0.5-0.4-0.7
		c-0.1-0.2-0.1-0.4-0.1-0.7v0c0-0.2,0-0.5,0.1-0.7s0.2-0.4,0.4-0.6C2.2,9,2.5,8.8,2.7,8.7C3,8.6,3.3,8.6,3.6,8.6
		c0.3,0,0.6,0,0.8,0.1C4.6,8.8,4.8,8.9,5,9.1s0.3,0.3,0.4,0.5c0.1,0.2,0.1,0.4,0.1,0.7v0c0,0.2,0,0.4-0.1,0.6
		c-0.1,0.2-0.2,0.3-0.3,0.5c-0.1,0.1-0.3,0.3-0.5,0.4c-0.2,0.1-0.4,0.2-0.6,0.3L5,13c0.1-0.2,0.2-0.4,0.3-0.6
		c0.1-0.2,0.2-0.4,0.3-0.6l1.1,0.6c-0.1,0.2-0.3,0.5-0.4,0.7c-0.1,0.2-0.3,0.5-0.5,0.7l1,1l-1.1,0.8L5,14.8z M3.1,14.4
		c0.2,0,0.3,0,0.5-0.1C3.8,14.2,4,14.1,4.1,14l-1.3-1.3c-0.2,0.1-0.4,0.3-0.5,0.4c-0.1,0.2-0.1,0.3-0.1,0.5v0c0,0.2,0.1,0.4,0.3,0.6
		C2.6,14.3,2.9,14.4,3.1,14.4z M3.3,11.3c0.3-0.1,0.5-0.2,0.7-0.4c0.2-0.1,0.2-0.3,0.2-0.5v0c0-0.2-0.1-0.3-0.2-0.5
		C3.9,9.8,3.7,9.8,3.6,9.8c-0.2,0-0.4,0.1-0.5,0.2s-0.2,0.3-0.2,0.5v0c0,0.1,0,0.3,0.1,0.4S3.2,11.1,3.3,11.3z"/>
	<path fill="#0083C1" d="M12.7,15.6c-0.5,0-1-0.1-1.5-0.3c-0.5-0.2-0.9-0.5-1.4-0.8l0.9-1.1c0.3,0.3,0.6,0.5,1,0.6
		c0.3,0.1,0.7,0.2,1.1,0.2c0.3,0,0.6-0.1,0.7-0.2c0.2-0.1,0.3-0.3,0.3-0.5v0c0-0.1,0-0.2-0.1-0.3s-0.1-0.1-0.2-0.2
		C13.3,13.1,13.2,13,13,13c-0.2-0.1-0.4-0.1-0.7-0.2c-0.3-0.1-0.7-0.2-0.9-0.3c-0.3-0.1-0.5-0.2-0.7-0.4c-0.2-0.2-0.3-0.3-0.5-0.6
		c-0.1-0.2-0.2-0.5-0.2-0.8v0c0-0.3,0.1-0.6,0.2-0.8s0.3-0.5,0.5-0.6c0.2-0.2,0.5-0.3,0.7-0.4c0.3-0.1,0.6-0.1,1-0.1
		c0.5,0,1,0.1,1.4,0.2c0.4,0.1,0.8,0.4,1.1,0.6l-0.8,1.1c-0.3-0.2-0.6-0.4-0.9-0.5C13,10,12.7,9.9,12.4,9.9s-0.5,0.1-0.7,0.2
		c-0.1,0.1-0.2,0.3-0.2,0.4v0c0,0.1,0,0.2,0.1,0.3s0.1,0.2,0.2,0.2c0.1,0.1,0.3,0.1,0.5,0.2c0.2,0.1,0.4,0.1,0.7,0.2
		c0.3,0.1,0.6,0.2,0.9,0.3c0.3,0.1,0.5,0.2,0.7,0.4s0.3,0.3,0.4,0.6c0.1,0.2,0.1,0.5,0.1,0.8v0c0,0.3-0.1,0.6-0.2,0.9
		c-0.1,0.3-0.3,0.5-0.5,0.7c-0.2,0.2-0.5,0.3-0.8,0.4C13.4,15.5,13,15.6,12.7,15.6z"/>
	<path fill="#0083C1" d="M15.6,8.7h1.6l1.4,4.6l1.5-4.6h1.3l1.5,4.6l1.4-4.6h1.6l-2.3,6.8h-1.3l-1.5-4.4l-1.5,4.4H18L15.6,8.7z"/>
	<path fill="#0083C1" d="M26.7,8.7h5.1V10h-3.6v1.4h3.2v1.3h-3.2v1.4h3.7v1.3h-5.2V8.7z"/>
	<path fill="#0083C1" d="M32.9,8.7H36c0.9,0,1.5,0.2,2,0.7c0.4,0.4,0.6,0.9,0.6,1.6v0c0,0.5-0.1,1-0.4,1.3c-0.3,0.3-0.6,0.6-1.1,0.8
		l1.7,2.4h-1.7l-1.5-2.2h0h-1.2v2.2h-1.5V8.7z M35.9,12c0.4,0,0.7-0.1,0.8-0.3c0.2-0.2,0.3-0.4,0.3-0.7v0c0-0.3-0.1-0.6-0.3-0.7
		c-0.2-0.2-0.5-0.2-0.9-0.2h-1.5V12H35.9z"/>
	<path fill="#0083C1" d="M39.1,8.7h1.6l1.8,4.8l1.8-4.8h1.6l-2.7,6.8h-1.3L39.1,8.7z"/>
	<path fill="#0083C1" d="M46.6,8.7h5.1V10h-3.6v1.4h3.2v1.3h-3.2v1.4h3.7v1.3h-5.2V8.7z"/>
</g>
</svg>
