<?xml version="1.0" encoding="utf-8"?>
<!-- Generator: Adobe Illustrator 17.1.0, SVG Export Plug-In . SVG Version: 6.00 Build 0)  -->
<!DOCTYPE svg PUBLIC "-//W3C//DTD SVG 1.1//EN" "http://www.w3.org/Graphics/SVG/1.1/DTD/svg11.dtd">
<svg version="1.1" id="Logo" xmlns="http://www.w3.org/2000/svg" xmlns:xlink="http://www.w3.org/1999/xlink" x="0px" y="0px"
	 viewBox="0 0 52.6 25.1" enable-background="new 0 0 52.6 25.1" xml:space="preserve">
<g>
	<path fill-rule="evenodd" clip-rule="evenodd" fill="#BE1E2D" d="M34.7,2.9c-7.5-1.1-18.3,5.7-19.6,7.9
		c-4.1,6.7,3.4,11.3,10.1,10.4c7.3-0.9,21-9,11.2-13.7c-2.8-1.4-7.2-0.4-9.5,1.4c-2.3,1.7-3.8,7.1,0.6,4.8c-3.1-3.2,7-6.1,6.2-0.9
		c-0.5,3.4-7.6,4.9-10,4.5c-4.5-0.6-4.9-4.2-2.1-7.1c3-3.1,7.7-5.1,11.9-5.5c10.4-1,14.7,7.9,6.2,14.5c-6.4,5-16.9,7.9-24.7,4.6
		C4.4,19.3,11.9,8.6,18.4,4.8C23.2,2,28.9,0.4,34.5,0C41.3-0.4,41.1,4,34.7,2.9"/>
</g>
<g>
	<polygon fill="#3C2161" points="1.4,10.3 4.3,8.6 5.1,16.1 9.3,15 9.6,17.2 3.2,18.6 	"/>
	<polygon fill="#3C2161" points="9.2,10 12.1,11 10.3,17.2 8.3,16.4 	"/>
	<polygon fill="#3C2161" points="19.8,9.4 22.1,8.3 23.1,12 25.2,8.9 27,9 24.6,12.3 28.7,16.3 26.7,17.4 23.3,13.5 24.4,16.6 
		22.4,17.9 	"/>
	<polygon fill="#3C2161" points="29.7,8.5 32.6,9.8 29.3,17.5 27.1,17 	"/>
	<path fill="#3C2161" d="M12.9,9.1c-0.1,0.6-0.9,1.1-1.9,1c-1-0.1-1.7-0.7-1.6-1.3c0.1-0.6,0.9-1.1,1.9-1C12.2,7.9,13,8.5,12.9,9.1z
		"/>
	<g>
		<path fill="#3C2161" d="M38.2,10c-1.3-1.4-3.6-2-6-0.5l0.6,8.2C41.2,15.4,38.5,10.4,38.2,10z M33.7,15.8l-0.1-3.9
			C36.7,10.5,36.8,12.8,33.7,15.8z"/>
	</g>
	<g>
		<path fill="#3C2161" d="M21.4,14.8c0,0.7,0,1.8-0.3,2.4c-1,1.8-3.8,2-5.1,0.4c-0.7-0.9-1-3-1-4.1c0-0.9,0.3-1.9,0.9-2.6
			c0.9-1,2.9-1.4,4.1-0.5c0.4,0.3,1.6,3.2,1.3,3.3c0,0-4,1-4,1l0,0.2l0.1,0.3c0.6,2.5,3.3,1.7,3.3-0.5l0.2,0L21.4,14.8z M18.9,12.6
			c-0.3-1.2-1.9-1.3-1.9,0.6L18.9,12.6z"/>
	</g>
	<path fill="#3C2161" d="M43.7,11.9c-0.4-1.1-1.8-0.5-2.6-1c-0.9-0.7,1.6-2.5,1.9-2.7L42.6,7c0,0-0.8,0.2-1.1,0.4
		c-0.4,0.2-1.9,0.8-2.8,1.6c-1.5,1.3-2.9,5,0.1,5.4c0.7,0.1,1.4-0.4,2.1-0.5c1.3-0.1-0.5,1.5-0.9,1.7l-1.4,0.8c0,0,0,0,0,0l0.7,1
		c0,0,1.9-0.6,3.6-3.4C43.6,13.2,43.8,12.2,43.7,11.9z"/>
	<path fill="#3C2161" d="M18.1,5.4c-1.6-0.3-3.8,0.2-5.4,6.4l-0.8,0l-0.5,1.8l0.9,0.1l-0.1,4.1l1.4,0.1l0.8-4l1.3,0.1l0.6-2.3
		l-1.5,0c0.1-0.6,0.6-2.1,0.8-2.6c0.2-0.4,0.5-1.2,1-1.3c0.8-0.1,0,2.6-0.1,3l1.5,0.3C18.8,9.7,20.5,5.9,18.1,5.4z"/>
</g>
<path fill="#402061" d="M51.7,11.9c-0.5-0.2-1-0.4-1.5-0.6c-0.3-0.1-0.7,0-1,0.2c-0.4-0.2-0.8-0.3-1.3,0c-0.2,0.1-0.4,0.2-0.6,0.3
	c0-0.1,0-0.2,0-0.3c0-0.6-0.5-1.3-1.2-1.2c-0.4,0-0.9,0.1-1.3,0.1c-0.2,0-0.3,0-0.4,0.1C44,10.1,43.5,9.9,43,9.8
	c0.1-0.1,0.2-0.2,0.3-0.3c0,0,0.2-0.2,0.3-0.2c0.5-0.4,0.8-1,0.6-1.6C44.2,7.4,44.1,7,44,6.6c-0.2-0.7-1-1.2-1.7-1
	C40.7,6.1,39,6.8,37.8,8C36,7,33.8,7.1,32,8c-0.5-0.2-1-0.5-1.6-0.7c-0.7-0.3-1.5-0.2-1.9,0.5c0,0.1-0.1,0.1-0.1,0.2c0,0,0,0,0,0
	c0,0,0,0,0,0.1c0,0,0,0.1,0,0.1c0,0.1-0.1,0.2-0.1,0.3C28,7.9,27.5,7.6,27,7.5c-0.8,0-1.1,0-1.6-0.1c-0.8,0-1.2,0.4-1.6,1
	c0,0.1-0.1,0.1-0.1,0.2c-0.1-0.3-0.2-0.5-0.2-0.8C23.2,7,22.1,6.6,21.3,7c-0.2,0.1-0.4,0.2-0.6,0.3c0.1-1.5-0.4-2.8-2.1-3.3
	c0,0-0.1,0-0.1,0c-0.1,0-0.1,0-0.2,0c-2.4-0.4-4.1,1-5.2,3c-1.7-1.1-4.6-0.8-5,1.4C8,8.6,8,8.9,8,9.2C7.9,9.3,7.9,9.4,7.8,9.6
	c-0.2,1.5-0.4,3-0.7,4.5c-0.3,0.1-0.6,0.1-0.9,0.2c-0.2-1.9-0.4-3.8-0.6-5.7c-0.1-1-1.1-1.8-2.1-1.2c-1,0.6-1.9,1.2-2.9,1.7
	C0.2,9.4,0,9.8,0,10.2c0,0.2,0,0.3,0,0.5c0.6,2.8,1.2,5.5,1.8,8.3c0.2,0.8,1,1.1,1.7,1c2.1-0.5,4.2-1,6.3-1.4c0,0,0,0,0,0
	c0,0,0,0,0,0c0.3,0.1,0.7,0.1,0.9-0.1c0.2,0.5,0.7,0.8,1.3,0.8c0.5,0,0.9,0.1,1.4,0.1c0.6,0.1,1.2-0.4,1.3-1
	c0.3,0.3,0.6,0.6,0.9,0.9c1.3,0.9,3.2,0.9,4.6,0.3c0.4-0.2,0.7-0.4,1-0.7c0.4,0.4,1.1,0.6,1.7,0.2c0.7-0.4,1.3-0.9,2-1.3
	c0,0,0.1,0,0.1-0.1c0.2,0.2,0.3,0.4,0.5,0.6c0.4,0.5,1.2,0.5,1.7,0.2c0,0,0.1,0,0.1-0.1c0.5,0.1,0.9,0.2,1.4,0.3
	c0.6,0.1,1.3-0.1,1.6-0.6c0.2-0.6,0.5-1.1,0.7-1.7c0,0.4,0.1,0.9,0.1,1.3c0.1,0.9,0.9,1.6,1.8,1.4c1.4-0.4,3-1,4.3-2
	c0.2,0.3,0.5,0.7,0.7,1c0.4,0.5,0.9,0.8,1.6,0.6c0.7-0.2,1.4-0.6,1.9-1.1c0.2,0.1,0.4,0.2,0.6,0.3c0.6,0.2,1.2,0.1,1.7-0.1
	c0.2,0.4,0.6,0.6,1,0.6c0.5,0,1-0.1,1.5-0.1c0.6,0,1.3-0.5,1.2-1.2c0-0.1,0-0.1,0-0.2c0.1,0.2,0.2,0.4,0.3,0.6
	c0.2,0.4,0.6,0.6,1,0.6c0.3,0,0.6,0,0.8,0c0.6,0,1-0.4,1.2-0.9c0.4-1.3,0.9-2.6,1.3-3.9C52.8,12.7,52.3,12.2,51.7,11.9z M10.3,12.4
	c0-0.2,0.1-0.4,0.1-0.5c0,0,0,0,0.1,0C10.4,12.1,10.3,12.2,10.3,12.4z M17.9,6.7C17.9,6.7,17.9,6.7,17.9,6.7
	C17.9,6.7,17.9,6.8,17.9,6.7C17.9,6.8,17.9,6.8,17.9,6.7C17.9,6.8,17.9,6.7,17.9,6.7z M17.9,6.8C17.9,6.8,17.9,6.8,17.9,6.8
	C17.9,6.8,17.9,6.8,17.9,6.8C17.9,6.8,17.9,6.8,17.9,6.8C17.9,6.8,17.9,6.8,17.9,6.8z M17.9,6.8C17.9,6.8,17.9,6.8,17.9,6.8
	C17.9,6.8,17.9,6.8,17.9,6.8C17.9,6.8,17.9,6.8,17.9,6.8C17.9,6.8,17.9,6.8,17.9,6.8z M18,6.8C18,6.8,18,6.8,18,6.8
	C18,6.8,18,6.8,18,6.8C18,6.8,18,6.8,18,6.8z M27,12.6c-0.2-0.2-0.3-0.3-0.5-0.5c0.4-0.6,0.8-1.1,1.2-1.7
	C27.4,11.2,27.2,11.9,27,12.6z M43.1,16.7C43.1,16.7,43.1,16.7,43.1,16.7C43.1,16.7,43.1,16.7,43.1,16.7
	C43.1,16.7,43.1,16.7,43.1,16.7z"/>
<g>
	<g>
		<polygon fill="#FFDD00" points="1.4,10.3 4.3,8.6 5.1,16.1 9.3,15 9.6,17.2 3.2,18.6 		"/>
		<path fill="#BE1E2D" d="M1.5,10.4c1-0.6,1.9-1.2,2.9-1.7c-0.1,0-0.2-0.1-0.2-0.1c0.3,2.5,0.5,5,0.8,7.5c0,0.1,0.1,0.2,0.2,0.1
			c1.4-0.4,2.8-0.7,4.2-1.1c-0.1,0-0.1-0.1-0.2-0.1c0.1,0.7,0.2,1.5,0.2,2.2c0-0.1,0.2-0.2,0-0.1c-0.1,0-0.2,0.1-0.3,0.1
			c-0.4,0.1-0.8,0.2-1.1,0.3c-1.6,0.4-3.2,0.7-4.7,1.1c0.1,0,0.1,0.1,0.2,0.1c-0.6-2.8-1.2-5.5-1.8-8.3c0-0.2-0.3-0.1-0.3,0.1
			c0.6,2.8,1.2,5.5,1.8,8.3c0,0.1,0.1,0.1,0.2,0.1c2.1-0.5,4.2-1,6.3-1.4c0.1,0,0.1-0.1,0.1-0.1c-0.1-0.7-0.2-1.5-0.2-2.2
			c0-0.1-0.1-0.2-0.2-0.1c-1.4,0.4-2.8,0.7-4.2,1.1c0.1,0,0.1,0.1,0.2,0.1c-0.3-2.5-0.5-5-0.8-7.5c0-0.1-0.1-0.2-0.2-0.1
			c-1,0.6-1.9,1.2-2.9,1.7C1.2,10.3,1.3,10.5,1.5,10.4z"/>
	</g>
	<g>
		<polygon fill="#FFDD00" points="9.2,10 12.1,11 10.3,17.2 8.3,16.4 		"/>
		<path fill="#BE1E2D" d="M9.2,10.1c1,0.3,2,0.7,2.9,1c0-0.1-0.1-0.1-0.1-0.2c-0.6,2.1-1.2,4.1-1.8,6.2c0.1,0,0.1-0.1,0.2-0.1
			c-0.7-0.3-1.4-0.5-2.1-0.8c0,0.1,0.1,0.1,0.1,0.2C8.7,14.3,9,12.2,9.3,10c0-0.2-0.3-0.3-0.3-0.1c-0.3,2.1-0.6,4.3-0.9,6.4
			c0,0.1,0,0.2,0.1,0.2c0.7,0.3,1.4,0.5,2.1,0.8c0.1,0,0.2,0,0.2-0.1c0.6-2.1,1.2-4.1,1.8-6.2c0-0.1,0-0.2-0.1-0.2
			c-1-0.3-2-0.7-2.9-1C9.1,9.8,9,10.1,9.2,10.1z"/>
	</g>
	<g>
		<polygon fill="#FFDD00" points="19.8,9.4 22.1,8.3 23.1,12 25.2,8.9 27,9 24.6,12.3 28.7,16.3 26.7,17.4 23.3,13.5 24.4,16.6 
			22.4,17.9 		"/>
		<path fill="#BE1E2D" d="M19.8,9.5c0.8-0.4,1.5-0.8,2.3-1.2c-0.1,0-0.1-0.1-0.2-0.1c0.3,1.3,0.7,2.5,1,3.8c0,0.1,0.2,0.1,0.3,0
			c0.6-0.8,1.1-1.7,1.7-2.5c0.1-0.2,0.2-0.3,0.3-0.5c0.1-0.2-0.1,0,0.1,0c0.5,0,1,0,1.6,0.1c0-0.1-0.1-0.2-0.1-0.2
			c-0.8,1.1-1.6,2.2-2.4,3.4c0,0.1,0,0.1,0,0.2c1.4,1.3,2.8,2.6,4.1,3.9c0-0.1,0-0.2,0-0.2c-0.6,0.3-1.2,0.6-1.7,1
			c-0.1,0-0.2,0.1-0.3,0.1c0.1-0.1,0.2,0.1,0.1-0.1c-0.2-0.2-0.4-0.4-0.6-0.6c-0.9-1.1-1.8-2.1-2.8-3.2c-0.1-0.1-0.3,0-0.3,0.1
			c0.3,1,0.7,2,1,2.9c0,0.1,0,0.1,0.1,0.2c0,0,0.2-0.2,0-0.1c-0.2,0.1-0.4,0.3-0.7,0.4c-0.4,0.3-0.8,0.6-1.3,0.8
			c0.1,0,0.1,0.1,0.2,0.1c-0.9-2.8-1.8-5.7-2.7-8.5c-0.1-0.2-0.4-0.1-0.3,0.1c0.9,2.8,1.8,5.7,2.7,8.5c0,0.1,0.1,0.1,0.2,0.1
			c0.7-0.4,1.3-0.9,2-1.3c0.1,0,0.1-0.1,0.1-0.2c-0.4-1.1-0.7-2.1-1.1-3.2c-0.1,0-0.2,0.1-0.3,0.1c1.1,1.3,2.3,2.6,3.4,3.9
			c0,0.1,0.1,0.1,0.2,0c0.7-0.4,1.3-0.8,2-1.1c0.1,0,0.1-0.2,0-0.2c-1.3-1.2-2.6-2.5-3.9-3.7c-0.1-0.1-0.1-0.1-0.2-0.2
			c-0.1-0.1-0.1,0.2,0,0.1c0.2-0.4,0.5-0.7,0.7-1.1c0.5-0.7,1-1.5,1.6-2.2c0.1-0.1,0-0.2-0.1-0.2c-0.5,0-1,0-1.6-0.1
			c-0.3,0-0.4,0.2-0.6,0.4c-0.6,0.9-1.3,1.8-1.9,2.8c0.1,0,0.2,0,0.3,0c-0.3-1.3-0.7-2.5-1-3.8c0-0.1-0.1-0.1-0.2-0.1
			c-0.8,0.4-1.5,0.8-2.3,1.2C19.5,9.4,19.7,9.6,19.8,9.5z"/>
	</g>
	<g>
		<polygon fill="#FFDD00" points="29.7,8.5 32.6,9.8 29.3,17.5 27.1,17 		"/>
		<path fill="#BE1E2D" d="M29.6,8.6c1,0.4,1.9,0.9,2.9,1.3c0-0.1,0-0.1-0.1-0.2c-0.8,1.8-1.5,3.5-2.3,5.3c-0.3,0.8-0.7,1.6-1,2.3
			c-0.1,0.1,0.2,0,0.1,0c-0.3-0.1-0.5-0.1-0.8-0.2c-0.5-0.1-0.9-0.2-1.4-0.3c0,0.1,0.1,0.1,0.1,0.2c0.9-2.8,1.8-5.6,2.6-8.5
			c0.1-0.2-0.2-0.3-0.3-0.1c-0.9,2.8-1.8,5.6-2.6,8.5c0,0.1,0,0.2,0.1,0.2c0.7,0.2,1.5,0.3,2.2,0.5c0.1,0,0.1,0,0.2-0.1
			c1.1-2.6,2.2-5.1,3.3-7.7c0-0.1,0-0.2-0.1-0.2c-1-0.4-1.9-0.9-2.9-1.3C29.6,8.3,29.5,8.6,29.6,8.6z"/>
	</g>
	<g>
		<path fill="#FFDD00" d="M12.9,9.1c-0.1,0.6-0.9,1.1-1.9,1c-1-0.1-1.7-0.7-1.6-1.3c0.1-0.6,0.9-1.1,1.9-1C12.2,7.9,13,8.5,12.9,9.1
			z"/>
		<path fill="#BE1E2D" d="M12.7,9c-0.3,1.4-2.8,1-3.2-0.1C9.1,7.7,12.8,7.4,12.7,9c0,0.2,0.3,0.2,0.3,0c0-1.7-3.4-2.1-3.8-0.4
			c-0.2,0.9,1,1.4,1.7,1.5c0.8,0.1,1.9-0.2,2-1.1C13.1,8.9,12.8,8.9,12.7,9z"/>
	</g>
	<g>
		<path fill="#FFDD00" d="M38.2,10c-1.3-1.4-3.6-2-6-0.5l0.6,8.2C41.2,15.4,38.5,10.4,38.2,10z M33.7,15.8l-0.1-3.9
			C36.7,10.5,36.8,12.8,33.7,15.8z"/>
		<g>
			<path fill="#BE1E2D" d="M38.3,9.9c-1.7-1.7-4.2-1.7-6.2-0.5c0,0-0.1,0.1-0.1,0.1c0.2,2.7,0.4,5.5,0.6,8.2c0,0.1,0.1,0.2,0.2,0.1
				c2.4-0.7,5.5-2,6.1-4.7C39.1,12.2,39,10.7,38.3,9.9c-0.1-0.1-0.3,0.1-0.2,0.2c0.6,0.7,0.7,2.1,0.6,3c-0.5,2.6-3.6,3.9-5.9,4.5
				c0.1,0,0.1,0.1,0.2,0.1c-0.2-1.9-0.3-3.8-0.5-5.7c-0.1-0.8-0.1-1.6-0.2-2.5c0,0,0.9-0.4,1-0.5c0.6-0.2,1.2-0.3,1.9-0.3
				c1.1,0,2.1,0.6,2.9,1.3C38.2,10.3,38.4,10,38.3,9.9z"/>
			<path fill="#BE1E2D" d="M33.8,15.8c0-1.3-0.1-2.6-0.1-3.9c0,0,0.3-0.1,0.4-0.1c0.3-0.1,0.6-0.2,0.8-0.2c0.5,0,0.8,0.1,0.8,0.6
				c0,0.5-0.3,1-0.6,1.4c-0.5,0.7-1.1,1.4-1.7,2c-0.1,0.1,0.1,0.3,0.2,0.2c0.9-0.9,2.5-2.4,2.3-3.8c-0.1-1.2-1.9-0.6-2.6-0.3
				c-0.1,0-0.1,0.1-0.1,0.1c0,1.3,0.1,2.6,0.1,3.9C33.5,16,33.8,16,33.8,15.8z"/>
		</g>
	</g>
	<g>
		<path fill="#FFDD00" d="M21.4,14.8c0,0.7,0,1.8-0.3,2.4c-1,1.8-3.8,2-5.1,0.4c-0.7-0.9-1-3-1-4.1c0-0.9,0.3-1.9,0.9-2.6
			c0.9-1,2.9-1.4,4.1-0.5c0.4,0.3,1.6,3.2,1.3,3.3c0,0-4,1-4,1l0,0.2l0.1,0.3c0.6,2.5,3.3,1.7,3.3-0.5l0.2,0L21.4,14.8z M18.9,12.6
			c-0.3-1.2-1.9-1.3-1.9,0.6L18.9,12.6z"/>
		<g>
			<path fill="#BE1E2D" d="M21.3,14.8c0,0.7,0,1.4-0.2,2.1c-0.2,0.7-0.9,1.2-1.6,1.5c-1.2,0.5-2.8,0.1-3.6-1c-0.7-1-0.8-2.5-0.8-3.7
				c0-1.7,0.9-3.1,2.6-3.5c0.7-0.2,1.4-0.1,2,0.3c0.3,0.2,0.5,0.7,0.7,1c0.2,0.5,0.4,1,0.6,1.5c0.1,0.2,0.2,0.6,0.1,0.7
				c-1.3,0.3-2.6,0.6-4,1c-0.1,0-0.1,0.1-0.1,0.1c-0.1,1,0.6,2.1,1.7,2.2c1.2,0.1,1.9-1.1,2-2.2c-0.1,0.1-0.1,0.1-0.2,0.2
				c0.3,0,0.6,0,0.8,0c0.2,0,0.2-0.3,0-0.3c-0.3,0-0.6,0-0.8,0c-0.1,0-0.1,0.1-0.2,0.2c-0.1,1.3-1.5,2.6-2.6,1.4
				c-0.2-0.3-0.4-0.6-0.5-1c0-0.1,0-0.2,0-0.3c0-0.2,0,0-0.1,0c0.3-0.1,0.6-0.2,1-0.2c0.9-0.2,1.9-0.5,2.8-0.7
				c0.6-0.1,0.4-0.6,0.3-1.1c-0.3-0.8-0.6-1.8-1.2-2.5c-0.8-0.9-2.4-0.6-3.3-0.2c-2.6,1.1-2.2,5.1-1.1,7.2c0.7,1.3,2.5,1.7,3.8,1.3
				c0.7-0.2,1.3-0.7,1.7-1.2c0.5-0.7,0.4-1.8,0.4-2.6C21.6,14.6,21.3,14.6,21.3,14.8z"/>
			<path fill="#BE1E2D" d="M19,12.6c-0.1-0.6-0.6-1.1-1.2-1c-0.8,0.1-1,0.9-0.9,1.6c0,0.1,0.1,0.2,0.2,0.1c0.6-0.2,1.2-0.4,1.9-0.6
				c0.2-0.1,0.1-0.3-0.1-0.3c-0.6,0.2-1.2,0.4-1.9,0.6c0.1,0,0.1,0.1,0.2,0.1c0-0.5,0.1-1.2,0.7-1.3c0.5-0.1,0.8,0.4,0.9,0.8
				C18.8,12.8,19.1,12.7,19,12.6z"/>
		</g>
	</g>
	<g>
		<path fill="#FFDD00" d="M43.7,11.9c-0.4-1.1-1.8-0.5-2.6-1c-0.9-0.7,1.6-2.6,1.9-2.7L42.6,7c0,0-0.9,0.2-1.1,0.3
			c-0.4,0.2-1.9,0.8-2.8,1.6c-1.5,1.3-2.9,5,0.1,5.4c0.7,0.1,1.4-0.4,2.1-0.5c1.3-0.1-0.5,1.5-0.9,1.7l-1.4,0.8c0,0,0,0,0,0l0.7,1
			c0,0,1.9-0.6,3.6-3.4C43.6,13.2,43.8,12.2,43.7,11.9z"/>
		<path fill="#BE1E2D" d="M43.8,11.8c-0.2-0.5-0.6-0.7-1.1-0.8c-0.5-0.1-1.8,0-1.7-0.7c0.2-0.8,1.3-1.7,2-2c0.1,0,0.1-0.1,0.1-0.2
			C43,7.7,42.8,7.4,42.7,7c0-0.1-0.1-0.1-0.2-0.1C41,7.3,39.4,8,38.3,9.2c-0.9,1-1.6,2.5-1.3,3.8c0.1,0.6,0.5,1,1.1,1.3
			c1.1,0.5,2-0.2,3.1-0.3c0.4,0-0.4,0.9-0.5,1c-0.2,0.2-0.4,0.3-0.6,0.5c-0.5,0.3-0.9,0.6-1.4,0.8c-0.1,0-0.1,0.1-0.1,0.2
			c0.2,0.3,0.5,0.7,0.7,1c0,0.1,0.1,0.1,0.2,0.1c0.8-0.2,1.5-0.8,2.1-1.4c0.7-0.6,1.3-1.4,1.7-2.2C43.6,13.4,44,12.5,43.8,11.8
			c0-0.2-0.3-0.1-0.3,0.1c0.3,1.1-0.7,2.4-1.3,3.2c-0.5,0.7-1.2,1.3-1.9,1.8c-0.3,0.2-0.6,0.3-0.9,0.4c0.1,0,0.2,0.1,0.1,0
			c-0.1-0.1-0.2-0.2-0.3-0.4c-0.1-0.2-0.3-0.4-0.4-0.6c0,0.1,0,0.1-0.1,0.2c0.9-0.5,1.8-1,2.5-1.8c0.1-0.2,0.6-0.8,0.2-1
			c-0.3-0.1-0.6,0-0.9,0c-0.7,0.2-1.3,0.5-2.1,0.3c-2-0.5-1-3.1-0.3-4.2c1-1.4,2.9-2.3,4.5-2.7c-0.1,0-0.1-0.1-0.2-0.1
			c0.1,0.3,0.2,0.6,0.2,0.8c0.1,0.3,0,0.2,0.1,0.1c-0.1,0.1-0.2,0.1-0.3,0.2C42,8.6,41.4,9.1,41,9.7c-0.3,0.4-0.5,0.9,0,1.2
			c0.8,0.6,2.1,0,2.6,1C43.6,12.1,43.9,12,43.8,11.8z"/>
	</g>
	<g>
		<path fill="#FFDD00" d="M18.1,5.4c-1.6-0.3-3.8,0.2-5.4,6.4l-0.8,0l-0.5,1.8l0.9,0.1l-0.1,4.1l1.4,0.1l0.8-4l1.3,0.1l0.6-2.3
			l-1.5,0c0.1-0.6,0.6-2.1,0.8-2.6c0.2-0.4,0.5-1.2,1-1.3c0.8-0.1,0,2.6-0.1,3l1.5,0.3C18.8,9.7,20.5,5.9,18.1,5.4z"/>
		<path fill="#BE1E2D" d="M18.2,5.2c-1.2-0.2-2.2,0.2-3.1,1c-0.7,0.7-1.2,1.6-1.6,2.6c-0.3,0.7-0.6,1.5-0.8,2.2
			c0,0.2-0.1,0.3-0.1,0.5c0,0.2,0.1,0.1-0.1,0.1c-0.2,0-0.4,0-0.6,0c-0.1,0-0.1,0-0.1,0.1c-0.2,0.6-0.4,1.2-0.5,1.8
			c0,0.1,0.1,0.2,0.1,0.2c0.3,0,0.6,0.1,0.9,0.1c-0.1-0.1-0.1-0.1-0.2-0.2c0,1.4-0.1,2.8-0.1,4.1c0,0.1,0.1,0.1,0.2,0.2
			c0.5,0,0.9,0.1,1.4,0.1c0.1,0,0.1-0.1,0.1-0.1c0.2-1,0.4-1.9,0.6-2.9c0.1-0.4,0.2-0.7,0.2-1.1c0,0.2-0.2,0.1,0.1,0.1
			c0.2,0,0.3,0,0.5,0c0.2,0,0.4,0,0.7,0c0.1,0,0.1,0,0.1-0.1c0.2-0.8,0.4-1.5,0.6-2.3c0-0.1,0-0.2-0.1-0.2c-0.5,0-1,0-1.5,0
			c0,0.1,0.1,0.1,0.1,0.2c0.2-1.2,0.5-2.7,1.4-3.6c0.6-0.7,0.4,1.2,0.3,1.3c-0.1,0.4-0.2,0.8-0.3,1.3c0,0.1,0,0.2,0.1,0.2
			c0.5,0.1,1,0.2,1.5,0.3c0.1,0,0.1,0,0.2-0.1C19,9.8,20.8,5.9,18.2,5.2c-0.2,0-0.3,0.2-0.1,0.3c1.7,0.4,1,2.7,0.6,3.9
			c-0.1,0.3-0.3,0.7-0.4,1c-0.1,0.2-0.1,0.3-0.2,0.4C18,10.9,18,11,18,11c0.1,0,0.1,0,0.1,0c-0.5-0.1-1-0.2-1.4-0.3
			c0,0.1,0.1,0.1,0.1,0.2c0.1-0.5,1-2.9,0.1-3.1c-0.7-0.2-1.1,0.8-1.3,1.3c-0.4,0.8-0.6,1.8-0.8,2.6c0,0.1,0,0.2,0.1,0.2
			c0.5,0,1,0,1.5,0c0-0.1-0.1-0.1-0.1-0.2c-0.2,0.7-0.4,1.3-0.6,2c0,0.1-0.1,0.2-0.1,0.3c0.2-0.1,0.2-0.1,0.1-0.1
			c-0.1,0-0.2,0-0.3,0c-0.3,0-0.7,0-1-0.1c-0.1,0-0.1,0-0.1,0.1c-0.2,1-0.4,1.9-0.6,2.9c-0.1,0.4-0.2,0.7-0.2,1.1
			c0-0.2,0.2-0.1-0.1-0.1c-0.2,0-0.3,0-0.5,0c-0.2,0-0.5,0-0.7-0.1c0.1,0.1,0.1,0.1,0.2,0.2c0-1.4,0.1-2.8,0.1-4.1
			c0-0.1-0.1-0.1-0.2-0.2c-0.3,0-0.6-0.1-0.9-0.1c0,0.1,0.1,0.1,0.1,0.2c0.1-0.5,0.3-0.9,0.4-1.4c0-0.1,0.1-0.2,0.1-0.3
			c0.1-0.2,0.1-0.1-0.1-0.1c0.3,0,0.5,0,0.8,0c0.1,0,0.1,0,0.1-0.1c0.6-2.3,1.9-7,5.2-6.3C18.3,5.5,18.4,5.3,18.2,5.2z"/>
	</g>
</g>
<g>
	<polygon fill="#FFDD00" points="47.2,13.2 48.5,12.5 49.3,14.9 49.9,12.5 51.4,13.1 50,17 49.2,17 	"/>
	<path fill="#BE1E2D" d="M47.3,13.3c0.4-0.2,0.9-0.5,1.3-0.7c-0.1,0-0.1-0.1-0.2-0.1c0.3,0.8,0.5,1.6,0.8,2.4c0,0.1,0.2,0.1,0.3,0
		c0.2-0.8,0.4-1.6,0.6-2.4c-0.1,0-0.1,0.1-0.2,0.1c0.5,0.2,1,0.4,1.5,0.6c0-0.1-0.1-0.1-0.1-0.2c-0.2,0.7-0.5,1.4-0.7,2.1
		c-0.2,0.5-0.3,0.9-0.5,1.4c0,0.1-0.1,0.2-0.1,0.3c0,0.1,0-0.1,0.1-0.1c-0.1,0-0.3,0-0.4,0c-0.1,0-0.2,0-0.3,0c-0.2,0,0,0.1,0,0
		c-0.1-0.1-0.1-0.2-0.2-0.3c-0.2-0.4-0.5-0.9-0.7-1.3c-0.4-0.7-0.7-1.4-1.1-2.1c-0.1-0.2-0.3,0-0.2,0.1c0.7,1.3,1.3,2.5,2,3.8
		c0,0,0.1,0.1,0.1,0.1c0.3,0,0.6,0,0.8,0c0.1,0,0.1,0,0.1-0.1c0.4-1.3,0.9-2.6,1.3-3.9c0-0.1,0-0.1-0.1-0.2c-0.5-0.2-1-0.4-1.5-0.6
		c-0.1,0-0.2,0-0.2,0.1c-0.2,0.8-0.4,1.6-0.6,2.4c0.1,0,0.2,0,0.3,0c-0.3-0.8-0.5-1.6-0.8-2.4c0-0.1-0.1-0.1-0.2-0.1
		c-0.4,0.2-0.9,0.5-1.3,0.7C47,13.2,47.2,13.4,47.3,13.3z"/>
</g>
<g>
	<path fill="#FFDD00" d="M44.3,16.6c-0.1,0.2-0.3,0.3-0.7,0.4c-0.3,0.1-0.6,0.1-0.9,0c-0.3-0.1-0.5-0.2-0.5-0.4
		c-0.1-0.2,0-0.3,0.1-0.5c0.1-0.2,0.3-0.3,0.6-0.4c0.2-0.1,0.3-0.1,0.5-0.1c0.2,0,0.3,0,0.4,0c0.1,0,0.3,0.1,0.4,0.1
		c0.1,0.1,0.2,0.2,0.2,0.3C44.4,16.2,44.4,16.4,44.3,16.6z"/>
	<path fill="#BE1E2D" d="M44.2,16.5c-0.3,0.5-1.5,0.6-1.8,0.1c-0.3-0.5,0.4-0.7,0.7-0.8C43.5,15.7,44.5,15.8,44.2,16.5
		c-0.1,0.2,0.2,0.3,0.2,0.1c0.6-1.4-1.8-1.5-2.3-0.5c-0.3,0.5,0.2,0.9,0.6,1c0.5,0.2,1.4,0,1.7-0.5C44.5,16.5,44.3,16.4,44.2,16.5z"
		/>
</g>
<g>
	<polygon fill="#FFDD00" points="44.8,11.6 46.1,11.5 46.3,13.5 47.7,13 47.8,14.6 46.4,14.5 46.6,17.2 45.1,17.3 45.4,14.6 
		43.9,14.7 43.8,13.3 45.2,13.5 	"/>
	<path fill="#BE1E2D" d="M44.8,11.7c0.4,0,0.9-0.1,1.3-0.1c0,0-0.1-0.1-0.1-0.1c0,0.7,0.1,1.3,0.1,2c0,0.1,0.1,0.2,0.2,0.1
		c0.5-0.2,0.9-0.3,1.4-0.5c-0.1,0-0.1-0.1-0.2-0.1c0,0.5,0.1,1,0.1,1.5c0,0,0.1-0.1,0.1-0.1c-0.5,0-1-0.1-1.5-0.1
		c-0.1,0-0.1,0.1-0.1,0.1c0.1,0.9,0.2,1.8,0.3,2.7c0,0,0.1-0.1,0.1-0.1c-0.5,0-1,0.1-1.5,0.1c0,0,0.1,0.1,0.1,0.1
		c0.1-0.9,0.2-1.8,0.2-2.7c0-0.1-0.1-0.1-0.1-0.1c-0.5,0-1,0-1.5,0.1c0,0,0.1,0.1,0.1,0.1c0-0.5,0-0.9-0.1-1.4c0,0-0.1,0.1-0.1,0.1
		c0.5,0.1,0.9,0.1,1.4,0.2c0.1,0,0.2-0.1,0.1-0.2c-0.1-0.6-0.3-1.3-0.4-1.9c0-0.2-0.3-0.1-0.3,0.1c0.1,0.6,0.3,1.3,0.4,1.9
		c0-0.1,0.1-0.1,0.1-0.2c-0.5-0.1-0.9-0.1-1.4-0.2c-0.1,0-0.1,0.1-0.1,0.1c0,0.5,0,0.9,0.1,1.4c0,0.1,0.1,0.1,0.1,0.1
		c0.5,0,1,0,1.5-0.1c0,0-0.1-0.1-0.1-0.1c-0.1,0.9-0.2,1.8-0.2,2.7c0,0.1,0.1,0.1,0.1,0.1c0.5,0,1-0.1,1.5-0.1
		c0.1,0,0.1-0.1,0.1-0.1c-0.1-0.9-0.2-1.8-0.3-2.7c0,0-0.1,0.1-0.1,0.1c0.5,0,1,0.1,1.5,0.1c0.1,0,0.1-0.1,0.1-0.1
		c0-0.5-0.1-1-0.1-1.5c0-0.1-0.1-0.2-0.2-0.1c-0.5,0.2-0.9,0.3-1.4,0.5c0.1,0,0.1,0.1,0.2,0.1c0-0.7-0.1-1.3-0.1-2
		c0-0.1-0.1-0.1-0.1-0.1c-0.4,0-0.9,0.1-1.3,0.1C44.6,11.5,44.6,11.7,44.8,11.7z"/>
</g>
</svg>
