<?xml version="1.0" encoding="utf-8"?>
<!-- Generator: Adobe Illustrator 17.1.0, SVG Export Plug-In . SVG Version: 6.00 Build 0)  -->
<!DOCTYPE svg PUBLIC "-//W3C//DTD SVG 1.1//EN" "http://www.w3.org/Graphics/SVG/1.1/DTD/svg11.dtd">
<svg version="1.1" id="Layer_1" xmlns="http://www.w3.org/2000/svg" xmlns:xlink="http://www.w3.org/1999/xlink" x="0px" y="0px"
	 viewBox="0 0 140 140" enable-background="new 0 0 140 140" xml:space="preserve">
<g>
	<path fill="#4A276E" d="M8.3,96.8c1,2,1.5,4,2.5,6c11.4,21.8,35.2,34.2,66,34.2c6.4,0,12.9-0.5,19.8-1.5c8.9-1.5,16.9-4.5,20.8-7.4
		c7.4-5,8.4-11.4,6.9-16.4c-1.5-5.5-6.4-9.4-12.4-9.4c-2.5,0-6.4,1-10.4,4.5c-3,3-4,3.5-6.9,5.5c-4,2.5-9.9,4-16.4,4
		c-11.4,0-26.3-4-35.2-15.4c-4-5.5-6-11.4-6.4-18.4c0.5,1,1,2,1.5,3c1.5,2.5,3,5.5,4.5,7.4c2,3,3.5,6,7.4,6c0,0,0.5,0,1.5,0
		c2.5,0,8.4,0,14.4,0c1,0,2,0,2.5-0.5c0.5,0.5,1.5,0.5,2.5,0.5c5,0,10.9,0,12.4,0c2.5,0,5.5-1.5,6-7.4c0-1.5,0-3.5,0.5-6l0,0
		c6.4,10.9,6.4,11.4,8.4,12.4c2.5,1.5,8.9,1.5,12.9,1.5c2.5,0,8.9,0.1,11.9-0.4c23.1-23.7,4.5-63.1,4.5-63.1
		C122,25.3,113.5,16.9,103.6,11C92.2,4,77.8,1,61.9,1C57.5,1,53,1.5,48,2c-9.9,1-16.4,2-23.3,6.4c-7.4,4.5-8.9,11.4-7.4,15.9
		c1.5,6,7.4,9.9,13.9,9.9c2.5,0,5.5-0.5,7.9-2c1-0.5,2.5-1.5,3.5-2.5c2.5-1.5,5-3.5,7.9-5c5-2,10.4-3.5,15.4-3.5
		c9.9,0,18.9,4,25.8,11.9c3.5,3.5,6,7.9,7.4,12.4c-2.5-3-4.5-5.5-5.5-6.4c-1-1-2-1.5-3.5-2c-0.5,0-2-0.5-18.4-0.5l0,0
		c-1,0-1.5,0-2,0.5c-0.5-0.5-1.5-0.5-2-0.5c-2,0-4,0-5.5,0c-6,0-6.4,0-6.9,0c-1.5,0.5-4.5,1.5-5,6.4c0,0.5,0,1.5,0,3
		c-5.5-8.4-6.4-8.9-7.9-9.4c-0.5,0-1.5-0.5-2-0.5c0,0-1.5,0-3.5,0c-13.9,0-15.9,1-17.4,2c-1,0.5-1.5,1-2,2c-0.5,1-1,1.5-1.5,2.5
		C16.3,42.7-1,60.2,8.3,96.8z"/>
	<g>
		<path fill="#BE202E" d="M40.6,43.2c0,0-14.9-0.5-17.9,1c-27.8,39.2-2,97.2,73.9,85.8c8.9-1.5,15.9-4.5,18.4-6.4
			c11.4-7.4,1-20.3-8.4-11.9c-3.5,3.5-4.5,4-7.9,6c-21.3,12.9-78.9-0.5-65-51.6c2-0.5,15.9,26.3,17.4,26.3c0.5,0,8.4,0,16.4,0
			c0.5,0,1.5-2.5,2-3.5c0.5,1,1.5,3.5,2,3.5c6.4,0,11.4,0,11.9,0c1.5-0.5,0-28.8,0.5-29.3s16.4,28.3,17.4,28.8
			c1,0.5,11.4,1.5,18.4,0C138.3,66,123.4-0.5,47.5,8c-8.4,1-14.9,2-20.8,5.5c-11.4,6.9-1.5,19.3,8.9,13.9c2.5-1.5,6.9-5,12.4-7.4
			c33.7-14.4,63,14.4,59.5,47.6c-2.5-3-14.4-20.8-17.4-24.3c-1,0-9.9-0.5-18.4-0.5c-0.5,0-1.5,2-2,3c-0.5-1-1.5-3-2-3
			c-6.4,0-11.4,0-11.4,0c-1,0,0,25.8,0,25.8S42.1,43.7,40.6,43.2z"/>
		<path fill="#FFDF00" d="M76.9,133.4c-28.3,0-49.7-12.8-60.2-32.7c-8.9-17.9-6.9-39.7,5.5-57.1l0,0l0,0c1.5-1,6.4-1,13.9-1
			c2.5,0,4.5,0,4.5,0l0,0l0,0c1.5,0.5,9.4,13.9,14.9,23.8c0-2.5,0-6.4,0-9.9c0-13.4-0.4-14.6,0.6-14.6c0,0,0.8-0.5,6.8-0.5
			c1.5,0,4.1,0,5.6,0c1,0,1.1,1,1.6,2c1-2,2.5-2.4,3-2.4c4,0,16.2,0.2,18.2,0.7l0,0l0,0c2.5,2.5,9.1,13,13.6,19.4
			c1,1.5,1.8,2.5,2.3,3.5c1-13.4-3.6-23.9-12-33.3c-7.9-8.9-18.4-13.4-29.8-13.4c-6,0-11.4,1-17.4,3.5c-3.5,1.5-6.4,3.5-8.9,5.5
			c-1,1-2.5,1.5-3,2c-2,1-3.5,1.5-5.5,1.5c-4.5,0-8.8-4-9.8-8c-0.9-3.6,1.4-7,5.3-9.4c6-4,12.9-4.6,22.3-5.6
			c4.5-0.5,9.2-0.9,13.2-0.9c38.2,0,54,21.5,60.5,33.9c8.9,17.4,7.8,40.7-1.6,53.6l0,0H120c-3,1.5-6.3,1.7-8.8,1.7
			c-4.5,0-10.3-0.4-11.3-0.9c-0.5-0.5-1.7-3.4-8.6-15.3c-2.5-5-5-9.7-6.5-12.2c0,1.5,0,2.4,0,4.9c0.5,18.9-0.7,22.6-1.7,22.6l0,0
			c-1,0-4.2,0.1-11.2,0.1c-0.5,0-2.3-1.1-2.8-2.6c-1,2.5-1.1,2.5-1.6,2.5c-6.4,0-12-0.1-14.5-0.1l-1.6-0.1c-1,0-2.9-0.6-8.4-10.5
			c-3-5.5-6.9-12.5-8.4-14.5c-3.5,14.4-1,24.4,6.5,34.4c9.9,12.9,26.8,17.4,39.2,17.4l0,0c7.4,0,14.4-1.5,19.3-4.5
			c3-2,4.5-2.5,7.9-6c2-2,4.5-3,6.9-3c3.5,0,6.4,2.5,7.4,5.5c1,4-0.5,7.9-5,10.4c-3.5,2-10.5,6.9-18.9,7.9
			C90.1,133,83.4,133.4,76.9,133.4z M23.2,44.7c-11.9,16.9-13.9,38.2-5,55.6C28.2,119.6,50,131,77.8,131c6,0,12.4-0.5,18.9-1.5
			c7.9-1,14.9-4,18.4-6.4c3.5-2.5,5.5-5.5,4.5-8.9c-1-2.5-3.5-4.5-6-4.5c-2,0-4,1-6,2.5c-3.5,3.5-5,4-7.9,6c-5,3-11.9,5-19.8,5l0,0
			c-12.9,0-30.3-5-40.7-17.9c-7.9-9.9-9.9-23.8-6-38.7V66h0.5c1.5,0,3.5,3,11.4,16.4c2.5,4,5.5,8.9,6,9.9h1c2.5,0,8.4,0,14.9,0
			c0.5-0.5,1-2,1.5-3l0.5-1.5l0.5,1.5c0.5,1,1,2.5,1.5,3c5,0,9.9,0,11.4,0c0.5-2,0.5-12.9,0.5-19.3c0-8.9,0-8.9,0-9.4V63h0.5
			c0.5,0,1,0,9.4,14.9c3.5,6,7.4,13.4,8.4,13.9c0.5,0.5,4.5,1,8.9,1c2.5,0,6,0,8.9-1c8.9-12.9,9.4-34.7,0.5-51.6
			c-6-11.9-21.8-31.8-59-31.8c-4,0-8.4,0-12.4,0.5c-8.9,1-14.9,2-20.8,5.5c-4,2.5-5.5,5.5-4.5,8.4s4,5.5,7.9,5.5c1.5,0,3-0.5,5-1.5
			c1-0.5,2-1,3-2c2.5-1.5,5.5-4,9.4-5.5c6-2.5,11.9-4,17.9-4c11.9,0,22.8,5,30.8,13.9c8.9,9.9,13.4,24.3,11.9,38.2v2l-1-1.5
			c-0.5-1-2-3-4-5.5c-4.5-6.4-10.9-15.9-13.4-18.9c-1.5,0-8.4-0.5-17.9-0.5c-0.5,0.5-1,1.5-1.5,2.5l-0.5,1.5l-0.5-1.5
			c-0.5-1-1-2.5-1.5-2.5c-2,0-3.5,0-5,0c-3.5,0-5,0-6,0c-0.5,2.5,0,16.4,0,24.8L56,69c-5.5-8.9-14.4-23.8-15.9-25.3
			c-0.5,0-2,0-4.5,0C29.7,43.7,24.7,44.2,23.2,44.7z"/>
	</g>
	<g>
		<path fill="#E96D5D" d="M41.1,12.4c62-14.4,97.7,36.2,78.9,75.4C132.9,45.2,98.1,0.5,41.1,12.4z"/>
	</g>
	<g>
		<path fill="#E96D5D" d="M102.6,125.6C29.2,142.4-1.6,85.4,23.7,48.7C4.4,82.4,28.7,139.9,102.6,125.6z"/>
	</g>
</g>
</svg>
