<?xml version="1.0" encoding="utf-8"?>
<!-- Generator: Adobe Illustrator 17.1.0, SVG Export Plug-In . SVG Version: 6.00 Build 0)  -->
<!DOCTYPE svg PUBLIC "-//W3C//DTD SVG 1.1//EN" "http://www.w3.org/Graphics/SVG/1.1/DTD/svg11.dtd">
<svg version="1.1" id="Layer_1" xmlns="http://www.w3.org/2000/svg" xmlns:xlink="http://www.w3.org/1999/xlink" x="0px" y="0px"
	 viewBox="-71 -1 167 27" enable-background="new -71 -1 167 27" xml:space="preserve">
<g>
	<path fill="#4DB6DB" d="M-53.8,12.6c-0.6-0.6-1.4-1-2.5-1.4c-0.9-0.4-2-0.7-3.3-1.1c-1-0.3-1.9-0.5-2.6-0.7
		c-0.7-0.2-1.2-0.4-1.6-0.6c-0.4-0.3-0.6-0.6-0.8-0.8c-0.1-0.3-0.2-0.6-0.2-1V6.8c0-0.6,0.3-1.1,0.8-1.5c0.5-0.4,1.3-0.6,2.4-0.6
		c1,0,2,0.2,3.1,0.6c1,0.4,2,1,3.2,1.7l2.8-4c-1.2-1-2.6-1.7-4.1-2.3C-58.2,0.3-59.8,0-61.6,0C-62.8,0-64,0.2-65,0.5
		c-1.1,0.4-1.9,0.9-2.7,1.5c-0.8,0.7-1.3,1.4-1.7,2.4s-0.6,1.8-0.6,3v0.1c0,1.2,0.2,2.3,0.6,3c0.4,0.8,0.9,1.4,1.6,2
		c0.7,0.5,1.5,1,2.6,1.3c1,0.3,2.1,0.7,3.3,1c1,0.2,1.8,0.5,2.5,0.7c0.6,0.2,1.1,0.4,1.5,0.7c0.3,0.2,0.6,0.5,0.7,0.7
		c0.1,0.3,0.2,0.6,0.2,0.9V18c0,0.7-0.3,1.2-0.9,1.6c-0.6,0.4-1.4,0.6-2.6,0.6c-1.3,0-2.7-0.3-3.8-0.8c-1.1-0.5-2.3-1.2-3.4-2.1
		l-3.2,3.8c1.4,1.3,3.1,2.3,4.8,2.9s3.6,0.9,5.4,0.9c1.3,0,2.5-0.2,3.6-0.5s2-0.8,2.8-1.4c0.8-0.6,1.4-1.4,1.8-2.4
		c0.4-0.9,0.6-2,0.6-3.2v-0.1c0-1-0.2-1.9-0.5-2.8C-52.7,13.9-53.2,13.2-53.8,12.6z"/>
	<polygon fill="#4DB6DB" points="-25.4,16.7 -30.8,0.3 -35.4,0.3 -40.8,16.7 -45.7,0.4 -51.5,0.4 -43.2,24.7 -38.6,24.7 -33.1,8.9 
		-27.7,24.7 -23,24.7 -14.8,0.4 -20.4,0.4 	"/>
	<rect x="-12.3" y="0.4" fill="#4DB6DB" width="5.3" height="24.2"/>
	<polygon fill="#4DB6DB" points="-4.4,5.3 3,5.3 3,24.5 8.3,24.5 8.3,5.3 15.7,5.3 15.7,0.4 -4.4,0.4 	"/>
	<path fill="#4DB6DB" d="M31.9,19.3c-0.9,0.5-2.1,0.8-3.5,0.8c-1,0-1.9-0.2-2.9-0.6c-0.8-0.4-1.6-0.9-2.3-1.6
		c-0.6-0.7-1.1-1.5-1.4-2.5c-0.3-0.9-0.5-1.9-0.5-3v-0.1c0-1,0.2-2,0.5-3c0.3-0.9,0.8-1.7,1.4-2.4c0.6-0.7,1.3-1.2,2.3-1.6
		c0.8-0.4,1.8-0.6,2.9-0.6c1.2,0,2.4,0.2,3.3,0.7c1,0.5,1.9,1.1,2.9,2L38,3.6c-0.5-0.5-1.1-1-1.8-1.5C35.5,1.7,34.8,1.3,34,1
		c-0.7-0.3-1.6-0.6-2.6-0.7C30.5,0.1,29.5,0,28.4,0c-1.8,0-3.6,0.3-5.1,1c-1.5,0.6-2.9,1.5-4,2.7c-0.9,1.1-1.8,2.5-2.5,4
		c-0.6,1.5-0.9,3.2-0.9,4.8v0.1c0,1.7,0.3,3.4,0.9,4.9c0.6,1.5,1.5,2.9,2.6,4c1.1,1.1,2.5,1.9,3.9,2.7c1.5,0.6,3.2,0.9,4.9,0.9
		c1.1,0,2.3-0.1,3.2-0.3c0.9-0.2,1.8-0.5,2.6-0.8c0.8-0.4,1.5-0.8,2.1-1.3c0.7-0.5,1.3-1.1,1.9-1.8l-3.4-3.4
		C33.9,18.1,32.9,18.8,31.9,19.3z"/>
	<path fill="#4DB6DB" d="M64.5,0.4L64.5,0.4h-9v9.5h-9.8V0.4h-5.3v24.2h5.3v-9.7h9.8v9.7h8.9l0,0h8.8c4.3-0.1,7.9-0.6,11.6-3.5
		c4.8-3.7,6.1-12.8,2.4-15.8c0,0,5.3,4.3,8.8,9.9V0.4H64.5z M68.6,22.7c-0.8-0.7-0.5-1.7-0.2-2.6c2.9-8.2,10.8-14.6,10.8-14.6
		c-5.2,4.8-0.5,12.9,4.3,14.9C80.4,23.4,71.1,24.8,68.6,22.7z M87.4,13.4c-1.2-1.1-5.1-2.6-8.6,0c-2.1-7.4,4.3-10,4.3-10
		C89.2,6.5,88,11.8,87.4,13.4z"/>
</g>
</svg>
