<?xml version="1.0" encoding="utf-8"?>
<!-- Generator: Adobe Illustrator 17.1.0, SVG Export Plug-In . SVG Version: 6.00 Build 0)  -->
<!DOCTYPE svg PUBLIC "-//W3C//DTD SVG 1.1//EN" "http://www.w3.org/Graphics/SVG/1.1/DTD/svg11.dtd">
<svg version="1.1" id="Layer_1" xmlns="http://www.w3.org/2000/svg" xmlns:xlink="http://www.w3.org/1999/xlink" x="0px" y="0px"
	 viewBox="0 0 60 60" enable-background="new 0 0 60 60" xml:space="preserve">
<g>
	<path fill="#FFDD30" d="M35.3,44.2l4.6,4.6L38,50.7l-5.4-5.4v-7.8h-1.1V54h-2.7V37.5h-1.1v7.8l-5.4,5.4l-1.9-1.9l4.6-4.6v-6.7H3.6
		c3.3,11.5,13.9,20,26.5,20c12.6,0,23.2-8.5,26.5-20H35.3V44.2z"/>
	<path fill="#FFDD30" d="M22.4,34.6c2.8,0,3.6-1.6,3.6-3.8V15.6c0-2.2-0.8-3.8-3.6-3.8c-2.8,0-3.6,1.6-3.6,3.8v15.2
		C18.8,33,19.6,34.6,22.4,34.6z M20.8,15.7c0-1.2,0.3-2.1,1.6-2.1c1.3,0,1.6,0.9,1.6,2.1v15.1c0,1.2-0.2,2.1-1.6,2.1
		c-1.3,0-1.6-0.9-1.6-2.1V15.7z"/>
	<path fill="#FFDD30" d="M31.5,34.6c2.8,0,3.6-1.6,3.6-3.8V15.6c0-2.2-0.8-3.8-3.6-3.8c-2.8,0-3.6,1.6-3.6,3.8v15.2
		C27.9,33,28.7,34.6,31.5,34.6z M29.9,15.7c0-1.2,0.2-2.1,1.6-2.1c1.3,0,1.6,0.9,1.6,2.1v15.1c0,1.2-0.2,2.1-1.6,2.1
		c-1.3,0-1.6-0.9-1.6-2.1V15.7z"/>
	<path fill="#FFDD30" d="M47.3,34.6c2.1,0,3.3-1.2,3.3-3.3v-3.5c0-0.1,0-0.2,0-0.3c0-0.9-0.3-1.8-0.7-2.5l-3.3-5.6
		c-0.3-0.6-0.5-1.3-0.5-2v-2.4c0-0.9,0.2-1.5,1.2-1.5c1,0,1.2,0.7,1.2,1.5v2.7h2.1v-2.9c0-2.1-0.9-3.1-3.2-3.1
		c-2.1,0-3.2,1.1-3.2,3.3v2.7c0,1.2,0.3,1.9,0.9,2.9l3,5.3c0.3,0.6,0.5,1.1,0.6,1.6c0,0.2,0,0.4,0,0.5v3.1c0,1.1-0.4,1.7-1.2,1.7
		c-0.9,0-1.3-0.6-1.3-1.7v-3h-2.1v3.1C43.9,33.6,45,34.6,47.3,34.6z"/>
	<polygon fill="#FFDD30" points="38.5,34.4 40.5,34.4 40.5,13.7 42.8,13.7 42.8,12 36.2,12 36.2,13.7 38.5,13.7 	"/>
	<path fill="#FFDD30" d="M11.7,23.7h1.4c1,0,1.6,0.3,1.6,1.4v9.4h2.1v-9.6c0-1.6-0.9-2-2.3-2.1v-0.1c1.6-0.1,2.2-0.7,2.2-2.4v-5.7
		c0-2.2-1.2-2.6-3.2-2.6H9.6v22.4h2.1V23.7z M11.7,13.7h1.2c1.1,0,1.7,0.2,1.7,1.5v5c0,1.3-0.6,1.6-1.5,1.6h-1.4V13.7z"/>
</g>
<g>
	<path fill="#687079" d="M14.6,20.3v-5c0-1.3-0.7-1.5-1.7-1.5h-1.2v8.2h1.4C14,21.9,14.6,21.6,14.6,20.3z"/>
	<path fill="#687079" d="M31.5,32.9c1.3,0,1.6-0.9,1.6-2.1V15.7c0-1.2-0.2-2.1-1.6-2.1c-1.3,0-1.6,0.9-1.6,2.1v15.1
		C29.9,32,30.2,32.9,31.5,32.9z"/>
	<path fill="#687079" d="M22.4,32.9c1.3,0,1.6-0.9,1.6-2.1V15.7c0-1.2-0.2-2.1-1.6-2.1c-1.3,0-1.6,0.9-1.6,2.1v15.1
		C20.8,32,21.1,32.9,22.4,32.9z"/>
	<path fill="#687079" d="M30.1,0c-16.5,0-30,13.5-30,30c0,16.5,13.5,30,30,30c16.5,0,30-13.4,30-30C60.1,13.4,46.6,0,30.1,0z
		 M43.9,28.3H46v3c0,1.1,0.4,1.7,1.3,1.7c0.8,0,1.2-0.6,1.2-1.7v-3.1c0-0.2,0-0.4,0-0.5c-0.1-0.5-0.2-1-0.6-1.6l-3-5.3
		c-0.6-1-0.9-1.7-0.9-2.9v-2.7c0-2.2,1.2-3.3,3.2-3.3c2.3,0,3.2,1.1,3.2,3.1v2.9h-2.1v-2.7c0-0.9-0.2-1.5-1.2-1.5
		c-1,0-1.2,0.7-1.2,1.5v2.4c0,0.7,0.1,1.4,0.5,2l3.3,5.6c0.4,0.7,0.7,1.6,0.7,2.5c0,0.1,0,0.2,0,0.3v3.5c0,2.1-1.2,3.3-3.3,3.3
		c-2.3,0-3.4-1-3.4-3.3V28.3z M36.2,12h6.7v1.7h-2.3v20.7h-2.1V13.7h-2.3V12z M27.9,15.6c0-2.2,0.8-3.8,3.6-3.8
		c2.8,0,3.6,1.6,3.6,3.8v15.2c0,2.2-0.8,3.8-3.6,3.8c-2.8,0-3.6-1.6-3.6-3.8V15.6z M18.8,15.6c0-2.2,0.8-3.8,3.6-3.8
		c2.8,0,3.6,1.6,3.6,3.8v15.2c0,2.2-0.8,3.8-3.6,3.8c-2.8,0-3.6-1.6-3.6-3.8V15.6z M9.6,30v-2.5V12h3.8c2,0,3.2,0.3,3.2,2.6v5.7
		c0,1.7-0.7,2.3-2.2,2.4v0.1c1.5,0.1,2.3,0.5,2.3,2.1v2.7V30v4.5h-2.1V25c0-1.1-0.7-1.4-1.6-1.4h-1.4v3.9V30v4.5H9.6V30z M30.1,57.5
		c-12.6,0-23.2-8.5-26.5-20h21.3v6.7l-4.6,4.6l1.9,1.9l5.4-5.4v-7.8h1.1V54h2.7V37.5h1.1v7.8l5.4,5.4l1.9-1.9l-4.6-4.6v-6.7h21.3
		C53.3,49,42.7,57.5,30.1,57.5z"/>
</g>
</svg>
