<?xml version="1.0" encoding="utf-8"?>
<!-- Generator: Adobe Illustrator 17.1.0, SVG Export Plug-In . SVG Version: 6.00 Build 0)  -->
<!DOCTYPE svg PUBLIC "-//W3C//DTD SVG 1.1//EN" "http://www.w3.org/Graphics/SVG/1.1/DTD/svg11.dtd">
<svg version="1.1" id="Layer_1" xmlns="http://www.w3.org/2000/svg" xmlns:xlink="http://www.w3.org/1999/xlink" x="0px" y="0px"
	 viewBox="0 0 167 27.2" enable-background="new 0 0 167 27.2" xml:space="preserve">
<g>
	<path fill="#0083C1" d="M19,13.7c-0.6-0.6-1.4-1-2.4-1.4c-0.9-0.4-2-0.7-3.2-1.1c-1-0.3-1.9-0.5-2.5-0.7c-0.7-0.2-1.2-0.4-1.6-0.6
		C8.9,9.6,8.7,9.3,8.5,9.1c-0.1-0.3-0.2-0.6-0.2-1V8c0-0.6,0.3-1.1,0.8-1.5c0.5-0.4,1.3-0.6,2.3-0.6c1,0,2,0.2,3,0.6
		c1,0.4,2,1,3.1,1.7l2.7-3.9c-1.2-1-2.5-1.7-4-2.2c-1.5-0.5-3-0.8-4.8-0.8c-1.2,0-2.3,0.2-3.3,0.5C7,2.2,6.2,2.7,5.5,3.3
		C4.7,4,4.2,4.7,3.8,5.6C3.4,6.5,3.2,7.4,3.2,8.5v0.1c0,1.2,0.2,2.2,0.6,2.9c0.4,0.8,0.9,1.4,1.6,2c0.7,0.5,1.5,1,2.5,1.3
		c1,0.3,2.1,0.7,3.2,1c1,0.2,1.8,0.5,2.4,0.7c0.6,0.2,1.1,0.4,1.5,0.7c0.3,0.2,0.6,0.5,0.7,0.7c0.1,0.3,0.2,0.6,0.2,0.9v0.1
		c0,0.7-0.3,1.2-0.9,1.6c-0.6,0.4-1.4,0.6-2.5,0.6c-1.3,0-2.6-0.3-3.7-0.8c-1.1-0.5-2.2-1.2-3.3-2.1l-3.1,3.7c1.4,1.3,3,2.2,4.7,2.8
		c1.7,0.6,3.5,0.9,5.3,0.9c1.3,0,2.4-0.2,3.5-0.5c1.1-0.3,2-0.8,2.7-1.4c0.8-0.6,1.4-1.4,1.8-2.3c0.4-0.9,0.6-2,0.6-3.1v-0.1
		c0-1-0.2-1.9-0.5-2.7C20.1,14.9,19.6,14.2,19,13.7z"/>
	<polygon fill="#0083C1" points="46.8,17.7 41.5,1.6 37,1.6 31.7,17.7 26.9,1.7 21.3,1.7 29.4,25.5 33.9,25.5 39.2,10 44.5,25.5 
		49.1,25.5 57.1,1.7 51.7,1.7 	"/>
	<rect x="59.6" y="1.7" fill="#0083C1" width="5.2" height="23.6"/>
	<polygon fill="#0083C1" points="67.3,6.5 74.5,6.5 74.5,25.3 79.7,25.3 79.7,6.5 86.9,6.5 86.9,1.7 67.3,1.7 	"/>
	<path fill="#0083C1" d="M102.8,20.2c-0.9,0.5-2.1,0.8-3.4,0.8c-1,0-1.9-0.2-2.8-0.6c-0.8-0.4-1.6-0.9-2.2-1.6
		c-0.6-0.7-1.1-1.5-1.4-2.4c-0.3-0.9-0.5-1.9-0.5-2.9v-0.1c0-1,0.2-2,0.5-2.9c0.3-0.9,0.8-1.7,1.4-2.3c0.6-0.7,1.3-1.2,2.2-1.6
		c0.8-0.4,1.8-0.6,2.8-0.6c1.2,0,2.3,0.2,3.2,0.7c1,0.5,1.9,1.1,2.8,2l3.3-3.8c-0.5-0.5-1.1-1-1.8-1.5c-0.6-0.4-1.3-0.8-2.1-1.1
		c-0.7-0.3-1.6-0.6-2.5-0.7c-0.9-0.2-1.9-0.3-3-0.3c-1.8,0-3.5,0.3-5,1c-1.5,0.6-2.8,1.5-3.9,2.6C89.5,6,88.6,7.3,88,8.8
		c-0.6,1.5-0.9,3.1-0.9,4.7v0.1c0,1.7,0.3,3.3,0.9,4.8c0.6,1.5,1.5,2.8,2.5,3.9c1.1,1.1,2.4,1.9,3.8,2.6c1.5,0.6,3.1,0.9,4.8,0.9
		c1.1,0,2.2-0.1,3.1-0.3c0.9-0.2,1.8-0.5,2.5-0.8c0.8-0.4,1.5-0.8,2.1-1.3c0.7-0.5,1.3-1.1,1.9-1.8l-3.3-3.3
		C104.7,19,103.7,19.7,102.8,20.2z"/>
	<path fill="#0083C1" d="M134.6,1.7L134.6,1.7l-8.8,0v9.3h-9.6V1.7H111v23.6h5.2v-9.5h9.6v9.5l8.7,0v0h8.6c4.2-0.1,7.7-0.6,11.3-3.4
		c4.7-3.6,6-12.5,2.3-15.4c0,0,5.2,4.2,8.6,9.7V1.7H134.6z M138.6,23.5c-0.8-0.7-0.5-1.7-0.2-2.5C141.2,13,149,6.7,149,6.7
		c-5.1,4.7-0.5,12.6,4.2,14.6C150.1,24.2,141.1,25.6,138.6,23.5z M157,14.4c-1.2-1.1-5-2.5-8.4,0c-2.1-7.2,4.2-9.8,4.2-9.8
		C158.7,7.7,157.6,12.9,157,14.4z"/>
</g>
</svg>
