<?xml version="1.0" encoding="utf-8"?>
<!-- Generator: Adobe Illustrator 17.1.0, SVG Export Plug-In . SVG Version: 6.00 Build 0)  -->
<!DOCTYPE svg PUBLIC "-//W3C//DTD SVG 1.1//EN" "http://www.w3.org/Graphics/SVG/1.1/DTD/svg11.dtd">
<svg version="1.1" id="Layer_1" xmlns="http://www.w3.org/2000/svg" xmlns:xlink="http://www.w3.org/1999/xlink" x="0px" y="0px"
	 viewBox="-71 -1 167 27" enable-background="new -71 -1 167 27" xml:space="preserve">
<g>
	<path fill="#FFFFFF" d="M-59.8,25.8c-2,0-3.9-0.3-5.9-1c-1.9-0.7-3.7-1.7-5.3-3.1l3.5-4c1.2,1,2.5,1.8,3.7,2.4
		c1.2,0.6,2.7,0.9,4.1,0.9c1.2,0,2.1-0.2,2.8-0.7c0.7-0.4,1-1,1-1.8v-0.1c0-0.3-0.1-0.7-0.2-1c-0.1-0.3-0.4-0.6-0.8-0.8
		c-0.3-0.2-0.9-0.4-1.6-0.8c-0.7-0.2-1.6-0.6-2.7-0.8c-1.3-0.3-2.6-0.7-3.6-1.1c-1.1-0.3-2-0.9-2.8-1.5s-1.3-1.3-1.8-2.2
		c-0.4-0.9-0.7-2-0.7-3.4V6.7c0-1.2,0.2-2.2,0.7-3.2c0.4-1,1.1-1.8,1.9-2.5s1.8-1.2,2.9-1.6s2.4-0.6,3.7-0.6c1.9,0,3.7,0.3,5.3,0.9
		c1.6,0.6,3.1,1.3,4.5,2.5l-3,4.4c-1.2-0.8-2.4-1.5-3.5-1.9C-58.7,4.2-59.8,4-60.9,4c-1.1,0-1.9,0.1-2.5,0.6
		c-0.6,0.4-0.9,0.9-0.9,1.6v0.1c0,0.4,0.1,0.8,0.2,1.1s0.4,0.6,0.9,0.9c0.4,0.2,1,0.4,1.8,0.7c0.8,0.2,1.7,0.4,2.8,0.8
		c1.3,0.3,2.5,0.8,3.6,1.2c1,0.4,1.9,1,2.7,1.6c0.7,0.6,1.2,1.3,1.6,2.1c0.3,0.8,0.6,1.8,0.6,3v0.1c0,1.3-0.2,2.5-0.7,3.5
		s-1.1,1.9-2,2.6s-1.9,1.2-3,1.6C-57.1,25.6-58.5,25.8-59.8,25.8z"/>
	<path fill="#FFFFFF" d="M-48.9-0.8h6.2l5.5,17.8l5.9-17.9h4.9l5.9,17.9L-15-0.8h6l-9,26.4h-5l-5.9-17.2l-6,17.2h-5L-48.9-0.8z"/>
	<path fill="#FFFFFF" d="M-5.5-0.8h19.8v5.1H0.2v5.4h12.4v5.1H0.2v5.5h14.2v5.1H-5.5V-0.8z"/>
	<path fill="#FFFFFF" d="M18.9-0.8h12c3.4,0,5.9,0.9,7.6,2.7c1.5,1.5,2.2,3.5,2.2,6V8c0,2.1-0.6,3.8-1.6,5.1s-2.4,2.4-4,2.9l6.4,9.4
		h-6.7l-5.6-8.4h-0.1h-4.5v8.4h-5.8V-0.8H18.9z M30.5,11.9c1.5,0,2.6-0.3,3.2-1c0.8-0.7,1.1-1.6,1.1-2.7V8.1c0-1.2-0.4-2.2-1.2-2.8
		c-0.8-0.7-1.9-0.9-3.4-0.9h-5.7V12h5.9V11.9z"/>
	<path fill="#FFFFFF" d="M42.3-0.8h6.4l6.8,18.5l6.9-18.5h6.3L57.9,25.6h-5.1L42.3-0.8z"/>
	<path fill="#FFFFFF" d="M71.9-0.8h19.8v5.1H77.6v5.4h12.4v5.1H77.6v5.5h14.2v5.1H71.9C71.9,25.5,71.9-0.8,71.9-0.8z"/>
</g>
</svg>
