<?xml version="1.0" encoding="utf-8"?>
<!-- Generator: Adobe Illustrator 17.1.0, SVG Export Plug-In . SVG Version: 6.00 Build 0)  -->
<!DOCTYPE svg PUBLIC "-//W3C//DTD SVG 1.1//EN" "http://www.w3.org/Graphics/SVG/1.1/DTD/svg11.dtd">
<svg version="1.1" id="Logo" xmlns="http://www.w3.org/2000/svg" xmlns:xlink="http://www.w3.org/1999/xlink" x="0px" y="0px"
	 viewBox="0 0 52.6 25.1" enable-background="new 0 0 52.6 25.1" xml:space="preserve">
<g>
	<path fill="#E6E6E6" d="M14.8,18.4l1.9,1.9l-0.8,0.8l-2.2-2.2v-3.2h-0.5v6.8h-1.1v-6.8h-0.5v3.2l-2.2,2.2l-0.8-0.8l1.9-1.9v-2.7
		H1.8c1.3,4.7,5.7,8.2,10.8,8.2c5.1,0,9.5-3.5,10.8-8.2h-8.7V18.4z"/>
	<path fill="#E6E6E6" d="M9.5,14.5c1.1,0,1.5-0.6,1.5-1.6V6.7c0-0.9-0.3-1.6-1.5-1.6C8.4,5.2,8,5.8,8,6.7V13
		C8,13.9,8.4,14.5,9.5,14.5z M8.9,6.7c0-0.5,0.1-0.9,0.6-0.9c0.5,0,0.6,0.4,0.6,0.9v6.2c0,0.5-0.1,0.9-0.6,0.9
		c-0.5,0-0.6-0.4-0.6-0.9V6.7z"/>
	<path fill="#E6E6E6" d="M13.3,14.5c1.1,0,1.5-0.6,1.5-1.6V6.7c0-0.9-0.3-1.6-1.5-1.6c-1.1,0-1.5,0.6-1.5,1.6V13
		C11.8,13.9,12.1,14.5,13.3,14.5z M12.6,6.7c0-0.5,0.1-0.9,0.6-0.9c0.5,0,0.6,0.4,0.6,0.9v6.2c0,0.5-0.1,0.9-0.6,0.9
		c-0.5,0-0.6-0.4-0.6-0.9V6.7z"/>
	<path fill="#E6E6E6" d="M19.7,14.5c0.8,0,1.4-0.5,1.4-1.4v-1.5c0,0,0-0.1,0-0.1c0-0.4-0.1-0.7-0.3-1l-1.3-2.3
		c-0.1-0.2-0.2-0.5-0.2-0.8v-1c0-0.4,0.1-0.6,0.5-0.6c0.4,0,0.5,0.3,0.5,0.6v1.1H21V6.4c0-0.8-0.4-1.3-1.3-1.3
		c-0.9,0-1.3,0.4-1.3,1.4v1.1c0,0.5,0.1,0.8,0.4,1.2l1.2,2.2c0.1,0.2,0.2,0.4,0.2,0.7c0,0.1,0,0.1,0,0.2v1.3c0,0.4-0.2,0.7-0.5,0.7
		c-0.4,0-0.5-0.3-0.5-0.7v-1.2h-0.8v1.3C18.3,14.1,18.8,14.5,19.7,14.5z"/>
	<polygon fill="#E6E6E6" points="16.1,14.4 16.9,14.4 16.9,5.9 17.9,5.9 17.9,5.2 15.2,5.2 15.2,5.9 16.1,5.9 	"/>
	<path fill="#E6E6E6" d="M5.1,10h0.6c0.4,0,0.7,0.1,0.7,0.6v3.9h0.8v-3.9c0-0.6-0.4-0.8-1-0.9v0c0.6,0,0.9-0.3,0.9-1V6.3
		c0-0.9-0.5-1.1-1.3-1.1H4.3v9.2h0.8V10z M5.1,5.9h0.5C6,5.9,6.3,6,6.3,6.6v2.1c0,0.5-0.2,0.7-0.6,0.7H5.1V5.9z"/>
</g>
<g>
	<path fill="#333333" d="M6.3,8.6V6.6C6.3,6,6,5.9,5.6,5.9H5.1v3.4h0.6C6.1,9.3,6.3,9.2,6.3,8.6z"/>
	<path fill="#333333" d="M13.3,13.8c0.5,0,0.6-0.4,0.6-0.9V6.7c0-0.5-0.1-0.9-0.6-0.9c-0.5,0-0.6,0.4-0.6,0.9v6.2
		C12.6,13.4,12.7,13.8,13.3,13.8z"/>
	<path fill="#333333" d="M9.5,13.8c0.5,0,0.6-0.4,0.6-0.9V6.7c0-0.5-0.1-0.9-0.6-0.9C9,5.9,8.9,6.2,8.9,6.7v6.2
		C8.9,13.4,9,13.8,9.5,13.8z"/>
	<path fill="#333333" d="M12.7,0.3C5.9,0.3,0.4,5.8,0.4,12.6c0,6.8,5.5,12.3,12.3,12.3c6.8,0,12.3-5.5,12.3-12.3
		C25,5.8,19.5,0.3,12.7,0.3z M18.3,11.9h0.8v1.2c0,0.4,0.2,0.7,0.5,0.7c0.3,0,0.5-0.3,0.5-0.7v-1.3c0-0.1,0-0.2,0-0.2
		c0-0.2-0.1-0.4-0.2-0.7l-1.2-2.2c-0.2-0.4-0.4-0.7-0.4-1.2V6.5c0-0.9,0.5-1.4,1.3-1.4c0.9,0,1.3,0.4,1.3,1.3v1.2h-0.8V6.5
		c0-0.4-0.1-0.6-0.5-0.6c-0.4,0-0.5,0.3-0.5,0.6v1c0,0.3,0.1,0.6,0.2,0.8l1.3,2.3c0.2,0.3,0.3,0.6,0.3,1c0,0,0,0.1,0,0.1v1.5
		c0,0.9-0.5,1.4-1.4,1.4c-0.9,0-1.4-0.4-1.4-1.4V11.9z M15.2,5.2h2.7v0.7h-0.9v8.5h-0.8V5.9h-0.9V5.2z M11.8,6.7
		c0-0.9,0.3-1.6,1.5-1.6c1.1,0,1.5,0.6,1.5,1.6V13c0,0.9-0.3,1.6-1.5,1.6c-1.1,0-1.5-0.6-1.5-1.6V6.7z M8,6.7c0-0.9,0.3-1.6,1.5-1.6
		c1.1,0,1.5,0.6,1.5,1.6V13c0,0.9-0.3,1.6-1.5,1.6C8.4,14.5,8,13.9,8,13V6.7z M4.3,12.6v-1V5.2h1.6c0.8,0,1.3,0.1,1.3,1.1v2.3
		c0,0.7-0.3,1-0.9,1v0c0.6,0,1,0.2,1,0.9v1.1v1v1.8H6.4v-3.9c0-0.4-0.3-0.6-0.7-0.6H5.1v1.6v1v1.8H4.3V12.6z M12.7,23.9
		c-5.1,0-9.5-3.5-10.8-8.2h8.7v2.7l-1.9,1.9l0.8,0.8l2.2-2.2v-3.2h0.5v6.8h1.1v-6.8h0.5v3.2l2.2,2.2l0.8-0.8l-1.9-1.9v-2.7h8.7
		C22.2,20.4,17.8,23.9,12.7,23.9z"/>
</g>
<g>
	<g>
		<path fill="#E6E6E6" d="M14.8,18.4l1.9,1.9l-0.8,0.8l-2.2-2.2v-3.2h-0.5v6.8h-1.1v-6.8h-0.5v3.2l-2.2,2.2l-0.8-0.8l1.9-1.9v-2.7
			H1.8c1.3,4.7,5.7,8.2,10.8,8.2c5.1,0,9.5-3.5,10.8-8.2h-8.7V18.4z"/>
		<path fill="#E6E6E6" d="M9.5,14.5c1.1,0,1.5-0.6,1.5-1.6V6.7c0-0.9-0.3-1.6-1.5-1.6C8.4,5.2,8,5.8,8,6.7V13
			C8,13.9,8.4,14.5,9.5,14.5z M8.9,6.7c0-0.5,0.1-0.9,0.6-0.9c0.5,0,0.6,0.4,0.6,0.9v6.2c0,0.5-0.1,0.9-0.6,0.9
			c-0.5,0-0.6-0.4-0.6-0.9V6.7z"/>
		<path fill="#E6E6E6" d="M13.3,14.5c1.1,0,1.5-0.6,1.5-1.6V6.7c0-0.9-0.3-1.6-1.5-1.6c-1.1,0-1.5,0.6-1.5,1.6V13
			C11.8,13.9,12.1,14.5,13.3,14.5z M12.6,6.7c0-0.5,0.1-0.9,0.6-0.9c0.5,0,0.6,0.4,0.6,0.9v6.2c0,0.5-0.1,0.9-0.6,0.9
			c-0.5,0-0.6-0.4-0.6-0.9V6.7z"/>
		<path fill="#E6E6E6" d="M19.7,14.5c0.8,0,1.4-0.5,1.4-1.4v-1.5c0,0,0-0.1,0-0.1c0-0.4-0.1-0.7-0.3-1l-1.3-2.3
			c-0.1-0.2-0.2-0.5-0.2-0.8v-1c0-0.4,0.1-0.6,0.5-0.6c0.4,0,0.5,0.3,0.5,0.6v1.1H21V6.4c0-0.8-0.4-1.3-1.3-1.3
			c-0.9,0-1.3,0.4-1.3,1.4v1.1c0,0.5,0.1,0.8,0.4,1.2l1.2,2.2c0.1,0.2,0.2,0.4,0.2,0.7c0,0.1,0,0.1,0,0.2v1.3c0,0.4-0.2,0.7-0.5,0.7
			c-0.4,0-0.5-0.3-0.5-0.7v-1.2h-0.8v1.3C18.3,14.1,18.8,14.5,19.7,14.5z"/>
		<polygon fill="#E6E6E6" points="16.1,14.4 16.9,14.4 16.9,5.9 17.9,5.9 17.9,5.2 15.2,5.2 15.2,5.9 16.1,5.9 		"/>
		<path fill="#E6E6E6" d="M5.1,10h0.6c0.4,0,0.7,0.1,0.7,0.6v3.9h0.8v-3.9c0-0.6-0.4-0.8-1-0.9v0c0.6,0,0.9-0.3,0.9-1V6.3
			c0-0.9-0.5-1.1-1.3-1.1H4.3v9.2h0.8V10z M5.1,5.9h0.5C6,5.9,6.3,6,6.3,6.6v2.1c0,0.5-0.2,0.7-0.6,0.7H5.1V5.9z"/>
	</g>
	<g>
		<path fill="#333333" d="M6.3,8.6V6.6C6.3,6,6,5.9,5.6,5.9H5.1v3.4h0.6C6.1,9.3,6.3,9.2,6.3,8.6z"/>
		<path fill="#333333" d="M13.3,13.8c0.5,0,0.6-0.4,0.6-0.9V6.7c0-0.5-0.1-0.9-0.6-0.9c-0.5,0-0.6,0.4-0.6,0.9v6.2
			C12.6,13.4,12.7,13.8,13.3,13.8z"/>
		<path fill="#333333" d="M9.5,13.8c0.5,0,0.6-0.4,0.6-0.9V6.7c0-0.5-0.1-0.9-0.6-0.9C9,5.9,8.9,6.2,8.9,6.7v6.2
			C8.9,13.4,9,13.8,9.5,13.8z"/>
		<path fill="#333333" d="M12.7,0.3C5.9,0.3,0.4,5.8,0.4,12.6c0,6.8,5.5,12.3,12.3,12.3c6.8,0,12.3-5.5,12.3-12.3
			C25,5.8,19.5,0.3,12.7,0.3z M18.3,11.9h0.8v1.2c0,0.4,0.2,0.7,0.5,0.7c0.3,0,0.5-0.3,0.5-0.7v-1.3c0-0.1,0-0.2,0-0.2
			c0-0.2-0.1-0.4-0.2-0.7l-1.2-2.2c-0.2-0.4-0.4-0.7-0.4-1.2V6.5c0-0.9,0.5-1.4,1.3-1.4c0.9,0,1.3,0.4,1.3,1.3v1.2h-0.8V6.5
			c0-0.4-0.1-0.6-0.5-0.6c-0.4,0-0.5,0.3-0.5,0.6v1c0,0.3,0.1,0.6,0.2,0.8l1.3,2.3c0.2,0.3,0.3,0.6,0.3,1c0,0,0,0.1,0,0.1v1.5
			c0,0.9-0.5,1.4-1.4,1.4c-0.9,0-1.4-0.4-1.4-1.4V11.9z M15.2,5.2h2.7v0.7h-0.9v8.5h-0.8V5.9h-0.9V5.2z M11.8,6.7
			c0-0.9,0.3-1.6,1.5-1.6c1.1,0,1.5,0.6,1.5,1.6V13c0,0.9-0.3,1.6-1.5,1.6c-1.1,0-1.5-0.6-1.5-1.6V6.7z M8,6.7
			c0-0.9,0.3-1.6,1.5-1.6c1.1,0,1.5,0.6,1.5,1.6V13c0,0.9-0.3,1.6-1.5,1.6C8.4,14.5,8,13.9,8,13V6.7z M4.3,12.6v-1V5.2h1.6
			c0.8,0,1.3,0.1,1.3,1.1v2.3c0,0.7-0.3,1-0.9,1v0c0.6,0,1,0.2,1,0.9v1.1v1v1.8H6.4v-3.9c0-0.4-0.3-0.6-0.7-0.6H5.1v1.6v1v1.8H4.3
			V12.6z M12.7,23.9c-5.1,0-9.5-3.5-10.8-8.2h8.7v2.7l-1.9,1.9l0.8,0.8l2.2-2.2v-3.2h0.5v6.8h1.1v-6.8h0.5v3.2l2.2,2.2l0.8-0.8
			l-1.9-1.9v-2.7h8.7C22.2,20.4,17.8,23.9,12.7,23.9z"/>
	</g>
</g>
</svg>
