<?xml version="1.0" encoding="utf-8"?>
<!-- Generator: Adobe Illustrator 17.1.0, SVG Export Plug-In . SVG Version: 6.00 Build 0)  -->
<!DOCTYPE svg PUBLIC "-//W3C//DTD SVG 1.1//EN" "http://www.w3.org/Graphics/SVG/1.1/DTD/svg11.dtd">
<svg version="1.1" id="Layer_1" xmlns="http://www.w3.org/2000/svg" xmlns:xlink="http://www.w3.org/1999/xlink" x="0px" y="0px"
	 viewBox="0 0 60 60" enable-background="new 0 0 60 60" xml:space="preserve">
<g>
	<path fill="#BE1E2D" d="M39.6,20c-8.6-1.3-20.9,6.5-22.4,9c-4.7,7.6,3.9,12.9,11.5,11.9c8.3-1,24-10.3,12.8-15.6
		c-3.2-1.6-8.2-0.5-10.8,1.6c-2.6,1.9-4.3,8.1,0.7,5.5c-3.5-3.7,8-7,7.1-1c-0.6,3.9-8.7,5.6-11.4,5.1c-5.1-0.7-5.6-4.8-2.4-8.1
		c3.4-3.5,8.8-5.8,13.6-6.3c11.9-1.1,16.8,9,7.1,16.5c-7.3,5.7-19.3,9-28.2,5.2C5,38.7,13.6,26.5,21,22.2c5.5-3.2,12-5,18.4-5.5
		C47.1,16.2,46.9,21.2,39.6,20"/>
</g>
<g>
	<polygon fill="#3C2161" points="1.6,28.4 4.9,26.5 5.8,35 10.6,33.8 11,36.3 3.7,37.9 	"/>
	<polygon fill="#3C2161" points="10.5,28.1 13.8,29.2 11.7,36.3 9.5,35.4 	"/>
	<polygon fill="#3C2161" points="22.6,27.4 25.2,26.2 26.3,30.4 28.7,26.8 30.8,27 28.1,30.7 32.7,35.3 30.5,36.5 26.6,32.1 
		27.8,35.6 25.6,37.1 	"/>
	<polygon fill="#3C2161" points="33.9,26.4 37.2,27.9 33.4,36.6 30.9,36.1 	"/>
	<path fill="#3C2161" d="M14.7,27.1c-0.1,0.7-1,1.3-2.2,1.1s-1.9-0.8-1.8-1.5c0.1-0.7,1-1.3,2.2-1.1C13.9,25.7,14.8,26.4,14.7,27.1z
		"/>
	<g>
		<path fill="#3C2161" d="M43.6,28.1c-1.5-1.6-4.1-2.3-6.8-0.6l0.7,9.4C47,34.3,43.9,28.5,43.6,28.1z M38.4,34.7l-0.1-4.4
			C41.9,28.7,42,31.3,38.4,34.7z"/>
	</g>
	<g>
		<path fill="#3C2161" d="M24.4,33.6c0,0.8,0,2.1-0.3,2.7c-1.1,2.1-4.3,2.3-5.8,0.5c-0.8-1-1.1-3.4-1.1-4.7c0-1,0.3-2.2,1-3
			c1-1.1,3.3-1.6,4.7-0.6c0.5,0.3,1.8,3.7,1.5,3.8l-4.6,1.1v0.2l0.1,0.3c0.7,2.9,3.8,1.9,3.8-0.6h0.2L24.4,33.6z M21.6,31.1
			c-0.3-1.4-2.2-1.5-2.2,0.7L21.6,31.1z"/>
	</g>
	<path fill="#3C2161" d="M49.8,30.3c-0.5-1.3-2.1-0.6-3-1.1c-1-0.8,1.8-2.9,2.2-3.1l-0.5-1.4c0,0-0.9,0.2-1.3,0.5
		c-0.5,0.2-2.2,0.9-3.2,1.8c-1.7,1.5-3.3,5.7,0.1,6.2c0.8,0.1,1.6-0.5,2.4-0.6c1.5-0.1-0.6,1.7-1,1.9L44,35.4l0,0l0.8,1.1
		c0,0,2.2-0.7,4.1-3.9C49.7,31.7,50,30.6,49.8,30.3z"/>
	<path fill="#3C2161" d="M20.6,22.8c-1.8-0.3-4.3,0.2-6.2,7.3h-0.9L13,32.2l1,0.1L13.9,37l1.6,0.1l0.9-4.6l1.5,0.1l0.7-2.6h-1.7
		c0.1-0.7,0.7-2.4,0.9-3c0.2-0.5,0.6-1.4,1.1-1.5c0.9-0.1,0,3-0.1,3.4l1.7,0.3C21.4,27.7,23.4,23.4,20.6,22.8z"/>
</g>
<path fill="#402061" d="M59,30.3c-0.6-0.2-1.1-0.5-1.7-0.7c-0.3-0.1-0.8,0-1.1,0.2c-0.5-0.2-0.9-0.3-1.5,0c-0.2,0.1-0.5,0.2-0.7,0.3
	c0-0.1,0-0.2,0-0.3c0-0.7-0.6-1.5-1.4-1.4c-0.5,0-1,0.1-1.5,0.1c-0.2,0-0.3,0-0.5,0.1c-0.5-0.5-1-0.7-1.6-0.8
	c0.1-0.1,0.2-0.2,0.3-0.3c0,0,0.2-0.2,0.3-0.2c0.6-0.5,0.9-1.1,0.7-1.8c0-0.3-0.1-0.8-0.2-1.3c-0.2-0.8-1.1-1.4-1.9-1.1
	c-1.8,0.6-3.8,1.4-5.1,2.7c-2.1-1.1-4.6-1-6.6,0c-0.6-0.2-1.1-0.6-1.8-0.8c-0.8-0.3-1.7-0.2-2.2,0.6c0,0.1-0.1,0.1-0.1,0.2l0,0
	c0,0,0,0,0,0.1V26c0,0.1-0.1,0.2-0.1,0.3c-0.3-0.7-0.9-1-1.5-1.1c-0.9,0-1.3,0-1.8-0.1c-0.9,0-1.4,0.5-1.8,1.1
	c0,0.1-0.1,0.1-0.1,0.2c-0.1-0.3-0.2-0.6-0.2-0.9c-0.3-0.9-1.6-1.4-2.5-0.9c-0.2,0.1-0.5,0.2-0.7,0.3c0.1-1.7-0.5-3.2-2.4-3.8h-0.1
	c-0.1,0-0.1,0-0.2,0c-2.7-0.5-4.7,1.1-5.9,3.4c-1.9-1.3-5.2-0.9-5.7,1.6c-0.1,0.2-0.1,0.6-0.1,0.9C9,27.3,9,27.4,8.9,27.6
	c-0.2,1.7-0.5,3.4-0.8,5.1c-0.3,0.1-0.7,0.1-1,0.2c-0.2-2.2-0.5-4.3-0.7-6.5c-0.1-1.1-1.3-2.1-2.4-1.4s-2.2,1.4-3.3,1.9
	C0.2,27.4,0,27.9,0,28.3c0,0.2,0,0.3,0,0.6c0.7,3.2,1.4,6.3,2.1,9.5c0.2,0.9,1.1,1.3,1.9,1.1c2.4-0.6,4.8-1.1,7.2-1.6l0,0l0,0
	c0.3,0.1,0.8,0.1,1-0.1c0.2,0.6,0.8,0.9,1.5,0.9c0.6,0,1,0.1,1.6,0.1c0.7,0.1,1.4-0.5,1.5-1.1c0.3,0.3,0.7,0.7,1,1
	c1.5,1,3.7,1,5.2,0.3c0.5-0.2,0.8-0.5,1.1-0.8c0.5,0.5,1.3,0.7,1.9,0.2c0.8-0.5,1.5-1,2.3-1.5c0,0,0.1,0,0.1-0.1
	c0.2,0.2,0.3,0.5,0.6,0.7c0.5,0.6,1.4,0.6,1.9,0.2c0,0,0.1,0,0.1-0.1c0.6,0.1,1,0.2,1.6,0.3c0.7,0.1,1.5-0.1,1.8-0.7
	c0.2-0.7,0.6-1.3,0.8-1.9c0,0.5,0.1,1,0.1,1.5c0.1,1,1,1.8,2.1,1.6c1.6-0.5,3.4-1.1,4.9-2.3c0.2,0.3,0.6,0.8,0.8,1.1
	c0.5,0.6,1,0.9,1.8,0.7c0.8-0.2,1.6-0.7,2.2-1.3c0.2,0.1,0.5,0.2,0.7,0.3c0.7,0.2,1.4,0.1,1.9-0.1c0.2,0.5,0.7,0.7,1.1,0.7
	c0.6,0,1.1-0.1,1.7-0.1c0.7,0,1.5-0.6,1.4-1.4c0-0.1,0-0.1,0-0.2c0.1,0.2,0.2,0.5,0.3,0.7c0.2,0.5,0.7,0.7,1.1,0.7
	c0.3,0,0.7,0,0.9,0c0.7,0,1.1-0.5,1.4-1c0.5-1.5,1-3,1.5-4.4C60.2,31.2,59.7,30.6,59,30.3z M11.7,30.8c0-0.2,0.1-0.5,0.1-0.6
	c0,0,0,0,0.1,0C11.9,30.5,11.7,30.6,11.7,30.8z M20.4,24.3L20.4,24.3C20.4,24.3,20.4,24.4,20.4,24.3C20.4,24.4,20.4,24.4,20.4,24.3
	C20.4,24.4,20.4,24.3,20.4,24.3z M20.4,24.4L20.4,24.4L20.4,24.4L20.4,24.4L20.4,24.4z M20.4,24.4L20.4,24.4L20.4,24.4L20.4,24.4
	L20.4,24.4z M20.5,24.4L20.5,24.4L20.5,24.4L20.5,24.4z M30.8,31.1c-0.2-0.2-0.3-0.3-0.6-0.6c0.5-0.7,0.9-1.3,1.4-1.9
	C31.3,29.5,31,30.3,30.8,31.1z M49.2,35.7L49.2,35.7L49.2,35.7L49.2,35.7z"/>
<g>
	<g>
		<polygon fill="#FFDD00" points="1.6,28.4 4.9,26.5 5.8,35 10.6,33.8 11,36.3 3.7,37.9 		"/>
		<path fill="#BE1E2D" d="M1.7,28.5c1.1-0.7,2.2-1.4,3.3-1.9c-0.1,0-0.2-0.1-0.2-0.1c0.3,2.9,0.6,5.7,0.9,8.6c0,0.1,0.1,0.2,0.2,0.1
			c1.6-0.5,3.2-0.8,4.8-1.3c-0.1,0-0.1-0.1-0.2-0.1c0.1,0.8,0.2,1.7,0.2,2.5c0-0.1,0.2-0.2,0-0.1c-0.1,0-0.2,0.1-0.3,0.1
			c-0.5,0.1-0.9,0.2-1.3,0.3c-1.8,0.5-3.7,0.8-5.4,1.3C3.9,37.9,3.9,38,4,38c-0.7-3.2-1.4-6.3-2.1-9.5c0-0.2-0.3-0.1-0.3,0.1
			c0.7,3.2,1.4,6.3,2.1,9.5c0,0.1,0.1,0.1,0.2,0.1c2.4-0.6,4.8-1.1,7.2-1.6c0.1,0,0.1-0.1,0.1-0.1C11.1,35.7,11,34.8,11,34
			c0-0.1-0.1-0.2-0.2-0.1c-1.6,0.5-3.2,0.8-4.8,1.3c0.1,0,0.1,0.1,0.2,0.1c-0.3-2.9-0.6-5.7-0.9-8.6c0-0.1-0.1-0.2-0.2-0.1
			C3.9,27.3,2.9,28,1.7,28.5C1.4,28.4,1.5,28.7,1.7,28.5z"/>
	</g>
	<g>
		<polygon fill="#FFDD00" points="10.5,28.1 13.8,29.2 11.7,36.3 9.5,35.4 		"/>
		<path fill="#BE1E2D" d="M10.5,28.2c1.1,0.3,2.3,0.8,3.3,1.1c0-0.1-0.1-0.1-0.1-0.2c-0.7,2.4-1.4,4.7-2.1,7.1
			c0.1,0,0.1-0.1,0.2-0.1c-0.8-0.3-1.6-0.6-2.4-0.9c0,0.1,0.1,0.1,0.1,0.2c0.3-2.4,0.7-4.8,1-7.3c0-0.2-0.3-0.3-0.3-0.1
			c-0.3,2.4-0.7,4.9-1,7.3c0,0.1,0,0.2,0.1,0.2c0.8,0.3,1.6,0.6,2.4,0.9c0.1,0,0.2,0,0.2-0.1c0.7-2.4,1.4-4.7,2.1-7.1
			c0-0.1,0-0.2-0.1-0.2c-1.1-0.3-2.3-0.8-3.3-1.1C10.4,27.9,10.3,28.2,10.5,28.2z"/>
	</g>
	<g>
		<polygon fill="#FFDD00" points="22.6,27.4 25.2,26.2 26.3,30.4 28.7,26.8 30.8,27 28.1,30.7 32.7,35.3 30.5,36.5 26.6,32.1 
			27.8,35.6 25.6,37.1 		"/>
		<path fill="#BE1E2D" d="M22.6,27.5c0.9-0.5,1.7-0.9,2.6-1.4c-0.1,0-0.1-0.1-0.2-0.1c0.3,1.5,0.8,2.9,1.1,4.3c0,0.1,0.2,0.1,0.3,0
			c0.7-0.9,1.3-1.9,1.9-2.9c0.1-0.2,0.2-0.3,0.3-0.6c0.1-0.2-0.1,0,0.1,0c0.6,0,1.1,0,1.8,0.1c0-0.1-0.1-0.2-0.1-0.2
			c-0.9,1.3-1.8,2.5-2.7,3.9c0,0.1,0,0.1,0,0.2c1.6,1.5,3.2,3,4.7,4.4c0-0.1,0-0.2,0-0.2c-0.7,0.3-1.4,0.7-1.9,1.1
			c-0.1,0-0.2,0.1-0.3,0.1c0.1-0.1,0.2,0.1,0.1-0.1c-0.2-0.2-0.5-0.5-0.7-0.7c-1-1.3-2.1-2.4-3.2-3.7c-0.1-0.1-0.3,0-0.3,0.1
			c0.3,1.1,0.8,2.3,1.1,3.3c0,0.1,0,0.1,0.1,0.2c0,0,0.2-0.2,0-0.1c-0.2,0.1-0.5,0.3-0.8,0.5c-0.5,0.3-0.9,0.7-1.5,0.9
			c0.1,0,0.1,0.1,0.2,0.1c-1-3.2-2.1-6.5-3.1-9.7c-0.1-0.2-0.5-0.1-0.3,0.1c1,3.2,2.1,6.5,3.1,9.7c0,0.1,0.1,0.1,0.2,0.1
			c0.8-0.5,1.5-1,2.3-1.5c0.1,0,0.1-0.1,0.1-0.2c-0.5-1.3-0.8-2.4-1.3-3.7c-0.1,0-0.2,0.1-0.3,0.1c1.3,1.5,2.6,3,3.9,4.4
			c0,0.1,0.1,0.1,0.2,0c0.8-0.5,1.5-0.9,2.3-1.3c0.1,0,0.1-0.2,0-0.2c-1.5-1.4-3-2.9-4.4-4.2c-0.1-0.1-0.1-0.1-0.2-0.2
			c-0.1-0.1-0.1,0.2,0,0.1c0.2-0.5,0.6-0.8,0.8-1.3c0.6-0.8,1.1-1.7,1.8-2.5c0.1-0.1,0-0.2-0.1-0.2c-0.6,0-1.1,0-1.8-0.1
			c-0.3,0-0.5,0.2-0.7,0.5c-0.7,1-1.5,2.1-2.2,3.2c0.1,0,0.2,0,0.3,0c-0.3-1.5-0.8-2.9-1.1-4.3c0-0.1-0.1-0.1-0.2-0.1
			c-0.9,0.5-1.7,0.9-2.6,1.4C22.2,27.4,22.5,27.6,22.6,27.5z"/>
	</g>
	<g>
		<polygon fill="#FFDD00" points="33.9,26.4 37.2,27.9 33.4,36.6 30.9,36.1 		"/>
		<path fill="#BE1E2D" d="M33.8,26.5c1.1,0.5,2.2,1,3.3,1.5c0-0.1,0-0.1-0.1-0.2c-0.9,2.1-1.7,4-2.6,6c-0.3,0.9-0.8,1.8-1.1,2.6
			c-0.1,0.1,0.2,0,0.1,0c-0.3-0.1-0.6-0.1-0.9-0.2c-0.6-0.1-1-0.2-1.6-0.3c0,0.1,0.1,0.1,0.1,0.2c1-3.2,2.1-6.4,3-9.7
			c0.1-0.2-0.2-0.3-0.3-0.1c-1,3.2-2.1,6.4-3,9.7c0,0.1,0,0.2,0.1,0.2c0.8,0.2,1.7,0.3,2.5,0.6c0.1,0,0.1,0,0.2-0.1
			c1.3-3,2.5-5.8,3.8-8.8c0-0.1,0-0.2-0.1-0.2c-1.1-0.5-2.2-1-3.3-1.5C33.8,26.2,33.7,26.5,33.8,26.5z"/>
	</g>
	<g>
		<path fill="#FFDD00" d="M14.7,27.1c-0.1,0.7-1,1.3-2.2,1.1s-1.9-0.8-1.8-1.5c0.1-0.7,1-1.3,2.2-1.1C13.9,25.7,14.8,26.4,14.7,27.1
			z"/>
		<path fill="#BE1E2D" d="M14.5,27c-0.3,1.6-3.2,1.1-3.7-0.1C10.4,25.5,14.6,25.1,14.5,27c0,0.2,0.3,0.2,0.3,0
			c0-1.9-3.9-2.4-4.3-0.5c-0.2,1,1.1,1.6,1.9,1.7c0.9,0.1,2.2-0.2,2.3-1.3C14.9,26.8,14.6,26.8,14.5,27z"/>
	</g>
	<g>
		<path fill="#FFDD00" d="M43.6,28.1c-1.5-1.6-4.1-2.3-6.8-0.6l0.7,9.4C47,34.3,43.9,28.5,43.6,28.1z M38.4,34.7l-0.1-4.4
			C41.9,28.7,42,31.3,38.4,34.7z"/>
		<g>
			<path fill="#BE1E2D" d="M43.7,28c-1.9-1.9-4.8-1.9-7.1-0.6l-0.1,0.1c0.2,3.1,0.5,6.3,0.7,9.4c0,0.1,0.1,0.2,0.2,0.1
				c2.7-0.8,6.3-2.3,7-5.4C44.6,30.6,44.5,28.9,43.7,28c-0.1-0.1-0.3,0.1-0.2,0.2c0.7,0.8,0.8,2.4,0.7,3.4c-0.6,3-4.1,4.4-6.7,5.1
				c0.1,0,0.1,0.1,0.2,0.1c-0.2-2.2-0.3-4.3-0.6-6.5c-0.1-0.9-0.1-1.8-0.2-2.9c0,0,1-0.5,1.1-0.6c0.7-0.2,1.4-0.3,2.2-0.3
				c1.3,0,2.4,0.7,3.3,1.5C43.6,28.4,43.8,28.1,43.7,28z"/>
			<path fill="#BE1E2D" d="M38.6,34.7c0-1.5-0.1-3-0.1-4.4c0,0,0.3-0.1,0.5-0.1c0.3-0.1,0.7-0.2,0.9-0.2c0.6,0,0.9,0.1,0.9,0.7
				s-0.3,1.1-0.7,1.6c-0.6,0.8-1.3,1.6-1.9,2.3c-0.1,0.1,0.1,0.3,0.2,0.2c1-1,2.9-2.7,2.6-4.3c-0.1-1.4-2.2-0.7-3-0.3
				c-0.1,0-0.1,0.1-0.1,0.1c0,1.5,0.1,3,0.1,4.4C38.2,34.9,38.6,34.9,38.6,34.7z"/>
		</g>
	</g>
	<g>
		<path fill="#FFDD00" d="M24.4,33.6c0,0.8,0,2.1-0.3,2.7c-1.1,2.1-4.3,2.3-5.8,0.5c-0.8-1-1.1-3.4-1.1-4.7c0-1,0.3-2.2,1-3
			c1-1.1,3.3-1.6,4.7-0.6c0.5,0.3,1.8,3.7,1.5,3.8l-4.6,1.1v0.2l0.1,0.3c0.7,2.9,3.8,1.9,3.8-0.6h0.2L24.4,33.6z M21.6,31.1
			c-0.3-1.4-2.2-1.5-2.2,0.7L21.6,31.1z"/>
		<g>
			<path fill="#BE1E2D" d="M24.3,33.6c0,0.8,0,1.6-0.2,2.4c-0.2,0.8-1,1.4-1.8,1.7c-1.4,0.6-3.2,0.1-4.1-1.1
				c-0.8-1.1-0.9-2.9-0.9-4.2c0-1.9,1-3.5,3-4c0.8-0.2,1.6-0.1,2.3,0.3c0.3,0.2,0.6,0.8,0.8,1.1c0.2,0.6,0.5,1.1,0.7,1.7
				c0.1,0.2,0.2,0.7,0.1,0.8c-1.5,0.3-3,0.7-4.6,1.1c-0.1,0-0.1,0.1-0.1,0.1c-0.1,1.1,0.7,2.4,1.9,2.5c1.4,0.1,2.2-1.3,2.3-2.5
				c-0.1,0.1-0.1,0.1-0.2,0.2c0.3,0,0.7,0,0.9,0c0.2,0,0.2-0.3,0-0.3c-0.3,0-0.7,0-0.9,0c-0.1,0-0.1,0.1-0.2,0.2
				c-0.1,1.5-1.7,3-3,1.6c-0.2-0.3-0.5-0.7-0.6-1.1c0-0.1,0-0.2,0-0.3c0-0.2,0,0-0.1,0c0.3-0.1,0.7-0.2,1.1-0.2
				c1-0.2,2.2-0.6,3.2-0.8c0.7-0.1,0.5-0.7,0.3-1.3c-0.3-0.9-0.7-2.1-1.4-2.9c-0.9-1-2.7-0.7-3.8-0.2c-3,1.3-2.5,5.8-1.3,8.2
				c0.8,1.5,2.9,1.9,4.3,1.5c0.8-0.2,1.5-0.8,1.9-1.4c0.6-0.8,0.5-2.1,0.5-3C24.6,33.3,24.3,33.3,24.3,33.6z"/>
			<path fill="#BE1E2D" d="M21.7,31.1c-0.1-0.7-0.7-1.3-1.4-1.1c-0.9,0.1-1.1,1-1,1.8c0,0.1,0.1,0.2,0.2,0.1
				c0.7-0.2,1.4-0.5,2.2-0.7c0.2-0.1,0.1-0.3-0.1-0.3c-0.7,0.2-1.4,0.5-2.2,0.7c0.1,0,0.1,0.1,0.2,0.1c0-0.6,0.1-1.4,0.8-1.5
				c0.6-0.1,0.9,0.5,1,0.9C21.4,31.3,21.8,31.2,21.7,31.1z"/>
		</g>
	</g>
	<g>
		<path fill="#FFDD00" d="M49.8,30.3c-0.5-1.3-2.1-0.6-3-1.1c-1-0.8,1.8-3,2.2-3.1l-0.5-1.4c0,0-1,0.2-1.3,0.3
			c-0.5,0.2-2.2,0.9-3.2,1.8c-1.7,1.5-3.3,5.7,0.1,6.2c0.8,0.1,1.6-0.5,2.4-0.6c1.5-0.1-0.6,1.7-1,1.9L44,35.3l0,0l0.8,1.1
			c0,0,2.2-0.7,4.1-3.9C49.7,31.7,50,30.6,49.8,30.3z"/>
		<path fill="#BE1E2D" d="M50,30.1c-0.2-0.6-0.7-0.8-1.3-0.9c-0.6-0.1-2.1,0-1.9-0.8c0.2-0.9,1.5-1.9,2.3-2.3c0.1,0,0.1-0.1,0.1-0.2
			c-0.1-0.5-0.3-0.8-0.5-1.3c0-0.1-0.1-0.1-0.2-0.1c-1.7,0.5-3.5,1.3-4.8,2.6c-1,1.1-1.8,2.9-1.5,4.3c0.1,0.7,0.6,1.1,1.3,1.5
			c1.3,0.6,2.3-0.2,3.5-0.3c0.5,0-0.5,1-0.6,1.1c-0.2,0.2-0.5,0.3-0.7,0.6c-0.6,0.3-1,0.7-1.6,0.9c-0.1,0-0.1,0.1-0.1,0.2
			c0.2,0.3,0.6,0.8,0.8,1.1c0,0.1,0.1,0.1,0.2,0.1c0.9-0.2,1.7-0.9,2.4-1.6c0.8-0.7,1.5-1.6,1.9-2.5C49.7,32,50.2,30.9,50,30.1
			c0-0.2-0.3-0.1-0.3,0.1c0.3,1.3-0.8,2.7-1.5,3.7c-0.6,0.8-1.4,1.5-2.2,2.1c-0.3,0.2-0.7,0.3-1,0.5c0.1,0,0.2,0.1,0.1,0
			c-0.1-0.1-0.2-0.2-0.3-0.5s-0.3-0.5-0.5-0.7c0,0.1,0,0.1-0.1,0.2c1-0.6,2.1-1.1,2.9-2.1c0.1-0.2,0.7-0.9,0.2-1.1
			c-0.3-0.1-0.7,0-1,0c-0.8,0.2-1.5,0.6-2.4,0.3c-2.3-0.6-1.1-3.5-0.3-4.8c1.1-1.6,3.3-2.6,5.1-3.1c-0.1,0-0.1-0.1-0.2-0.1
			c0.1,0.3,0.2,0.7,0.2,0.9c0.1,0.3,0,0.2,0.1,0.1c-0.1,0.1-0.2,0.1-0.3,0.2c-0.5,0.6-1.1,1.1-1.6,1.8c-0.3,0.5-0.6,1,0,1.4
			c0.9,0.7,2.4,0,3,1.1C49.7,30.5,50.1,30.4,50,30.1z"/>
	</g>
	<g>
		<path fill="#FFDD00" d="M20.6,22.8c-1.8-0.3-4.3,0.2-6.2,7.3h-0.9L13,32.2l1,0.1L13.9,37l1.6,0.1l0.9-4.6l1.5,0.1l0.7-2.6h-1.7
			c0.1-0.7,0.7-2.4,0.9-3c0.2-0.5,0.6-1.4,1.1-1.5c0.9-0.1,0,3-0.1,3.4l1.7,0.3C21.4,27.7,23.4,23.4,20.6,22.8z"/>
		<path fill="#BE1E2D" d="M20.8,22.6c-1.4-0.2-2.5,0.2-3.5,1.1c-0.8,0.8-1.4,1.8-1.8,3c-0.3,0.8-0.7,1.7-0.9,2.5
			c0,0.2-0.1,0.3-0.1,0.6c0,0.2,0.1,0.1-0.1,0.1s-0.5,0-0.7,0c-0.1,0-0.1,0-0.1,0.1c-0.2,0.7-0.5,1.4-0.6,2.1c0,0.1,0.1,0.2,0.1,0.2
			c0.3,0,0.7,0.1,1,0.1c-0.1-0.1-0.1-0.1-0.2-0.2c0,1.6-0.1,3.2-0.1,4.7c0,0.1,0.1,0.1,0.2,0.2c0.6,0,1,0.1,1.6,0.1
			c0.1,0,0.1-0.1,0.1-0.1c0.2-1.1,0.5-2.2,0.7-3.3c0.1-0.5,0.2-0.8,0.2-1.3c0,0.2-0.2,0.1,0.1,0.1c0.2,0,0.3,0,0.6,0
			c0.2,0,0.5,0,0.8,0c0.1,0,0.1,0,0.1-0.1c0.2-0.9,0.5-1.7,0.7-2.6c0-0.1,0-0.2-0.1-0.2c-0.6,0-1.1,0-1.7,0c0,0.1,0.1,0.1,0.1,0.2
			c0.2-1.4,0.6-3.1,1.6-4.1c0.7-0.8,0.5,1.4,0.3,1.5c-0.1,0.5-0.2,0.9-0.3,1.5c0,0.1,0,0.2,0.1,0.2c0.6,0.1,1.1,0.2,1.7,0.3
			c0.1,0,0.1,0,0.2-0.1C21.7,27.9,23.7,23.4,20.8,22.6c-0.2,0-0.3,0.2-0.1,0.3c1.9,0.5,1.1,3.1,0.7,4.4c-0.1,0.3-0.3,0.8-0.5,1.1
			c-0.1,0.2-0.1,0.3-0.2,0.5s-0.1,0.2-0.1,0.2c0.1,0,0.1,0,0.1,0c-0.6-0.1-1.1-0.2-1.6-0.3c0,0.1,0.1,0.1,0.1,0.2
			c0.1-0.6,1.1-3.3,0.1-3.5c-0.8-0.2-1.3,0.9-1.5,1.5c-0.5,0.9-0.7,2.1-0.9,3c0,0.1,0,0.2,0.1,0.2c0.6,0,1.1,0,1.7,0
			c0-0.1-0.1-0.1-0.1-0.2c-0.2,0.8-0.5,1.5-0.7,2.3c0,0.1-0.1,0.2-0.1,0.3c0.2-0.1,0.2-0.1,0.1-0.1s-0.2,0-0.3,0
			c-0.3,0-0.8,0-1.1-0.1c-0.1,0-0.1,0-0.1,0.1c-0.2,1.1-0.5,2.2-0.7,3.3c-0.1,0.5-0.2,0.8-0.2,1.3c0-0.2,0.2-0.1-0.1-0.1
			c-0.2,0-0.3,0-0.6,0s-0.6,0-0.8-0.1C14,37,14,37,14.1,37.1c0-1.6,0.1-3.2,0.1-4.7c0-0.1-0.1-0.1-0.2-0.2c-0.3,0-0.7-0.1-1-0.1
			c0,0.1,0.1,0.1,0.1,0.2c0.1-0.6,0.3-1,0.5-1.6c0-0.1,0.1-0.2,0.1-0.3c0.1-0.2,0.1-0.1-0.1-0.1c0.3,0,0.6,0,0.9,0
			c0.1,0,0.1,0,0.1-0.1c0.7-2.6,2.2-8,5.9-7.2C20.9,23,21,22.7,20.8,22.6z"/>
	</g>
</g>
<g>
	<polygon fill="#FFDD00" points="53.8,31.7 55.3,30.9 56.2,33.7 56.9,30.9 58.6,31.6 57,36.1 56.1,36.1 	"/>
	<path fill="#BE1E2D" d="M54,31.9c0.5-0.2,1-0.6,1.5-0.8c-0.1,0-0.1-0.1-0.2-0.1c0.3,0.9,0.6,1.8,0.9,2.7c0,0.1,0.2,0.1,0.3,0
		c0.2-0.9,0.5-1.8,0.7-2.7c-0.1,0-0.1,0.1-0.2,0.1c0.6,0.2,1.1,0.5,1.7,0.7c0-0.1-0.1-0.1-0.1-0.2c-0.2,0.8-0.6,1.6-0.8,2.4
		c-0.2,0.6-0.3,1-0.6,1.6c0,0.1-0.1,0.2-0.1,0.3s0-0.1,0.1-0.1c-0.1,0-0.3,0-0.5,0c-0.1,0-0.2,0-0.3,0c-0.2,0,0,0.1,0,0
		c-0.1-0.1-0.1-0.2-0.2-0.3c-0.2-0.5-0.6-1-0.8-1.5c-0.5-0.8-0.8-1.6-1.3-2.4c-0.1-0.2-0.3,0-0.2,0.1c0.8,1.5,1.5,2.9,2.3,4.3
		l0.1,0.1c0.3,0,0.7,0,0.9,0c0.1,0,0.1,0,0.1-0.1c0.5-1.5,1-3,1.5-4.4c0-0.1,0-0.1-0.1-0.2c-0.6-0.2-1.1-0.5-1.7-0.7
		c-0.1,0-0.2,0-0.2,0.1c-0.2,0.9-0.5,1.8-0.7,2.7c0.1,0,0.2,0,0.3,0c-0.3-0.9-0.6-1.8-0.9-2.7c0-0.1-0.1-0.1-0.2-0.1
		c-0.5,0.2-1,0.6-1.5,0.8C53.6,31.7,53.8,32,54,31.9z"/>
</g>
<g>
	<path fill="#FFDD00" d="M50.5,35.6c-0.1,0.2-0.3,0.3-0.8,0.5c-0.3,0.1-0.7,0.1-1,0c-0.3-0.1-0.6-0.2-0.6-0.5
		c-0.1-0.2,0-0.3,0.1-0.6s0.3-0.3,0.7-0.5c0.2-0.1,0.3-0.1,0.6-0.1s0.3,0,0.5,0c0.1,0,0.3,0.1,0.5,0.1c0.1,0.1,0.2,0.2,0.2,0.3
		C50.6,35.2,50.6,35.4,50.5,35.6z"/>
	<path fill="#BE1E2D" d="M50.4,35.5c-0.3,0.6-1.7,0.7-2.1,0.1c-0.3-0.6,0.5-0.8,0.8-0.9C49.6,34.6,50.8,34.7,50.4,35.5
		c-0.1,0.2,0.2,0.3,0.2,0.1c0.7-1.6-2.1-1.7-2.6-0.6c-0.3,0.6,0.2,1,0.7,1.1c0.6,0.2,1.6,0,1.9-0.6C50.8,35.5,50.5,35.4,50.4,35.5z"
		/>
</g>
<g>
	<polygon fill="#FFDD00" points="51.1,29.9 52.6,29.8 52.8,32.1 54.4,31.5 54.5,33.3 52.9,33.2 53.2,36.3 51.4,36.4 51.8,33.3 
		50.1,33.5 50,31.9 51.6,32.1 	"/>
	<path fill="#BE1E2D" d="M51.1,30c0.5,0,1-0.1,1.5-0.1l-0.1-0.1c0,0.8,0.1,1.5,0.1,2.3c0,0.1,0.1,0.2,0.2,0.1c0.6-0.2,1-0.3,1.6-0.6
		c-0.1,0-0.1-0.1-0.2-0.1c0,0.6,0.1,1.1,0.1,1.7l0.1-0.1c-0.6,0-1.1-0.1-1.7-0.1c-0.1,0-0.1,0.1-0.1,0.1c0.1,1,0.2,2.1,0.3,3.1
		l0.1-0.1c-0.6,0-1.1,0.1-1.7,0.1l0.1,0.1c0.1-1,0.2-2.1,0.2-3.1c0-0.1-0.1-0.1-0.1-0.1c-0.6,0-1.1,0-1.7,0.1l0.1,0.1
		c0-0.6,0-1-0.1-1.6l-0.1,0.1c0.6,0.1,1,0.1,1.6,0.2c0.1,0,0.2-0.1,0.1-0.2c-0.1-0.7-0.3-1.5-0.5-2.2c0-0.2-0.3-0.1-0.3,0.1
		c0.1,0.7,0.3,1.5,0.5,2.2c0-0.1,0.1-0.1,0.1-0.2c-0.6-0.1-1-0.1-1.6-0.2c-0.1,0-0.1,0.1-0.1,0.1c0,0.6,0,1,0.1,1.6
		c0,0.1,0.1,0.1,0.1,0.1c0.6,0,1.1,0,1.7-0.1l-0.1-0.1c-0.1,1-0.2,2.1-0.2,3.1c0,0.1,0.1,0.1,0.1,0.1c0.6,0,1.1-0.1,1.7-0.1
		c0.1,0,0.1-0.1,0.1-0.1c-0.1-1-0.2-2.1-0.3-3.1l-0.1,0.1c0.6,0,1.1,0.1,1.7,0.1c0.1,0,0.1-0.1,0.1-0.1c0-0.6-0.1-1.1-0.1-1.7
		c0-0.1-0.1-0.2-0.2-0.1c-0.6,0.2-1,0.3-1.6,0.6c0.1,0,0.1,0.1,0.2,0.1c0-0.8-0.1-1.5-0.1-2.3c0-0.1-0.1-0.1-0.1-0.1
		c-0.5,0-1,0.1-1.5,0.1C50.9,29.8,50.9,30,51.1,30z"/>
</g>
</svg>
