<?xml version="1.0" encoding="utf-8"?>
<!-- Generator: Adobe Illustrator 17.1.0, SVG Export Plug-In . SVG Version: 6.00 Build 0)  -->
<!DOCTYPE svg PUBLIC "-//W3C//DTD SVG 1.1//EN" "http://www.w3.org/Graphics/SVG/1.1/DTD/svg11.dtd">
<svg version="1.1" id="Layer_1" xmlns="http://www.w3.org/2000/svg" xmlns:xlink="http://www.w3.org/1999/xlink" x="0px" y="0px"
	 viewBox="0 0 60 60" enable-background="new 0 0 60 60" xml:space="preserve">
<g>
	<path fill="#4A276E" d="M59.1,24.7c-0.2-0.2-0.5-0.4-0.8-0.4c0,0,0,0,0,0l-8.1,0c-0.1,0-0.2,0-0.3,0.1c-0.5-0.1-1-0.2-1.5-0.2
		c-0.4,0-0.9,0-1.3,0.1c-0.4,0.1-0.8,0.2-1.2,0.3c-0.2-0.2-0.5-0.3-0.8-0.3h-5.3c-1.1-2.1-2.8-3.8-4.8-5c-2.3-1.4-5.2-2-8.4-2
		c-0.9,0-1.8,0.1-2.8,0.2c-2,0.2-3.3,0.4-4.7,1.3c-1.5,0.9-1.8,2.3-1.5,3.2c0.3,1.2,1.5,2,2.8,2c0.5,0,1.1-0.1,1.6-0.4
		c0.2-0.1,0.5-0.3,0.7-0.5c0.5-0.3,1-0.7,1.6-1c1-0.4,2.1-0.7,3.1-0.7c2,0,3.8,0.8,5.2,2.4c0.7,0.7,1.2,1.6,1.5,2.5
		c-0.5-0.6-0.9-1.1-1.1-1.3c-0.2-0.2-0.4-0.3-0.7-0.4c-0.1,0-0.4-0.1-3.7-0.1h0c-0.2,0-0.3,0-0.4,0.1c-0.1-0.1-0.3-0.1-0.4-0.1
		c-0.4,0-0.8,0-1.1,0c-1.2,0-1.3,0-1.4,0c-0.3,0.1-0.9,0.3-1,1.3c0,0.1,0,0.3,0,0.6c-1.1-1.7-1.3-1.8-1.6-1.9
		c-0.1,0-0.3-0.1-0.4-0.1c0,0-0.3,0-0.7,0c-2.8,0-3.2,0.2-3.5,0.4c-0.2,0.1-0.3,0.2-0.4,0.4c-0.1,0.2-0.2,0.3-0.3,0.5
		c-0.9-0.6-2-0.9-3.4-0.9c-1.3,0-2.4,0.4-3.3,1.1l-1.4-0.9c-0.2-0.1-0.4-0.2-0.6-0.2c-0.3,0-0.6,0.1-0.8,0.4l-1,1l0-0.2
		c0-0.3-0.1-0.6-0.3-0.9c-0.2-0.2-0.5-0.4-0.8-0.4H1.8c-0.7,0-1.2,0.5-1.2,1.2L0.6,37.4c0,0.3,0.1,0.6,0.3,0.8
		c0.2,0.2,0.5,0.4,0.8,0.4h3.6c0.7,0,1.2-0.5,1.2-1.2l0-1l2.8,3.5c0.2,0.3,0.6,0.4,0.9,0.4c0.2,0,0.5-0.1,0.7-0.2l2.7-2
		c0.3-0.2,0.4-0.5,0.5-0.8c0-0.1,0-0.2,0-0.4c0.7,0,1.2-0.1,1.7-0.3c0.2,0.4,0.3,0.8,0.5,1.2c2.3,4.4,7.1,6.9,13.3,6.9
		c1.3,0,2.6-0.1,4-0.3c1.8-0.3,3.4-0.9,4.2-1.5c1.5-1,1.7-2.3,1.4-3.3c-0.3-1.1-1.3-1.9-2.5-1.9c-0.5,0-1.3,0.2-2.1,0.9
		c-0.6,0.6-0.8,0.7-1.4,1.1c-0.8,0.5-2,0.8-3.3,0.8c-2.3,0-5.3-0.8-7.1-3.1c-0.8-1.1-1.2-2.3-1.3-3.7c0.1,0.2,0.2,0.4,0.3,0.6
		c0.3,0.5,0.6,1.1,0.9,1.5c0.4,0.6,0.7,1.2,1.5,1.2c0,0,0.1,0,0.3,0c0.5,0,1.7,0,2.9,0c0.2,0,0.4,0,0.5-0.1c0.1,0.1,0.3,0.1,0.5,0.1
		c1,0,2.2,0,2.5,0c0.5,0,1.1-0.3,1.2-1.5c0-0.3,0-0.7,0.1-1.2v0c1.3,2.2,1.3,2.3,1.7,2.5c0.5,0.3,1.8,0.3,2.6,0.3
		c0.5,0,1.2,0,1.8-0.1c0.1,0,0.2,0,0.3,0c0.5,0,6.3,0,6.5,0.1h0c0.3,0,0.7-0.1,0.9-0.4c0.7,0.3,1.5,0.5,2.4,0.5
		c1.2,0,2.3-0.3,3.3-0.8c0.2,0.4,0.6,0.7,1.1,0.7l3.1,0h0c0.3,0,0.6-0.1,0.8-0.4c0.2-0.2,0.4-0.5,0.3-0.9l-0.1-5.8l1.1,0
		c0.7,0,1.2-0.5,1.2-1.2l0-3.2C59.5,25.2,59.3,24.9,59.1,24.7z"/>
	<g>
		<path fill="#BE202E" d="M22.3,25.8c0,0-3-0.1-3.6,0.2c-5.6,7.9-0.4,19.6,14.9,17.3c1.8-0.3,3.2-0.9,3.7-1.3
			c2.3-1.5,0.2-4.1-1.7-2.4c-0.7,0.7-0.9,0.8-1.6,1.2c-4.3,2.6-15.9-0.1-13.1-10.4c0.4-0.1,3.2,5.3,3.5,5.3c0.1,0,1.7,0,3.3,0
			c0.1,0,0.3-0.5,0.4-0.7c0.1,0.2,0.3,0.7,0.4,0.7c1.3,0,2.3,0,2.4,0c0.3-0.1,0-5.8,0.1-5.9c0.1-0.1,3.3,5.7,3.5,5.8
			c0.2,0.1,2.3,0.3,3.7,0c3.8-5.2,0.8-18.6-14.5-16.9c-1.7,0.2-3,0.4-4.2,1.1c-2.3,1.4-0.3,3.9,1.8,2.8c0.5-0.3,1.4-1,2.5-1.5
			c6.8-2.9,12.7,2.9,12,9.6c-0.5-0.6-2.9-4.2-3.5-4.9c-0.2,0-2-0.1-3.7-0.1c-0.1,0-0.3,0.4-0.4,0.6c-0.1-0.2-0.3-0.6-0.4-0.6
			c-1.3,0-2.3,0-2.3,0c-0.2,0,0,5.2,0,5.2S22.6,25.9,22.3,25.8z"/>
		<path fill="#FFDF00" d="M29.8,43.7c-5.7,0-10.2-2.3-12.3-6.3c-1.8-3.6-1.4-8,1.1-11.5l0,0l0,0c0.3-0.2,1.3-0.2,2.8-0.2
			c0.5,0,0.9,0,0.9,0h0l0,0c0.3,0.1,1.9,2.8,3,4.8c0-0.5,0-1.3,0-2c0-2.7,0-2.7,0.2-2.7c0,0,0.1,0,1.3,0c0.3,0,0.7,0,1,0
			c0.2,0,0.3,0.2,0.4,0.4c0.2-0.4,0.3-0.4,0.4-0.4c0.8,0,3.4,0,3.8,0.1l0,0l0,0c0.5,0.5,1.9,2.5,2.8,3.8c0.2,0.3,0.4,0.6,0.5,0.8
			c0.2-2.7-0.7-5.2-2.4-7.1c-1.6-1.8-3.7-2.7-6-2.7c-1.2,0-2.3,0.2-3.5,0.7c-0.7,0.3-1.3,0.7-1.8,1.1c-0.2,0.2-0.5,0.3-0.6,0.4
			c-0.4,0.2-0.7,0.3-1.1,0.3c-0.9,0-1.6-0.5-1.8-1.3c-0.2-0.7,0.2-1.5,1-2c1.2-0.8,2.4-0.9,4.3-1.1c0.9-0.1,1.8-0.1,2.6-0.1
			c7.7,0,10.9,4.1,12.2,6.6c1.8,3.5,1.7,8.1-0.2,10.7l0,0l-0.1,0C37.7,35.9,37,36,36.5,36c-0.9,0-1.8-0.1-2-0.2
			c-0.1-0.1-0.4-0.6-1.8-3c-0.5-1-1.2-2.1-1.5-2.6c0,0.3,0,0.9,0,1.4c0.1,3.8,0,4.2-0.2,4.2l0,0c-0.2,0-1,0-2.4,0
			c-0.1,0-0.3-0.2-0.4-0.5c-0.2,0.5-0.3,0.5-0.4,0.5c-1.3,0-2.5,0-3,0l-0.3,0c-0.2,0-0.3-0.1-1.4-2.1c-0.6-1.1-1.6-2.7-1.9-3.1
			c-0.7,2.9-0.3,5.4,1.2,7.4c2,2.6,5.4,3.5,7.9,3.5l0,0c1.5,0,2.9-0.3,3.9-0.9c0.6-0.4,0.9-0.5,1.6-1.2c0.4-0.4,0.9-0.6,1.4-0.6
			c0.7,0,1.3,0.5,1.5,1.1c0.2,0.8-0.1,1.6-1,2.1c-0.7,0.4-2.1,1.1-3.8,1.3C32.3,43.6,31.1,43.7,29.8,43.7z M18.8,26.1
			c-2.4,3.4-2.8,7.7-1,11.2c2,3.9,6.4,6.2,12,6.2c1.2,0,2.5-0.1,3.8-0.3c1.6-0.2,3-0.8,3.7-1.3c0.7-0.5,1.1-1.1,0.9-1.8
			c-0.2-0.5-0.7-0.9-1.2-0.9c-0.4,0-0.8,0.2-1.2,0.5c-0.7,0.7-1,0.8-1.6,1.2c-1,0.6-2.4,1-4,1l0,0c-2.6,0-6.1-1-8.2-3.6
			c-1.6-2-2-4.8-1.2-7.8l0-0.1l0.1,0c0.3,0,0.7,0.6,2.3,3.3c0.5,0.8,1.1,1.8,1.2,2h0.2c0.5,0,1.7,0,3,0c0.1-0.1,0.2-0.4,0.3-0.6
			l0.1-0.3l0.1,0.3c0.1,0.2,0.2,0.5,0.3,0.6c1,0,2,0,2.3,0c0.1-0.4,0.1-2.6,0.1-3.9c0-1.8,0-1.8,0-1.9l0-0.1l0.1,0
			c0.1,0,0.2,0,1.9,3c0.7,1.2,1.5,2.7,1.7,2.8c0.1,0.1,0.9,0.2,1.8,0.2c0.5,0,1.2,0,1.8-0.2c1.8-2.6,1.9-7,0.1-10.4
			c-1.2-2.4-4.4-6.4-11.9-6.4c-0.8,0-1.7,0-2.5,0.1c-1.8,0.2-3,0.4-4.2,1.1c-0.8,0.5-1.1,1.1-0.9,1.7c0.2,0.6,0.8,1.1,1.6,1.1
			c0.3,0,0.6-0.1,1-0.3c0.2-0.1,0.4-0.2,0.6-0.4c0.5-0.3,1.1-0.8,1.9-1.1c1.2-0.5,2.4-0.8,3.6-0.8c2.4,0,4.6,1,6.2,2.8
			c1.8,2,2.7,4.9,2.4,7.7l0,0.4l-0.2-0.3c-0.1-0.2-0.4-0.6-0.8-1.1c-0.9-1.3-2.2-3.2-2.7-3.8c-0.3,0-1.7-0.1-3.6-0.1
			c-0.1,0.1-0.2,0.3-0.3,0.5l-0.1,0.3l-0.1-0.3c-0.1-0.2-0.2-0.5-0.3-0.5c-0.4,0-0.7,0-1,0c-0.7,0-1,0-1.2,0c-0.1,0.5,0,3.3,0,5
			L25.4,31c-1.1-1.8-2.9-4.8-3.2-5.1c-0.1,0-0.4,0-0.9,0C20.1,25.9,19.1,26,18.8,26.1z"/>
	</g>
	<g>
		<path fill="#FFDF00" d="M1.8,26L1.8,37.4h3.6l0-4.4l4.9,6.1l2.7-2l-1.6-2c-0.9-0.5-1.8-1.4-2.2-2.9l-1.1-1c0,0,1-1.1,1-1.2
			c0.1-1,1-2.3,1.4-2.7c0,0-2-1.3-2-1.3l-3,3.1l0-3.1H1.8z"/>
	</g>
	<g>
		<g>
			<path fill="#FFDF00" d="M42.4,31.9l2.5-0.2l0.1-2.6L42.2,29l0.1-0.8c0,0,2.5-0.2,2.8-0.2c0-0.5-0.2-2.4-0.2-2.4l-5.6,0
				c1.9,4.1,0.8,8.6-0.5,10.2c0.5,0,6.3,0,6.3,0l0.1-2.8l-2.9-0.2L42.4,31.9z"/>
			<path fill="#FFDF00" d="M50.4,32.5c-1.5,1.5-3.6,0.2-3.6-1.6c0-1.8,1.3-3.1,3.3-2.1c0.5-0.6,1.6-1.8,1.6-1.8
				c-1.3-2-5-1.9-6.4-0.5c0,0.3,0,0.3,0.1,1.7c0,0-1,0.1-1.3,0.1c-0.1,0.3-0.2,0.5-0.1,0.7c0.3,0,1.2,0.1,1.2,0.1l-0.1,2.9
				c0,0-1.2,0.1-1.2,0.1c0,0.1,0.1,0.5,0.2,0.7c0,0,1.4,0.1,1.4,0.1s-0.1,1.9-0.1,1.9c1.2,1.6,4.9,1.7,6.9-0.3
				C52.4,34.4,50.5,32.5,50.4,32.5z"/>
			<path fill="#FFDF00" d="M58.3,25.6l-8.1,0c0.8,0.3,1.4,0.9,1.7,1.5c0,0-1.5,1.7-1.5,1.7l2.4,0l0.1,7.1l3.1,0l-0.1-7.1l2.3,0
				L58.3,25.6z"/>
		</g>
		<path fill="#BE202E" d="M58.5,25.4l-8.3,0l0,0.2c-0.6-0.2-1.2-0.3-1.9-0.3c-1.2,0-2.3,0.4-3,1c0-0.4,0-0.6-0.1-0.7l0-0.2l-6.1,0
			l0.1,0.3c1.8,3.9,0.9,8.3-0.4,10L38.5,36l0.4,0c0.4,0,3.2,0,4.8,0l1.6,0l0-1c0.6,0.7,1.8,1.1,3.1,1.1c1.5,0,3-0.6,4-1.6l0.1-0.1
			v-0.1c0-0.1,0-0.1-1-1.1c-1-1-1-1-1.1-1h-0.1l-0.1,0.1c-0.4,0.4-0.8,0.6-1.3,0.6c-1,0-1.9-0.9-1.9-2c0-0.6,0.2-1.2,0.5-1.6
			c0.6-0.7,1.5-0.8,2.5-0.3l0.1,0.1l0.1-0.1c0,0,0,0,0,0l2.4,0l0.1,7.1l3.5,0l-0.1-7.1l2.3,0L58.5,25.4z M43.9,32.7l-1.3-0.1l0-0.5
			l1.3-0.1l0,0l-0.2,0C43.7,32.2,43.8,32.4,43.9,32.7z M43.8,35.6c-1.4,0-3.5,0-4.4,0c1.3-1.9,2-6,0.4-9.8l5.1,0
			c0,0.4,0.1,1.5,0.1,2c-0.7,0-2.6,0.2-2.6,0.2l-0.2,0L42,29.2l2.8,0.2l-0.1,2.2l-2.5,0.2l0,1.2l2.9,0.2L45,35.6L43.8,35.6z
			 M43.9,28.3c-0.1,0.2-0.1,0.4-0.1,0.6l-1.3-0.1l0.1-0.5C42.8,28.3,43.3,28.3,43.9,28.3z M50,28.5c-0.4-0.2-0.8-0.3-1.2-0.3
			c-0.6,0-1.2,0.3-1.6,0.8c-0.4,0.5-0.6,1.2-0.6,1.9c0,1.3,1.1,2.4,2.3,2.4c0.5,0,1-0.2,1.5-0.6c0.3,0.3,1.3,1.3,1.6,1.6
			c-0.9,0.8-2.2,1.3-3.6,1.3c-1.3,0-2.3-0.4-2.9-1.1c0-0.2,0-0.4,0-0.9c0-0.5,0-0.9,0-0.9l0-0.2l-0.2,0c0,0-1-0.1-1.3-0.1
			c0-0.1-0.1-0.2-0.1-0.3c0.3,0,0.7-0.1,1-0.1l0.2,0l0.1-3.3l-0.2,0c0,0-0.6,0-1,0c0-0.1,0-0.2,0.1-0.3c0.4,0,1.2-0.1,1.2-0.1l0.2,0
			l0-0.2c0-0.5-0.1-0.8-0.1-1.1c0-0.3,0-0.4,0-0.5c0.6-0.6,1.7-0.9,2.8-0.9c1.4,0,2.5,0.5,3.1,1.3C51.2,27.3,50.5,28,50,28.5z
			 M58.1,28.5l-2.3,0l0.1,7l-2.7,0L53,28.5l-2.1,0l0.4-0.5c0.8-0.9,0.8-0.9,0.8-1.1c-0.2-0.4-0.6-0.8-1.1-1.2l7.1,0L58.1,28.5z"/>
	</g>
	<g>
		<g>
			<g>
				<path fill="#FFDF00" d="M17.3,27.3c-0.8-0.9-1.7-1.2-3.3-1.2c-2.9,0-4.7,2.6-4.7,4.9c0,2.4,2,4.8,4.7,4.8c1,0,1.8-0.2,2.4-0.7
					C15.6,32.4,16.1,29.5,17.3,27.3z M14,32.7c-1,0-1.8-0.9-1.8-2c0-1.1,0.7-2,1.8-2c1,0,1.7,0.9,1.7,2C15.7,31.8,15,32.7,14,32.7z"
					/>
			</g>
		</g>
		<g>
			<path fill="#BE202E" d="M12,30.6c0,1.2,0.9,2.2,2,2.2c1.1,0,1.9-0.9,1.9-2.2c0-1.3-0.8-2.2-1.9-2.2C12.9,28.4,12,29.4,12,30.6z
				 M14,28.8c0.9,0,1.5,0.8,1.5,1.8c0,1-0.6,1.8-1.5,1.8c-0.9,0-1.6-0.8-1.6-1.8C12.4,29.6,13.1,28.8,14,28.8z"/>
			<path fill="#BE202E" d="M17.5,27.3l-0.1-0.1c-0.8-0.9-1.8-1.3-3.5-1.3c-1.3,0-2.4,0.5-3.3,1.3c-0.1-0.1-0.5-0.4-2-1.3l-0.1-0.1
				l-2.8,2.8l0-2.8H1.7L1.6,37.6h4l0-4l4.7,5.8l3-2.2L12,35.6c0.6,0.3,1.2,0.4,1.9,0.4c1.1,0,2-0.2,2.5-0.7l0.1-0.1l0-0.1
				c-0.6-2.4-0.2-5.3,1-7.6L17.5,27.3z M9.1,31.9l-0.7-0.7c0.3-0.3,0.5-0.6,0.6-0.7c0,0.2,0,0.3,0,0.5C9,31.3,9.1,31.6,9.1,31.9z
				 M10.4,38.9l-5.1-6.4l0,4.7H2l0.1-11h3.3l0,3.4l3.3-3.3c0.6,0.4,1.3,0.8,1.6,1.1C9.8,27.9,9.1,29,8.9,30
				c-0.1,0.1-0.5,0.7-0.9,1.1l-0.1,0.1L9,32.4c0.5,1.8,1.7,2.6,2.3,2.9l1.5,1.8L10.4,38.9z M16.1,35c-0.5,0.4-1.2,0.6-2.2,0.6
				c-2.7,0-4.5-2.4-4.5-4.6c0-2.3,1.8-4.7,4.5-4.7c1.5,0,2.3,0.3,3.1,1.1C15.8,29.7,15.5,32.6,16.1,35z"/>
		</g>
	</g>
	<g>
		<path fill="#E96D5D" d="M22.4,19.6c12.5-2.9,19.7,7.3,15.9,15.2C40.9,26.2,33.9,17.2,22.4,19.6z"/>
	</g>
	<g>
		<path fill="#E96D5D" d="M34.8,42.4c-14.8,3.4-21-8.1-15.9-15.5C15,33.7,19.9,45.3,34.8,42.4z"/>
	</g>
</g>
</svg>
