<?xml version="1.0" encoding="utf-8"?>
<!-- Generator: Adobe Illustrator 17.1.0, SVG Export Plug-In . SVG Version: 6.00 Build 0)  -->
<!DOCTYPE svg PUBLIC "-//W3C//DTD SVG 1.1//EN" "http://www.w3.org/Graphics/SVG/1.1/DTD/svg11.dtd">
<svg version="1.1" id="Layer_1" xmlns="http://www.w3.org/2000/svg" xmlns:xlink="http://www.w3.org/1999/xlink" x="0px" y="0px"
	 viewBox="0 0 167 27.2" enable-background="new 0 0 167 27.2" xml:space="preserve">
<g>
	<path fill="#231F20" d="M10.8,25.7c-1.8,0-3.5-0.3-5.3-0.9c-1.7-0.6-3.3-1.5-4.7-2.8l3.1-3.6c1.1,0.9,2.2,1.6,3.3,2.1
		c1.1,0.5,2.4,0.8,3.7,0.8c1.1,0,1.9-0.2,2.5-0.6c0.6-0.4,0.9-0.9,0.9-1.6v-0.1c0-0.3-0.1-0.6-0.2-0.9c-0.1-0.3-0.4-0.5-0.7-0.7
		c-0.3-0.2-0.8-0.4-1.4-0.7c-0.6-0.2-1.4-0.5-2.4-0.7c-1.2-0.3-2.3-0.6-3.2-1c-1-0.3-1.8-0.8-2.5-1.3c-0.7-0.5-1.2-1.2-1.6-2
		S1.7,9.9,1.7,8.7V8.6c0-1.1,0.2-2,0.6-2.9c0.4-0.9,1-1.6,1.7-2.2c0.7-0.6,1.6-1.1,2.6-1.4c1-0.3,2.1-0.5,3.3-0.5
		c1.7,0,3.3,0.3,4.7,0.8c1.4,0.5,2.8,1.2,4,2.2l-2.7,3.9c-1.1-0.7-2.1-1.3-3.1-1.7c-1-0.4-2-0.6-3-0.6S8.1,6.3,7.6,6.7
		C7.1,7.1,6.8,7.5,6.8,8.1v0.1c0,0.4,0.1,0.7,0.2,1c0.1,0.3,0.4,0.5,0.8,0.8c0.4,0.2,0.9,0.4,1.6,0.6c0.7,0.2,1.5,0.4,2.5,0.7
		c1.2,0.3,2.2,0.7,3.2,1.1c0.9,0.4,1.7,0.9,2.4,1.4c0.6,0.5,1.1,1.2,1.4,1.9c0.3,0.7,0.5,1.6,0.5,2.7v0.1c0,1.2-0.2,2.2-0.6,3.1
		c-0.4,0.9-1,1.7-1.8,2.3c-0.8,0.6-1.7,1.1-2.7,1.4C13.2,25.5,12,25.7,10.8,25.7z"/>
	<path fill="#231F20" d="M20.5,1.9h5.5l4.9,15.9l5.3-16h4.4l5.3,16l4.9-15.9h5.4l-8,23.6h-4.5l-5.3-15.4L33,25.5h-4.5L20.5,1.9z"/>
	<path fill="#231F20" d="M59.3,1.9H77v4.6H64.4v4.8h11.1v4.6H64.4v4.9h12.7v4.6H59.3V1.9z"/>
	<path fill="#231F20" d="M81.1,1.9h10.7c3,0,5.3,0.8,6.8,2.4c1.3,1.3,2,3.1,2,5.4v0.1c0,1.9-0.5,3.4-1.4,4.6
		c-0.9,1.2-2.1,2.1-3.6,2.6l5.7,8.4h-6l-5-7.5h-0.1h-4v7.5h-5.2V1.9z M91.5,13.3c1.3,0,2.3-0.3,2.9-0.9c0.7-0.6,1-1.4,1-2.4V9.9
		c0-1.1-0.4-2-1.1-2.5c-0.7-0.6-1.7-0.8-3-0.8h-5.1v6.8H91.5z"/>
	<path fill="#231F20" d="M102,1.9h5.7l6.1,16.5L120,1.9h5.6L116,25.5h-4.6L102,1.9z"/>
	<path fill="#231F20" d="M128.5,1.9h17.7v4.6h-12.6v4.8h11.1v4.6h-11.1v4.9h12.7v4.6h-17.8V1.9z"/>
</g>
</svg>
