<?xml version="1.0" encoding="utf-8"?>
<!-- Generator: Adobe Illustrator 17.1.0, SVG Export Plug-In . SVG Version: 6.00 Build 0)  -->
<!DOCTYPE svg PUBLIC "-//W3C//DTD SVG 1.1//EN" "http://www.w3.org/Graphics/SVG/1.1/DTD/svg11.dtd">
<svg version="1.1" id="Logo" xmlns="http://www.w3.org/2000/svg" xmlns:xlink="http://www.w3.org/1999/xlink" x="0px" y="0px"
	 viewBox="0 0 52.6 25.1" enable-background="new 0 0 52.6 25.1" xml:space="preserve">
<g>
	<g>
		<path fill="#4A276E" d="M52.1,6.5c-0.2-0.2-0.5-0.3-0.8-0.3c0,0,0,0,0,0l-7.2,0c-0.1,0-0.2,0-0.3,0c-0.4-0.1-0.9-0.2-1.4-0.2
			c-0.4,0-0.8,0-1.1,0.1c-0.4,0.1-0.7,0.2-1,0.3c-0.2-0.2-0.5-0.3-0.7-0.3h-4.7c-1-1.8-2.4-3.4-4.3-4.4C28.5,0.6,26,0,23.2,0
			c-0.8,0-1.6,0-2.4,0.1c-1.7,0.2-3,0.4-4.2,1.2c-1.3,0.8-1.6,2-1.3,2.9C15.5,5.2,16.6,6,17.7,6c0.5,0,1-0.1,1.4-0.4
			c0.2-0.1,0.4-0.3,0.7-0.4c0.4-0.3,0.9-0.6,1.5-0.9c0.9-0.4,1.8-0.6,2.8-0.6c1.8,0,3.4,0.7,4.6,2.1c0.6,0.6,1,1.4,1.4,2.2
			c-0.4-0.5-0.8-1-0.9-1.2c-0.2-0.2-0.4-0.3-0.6-0.3c-0.1,0-0.4-0.1-3.3-0.1h0c-0.1,0-0.3,0-0.4,0.1c-0.1-0.1-0.3-0.1-0.4-0.1
			c-0.4,0-0.7,0-1,0c-1.1,0-1.1,0-1.2,0c-0.3,0.1-0.8,0.3-0.9,1.2c0,0.1,0,0.3,0,0.5c-0.9-1.5-1.1-1.6-1.4-1.7
			c-0.1,0-0.2-0.1-0.3-0.1c0,0-0.3,0-0.7,0c-2.5,0-2.9,0.2-3.1,0.3c-0.2,0.1-0.3,0.2-0.4,0.3c-0.1,0.1-0.2,0.3-0.3,0.4
			c-0.8-0.5-1.8-0.8-3-0.8c-1.1,0-2.1,0.4-3,1L7.8,6.8C7.7,6.7,7.5,6.7,7.3,6.7C7,6.7,6.7,6.8,6.5,7L5.7,7.8l0-0.2
			c0-0.3-0.1-0.6-0.3-0.8C5.2,6.7,4.9,6.6,4.6,6.6H1.3c-0.6,0-1.1,0.5-1.1,1.1L0.2,17.8c0,0.3,0.1,0.6,0.3,0.8
			c0.2,0.2,0.5,0.3,0.8,0.3h3.2c0.6,0,1.1-0.5,1.1-1.1l0-0.9L8,20c0.2,0.3,0.5,0.4,0.8,0.4c0.2,0,0.4-0.1,0.6-0.2l2.4-1.8
			c0.2-0.2,0.4-0.4,0.4-0.7c0-0.1,0-0.2,0-0.3c0.6,0,1.1-0.1,1.5-0.3c0.1,0.4,0.3,0.7,0.5,1.1c2,3.9,6.3,6.1,11.8,6.1
			c1.1,0,2.3-0.1,3.5-0.3c1.6-0.2,3-0.8,3.7-1.3c1.3-0.8,1.5-2.1,1.3-2.9c-0.3-1-1.2-1.7-2.2-1.7c-0.5,0-1.2,0.1-1.9,0.8
			c-0.5,0.5-0.7,0.6-1.2,0.9c-0.7,0.4-1.8,0.7-2.9,0.7c-2,0-4.7-0.7-6.3-2.8c-0.7-0.9-1.1-2-1.2-3.3c0.1,0.2,0.2,0.4,0.3,0.5
			c0.3,0.5,0.6,0.9,0.8,1.3c0.3,0.6,0.6,1,1.3,1c0,0,0.1,0,0.2,0c0.4,0,1.5,0,2.6,0c0.2,0,0.3,0,0.4-0.1c0.1,0.1,0.3,0.1,0.4,0.1
			c0.9,0,2,0,2.2,0c0.4,0,1-0.3,1.1-1.3c0-0.2,0-0.6,0-1v0c1.1,2,1.2,2,1.5,2.2c0.4,0.3,1.6,0.3,2.3,0.3c0.4,0,1,0,1.6-0.1
			c0.1,0,0.2,0,0.3,0c0.5,0,5.6,0,5.8,0h0c0.3,0,0.6-0.1,0.8-0.3c0.6,0.3,1.4,0.4,2.2,0.4c1.1,0,2.1-0.3,2.9-0.7
			c0.2,0.4,0.5,0.6,1,0.6l2.8,0h0c0.3,0,0.6-0.1,0.8-0.3c0.2-0.2,0.3-0.5,0.3-0.8l-0.1-5.2l1,0c0.6,0,1-0.5,1.1-1.1l0-2.8
			C52.4,7,52.3,6.7,52.1,6.5z M8.8,19.3l-4.4-5.4l0,3.9H1.2L1.3,7.7h3.3l0,2.8l2.7-2.7l1,0.7c-0.9,1-1.5,2.4-1.5,3.7
			c0,2.3,1.7,4.7,4.2,5.2l0.2,0.3L8.8,19.3z M33.2,15.6c-0.2,0.2-0.3,0.5-0.3,0.7c-0.3,0-0.6,0-0.8,0c-0.9,0-1.6-0.1-1.7-0.2
			c-0.2-0.1-3-5.2-3.1-5.2c0,0,0,0,0,0c-0.1,0.1,0.2,5.2-0.1,5.2c-0.1,0-1,0-2.1,0c-0.1,0-0.3-0.8-0.4-0.8c-0.1,0-0.4,0.8-0.5,0.8
			c-1.4,0-2.7,0-2.8,0l0,0c-0.2,0-2.7-4.7-3.1-4.7c0,0,0,0,0,0c-1.8,7,3.7,10,8.2,10c1.4,0,2.6-0.3,3.5-0.8c0.6-0.4,0.8-0.5,1.4-1.1
			c0.4-0.4,0.8-0.5,1.1-0.5c1.2,0,1.9,1.6,0.4,2.6c-0.5,0.3-1.7,0.9-3.3,1.1c-1.2,0.2-2.3,0.3-3.4,0.3c-6.2,0-10-2.9-11.3-6.6
			c0.1-0.1,0.2-0.2,0.3-0.3c0.2-0.3,0.3-0.6,0.2-1c-0.6-2.2,0.1-4.7,0.8-5.7c0.3-0.4,0.2-0.9-0.1-1.3c0,0-0.1-0.1-0.1-0.1
			C16,8,16.1,7.8,16.2,7.7c0.4-0.2,1.8-0.2,2.6-0.2c0.4,0,0.6,0,0.6,0c0.2,0.1,2.9,4.6,2.9,4.6s-0.1-4.5,0-4.6c0,0,0.4,0,1,0
			c0.3,0,0.6,0,1,0c0.2,0.2,0.4,0.6,0.4,0.8C24.9,8,25,7.6,25.1,7.5c1.4,0,2.9,0,3.1,0.1c0.6,0.6,2.9,3.8,3.3,4.3
			C32,7,28.6,2.7,24,2.7c-1,0-2.1,0.2-3.2,0.7c-1,0.4-1.8,1.1-2.2,1.3c-0.3,0.2-0.6,0.2-0.9,0.2c-1.4,0-2.3-1.7-0.6-2.7
			c1.1-0.7,2.2-0.8,3.8-1c0.8-0.1,1.6-0.1,2.3-0.1c5.5,0,8.9,2.4,10.6,5.4c-0.1,0.1-0.2,0.2-0.3,0.3c-0.2,0.3-0.2,0.7-0.1,1
			C35,11,34.1,14.5,33.2,15.6z M35,16.3c1.4-2.5,1.5-6,0.3-9h3.7c0,0,0,0,0,0c-0.2,0.2-0.3,0.4-0.3,0.7c0,0.1,0,0.3,0,0.5
			c0,0,0,0-0.1,0c-0.4,0-0.7,0.2-0.9,0.6c-0.1,0.1-0.1,0.3-0.2,0.4c-0.3,0-0.5,0-0.5,0l-0.1,0.7l0.5,0c0,0,0,0,0,0
			c0.1,0.5,0.4,0.9,1,0.9c0,0,0,0,0.1,0l0,0.6c0,0,0,0,0,0c-0.3,0-0.6,0.2-0.8,0.4c-0.1,0.2-0.2,0.4-0.2,0.6l-0.3,0l0,0.7l0.4,0
			c0,0.1,0.1,0.3,0.2,0.4c0.1,0.2,0.4,0.4,0.7,0.5c0,0,0.1,0,0.4,0.1c0,0.2,0,0.4,0,0.5c0,0.3,0,0.5,0.2,0.8
			c0.1,0.1,0.2,0.3,0.3,0.4C38.6,16.3,36.4,16.3,35,16.3z M42.7,16.4c-0.7,0-1.3-0.1-1.9-0.4l0.1-2.2c0-0.4-0.1-0.7-0.4-0.9
			c0-0.1,0-0.1,0-0.2l0.1-2.3c0-0.1,0-0.3-0.1-0.4c0.2-0.2,0.2-0.4,0.2-0.7c0-0.3-0.1-1.3-0.1-1.8c0.5-0.2,1.2-0.4,1.8-0.4
			c0.2,0,0.4,0,0.6,0c0,0.5,0.2,0.9,0.7,1.1c0.2,0.1,0.3,0.2,0.5,0.2c-0.3,0.4-0.7,0.8-0.7,0.8c-0.1,0.1-0.2,0.3-0.2,0.5
			c-0.1,0-0.2,0-0.3,0c-1.1,0-1.8,1-1.8,2.2c0,1.1,0.9,2,1.9,2c0.4,0,0.9-0.2,1.3-0.6c0,0,0.6,0.6,1.1,1.1l0,1
			C44.7,16.1,43.7,16.4,42.7,16.4z M51.3,10.1l-2.1,0l0.1,6.3l-2.8,0l0-0.2c0.1-0.1,0.2-0.1,0.2-0.2c0.2-0.2,0.3-0.5,0.3-0.8
			c0-0.4-0.2-0.6-0.6-1l0,0l0-4l-1,0c0.4-0.4,0.7-0.8,0.7-0.8c0.3-0.4,0.3-0.9,0.1-1.3c-0.2-0.3-0.4-0.5-0.6-0.7l5.6,0L51.3,10.1z"
			/>
	</g>
	<g>
		<path fill="#BE202E" d="M19.5,7.4c0,0-2.7-0.1-3.2,0.2c-4.9,7-0.3,17.4,13.2,15.3c1.6-0.2,2.8-0.8,3.3-1.1c2-1.3,0.1-3.7-1.5-2.1
			c-0.6,0.6-0.8,0.7-1.4,1.1c-3.8,2.3-14.1-0.1-11.7-9.2c0.4-0.1,2.9,4.7,3.1,4.7c0.1,0,1.5,0,2.9,0c0.1,0,0.3-0.4,0.4-0.6
			c0.1,0.2,0.3,0.6,0.4,0.6c1.1,0,2,0,2.2,0c0.3-0.1,0-5.1,0.1-5.2c0.1-0.1,2.9,5.1,3.1,5.2c0.2,0.1,2.1,0.3,3.3,0
			c3.3-4.6,0.7-16.5-12.8-15c-1.6,0.2-2.7,0.3-3.8,1c-2,1.3-0.2,3.4,1.6,2.5c0.5-0.2,1.2-0.9,2.2-1.3c6.1-2.5,11.3,2.6,10.7,8.5
			c-0.4-0.6-2.6-3.7-3.1-4.3c-0.2,0-1.8-0.1-3.3-0.1c-0.1,0-0.3,0.4-0.3,0.6c-0.1-0.2-0.3-0.6-0.4-0.6c-1.1,0-2,0-2.1,0
			c-0.1,0,0,4.6,0,4.6S19.7,7.5,19.5,7.4z"/>
		<path fill="#FFDF00" d="M26.1,23.3c-5.1,0-9.1-2-10.9-5.6c-1.6-3.2-1.3-7.1,0.9-10.2l0,0l0,0c0.3-0.1,1.1-0.2,2.5-0.2
			c0.5,0,0.8,0,0.8,0h0l0,0c0.2,0.1,1.7,2.5,2.7,4.2c0-0.4,0-1.1,0-1.8c0-2.4,0-2.4,0.2-2.4c0,0,0.1,0,1.2,0c0.3,0,0.6,0,0.9,0
			c0.1,0,0.3,0.2,0.4,0.4c0.2-0.4,0.3-0.4,0.3-0.4c0.7,0,3,0,3.3,0.1l0,0l0,0c0.4,0.5,1.6,2.2,2.5,3.4c0.2,0.3,0.4,0.5,0.5,0.7
			c0.2-2.3-0.6-4.6-2.1-6.3C27.9,3.7,26,2.8,24,2.8c-1,0-2.1,0.2-3.1,0.7c-0.6,0.3-1.2,0.6-1.6,0.9c-0.2,0.2-0.4,0.3-0.6,0.4
			c-0.3,0.2-0.6,0.3-1,0.3c-0.8,0-1.4-0.5-1.6-1.1c-0.2-0.7,0.2-1.3,0.9-1.8c1.1-0.7,2.2-0.8,3.8-1c0.8-0.1,1.6-0.1,2.3-0.1
			c6.8,0,9.7,3.7,10.8,5.8c1.6,3.1,1.5,7.1-0.2,9.5l0,0l0,0c-0.6,0.1-1.2,0.2-1.7,0.2c-0.8,0-1.6-0.1-1.8-0.2
			c-0.1-0.1-0.4-0.5-1.6-2.6c-0.5-0.9-1.1-1.9-1.4-2.3c0,0.3,0,0.8,0,1.3c0.1,3.4,0,3.7-0.2,3.7l0,0c-0.1,0-0.9,0-2.2,0
			c-0.1,0-0.3-0.2-0.4-0.4c-0.2,0.4-0.3,0.4-0.3,0.4c-1.1,0-2.2,0-2.7,0l-0.2,0c-0.1,0-0.2-0.1-1.3-1.9c-0.6-1-1.4-2.4-1.7-2.7
			c-0.6,2.6-0.3,4.8,1,6.5c1.8,2.3,4.8,3.1,7,3.1l0,0c1.4,0,2.6-0.3,3.4-0.8c0.6-0.3,0.8-0.5,1.4-1.1c0.4-0.4,0.8-0.5,1.2-0.5
			c0.6,0,1.1,0.4,1.3,1c0.2,0.7-0.1,1.4-0.9,1.9c-0.6,0.4-1.9,0.9-3.4,1.2C28.3,23.3,27.2,23.3,26.1,23.3z M16.3,7.7
			c-2.1,3-2.5,6.8-0.9,9.9c1.8,3.5,5.7,5.5,10.7,5.5c1.1,0,2.2-0.1,3.3-0.3c1.5-0.2,2.7-0.7,3.3-1.1c0.7-0.4,0.9-1,0.8-1.6
			c-0.1-0.5-0.6-0.8-1.1-0.8c-0.4,0-0.7,0.2-1,0.5c-0.6,0.6-0.8,0.7-1.4,1.1c-0.9,0.5-2.2,0.8-3.6,0.8l0,0c-2.3,0-5.4-0.8-7.2-3.2
			c-1.4-1.8-1.8-4.2-1-6.9l0-0.1l0.1,0c0.2,0,0.6,0.6,2,2.9c0.4,0.7,0.9,1.6,1.1,1.7h0.2c0.5,0,1.5,0,2.7,0c0.1-0.1,0.2-0.3,0.3-0.5
			l0.1-0.3l0.1,0.3c0.1,0.2,0.2,0.5,0.3,0.5c0.9,0,1.8,0,2.1,0c0.1-0.3,0.1-2.3,0-3.5c0-1.6,0-1.6,0-1.7l0-0.1l0.1,0
			c0.1,0,0.1,0,1.7,2.7c0.6,1.1,1.4,2.4,1.5,2.5c0.1,0.1,0.8,0.1,1.6,0.1c0.4,0,1,0,1.6-0.1c1.6-2.3,1.7-6.2,0.1-9.2
			c-1.1-2.1-3.9-5.7-10.6-5.7c-0.7,0-1.5,0-2.3,0.1c-1.6,0.2-2.7,0.3-3.7,1c-0.7,0.4-1,1-0.8,1.5c0.2,0.6,0.7,1,1.4,1
			c0.3,0,0.6-0.1,0.9-0.2c0.1-0.1,0.3-0.2,0.5-0.4c0.4-0.3,1-0.7,1.7-1C21.9,2.8,23,2.6,24,2.6c2.1,0,4,0.9,5.5,2.5
			c1.6,1.8,2.4,4.3,2.2,6.8l0,0.3l-0.2-0.3c-0.1-0.2-0.4-0.5-0.7-1c-0.8-1.1-2-2.8-2.4-3.3c-0.3,0-1.5-0.1-3.2-0.1
			c-0.1,0.1-0.2,0.2-0.3,0.5l-0.1,0.3l-0.1-0.3c-0.1-0.2-0.2-0.4-0.3-0.5c-0.3,0-0.6,0-0.9,0c-0.6,0-0.9,0-1.1,0
			c-0.1,0.5,0,2.9,0,4.4l-0.2,0.1c-1-1.6-2.5-4.3-2.8-4.5c-0.1,0-0.4,0-0.8,0C17.5,7.6,16.6,7.6,16.3,7.7z"/>
	</g>
	<g>
		<g>
			<path fill="#FFDF00" d="M1.3,7.7L1.2,17.8h3.2l0-3.9l4.4,5.4l2.4-1.8l-1.5-1.8c-0.8-0.4-1.6-1.3-2-2.6l-0.9-0.9c0,0,0.9-1,0.9-1
				C7.9,10.3,8.6,9.2,9,8.9c0,0-1.8-1.1-1.8-1.1l-2.7,2.7l0-2.8H1.3z"/>
		</g>
		<g>
			<g>
				<path fill="#BE202E" d="M8.8,19.6l-4.2-5.2l0,3.6H1.1L1.1,7.5h3.6l0,2.5l2.5-2.5l0.1,0.1c1.8,1.2,1.8,1.2,1.8,1.3l0,0.1L9.1,9
					c-0.3,0.3-1.1,1.4-1.2,2.3c0,0.1,0,0.1-0.8,1L8,13.2l0,0c0.4,1.5,1.5,2.2,1.9,2.5l0,0l1.6,1.9L8.8,19.6L8.8,19.6z M4.3,13.4
					l4.6,5.7l2.1-1.6l-1.3-1.6c-0.5-0.3-1.5-1-2-2.6l-1-1l0.1-0.1c0.4-0.4,0.7-0.9,0.8-1c0.1-0.9,0.7-1.9,1.1-2.3
					C8.4,8.7,7.8,8.3,7.3,8l-2.9,2.9l0-3H1.5l-0.1,9.8h2.9L4.3,13.4L4.3,13.4z"/>
			</g>
		</g>
	</g>
	<g>
		<g>
			<path fill="#FFDF00" d="M34.6,7.3l4.9,0c0,0,0.1,1.7,0.2,2.1c-0.3,0-2.5,0.2-2.5,0.2l-0.1,0.7l2.4,0.1l-0.1,2.3l-2.2,0.2l0,0.7
				l2.6,0.2l-0.1,2.5c0,0-5.1,0-5.6,0C35.4,14.9,36.3,10.9,34.6,7.3z"/>
		</g>
		<g>
			<g>
				<path fill="#BE202E" d="M38.5,16.5c-1.5,0-4,0-4.3,0l-0.4,0l0.2-0.3c1.2-1.5,2-5.4,0.4-8.8l-0.1-0.3l5.4,0l0,0.2
					c0,0.1,0.1,1.7,0.2,2.1l0,0.2l-0.2,0c-0.2,0-1.9,0.1-2.4,0.2l0,0.4l2.4,0.1l-0.1,2.6l-2.2,0.2l0,0.4l2.6,0.2l-0.1,2.9L38.5,16.5
					L38.5,16.5z M34.5,16.1c0.8,0,2.7,0,3.9,0l1.1,0l0.1-2.2l-2.6-0.2l0-1.1l2.2-0.2l0.1-2l-2.4-0.1l0.1-1.1l0.1,0
					c0,0,1.7-0.1,2.3-0.2c0-0.5-0.1-1.4-0.1-1.8l-4.5,0C36.3,10.8,35.7,14.5,34.5,16.1L34.5,16.1z"/>
			</g>
		</g>
	</g>
	<g>
		<g>
			<path fill="#FFDF00" d="M45.5,8.5c-1.1-1.8-4.4-1.7-5.7-0.5c0,0.3,0,0.3,0.1,1.5c0,0-0.9,0.1-1.1,0.1c-0.1,0.3-0.1,0.5-0.1,0.6
				c0.3,0,1.1,0,1.1,0l-0.1,2.6c0,0-1,0.1-1,0.1c0,0.1,0.1,0.4,0.2,0.6c0,0,1.3,0.1,1.3,0.1S40,15.3,40,15.3
				c1.1,1.5,4.3,1.5,6.1-0.2c0,0-1.7-1.7-1.7-1.7c-1.3,1.3-3.2,0.2-3.2-1.4c0-1.6,1.2-2.8,2.9-1.9C44.6,9.6,45.5,8.5,45.5,8.5z"/>
		</g>
		<g>
			<g>
				<path fill="#BE202E" d="M42.7,16.6c-1.2,0-2.3-0.4-2.9-1.2l-0.2-0.3h0.2c0-0.3,0-0.9,0-1.3l-0.5,0c-0.7,0-0.8,0-0.8-0.2
					c-0.1-0.2-0.2-0.5-0.2-0.6l0.2,0l0-0.2c0,0,0.5,0,0.9-0.1l0.1-2.3c-0.3,0-0.7,0-0.9,0l-0.1,0l0-0.1c0-0.2,0-0.5,0.1-0.7l0-0.1
					l0.1,0c0.2,0,0.7-0.1,1-0.1c0-0.4-0.1-0.6-0.1-0.8c0-0.3,0-0.4,0-0.6l0-0.1l0,0c0.6-0.6,1.7-1,2.8-1c1.4,0,2.6,0.5,3.1,1.5
					l0.1,0.1l-0.1,0.1c0,0-0.9,1.1-1.4,1.6l-0.1,0.1L44,10.3c-0.9-0.4-1.7-0.3-2.2,0.3c-0.3,0.4-0.4,0.9-0.4,1.4
					c0,1,0.8,1.8,1.7,1.8l0,0c0.4,0,0.8-0.2,1.2-0.5l0.1-0.1h0.1c0.1,0,0.1,0,1,0.9c0.9,0.9,0.9,0.9,0.9,1v0.1l-0.1,0.1
					C45.3,16.1,44,16.6,42.7,16.6L42.7,16.6z M40.2,15.3c0.5,0.6,1.4,1,2.5,1c1.2,0,2.3-0.4,3.2-1.2c-0.3-0.3-1.1-1.2-1.4-1.5
					c-0.4,0.3-0.8,0.5-1.3,0.5l0,0c-1.1,0-2.1-1-2.1-2.1c0-0.6,0.2-1.2,0.5-1.7c0.4-0.5,0.9-0.7,1.4-0.7c0.3,0,0.7,0.1,1.1,0.3
					c0.4-0.4,1-1.1,1.2-1.4c-0.5-0.7-1.6-1.2-2.8-1.2c-1,0-2,0.3-2.5,0.8c0,0.1,0,0.2,0,0.4c0,0.2,0,0.5,0.1,0.9l0,0.2l-0.2,0
					c0,0-0.7,0.1-1,0.1c0,0.1-0.1,0.2-0.1,0.3c0.4,0,0.9,0,0.9,0l0.2,0l-0.1,2.9l-0.2,0c-0.2,0-0.6,0.1-0.8,0.1c0,0.1,0,0.2,0.1,0.3
					c0.3,0,1.2,0.1,1.2,0.1l0.2,0l0,0.2c0,0,0,0.4,0,0.8C40.2,14.9,40.2,15.1,40.2,15.3L40.2,15.3z"/>
			</g>
		</g>
	</g>
	<g>
		<g>
			<path fill="#FFDF00" d="M44.2,7.3l7.1,0l0,2.8l-2.1,0l0.1,6.3l-2.8,0L46.5,10l-2.1,0c0,0,1.3-1.5,1.3-1.5
				C45.4,8,44.9,7.5,44.2,7.3z"/>
		</g>
		<g>
			<g>
				<path fill="#BE202E" d="M49.5,16.5l-3.1,0l-0.1-6.3l-2.3,0l0.3-0.3c0.4-0.5,1-1.1,1.2-1.4c-0.3-0.5-0.8-0.9-1.4-1.1l0.1-0.3
					l7.3,0l0,3.1l-2.1,0L49.5,16.5L49.5,16.5z M46.8,16.1l2.4,0l-0.1-6.3l2.1,0l0-2.4l-6.3,0c0.4,0.3,0.8,0.6,1,1
					c0.1,0.1,0.1,0.1-0.7,0.9l-0.4,0.4l1.9,0L46.8,16.1L46.8,16.1z"/>
			</g>
		</g>
	</g>
	<g>
		<g>
			<g>
				<path fill="#FFDF00" d="M15,8.8c-0.7-0.8-1.5-1.1-2.9-1.1c-2.5,0-4.2,2.3-4.2,4.4c0,2.1,1.7,4.2,4.1,4.2c0.9,0,1.6-0.2,2.1-0.6
					C13.5,13.4,14,10.7,15,8.8z M12.1,13.6c-0.9,0-1.6-0.8-1.6-1.8c0-1,0.7-1.8,1.6-1.8c0.9,0,1.5,0.8,1.5,1.8
					C13.6,12.8,13,13.6,12.1,13.6z"/>
			</g>
		</g>
		<g>
			<g>
				<g>
					<path fill="#BE202E" d="M12,16.5c-2.6,0-4.3-2.3-4.3-4.4c0-2.2,1.8-4.5,4.4-4.5c1.5,0,2.3,0.3,3.1,1.2l0.1,0.1l-0.1,0.1
						c-1.1,2-1.4,4.6-0.9,6.7l0,0.1l-0.1,0.1C13.7,16.3,13,16.5,12,16.5L12,16.5z M12,7.9c-2.4,0-4,2.2-4,4.2c0,2,1.6,4,4,4
						c0.9,0,1.5-0.2,1.9-0.5c-0.5-2.1-0.2-4.7,0.9-6.8C14.1,8.2,13.3,7.9,12,7.9L12,7.9z M12.1,13.7c-1,0-1.7-0.9-1.7-2
						c0-1.1,0.8-2,1.7-2c1,0,1.7,0.8,1.7,2C13.7,12.9,13,13.7,12.1,13.7L12.1,13.7z M12.1,10.2c-0.8,0-1.4,0.7-1.4,1.6
						c0,0.9,0.6,1.6,1.4,1.6c0.8,0,1.3-0.7,1.3-1.6C13.4,10.8,12.8,10.2,12.1,10.2L12.1,10.2z"/>
				</g>
			</g>
		</g>
	</g>
	<g>
		<path fill="#E96D5D" d="M19.5,1.9C30.6-0.6,37,8.4,33.6,15.4C35.9,7.9,29.7-0.2,19.5,1.9z"/>
	</g>
	<g>
		<path fill="#E96D5D" d="M30.5,22.2c-13.2,3-18.6-7.2-14.1-13.7C13,14.5,17.3,24.8,30.5,22.2z"/>
	</g>
</g>
</svg>
