<?xml version="1.0" encoding="utf-8"?>
<!-- Generator: Adobe Illustrator 17.1.0, SVG Export Plug-In . SVG Version: 6.00 Build 0)  -->
<!DOCTYPE svg PUBLIC "-//W3C//DTD SVG 1.1//EN" "http://www.w3.org/Graphics/SVG/1.1/DTD/svg11.dtd">
<svg version="1.1" id="Layer_1" xmlns="http://www.w3.org/2000/svg" xmlns:xlink="http://www.w3.org/1999/xlink" x="0px" y="0px"
	 viewBox="-17.5 -17.5 60 60" enable-background="new -17.5 -17.5 60 60" xml:space="preserve">
<g>
	<path fill="#FFF200" d="M40.6,2.5C37.7,1.3,32-0.9,23.7-2c-3.7-7-7.4-11.5-9.5-13.7c-1.6-1.8-3.2-0.2-3.4,0c0,0,0,0,0,0
		c0,0,0,0,0,0C6-10.9,2.8-5.6,1-2c-8.2,1.2-13.9,3.3-16.8,4.5c-2.2,0.9-1.3,3-1.2,3.2c0,0,0,0,0,0c0,0,0,0,0,0
		c3.4,6.9,8,12.1,10.7,14.8c-1.4,7.9-1.3,14.8-1.2,17.7c0.1,2.4,2.3,2.2,2.6,2.2c0,0,0,0,0,0c0,0,0,0,0,0c7.3-0.8,13.6-5.6,17.1-7.2
		c3.6,1.6,9.8,6.4,17.1,7.2h0c0,0,0,0,0,0c0.3,0,2.6,0.2,2.6-2.2c0.2-2.9,0.2-9.8-1.2-17.7c2.7-2.7,7.3-7.9,10.7-14.8c0,0,0,0,0,0
		c0,0,0,0,0,0C41.9,5.5,42.8,3.4,40.6,2.5z"/>
	<path fill="#EFDD00" d="M12.4,32.1c-7,0-13.2-3.8-16.5-9.5c0.7,1.5,1.5,3,2.6,4.3l0,0c0,0,2.7,6.7,9.3,9c1.7-0.9,3.1-1.8,4.3-2.4
		c0,0,0,0,0.1,0c0.1,0,0.1,0,0.2,0c7.4,0,13.7-4.5,16.5-10.9C25.6,28.3,19.5,32.1,12.4,32.1z M1.1,29.4L1.1,29.4
		C1.1,29.4,1.1,29.4,1.1,29.4L1.1,29.4z"/>
	<path fill="#EFDD00" d="M31.2,14.4c0.2-3.1-0.5-6.3-1.9-9.2c0.9,2.7,1.4,5.6,1.4,8.7c0,0.5,0,1,0,1.5c0,1.4-0.2,2.7-0.5,4.1
		c0,0.2-0.1,0.4-0.1,0.6c0,0,6.5-5.2,8.8-11.3C38.7,8.8,36.2,13.6,31.2,14.4z"/>
	<path fill="#FFFDE6" d="M-5.5,22.6c0,0,0.7,1.8,1.5,3c0,0-1.9,8-2.1,13.9C-6.1,39.5-6.7,30.1-5.5,22.6z"/>
	<path fill="#FFFDE6" d="M0.4-0.7c0,0-1,1.3-1.3,3c0,0-8.3-0.2-14.8,1.5C-15.7,3.7-9,1,0.4-0.7z"/>
	<path fill="#FFFDE6" d="M5.3-7.8c0,0,1.2-1.2,3.5-0.9c-0.1,0,0.8-4.1,3.6-7.2C12.4-15.9,9.2-13.5,5.3-7.8z"/>
</g>
<path fill="#231F20" d="M12.4,10.6c-2.6,0-4.9-1-6.2-2.5c0.7,2.4,3.2,4.1,6.2,4.1c3,0,5.6-1.8,6.2-4.1C17.4,9.6,15.1,10.6,12.4,10.6
	z"/>
<g>
	<path fill="#FFFFFF" d="M8.4,5.4c-1.9,0-3.5-2.7-3.5-6.1c0-3.4,1.6-6.1,3.5-6.1c1.9,0,3.5,2.7,3.5,6.1C11.9,2.6,10.3,5.4,8.4,5.4"
		/>
	<path fill="#231F20" d="M8.4-6.1c1.9,0,3.4,2.5,3.5,5.7c0-0.1,0-0.2,0-0.4c0-3.4-1.6-6.1-3.5-6.1c-1.9,0-3.5,2.7-3.5,6.1
		c0,0.1,0,0.2,0,0.4C5-3.6,6.5-6.1,8.4-6.1z"/>
	<ellipse fill="#1C75BC" cx="8.4" cy="1.1" rx="2.4" ry="4.2"/>
	<circle opacity="0.5" fill="#FFFFFF" cx="7.7" cy="-1.4" r="1.1"/>
</g>
<g>
	<path fill="#FFFFFF" d="M16.6,5.4c-1.9,0-3.5-2.7-3.5-6.1c0-3.4,1.6-6.1,3.5-6.1c1.9,0,3.5,2.7,3.5,6.1C20.1,2.6,18.6,5.4,16.6,5.4
		"/>
	<path fill="#231F20" d="M16.6-6.1c1.9,0,3.4,2.5,3.5,5.7c0-0.1,0-0.2,0-0.4c0-3.4-1.6-6.1-3.5-6.1c-1.9,0-3.5,2.7-3.5,6.1
		c0,0.1,0,0.2,0,0.4C13.3-3.6,14.8-6.1,16.6-6.1z"/>
	<path fill="#1C75BC" d="M16.6,5.3c-1.3,0-2.4-1.9-2.4-4.2c0-2.3,1.1-4.2,2.4-4.2C18-3.1,19-1.3,19,1.1C19,3.4,18,5.3,16.6,5.3"/>
	<circle opacity="0.5" fill="#FFFFFF" cx="15.8" cy="-1.4" r="1.1"/>
</g>
<path fill="#231F20" d="M4.1-6.3c0,0,0-0.1,0.1-0.3c0.1-0.2,0.2-0.5,0.4-0.8c0.1-0.2,0.2-0.3,0.3-0.5C5-8,5.1-8.2,5.3-8.3
	c0.1-0.1,0.2-0.1,0.3-0.2c0,0,0.1-0.1,0.1-0.1c0.1,0,0.1-0.1,0.2-0.1C6-8.8,6.1-8.8,6.2-8.9C6.3-8.9,6.5-9,6.6-9l0.2-0.1
	c0.1,0,0.1,0,0.2,0c0.1,0,0.2,0,0.4-0.1c0.2,0,0.5,0,0.7,0c0.2,0,0.4,0.1,0.6,0.1C8.8-9.1,8.9-9.1,9-9C9-9,9.1-9,9.2-8.9
	c0.2,0.1,0.3,0.1,0.4,0.2C9.8-8.6,9.9-8.6,10-8.5c0.2,0.1,0.3,0.2,0.3,0.2s-0.1,0-0.3,0c-0.1,0-0.2,0-0.4,0c-0.1,0-0.3,0-0.4,0
	c-0.1,0-0.2,0-0.3,0c-0.1,0-0.2,0-0.3,0c-0.2,0-0.4,0-0.6,0c-0.1,0-0.2,0-0.3,0c0,0-0.1,0-0.1,0c0,0-0.1,0-0.1,0
	c-0.1,0-0.2,0-0.3,0.1c0,0-0.1,0-0.1,0l-0.1,0c-0.1,0-0.2,0.1-0.3,0.1C6.5-8,6.4-8,6.3-7.9C6.1-7.9,6-7.8,5.8-7.7
	C5.6-7.6,5.5-7.5,5.3-7.3C5.2-7.2,5.1-7.1,4.9-7C4.7-6.8,4.5-6.6,4.3-6.5C4.3-6.4,4.2-6.4,4.1-6.3C4.1-6.3,4.1-6.3,4.1-6.3z"/>
<path fill="#231F20" d="M20.7-6.3C20.7-6.3,20.7-6.3,20.7-6.3c-0.1-0.1-0.2-0.2-0.2-0.2c-0.1-0.1-0.3-0.3-0.6-0.5
	c-0.1-0.1-0.3-0.2-0.4-0.3c-0.1-0.1-0.3-0.2-0.5-0.3c-0.2-0.1-0.3-0.2-0.5-0.3c-0.1,0-0.2-0.1-0.3-0.1c-0.1,0-0.2-0.1-0.3-0.1
	l-0.1,0c0,0-0.1,0-0.1,0c-0.1,0-0.2,0-0.3-0.1c0,0-0.1,0-0.1,0c0,0-0.1,0-0.1,0c-0.1,0-0.2,0-0.3,0c-0.2,0-0.4,0-0.6,0
	c-0.1,0-0.2,0-0.3,0c-0.1,0-0.2,0-0.3,0c-0.2,0-0.3,0-0.4,0c-0.1,0-0.3,0-0.4,0c-0.2,0-0.3,0-0.3,0s0.1-0.1,0.3-0.2
	c0.1-0.1,0.2-0.1,0.3-0.2c0.1-0.1,0.3-0.1,0.4-0.2C15.7-9,15.8-9,15.9-9c0.1,0,0.2-0.1,0.3-0.1c0.2-0.1,0.4-0.1,0.6-0.1
	c0.2,0,0.5,0,0.7,0c0.1,0,0.2,0,0.4,0.1c0.1,0,0.1,0,0.2,0L18.2-9c0.1,0,0.2,0.1,0.3,0.1c0.1,0.1,0.2,0.1,0.3,0.2
	c0.1,0,0.1,0.1,0.2,0.1c0.1,0,0.1,0.1,0.1,0.1c0.1,0.1,0.2,0.1,0.3,0.2C19.7-8.2,19.8-8,20-7.8c0.1,0.2,0.2,0.3,0.3,0.5
	c0.2,0.3,0.3,0.6,0.4,0.8C20.7-6.4,20.7-6.3,20.7-6.3z"/>
</svg>
