<?xml version="1.0" encoding="utf-8"?>
<!-- Generator: Adobe Illustrator 17.1.0, SVG Export Plug-In . SVG Version: 6.00 Build 0)  -->
<!DOCTYPE svg PUBLIC "-//W3C//DTD SVG 1.1//EN" "http://www.w3.org/Graphics/SVG/1.1/DTD/svg11.dtd">
<svg version="1.1" id="Layer_1" xmlns="http://www.w3.org/2000/svg" xmlns:xlink="http://www.w3.org/1999/xlink" x="0px" y="0px"
	 viewBox="0 0 60 60" enable-background="new 0 0 60 60" xml:space="preserve">
<g>
	<g>
		<g>
			<path fill="#FF671B" d="M29.8,0C13.4,0,0,13.4,0,29.8s13.4,29.8,29.8,29.8c16.5,0,29.8-13.4,29.8-29.8S46.3,0,29.8,0z M29.8,57.9
				c-15.5,0-28-12.5-28-28s12.5-28,28-28c15.5,0,28,12.5,28,28S45.3,57.9,29.8,57.9z"/>
			<g>
				<path fill="#FF671B" d="M53.8,26.4C52.1,14.7,42,5.7,29.9,5.7c-0.8,0-1.5,0-2.3,0.1l5.9,35.8l7.3-16.5L53.8,26.4z"/>
				<path fill="#FF671B" d="M15.4,35.3c1.3-8.5,2.6-18.2,4.7-27.5C12.2,11.3,6.5,19,5.8,28.1l7-0.4L15.4,35.3z"/>
				<path fill="#FF671B" d="M5.7,29.9c0,12.5,9.6,22.8,21.8,24l-4.3-37.2L17,41.4L14.6,41l-2.9-11.8l-5.9-0.1
					C5.8,29.4,5.7,29.6,5.7,29.9z"/>
				<path fill="#FF671B" d="M54,30L45.3,31l-8.3,22C46.8,49.9,53.9,40.8,54,30z"/>
			</g>
		</g>
	</g>
</g>
</svg>
