<?xml version="1.0" encoding="utf-8"?>
<!-- Generator: Adobe Illustrator 17.1.0, SVG Export Plug-In . SVG Version: 6.00 Build 0)  -->
<!DOCTYPE svg PUBLIC "-//W3C//DTD SVG 1.1//EN" "http://www.w3.org/Graphics/SVG/1.1/DTD/svg11.dtd">
<svg version="1.1" id="Layer_1" xmlns="http://www.w3.org/2000/svg" xmlns:xlink="http://www.w3.org/1999/xlink" x="0px" y="0px"
	 viewBox="-62.5 -25 150 75" enable-background="new -62.5 -25 150 75" xml:space="preserve">
<g>
	<path fill="#BE1E2D" d="M36.6-14.5C15.2-17.7-15.3,1.7-19,7.9c-11.7,18.8,9.7,32,28.5,29.5C30.1,34.9,69,11.8,41.3-1.3
		c-7.9-4-20.3-1.2-26.8,4C8.1,7.4,3.8,22.7,16.2,16.3C7.6,7.1,36.1-1.1,33.8,13.8c-1.5,9.7-21.6,13.9-28.3,12.6
		c-12.6-1.7-13.9-11.9-6-20.1C8.1-2.3,21.4-8,33.3-9.2C62.8-12,75,13.1,50.9,31.7C32.8,45.8,3.1,54-19,44.6
		C-49.2,31.9-27.9,1.7-9.5-9c13.6-7.9,29.8-12.4,45.6-13.6C55.2-23.9,54.7-11.5,36.6-14.5"/>
</g>
<g>
	<polygon fill="#3C2161" points="-57.6,6.4 -49.5,1.7 -47.2,22.7 -35.3,19.8 -34.3,26 -52.4,29.9 	"/>
	<polygon fill="#3C2161" points="-35.6,5.6 -27.4,8.4 -32.6,26 -38.1,23.7 	"/>
	<polygon fill="#3C2161" points="-5.6,3.9 0.9,0.9 3.6,11.3 9.5,2.4 14.7,2.9 8.1,12.1 19.5,23.5 14,26.5 4.3,15.5 7.3,24.2 
		1.9,27.9 	"/>
	<polygon fill="#3C2161" points="22.4,1.4 30.6,5.1 21.2,26.7 15,25.5 	"/>
	<path fill="#3C2161" d="M-25.2,3.1c-0.2,1.7-2.5,3.2-5.5,2.7s-4.7-2-4.5-3.7c0.2-1.7,2.5-3.2,5.5-2.7C-27.2-0.3-24.9,1.4-25.2,3.1z
		"/>
	<g>
		<path fill="#3C2161" d="M46.5,5.6c-3.7-4-10.2-5.7-16.9-1.5l1.7,23.3C54.9,21,47.2,6.6,46.5,5.6z M33.6,22l-0.2-10.9
			C42.3,7.1,42.5,13.6,33.6,22z"/>
	</g>
	<g>
		<path fill="#3C2161" d="M-1.1,19.3c0,2,0,5.2-0.7,6.7c-2.7,5.2-10.7,5.7-14.4,1.2c-2-2.5-2.7-8.4-2.7-11.7c0-2.5,0.7-5.5,2.5-7.4
			c2.5-2.7,8.2-4,11.7-1.5c1.2,0.7,4.5,9.2,3.7,9.4l-11.4,2.7v0.5l0.2,0.7c1.7,7.2,9.4,4.7,9.4-1.5h0.5L-1.1,19.3z M-8.1,13.1
			c-0.7-3.5-5.5-3.7-5.5,1.7L-8.1,13.1z"/>
	</g>
	<path fill="#3C2161" d="M61.9,11.1c-1.2-3.2-5.2-1.5-7.4-2.7c-2.5-2,4.5-7.2,5.5-7.7l-1.2-3.5c0,0-2.2,0.5-3.2,1.2
		c-1.2,0.5-5.5,2.2-7.9,4.5c-4.2,3.7-8.2,14.1,0.2,15.4c2,0.2,4-1.2,6-1.5c3.7-0.2-1.5,4.2-2.5,4.7l-3.7,2.2l0,0l2,2.7
		c0,0,5.5-1.7,10.2-9.7C61.6,14.6,62.4,11.8,61.9,11.1z"/>
	<path fill="#3C2161" d="M-10.5-7.5C-15-8.3-21.2-7-25.9,10.6h-2.2l-1.2,5.2l2.5,0.2l-0.2,11.7l4,0.2l2.2-11.4l3.7,0.2l1.7-6.4h-4.2
		c0.2-1.7,1.7-6,2.2-7.4c0.5-1.2,1.5-3.5,2.7-3.7c2.2-0.2,0,7.4-0.2,8.4l4.2,0.7C-8.6,4.6-3.6-6-10.5-7.5z"/>
</g>
<path fill="#402061" d="M84.7,11.1c-1.5-0.5-2.7-1.2-4.2-1.7c-0.7-0.2-2,0-2.7,0.5c-1.2-0.5-2.2-0.7-3.7,0c-0.5,0.2-1.2,0.5-1.7,0.7
	c0-0.2,0-0.5,0-0.7c0-1.7-1.5-3.7-3.5-3.5c-1.2,0-2.5,0.2-3.7,0.2c-0.5,0-0.7,0-1.2,0.2c-1.2-1.2-2.5-1.7-4-2
	c0.2-0.2,0.5-0.5,0.7-0.7c0,0,0.5-0.5,0.7-0.5c1.5-1.2,2.2-2.7,1.7-4.5c0-0.7-0.2-2-0.5-3.2c-0.5-2-2.7-3.5-4.7-2.7
	c-4.5,1.5-9.4,3.5-12.6,6.7c-5.2-2.7-11.4-2.5-16.4,0c-1.5-0.5-2.7-1.5-4.5-2c-2-0.7-4.2-0.5-5.5,1.5c0,0.2-0.2,0.2-0.2,0.5l0,0
	c0,0,0,0,0,0.2v0.2c0,0.2-0.2,0.5-0.2,0.7c-0.7-1.7-2.2-2.5-3.7-2.7c-2.2,0-3.2,0-4.5-0.2c-2.2,0-3.5,1.2-4.5,2.7
	c0,0.2-0.2,0.2-0.2,0.5C5.3,0.7,5.1-0.1,5.1-0.8C4.3-3,1.1-4.3-1.1-3c-0.5,0.2-1.2,0.5-1.7,0.7c0.2-4.2-1.2-7.9-6-9.4h-0.2
	c-0.2,0-0.2,0-0.5,0C-16.2-13-21.2-9-24.2-3.3c-4.7-3.2-12.9-2.2-14.1,4c-0.2,0.5-0.2,1.5-0.2,2.2c-0.7,0.7-0.7,1-1,1.5
	c-0.5,4.2-1.2,8.4-2,12.6c-0.7,0.2-1.7,0.2-2.5,0.5c-0.5-5.5-1.2-10.7-1.7-16.1c-0.2-2.7-3.2-5.2-6-3.5c-2.7,1.7-5.5,3.5-8.2,4.7
	c-1.2,1.2-1.7,2.5-1.7,3.5c0,0.5,0,0.7,0,1.5c1.7,7.9,3.5,15.6,5.2,23.6c0.5,2.2,2.7,3.2,4.7,2.7c6-1.5,11.9-2.7,17.9-4l0,0l0,0
	c0.7,0.2,2,0.2,2.5-0.2c0.5,1.5,2,2.2,3.7,2.2c1.5,0,2.5,0.2,4,0.2c1.7,0.2,3.5-1.2,3.7-2.7c0.7,0.7,1.7,1.7,2.5,2.5
	c3.7,2.5,9.2,2.5,12.9,0.7c1.2-0.5,2-1.2,2.7-2c1.2,1.2,3.2,1.7,4.7,0.5c2-1.2,3.7-2.5,5.7-3.7c0,0,0.2,0,0.2-0.2
	c0.5,0.5,0.7,1.2,1.5,1.7c1.2,1.5,3.5,1.5,4.7,0.5c0,0,0.2,0,0.2-0.2c1.5,0.2,2.5,0.5,4,0.7c1.7,0.2,3.7-0.2,4.5-1.7
	c0.5-1.7,1.5-3.2,2-4.7c0,1.2,0.2,2.5,0.2,3.7c0.2,2.5,2.5,4.5,5.2,4c4-1.2,8.4-2.7,12.1-5.7c0.5,0.7,1.5,2,2,2.7
	c1.2,1.5,2.5,2.2,4.5,1.7s4-1.7,5.5-3.2c0.5,0.2,1.2,0.5,1.7,0.7c1.7,0.5,3.5,0.2,4.7-0.2c0.5,1.2,1.7,1.7,2.7,1.7
	c1.5,0,2.7-0.2,4.2-0.2c1.7,0,3.7-1.5,3.5-3.5c0-0.2,0-0.2,0-0.5c0.2,0.5,0.5,1.2,0.7,1.7c0.5,1.2,1.7,1.7,2.7,1.7
	c0.7,0,1.7,0,2.2,0c1.7,0,2.7-1.2,3.5-2.5c1.2-3.7,2.5-7.4,3.7-10.9C87.6,13.3,86.4,11.8,84.7,11.1z M-32.6,12.3
	c0-0.5,0.2-1.2,0.2-1.5c0,0,0,0,0.2,0C-32.1,11.6-32.6,11.8-32.6,12.3z M-11-3.8L-11-3.8C-11-3.8-11-3.5-11-3.8
	C-11-3.5-11-3.5-11-3.8C-11-3.5-11-3.8-11-3.8z M-11-3.5L-11-3.5L-11-3.5L-11-3.5L-11-3.5z M-11-3.5L-11-3.5L-11-3.5L-11-3.5
	L-11-3.5z M-10.8-3.5L-10.8-3.5L-10.8-3.5L-10.8-3.5z M14.7,13.1c-0.5-0.5-0.7-0.7-1.5-1.5c1.2-1.7,2.2-3.2,3.5-4.7
	C16,9.1,15.2,11.1,14.7,13.1z M60.4,24.5L60.4,24.5L60.4,24.5L60.4,24.5z"/>
<g>
	<g>
		<polygon fill="#FFDD00" points="-57.6,6.4 -49.5,1.7 -47.2,22.7 -35.3,19.8 -34.3,26 -52.4,29.9 		"/>
	</g>
	<g>
		<polygon fill="#FFDD00" points="-35.6,5.6 -27.4,8.4 -32.6,26 -38.1,23.7 		"/>
	</g>
	<g>
		<polygon fill="#FFDD00" points="-5.6,3.9 0.9,0.9 3.6,11.3 9.5,2.4 14.7,2.9 8.1,12.1 19.5,23.5 14,26.5 4.3,15.5 7.3,24.2 
			1.9,27.9 		"/>
	</g>
	<g>
		<polygon fill="#FFDD00" points="22.4,1.4 30.6,5.1 21.2,26.7 15,25.5 		"/>
	</g>
	<g>
		<path fill="#FFDD00" d="M-25.2,3.1c-0.2,1.7-2.5,3.2-5.5,2.7s-4.7-2-4.5-3.7c0.2-1.7,2.5-3.2,5.5-2.7C-27.2-0.3-24.9,1.4-25.2,3.1
			z"/>
	</g>
	<g>
		<path fill="#FFDD00" d="M46.5,5.6c-3.7-4-10.2-5.7-16.9-1.5l1.7,23.3C54.9,21,47.2,6.6,46.5,5.6z M33.6,22l-0.2-10.9
			C42.3,7.1,42.5,13.6,33.6,22z"/>
	</g>
	<g>
		<path fill="#FFDD00" d="M-1.1,19.3c0,2,0,5.2-0.7,6.7c-2.7,5.2-10.7,5.7-14.4,1.2c-2-2.5-2.7-8.4-2.7-11.7c0-2.5,0.7-5.5,2.5-7.4
			c2.5-2.7,8.2-4,11.7-1.5c1.2,0.7,4.5,9.2,3.7,9.4l-11.4,2.7v0.5l0.2,0.7c1.7,7.2,9.4,4.7,9.4-1.5h0.5L-1.1,19.3z M-8.1,13.1
			c-0.7-3.5-5.5-3.7-5.5,1.7L-8.1,13.1z"/>
	</g>
	<g>
		<path fill="#FFDD00" d="M61.9,11.1c-1.2-3.2-5.2-1.5-7.4-2.7c-2.5-2,4.5-7.4,5.5-7.7l-1.2-3.5c0,0-2.5,0.5-3.2,0.7
			c-1.2,0.5-5.5,2.2-7.9,4.5c-4.2,3.7-8.2,14.1,0.2,15.4c2,0.2,4-1.2,6-1.5c3.7-0.2-1.5,4.2-2.5,4.7l-3.7,2.5l0,0l2,2.7
			c0,0,5.5-1.7,10.2-9.7C61.6,14.6,62.4,11.8,61.9,11.1z"/>
	</g>
	<g>
		<path fill="#FFDD00" d="M-10.5-7.5C-15-8.3-21.2-7-25.9,10.6h-2.2l-1.2,5.2l2.5,0.2l-0.2,11.7l4,0.2l2.2-11.4l3.7,0.2l1.7-6.4
			h-4.2c0.2-1.7,1.7-6,2.2-7.4c0.5-1.2,1.5-3.5,2.7-3.7c2.2-0.2,0,7.4-0.2,8.4l4.2,0.7C-8.6,4.6-3.6-6-10.5-7.5z"/>
	</g>
</g>
<g>
	<polygon fill="#FFDD00" points="71.8,14.6 75.5,12.6 77.7,19.5 79.5,12.6 83.7,14.3 79.7,25.5 77.5,25.5 	"/>
</g>
<g>
	<path fill="#FFDD00" d="M63.6,24.2c-0.2,0.5-0.7,0.7-2,1.2c-0.7,0.2-1.7,0.2-2.5,0c-0.7-0.2-1.5-0.5-1.5-1.2
		c-0.2-0.5,0-0.7,0.2-1.5c0.2-0.7,0.7-0.7,1.7-1.2c0.5-0.2,0.7-0.2,1.5-0.2c0.7,0,0.7,0,1.2,0c0.2,0,0.7,0.2,1.2,0.2
		c0.2,0.2,0.5,0.5,0.5,0.7C63.8,23.2,63.8,23.7,63.6,24.2z"/>
</g>
<g>
	<polygon fill="#FFDD00" points="65.1,10.1 68.8,9.8 69.3,15.5 73.3,14.1 73.5,18.5 69.5,18.3 70.3,26 65.8,26.2 66.8,18.5 62.6,19 
		62.4,15.1 66.3,15.5 	"/>
</g>
</svg>
