<?xml version="1.0" encoding="utf-8"?>
<!-- Generator: Adobe Illustrator 17.1.0, SVG Export Plug-In . SVG Version: 6.00 Build 0)  -->
<!DOCTYPE svg PUBLIC "-//W3C//DTD SVG 1.1//EN" "http://www.w3.org/Graphics/SVG/1.1/DTD/svg11.dtd">
<svg version="1.1" id="Layer_1" xmlns="http://www.w3.org/2000/svg" xmlns:xlink="http://www.w3.org/1999/xlink" x="0px" y="0px"
	 viewBox="0 0 60 60" enable-background="new 0 0 60 60" xml:space="preserve">
<path fill="#231F20" d="M24.5,59.7c-4.4,0-8.7-0.8-13-2.3C7.3,56,3.5,53.7,0,50.5l7.5-9c2.6,2.1,5.4,3.9,8.1,5.1
	c2.8,1.3,5.8,1.9,9.1,1.9c2.6,0,4.7-0.5,6.2-1.4c1.5-1,2.2-2.3,2.2-4V43c0-0.8-0.2-1.6-0.5-2.2c-0.3-0.6-0.9-1.2-1.7-1.8
	c-0.9-0.5-2-1.1-3.6-1.7c-1.5-0.6-3.5-1.1-5.9-1.7c-2.9-0.8-5.6-1.6-7.9-2.4c-2.4-0.9-4.4-1.9-6-3.2c-1.7-1.3-2.9-2.9-3.8-4.8
	s-1.4-4.3-1.4-7.2v-0.2c0-2.6,0.5-5,1.5-7.2c1-2.1,2.4-4,4.1-5.5c1.8-1.5,3.9-2.7,6.4-3.6c2.5-0.8,5.2-1.2,8.2-1.2
	c4.2,0,8.1,0.6,11.7,1.9c3.6,1.3,6.8,3.1,9.8,5.4l-6.6,9.5c-2.6-1.8-5.1-3.1-7.6-4.2s-5-1.5-7.4-1.5s-4.3,0.5-5.6,1.4
	c-1.2,1-1.9,2.2-1.9,3.6v0.2c0,0.9,0.2,1.8,0.5,2.4c0.4,0.7,1,1.3,1.9,1.9c0.9,0.6,2.2,1.1,3.8,1.6c1.6,0.5,3.7,1.1,6.2,1.7
	c2.9,0.8,5.5,1.6,7.8,2.6c2.3,1,4.2,2.1,5.8,3.5c1.6,1.4,2.8,2.9,3.6,4.8c0.8,1.8,1.2,4,1.2,6.5v0.2c0,2.9-0.5,5.4-1.6,7.6
	c-1,2.2-2.5,4.1-4.3,5.6c-1.9,1.5-4.1,2.7-6.7,3.5C30.5,59.3,27.7,59.7,24.5,59.7z"/>
</svg>
