<?xml version="1.0" encoding="utf-8"?>
<!-- Generator: Adobe Illustrator 17.1.0, SVG Export Plug-In . SVG Version: 6.00 Build 0)  -->
<!DOCTYPE svg PUBLIC "-//W3C//DTD SVG 1.1//EN" "http://www.w3.org/Graphics/SVG/1.1/DTD/svg11.dtd">
<svg version="1.1" id="Layer_1" xmlns="http://www.w3.org/2000/svg" xmlns:xlink="http://www.w3.org/1999/xlink" x="0px" y="0px"
	 viewBox="0 0 60 60" enable-background="new 0 0 60 60" xml:space="preserve">
<g>
	<path fill="#0083C1" d="M0,40.4V60l-3.3,0v0h17.6c8.6-0.1,15.9-1.3,23.2-7c9.6-7.5,12.3-25.6,4.8-31.8c0,0,10.8,8.7,17.7,20V0H-3.1
		v0L0,0v30.6V40.4z M5,56.2c-1.6-1.4-1.1-3.4-0.5-5.1c5.9-16.4,21.9-29.5,21.9-29.5c-10.4,9.6-1,26,8.7,30.1
		C28.9,57.5,10.3,60.5,5,56.2z M43.1,37.6c-2.6-2.3-10.3-5.2-17.3,0c-4.4-14.8,8.7-20.1,8.7-20.1C46.5,23.6,44.2,34.3,43.1,37.6z"/>
</g>
</svg>
