<?xml version="1.0" encoding="utf-8"?>
<!-- Generator: Adobe Illustrator 17.1.0, SVG Export Plug-In . SVG Version: 6.00 Build 0)  -->
<!DOCTYPE svg PUBLIC "-//W3C//DTD SVG 1.1//EN" "http://www.w3.org/Graphics/SVG/1.1/DTD/svg11.dtd">
<svg version="1.1" id="Logo" xmlns="http://www.w3.org/2000/svg" xmlns:xlink="http://www.w3.org/1999/xlink" x="0px" y="0px"
	 viewBox="0 0 400 300" enable-background="new 0 0 400 300" xml:space="preserve">
<g>
	<g>
		<path d="M251.1,127.2L251.1,127.2L251.1,127.2c0-6.3,0-11.3-1.3-17.6c0-1.3,0-1.3,0-2.5C241.1,46.9,189.6,1.6,126.8,1.6
			S12.5,48.1,3.7,107.1c0,1.3,0,1.3,0,2.5c-1.3,5-1.3,11.3-1.3,16.3l0,0l0,0c0,6.3,0,11.3,1.3,16.3c0,1.3,0,1.3,0,2.5
			c8.8,60.3,60.3,105.5,123.1,105.5s114.3-46.5,123.1-105.5c0-1.3,0-1.3,0-2.5C251.1,138.5,251.1,133.5,251.1,127.2z M76.6,232.7
			L76.6,232.7c-33.9-16.3-59-49-65.3-87.9v-1.3c-1.3-5-1.3-10-1.3-16.3c0-5,0-11.3,1.3-16.3v-1.3c6.3-38.9,31.4-71.6,65.3-87.9l0,0
			c15.1-7.5,32.7-11.3,50.2-11.3c18.8,0,36.4,5,52.7,12.6l0,0c33.9,16.3,57.8,49,64,86.7v1.3c1.3,5,1.3,10,1.3,16.3
			c0,5,0,10-1.3,16.3v1.3c-6.3,37.7-30.1,70.3-64,86.7l0,0c-16.3,7.5-33.9,12.6-52.7,12.6S91.7,240.3,76.6,232.7z"/>
		<path d="M179.6,108.4l47.7,3.8c-7.5-49-49-86.7-100.5-86.7c-3.8,0-6.3,0-10,0L141.9,175l27.6-61.5
			C170.8,113.4,175.8,109.7,179.6,108.4z"/>
		<path d="M56.5,119.7l10,30.1c5-35.2,11.3-76.6,20.1-115.5C54,49.4,30.1,80.8,26.3,119.7l27.6-1.3C54,118.4,54,118.4,56.5,119.7z"
			/>
		<path d="M26.3,127.2c0,52.7,40.2,95.4,91.7,100.5L99.2,72L74.1,173.7c-3.8,0-5,0-10,0l-12.6-49H26.3
			C26.3,124.7,26.3,126,26.3,127.2z"/>
		<path d="M227.3,127.2l-36.4,3.8l-35.2,91.7C197.1,211.4,227.3,172.4,227.3,127.2z"/>
	</g>
</g>
<g>
	<path d="M15.6,270.5H4.3v-7.5h30.8v7.5H23.8v29.7h-8.2V270.5z"/>
	<path d="M37.7,262.9h8.2v14.7H61v-14.7h8.2v37.2H61v-14.9H45.9v14.9h-8.2V262.9z"/>
	<path d="M74.4,262.9h28v7.3H82.4v7.5H100v7.3H82.4v7.8h20.2v7.3H74.4V262.9z"/>
	<path d="M118.5,262.9h8.2v29.8h18.6v7.4h-26.7V262.9z"/>
	<path d="M165.7,300.8c-2.9,0-5.5-0.5-7.9-1.5c-2.4-1-4.5-2.4-6.2-4.1c-1.8-1.7-3.1-3.7-4.1-6.1c-1-2.3-1.5-4.8-1.5-7.5v-0.1
		c0-2.7,0.5-5.1,1.5-7.5c1-2.3,2.4-4.4,4.1-6.1c1.8-1.8,3.8-3.1,6.3-4.1c2.4-1,5.1-1.5,7.9-1.5c2.9,0,5.5,0.5,7.9,1.5
		c2.4,1,4.5,2.4,6.2,4.1c1.8,1.7,3.1,3.7,4.1,6.1c1,2.3,1.5,4.8,1.5,7.5v0.1c0,2.7-0.5,5.1-1.5,7.5c-1,2.3-2.4,4.4-4.1,6.1
		c-1.8,1.8-3.8,3.1-6.3,4.1C171.2,300.3,168.6,300.8,165.7,300.8z M165.8,293.2c1.6,0,3.1-0.3,4.5-0.9c1.4-0.6,2.6-1.4,3.5-2.5
		c1-1.1,1.7-2.3,2.3-3.7c0.5-1.4,0.8-2.9,0.8-4.5v-0.1c0-1.6-0.3-3.1-0.8-4.5c-0.5-1.4-1.3-2.7-2.3-3.7c-1-1.1-2.2-1.9-3.6-2.5
		c-1.4-0.6-2.9-0.9-4.5-0.9c-1.7,0-3.2,0.3-4.5,0.9c-1.4,0.6-2.5,1.4-3.5,2.5c-1,1.1-1.7,2.3-2.3,3.7c-0.5,1.4-0.8,2.9-0.8,4.5v0.1
		c0,1.6,0.3,3.1,0.8,4.5c0.5,1.4,1.3,2.7,2.3,3.7c1,1.1,2.2,1.9,3.6,2.5C162.6,292.9,164.2,293.2,165.8,293.2z"/>
	<path d="M207.2,300.8c-2.9,0-5.5-0.5-7.9-1.5c-2.4-1-4.5-2.4-6.2-4.1c-1.8-1.7-3.1-3.7-4.1-6.1c-1-2.3-1.5-4.8-1.5-7.5v-0.1
		c0-2.7,0.5-5.1,1.5-7.5c1-2.3,2.4-4.4,4.1-6.1c1.8-1.8,3.8-3.1,6.3-4.1c2.4-1,5.1-1.5,7.9-1.5s5.5,0.5,7.9,1.5
		c2.4,1,4.5,2.4,6.2,4.1c1.8,1.7,3.1,3.7,4.1,6.1c1,2.3,1.5,4.8,1.5,7.5v0.1c0,2.7-0.5,5.1-1.5,7.5c-1,2.3-2.4,4.4-4.1,6.1
		c-1.8,1.8-3.8,3.1-6.3,4.1C212.7,300.3,210,300.8,207.2,300.8z M207.3,293.2c1.6,0,3.1-0.3,4.5-0.9c1.4-0.6,2.6-1.4,3.5-2.5
		c1-1.1,1.7-2.3,2.3-3.7c0.5-1.4,0.8-2.9,0.8-4.5v-0.1c0-1.6-0.3-3.1-0.8-4.5c-0.5-1.4-1.3-2.7-2.3-3.7c-1-1.1-2.2-1.9-3.6-2.5
		c-1.4-0.6-2.9-0.9-4.5-0.9c-1.7,0-3.2,0.3-4.5,0.9c-1.4,0.6-2.5,1.4-3.5,2.5c-1,1.1-1.7,2.3-2.3,3.7c-0.5,1.4-0.8,2.9-0.8,4.5v0.1
		c0,1.6,0.3,3.1,0.8,4.5c0.5,1.4,1.3,2.7,2.3,3.7c1,1.1,2.2,1.9,3.6,2.5C204.1,292.9,205.6,293.2,207.3,293.2z"/>
	<path d="M230.6,262.9h15.2c2.2,0,4.2,0.3,6,0.9c1.8,0.6,3.2,1.5,4.5,2.6c1.2,1.1,2.2,2.5,2.8,4.1c0.7,1.6,1,3.3,1,5.2v0.1
		c0,2.2-0.4,4.1-1.2,5.7c-0.8,1.6-1.9,3-3.2,4.1c-1.4,1.1-3,1.9-4.8,2.5c-1.8,0.5-3.8,0.8-5.9,0.8h-6.2v11.2h-8.2V262.9z
		 M245.2,281.7c2.1,0,3.6-0.5,4.8-1.6c1.1-1.1,1.7-2.4,1.7-4V276c0-1.8-0.6-3.2-1.8-4.2c-1.2-1-2.8-1.4-4.9-1.4h-6.3v11.4H245.2z"/>
</g>
</svg>
