<?xml version="1.0" encoding="utf-8"?>
<!-- Generator: Adobe Illustrator 17.0.0, SVG Export Plug-In . SVG Version: 6.00 Build 0)  -->
<!DOCTYPE svg PUBLIC "-//W3C//DTD SVG 1.1//EN" "http://www.w3.org/Graphics/SVG/1.1/DTD/svg11.dtd">
<svg version="1.1" id="icon" xmlns="http://www.w3.org/2000/svg" xmlns:xlink="http://www.w3.org/1999/xlink" x="0px" y="0px"
	 width="200px" height="150px" viewBox="0 0 200 150" enable-background="new 0 0 200 150" xml:space="preserve">
<linearGradient id="SVGID_1_" gradientUnits="userSpaceOnUse" x1="492" y1="461" x2="492" y2="611" gradientTransform="matrix(1 0 0 1 -392 -461)">
	<stop  offset="0" style="stop-color:#F93C2D"/>
	<stop  offset="1" style="stop-color:#D32D20"/>
</linearGradient>
<rect fill="url(#SVGID_1_)" width="200" height="150"/>
<g id="krecRE_1_">
	<g>
		<g>
			<path fill="#FFFFFF" d="M81.901,116.41c-22.193-8.99-33.459-36.29-24.626-59.125c9.212-23.808,35.721-35.934,59.588-27.263
				c24.261,8.817,36.637,34.83,28.273,59.426c-7.795,22.935-34.204,36.555-56.4,29.395c2.442-7.4,4.881-14.797,7.284-22.072
				c7.132,6.5,16.591,6.722,24.87,0.377c10.234-7.844,14.784-26.059,9.319-37.774c-4.401-9.431-12.102-14.742-22.205-16.062
				c-13.334-1.743-25.116,1.621-33.377,12.95c-5.946,8.157-7.187,17.199-3.023,26.646c1.323,3.002,3.568,5.237,6.518,6.728
				c1.728,0.876,2.807,0.484,3.419-1.46c0.818-2.613,0.776-4.742-0.906-7.305c-3.495-5.329-2.521-11.171-0.204-16.71
				c5.484-13.102,24.344-17.728,34.897-8.674c3.47,2.978,5.204,6.864,5.499,11.287c0.444,6.7-0.593,13.185-3.82,19.179
				c-1.916,3.558-4.547,6.344-8.644,7.339c-6.226,1.506-10.849-3.002-9.337-9.209c1.016-4.17,2.311-8.27,3.422-12.415
				c0.286-1.064,0.438-2.19,0.484-3.294c0.137-3.184-1.356-5.876-3.741-6.916c-2.567-1.119-5.928-0.386-8.087,1.971
				c-3.942,4.307-4.136,9.377-2.984,14.79c0.38,1.77,0.432,3.759,0.052,5.523c-1.77,8.242-3.832,16.418-5.593,24.663
				C82.028,110.929,82.12,113.59,81.901,116.41z"/>
		</g>
	</g>
</g>
</svg>
