<?xml version="1.0" encoding="utf-8"?>
<!-- Generator: Adobe Illustrator 17.0.0, SVG Export Plug-In . SVG Version: 6.00 Build 0)  -->
<!DOCTYPE svg PUBLIC "-//W3C//DTD SVG 1.1//EN" "http://www.w3.org/Graphics/SVG/1.1/DTD/svg11.dtd">
<svg version="1.1" id="icon" xmlns="http://www.w3.org/2000/svg" xmlns:xlink="http://www.w3.org/1999/xlink" x="0px" y="0px"
	 width="200px" height="150px" viewBox="0 0 200 150" enable-background="new 0 0 200 150" xml:space="preserve">
<linearGradient id="SVGID_1_" gradientUnits="userSpaceOnUse" x1="492" y1="461" x2="492" y2="611" gradientTransform="matrix(1 0 0 1 -392 -461)">
	<stop  offset="0" style="stop-color:#4B71B8"/>
	<stop  offset="1" style="stop-color:#293F7E"/>
</linearGradient>
<rect fill="url(#SVGID_1_)" width="200" height="150"/>
<path fill="#FFFFFF" d="M118.673,34.896c0,0-7.716,0-12.834,0c-7.622,0-16.093,3.195-16.093,14.226c0.04,3.84,0,7.52,0,11.662
	h-8.813v14.004h9.087v40.317h16.695V74.52h11.021l0.997-13.775h-12.307c0,0,0.033-6.132,0-7.909c0-4.356,4.546-4.109,4.812-4.109
	c2.169,0,6.367,0.006,7.447,0V34.894h-0.012C118.673,34.894,118.673,34.896,118.673,34.896z"/>
</svg>
