<?xml version="1.0" encoding="utf-8"?>
<!-- Generator: Adobe Illustrator 17.0.0, SVG Export Plug-In . SVG Version: 6.00 Build 0)  -->
<!DOCTYPE svg PUBLIC "-//W3C//DTD SVG 1.1//EN" "http://www.w3.org/Graphics/SVG/1.1/DTD/svg11.dtd">
<svg version="1.1" id="icon" xmlns="http://www.w3.org/2000/svg" xmlns:xlink="http://www.w3.org/1999/xlink" x="0px" y="0px"
	 width="200px" height="150px" viewBox="0 0 200 150" enable-background="new 0 0 200 150" xml:space="preserve">
<linearGradient id="SVGID_1_" gradientUnits="userSpaceOnUse" x1="492" y1="461" x2="492" y2="611" gradientTransform="matrix(1 0 0 1 -392 -461)">
	<stop  offset="0" style="stop-color:#F6CB45"/>
	<stop  offset="1" style="stop-color:#E9A33F"/>
</linearGradient>
<rect fill="url(#SVGID_1_)" width="200" height="150"/>
<g>
	<path fill="#FFFFFF" d="M39.544,68.543c0.273-2.49,0.872-4.626,1.8-6.407c0.926-1.782,2.263-3.171,4.007-4.171
		c1.744-1,4.089-1.499,7.034-1.499s5.288,0.499,7.034,1.499c1.744,1,3.081,2.39,4.007,4.171c0.928,1.78,1.527,3.917,1.8,6.407
		c0.273,2.49,0.409,5.206,0.409,8.151c0,2.981-0.136,5.707-0.409,8.179c-0.273,2.473-0.872,4.6-1.8,6.38
		c-0.926,1.782-2.263,3.145-4.007,4.089c-1.746,0.944-4.089,1.417-7.034,1.417s-5.29-0.473-7.034-1.417
		c-1.744-0.944-3.081-2.307-4.007-4.089c-0.928-1.78-1.527-3.907-1.8-6.38c-0.273-2.472-0.409-5.198-0.409-8.179
		C39.135,73.749,39.271,71.032,39.544,68.543z M47.177,83.372c0.126,1.836,0.383,3.327,0.764,4.472s0.926,1.981,1.636,2.508
		c0.709,0.527,1.644,0.792,2.808,0.792c1.163,0,2.099-0.264,2.808-0.792c0.708-0.527,1.253-1.363,1.636-2.508
		c0.381-1.145,0.636-2.636,0.764-4.472c0.126-1.834,0.191-4.061,0.191-6.679c0-2.616-0.064-4.833-0.191-6.651
		c-0.128-1.818-0.383-3.308-0.764-4.472c-0.383-1.163-0.928-2.009-1.636-2.536c-0.709-0.526-1.646-0.79-2.808-0.79
		c-1.164,0-2.099,0.264-2.808,0.79c-0.709,0.527-1.255,1.373-1.636,2.536c-0.381,1.164-0.637,2.654-0.764,4.472
		c-0.128,1.818-0.191,4.035-0.191,6.651C46.987,79.311,47.049,81.538,47.177,83.372z"/>
	<path fill="#FFFFFF" d="M86.191,57.227c1.999,0,3.68,0.337,5.043,1.01c1.363,0.673,2.462,1.554,3.298,2.644
		c0.836,1.09,1.437,2.335,1.8,3.735c0.363,1.401,0.545,2.826,0.545,4.28c0,2-0.299,3.744-0.9,5.236
		c-0.599,1.491-1.435,2.708-2.508,3.652c-1.072,0.946-2.371,1.655-3.899,2.127c-1.526,0.473-3.217,0.709-5.071,0.709h-4.198v15.539
		H72.45V57.227H86.191z M83.792,74.839c1.562,0,2.826-0.471,3.789-1.417c0.964-0.944,1.445-2.417,1.445-4.416
		c0-1.963-0.419-3.454-1.253-4.472c-0.838-1.017-2.237-1.526-4.199-1.526h-3.271v11.831H83.792z"/>
	<path fill="#FFFFFF" d="M122.504,63.662H108.6v9.161h13.086v6.434H108.6v10.468h14.449v6.434h-22.301V57.227h21.755V63.662z"/>
	<path fill="#FFFFFF" d="M147.693,83.891h0.11V57.227H155v38.932h-8.942l-9.596-27.264h-0.108v27.264h-7.198V57.227h9.051
		L147.693,83.891z"/>
</g>
</svg>
