<?xml version="1.0" encoding="utf-8"?>
<!-- Generator: Adobe Illustrator 17.0.0, SVG Export Plug-In . SVG Version: 6.00 Build 0)  -->
<!DOCTYPE svg PUBLIC "-//W3C//DTD SVG 1.1//EN" "http://www.w3.org/Graphics/SVG/1.1/DTD/svg11.dtd">
<svg version="1.1" id="icon" xmlns="http://www.w3.org/2000/svg" xmlns:xlink="http://www.w3.org/1999/xlink" x="0px" y="0px"
	 width="200px" height="150px" viewBox="0 0 200 150" enable-background="new 0 0 200 150" xml:space="preserve">
<linearGradient id="SVGID_1_" gradientUnits="userSpaceOnUse" x1="688" y1="-466" x2="688" y2="-616" gradientTransform="matrix(1 0 0 -1 -588 -466)">
	<stop  offset="0" style="stop-color:#F93C2D"/>
	<stop  offset="1" style="stop-color:#D32D20"/>
</linearGradient>
<rect fill="url(#SVGID_1_)" width="200" height="150"/>
<g>
	<path fill="#FFFFFF" d="M108.269,43.146c2.743,0,5.215,0.443,7.416,1.329c2.2,0.887,4.087,2.101,5.659,3.644
		c1.571,1.543,2.772,3.331,3.602,5.359c0.828,2.029,1.243,4.216,1.243,6.559c0,3.601-0.759,6.717-2.272,9.346
		c-1.515,2.63-3.987,4.63-7.417,6.002v0.172c1.657,0.457,3.029,1.157,4.116,2.101c1.085,0.942,1.972,2.058,2.658,3.344
		c0.686,1.286,1.186,2.7,1.5,4.244c0.313,1.543,0.528,3.087,0.644,4.63c0.056,0.973,0.113,2.115,0.171,3.43
		c0.057,1.315,0.157,2.658,0.3,4.029c0.143,1.372,0.371,2.673,0.687,3.901c0.313,1.23,0.785,2.272,1.415,3.13h-13.462
		c-0.743-1.942-1.2-4.258-1.372-6.945c-0.171-2.686-0.429-5.258-0.771-7.717c-0.458-3.2-1.43-5.543-2.915-7.03
		c-1.487-1.486-3.916-2.229-7.288-2.229H88.719v23.922H75.258V43.146H108.269z M103.467,70.84c3.087,0,5.401-0.686,6.945-2.058
		c1.543-1.372,2.314-3.601,2.314-6.688c0-2.971-0.771-5.13-2.314-6.474c-1.544-1.342-3.858-2.015-6.945-2.015H88.719V70.84H103.467z
		"/>
</g>
</svg>
