<?xml version="1.0" encoding="utf-8"?>
<!-- Generator: Adobe Illustrator 17.1.0, SVG Export Plug-In . SVG Version: 6.00 Build 0)  -->
<!DOCTYPE svg PUBLIC "-//W3C//DTD SVG 1.1//EN" "http://www.w3.org/Graphics/SVG/1.1/DTD/svg11.dtd">
<svg version="1.1" id="icon" xmlns="http://www.w3.org/2000/svg" xmlns:xlink="http://www.w3.org/1999/xlink" x="0px" y="0px"
	 viewBox="0 0 200 150" enable-background="new 0 0 200 150" xml:space="preserve">
<linearGradient id="SVGID_1_" gradientUnits="userSpaceOnUse" x1="100" y1="152" x2="100" y2="2" gradientTransform="matrix(1 0 0 -1 0 152)">
	<stop  offset="0" style="stop-color:#404041"/>
	<stop  offset="1" style="stop-color:#353535"/>
</linearGradient>
<rect fill="url(#SVGID_1_)" width="200" height="150"/>
<g>
	<path fill-rule="evenodd" clip-rule="evenodd" fill="#FFFFFF" d="M131.6,62.6c-1.9-4.4-4.5-8.3-7.9-11.7c-3.4-3.4-7.3-6-11.7-7.9
		c-4.5-1.9-9.4-2.9-14.3-2.9c-5,0-9.8,1-14.3,2.9C79,44.9,75,47.6,71.7,51c-3.4,3.4-6,7.3-7.9,11.7c-1.9,4.5-2.9,9.4-2.9,14.3
		c0,5,1,9.8,2.9,14.3c1.9,4.4,4.5,8.3,7.9,11.7c3.4,3.4,7.3,6,11.7,7.9c4.5,1.9,9.4,2.9,14.3,2.9c5,0,9.8-1,14.3-2.9
		c4.4-1.9,8.3-4.5,11.7-7.9c3.4-3.4,6-7.3,7.9-11.7c1.9-4.5,2.9-9.4,2.9-14.3C134.5,72,133.5,67.2,131.6,62.6z M116.8,84.5
		c0.1,0,0.2,0,0.3,0.1c0.2-0.1,0.4,0,0.3,0.2c-0.1,0-0.2-0.1-0.4,0C116.9,84.7,116.9,84.6,116.8,84.5z M121.3,96
		c0,0.2-0.2,0.2-0.3,0.3C120.9,96.1,121.1,96,121.3,96z M122.1,92.7c0,0.1-0.1,0.2-0.1,0.3c-0.1,0-0.1,0-0.2,0
		C121.9,92.8,121.8,92.5,122.1,92.7C122.1,92.6,122.1,92.6,122.1,92.7z M122.1,92.2c0.1-0.1,0.2-0.4,0.3-0.3
		C122.4,92.1,122.2,92.3,122.1,92.2z M122,93.4c0.1,0,0.1,0,0.2,0c0,0.6-0.1,0.9-0.2,1.3c0.2,0.1,0.2,0.3,0.4,0.3
		c0,0.1-0.1,0.2-0.1,0.3c0.1,0.2,0.3,0.4,0.3,0.6c-0.2,0.1-0.2-0.1-0.4,0c0.1-0.3,0-0.8-0.3-0.9c0-0.2,0-0.3-0.1-0.5
		C122,94.2,121.8,93.8,122,93.4z M123.9,91.7c0.1,0,0.1-0.1,0.1-0.1c0.1,0,0.1,0.1,0.2,0.1c0,0,0,0.1-0.1,0.1
		c0.1,0.1,0.1,0.1,0.1,0.2c0.1,0,0.1-0.2,0.2-0.1c-0.1,0.2-0.3,0.4-0.3,0.7c0,0-0.2,0-0.2,0.1c0.1,0,0.2,0,0.1,0.1
		c0,0.1,0.1,0,0.1,0c0,0.1-0.1,0.1-0.3,0.1c-0.1,0-0.1,0.2-0.1,0.3c-0.1,0-0.1-0.1-0.1-0.2c-0.1-0.1-0.2-0.1-0.3-0.1
		c0,0.1-0.1,0.1-0.2,0.1c0,0.1,0.1,0.1,0,0.1c0,0-0.1,0-0.1,0c-0.1-0.2-0.1-0.2-0.1-0.4c0.1-0.1,0.1-0.3,0.2-0.4
		c-0.2-0.1-0.1-0.3,0-0.4C123.1,91.8,123.6,91.6,123.9,91.7z M123.8,91c0,0.1,0,0.1,0,0.2c-0.1,0-0.1-0.1-0.2-0.1
		C123.5,91,123.7,90.9,123.8,91z M123.2,98.6c-0.1,0-0.1-0.1-0.2-0.1c0-0.3,0-0.6,0.1-0.9c0,0-0.1,0-0.1,0c0.2-0.3,0.2-0.7,0.3-1.2
		c0.1,0,0.1,0.1,0.2,0.2C123.4,97.3,123.2,97.9,123.2,98.6z M123,95.5c0.1-0.1,0.2,0,0.2,0.1C123.1,95.7,123,95.6,123,95.5z
		 M122.9,91.3c-0.2-0.1,0.2-0.4,0.3-0.4C123.2,91,123,91.1,122.9,91.3z M125.4,90.3c-0.1-0.1-0.2-0.2-0.2-0.3c0-0.2,0.1-0.3,0.1-0.5
		c0,0,0.1,0,0.1,0c0,0.4,0.1,0.6,0.1,1C125.3,90.6,125.4,90.5,125.4,90.3z M125.7,95.3c-0.1-0.2-0.3-0.4-0.2-0.7
		c0.3-0.2,0.3-0.6,0.5-0.8c0-0.4,0.2-0.7,0.6-0.8c0.1-0.2,0.2-0.3,0.5-0.4c0.3-0.7,0.8-1.2,1.3-1.6c-0.8,1.8-1.8,3.5-2.9,5.1
		C125.4,95.9,125.5,95.5,125.7,95.3z M126,86.1c0-0.1,0-0.1,0.1-0.2c0.1,0,0.2,0,0.2,0c0.1,0.1,0,0.2-0.1,0.3
		C126.2,86.2,126.1,86.1,126,86.1z M129.9,86.5c-0.2-0.3-0.5,0-0.8,0c-0.3-0.1-0.3-0.5-0.5-0.6c0.2-0.1,0.2-0.3,0.2-0.5
		c-0.2-0.1-0.2-0.3-0.4-0.3c0-0.4-0.4-0.4-0.4-0.8c-0.1,0-0.1,0-0.2,0c0-0.2-0.2-0.2-0.2-0.4c-0.4,0-0.2-1.1-0.4-1.4
		c-0.3,0-0.2-0.4-0.5-0.4c0-0.2-0.1-0.2-0.1-0.3c0.1-0.4,0-0.7,0.1-1c-0.2,0-0.1-0.3-0.2-0.4c-0.3-0.2-0.5-0.5-0.5-1
		c0,0,0.1,0,0.1,0c-0.2-0.2-0.2-0.5-0.3-0.7c-0.3-0.1-0.3-0.6-0.4-0.9c-0.1-0.1-0.2-0.3-0.1-0.4c-0.2-0.1-0.5-0.5-0.3-0.7
		c0.3,0.2,0.2,0.7,0.6,0.8c0.1,0,0.1-0.3,0.2-0.3c0,0.1-0.1,0.1,0,0.1c0.1,0,0.2,0,0.3,0c0.2,0.2,0.1,0.5,0.4,0.7
		c0.1,0.3,0.4,0.5,0.5,0.8c0,0.1,0,0.1,0,0.2c0,0.4,0.8,0.6,0.6,1.2c0,0.1,0.1,0.1,0.1,0.2c-0.1,0-0.1,0.2-0.1,0.3
		c0.1,0,0.2,0,0.2,0.1c-0.2,0.9,0.7,0.8,0.7,1.6c0,0,0.1,0.1,0.1,0.1c0,0.1,0,0.2,0,0.3c0.2,0.2,0.4,0.4,0.5,0.7
		c0.1,0.3-0.1,0.6-0.1,0.9c0,0,0.1,0.2,0.1,0.3c0,0.1-0.1,0.2,0.1,0.3c-0.1,0.1,0,0.3,0,0.5c0.4,0.1,0.8,0.1,0.9-0.2
		c0.2,0,0.3-0.1,0.5,0c0.1,0,0.2-0.1,0.3-0.2c-0.1,0.5-0.3,1.1-0.4,1.6C130,86.4,129.9,86.5,129.9,86.5z M126.1,59.2
		c-0.1,0-0.1,0-0.1,0.1c-0.4,0-0.5-0.3-0.7-0.5c0.2,0,0.2,0.1,0.3,0.1c0-0.1,0-0.1,0-0.2c0.2,0,0.2,0.2,0.5,0.2
		C126.1,59.1,126.1,59.1,126.1,59.2z M125.1,57.7c0.2,0,0.4,0,0.4,0.2C125.3,58,125.1,57.9,125.1,57.7z M124.7,57.5
		c-0.2-0.3-0.6-0.4-0.6-0.8c0.1,0,0.1,0.1,0.2,0c0-0.1,0-0.2,0-0.3c-0.1,0-0.1,0-0.2,0c0-0.1-0.1-0.1-0.1-0.2c0.1,0,0.2,0.1,0.3,0.1
		c0,0,0.1,0.1,0.1,0.1C124.5,56.9,125.1,57.1,124.7,57.5z M123.5,57.8c-0.2,0-0.3,0-0.4,0.1c-0.1,0-0.1,0-0.2-0.1
		c0-0.3-0.3-0.3-0.4-0.6c-0.1-0.1-0.2-0.1-0.2-0.2c0-0.1,0.1-0.1,0.1-0.2c0.1,0.1,0.1,0,0.1-0.1c0.1,0,0.2,0.1,0.3,0.1
		c0.2,0.3,0.6,0.4,0.7,0.8c-0.1,0-0.1,0-0.1,0C123.4,57.6,123.6,57.7,123.5,57.8z M123.7,55.5c0.1,0.1,0.2,0.3,0.3,0.4
		C123.8,55.9,123.7,55.6,123.7,55.5C123.6,55.5,123.7,55.5,123.7,55.5z M129.7,71.6c0.3-0.2,0.4,0.3,0.6,0.4c0,0,0,0.2,0,0.1
		c0,0.1,0.2,0,0.2,0.1c0,0.1-0.1,0.1-0.1,0.2c-0.4,0.1-0.3-0.4-0.5-0.5C129.9,71.8,129.7,71.8,129.7,71.6z M129.7,70.4
		c0.2,0,0.2,0,0.3,0.2C129.9,70.6,129.7,70.5,129.7,70.4z M130.3,68.2C130.3,68.2,130.2,68.2,130.3,68.2c0-0.1,0-0.1,0-0.1
		C130.2,68.2,130.3,68.2,130.3,68.2z M128.7,71.4c0.2,0,0.4,0.1,0.4-0.1c0,0,0.1,0,0.1,0c0,0.1,0,0.2-0.1,0.2c0,0.1,0.1,0,0.1,0.1
		c0,0,0,0.1,0,0.1c-0.2-0.1-0.3,0-0.6,0C128.6,71.5,128.7,71.5,128.7,71.4z M131.1,76.5c0.1-0.1,0-0.3,0.1-0.3c0,0,0.1,0,0.1,0.1
		c0-0.1-0.1-0.2-0.1-0.3c0.1,0,0.1,0.1,0.2,0.1c0,0,0,0,0,0c0,0.3,0,0.5,0,0.8c0,0.1,0,0.2,0,0.3C131.3,77,131.2,76.7,131.1,76.5z
		 M97.4,53.4c0,0.1-0.1,0.2-0.2,0.2C97.1,53.5,97.2,53.3,97.4,53.4z M83.4,46.5c0,0.1-0.1,0.2-0.2,0.3c-0.1-0.1-0.2,0-0.3,0
		c0-0.1,0-0.1,0-0.2c0.1-0.1,0.3-0.1,0.4-0.2C83.3,46.5,83.4,46.5,83.4,46.5z M73.5,53.6c0.1,0,0.1-0.2,0.3-0.1
		c0,0.1-0.1,0.1-0.1,0.1c0,0.1,0,0.1-0.1,0.2c-0.1,0.1-0.3,0.1-0.5,0.2C73.1,53.8,73.3,53.7,73.5,53.6
		C73.4,53.6,73.4,53.6,73.5,53.6z M71.8,55.4C71.8,55.4,71.7,55.4,71.8,55.4C71.7,55.4,71.8,55.4,71.8,55.4
		C71.8,55.4,71.8,55.4,71.8,55.4z M72.3,58.6c-0.1,0-0.1,0-0.1,0c-0.4,0.4-0.8,0.7-1.3,1.1c-0.1,0,0-0.1-0.1-0.1
		c-0.3,0.3-0.7,0.6-1.1,0.6c0-0.1,0.1-0.1,0-0.1c-0.1,0-0.1,0-0.3,0c0-0.1,0-0.1,0-0.1c0.5,0,0.7-0.4,1.1-0.6c-0.1,0,0-0.1-0.1-0.1
		c0-0.2,0-0.3,0-0.5c0.2-0.1,0.2,0.1,0.4,0.1c0,0.1-0.1,0.2-0.1,0.4c0.9,0.1,1-0.9,1.7-0.8C72.4,58.5,72.3,58.4,72.3,58.6z
		 M72.4,60.6c-0.1,0.1-0.2,0-0.3,0c-0.4,0.3-0.9,0.5-1.2,1c-0.1,0-0.2,0.1-0.3,0c0.3-0.4,0.7-0.6,0.9-1c0.1,0,0.1,0,0.1,0.1
		C72,60.6,72.2,60.5,72.4,60.6z M67.2,71.3c0.1,0,0.1-0.1,0.2-0.1c0,0.2,0,0.4-0.2,0.4c0-0.1-0.1-0.2-0.1-0.2c0-0.1,0.1-0.1,0.1-0.2
		C67.3,71.1,67.1,71.2,67.2,71.3z M69,59.1c0.1-0.1,0.2-0.3,0.5-0.3c0,0,0,0.1,0,0.1c0.1,0,0.2-0.1,0.3-0.1
		C69.6,59.2,69.3,59.2,69,59.1C69,59.1,69,59.1,69,59.1z M69.9,57.9c0.1,0,0.2,0,0.2,0.1c-0.1,0-0.2,0-0.3,0
		C69.8,57.9,69.8,57.9,69.9,57.9z M70.7,57c0,0.3-0.3,0.3-0.3,0.5c-0.1,0.1-0.3,0.2-0.5,0.1c0.1-0.2,0.3-0.4,0.4-0.6
		C70.5,57.1,70.6,57.1,70.7,57z M63.9,77c0-0.5,0-1,0-1.5c0.1,0,0.1-0.1,0.2,0c0,0.2,0.2,0.2,0.2,0.4c-0.1,0.3,0,0.5,0.1,0.8
		c-0.1,0.2,0.1,0.4,0.2,0.6c0.4,0,0.3,0.3,0.3,0.5c0,0.2,0.1,0.5-0.1,0.5c-0.1,0-0.2,0-0.3,0.1c0.2,0.1,0.3,0.2,0.4,0.4
		c0.6,0.1,0.5,0.5,0.5,1c0.1,0,0.1,0.1,0.1,0c0.1,0.3,0.5,0.3,0.4,0.8c0.2,0,0.2-0.1,0.3-0.3c-0.1-0.1-0.2-0.1-0.2-0.3
		c-0.1,0-0.2,0-0.2-0.1c0.1-0.3-0.2-0.6-0.1-1.1c0,0-0.1,0-0.1-0.1c0.1-0.3-0.3-0.4-0.1-0.8c-0.1-0.1-0.1-0.2-0.2-0.2
		c0.1-0.1,0-0.2,0-0.4c-0.3,0-0.1-0.5-0.4-0.6c0.1-0.1,0.1-0.2,0.1-0.2c0.2,0,0.2,0.1,0.3,0.1c0.1-0.1,0.1-0.1,0.2-0.1
		c0.1,0.3,0.1,0.9,0.4,1.2c0,0.1-0.1,0.1,0,0.2c0.3,0,0.2,0.4,0.4,0.4c0,0.1,0,0.1,0,0.2c0.1,0,0.2,0.1,0.2,0.2c0.1,0,0.1,0,0.2,0
		c0,0.1,0.1,0.1,0.1,0.1c0,0.1-0.1,0.1-0.2,0.1c0,0.1,0,0.1,0,0.2c0.4,0.1,0.4,0.6,0.8,0.8c0.1,0.4,0.4,0.6,0.5,1
		c0.1,0.4-0.2,0.6-0.2,1c0.2,0.1,0.2,0.4,0.5,0.4c0.1,0.2,0.3,0.3,0.4,0.5c0.3-0.1,0.4,0.1,0.6,0.2c0,0,0.1,0,0.1,0
		c0.1,0.1,0.3,0.2,0.4,0.3c0.3,0.1,0.7,0,0.8,0.3c0.2,0,0.3,0.1,0.5,0c0.1,0.1,0.2,0.1,0.3,0.1c0.1-0.2,0.5-0.1,0.6-0.2
		c0.3,0.1,0.7,0.1,0.8,0.5c0.2,0.1,0.4,0.3,0.5,0.5c0.2,0.1,0.5,0.1,0.6,0.3c0.3,0,0.5,0,0.8,0.1c0.1,0,0.1-0.2,0.2-0.1
		c0,0.1,0,0.2-0.1,0.3c0.3,0.3,0.5,0.6,0.6,1.1c-0.1,0-0.1,0.1-0.1,0.2c0.2,0,0.1,0.2,0.3,0.2c0.1,0,0.1-0.2,0.1-0.2
		c0.1,0.2,0.4,0.3,0.5,0.5c0,0.1-0.1,0.1-0.1,0.2c0.1,0,0,0.1,0.1,0.1c0-0.1,0-0.2,0.1-0.2c0,0.1,0,0.2,0.1,0.2
		c0.2-0.1,0.3,0.1,0.5,0c0,0.1,0,0.1,0.1,0.2c0.1,0,0.2,0,0.2,0c0,0.1,0,0.1,0,0.2c0.2,0,0.2-0.1,0.4-0.1c0-0.2-0.2-0.1-0.2-0.3
		c0.3,0,0.3-0.3,0.5-0.3c0.1,0.1,0.2,0.2,0.2,0.4c0.1,0,0.2-0.1,0.3,0c-0.4,0.2,0,0.5,0.2,0.6c0,0.3-0.1,0.4,0,0.6c0,0-0.1,0-0.1,0
		c0.2,0.2-0.1,0.6-0.1,0.8c0,0.1,0.1,0.1,0.2,0.1c-0.1,0.1-0.2,0.2-0.3,0.3c-0.2,0-0.3,0.1-0.4,0.3c0,0.1,0.1,0.1,0.1,0.1
		c-0.1,0-0.1,0-0.2,0c-0.1,0.1,0,0.1,0,0.2c-0.1,0.1-0.2,0.2-0.4,0.2c-0.1,0.2,0.2,0.5-0.1,0.5c-0.1,0.2,0,0.3,0,0.4
		c-0.1,0-0.1,0.1-0.2,0.1c0,0.1,0.1,0.1,0.1,0.2c-0.1,0-0.1,0.1-0.1,0.1c0,0.1,0.1,0.1,0.1,0.3c0,0-0.1,0-0.1,0.1
		c0.2,0.1,0.3,0.1,0.4,0.3c-0.2,0.1-0.5,0.3-0.6,0.6c0.1,0.1,0.1,0.3,0.2,0.4c0,0.1-0.1,0-0.1,0.1c0.8,0.5,1.5,1.1,1.7,2.2
		c0,0.1,0,0.1,0,0.1c0.1,0.1,0.2,0.2,0.2,0.4c0.3,0.1,0.5,0.5,0.4,0.8c0.2,0.1,0.3,0.3,0.4,0.5c0.5,0.4,1.1,0.7,1.8,1
		c0,0.1,0.2,0.1,0.1,0.3c0.4,0.2,0.5,0.7,0.4,1.3c0,0.1,0.1,0.1,0.1,0.2c-0.2,0.1,0,0.7-0.1,0.8c0,0.1,0.1,0.1,0.1,0.2
		c-0.2,0.5,0.2,1-0.1,1.5c0.1,0.2,0,0.5,0,0.7c0.3,0.1,0.1,0.5,0.1,0.7c0,0.1,0.1,0.2,0.2,0.3c0.1,0.2,0,0.3,0.1,0.5
		c-0.2,0-0.1,0.2-0.1,0.3c-0.1,0,0,0.1-0.1,0.1c0.1,0.2,0,0.4-0.1,0.5c0.2,0.1,0.1,0.5,0,0.6c0,0,0.1,0.1,0.1,0.2
		c-0.1,0-0.2,0-0.2,0c0.1,0.1,0.1,0.2,0.2,0.3c-0.1,0.2,0.2,0.3,0.2,0.6C71.5,101.6,63.9,90.2,63.9,77z M75.1,85c0.1,0,0.1,0,0.2,0
		c0,0,0,0.1,0,0.1C75.3,85.1,75.1,85.1,75.1,85z M75.4,85.2c0.2,0,0.1,0.2,0.3,0.1c0,0.1,0.1,0.2,0.1,0.3c-0.1,0-0.2,0-0.3,0
		c-0.1-0.1,0-0.2-0.1-0.2C75.3,85.3,75.4,85.3,75.4,85.2z M97.7,110.7c-4,0-7.8-0.7-11.4-2c0,0-0.1,0-0.1,0c0,0,0,0,0,0
		c-0.1-0.1-0.3-0.1-0.4-0.2c0,0,0-0.1,0-0.1c0,0-0.2,0-0.2-0.1c0.1-0.1,0-0.2,0.1-0.2c0.1,0.1,0.3,0.1,0.3,0.2
		c0.3,0.1,0.4,0.1,0.6-0.1c0-0.3-0.1-0.3,0-0.6c-0.1,0-0.3-0.2-0.1-0.3c0.1,0,0.1,0.2,0.2,0.1c0,0,0,0,0,0c0.4,0,1.1,0.1,1.4-0.1
		c0-0.2,0.2-0.3,0.2-0.6c-0.2-0.1-0.5-0.2-0.4-0.5c-0.2-0.2-0.5-0.4-0.6-0.7c0.1,0,0-0.2,0.1-0.1c0,0.2,0.2,0.3,0.4,0.4
		c0.1,0,0.1,0.2,0.1,0.2c0.2,0.1,0.4,0.1,0.6,0.1c0.1,0,0.1,0.1,0.2,0.1c0.4,0,0.5-0.5,0.7-0.7c0-0.1-0.1-0.1-0.1-0.2
		c0.2-0.1,0.1-0.4,0.4-0.4c0.1-0.1,0-0.2,0.1-0.3c0.1,0.1,0.2,0.1,0.3,0.1c0.1,0.2-0.1,0.4-0.1,0.5c0.2-0.4,0.2-1,0.7-1.1
		c0.1-0.5-0.1-0.8-0.2-1.2c0.1-0.1,0.1-0.1,0.1-0.3c0.3-0.1,0.5-0.3,0.9-0.4c0,0,0-0.1,0-0.1c0.3,0,0.3-0.1,0.6-0.1
		c0-0.1-0.1-0.1-0.1-0.2c0.3-0.1,0.4-0.1,0.7-0.1c0-0.1,0-0.1,0.1-0.1c0,0.1,0.1,0.1,0.3,0.1c0,0,0.1-0.1,0.1-0.2
		c0.3-0.1,0.2-0.2,0.1-0.4c0.1-0.1,0.1-0.2,0.2-0.4c0-0.1,0.2-0.1,0.2-0.2c0.1-0.3,0.3-0.3,0.4-0.5c0.1-0.2-0.1-0.5,0.2-0.6
		c0-0.1-0.1-0.1-0.1-0.2c0-0.3,0.2-0.5,0.2-0.8c0-0.2-0.2-0.5-0.1-0.8c0,0-0.1,0-0.1,0c0.1-0.2,0.3-0.4,0.3-0.6
		c0.2,0,0.1,0.2,0.2,0.1c0.1-0.3,0.3-0.3,0.3-0.6c0.4-0.5,1-0.7,1.2-1.4c0.1-0.3-0.1-0.5-0.1-0.9c-0.3-0.2-0.2-0.7-0.6-0.6
		c0-0.1,0-0.1-0.1-0.1c-0.2,0-0.1,0-0.3,0c-0.2-0.5-0.7-0.7-1.1-0.9c-0.3,0.1-0.6-0.1-0.8-0.1c-0.1,0,0,0.1-0.1,0.1
		c-0.1-0.2-0.2-0.2-0.5-0.2c-0.1,0.1-0.1,0.2-0.2,0.2c-0.1,0-0.1,0-0.1-0.1c0.1-0.1,0-0.2-0.1-0.2c0.1,0,0.1-0.1,0.1-0.1
		c-0.2,0-0.1-0.4-0.4-0.3c0.1-0.2-0.3-0.1-0.2-0.3c-0.1,0-0.1,0.1-0.2,0c-0.1-0.3-0.7-0.3-0.9-0.1c0,0.1,0.1,0.1,0.1,0.2
		c-0.2,0-0.2,0.2-0.4,0.2c0,0-0.1-0.1-0.1-0.1c0.3-0.1,0.5-0.4,0.4-0.8c-0.1,0-0.2,0.1-0.3,0c0.1,0,0-0.1,0-0.1
		c-0.4,0.1-0.6,0.3-0.7,0.6c-0.2-0.1-0.3,0.1-0.3,0.3c-0.1-0.1,0-0.3-0.1-0.3c0.1-0.3,0.2-0.6,0.5-0.7c-0.1,0.1,0,0.1,0.1,0.2
		c0.1,0,0.2,0,0.3,0c0-0.1-0.1-0.1-0.1-0.2c0,0,0.1,0,0.1,0c0-0.1,0-0.2,0.1-0.2c-0.1,0-0.2,0-0.2,0c0-0.1-0.1-0.1-0.1-0.2
		c0.2,0,0.3-0.1,0.2-0.3c-0.1,0-0.2,0-0.2,0c0-0.5-0.2-0.7-0.3-1.1c-0.2-0.2-0.5-0.3-0.6-0.6c-0.2,0-0.4-0.2-0.6-0.1
		c0-0.1-0.1-0.1-0.1-0.1c-0.3-0.1-0.7,0.1-1.1-0.1c0,0.1,0,0.1-0.1,0.2c0-0.4-0.4-0.4-0.6-0.5c0,0.1-0.1,0.2-0.1,0.3
		c-0.1-0.1-0.1,0-0.1,0.1c0-0.1,0-0.1,0-0.2c0.2,0,0.2-0.2,0.2-0.4c-0.2-0.1-0.4-0.2-0.5-0.4c-0.4-0.1-0.8,0-1.1,0.1
		c0-0.3,0.4-0.1,0.6-0.2c0-0.2,0.2-0.3,0.1-0.4c-0.3,0.1-0.3-0.2-0.6,0c0-0.1-0.1-0.1-0.1-0.3c0.1,0,0.2,0,0.3-0.1
		c-0.1-0.1-0.4,0-0.6,0c0,0.1,0.1,0.1,0,0.1c-0.2-0.1-0.7,0.3-1,0c0,0,0-0.1,0-0.1c-0.3-0.1-0.8,0.1-0.9,0c0,0,0.1-0.1,0.1-0.1
		c-0.2-0.1-0.3-0.3-0.6-0.3c-0.1-0.1-0.1-0.2-0.1-0.3c-0.1,0-0.2,0.1-0.1,0.2c0.1,0,0.2,0,0.2,0.1c-0.3,0-0.4,0.1-0.6,0.1
		c0,0.1,0,0.2,0,0.3c0.2,0.1,0.2,0.2,0.2,0.5c-0.2,0-0.2,0.1-0.3,0.1c-0.1-0.2-0.2-0.3-0.2-0.5c0-0.1,0.2-0.1,0.2-0.2
		c-0.1-0.1,0-0.3-0.2-0.3c0.1-0.2,0.3-0.2,0.4-0.4c-0.2-0.3-0.4,0-0.5,0.1c-0.1,0.1-0.2,0.1-0.4,0.1c-0.1,0.1-0.2,0.3-0.5,0.2
		c0,0.1,0,0.1-0.1,0.1c-0.3-0.1-0.4,0.2-0.3,0.4c-0.1,0-0.1,0-0.2,0.1c0,0.1,0.1,0.1,0,0.2c-0.3,0-0.3,0.4-0.4,0.6
		c-0.2-0.2-0.4-0.4-0.7-0.6c0-0.1,0-0.1,0-0.2c-0.2,0-0.3-0.1-0.5-0.1c0,0.1,0,0.1-0.1,0.1c-0.3,0-0.4,0.1-0.6,0.2
		c-0.1-0.1-0.2-0.1-0.2-0.1c-0.1,0,0,0.1-0.1,0.1c-0.1,0-0.1-0.1-0.1-0.1c0.1-0.3-0.5-0.4-0.4-0.8c-0.1,0-0.1-0.1-0.1-0.2
		c0.1-0.4,0.1-1.1,0.4-1.4c-0.1-0.1,0-0.2,0-0.3c-0.1,0-0.2-0.1-0.3-0.1c0-0.4-0.5-0.3-0.7-0.4c-0.3,0.3-1,0.1-1.3,0.1
		c0.3-0.3,0.4-0.7,0.4-1.1c0,0-0.1,0-0.1-0.1c0.1,0,0.1-0.2,0.2-0.2c0,0.1-0.1,0.1-0.1,0.1c0.1,0,0.1,0.1,0.2,0.1
		c-0.1-0.3,0.1-0.5,0.2-0.7c0,0,0-0.1,0-0.2c0-0.3,0.3-0.4,0.3-0.6c-0.1-0.5-1,0.2-1.3,0.2c0,0.4-0.3,0.5-0.3,0.9
		c-0.2,0-0.2,0.3-0.4,0.3c-0.1-0.2-0.5,0-0.6,0.1c-0.2,0-0.4,0.1-0.6,0.1c0-0.2-0.3-0.3-0.5-0.2c0-0.2-0.2-0.3-0.1-0.5
		c-0.4-0.1-0.3-0.6-0.6-0.8c0.4-0.6,0-1.3,0.4-1.8c0.3-0.1,0.2-0.3,0.2-0.5c-0.2-0.1-0.1-0.4-0.1-0.6c0,0,0.1,0,0.1,0
		c0-0.3,0.3-0.4,0.5-0.5c0-0.1,0-0.1,0-0.1c0.2-0.1,0.3-0.1,0.5-0.2c0-0.2,0.2-0.2,0.2-0.4c0,0.1,0.1,0,0.1,0.1
		c0.3-0.3,0.6-0.1,1-0.2c0,0.2,0.2,0.2,0.2,0.2c0,0,0,0.1,0,0.1c0.2,0.1,0.3,0,0.4,0c0-0.1-0.1-0.1-0.1-0.1c0.1,0,0.1-0.1,0.1-0.1
		c0.1,0.1,0.3,0.1,0.2,0.2c0.2,0,0.1,0,0.2,0.1c0.1,0,0.1-0.1,0.1-0.2c-0.1,0-0.1,0-0.1-0.1c0-0.1,0.2-0.1,0.2-0.2
		c-0.1-0.1-0.3-0.1-0.4-0.2c0.1-0.1,0.2,0,0.3,0c0.1-0.2,0.3-0.1,0.6-0.1c0,0,0-0.1,0.1-0.1c0,0.1,0,0.1,0,0.2
		c0.2,0,0.2-0.1,0.3-0.2c0,0.1,0,0.1,0,0.1c0.1,0,0.1-0.1,0.3-0.1c0,0.1,0,0.1,0.1,0.2c0.1,0,0.1,0,0.2,0c0.1,0.4,0.5,0.1,0.7,0
		c0.1,0,0.1,0.2,0.1,0.3c0,0.1,0.1,0.1,0.2,0.1c0.1,0.3-0.2,0.6,0,0.7c0.1,0,0-0.2,0.2-0.1c0,0.2-0.1,0.2-0.1,0.3
		c0,0.2,0.1,0.3,0.2,0.4c0.1,0.3,0.2,0.6,0.4,0.7c0.1-0.2,0.3-0.6,0.3-0.9c-0.2-0.6-0.2-1.1-0.4-1.7c0-0.1,0.1-0.1,0.1-0.1
		c0-0.2,0.1-0.3,0.1-0.4c0-0.1,0-0.2,0-0.2c0.1-0.1,0.3-0.1,0.2-0.2c0.3-0.2,0.6-0.3,0.8-0.7c0.4-0.1,0.6-0.4,0.9-0.6
		c0-0.1-0.1-0.1-0.1-0.2c0.1,0,0.2-0.1,0.2-0.1c0,0-0.1-0.1-0.1-0.1c0.1,0,0.1-0.1,0.2,0c0,0.1,0.1,0.1,0.1,0.1c0,0,0.1-0.1,0.1-0.1
		c-0.2,0,0-0.1-0.1-0.1c-0.1,0-0.2,0-0.2-0.1c0.1,0,0.2-0.1,0.3-0.1c0-0.1,0-0.1,0-0.3c-0.2,0-0.2-0.2-0.3-0.3c0.1,0,0.1-0.1,0.2,0
		c0-0.2-0.1-0.1-0.1-0.3c0,0,0.1,0,0.1,0c0-0.1-0.1-0.1-0.2-0.2c0,0,0,0,0.1,0c0-0.3,0.2-0.4,0.2-0.7c0.2-0.1,0.3-0.1,0.4-0.2
		c0,0.2-0.4,0.3-0.2,0.5c-0.1,0.1-0.1,0.1-0.2,0.1c0.1,0.1-0.1,0.3,0,0.4c0.1,0,0-0.1,0.2-0.1c0.1,0.1,0,0.1,0,0.2
		c0.2-0.1,0.1,0,0.1,0.1c0,0,0-0.1,0-0.2c0.2-0.1,0.2-0.4,0.3-0.6c-0.1,0-0.1-0.1-0.1-0.1c0-0.1,0-0.1,0.1-0.1
		c0.1,0,0.2,0.1,0.4,0.1c0.1-0.1,0.1-0.3,0.3-0.3c0-0.2,0.2-0.4,0-0.6c0.2-0.2,0.3-0.4,0.6-0.5c0.1,0.1,0.2-0.1,0.3-0.1
		c0.2,0,0.2,0,0.3,0.1c0,0,0,0,0.1,0c0-0.1,0-0.2,0.1-0.3c0.1,0,0.2,0,0.1,0.1c0.1,0,0.2-0.1,0.3-0.1c-0.1-0.1-0.2-0.1-0.3-0.2
		c0-0.1,0.1-0.1,0.2-0.1c0-0.1-0.1-0.1-0.1-0.2c0.1,0,0.2-0.2,0.3-0.3c-0.1,0,0.1-0.2,0.1-0.3c0.1,0.1,0.1,0,0.2,0
		c0,0,0,0.1,0.1,0.1c0-0.1,0.1-0.1,0.1-0.1c0-0.1,0-0.3,0.2-0.3c0,0,0,0.1,0,0.1c0.1,0,0.1-0.1,0.1-0.1c0.1,0,0.1,0.1,0.1,0.1
		c0.1-0.1,0.2-0.2,0.3-0.2c0-0.1,0-0.3,0-0.4c0.2,0,0.4,0.2,0.5-0.1c0,0-0.1,0-0.1-0.1c0.1,0,0.1-0.1,0.2-0.1c0,0.1-0.1,0.1,0,0.2
		c0.1-0.2,0.3-0.3,0.4-0.5c0,0.1,0.1-0.1,0.1,0c0,0.2-0.2,0.3-0.2,0.4c0.1-0.1,0.4-0.2,0.5-0.1C86,67.8,86,67.9,85.9,68
		c0,0-0.1,0-0.1-0.1c-0.3,0-0.4,0.2-0.5,0.4c-0.2,0.1-0.3,0.2-0.4,0.4c0.1,0.1,0.2,0.2,0.4,0.3c0.1,0,0-0.1,0.1-0.1c0,0,0,0,0,0.1
		c0.2,0,0.1-0.3,0.4-0.2c0-0.2,0.1-0.3,0.2-0.4c0.1,0,0.1,0.1,0.1,0.1c0-0.1,0-0.1,0-0.1c0.4-0.1,0.7-0.3,0.9-0.6
		c0-0.1-0.1,0-0.1-0.1c0,0,0.1-0.2,0-0.2c-0.2,0.1-0.2,0.2-0.4,0.3c0-0.2-0.3-0.2-0.4-0.2c0-0.2,0.2-0.1,0.1-0.2
		c-0.4,0-0.4-0.3-0.3-0.6c-0.1,0-0.2,0.1-0.2,0c0.2-0.1,0.1-0.3,0.2-0.4c-0.1,0,0-0.1-0.1-0.1c-0.2,0-0.3,0.2-0.5,0.1
		c0.1-0.1,0.1-0.2,0-0.3c0.1,0,0.1-0.1,0.1-0.1c0,0.1,0,0.1,0,0.2c0.1,0,0.2-0.1,0.3-0.1c0-0.1,0-0.2,0.1-0.3c0,0,0.1,0,0.1,0
		c0.1-0.1,0-0.3,0.2-0.4c0-0.1-0.2-0.1-0.1-0.2c-0.9-0.1-1.2,0.5-1.8,0.8c0,0.1,0,0.3-0.2,0.2c-0.1,0.3-0.3,0.5-0.5,0.7
		c0,0-0.1,0-0.1-0.1c0.3-0.1,0.4-0.4,0.5-0.7c0-0.1-0.1,0-0.1-0.1c0.3,0,0.3-0.4,0.6-0.4c0-0.1,0.1-0.2,0.1-0.2
		c0.2,0,0.1-0.2,0.3-0.2c0.1-0.2,0.2-0.4,0.4-0.5c0.2-0.1,0.6,0.1,0.7-0.1c0.2,0.2,0.5,0,0.7-0.1c0,0.1,0.1,0.1,0.1,0.1
		c0.1,0,0.1-0.1,0.3-0.1c0,0.1,0,0.1,0,0.1c0.2,0,0.2-0.1,0.3-0.1c0,0,0.1,0.1,0.2,0.1c0.1-0.1,0.2-0.1,0.4-0.1
		c0-0.2,0.2-0.2,0.3-0.3c0-0.3,0.2-0.4,0.3-0.5c0.2,0.1,0.2-0.2,0.4-0.1c0.2-0.2,0.6-0.3,0.5-0.7c0.1,0,0-0.2,0.1-0.3
		c-0.1-0.1-0.1,0-0.2,0.1c0-0.1,0-0.1,0-0.2c-0.2,0-0.2-0.2-0.5-0.1c0,0.1,0,0.1-0.1,0.1c-0.4,0.1-0.6,0.3-0.9,0.5
		c-0.1,0-0.1-0.2-0.1-0.3c0.1,0,0.1,0,0.3,0c0.3-0.3,0.7-0.3,1-0.7C89,62.1,89,61.9,89,61.8c0,0-0.1,0.1-0.1,0.2
		c-0.1,0-0.2,0-0.2-0.1c0-0.1,0-0.1,0-0.2c-0.1,0-0.2,0-0.3,0.1c0-0.2-0.1-0.1-0.3-0.1c0.1-0.1,0-0.2,0-0.3c-0.1,0-0.1-0.2-0.4-0.1
		c0,0,0-0.1,0-0.2c-0.1,0-0.1,0-0.1-0.1c-0.1,0-0.1,0.1-0.1,0c0.1-0.1,0-0.1,0-0.3c0.2,0,0.3-0.1,0.4,0c0-0.1,0-0.1,0-0.2
		c-0.1,0-0.2-0.1-0.4-0.1c0.1,0,0.2-0.1,0.2-0.3c-0.1-0.1-0.2-0.1-0.2-0.3c0-0.1,0.1-0.1,0.1-0.2c-0.1,0-0.3,0.1-0.3,0
		c0-0.1,0.3-0.1,0.2-0.3c0-0.1-0.1,0-0.1-0.1c0.1-0.1,0-0.1,0-0.2c-0.1-0.1-0.2,0.1-0.2,0c-0.1-0.3,0-0.6,0-0.9
		c-0.3,0.1-0.3,0.4-0.4,0.6c0.1,0.3-0.3,0.3-0.3,0.6c-0.3,0-0.2,0.4-0.5,0.4c0-0.1-0.1-0.2-0.1-0.3c0,0,0,0.1-0.1,0.1
		c0-0.1,0-0.2-0.1-0.3c-0.2,0-0.4,0-0.4-0.2c0.1-0.2,0-0.3,0-0.6c0.1,0,0.2-0.1,0.2-0.1c0,0-0.1,0-0.1,0c0.1-0.1,0.2-0.2,0.2-0.4
		c-0.1,0.1-0.2,0.1-0.4,0c0-0.1,0.1-0.1,0.1-0.2c-0.1,0-0.3,0-0.5,0c0.1-0.2-0.1-0.1-0.1-0.3c-0.1,0-0.2,0-0.1-0.2
		c-0.2-0.1-0.2-0.2-0.4-0.2c-0.3,0.4-0.9,0.3-1.3,0.3c-0.1,0.1-0.2,0.1-0.3,0.2c0,0.1,0.1,0.1,0,0.2c0.1,0,0.1-0.1,0.1,0
		c-0.1,0.3-0.3,0.4-0.4,0.6c0,0,0.1,0,0.1,0c-0.1,0.1-0.1,0.5,0,0.5c-0.1,0.1-0.1,0.2-0.2,0.2c0,0.1,0,0.1,0,0.2
		c-0.2,0.1-0.4,0.2-0.4,0.5c0.2,0,0.2,0.2,0.4,0.2c0,0.2,0.1,0.6,0.2,0.8c-0.1,0.2-0.2,0.3-0.2,0.6c0.1,0,0-0.2,0.1-0.2
		c0,0.1,0.1,0.1,0,0.3c-0.1,0-0.1,0-0.2,0.1c-0.2,0.5-0.6,0.8-1.1,1.1c0,0.1,0,0.2-0.1,0.4c0,0.1,0.1,0.1,0.1,0.2
		c0,0.3-0.2,0.6-0.1,0.8c-0.1,0.1-0.2,0.3-0.2,0.5c-0.1-0.1-0.2,0.1-0.3,0.2c-0.1,0-0.2,0-0.3,0c0.1-0.2-0.2-0.3-0.3-0.4
		c0.1-0.2,0-0.4-0.1-0.4c0.1-0.3,0.2-0.5,0.1-0.8c0.1-0.1,0.1-0.3,0.2-0.5c-0.3-0.1-0.6-0.1-0.9-0.1c0-0.1-0.3,0-0.3-0.2
		c-0.2,0-0.3,0-0.4-0.1c-0.1,0-0.1,0-0.2,0c0-0.2,0-0.3,0-0.4c0-0.1-0.1,0-0.2,0c-0.2-0.2-0.5-0.2-0.7-0.4c-0.2,0.1-0.3,0.1-0.5,0.2
		c0.1-0.3,0-0.8-0.1-1.1c-0.2,0-0.3,0.1-0.5,0.1c0-0.2,0.1-0.3,0-0.5c0.1-0.3,0.4-0.5,0.3-0.8c0.1,0,0.1-0.1,0.3-0.1
		c0-0.3,0.3-0.5,0.6-0.6c0-0.1,0.1-0.2,0.1-0.3c0.2,0,0.1-0.2,0.3-0.1c0-0.1,0-0.1,0-0.1c0.1,0,0.1,0,0.2-0.1c-0.1,0-0.1,0-0.1-0.1
		c0,0,0,0,0.1-0.1c0.2,0.1,0.5-0.1,0.5-0.3c0,0-0.1,0-0.1-0.1c0-0.1,0-0.1,0.1-0.2c0.2,0,0.2-0.1,0.3-0.1c-0.1-0.3,0.2-0.3,0.3-0.5
		c0.1,0.1,0.2,0,0.3,0.1c0.4-0.1,0.4-0.5,0.6-0.8c-0.3-0.1-0.8,0.1-1.1,0.1c0.1-0.1,0.2-0.1,0.4-0.1c0-0.1,0-0.2,0.1-0.2
		c0.2,0.1,0.3,0,0.6,0c0,0.1,0.1,0.2,0.2,0.2c0.1-0.2,0.4-0.4,0.2-0.7c0.1,0,0.2-0.1,0.3-0.1c0.1,0.1,0.1,0.2,0.2,0.2
		c0.1-0.1,0.2-0.1,0.3-0.2c-0.2,0-0.2-0.3-0.3-0.3c0-0.1,0.1-0.1,0.1-0.1c0,0.1,0.1,0,0.1,0.1c0,0.1-0.1,0-0.1,0.1
		c0.1-0.1,0.2,0.1,0.3,0.1c0.2-0.5,1.2-0.4,1.1-1.1c-0.1,0-0.1,0-0.2,0c-0.1-0.2-0.1-0.3,0-0.5c0.1-0.1,0.2-0.1,0.2-0.2
		c0-0.1-0.1,0.1-0.1-0.1c0.1-0.1,0.4-0.3,0.2-0.5c-0.1,0.1-0.1,0.1-0.3,0.1c0-0.1,0-0.1,0-0.2c0,0,0.1,0,0.1,0
		c-0.1,0-0.2-0.1-0.1-0.2c-0.3,0.1-0.5-0.1-0.8,0.1c-0.1,0.4,0.2,0.8-0.2,0.9c-0.1,0.4-0.5,0.6-0.5,1.1c-0.1,0.1-0.3,0.1-0.3,0.3
		c-0.1,0-0.1,0-0.2,0c0-0.3-0.2-0.4-0.2-0.7c0.2-0.3,0.6-0.6,0.4-1c-0.3,0.1-0.5,0.4-0.5,0.7c-0.1,0-0.1,0.1-0.2,0.1
		c0,0.1,0,0.3-0.2,0.2c0.1-0.4,0-0.6,0-0.8c-0.3,0-0.4-0.1-0.4-0.2c0.1-0.1,0.4-0.2,0.4-0.4c0,0-0.1,0.1-0.1,0.1
		c0-0.1,0.1-0.2,0.1-0.2c0.1,0.1,0.3,0,0.3-0.1c-0.1,0.1-0.2,0-0.1-0.1c-0.2,0-0.2-0.1-0.3-0.2c-0.2,0.1-0.3-0.3-0.5-0.4
		c0.2-0.1,0.1-0.3,0.4-0.4c0-0.1-0.1,0-0.1-0.1c0,0,0,0,0-0.1c0.2-0.2,0.6-0.2,0.9-0.4c0.2-0.2,0.5-0.5,0.6-0.8
		c-0.2,0-0.4-0.1-0.5,0.1c0-0.2-0.3-0.1-0.5-0.1c0,0.1-0.1,0.2-0.2,0.2c-0.1-0.1-0.2,0.1-0.3,0c0,0.1,0,0.2-0.1,0.3
		c-0.1,0.2,0,0.7-0.1,0.8c0.1,0.2-0.1,0.6-0.3,0.7c0,0.1,0.1,0.1,0.1,0.2c-0.1,0-0.1-0.1-0.2,0c-0.1,0.2-0.3,0.3-0.2,0.6
		c-0.1,0-0.1,0-0.2,0.1c0,0.2,0,0.2,0.2,0.3c-0.1,0-0.2,0.2-0.1,0.3c0-0.1,0.1-0.1,0.1,0c0-0.1,0-0.2,0.1-0.3c0.2,0,0.1,0.2,0.3,0.3
		c0.1-0.1,0.1-0.2,0.3-0.2c0,0.1-0.1,0.2-0.1,0.3c-0.2,0-0.4,0-0.4,0.3c0,0.1-0.2,0.2-0.1,0.2c0.1,0,0.2-0.2,0.2-0.1
		c0,0.1-0.1,0.1,0,0.1c-0.3,0.1-0.5,0.5-0.8,0.6c0,0.2-0.2,0.3-0.2,0.4c0.1,0,0,0.1,0,0.2c0,0,0.1,0,0.1,0c0,0.1-0.1,0.1-0.2,0.1
		c-0.1-0.2-0.2-0.2-0.3-0.4c0.1-0.1,0.2-0.3,0.2-0.4c-0.1,0,0-0.1-0.1-0.1c0,0.1-0.1,0.1-0.2,0.2c0-0.2-0.1-0.2-0.2-0.3
		c-0.1,0.1-0.2,0.3-0.2,0.6c-0.2,0.1-0.4,0.2-0.6,0.1c-0.2,0.1-0.3,0.3-0.4,0.3c0.1,0-0.1-0.1-0.1-0.1c-0.1,0-0.2,0-0.3,0
		c0-0.1-0.1-0.1-0.2-0.2c0,0.1-0.1,0.1-0.2,0.1c0-0.1,0.1-0.1,0.1-0.2c-0.1-0.1-0.1,0.2-0.3,0.1c0-0.1,0.1-0.3,0.1-0.4
		c-0.3-0.1-0.6,0.2-0.9,0.2c0,0.2-0.2,0.3-0.3,0.5c0.1,0,0.1-0.1,0.2,0c0-0.1,0-0.2,0.1-0.2c0,0,0,0.1,0.1,0.1
		c0.1-0.1,0.2-0.2,0.4-0.2c0-0.1,0-0.1,0.1-0.2c0,0,0.1,0,0.1,0.1c-0.4,0.4-1.2,0.7-1.1,1.3c-0.2,0-0.1,0.2-0.2,0.2
		c-0.1-0.2,0-0.4,0-0.6c-0.1,0.1,0,0.3-0.2,0.3c0-0.1,0.1-0.2,0.1-0.4c-0.2,0.1-0.2-0.1-0.2-0.2c-0.3,0.3-0.8,0.4-1.2,0.6
		c0-0.1-0.1,0-0.1-0.1c0.1-0.2,0.2-0.4,0.5-0.5c0-0.2-0.1-0.4-0.3-0.3c0.1-0.1,0.2-0.2,0.3-0.3c0.1,0,0.1,0,0.2-0.1
		c0,0.1,0.1,0,0.1,0.1c0,0.1-0.1,0.2-0.1,0.3c0.1,0,0.2-0.1,0.2,0c0.3-0.2,0.8-0.3,1.2-0.5c0-0.1,0-0.1,0.1-0.1
		c0.5-0.2,0.9-0.5,1.3-0.8c0.1,0.1-0.1,0.2-0.1,0.3c0.1,0,0.3,0,0.2,0.2c0,0,0.1-0.1,0.1-0.1c0.1,0.2,0.2,0,0.3,0.1
		c0.1-0.2,0.4-0.1,0.6-0.4c-0.1,0,0-0.1,0-0.1c-0.2,0-0.2,0.2-0.4,0.1c0-0.1-0.1-0.2,0-0.3c0.2,0,0.3,0.2,0.4,0.1
		c0-0.1-0.1,0-0.1-0.1c0.1-0.1,0.1-0.1,0.2-0.1c0,0.1,0.2,0,0.1,0.2c0.2-0.1,0.1-0.3,0.2-0.5c-0.4,0.2-0.6,0-0.6-0.3
		c-0.1,0.1,0,0.2-0.1,0.2c0-0.1-0.1,0-0.1,0c-0.1-0.4,0-0.7-0.1-1.1c-0.2-0.1-0.4,0.2-0.5,0.1c-0.1,0.2-0.3,0.5-0.5,0.5
		c0.1-0.3,0.3-0.4,0.4-0.6c0,0-0.1,0-0.1-0.1c0.1-0.1,0.2-0.2,0.3-0.3c0,0.1,0,0.2,0,0.3c0.2-0.1,0.2,0,0.4,0c0.2-0.2,0-0.3,0-0.6
		c0,0,0,0,0,0c0.7-0.6,1.4-1.1,2.1-1.7c0,0,0,0,0,0.1c0.4-0.1,0.8-0.1,1.1-0.4c-0.1-0.2,0-0.2,0.1-0.4c0,0,0,0,0,0
		c0.3-0.2,0.7-0.4,1-0.6c0,0,0.1,0,0.1,0c0.1-0.1,0.1-0.2,0.2-0.2c0,0,0,0.1,0,0.1c0.7,0.2-0.1,0.8,0,1.3c0.2,0,0.1-0.2,0.3-0.2
		c0,0.1-0.1,0.1,0,0.1c0.2-0.1,0.4-0.3,0.6-0.4c0,0.1-0.1,0.2,0,0.3c0.1,0,0.2-0.2,0.4-0.1c0-0.1,0.1-0.2,0.2-0.2c0,0.1,0,0.1,0,0.1
		c0.2,0,0.2-0.1,0.3-0.1c0,0,0,0.1,0,0.1c0.1-0.2,0.7-0.1,0.7-0.4c0,0.1,0,0.1,0.1,0.2c0.1,0,0.1-0.1,0.2-0.1c0.1,0.1,0.7,0,0.7-0.4
		c0.1-0.1,0.3-0.2,0.3-0.4c-0.1-0.1-0.2-0.1-0.3-0.2c-0.1,0-0.1,0.1-0.2,0.1c-0.1,0-0.1-0.1-0.1-0.1c-0.3,0-0.4,0.2-0.6,0.1
		c-0.2,0.2-0.6,0.2-0.7,0.4c-0.2,0-0.2,0-0.3-0.1c0,0,0,0.1-0.1,0.1c-0.1-0.1-0.1,0-0.2,0c0.1-0.1-0.3-0.1-0.3-0.1c0,0,0-0.1,0-0.1
		c-0.1,0-0.2,0-0.3,0.1c0-0.1,0-0.1-0.1-0.1c0.1-0.1,0.1,0,0.2,0c0-0.1,0.2-0.1,0.2-0.2c-0.2,0-0.2-0.1-0.4-0.1c0,0,0-0.1,0-0.1
		c0,0,0,0,0,0c0.1,0,0.2-0.1,0.2-0.1c0,0.1,0,0.2,0.1,0.2c0-0.1,0.1-0.2,0-0.3c0.3-0.2,0.6-0.3,1-0.5c0,0,0,0.1,0,0.1
		c-0.4,0.2-0.9,0.4-0.8,0.8c0.1,0,0.1-0.2,0.2-0.1c0,0.1-0.1,0.1,0,0.1c0.3,0,0.2-0.2,0.4-0.3c0.1,0.1,0,0.2,0.1,0.2
		c0-0.1,0-0.1,0.1-0.1c0.1,0.1,0.3,0,0.4,0.1c0.1-0.1,0.2-0.1,0.2-0.2c0,0-0.1-0.1,0-0.1c0.2,0.1,0.1-0.1,0.3-0.1c0,0,0,0.1,0,0.1
		c0.2-0.1,0.4,0,0.6-0.1c0.1-0.1-0.1-0.3,0.1-0.3c0,0.1,0,0.2,0,0.3c0.1,0,0.1-0.1,0.2-0.1c0,0,0,0,0.1,0.1
		c-0.1,0.1-0.1,0.2-0.1,0.3c0.1,0,0.1,0,0.1,0c0.1-0.2,0.3-0.3,0.4-0.4c0,0,0,0.1,0.1,0.1c0.1-0.1,0.3-0.2,0.4-0.4
		c-0.1-0.1-0.1,0-0.2,0c0-0.1-0.1-0.1-0.1-0.2c-0.1,0-0.2,0-0.3,0c0.2-0.1,0.4-0.2,0.6-0.2c0-0.1,0-0.2,0-0.3
		c0.2-0.1,0.6-0.1,0.7-0.3c0,0-0.1,0-0.1,0c0.1-0.1,0.2-0.1,0.3-0.1c0-0.1-0.1,0,0-0.1c0.1,0,0.3-0.1,0.3-0.2c1-0.3,1.9-0.7,2.9-0.9
		c-0.1,0.1-0.2,0.2-0.3,0.3c-0.1,0-0.2,0-0.3,0c-0.4,0.3-0.9,0.3-1.3,0.5c-0.3,0-0.4,0.1-0.4,0.3c0.1,0.2,0.4,0.6,0.6,0.5
		c0.2,0,0.1-0.2,0.3-0.4c0,0.1,0.1,0.1,0.1,0.2c0.3,0,0.5-0.2,0.8-0.2c0,0.1,0,0.1,0,0.1c0,0.1-0.1,0.1-0.1,0.1
		c-0.4-0.1-0.8,0.2-1.2,0.3c0,0.1,0.1,0,0.1,0.1c-0.2,0.1-0.3,0-0.4-0.1c0,0.1-0.1,0.1-0.1,0.1c0,0.1,0.1,0.2,0,0.2
		c0.2-0.1,0.2,0.1,0.5,0.1c0,0.1-0.1,0.1-0.1,0.1c0.1,0.1,0.1,0.1,0.1,0.2c0.2,0,0.3,0,0.5,0c0-0.2,0-0.3,0.2-0.4
		c0.1,0.1,0,0.2,0.1,0.2c0-0.2,0.2-0.2,0.4-0.2c0,0.1,0,0.2,0.1,0.2c0.1-0.2,0.3-0.2,0.6-0.3c0-0.1,0.1-0.1,0.2-0.2
		c0,0.1,0,0.1,0,0.2c0.1,0,0.1-0.2,0.3-0.2c0.1,0,0.1,0.1,0.2,0.1c0.3-0.1,0.5,0.1,0.6,0.3c0.2-0.1,0.5,0.1,0.4,0.3
		c0.1,0.1,0.3,0.1,0.4,0.4c0.1,0,0.2,0,0.2,0.1c0,0.2-0.2,0.3-0.2,0.4c0-0.1,0.1-0.1,0.2-0.1c0.1,0.3,0.3,0.5,0.2,0.8
		c0,0,0.2,0,0.1,0c0,0.1-0.1,0.2-0.1,0.4c-0.1,0-0.2,0-0.3,0.1c0.2,0.1,0,0.3-0.1,0.4c0,0,0.1,0,0.1,0c0,0.1-0.2,0.1-0.1,0.3
		c0.3,0.2,0.5-0.1,0.6-0.3c0,0.1,0.1,0.1,0,0.2c0.2-0.2,0.3,0.1,0.6,0c0,0.1-0.1,0.1,0,0.1c0.2,0,0.3-0.2,0.4-0.1
		c0,0.1-0.2,0.1-0.2,0.2c0.1-0.1,0.4-0.1,0.4,0.1c0,0.1-0.3,0-0.2,0.1c0.1,0,0.1,0.1,0.1,0.1c-0.1,0-0.2,0-0.2,0.1
		c0.1,0,0.2,0,0.2,0c0,0.2-0.1,0-0.1,0.1c0,0.1,0.2,0,0.2,0.2c0,0-0.2,0-0.2,0c-0.2-0.2-0.9-0.5-1.2-0.2c0,0,0.1,0.1,0.1,0.1
		c0.1,0,0.2,0.1,0.3,0.1c0.3-0.1,0.3,0.2,0.6,0.3c0.1,0,0.1-0.1,0.2-0.1c0,0.2,0.2,0,0.3,0c0,0.1,0,0.1,0,0.3
		c-0.1,0-0.1,0.1-0.1,0.1c0.1,0,0.1,0,0.1,0.1c0,0-0.1,0.1-0.1,0.1c0,0,0.1-0.1,0.1,0c-0.1,0.1-0.1,0.1,0,0.2c-0.1,0,0,0.2-0.1,0.2
		c-0.1,0,0-0.2-0.1-0.2c-0.1,0.1,0,0.3,0,0.5c-0.1,0.1-0.3,0.2-0.4,0.1c0,0.2-0.2,0.1-0.3,0.2c0.2,0.1,0.6,0,0.7-0.1
		c0,0.1,0.1,0.2,0,0.2c-0.2-0.1-0.3,0.1-0.5,0.1c0-0.1-0.2-0.1-0.2-0.1c0,0.1,0.1,0.1,0.1,0.1c-0.3,0-0.3,0.2-0.4,0.4
		c0.2-0.1,0.4-0.3,0.7-0.3c-0.1,0.1,0,0.1,0.1,0.2c0.1,0,0.1,0,0.2-0.1c0-0.1,0-0.3,0.1-0.3c0,0,0.1,0,0.1,0.1
		c-0.1,0.1,0,0.2-0.1,0.4c-0.3,0-0.4-0.1-0.6-0.1c-0.1,0.1-0.2,0.2-0.4,0.4c0.1,0.1,0,0.1,0,0.2c0,0.1,0.2,0,0.2,0.1
		c0,0.1-0.1,0.2-0.2,0.4c0.1,0,0.1-0.1,0.1,0c0,0.1-0.2,0-0.2,0.1c0,0,0,0,0,0.1c0.1,0,0.2-0.1,0.2,0c0,0.1-0.2,0-0.1,0.2
		c0.2,0.1,0.3-0.2,0.4-0.1c0,0.1-0.2,0.1-0.2,0.2c0,0.1,0.1,0.1,0.1,0.2c0,0.1-0.2,0-0.1,0.1c0,0.1,0.1,0,0.1,0c0,0.1,0,0.1,0.1,0.2
		c-0.1,0-0.1,0.1-0.1,0.2c0.1-0.1,0.3-0.2,0.4-0.3c0.1,0,0.1,0,0.1,0c0,0,0,0.1,0,0.2c0,0-0.1,0-0.1,0c0,0.1,0,0.1,0,0.2
		c-0.1,0-0.3,0-0.3,0.1c0.1,0,0.2,0,0.2,0.1c0,0.1-0.2,0-0.2,0.1c0.1,0.2,0.1,0.1,0.1,0.3c0.1,0,0.2-0.1,0.2,0
		c0,0.1-0.1,0.1-0.1,0.2c0.2,0,0,0.1,0.1,0.2c0.1,0,0.1-0.2,0.2-0.1c0,0.1-0.1,0.2-0.1,0.3c0,0,0.1,0,0.1,0.1c0.1,0,0.1-0.1,0.2-0.1
		c0,0.1-0.1,0.2-0.1,0.3c0.1,0,0.1-0.2,0.3-0.1c0,0.1-0.1,0.2,0,0.2c0.1,0.1,0.1-0.1,0.1-0.1c0,0.1-0.2,0.2-0.1,0.2
		c0,0,0.1,0,0.1-0.1c0.1,0.1-0.1,0.2,0,0.3c0.1-0.1,0.1,0,0,0.1c0.1,0,0.1-0.1,0.1,0c0,0.1-0.1,0.2,0,0.2c0,0,0.1,0,0.1,0
		c0,0-0.1,0.2,0,0.1c0.1,0,0.1-0.2,0.2-0.2c0.1,0.1,0.2,0,0.3,0c0-0.1,0.1-0.3,0.2-0.3c0,0.2-0.1,0.3,0,0.3c0,0.1-0.1,0-0.1,0.1
		c0.1,0,0.2,0,0.2,0c0,0.1,0,0.1,0,0.1c0.1,0,0.1-0.1,0.1-0.1c0.1,0.1,0.2,0,0.2,0.1c0,0.1-0.2,0.2-0.1,0.3c0.1,0,0.1-0.2,0.2-0.2
		c0,0.1-0.1,0.2,0,0.2c0.1,0,0-0.2,0.1-0.3c0.1,0.1,0,0.1,0,0.3c0.1,0,0.1,0.1,0.2,0.1c0,0,0.3-0.1,0.1-0.1c0,0,0.1,0,0.1,0
		c-0.1-0.1-0.2-0.2,0-0.3c-0.1-0.1-0.2-0.1-0.3-0.1c0,0,0.1,0,0.2,0c0-0.2,0.3-0.4,0.2-0.6c0.3-0.1,0.1-0.3,0.2-0.6
		c0.1,0,0.1,0,0.2,0c0-0.1,0-0.1-0.1-0.2c0,0,0-0.2,0.1-0.1c0,0,0.1,0.1,0.1,0.1c0-0.2,0-0.3,0-0.5c0.1,0,0.1,0.1,0.2,0.1
		c-0.1-0.2,0-0.3,0.1-0.5c-0.1-0.1-0.3,0-0.3-0.1c0.5,0.2,0.4-0.3,0.2-0.6c0.2,0,0.3-0.1,0.4-0.4c0.3,0.1,0.6-0.1,0.9-0.2
		c0,0.1,0,0.2,0.1,0.2c0.1-0.1,0.1-0.3,0.2-0.4c0.1,0,0.1,0.1,0.2,0.1c0-0.3,0.2-0.3,0.3-0.6c0.4-0.1,0.6-0.4,0.8-0.7
		c0.1,0,0.1,0,0.1,0c0.3-0.3-0.2-0.4-0.1-0.8c0.1,0.4,0.5,0.4,0.8,0.3c0-0.1,0-0.2,0-0.2c0.1,0,0.1,0.1,0.1,0.1
		c0.1,0,0.1-0.1,0.2-0.2c0.1,0,0.1,0.1,0.2,0.1c0.2-0.2,0.8-0.1,0.9-0.6c0.1,0,0.1,0.1,0.2,0.1c0.1-0.1,0.1-0.2,0.2-0.3
		c0.1,0,0.1,0.1,0.2,0.1c0-0.1,0.1-0.1,0.2-0.2c0.2,0.1,0.3-0.1,0.4-0.1c0.1-0.1,0-0.1,0-0.2c0.1,0,0.1,0,0.1,0
		c-0.1-0.3,0.2-0.3,0.3-0.4c-0.4,0.1-0.7-0.1-0.9-0.2c-0.2,0.2-0.4,0.2-0.7,0.2c0.1-0.1,0.2-0.1,0.1-0.3c-0.1,0-0.1,0.1-0.1,0
		c0.1-0.2,0.3,0.1,0.5-0.1c0-0.1-0.1-0.1,0-0.2c-0.3,0-0.7,0.1-1,0.1c0-0.1,0.1-0.2,0.2-0.2c0.3,0.1,0.5,0,0.8,0c0,0,0-0.1,0-0.1
		c-0.1-0.1-0.3,0-0.3-0.2c-0.2,0-0.6,0.2-0.8,0c0.1,0,0.1,0,0.2,0c0-0.1-0.2-0.1-0.1-0.2c0.1,0,0.1,0.1,0.2,0.1c0.2-0.1,0.4,0,0.6,0
		c0,0.1,0.1,0.1,0.1,0.2c0.1,0,0.2,0,0.3,0c0.1,0.4,0.4,0.6,0.7,0.8c0-0.2,0.3,0,0.4,0c0.1-0.1,0-0.2-0.1-0.2
		c0.2-0.2-0.1-0.4-0.1-0.6c-0.1,0-0.1,0.2-0.1,0.1c0-0.1,0-0.1,0-0.2c-0.1,0-0.1,0.1-0.1,0c0-0.1,0-0.1,0-0.2
		c-0.3-0.2-0.5-0.3-0.9-0.3c0.1,0,0.1-0.1,0.2-0.1c-0.1-0.3-0.4,0.1-0.6,0c0.1-0.2-0.1-0.1-0.2-0.1c0.1-0.1-0.1-0.1-0.1-0.3
		c0.1,0,0.1-0.1,0.2,0c0-0.1-0.1,0-0.1-0.1c0.4,0.1,0.5-0.2,0.8-0.3c0-0.1-0.1-0.2,0-0.2c0.2,0,0,0.1,0.1,0.2c0.4,0.1,0.8,0.3,1-0.1
		c0.1,0,0.2,0,0.2-0.1c-0.1,0-0.1-0.1-0.1-0.2c-0.2,0.1-0.2-0.1-0.3-0.1c-0.1,0,0,0.1-0.1,0.2c0-0.1-0.1-0.2-0.2-0.2
		c0-0.1,0-0.3,0.1-0.4c0.2,0.2,0.6,0.1,0.8,0.3c0.1,0,0.2,0,0.2-0.2c-0.2-0.2-0.4,0.1-0.6,0c0-0.1,0-0.1,0-0.3c-0.1,0-0.1,0.1-0.2,0
		c0-0.1,0.1-0.1,0.1-0.2c-0.1-0.1-0.2-0.2-0.4-0.2c0,0,0-0.1,0.1-0.1c0.1,0,0.2,0.1,0.3,0.1c0.1,0,0.1-0.1,0.2-0.1
		c0,0.1,0,0.2,0.1,0.1c0.2-0.4-0.2-0.6-0.1-0.8c-0.1,0-0.1-0.1-0.2-0.1c0,0.1,0,0.2-0.1,0.2c0-0.1-0.1,0-0.2-0.1c0,0,0-0.1,0-0.1
		c0.1,0.1,0.1,0,0.2-0.1c0-0.2-0.1-0.1-0.1-0.3c0.4-0.1,0.5,0.1,0.9,0.1c0-0.3-0.1-0.5-0.3-0.6c0,0,0,0.1-0.1,0.1
		c-0.1-0.1-0.2,0-0.3-0.1c0-0.1,0-0.2,0-0.3c0.2,0,0.2,0.2,0.3,0c-0.2,0-0.2-0.2-0.3-0.2c-0.2,0.1-0.3-0.1-0.5,0
		c0-0.1,0-0.2,0.1-0.3c0.2,0,0.3,0.1,0.4,0.1c0-0.1,0-0.2,0-0.3c0.1,0,0.1-0.1,0.2-0.1c0,0,0,0,0-0.1c5.5,0.9,10.6,3.2,14.9,6.4
		c0,0,0,0-0.1,0c0,0,0,0.1,0,0.1c0.1,0,0.1,0,0.1,0.1c0,0,0.1-0.1,0.1-0.1c0.2,0.1,0.4,0.3,0.6,0.5c0,0-0.1,0.1-0.1,0.1
		c-0.2,0-0.3-0.1-0.3-0.2c-0.1,0.1-0.1-0.1-0.3-0.1c0,0.1-0.2,0-0.1,0.1c0.1,0,0.4,0.1,0.3,0.3c-0.1,0-0.2-0.1-0.3-0.1
		c0,0.1,0.1,0,0.1,0.2c0,0,0,0.1-0.1,0.1c-0.1,0-0.1-0.1-0.1-0.1c0,0,0,0.1-0.1,0.1c0,0,0-0.1,0-0.2c-0.1,0-0.1,0.3-0.3,0.3
		c-0.1,0,0-0.2-0.1-0.2c0,0,0,0.1-0.1,0.1c0,0.1,0.2,0.1,0.1,0.3c-0.1,0-0.2,0.1-0.4,0c0,0.1,0.1,0.1,0,0.2
		c-0.2,0.1-0.1,0.3-0.1,0.5c-0.1,0-0.1,0.1-0.3,0.1c0,0.1-0.1,0.1-0.1,0.1c0.1,0.1,0.2-0.1,0.4-0.1c0,0,0,0.1,0,0.1
		c-0.1,0-0.1,0.1-0.2,0c0,0.1,0.1,0.2,0,0.3c-0.1-0.1-0.2-0.3-0.3-0.1c0.1,0,0.1,0,0.1,0.1c-0.1,0-0.1,0-0.1,0.1c0.1,0,0.2,0,0.2,0
		c-0.1,0.2,0.1,0.1,0.1,0.3c-0.1,0-0.2,0-0.2,0c-0.1,0.1,0.1,0.2,0,0.3c-0.2,0-0.2,0.2-0.4,0.2c0.2,0.1-0.2,0.1-0.2,0.2
		c0.1,0.1,0,0.2,0.1,0.4c-0.2,0.1-0.4,0.2-0.6,0.4c0,0.1,0.1,0.1,0.1,0.2c-0.1,0.1-0.2,0-0.3,0c-0.1,0,0.1,0,0,0.1
		c-0.2,0-0.1,0.2-0.3,0.1c-0.1,0.2-0.2,0.4-0.3,0.5c0,0,0,0.1,0,0.1c0.3,0,0.3-0.3,0.5-0.3c0,0.2-0.2,0.3-0.3,0.5
		c-0.1,0-0.1,0-0.2,0c0-0.1,0-0.2-0.1-0.2c0,0.2-0.2,0.1-0.3,0.1c0,0.1,0.1,0.1,0.1,0.2c-0.1,0-0.1,0.1-0.2,0.1c0,0.1,0.1,0.1,0,0.1
		c-0.1-0.1,0,0-0.1,0.1c-0.1-0.1-0.3,0-0.4-0.1c0,0.1,0.2,0.1,0.1,0.2c0,0.1-0.1,0.1-0.1,0.2c-0.1,0-0.1-0.1-0.3-0.1
		c0,0,0,0.1,0,0.1c0.1,0,0.2,0,0.2,0.1c-0.2,0-0.2,0.1-0.3,0c0,0,0,0.2,0,0.1c-0.1,0-0.1,0-0.2-0.1c-0.1,0.1-0.2,0-0.2,0.1
		c0.1,0.1,0.3,0,0.4,0.2c-0.1,0.1-0.3,0-0.5,0c0,0.1,0.1,0.1,0,0.3c0.1,0.1,0.1-0.1,0.2-0.1c0,0.1,0.1,0.1,0.2,0.2
		c-0.2,0-0.3,0.1-0.4,0c0,0.1,0.2,0,0.2,0.1c0,0.2-0.1,0.2-0.2,0.3c0.1,0.1,0.3-0.1,0.3,0.1c-0.1,0-0.1,0-0.1,0.1
		c0.1-0.1,0.2,0,0.3,0.1c0-0.2,0.2-0.3,0.4-0.2c-0.1,0.1-0.3,0.2-0.3,0.5c-0.1,0.1-0.3,0-0.3,0.2c0.1,0,0.2,0.1,0.2,0.1
		c0-0.2,0.2-0.1,0.3-0.2c-0.1,0.2,0,0.5-0.2,0.6c0,0.1,0.1,0.2,0.2,0.3c0.2,0,0.2,0.1,0.3,0c0,0,0,0.1,0,0.1c0.1,0,0.2,0,0.3,0
		c0.4-0.3,0.9-0.5,1.3-0.8c-0.1,0.3,0.1,0.5,0.3,0.7c-0.1,0.2,0,0.2,0,0.4c0.3,0.1,0.3,0.5,0.6,0.6c-0.2,0.2-0.1,0.4-0.1,0.8
		c0.2,0.1,0.5,0,0.6-0.1c-0.2-0.5,0.6-0.5,0.8-0.5c0-0.1,0.1-0.2,0-0.3c0,0.1,0,0.1-0.1,0.1c0-0.5,0.2-0.9,0-1.3c0,0,0.1,0,0.1-0.1
		c-0.1,0-0.2,0-0.2-0.1c0.3,0.1,0.4-0.2,0.6,0c0-0.1,0.1-0.2,0.2-0.1c0-0.1,0.1-0.2,0.1-0.2c-0.1,0-0.2,0-0.2,0
		c0-0.1,0.2-0.1,0.2-0.1c0-0.4-0.3-0.5-0.5-0.7c0,0.1-0.1,0.1-0.2,0.1c-0.1-0.3-0.3-0.6-0.1-0.9c-0.1-0.1,0-0.2,0-0.4
		c0-0.1-0.1-0.1-0.1-0.2c0.2,0,0.3-0.1,0.2-0.3c0.1,0,0.1,0,0.2,0c0-0.1,0-0.2,0.1-0.3c0.3,0,0.6-0.3,0.8-0.6
		c-0.2-0.2-0.1-0.6,0-0.8c0.1,0,0.1,0,0.2,0c0.1-0.1-0.1-0.2,0.1-0.3c0.2,0,0.5,0.1,0.8,0.1c0.3,0.1,0.3,0.4,0.4,0.7
		c-0.1,0-0.1,0-0.2,0.1c0,0.3-0.2,0.4-0.2,0.6c-0.1,0.1-0.4,0.2-0.4,0.4c-0.1,0-0.1,0-0.1,0c0,0.1-0.1,0.2-0.1,0.3
		c0.2,0.3,0.3,0.7,0.3,1.1c0.2,0,0.2,0.5,0.2,0.1c0.2,0.1,0.3,0.2,0.4,0.3c-0.1,0.2,0.1,0.3,0.2,0.5c0.3,0,0.3-0.4,0.6-0.3
		c0,0,0-0.1,0-0.1c0.1,0,0.3,0,0.4,0.1c-0.1-0.1,0-0.1,0.1-0.1c0.1,0.2,0.3-0.1,0.4-0.1c0,0,0,0.2,0,0.2c0.1,0.1,0.3,0.2,0.4,0.3
		c0.2-0.2,0.4,0.1,0.6,0.3c-0.3-0.2-0.6,0.2-0.8,0c-0.1,0.1,0,0.2-0.1,0.2c-0.2,0-0.2-0.1-0.4-0.1c-0.1,0,0,0.1-0.1,0.1
		c-0.2-0.1-0.4,0.1-0.5-0.1c-0.1,0.2-0.4,0.1-0.7,0.2c0,0.2,0,0.4,0.1,0.6c0,0,0.2,0,0.1,0c0,0.3,0,0.5,0.1,0.8
		c-0.1,0.1-0.3,0.1-0.4,0.1c0-0.2-0.3-0.2-0.3-0.5c-0.6,0.2-0.5,1.1-0.3,1.6c-0.1,0.1-0.1,0.2-0.2,0.2c0-0.1,0-0.1,0-0.2
		c-0.1,0.1-0.2,0.1-0.3,0.2c0,0.1,0.1,0.1,0.1,0.1c-0.1,0.1-0.1,0.3-0.2,0.4c-0.1,0-0.1-0.1-0.1-0.1c-0.1,0-0.2,0.1-0.4,0.1
		c0-0.1,0-0.1,0-0.1c0.1-0.1,0.1,0,0.1,0c-0.3-0.3-0.7,0.1-1,0.2c-0.2,0-0.4,0.1-0.7,0.1c-0.3,0-0.5-0.3-0.7-0.3
		c-0.1,0.1-0.1,0.3-0.3,0.2c0,0.1,0.1,0.1,0,0.1c-0.1,0-0.2-0.1-0.3-0.3c0,0-0.1,0.1-0.2,0.1c-0.1-0.2-0.1-0.3-0.2-0.5
		c0.1,0,0.2-0.1,0.1-0.1c0,0.1-0.1,0.1-0.1,0.1c-0.1-0.3,0.2-0.6,0.2-0.9c0.1,0,0,0.1,0.2,0.1c0-0.1,0-0.1,0-0.2
		c-0.1,0-0.2,0-0.2-0.1c0-0.1,0-0.2,0-0.4c-0.1-0.1-0.2,0.1-0.2-0.1c0.1,0,0.2-0.1,0.3-0.1c0-0.1,0-0.3-0.1-0.4
		c-0.1,0.1-0.1,0.1-0.2,0.1c0,0.1-0.1,0.2-0.1,0.3c-0.3,0-0.6,0.1-0.5,0.4c0.1-0.1,0.2-0.3,0.5-0.2c-0.1,0.2,0.1,0.2,0,0.3
		c-0.1,0-0.1-0.1-0.1-0.1c-0.1,0-0.1,0.2-0.1,0.2c-0.1,0-0.1-0.1-0.3,0c0,0.1,0,0.2,0,0.3c0.1,0,0.2,0.1,0.2,0.2c0,0-0.1,0-0.1,0.1
		c0,0.3,0.4,0.3,0.2,0.6c0.2,0.2,0,0.6,0.3,0.8c-0.1,0-0.1-0.1-0.2,0c0,0.2,0,0.2-0.1,0.3c0,0,0-0.2-0.1-0.1
		c-0.1,0.1-0.2,0.1-0.3,0.2c-0.2-0.1-0.3,0-0.6-0.1c-0.1,0.1-0.2,0.3-0.4,0.3c-0.1,0.1-0.1,0.3-0.2,0.4c0.1,0.2,0,0.3-0.1,0.5
		c-0.3-0.1-0.7,0.1-1.1,0.2c0,0.2,0,0.4,0,0.6c-0.2,0-0.3,0.1-0.5,0.2c0,0.1,0.1,0.1,0,0.1c-0.1,0.1-0.5,0.1-0.6,0.1
		c0-0.1,0-0.2,0-0.2c-0.1,0-0.1,0.1-0.2,0c0.1,0.2,0.1,0.5,0.2,0.7c-0.3,0-0.5,0-0.6,0.1c-0.1,0-0.1-0.1-0.1-0.2
		c-0.3,0-0.4,0-0.6,0.1c0,0.1,0.2,0.1,0.2,0.2c0,0.1-0.1-0.1-0.1,0c0.1,0.1,0,0.1,0,0.2c0.1,0,0.2-0.1,0.3-0.1
		c0,0.2,0.3,0.1,0.3,0.4c0.1,0,0.1-0.2,0.2-0.2c0.1,0.1-0.1,0.1-0.1,0.2c0,0,0.1,0,0.1,0c0,0.2,0.1,0.2,0.1,0.2
		c-0.1,0.4,0.4,0.6,0.6,0.7c0.1,0.3-0.1,0.6,0.1,0.8c-0.1,0.3,0,0.9-0.7,0.8c-0.2-0.2-0.5-0.2-0.9-0.1c-0.2-0.1-0.6-0.1-0.9-0.1
		c-0.1-0.2-0.5-0.1-0.6,0.1c-0.2,0-0.4,0-0.5,0.3c0.1,0.1,0.2,0.3,0.3,0.4c-0.2,0.2,0.3,0.9-0.1,1.1c0.1,0.3-0.3,0.6-0.2,0.9
		c0.1,0,0-0.1,0.1-0.1c0,0.2-0.1,0.1-0.1,0.2c0.3,0.1,0.1,0.5,0.1,0.8c0.2,0,0.4,0,0.4,0.1c0.2,0,0.3-0.2,0.5-0.1
		c0.3,0.1,0.2,0.5,0.5,0.6c0.2-0.1,0.4-0.2,0.6-0.3c0.2,0.1,0.6,0.1,0.8,0c0-0.3,0.4-0.4,0.6-0.6c0-0.4,0.3-0.5,0.4-0.7
		c-0.1-0.1-0.2-0.2-0.2-0.4c0.2-0.1,0.2-0.4,0.4-0.4c0-0.2,0.1-0.2,0.2-0.3c0.1-0.1,0.2-0.2,0.2-0.3c0.3-0.2,0.6-0.2,0.6-0.4
		c0-0.2-0.1-0.3,0-0.6c0.2,0,0.2-0.2,0.5-0.3c0.3,0,0.5,0.3,0.9,0.2c0.1-0.2,0.2-0.3,0.5-0.4c0.1-0.1,0.2-0.3,0.3-0.4
		c0.3,0,0.5,0.2,0.7,0.4c0.1,0.4,0.3,0.6,0.4,0.9c0.3,0.2,0.5,0.7,1,0.7c0,0.2,0.3,0.1,0.3,0.4c0.2,0,0.3,0.1,0.2,0.3
		c0.6,0.2,0.5,0.8,0.3,1.4c0.1,0,0.2,0,0.2,0c0-0.1,0.1-0.2,0.2-0.3c0-0.2,0-0.3,0.2-0.3c0.1-0.3-0.2-0.4-0.3-0.6
		c0.1-0.2,0.1-0.3,0.3-0.4c0,0.2,0.2,0.2,0.3,0.2c0,0.1,0,0.2,0.1,0.2c0,0,0-0.1,0.1-0.1c-0.1-0.5-0.7-0.5-0.9-0.9
		c0-0.1,0-0.1,0-0.2c-0.6,0-0.9-0.4-1-0.9c-0.2,0-0.2-0.2-0.3-0.3c-0.5,0-0.4-0.5-0.3-0.8c0-0.1-0.1-0.1-0.1-0.2
		c0.2,0,0.3-0.2,0.6-0.1c0,0.1-0.1,0.1-0.1,0.2c0.2,0.1,0,0.4,0.2,0.4c0-0.1,0.1-0.2,0.2-0.2c0-0.1,0-0.2,0.1-0.3
		c0.2,0,0.2,0.3,0.1,0.5c0.2,0.1,0.2,0.2,0.3,0.3c-0.1,0-0.1,0-0.1,0.1c0.1,0.1,0.3,0.1,0.3,0.3c0.2,0,0.2,0,0.3,0
		c0.3,0.4,0.9,0.6,1.3,1c0,0.3-0.1,0.4-0.1,0.7c0,0.3,0.4,0.4,0.4,0.8c0.2,0,0.1,0.2,0.3,0.3c0,0,0.1,0,0.1,0
		c-0.1,0.1-0.1,0.2-0.1,0.4c0.2,0,0.3-0.1,0.4,0.1c-0.1,0-0.2,0-0.3,0c0,0,0,0.1,0,0.1c0,0.1,0.1,0.2,0.1,0.3
		c-0.1,0.1-0.1,0.2,0,0.3c0.2,0,0.3,0,0.5,0c0-0.1,0-0.2,0-0.2c0.1,0,0.2,0,0.3,0c0.1-0.2-0.1-0.1-0.1-0.3c0.2-0.1,0.2,0.1,0.4,0.1
		c0.1-0.3-0.2-0.3-0.2-0.5c0.1,0.1,0.4,0.2,0.5,0.3c-0.1-0.3-0.4-0.4-0.6-0.6c-0.1,0-0.1,0-0.2,0c0.1-0.1-0.1-0.2,0-0.3
		c0.1,0,0,0.1,0.2,0.1c-0.1-0.2-0.2-0.4-0.4-0.6c0.1-0.1,0.1-0.2,0.1-0.3c0.1,0.1,0.1,0.3,0.3,0.4c0-0.1,0-0.1,0.1-0.2
		c0,0,0.1,0.1,0.1,0c0-0.1,0-0.1,0.1-0.1c0-0.2-0.2-0.1-0.2-0.3c0.3-0.1,0.6,0.1,1,0c0,0.2,0.1,0.1,0.2,0.2c0,0.1-0.2,0.1-0.1,0.2
		c0.2-0.1,0.5-0.2,0.6-0.4c0.2,0,0.4,0,0.5-0.2c-0.3-0.1-0.4-0.4-0.6-0.6c0.2-0.2,0.2-0.5,0.4-0.6c0-0.1,0-0.3,0-0.4
		c0.2-0.1,0.1-0.2,0.2-0.4c0.1,0.1,0.1,0.1,0.1,0c-0.1-0.2,0.1-0.3,0-0.4c0.1,0,0.1,0,0.1,0c0-0.1,0-0.1,0-0.1
		c0.2-0.1,0.3-0.3,0.4-0.5c0.1-0.1,0.4,0,0.4-0.1c0,0.1,0.2,0.1,0.2,0.2c-0.1,0-0.3,0-0.3,0.1c0.2,0,0.3,0.2,0.4,0.2
		c0.1-0.3,0.3,0,0.4-0.1c0,0.1,0.1,0.1,0.1,0.2c-0.2,0-0.4,0.1-0.5,0.3c0.4-0.1,0.6,0.3,0.4,0.5c0.5-0.1,0.7-0.3,1.2-0.4
		c0-0.1,0.1-0.1,0-0.2c-0.2,0.1-0.3,0-0.6,0c0-0.1-0.1-0.1-0.1-0.2c-0.2-0.1-0.4-0.1-0.4-0.4c0.2-0.1,0.3,0.1,0.6,0.1
		c0-0.2,0.2-0.1,0.2-0.3c0.4,0.1,1-0.5,1.4-0.3c-0.2,0-0.2,0.2-0.5,0.2c0,0.1,0.1,0.1,0,0.2c-0.1,0-0.2,0-0.3,0
		c0,0.2,0.3,0.1,0.3,0.3c-0.1,0.1-0.1,0.3-0.2,0.4c-0.1,0-0.1-0.1-0.2,0c0.1,0.2-0.2,0.1-0.2,0.2c0.1,0.1,0.1-0.1,0.3,0
		c0,0.1,0.1,0.2,0.1,0.3c0.1,0,0.1-0.1,0.1,0c0,0.2,0.3,0.2,0.4,0.4c0.1,0,0.1,0,0.1,0c0.3,0.5,1,0.5,1.1,1.1
		c-0.1,0.3-0.3,0.4-0.6,0.5c-0.1-0.1-0.2-0.1-0.3-0.1c-0.4,0.4-0.9-0.3-1.2-0.1c-0.2,0-0.1-0.2-0.2-0.3c-0.1,0.1-0.3,0-0.3-0.1
		c-0.1,0.1-0.2,0-0.3,0.1c-0.6-0.4-1,0.3-1.5,0.4c-0.1,0-0.1-0.1-0.1-0.1c-0.1,0.1-0.5-0.1-0.5,0.1c0.1,0.1,0.2,0,0.2,0.1
		c-0.3,0-0.4,0.3-0.7,0.1c-0.1,0,0,0.1-0.1,0.1c-0.3-0.1-0.4,0.1-0.6,0.2c0,0.1,0,0.2,0,0.3c0.1,0,0.1,0,0.3,0
		c0.1,0.2,0,0.4,0.1,0.6c-0.1,0.1-0.2,0-0.3,0c0,0,0.1,0.2,0,0.2c0.1,0,0.2,0,0.2,0c0,0.2,0.2,0.4,0.1,0.6c0.1,0,0.2,0,0.3,0
		c0,0.1,0,0.1,0,0.2c0.1,0,0.1-0.1,0.1-0.1c0.1,0.1,0.1,0.2,0.3,0.2c0,0.2,0.2,0.2,0.3,0.4c0.2-0.1,0.3-0.2,0.4-0.4
		c0.3-0.1,0.6,0.3,0.8,0.4c0.4,0.1,0.6-0.1,0.8-0.3c0.1,0,0.1,0,0.2,0c0.1,0,0.1-0.2,0.2-0.2c0.2,0.1,0.1,0.3,0,0.4
		c0,0.1,0.1,0.3,0,0.5c0.2,0,0,0.2,0.1,0.3c0,0.1,0.1,0.1,0.1,0.2c0,0.1-0.1,0-0.1,0.1c0,0.2-0.1,0.1-0.1,0.2
		c-0.1,0.3-0.1,0.8-0.3,1c0.1,0.5-0.4,0.4-0.7,0.5c0-0.2-0.3,0-0.4,0c0-0.1-0.1-0.1-0.2-0.1c0,0,0-0.1,0-0.1c-0.1,0-0.1-0.1-0.2,0
		c0,0.1,0.1,0.2,0,0.2c-0.1,0,0-0.2-0.1-0.1c-0.1,0.1-0.2,0-0.3,0c-0.1,0,0,0.1-0.1,0.2c-0.1-0.1-0.2,0-0.4,0
		c-0.2-0.2-0.4-0.1-0.7-0.1c-0.3-0.1-0.5-0.4-0.9-0.2c0-0.1-0.1-0.1-0.1-0.2c-0.1,0-0.2-0.1-0.4,0c0-0.2-0.3-0.1-0.5-0.1
		c0.1-0.2-0.1-0.1-0.1-0.3c-0.3,0.1-0.4-0.2-0.6-0.2c-0.2,0-0.2,0.2-0.5,0.2c-0.1,0.1-0.2,0.3-0.2,0.4c0.3,0.2,0.1,0.6-0.2,0.8
		c-0.5,0-0.8-0.3-1.3-0.3c-0.2-0.2-0.5-0.4-0.6-0.6c-0.4-0.1-0.6-0.4-1.2-0.4c-0.1-0.2-0.4-0.2-0.4-0.4c-0.5,0-0.3-0.6,0-0.8
		c-0.1-0.1-0.1-0.3,0-0.4c-0.1,0-0.2,0-0.2,0c-0.1-0.4,0.3-0.4,0.3-0.7c-0.1,0-0.2,0-0.3,0.1c-0.1,0-0.1-0.2-0.2-0.2
		c-0.3,0-0.8,0.2-1.2,0.1c0,0.1,0,0.2-0.1,0.2c0-0.1-0.1-0.1-0.1-0.2c-0.7,0.1-1.3,0.2-2.1,0.1c-0.3,0.3-0.7,0.5-1.2,0.5
		c-0.1,0.2-0.3,0.3-0.6,0.4c-0.1-0.1-0.1-0.1-0.2-0.2c-0.3,0.2-1,0.3-1-0.2c-0.3,0-0.3,0.3-0.4,0.5c0,0.3-0.2,0.3-0.2,0.6
		c-0.2,0.1-0.3,0.4-0.7,0.4c-0.1,0.1-0.2,0.2-0.4,0.4c0.1,0.3-0.3,0.6-0.3,0.9c0,0.2,0.1,0.2,0.1,0.4c0.1,0.5-0.3,0.9-0.6,1.1
		c-0.2,0.2-0.5,0.4-0.7,0.6c-0.1,0-0.1,0-0.2,0c-0.1,0.5-0.7,0.7-0.6,1.2c-0.3,0.2-0.2,0.6-0.5,0.7c-0.1,0.4-0.2,0.8-0.5,1
		c-0.1,0.4,0,0.6,0.2,0.8c-0.1,0.3,0,0.9,0,1.3c-0.2,0.6-0.1,1.3-0.6,1.6c0.4,0.5,0,1.2,0.7,1.5c0,0.1,0,0.1,0,0.2
		c0.3,0.1,0.4,0.3,0.4,0.6c0,0.1,0.2,0,0.2,0.1c-0.1,0.2,0,0.2,0,0.4c0.1,0,0.1,0,0.2,0.1c-0.1,0.2,0.2,0.4,0,0.5c0,0,0.2,0,0.2,0.1
		c0,0.1,0,0.2,0,0.3c0.1,0.1,0.1-0.1,0.1-0.1c0,0.1,0,0.2,0.1,0.3c0.1,0,0.2,0.1,0.3,0.1c0.3,0.5,0.8,0.7,1.1,1.2
		c0.2-0.1,0.2,0.1,0.4,0.1c0.4,0,0.6-0.2,0.9-0.4c0.4-0.1,0.7,0.1,0.9,0.2c0.4,0.1,0.8-0.3,1.1-0.3c0.2-0.1,0.5,0,0.7-0.1
		c0-0.1,0-0.2-0.1-0.3c0.2,0.1,0.3,0.2,0.3,0.2c0.3-0.1,0.6-0.4,0.9-0.4c0,0.1,0,0.1,0,0.1c0.4-0.1,0.5,0.2,0.8,0.3
		c0,0.2,0.1,0.2,0.1,0.3c-0.1,0-0.1,0-0.1,0.1c0,0.2,0.2,0.2,0.2,0.4c0.3,0,0.4-0.1,0.6-0.1c0-0.1,0.1-0.2,0.2-0.1
		c0,0.1,0,0.1,0.1,0.1c0,0,0-0.1,0.1-0.1c0,0.2,0.2,0,0.2,0.1c0,0.1-0.1,0.1,0,0.2c0.1,0.1,0.2,0,0.3,0c-0.1,0.2,0,0.3,0.1,0.5
		c-0.1,0.5-0.4,0.8-0.2,1.3c0,0-0.1,0-0.2,0c0,0.1,0.2,0.1,0.1,0.2c0,0-0.1,0-0.1,0c0,0.3-0.1,0.4-0.3,0.6c0,0.1,0.1,0.1,0.1,0.2
		c0.1,0,0.1,0.1,0.2,0.1c0,0.1-0.2,0-0.1,0.1c0.2,0.3,0.6,0.4,0.6,0.8c0.3,0.1,0.3,0.4,0.5,0.7c0,0.1-0.1,0.1-0.1,0.1
		c0.2,0.4,0.3,1.1,0.4,1.5c-0.5,0.5,0.3,1.6-0.4,2c0,0.3-0.3,0.3-0.3,0.6c0,0-0.1,0-0.1,0c0,0.1,0,0.2,0,0.3
		c-0.2,0.2-0.3,0.4-0.4,0.6c0.1,0.5-0.1,0.7-0.1,1.1c0.2,0.1,0.2,0.3,0.4,0.5c-0.1,0.4,0,0.7,0.2,1c0,0,0,0.1-0.1,0.2
		c0.1,0.1,0.2,0.2,0.2,0.4c-0.2,0.4-0.1,0.9-0.1,1.5c-0.1,0-0.1,0-0.1,0.1c0.1,0.2-0.1,1,0.3,1.2c0.1,0.2,0.1,0.5,0.1,0.7
		C109.9,109,104,110.7,97.7,110.7z M72.8,62.5c0-0.1,0-0.1,0.1-0.1C73,62.5,72.9,62.5,72.8,62.5z M73.2,61.9
		c0.2-0.1,0.3-0.7,0.6-0.5c-0.2,0.3-0.2,0.7-0.6,0.9C73.1,62.1,73.2,62,73.2,61.9z M73.5,61.1c-0.1,0.1-0.1,0.3-0.2,0.3
		C73.2,61.2,73.3,61,73.5,61.1z M74.5,64.5c-0.1,0.1-0.1,0.5,0.2,0.5c-0.1,0.2-0.2,0.3-0.1,0.5c-0.1,0-0.1,0.1-0.2,0.1
		c-0.2-0.3,0.1-0.5,0-0.7c0-0.1-0.1,0-0.2,0c-0.1-0.2,0.2-0.2,0.1-0.3c0-0.1-0.1,0.1-0.1,0c0-0.1-0.1-0.2-0.2-0.2
		c0-0.1,0-0.2,0.1-0.2c-0.1,0-0.1-0.1-0.1-0.1c0.1-0.2,0.2-0.3,0.3-0.5c0.2,0,0.2-0.1,0.2-0.2c0.1-0.1,0,0.2,0.1,0.1
		C74.3,63.7,74.3,64.2,74.5,64.5z M73.5,64.9c0.2-0.1,0.1,0.1,0.2,0.1c0,0.3,0.1,0.3,0.1,0.6c0,0.1-0.1,0.2-0.2,0.2
		C73.8,65.4,73.4,65.3,73.5,64.9z M73.2,64.3c0.2-0.1,0.2-0.2,0.4-0.3c0,0.1-0.1,0.2,0.1,0.2c-0.1,0.2-0.1,0.5-0.2,0.7
		c0,0-0.1,0-0.1,0C73.2,64.8,73.5,64.4,73.2,64.3z M77.1,65.9c0-0.2,0.1-0.3,0.3-0.4c0.1,0.1,0.2,0.4,0.1,0.5
		C77.3,65.9,77.2,65.9,77.1,65.9c0.1,0,0.1,0,0.1-0.1C77.1,65.8,77.1,65.9,77.1,65.9z M77.1,66.5c0.1,0,0-0.2,0.1-0.2
		c0.3,0,0.4,0,0.6,0c0,0.2,0.1,0.4,0.2,0.5c0.2,0.1,0.2,0,0.3,0c0,0.1-0.1,0.3,0.1,0.3c-0.1,0.2,0,0.3-0.1,0.5
		c0.4,0.2,0.9,0.3,1.3,0.2c0.1,0.1,0.1,0.2,0.3,0.2c-0.1,0.2,0,0.4,0.1,0.4c0,0.1-0.1,0.1-0.2,0.1c-0.1,0,0,0.1,0,0.2
		c-0.2,0-0.2-0.2-0.4-0.1c0-0.1,0-0.1,0-0.1c-0.4,0.1-0.2,0.9-0.7,1c0-0.1,0-0.3-0.1-0.5c-0.3-0.1-0.2,0.2-0.4,0.2
		c0.2-0.3,0.4-0.6,0.2-1c-0.1-0.1-0.3,0-0.3-0.2c-0.2,0.1-0.3,0.3-0.5,0.5c-0.2,0-0.3,0.2-0.3,0.4c-0.1,0-0.1,0-0.1,0.1
		c-0.1,0.2,0.1,0.6,0,0.8c0,0.1-0.2,0.2-0.2,0.3c-0.1,0.2-0.1,0.3-0.3,0.3c-0.2-0.7,0.2-1.3,0.4-1.8c-0.2,0-0.2,0.3-0.4,0.3
		c0.1-0.3,0.4-0.5,0.6-0.8c0.1,0,0,0.1,0.1,0.1c0-0.2,0.4-0.1,0.4-0.3c0.2,0.1,0.3-0.1,0.5,0c0.1-0.1,0-0.2-0.1-0.2
		c-0.1,0-0.1,0.1-0.2,0.1c0-0.1,0-0.1,0-0.3c-0.3,0.1-0.5,0.3-0.9,0.3c0-0.1,0-0.2-0.1-0.3c-0.1,0-0.2,0.1-0.3,0.1
		c0-0.1,0-0.1,0.1-0.2c0.1,0.1,0.2-0.1,0.3-0.2c-0.4,0-0.6,0.5-1.1,0.6c0-0.1-0.1-0.1-0.1-0.1c-0.2,0-0.3,0.1-0.4,0.1
		c0.3-0.5,1-0.5,1.2-1.1C76.8,66.6,77,66.6,77.1,66.5C77.1,66.4,77.1,66.5,77.1,66.5z M80.5,68.7c0.3-0.1,0.6,0.1,0.8-0.2
		c0.1,0.2-0.2,0.4-0.2,0.6c-0.4,0.2-0.7,0.2-1.2,0.2c0,0.1,0.1,0.1,0.1,0.2c-0.3,0.2-0.5,0.5-1,0.6c-0.1,0.2-0.4,0.4-0.7,0.3
		c0,0,0-0.1,0.1-0.1c0-0.1-0.1,0-0.1-0.1c-0.1,0-0.1,0-0.1,0c0-0.2,0.2-0.2,0.3-0.3c0,0,0,0.1,0,0.1c0.5,0,0.5-0.4,1-0.4
		c0.1-0.1,0.3-0.2,0.5-0.2c0,0,0-0.1,0-0.1c0-0.1-0.1,0-0.1-0.1c0.1-0.3,0.7-0.4,1-0.2c0.1,0,0-0.1,0.1-0.1
		C80.7,68.9,80.6,68.9,80.5,68.7z M79.9,67.7c0-0.1-0.2,0-0.2-0.1c0.1-0.1,0.2-0.1,0.4-0.1C80.1,67.6,80,67.6,79.9,67.7z M83.3,64.2
		c0,0.2-0.3,0.5-0.6,0.5C82.9,64.5,83.1,64.4,83.3,64.2z M82.9,61.3c0-0.2,0.2-0.1,0.3,0c0,0,0,0,0,0.1C83,61.4,83,61.4,82.9,61.3z
		 M84.4,63.6c0-0.2,0.1-0.3,0.2-0.4C84.8,63.2,84.5,63.6,84.4,63.6z M85.1,62.3c0.1,0.1,0,0.4-0.2,0.4
		C84.8,62.5,85.1,62.6,85.1,62.3z M86.4,62.7c0.1,0,0.1,0.1,0.2,0.1c0,0.1-0.1,0.1-0.1,0.1C86.5,62.8,86.4,62.8,86.4,62.7z
		 M92.9,53.4c0,0.2-0.1,0.2-0.3,0.3C92.6,53.5,92.7,53.4,92.9,53.4z M116.9,58.5c0,0.2,0,0.4-0.2,0.5
		C116.7,58.8,116.7,58.7,116.9,58.5C116.8,58.5,116.8,58.5,116.9,58.5z M116.2,58c0.6,0.1,0.3,0.8-0.2,0.7c0-0.1,0-0.3,0-0.4
		c0.1,0,0.1,0,0.2,0C116.2,58.3,116.2,58.2,116.2,58z M113.6,57.1c-0.1,0-0.2,0-0.3-0.1c0-0.1,0.1-0.1,0-0.2c0.1,0.1,0.2,0,0.3,0.1
		C113.6,57,113.6,57,113.6,57.1z M117.7,58.1c0.2,0,0.3,0,0.3,0.2C117.9,58.2,117.7,58.3,117.7,58.1z M121.9,59.2
		c-0.2,0-0.5-0.6-0.1-0.6C121.9,58.8,122,58.9,121.9,59.2z"/>
	<path fill-rule="evenodd" clip-rule="evenodd" fill="#FFFFFF" d="M104,46.4c0-0.1,0-0.1,0-0.1c-0.1,0.1-0.3-0.1-0.3-0.2
		c0,0-0.1,0.1-0.1,0.1C103.4,46.6,103.7,46.6,104,46.4z"/>
	<path fill-rule="evenodd" clip-rule="evenodd" fill="#FFFFFF" d="M103.1,46.6c0,0.2,0,0.2,0.1,0.3c0-0.1,0.1-0.1,0.1-0.1
		C103.2,46.8,103.2,46.6,103.1,46.6z"/>
	<path fill-rule="evenodd" clip-rule="evenodd" fill="#FFFFFF" d="M102.6,47.1c-0.1,0.1,0,0.2,0,0.2c0.1,0,0.2,0,0.3-0.1
		C102.9,47.1,102.7,47.1,102.6,47.1z"/>
	<path fill-rule="evenodd" clip-rule="evenodd" fill="#FFFFFF" d="M84.2,47.7c0-0.1,0.1-0.1,0.1-0.2c-0.1,0-0.2,0.1-0.3,0.2
		C84.1,47.6,84.2,47.6,84.2,47.7z"/>
	<path fill-rule="evenodd" clip-rule="evenodd" fill="#FFFFFF" d="M79.1,49.4c0.1-0.1,0.2,0,0.2,0.1c0.1,0,0.1-0.1,0.2,0
		c0.2-0.2,0.3-0.5,0.2-0.8C79.4,48.8,79.2,49.2,79.1,49.4z"/>
	<path fill-rule="evenodd" clip-rule="evenodd" fill="#FFFFFF" d="M88.7,53.2c0,0.1,0,0.2,0,0.2c-0.1-0.1-0.1,0.1-0.2,0
		c-0.1,0.1,0,0.2-0.1,0.2c0-0.1,0.1-0.2,0.1-0.3c-0.2-0.1-0.1,0.2-0.2,0.2c0-0.1-0.1,0-0.1-0.1c-0.1,0-0.1,0.1-0.2,0.1
		c0-0.1-0.1,0-0.1-0.1c0,0,0-0.1,0.1-0.1c0-0.1,0-0.1,0-0.2c-0.1,0-0.1,0-0.1-0.1c-0.1,0.1,0,0.2-0.1,0.2c0-0.1,0-0.2,0.1-0.4
		c-0.2,0-0.1,0.2-0.3,0.3c0-0.1,0.1-0.1,0-0.1c0,0.1,0,0.1-0.1,0.2c0,0,0,0-0.1-0.1c-0.1,0.1-0.1,0.2-0.1,0.2
		c-0.1-0.1,0.1-0.2,0.1-0.3c-0.1,0.1,0,0-0.2,0c0,0,0,0,0-0.1c-0.1,0-0.1,0-0.1,0c0,0,0.1-0.1,0-0.2c-0.1,0-0.1,0.1-0.1,0.1
		c0-0.1,0-0.1,0-0.2c-0.2,0.1-0.3,0-0.4-0.1c0.2,0,0.3-0.1,0.4-0.3c-0.1,0-0.1-0.2-0.1-0.2c0.1,0.1,0.2,0,0.4,0
		c0-0.2-0.2-0.2-0.4-0.2c0-0.1-0.1-0.1-0.1-0.2c0.3,0,0.6-0.4,0.3-0.5c-0.1,0.1-0.1,0.3-0.2,0.3c0-0.2-0.1-0.1-0.1-0.1
		c0.1-0.1,0.2-0.2,0.3-0.2c-0.1,0-0.2-0.1-0.2-0.2c-0.1,0-0.1,0.1-0.2,0.1c0,0,0-0.1,0-0.1c-0.1,0-0.2,0.1-0.2,0.1
		c0-0.1,0.1-0.1,0.1-0.2c-0.1,0-0.2,0.1-0.2,0c0,0.2-0.2,0.2-0.2,0.1c0-0.1,0.2-0.1,0.2-0.2c-0.1,0-0.1,0-0.1,0
		c0-0.1-0.1-0.1-0.1-0.2c-0.2,0-0.1,0.2-0.3,0.3c0-0.1-0.1-0.1-0.1,0c0-0.1-0.1-0.2,0-0.3c-0.1,0-0.1,0.2-0.2,0.3
		c-0.2-0.1,0-0.2-0.1-0.3c0.1-0.1,0.3-0.1,0.2-0.4c-0.1,0-0.1-0.2-0.1-0.3c-0.1,0,0-0.1-0.1-0.1c-0.4,0.3-0.8-0.1-1.2,0.1
		c0.1-0.2,0.3-0.3,0.5-0.3c0.1-0.2,0-0.4,0-0.6c-0.2,0-0.3,0.1-0.5,0.2c0-0.1-0.1-0.1-0.2-0.1c-0.2,0.1-0.3,0.3-0.5,0.4
		c0-0.1-0.2-0.2-0.4-0.1c-0.2,0.3-0.7,0.3-0.8,0.7c-0.1,0-0.3,0.2-0.2,0.5c0.1,0,0.1,0,0.2,0c0,0.1,0,0.2-0.1,0.2
		c-0.1-0.2-0.4,0-0.3,0.1c0.1,0,0.1,0.1,0.2,0.1c-0.1,0.1-0.2,0.3-0.2,0.5c-0.2-0.1-0.3,0.1-0.4,0c0.1-0.1,0.1-0.2,0.3-0.2
		c0-0.2-0.1-0.2-0.1-0.3c0.1-0.6,0.2-1,0.6-1.3c0.1-0.1,0.4-0.1,0.5-0.3c-0.3,0-0.6,0.2-0.8,0.1c-0.2,0.2-0.6,0.2-0.6,0.6
		c-0.1,0-0.1,0.1-0.2,0.1c-0.2,0.4-0.5,0.7-0.6,1.1c0.1,0,0.2,0,0.2,0.1c0,0-0.1,0-0.1,0.1c0,0.1,0.1,0,0.1,0.1c0.1,0,0.4-0.2,0.4,0
		c0,0.1-0.2,0-0.2,0.1c0,0.1,0,0.2,0.1,0.2c0-0.1,0.1,0.1,0.2,0c0,0.1-0.1,0.1-0.1,0.1c0.2,0,0.1-0.2,0.4-0.2c0,0.2,0.1,0.2,0.1,0.4
		c0.1,0,0.1-0.1,0.2,0c0-0.1,0-0.1,0.1-0.1c0.1,0,0.1,0.1,0.1,0.1c0.2,0,0.4,0,0.6-0.1c0.1,0.1,0.4,0.2,0.4,0
		c-0.1,0-0.2-0.2-0.1-0.2c0.1,0,0.1,0.2,0.2,0.2c0,0.1,0,0.1,0.1,0.2c0.1,0,0.1-0.2,0.1-0.2c-0.4-0.2,0.3-0.6,0.4-0.2
		c0.1,0,0.2-0.1,0.3-0.1c0-0.1,0-0.2,0-0.2c0,0-0.1,0.1-0.1,0.1c0-0.2,0.1-0.1,0.2-0.2c0,0.1,0,0.1,0,0.2c0.1,0,0.1-0.1,0.2-0.1
		c0,0.1,0,0.4,0,0.5c0,0,0-0.1,0-0.2c0.1,0,0.1-0.1,0.2-0.1c0,0.1,0.1,0.1,0.1,0.1c0,0-0.1,0.1-0.1,0.1c0.1,0,0.1-0.1,0.2-0.1
		c0,0.1-0.1,0.2,0,0.3c0.1,0,0.2,0,0.2,0.1c-0.1,0.1-0.1,0-0.1,0c0,0.1-0.1,0.2-0.1,0.4c0.1-0.1,0.1,0,0.1,0.1
		c0.3-0.1,0.4-0.4,0.6-0.5c0,0.2-0.2,0.2-0.1,0.5c0.1,0,0.1,0,0.2,0c0,0.1,0,0.1,0.1,0.2c-0.1,0.1,0,0.3,0,0.5c0,0.1,0.1,0,0.1,0
		c0,0.2-0.3,0.2-0.3,0.4c0,0.1,0.1,0.1,0.1,0.1c-0.4,0-0.4,0.5-0.7,0.6c0,0.2,0.1,0.2,0.2,0.3c0,0.2,0.2,0.2,0.1,0.4
		c-0.6,0.1-1,0.4-1.6,0.4c-0.1,0.3-0.1,0.5-0.3,0.7c0,0.1,0.1,0.1,0.1,0.2c0.3,0.1,0.7-0.2,0.9-0.4c0,0,0,0.1,0,0.1
		c0.1,0,0.2,0,0.2-0.1c0-0.1-0.1-0.1-0.1-0.1c0.1,0,0.1-0.1,0.1-0.1c0,0.1,0,0.2,0.1,0.2c0.1,0,0.1-0.1,0.1-0.1
		c0,0.1,0.1,0.2,0.1,0.3c0-0.1,0-0.1,0.1-0.1c0,0,0.1,0,0.1,0c0,0.1,0.1,0.2,0,0.4c0,0,0.2,0,0.1,0c-0.1,0,0,0.2,0,0.3
		c0.1,0,0.1-0.1,0.1,0.1c0.1,0,0.1-0.1,0.1-0.1c0.1,0,0.1,0,0.1,0.1c0,0.2-0.3,0.1-0.3,0.2c0.1,0,0.2,0,0.2,0.1c0,0,0.1-0.1,0.1-0.1
		c0.1,0.2,0.3,0,0.4-0.1c0.1,0.1,0.3,0,0.4,0.1c0.2-0.2,0.6,0,1,0c0-0.1,0-0.2,0-0.3c-0.1,0-0.3,0-0.3,0c0.1-0.2-0.1-0.3-0.3-0.2
		c-0.1-0.2-0.4-0.2-0.4-0.5c0.1-0.1,0.3,0,0.5,0.1c0.1,0-0.1-0.1,0.1-0.1c0.1,0,0.1,0.1,0.2,0.1c0.2-0.2,0.3,0,0.5,0
		c0,0.1,0,0.2,0.1,0.2c0-0.1,0.1,0,0.1-0.1C87.1,56.3,87.1,56,87,56c0-0.1,0.1-0.1,0.2-0.1c0-0.1-0.1-0.1,0-0.2c0.1,0,0.1,0.1,0.1,0
		c0-0.1,0-0.3-0.1-0.4c-0.1,0,0.1,0.2,0,0.2c-0.1-0.1,0-0.2-0.2-0.1c0-0.1,0-0.1,0-0.1c-0.1,0-0.1-0.1-0.2-0.1
		c0-0.2-0.2-0.3-0.1-0.5c-0.1,0-0.1,0.1-0.1,0.1c0-0.1-0.1-0.1-0.1-0.3c0.1,0,0.1,0,0.1,0c0,0.1,0,0.1,0.1,0.1c0-0.1,0-0.2-0.1-0.3
		c0.1,0,0-0.2,0.1-0.2c0.1,0,0,0.2,0.1,0.2c0-0.1,0.1-0.2,0-0.3c0.1,0.1,0.1,0,0.1,0c-0.1,0.1,0.1,0.1,0.1,0.4
		c0.2,0.1,0.3,0.1,0.4,0.1c0,0.1-0.1,0.1-0.1,0.1c0.1,0,0.2-0.1,0.2,0c0,0-0.1,0.1,0,0.1c0,0,0.1-0.1,0.1-0.1c0,0.1-0.1,0.1-0.1,0.2
		c0.1,0,0.2-0.1,0.2,0c0,0.1-0.2,0-0.1,0.2c0.1,0,0.1-0.1,0.2-0.1c-0.1,0.1,0,0.1,0,0.1c0.1,0,0.1,0,0.2,0c0,0,0.1-0.1,0.1-0.1
		c0-0.2-0.2-0.4,0-0.5c0.1,0,0,0.1,0.1,0.1c0,0,0.1-0.1,0.2-0.1c0-0.1-0.1-0.1-0.1-0.2c0,0,0.1,0,0.1,0c-0.1-0.2,0-0.3,0.2-0.3
		c0-0.1,0-0.1,0-0.1c0.1,0,0.1-0.1,0.1-0.1c0,0.1,0.1,0.1,0,0.1c0,0,0.1,0,0.1,0c-0.1-0.1,0.1-0.2,0-0.3c0.1,0,0.1,0.1,0.2,0
		c0-0.2-0.1-0.2-0.1-0.4C88.7,53.4,88.7,53.3,88.7,53.2z M84.1,50.3c-0.1,0-0.1-0.1-0.2-0.1c0,0,0,0-0.1,0c-0.1,0,0,0.1,0,0.2
		c-0.1,0-0.1,0.1-0.2,0.1c0-0.1,0.1-0.2,0.1-0.3c-0.1-0.1-0.1,0.1-0.2,0.1c0-0.1,0-0.1,0-0.1c-0.2,0-0.3,0.2-0.4,0.3
		c0,0.1,0.1,0,0.1,0.1c0,0.1-0.2,0.2-0.3,0.1c0.1-0.1,0.1-0.2,0.2-0.3C83,50.4,83.2,50.1,83,50c0-0.2,0.2-0.3,0.2-0.5
		c0.2,0.1-0.2,0.4,0,0.6c0.2-0.2,0.4-0.1,0.7-0.2c-0.1,0.2,0.3,0.2,0.3,0.4C84.2,50.3,84.2,50.3,84.1,50.3z M85.4,55.8
		c-0.1-0.2-0.2,0.1-0.4,0c0-0.1,0.3-0.3,0.1-0.4c0-0.1,0.1-0.1,0-0.1c0.2,0,0.2,0,0.4,0C85.4,55.4,85.5,55.7,85.4,55.8z M86.1,54.3
		c-0.1,0.1-0.1,0.2-0.3,0.1c-0.1,0.1-0.1,0.2-0.2,0.2c-0.2-0.2-0.2-0.6,0-0.9c0.1,0,0.1,0,0.1,0c0,0.1,0.1,0.1,0.1,0.2
		c0.1,0,0.1-0.1,0.2-0.1c0,0.1,0.1,0.1,0.2,0.1C86.3,54,86.4,54.5,86.1,54.3z"/>
	<path fill-rule="evenodd" clip-rule="evenodd" fill="#FFFFFF" d="M91.9,50c-0.1,0-0.1,0-0.1,0c0,0.1,0,0.1,0,0.1
		C91.9,50.1,91.9,50.1,91.9,50z"/>
	<path fill-rule="evenodd" clip-rule="evenodd" fill="#FFFFFF" d="M78.3,51.1c0-0.1,0-0.2,0-0.3c0,0.1-0.1,0.1-0.1,0.1
		c0-0.1,0-0.2,0-0.3c0.1,0,0.2-0.1,0.3-0.1c0-0.1,0-0.2,0.1-0.2c-0.1,0-0.1-0.1-0.2-0.1c0,0-0.2,0.2-0.2,0.1
		c0.1-0.1,0.3-0.1,0.3-0.3c-0.2,0.1-0.4,0.3-0.6,0.4c0,0,0.1,0,0.1,0.1c0,0.1-0.2,0.1-0.2,0c-0.2,0.1-0.4,0.3-0.4,0.5
		c0.1,0,0.2,0,0.3,0c0,0.3-0.3,0.4-0.6,0.4c-0.1-0.1,0-0.1-0.1-0.2c0,0.1-0.1,0-0.2,0.1c0,0.2-0.1,0.3,0.1,0.5
		c0.1-0.1,0.1,0.1,0.1,0c0-0.1,0.1-0.1,0.2-0.2c0,0.1,0.1,0.1,0.1,0.2c0.2,0,0.2,0.2,0.2,0.4c0.4-0.2,0.5-0.5,1-0.6
		c0.1-0.2,0.2-0.4,0.3-0.7C78.4,51,78.5,51.1,78.3,51.1z"/>
	<path fill-rule="evenodd" clip-rule="evenodd" fill="#FFFFFF" d="M117.2,50.7c0-0.1,0-0.2-0.1-0.2C117,50.6,117.1,50.6,117.2,50.7z
		"/>
	<path fill-rule="evenodd" clip-rule="evenodd" fill="#FFFFFF" d="M117,50.9c0-0.1,0.1,0,0.1-0.1c0,0,0-0.1,0-0.1
		c-0.1,0-0.2,0-0.2,0.1C117,50.8,116.9,50.9,117,50.9z"/>
	<path fill-rule="evenodd" clip-rule="evenodd" fill="#FFFFFF" d="M116.6,51.5c0.1,0,0.1-0.1,0.2-0.1c0.1-0.1,0.1-0.3,0-0.4
		c-0.1,0-0.1,0.1-0.2,0.1C116.6,51.3,116.7,51.3,116.6,51.5z"/>
	<path fill-rule="evenodd" clip-rule="evenodd" fill="#FFFFFF" d="M116.1,52c0.1-0.1,0.1,0.1,0.1,0.1c0.1-0.2,0.4-0.1,0.3-0.4
		c-0.1,0-0.1-0.1-0.1,0c0,0,0,0.1,0,0.1c0,0,0,0-0.1,0c-0.1,0-0.1-0.2-0.1-0.2C116.2,51.7,116,51.8,116.1,52z"/>
	<path fill-rule="evenodd" clip-rule="evenodd" fill="#FFFFFF" d="M116,51.9c-0.1,0-0.1,0.1-0.2,0.2C115.9,52.1,115.9,52,116,51.9z"
		/>
	<path fill-rule="evenodd" clip-rule="evenodd" fill="#FFFFFF" d="M115.6,52.1c0,0.1,0,0.1,0,0.1c0,0,0.1,0,0.1,0
		C115.6,52.1,115.6,52.1,115.6,52.1z"/>
	<path fill-rule="evenodd" clip-rule="evenodd" fill="#FFFFFF" d="M83.4,52.1c-0.1,0.1-0.4,0.1-0.5,0.3c0.1,0,0.2-0.1,0.1,0.1
		C83.3,52.4,83.5,52.3,83.4,52.1z"/>
	<path fill-rule="evenodd" clip-rule="evenodd" fill="#FFFFFF" d="M83.6,52.3c-0.1,0-0.1,0-0.1,0c0,0,0,0.1,0,0.1
		C83.6,52.4,83.6,52.3,83.6,52.3z"/>
	<path fill-rule="evenodd" clip-rule="evenodd" fill="#FFFFFF" d="M84.3,52.3c0,0.1-0.2,0-0.1,0.1C84.2,52.4,84.3,52.3,84.3,52.3z"
		/>
	<path fill-rule="evenodd" clip-rule="evenodd" fill="#FFFFFF" d="M80.9,52.7c0.1,0,0.1-0.1,0.1,0c-0.1-0.1-0.1-0.2-0.2-0.3
		C80.9,52.5,80.9,52.7,80.9,52.7z"/>
	<path fill-rule="evenodd" clip-rule="evenodd" fill="#FFFFFF" d="M84.8,53c0-0.1,0-0.2-0.1-0.2C84.8,53,84.7,53,84.8,53z"/>
	<path fill-rule="evenodd" clip-rule="evenodd" fill="#FFFFFF" d="M83,53c0,0-0.1,0.1,0,0.1c0-0.1,0.2,0,0.2-0.1
		C83.2,53,83.1,53,83,53z"/>
	<path fill-rule="evenodd" clip-rule="evenodd" fill="#FFFFFF" d="M104.1,55.2c0.1-0.2,0-0.2,0-0.4c0.2,0,0.2,0.1,0.4,0.1
		c0.1,0,0-0.1,0.1-0.1c0,0,0.1,0,0.1,0.1c0.2-0.2,0.5-0.3,0.7-0.4c0-0.1,0.1-0.1,0-0.2c0.1,0,0.1-0.1,0.2-0.1c0.1,0,0.1,0.1,0.2,0.1
		c0-0.2-0.1-0.2,0-0.4c-0.1-0.1-0.3-0.2-0.4-0.1c0-0.1,0-0.2,0.1-0.2c-0.1,0-0.1-0.2,0-0.2c-0.1,0-0.1,0-0.2,0.1
		c-0.1-0.1-0.2-0.1-0.2-0.3c-0.1,0-0.1,0.1-0.2,0c0,0.1,0,0.2,0,0.3c-0.1,0-0.1-0.1-0.2-0.1c-0.1,0.1-0.3,0.2-0.4,0.1
		c-0.1,0.1,0.1,0.1,0,0.3c-0.2,0-0.2-0.2-0.1-0.4c-0.2,0-0.1,0.2-0.3,0.2c0,0.1,0,0.2-0.1,0.2c-0.1,0-0.1-0.2-0.2-0.3
		c-0.1,0,0,0.4-0.1,0.4c0,0,0-0.1-0.1-0.1c-0.1,0.1,0,0.3-0.2,0.3c-0.1-0.3,0-0.9-0.5-0.7c0,0.1,0.3,0.1,0.1,0.3
		c-0.1-0.1-0.1-0.1-0.2-0.1c0-0.1-0.1-0.1-0.1-0.2c-0.2,0.1-0.1,0.1-0.1,0.4c-0.2,0-0.1,0.3-0.4,0.2c0,0.1,0.2,0.1,0.3,0.1
		c0-0.1,0.3-0.1,0.4-0.2c0,0,0.1,0,0.1,0.1c0,0-0.1,0-0.1,0c0,0,0,0.1,0,0.1c0,0,0.2,0,0.1,0c0,0.2-0.2,0-0.3,0
		c-0.1,0.1-0.2,0.2-0.4,0.2c0,0,0,0.1,0,0.1c0.2,0,0.3,0,0.5,0c0,0.2,0.1,0.1,0.2,0.1c-0.1,0.1,0,0.1,0.1,0.1
		c-0.1,0.1-0.3,0.1-0.4,0.2c0.1,0.1,0.1,0.1,0.2,0.1c0.1-0.2,1,0,0.6,0.2C103.6,55.2,103.9,55.3,104.1,55.2
		C104.1,55.2,104,55.3,104.1,55.2z"/>
	<path fill-rule="evenodd" clip-rule="evenodd" fill="#FFFFFF" d="M102.7,53.2c-0.1-0.1-0.3-0.1-0.4,0
		C102.4,53.2,102.6,53.2,102.7,53.2z"/>
	<path fill-rule="evenodd" clip-rule="evenodd" fill="#FFFFFF" d="M84,53.8c0.2,0,0.3-0.4,0.3-0.5C84.1,52.8,83.6,53.7,84,53.8z"/>
	<path fill-rule="evenodd" clip-rule="evenodd" fill="#FFFFFF" d="M77.8,53.2c-0.1,0-0.1,0.1-0.1,0c-0.1,0-0.1,0.1-0.1,0.1
		c0,0,0.1-0.1,0-0.1c-0.1,0-0.1,0.3-0.3,0.2c-0.1,0.3-0.3,0.4-0.4,0.6c0.2-0.1,0,0,0.2,0.1c0-0.1,0-0.2,0.1-0.2
		c0,0.1-0.1,0.1-0.1,0.2c0.1,0,0.1,0.1,0.1,0.2c0.2,0,0.2-0.1,0.3-0.2c0.2,0,0.3-0.1,0.5-0.2c-0.2,0,0-0.2,0-0.4
		C77.9,53.4,77.8,53.3,77.8,53.2z"/>
	<path fill-rule="evenodd" clip-rule="evenodd" fill="#FFFFFF" d="M84.6,53.2c0,0-0.1,0.1,0,0.2c0.1,0,0.2,0,0.2-0.2
		C84.7,53.2,84.6,53.2,84.6,53.2z"/>
	<path fill-rule="evenodd" clip-rule="evenodd" fill="#FFFFFF" d="M76.5,54C76.4,53.9,76.3,54,76.5,54C76.4,54.1,76.6,54,76.5,54
		C76.5,53.9,76.5,54,76.5,54z"/>
	<path fill-rule="evenodd" clip-rule="evenodd" fill="#FFFFFF" d="M75.9,54.3c0.1,0,0.2-0.1,0.1-0.1C76,54.2,75.9,54.2,75.9,54.3z"
		/>
	<path fill-rule="evenodd" clip-rule="evenodd" fill="#FFFFFF" d="M74.9,54.7c0.1,0.1,0.2,0,0.1-0.1C75.1,54.6,75,54.6,74.9,54.7z"
		/>
	<path fill-rule="evenodd" clip-rule="evenodd" fill="#FFFFFF" d="M114.3,55.1c-0.1,0-0.2,0-0.2,0.1
		C114.2,55.2,114.2,55.2,114.3,55.1z"/>
	<path fill-rule="evenodd" clip-rule="evenodd" fill="#FFFFFF" d="M80.6,55.6c0-0.1,0-0.1,0-0.1c0,0-0.1,0-0.1,0
		C80.5,55.5,80.6,55.6,80.6,55.6z"/>
	<path fill-rule="evenodd" clip-rule="evenodd" fill="#FFFFFF" d="M81.1,56.6c0-0.1,0-0.2,0-0.4c-0.1-0.1-0.2-0.2-0.3-0.4
		c-0.2,0-0.3-0.1-0.4,0.1c0,0,0-0.1,0-0.1c0-0.1,0.1-0.1,0.1-0.2c-0.3-0.1-0.4,0.6-0.4,0.8c-0.1,0.2-0.5,0.2-0.4,0.6
		c0.1,0,0.2-0.1,0.3-0.1c0,0.1-0.1,0.1-0.1,0.3c0.6,0,0.3-0.9,0.8-0.9c0,0.1,0,0.1,0,0.2c0,0.1-0.2,0.1-0.1,0.2
		c0.1,0.1,0.4,0.1,0.5,0.1c0.1-0.1,0.1-0.2,0.2-0.4C81.4,56.4,81.3,56.6,81.1,56.6z"/>
	<path fill-rule="evenodd" clip-rule="evenodd" fill="#FFFFFF" d="M87.4,56.3c0,0.1-0.1,0.1-0.1,0.1c0.1,0,0.1,0.1,0.1,0.1
		c0.2,0,0.3-0.1,0.2-0.3C87.5,56.4,87.4,56.3,87.4,56.3z"/>
	<path fill-rule="evenodd" clip-rule="evenodd" fill="#FFFFFF" d="M82.7,56.8c0,0.1,0,0.1,0,0.1c0,0,0,0,0.1,0
		C82.8,56.9,82.8,56.9,82.7,56.8C82.8,56.8,82.7,56.8,82.7,56.8z"/>
	<path fill-rule="evenodd" clip-rule="evenodd" fill="#FFFFFF" d="M83,57c0,0.1,0,0.1,0.1,0.1C83.1,57.1,83.1,56.9,83,57z"/>
	<path fill-rule="evenodd" clip-rule="evenodd" fill="#FFFFFF" d="M82.8,57C82.7,57,82.7,57,82.8,57c-0.1,0.1-0.1,0.1,0,0.1
		C82.7,57.1,82.8,57.1,82.8,57C82.8,57.1,82.7,57.1,82.8,57z"/>
	<path fill-rule="evenodd" clip-rule="evenodd" fill="#FFFFFF" d="M81,57.2c-0.2,0.3-0.6,0.3-0.7,0.6C80.6,57.7,80.9,57.5,81,57.2
		C81.1,57.2,81,57.2,81,57.2z"/>
	<path fill-rule="evenodd" clip-rule="evenodd" fill="#FFFFFF" d="M110.6,57.6c-0.1-0.1,0-0.3-0.1-0.4c0,0.1-0.1,0.2-0.1,0.3
		C110.6,57.5,110.5,57.6,110.6,57.6z"/>
	<path fill-rule="evenodd" clip-rule="evenodd" fill="#FFFFFF" d="M85,57.3C85,57.3,85,57.4,85,57.3c0.1,0,0.2,0,0.2,0
		C85.1,57.3,85,57.2,85,57.3z"/>
	<path fill-rule="evenodd" clip-rule="evenodd" fill="#FFFFFF" d="M86.9,57.4c0,0.2,0.2,0.1,0.2,0C87,57.3,86.9,57.4,86.9,57.4z"/>
	<path fill-rule="evenodd" clip-rule="evenodd" fill="#FFFFFF" d="M81.8,57.8C81.8,57.8,81.9,57.8,81.8,57.8c0.2,0,0.3-0.3,0.2-0.4
		C82,57.6,81.8,57.6,81.8,57.8z"/>
	<path fill-rule="evenodd" clip-rule="evenodd" fill="#FFFFFF" d="M118.4,57.7c0.1,0,0.2,0.1,0.3,0.1c0,0,0-0.1,0-0.1
		c-0.1-0.1-0.1-0.1-0.2-0.1C118.6,57.6,118.6,57.6,118.4,57.7z"/>
	<path fill-rule="evenodd" clip-rule="evenodd" fill="#FFFFFF" d="M119.9,57.5c0,0.1-0.1,0-0.2,0c0,0.1,0,0.1,0,0.2c0,0,0.1,0,0.1,0
		C119.9,57.7,120,57.5,119.9,57.5z"/>
	<path fill-rule="evenodd" clip-rule="evenodd" fill="#FFFFFF" d="M94.5,58c0,0,0,0.1,0,0.1c0.1,0,0.1,0,0.1,0
		C94.6,58,94.6,58,94.5,58z"/>
	<path fill-rule="evenodd" clip-rule="evenodd" fill="#FFFFFF" d="M85.8,58.2C85.8,58.2,85.8,58.2,85.8,58.2c0.1,0,0.1-0.1,0.1-0.1
		C85.8,58.1,85.8,58.1,85.8,58.2C85.8,58.2,85.8,58.2,85.8,58.2z"/>
	<path fill-rule="evenodd" clip-rule="evenodd" fill="#FFFFFF" d="M119.8,58.6c0.1-0.1,0.1-0.2,0-0.3c0,0,0,0.1-0.1,0.1
		C119.7,58.5,119.7,58.6,119.8,58.6z"/>
	<path fill-rule="evenodd" clip-rule="evenodd" fill="#FFFFFF" d="M109,59.5c-0.1,0-0.1,0.2,0,0.2c-0.1,0.1-0.1,0.2-0.1,0.3
		c0.1,0,0.2-0.1,0.3,0c-0.1,0-0.1,0.1-0.2,0.1c0.1,0.1-0.1,0.2,0,0.3c0-0.2,0.2-0.2,0.3-0.1c-0.1,0.2,0.1,0.5-0.1,0.8
		c0.1,0,0.1,0.1,0.2,0.1c0-0.1,0-0.1,0.1-0.1c0.2,0.2,0.4-0.1,0.6,0.1c-0.2,0-0.2,0.2-0.1,0.3c0.1,0,0.2,0,0.3,0
		c0.1,0.2-0.1,0.3,0,0.6c-0.1,0.1-0.2,0-0.4,0.1c-0.1,0,0-0.2-0.1-0.2c-0.1,0-0.1,0.1-0.1,0.1c0,0.1,0.2,0,0.2,0.1
		c-0.1,0.1-0.2,0.2-0.3,0.3c0.1,0,0.1-0.1,0.3,0c0,0.1,0,0.2,0,0.3c-0.2,0-0.2,0.2-0.4,0.2c0,0.1,0,0.1,0,0.2c0.2,0,0.1,0,0.1,0.1
		c0.2,0,0.1-0.1,0.3-0.1c0,0,0,0,0.1,0c0,0,0,0.1,0,0.1c0.2,0,0.2-0.1,0.3-0.1c0.1,0,0.1,0.2,0.2,0.1c0.1,0,0-0.2,0.1-0.2
		c0.1,0,0.1,0,0.2,0c-0.1,0.1,0,0.3-0.1,0.3c-0.3,0-0.4,0-0.6,0c-0.2,0.1-0.3,0.4-0.4,0.6c-0.1,0.1-0.3,0.1-0.3,0.2
		c0.1,0,0.2,0,0.3,0.1c0.1-0.2,0.2-0.4,0.6-0.4c0,0,0,0.1,0,0.1c0.2-0.2,0.4-0.3,0.7-0.1c0-0.2,0.2-0.1,0.2-0.2
		c0.2,0.2,0.4-0.1,0.6,0c0.1,0,0.1,0.1,0.2,0.1c0-0.2,0.3-0.1,0.3-0.4c-0.1-0.1-0.2,0-0.3,0c0-0.1-0.1-0.1-0.1-0.2
		c0.2,0,0.2-0.2,0.4-0.1c0.1-0.2,0.2-0.3,0.2-0.6c-0.1-0.1-0.2-0.2-0.4-0.2c-0.1,0,0,0.2-0.1,0.2c-0.2-0.1,0-0.2-0.1-0.4
		c-0.2,0-0.2-0.2-0.3-0.3c0.1,0,0.1,0.1,0.2,0.1c-0.1-0.2-0.1-0.3-0.3-0.3c0-0.1-0.1-0.1-0.1-0.2c-0.3-0.1-0.3-0.6-0.5-0.8
		c-0.1-0.1-0.2-0.1-0.2-0.2c-0.1,0-0.2,0.1-0.2,0c0,0,0-0.1,0.1-0.1c0-0.1-0.1-0.2-0.1-0.3c0.2-0.2,0.3-0.4,0.3-0.8
		c-0.3-0.1-0.6-0.1-0.8,0.1c-0.2-0.4,0.6-0.5,0.3-0.9c-0.1,0-0.1,0-0.2,0c-0.1,0.2-0.2,0.1-0.2,0.2c0-0.1,0-0.2-0.1-0.1
		c0,0.2-0.2,0.4-0.1,0.6c-0.1,0-0.2-0.1-0.2,0c0,0.1,0.1,0.1,0.1,0.2c-0.1,0-0.1,0-0.1,0.1C109,59.4,108.9,59.5,109,59.5z"/>
	<path fill-rule="evenodd" clip-rule="evenodd" fill="#FFFFFF" d="M108.4,59.2c0-0.1,0-0.1,0.2-0.1c0-0.2,0.2-0.4,0-0.5
		c-0.1,0-0.1,0.2-0.2,0.2C108.6,58.9,108.3,59,108.4,59.2z"/>
	<path fill-rule="evenodd" clip-rule="evenodd" fill="#FFFFFF" d="M119.7,59.2c0-0.1,0.1-0.1,0.2-0.1c0-0.1,0.1-0.1,0.1-0.3
		c-0.3-0.1-0.3,0.1-0.5,0.1C119.5,59.1,119.6,59.1,119.7,59.2z"/>
	<path fill-rule="evenodd" clip-rule="evenodd" fill="#FFFFFF" d="M108.6,59.3c0,0.2,0.1,0.4,0.2,0.5c0,0,0-0.1,0-0.2
		C108.6,59.6,108.7,59.4,108.6,59.3C108.6,59.3,108.6,59.3,108.6,59.3z"/>
	<path fill-rule="evenodd" clip-rule="evenodd" fill="#FFFFFF" d="M108.2,59.5c0-0.1,0.1-0.1,0.1-0.1c0,0-0.1,0-0.1,0
		C108.2,59.4,108.2,59.5,108.2,59.5z"/>
	<path fill-rule="evenodd" clip-rule="evenodd" fill="#FFFFFF" d="M118.4,60c0.1-0.2,0.1-0.3,0.1-0.6c-0.3-0.1-0.2,0.2-0.4,0.2
		C118.2,59.8,118.2,60,118.4,60z"/>
	<path fill-rule="evenodd" clip-rule="evenodd" fill="#FFFFFF" d="M114.7,59.8C114.6,59.8,114.6,59.8,114.7,59.8
		c-0.1,0-0.1,0.1-0.1,0.1C114.7,59.9,114.7,59.9,114.7,59.8z"/>
	<path fill-rule="evenodd" clip-rule="evenodd" fill="#FFFFFF" d="M108.7,60.2c0.1,0,0.1,0,0.2,0c0-0.1,0-0.2-0.2-0.2
		C108.7,60.1,108.7,60.2,108.7,60.2z"/>
	<path fill-rule="evenodd" clip-rule="evenodd" fill="#FFFFFF" d="M115.6,61.1c0.1,0,0.1-0.1,0.2-0.1c0.1,0,0,0.2,0.1,0.1
		c0-0.1,0.1-0.1,0.2-0.2c0-0.1-0.1-0.1-0.1-0.1c0.1-0.1,0-0.3,0-0.4c-0.1,0-0.1,0-0.2,0c0,0.2,0.1,0.3-0.1,0.3c0-0.1,0-0.1-0.1-0.1
		c0,0-0.1,0-0.1,0c0.1,0.1-0.1,0-0.1,0.1C115.5,60.9,115.7,60.9,115.6,61.1z"/>
	<path fill-rule="evenodd" clip-rule="evenodd" fill="#FFFFFF" d="M107.3,62.9c0,0.2,0.1,0.2,0,0.3c0.1,0,0.2-0.1,0.3,0
		c0,0.1-0.2,0-0.1,0.1c0.1,0,0.2-0.1,0.3-0.1c0,0.1,0,0.1,0.1,0.1c0.1-0.1,0.2-0.3,0.4-0.3c0.1-0.2,0.2-0.3,0.4-0.3
		c0-0.1-0.1-0.1-0.1-0.1c0,0,0.1,0,0.1,0c0-0.2,0-0.4-0.1-0.6c0-0.1,0-0.2,0-0.4c0.1-0.1,0.3-0.1,0.4-0.2c-0.2,0,0-0.3-0.2-0.3
		c0,0,0.1-0.1,0.1-0.1c-0.1,0-0.1-0.1-0.2-0.1c-0.1,0-0.2,0.2-0.3,0.1c0-0.1,0.1,0,0.1-0.1c0,0-0.1-0.1-0.1-0.1
		c0,0.3-0.2,0.1-0.4,0.1c0.1,0.2-0.1,0.1-0.1,0.2c0.1,0,0.2,0,0.1,0.1c-0.2,0-0.1,0.2-0.2,0.3c-0.1-0.1-0.2-0.1-0.3,0
		c0,0,0-0.1-0.1-0.1c0,0.1-0.1,0.1,0,0.2c0,0,0.1,0,0.1,0.1c0,0.1-0.1,0.1-0.2,0.1c0.1,0.2-0.2,0.1-0.1,0.3c0.2,0,0.4,0.2,0.5-0.1
		c-0.1,0.2-0.2,0.4-0.3,0.6c0,0,0.1,0,0.1,0c-0.1,0.1-0.1,0.2-0.1,0.3C107.4,63,107.4,62.9,107.3,62.9z"/>
	<path fill-rule="evenodd" clip-rule="evenodd" fill="#FFFFFF" d="M115.1,60.9c0,0.2,0.1,0.2,0.3,0.3c0-0.1,0-0.2-0.1-0.3
		C115.3,60.9,115.2,60.9,115.1,60.9z"/>
	<path fill-rule="evenodd" clip-rule="evenodd" fill="#FFFFFF" d="M117.2,61.2c0-0.2-0.1-0.2-0.2-0.2
		C117,61.1,117.1,61.2,117.2,61.2z"/>
	<path fill-rule="evenodd" clip-rule="evenodd" fill="#FFFFFF" d="M81.2,61.1c0,0-0.2,0.1-0.1,0.1C81.2,61.2,81.3,61.2,81.2,61.1z"
		/>
	<path fill-rule="evenodd" clip-rule="evenodd" fill="#FFFFFF" d="M81.4,61.2c-0.1,0.1-0.2,0.4-0.1,0.5
		C81.3,61.5,81.5,61.3,81.4,61.2z"/>
	<path fill-rule="evenodd" clip-rule="evenodd" fill="#FFFFFF" d="M115.5,61.4c0.1,0,0.1-0.2,0-0.2
		C115.5,61.3,115.4,61.3,115.5,61.4z"/>
	<path fill-rule="evenodd" clip-rule="evenodd" fill="#FFFFFF" d="M112.9,63.3c0,0-0.2-0.1-0.2,0C112.7,63.3,112.9,63.4,112.9,63.3z
		"/>
	<path fill-rule="evenodd" clip-rule="evenodd" fill="#FFFFFF" d="M80,63.7c0.1,0.1,0.2,0.1,0.3,0.1C80.3,63.6,80,63.4,80,63.7z"/>
	<path fill-rule="evenodd" clip-rule="evenodd" fill="#FFFFFF" d="M87.1,65.4c-0.2-0.3-0.5-0.5-1-0.5c0,0.1,0,0.1,0,0.1
		c0.2,0,0.3,0.1,0.3,0.2C86.7,65.3,86.8,65.5,87.1,65.4C87.1,65.4,87.1,65.4,87.1,65.4z"/>
	<path fill-rule="evenodd" clip-rule="evenodd" fill="#FFFFFF" d="M87,66.3c0-0.1,0.1-0.1,0.1-0.1C87.1,66.2,86.9,66.3,87,66.3z"/>
	<path fill-rule="evenodd" clip-rule="evenodd" fill="#FFFFFF" d="M89.6,66.2c0,0-0.1,0-0.1,0c0,0.1,0,0.2,0.1,0.2
		C89.6,66.3,89.6,66.3,89.6,66.2z"/>
	<path fill-rule="evenodd" clip-rule="evenodd" fill="#FFFFFF" d="M86.7,67C86.7,67,86.7,67,86.7,67c-0.1-0.1-0.3,0.1-0.4-0.1
		c0,0,0,0.1-0.1,0.1c0-0.1-0.1-0.1-0.1-0.1c0,0,0.1-0.2,0.1-0.2c0,0.1-0.1,0.2-0.2,0.3C86.1,67.1,86.3,67.3,86.7,67
		c-0.1,0.1-0.1,0.1-0.1,0.2c0,0,0.2,0.1,0.2-0.1C86.7,67.1,86.7,67.1,86.7,67z"/>
	<path fill-rule="evenodd" clip-rule="evenodd" fill="#FFFFFF" d="M87.4,67.2c0.1,0.1,0,0.2-0.1,0.3c0.4-0.1,0.4-0.2,0.4-0.4
		c-0.1,0-0.1,0-0.1,0C87.7,67.2,87.5,67.1,87.4,67.2z"/>
	<path fill-rule="evenodd" clip-rule="evenodd" fill="#FFFFFF" d="M79.2,68.1C79,68,78.9,67.9,78.7,68C78.8,68.1,79,68.1,79.2,68.1z
		"/>
	<path fill-rule="evenodd" clip-rule="evenodd" fill="#FFFFFF" d="M114.9,69.4c0.1,0.1,0.2,0.2,0.3,0.2c0.1-0.3,0.2-0.8,0-1
		c0,0.2-0.2,0.2-0.3,0.3C114.8,69.1,115,69.2,114.9,69.4z"/>
	<path fill-rule="evenodd" clip-rule="evenodd" fill="#FFFFFF" d="M115.5,70.1c-0.1-0.5-0.5-0.4-0.7-0.1c0.2,0.2,0.1,0.7,0.2,0.9
		C115.5,71.1,115.4,70.4,115.5,70.1z"/>
	<path fill-rule="evenodd" clip-rule="evenodd" fill="#FFFFFF" d="M113.6,70.5c0-0.2-0.2-0.2-0.2-0.1
		C113.5,70.4,113.5,70.5,113.6,70.5z"/>
	<path fill-rule="evenodd" clip-rule="evenodd" fill="#FFFFFF" d="M112.7,70.8c0.1,0,0.2-0.2,0.3-0.2c-0.1,0-0.1-0.1-0.1-0.2
		c0,0-0.1,0-0.1,0C112.8,70.5,112.7,70.6,112.7,70.8z"/>
	<path fill-rule="evenodd" clip-rule="evenodd" fill="#FFFFFF" d="M112.1,70.7c-0.1,0-0.2,0-0.1,0.2
		C112.1,70.8,112.1,70.7,112.1,70.7z"/>
	<path fill-rule="evenodd" clip-rule="evenodd" fill="#FFFFFF" d="M122.4,71.1c0-0.1,0-0.1-0.1-0.2c-0.1,0-0.1,0-0.1,0
		C122.2,71,122.3,71.1,122.4,71.1z"/>
	<path fill-rule="evenodd" clip-rule="evenodd" fill="#FFFFFF" d="M119.9,71.6c0-0.1,0.1,0.1,0.1,0C120,71.5,119.9,71.5,119.9,71.6
		C119.9,71.5,119.9,71.5,119.9,71.6C119.9,71.6,119.9,71.6,119.9,71.6z"/>
	<path fill-rule="evenodd" clip-rule="evenodd" fill="#FFFFFF" d="M117.6,72.3c0.1-0.3,0-0.5,0.1-0.8c-0.3,0.2-0.8,0.1-1.1,0
		c-0.1,0.1,0,0.2,0,0.3C117,71.9,117.1,72.2,117.6,72.3z"/>
	<path fill-rule="evenodd" clip-rule="evenodd" fill="#FFFFFF" d="M125.5,73.4c0-0.1,0-0.1,0-0.2c0.1,0,0.3-0.1,0.2-0.2
		c-0.2,0.1-0.4,0.2-0.6,0.2c0,0.1-0.2,0.1-0.3,0.2C124.9,73.8,125.3,73.6,125.5,73.4z"/>
	<path fill-rule="evenodd" clip-rule="evenodd" fill="#FFFFFF" d="M121.7,73.5c0.3-0.1,0.5,0,0.6-0.1c-0.1,0-0.2-0.1-0.2-0.1
		c-0.3,0.1-0.4-0.1-0.6,0c-0.1-0.1-0.3-0.2-0.3,0C121.3,73.4,121.7,73.3,121.7,73.5z"/>
	<path fill-rule="evenodd" clip-rule="evenodd" fill="#FFFFFF" d="M105.4,77.2c0.2,0,0.2-0.2,0.2-0.3c0,0-0.1,0-0.1,0
		C105.6,77,105.5,77.1,105.4,77.2z"/>
	<path fill-rule="evenodd" clip-rule="evenodd" fill="#FFFFFF" d="M74.5,77c0.1,0,0.1,0.1,0.1,0.1c0-0.1,0.1-0.2,0-0.2
		C74.5,76.9,74.5,77,74.5,77z"/>
	<path fill-rule="evenodd" clip-rule="evenodd" fill="#FFFFFF" d="M104.4,77.2c0.1,0,0.2-0.2,0.3-0.2c-0.1,0-0.2,0.1-0.3,0.1
		C104.3,77.1,104.4,77.1,104.4,77.2z"/>
	<path fill-rule="evenodd" clip-rule="evenodd" fill="#FFFFFF" d="M104.8,77.3c0.1,0,0.2,0,0.2-0.2
		C104.9,77.1,104.8,77.1,104.8,77.3z"/>
	<path fill-rule="evenodd" clip-rule="evenodd" fill="#FFFFFF" d="M79.2,79.3c0-0.1-0.1-0.1-0.1-0.2c-0.2,0-0.2,0.1-0.2,0.2
		C79,79.3,79.1,79.3,79.2,79.3z"/>
	<path fill-rule="evenodd" clip-rule="evenodd" fill="#FFFFFF" d="M80.5,81.2c-0.1-0.2-0.4-0.1-0.5-0.2c0-0.1,0-0.1,0-0.2
		c-0.1,0-0.2,0-0.3,0c-0.1-0.2-0.3-0.1-0.4-0.4c-0.4-0.1-0.8-0.1-0.9-0.5c-0.3,0-0.5-0.2-0.8,0c0-0.1,0-0.1-0.1-0.1
		c-0.3,0-1,0.1-1,0.6c-0.1,0-0.1,0-0.1,0.1c0.5,0,0.5-0.6,1.1-0.4c0.1,0.2,0.4,0.2,0.6,0.3c0.1,0.3,0.4,0.4,0.7,0.3
		c0,0.4,0.2,0.4,0.5,0.5c0,0.2-0.2,0.2-0.2,0.3c0.4,0.1,0.7-0.1,1.2-0.1C80.3,81.3,80.5,81.3,80.5,81.2z"/>
	<path fill-rule="evenodd" clip-rule="evenodd" fill="#FFFFFF" d="M77,80.4c0.1,0.1,0,0.2-0.1,0.3c0.1,0,0.2-0.1,0.3-0.1
		c0-0.1,0.1-0.2,0.1-0.3C77.2,80.4,77,80.4,77,80.4z"/>
	<path fill-rule="evenodd" clip-rule="evenodd" fill="#FFFFFF" d="M81.9,81.4c-0.2,0-0.4,0.1-0.6,0.1c-0.1,0-0.2-0.2-0.3-0.1
		c0,0.1,0.1,0.1,0.2,0.1c-0.1,0.2,0,0.3,0.1,0.4c0,0.1,0,0.1-0.1,0.1c-0.3-0.1-0.6-0.2-0.8-0.1c0,0.1,0,0.1,0,0.1
		c0.2,0.1,0.8,0.1,1.1,0.1c0.1,0.1,0,0.2,0.1,0.2c0.1,0,0.2-0.2,0.2-0.3c0.1,0.1,0.2,0.1,0.4,0.1c0-0.1,0.1-0.1,0.1-0.1
		c0.1,0.1,0.4,0,0.6,0c0-0.2-0.1-0.2-0.1-0.3C82.3,81.8,82.2,81.5,81.9,81.4z"/>
	<path fill-rule="evenodd" clip-rule="evenodd" fill="#FFFFFF" d="M78.7,82.2c0.3,0,0.3,0.3,0.6,0.2c0-0.2,0.3,0,0.3-0.2
		C79.4,82.1,78.8,81.8,78.7,82.2z"/>
	<path fill-rule="evenodd" clip-rule="evenodd" fill="#FFFFFF" d="M83.5,82.1c-0.1,0.1,0,0.2,0.1,0.2c0.2,0,0.4,0,0.5-0.2
		C83.9,82,83.7,82,83.5,82.1z"/>
	<path fill-rule="evenodd" clip-rule="evenodd" fill="#FFFFFF" d="M85.6,83.2c-0.1,0-0.1,0-0.1,0c0,0,0,0.1,0,0.1
		C85.5,83.3,85.6,83.3,85.6,83.2z"/>
	<path fill-rule="evenodd" clip-rule="evenodd" fill="#FFFFFF" d="M85.6,83.8c0,0,0-0.2-0.1-0.2C85.5,83.7,85.5,83.8,85.6,83.8z"/>
	<path fill-rule="evenodd" clip-rule="evenodd" fill="#FFFFFF" d="M85.7,84c0,0.1,0,0.2,0.1,0.2C85.8,84.1,85.8,84,85.7,84z"/>
	<path fill-rule="evenodd" clip-rule="evenodd" fill="#FFFFFF" d="M85.4,85.9c0.1,0,0,0.2,0.1,0.3c0.1,0,0.1,0,0.2-0.1
		c0-0.1,0-0.2,0-0.3C85.5,85.9,85.5,85.8,85.4,85.9z"/>
	<path fill-rule="evenodd" clip-rule="evenodd" fill="#FFFFFF" d="M114.2,89.8c0-0.1,0.1-0.2,0-0.2c-0.1,0-0.1,0.1-0.2,0.2
		C114.1,89.8,114.1,89.8,114.2,89.8z"/>
	<path fill-rule="evenodd" clip-rule="evenodd" fill="#FFFFFF" d="M72.4,90.6c0.1,0,0,0.3,0.2,0.3c-0.1,0-0.2,0-0.2,0.1
		c0.1,0.1,0.2-0.1,0.3-0.1c0-0.2-0.2-0.2-0.2-0.4C72.5,90.5,72.4,90.5,72.4,90.6z"/>
	<path fill-rule="evenodd" clip-rule="evenodd" fill="#FFFFFF" d="M123.9,92.9c0-0.1-0.1-0.1-0.1-0.1
		C123.8,92.9,123.8,92.9,123.9,92.9z"/>
	<path fill-rule="evenodd" clip-rule="evenodd" fill="#FFFFFF" d="M89.7,105.3c0,0.1,0.2,0,0.2,0C89.8,105.4,89.7,105.2,89.7,105.3z
		"/>
	<path fill-rule="evenodd" clip-rule="evenodd" fill="#FFFFFF" d="M91.6,50.9c-0.1,0-0.3,0-0.4,0.1c0.1,0.3-0.2,0.4-0.2,0.6
		c0.2-0.1,0.4,0,0.5-0.1c0.1,0.2-0.2,0.2-0.3,0.2c0,0.2,0.2,0.1,0.4,0.1c0.2-0.2,0.5-0.2,0.6-0.5C92,51.2,91.9,51,91.6,50.9
		C91.6,50.8,91.7,50.9,91.6,50.9z"/>
	<path fill-rule="evenodd" clip-rule="evenodd" fill="#FFFFFF" d="M103.4,45.7c0-0.1-0.1-0.2-0.1-0.3
		C103.3,45.5,103.4,45.6,103.4,45.7z"/>
	<path fill-rule="evenodd" clip-rule="evenodd" fill="#FFFFFF" d="M102.6,48.9c0.1,0,0.1-0.1,0.1-0.1c-0.2,0-0.3-0.1-0.4-0.2
		c0.2,0,0.1,0.1,0.3,0.1c0-0.1,0-0.2,0.1-0.2c-0.1,0-0.2,0-0.3-0.1c0-0.1,0.1-0.1,0-0.1c0,0-0.2,0.1-0.2,0c0.1,0,0.1,0,0.1-0.1
		c-0.3-0.1-0.5-0.2-0.7,0c0,0.1,0.1,0.1,0.1,0.1c-0.2-0.1-0.4-0.1-0.5,0c0,0.1,0,0.1,0,0.2c0.2-0.1,0.1,0.1,0.2,0.1
		c0.1-0.1,0.3-0.1,0.4-0.3c0.1,0.1,0.4,0.1,0.5,0.2c-0.2,0.3,0.3,0.6,0.7,0.6C102.8,48.9,102.6,49,102.6,48.9z"/>
	<path fill-rule="evenodd" clip-rule="evenodd" fill="#FFFFFF" d="M79.4,48.7c0,0.2-0.3,0.2-0.3,0.3C79.2,48.9,79.4,48.9,79.4,48.7z
		"/>
	<path fill-rule="evenodd" clip-rule="evenodd" fill="#FFFFFF" d="M76.8,52.8c0,0.1-0.2,0.1-0.1,0.2C76.8,53,76.9,52.7,76.8,52.8z"
		/>
	<path fill-rule="evenodd" clip-rule="evenodd" fill="#FFFFFF" d="M115.6,61.3c0.1,0.1,0,0.3,0.1,0.2c0.2-0.1,0.3-0.1,0.4-0.3
		C116,61.3,115.8,61.4,115.6,61.3z"/>
	<path fill-rule="evenodd" clip-rule="evenodd" fill="#FFFFFF" d="M90.8,66c0-0.1,0-0.2,0-0.2c0.1,0,0.1-0.1,0.1-0.2
		c-0.1,0.1-0.2,0.2-0.3,0.4c0-0.1-0.2,0-0.2-0.1c0-0.1,0.2,0,0.1-0.1c0-0.1-0.1,0-0.1-0.1c0.1-0.1,0.2-0.2,0.2-0.3
		c-0.1,0.1-0.2,0.1-0.4,0.2c0-0.1,0.1-0.1,0.1-0.2c-0.1,0-0.1,0-0.1,0.1c0-0.1,0-0.1-0.1-0.1c0.1-0.1,0.1-0.2,0.2-0.3
		c-0.1,0-0.1-0.1-0.2-0.1c0,0.2-0.3,0.1-0.2,0c-0.1,0.1-0.2,0.1-0.3,0.2c-0.1-0.1-0.2-0.1-0.3-0.1c0-0.1,0.1-0.1,0.2-0.2
		c0-0.1-0.1-0.1-0.2-0.1c-0.1,0.1-0.1,0.2-0.3,0.3c-0.1-0.2,0-0.4,0.1-0.4c0-0.2,0.1-0.3,0.2-0.3c0-0.1,0-0.1,0-0.1c0,0-0.1,0-0.1,0
		c0.1-0.1,0.2-0.1,0.2-0.2c-0.1,0.1-0.2,0-0.3,0c-0.3,0.1-0.2,0.3-0.4,0.4c-0.1,0.3,0,0.7-0.3,0.9c0,0.1,0.2,0,0.2,0.1
		c0,0.1-0.1,0.1-0.1,0.2c0-0.1-0.1-0.1-0.2-0.1c0,0.1-0.1,0.2-0.1,0.2c-0.1,0-0.2-0.1-0.2,0.1c0.1,0,0.2,0,0.2,0c0,0.1-0.1,0-0.1,0
		c0,0.3-0.3,0.2-0.2,0.5c0.1,0.1,0.2,0,0.3-0.1c0.2,0.1,0.5-0.1,0.6,0.1c0.1,0,0.1-0.1,0.2-0.1c0.1,0.2,0.4-0.1,0.6,0
		c0,0.1-0.1,0.1-0.1,0.2c0.1,0,0.2-0.1,0.2,0c0,0.1-0.2,0.2-0.2,0.4c0.2,0,0.3-0.2,0.3-0.3c0.2,0,0.2-0.2,0.4-0.3
		c0,0.2,0.1,0.1,0.1,0.3c0,0.1-0.1,0.1-0.1,0.1c0,0.1,0,0.1,0,0.2c0.1,0,0.1-0.1,0.2-0.2c0.1,0,0.1,0,0.1,0.1c0,0.1-0.1,0.1-0.1,0.2
		c0.1,0,0.1,0,0.2,0c0.1-0.1,0.2-0.5,0.2-0.5C90.9,65.9,91,66,90.8,66z"/>
	<path fill-rule="evenodd" clip-rule="evenodd" fill="#FFFFFF" d="M87.4,66.6c-0.1,0.2-0.3,0.4-0.3,0.6c-0.2,0-0.1,0.4,0.1,0.4
		c0-0.2,0.1-0.4,0.2-0.5c0,0-0.1,0-0.1,0c0.1-0.3,0.3-0.3,0.5-0.5C87.7,66.6,87.5,66.7,87.4,66.6z"/>
	<path fill-rule="evenodd" clip-rule="evenodd" fill="#FFFFFF" d="M82.5,70.6c0.1-0.1,0.2-0.2,0.2-0.2c-0.3,0.1-0.6,0-0.8,0.3
		C82.1,70.7,82.2,70.5,82.5,70.6z"/>
</g>
<g>
	<path fill="#B8252E" d="M107,17.6c-6.6,1.2-8.1,3.1-9.3,4.9c-0.2,0.4-1.4,2-2.2,3.3l5.2-0.7l0.4-0.1c0.9-0.1,1.3-1,1.4-1.2
		c1.1-2.3,2.2-2.5,4.2-2.9c4.4-0.9,6.3-4.2,6.3-4.3C110.6,17,107,17.6,107,17.6z"/>
	<path fill="#B8252E" d="M104.1,26.4c-0.5,0.2-2.1,0.6-4.7,3.5c0,0,5.8-0.6,7.9-1.3c3.6-1.2,4.8-3.8,4.8-3.8
		C112,24.7,106.5,25.3,104.1,26.4z"/>
	<path fill="#B8252E" d="M98.3,27l-4.3,0.6c-0.4,0.5-1.2,1.4-1.3,1.6c-0.6,0.6-0.9,0.6-2.2,0.7c-0.3,0-0.5-0.2-0.2-0.6l1.4-2.1
		c0.1-0.3,0.3-0.5,0.4-0.6l4.8-7.1c-4.7,0.9-7.7,2.9-8.9,4.8l-5.2,8.1L95,30.7c0.4-0.1,0.7-0.2,1-0.4c3.4-1.6,4.3-3.6,4.3-3.6
		S99.5,26.8,98.3,27z"/>
</g>
<g>
	<g>
		<path fill="#FFFFFF" d="M47.2,90.2c-0.2,0-0.4-0.2-0.5-0.4c-0.4-1.6-0.8-3.3-1-4.9c0-0.3,0.1-0.5,0.4-0.6c0.3,0,0.5,0.1,0.6,0.4
			c0.2,1.6,0.6,3.3,1,4.9c0.1,0.3-0.1,0.5-0.4,0.6C47.3,90.2,47.2,90.2,47.2,90.2z M45.7,80.3c-0.3,0-0.5-0.2-0.5-0.5
			c-0.1-1-0.1-2-0.1-3.1c0-0.7,0-1.3,0-2c0-0.3,0.2-0.5,0.5-0.5c0.3,0,0.5,0.2,0.5,0.5c0,0.6,0,1.3,0,1.9c0,1,0,2,0.1,3
			C46.2,80.1,46,80.3,45.7,80.3C45.7,80.3,45.7,80.3,45.7,80.3z M46.1,70.4C46,70.4,46,70.4,46.1,70.4c-0.3,0-0.5-0.3-0.5-0.6
			c0.2-1.7,0.5-3.3,0.9-5c0.1-0.3,0.3-0.4,0.6-0.4c0.3,0.1,0.4,0.3,0.4,0.6c-0.4,1.6-0.7,3.2-0.9,4.9C46.5,70.2,46.3,70.4,46.1,70.4
			z M48.3,60.6c-0.1,0-0.1,0-0.2,0c-0.3-0.1-0.4-0.4-0.3-0.6c0.5-1.6,1.2-3.2,1.8-4.7c0.1-0.3,0.4-0.4,0.7-0.3
			c0.3,0.1,0.4,0.4,0.3,0.7c-0.7,1.5-1.3,3.1-1.8,4.6C48.7,60.5,48.5,60.6,48.3,60.6z M52.4,51.5c-0.1,0-0.2,0-0.2-0.1
			c-0.2-0.1-0.3-0.4-0.2-0.7c0.8-1.5,1.7-2.9,2.7-4.3c0.2-0.2,0.5-0.3,0.7-0.1c0.2,0.2,0.3,0.5,0.1,0.7c-0.9,1.3-1.8,2.8-2.7,4.2
			C52.7,51.4,52.6,51.5,52.4,51.5z M58.1,43.4c-0.1,0-0.2,0-0.3-0.1c-0.2-0.2-0.2-0.5-0.1-0.7c1.1-1.3,2.3-2.5,3.5-3.7
			c0.2-0.2,0.5-0.2,0.7,0c0.2,0.2,0.2,0.5,0,0.7c-1.2,1.1-2.3,2.4-3.4,3.6C58.4,43.3,58.3,43.4,58.1,43.4z M65.3,36.4
			c-0.1,0-0.3-0.1-0.4-0.2c-0.2-0.2-0.1-0.5,0.1-0.7c1.3-1,2.7-2,4.1-2.9c0.2-0.1,0.5-0.1,0.7,0.1s0.1,0.5-0.1,0.7
			c-1.4,0.9-2.7,1.9-4,2.9C65.6,36.4,65.4,36.4,65.3,36.4z M73.7,31c-0.2,0-0.4-0.1-0.4-0.3c-0.1-0.2,0-0.5,0.2-0.7
			c1.5-0.8,3-1.5,4.6-2.1c0.3-0.1,0.5,0,0.7,0.3c0.1,0.3,0,0.5-0.3,0.7c-1.5,0.6-3,1.3-4.5,2.1C73.9,31,73.8,31,73.7,31z"/>
	</g>
	<g>
		<path fill="#FFFFFF" d="M97.8,129.5c-1.7,0-3.3-0.1-5-0.2c-0.3,0-0.5-0.3-0.5-0.5c0-0.3,0.3-0.5,0.5-0.5c1.6,0.2,3.3,0.2,4.9,0.2
			c0.3,0,0.5,0.2,0.5,0.5C98.3,129.3,98,129.5,97.8,129.5z M102.8,129.3c-0.3,0-0.5-0.2-0.5-0.5c0-0.3,0.2-0.5,0.5-0.5
			c1.6-0.2,3.3-0.4,4.9-0.7c0.3,0,0.5,0.1,0.6,0.4c0.1,0.3-0.1,0.5-0.4,0.6C106.2,128.9,104.5,129.1,102.8,129.3
			C102.8,129.3,102.8,129.3,102.8,129.3z M87.9,128.5C87.8,128.5,87.8,128.5,87.9,128.5c-1.7-0.3-3.4-0.7-5-1.2
			c-0.3-0.1-0.4-0.4-0.3-0.6s0.4-0.4,0.6-0.3c1.6,0.5,3.2,0.9,4.8,1.2c0.3,0.1,0.4,0.3,0.4,0.6C88.3,128.4,88.1,128.5,87.9,128.5z
			 M112.6,127.4c-0.2,0-0.4-0.1-0.5-0.4c-0.1-0.3,0.1-0.5,0.3-0.6c1.6-0.5,3.2-1,4.7-1.6c0.3-0.1,0.5,0,0.7,0.3
			c0.1,0.3,0,0.5-0.3,0.7c-1.6,0.6-3.2,1.2-4.8,1.7C112.7,127.4,112.6,127.4,112.6,127.4z M78.3,125.7c-0.1,0-0.1,0-0.2,0
			c-1.6-0.6-3.1-1.3-4.6-2.1c-0.2-0.1-0.3-0.4-0.2-0.7c0.1-0.2,0.4-0.3,0.7-0.2c1.5,0.8,3,1.5,4.5,2.1c0.3,0.1,0.4,0.4,0.3,0.7
			C78.7,125.6,78.5,125.7,78.3,125.7z M121.8,123.6c-0.2,0-0.4-0.1-0.4-0.3c-0.1-0.2,0-0.5,0.2-0.7c1.5-0.8,2.9-1.6,4.3-2.5
			c0.2-0.1,0.5-0.1,0.7,0.1c0.2,0.2,0.1,0.5-0.1,0.7c-1.4,0.9-2.9,1.8-4.4,2.5C122,123.6,121.9,123.6,121.8,123.6z M69.4,121.1
			c-0.1,0-0.2,0-0.3-0.1c-1.4-0.9-2.8-1.9-4.1-2.9c-0.2-0.2-0.3-0.5-0.1-0.7c0.2-0.2,0.5-0.3,0.7-0.1c1.3,1,2.6,2,4,2.9
			c0.2,0.2,0.3,0.5,0.1,0.7C69.7,121,69.6,121.1,69.4,121.1z M130.2,118.2c-0.1,0-0.3-0.1-0.4-0.2c-0.2-0.2-0.1-0.5,0.1-0.7
			c1.3-1,2.5-2.1,3.7-3.3c0.2-0.2,0.5-0.2,0.7,0c0.2,0.2,0.2,0.5,0,0.7c-1.2,1.2-2.5,2.3-3.8,3.3
			C130.4,118.2,130.3,118.2,130.2,118.2z M61.6,114.9c-0.1,0-0.2,0-0.3-0.1c-0.2-0.2-0.3-0.3-0.5-0.5c-0.2-0.2-0.2-0.5,0-0.7
			s0.5-0.2,0.7,0c0.2,0.2,0.3,0.3,0.5,0.5c0.2,0.2,0.2,0.5,0,0.7C61.9,114.9,61.7,114.9,61.6,114.9z"/>
	</g>
	<g>
		<path fill="#FFFFFF" d="M148.9,87.8c0,0-0.1,0-0.1,0c-0.3-0.1-0.4-0.3-0.4-0.6c0.3-1.6,0.6-3.2,0.8-4.8c0-0.3,0.3-0.5,0.6-0.4
			c0.3,0,0.5,0.3,0.4,0.6c-0.2,1.6-0.4,3.3-0.8,4.9C149.4,87.7,149.2,87.8,148.9,87.8z M150,77.9C150,77.9,150,77.9,150,77.9
			c-0.3,0-0.5-0.2-0.5-0.5l0-0.6c0-1.4-0.1-2.9-0.2-4.3c0-0.3,0.2-0.5,0.5-0.5c0.2,0,0.5,0.2,0.5,0.5c0.1,1.5,0.2,2.9,0.2,4.4l0,0.7
			C150.5,77.7,150.3,77.9,150,77.9z M149.2,68c-0.2,0-0.4-0.2-0.5-0.4c-0.3-1.6-0.7-3.2-1.1-4.8c-0.1-0.3,0.1-0.5,0.3-0.6
			c0.3-0.1,0.5,0.1,0.6,0.3c0.5,1.6,0.8,3.3,1.1,4.9C149.7,67.7,149.5,67.9,149.2,68C149.2,68,149.2,68,149.2,68z M146.5,58.4
			c-0.2,0-0.4-0.1-0.5-0.3c-0.6-1.5-1.3-3.1-2-4.5c-0.1-0.2,0-0.5,0.2-0.7c0.2-0.1,0.5,0,0.7,0.2c0.8,1.5,1.4,3,2.1,4.6
			c0.1,0.3,0,0.5-0.3,0.6C146.6,58.4,146.5,58.4,146.5,58.4z M142,49.5c-0.2,0-0.3-0.1-0.4-0.2c-0.9-1.4-1.8-2.8-2.8-4.1
			c-0.2-0.2-0.1-0.5,0.1-0.7c0.2-0.2,0.5-0.1,0.7,0.1c1,1.3,2,2.7,2.9,4.1c0.1,0.2,0.1,0.5-0.2,0.7C142.1,49.5,142.1,49.5,142,49.5z
			 M135.9,41.6c-0.1,0-0.3-0.1-0.4-0.2c-1.1-1.2-2.3-2.4-3.6-3.4c-0.2-0.2-0.2-0.5,0-0.7c0.2-0.2,0.5-0.2,0.7,0
			c1.3,1.1,2.5,2.3,3.6,3.5c0.2,0.2,0.2,0.5,0,0.7C136.1,41.5,136,41.6,135.9,41.6z M128.4,35c-0.1,0-0.2,0-0.3-0.1
			c-1.3-1-2.7-1.9-4.1-2.7c-0.2-0.1-0.3-0.4-0.2-0.7c0.1-0.2,0.5-0.3,0.7-0.2c1.4,0.8,2.9,1.8,4.2,2.8c0.2,0.2,0.3,0.5,0.1,0.7
			C128.7,34.9,128.5,35,128.4,35z M119.7,29.9c-0.1,0-0.1,0-0.2,0c-1.5-0.7-3-1.3-4.6-1.9c-0.3-0.1-0.4-0.4-0.3-0.6
			c0.1-0.3,0.4-0.4,0.6-0.3c1.6,0.6,3.2,1.2,4.7,1.9c0.2,0.1,0.4,0.4,0.2,0.7C120.1,29.8,119.9,29.9,119.7,29.9z"/>
	</g>
</g>
<g>
	<path fill="#FFFFFF" d="M61.7,107.7L61.7,107.7l0-13.2c0-0.5-0.4-1-1-1H42.9c-0.5,0-1,0.4-1,1v13.2l-3.4,2.4h0v0.2c0,0.5,0.5,1,1,1
		h24.8c0.5,0,1-0.4,1-1v-0.2h0L61.7,107.7z M43.9,95.3h15.9v12H43.9V95.3z M42,109.1l1.9-1.2h15.9l1.9,1.2H42z"/>
	<path fill="#FFFFFF" d="M52.6,102.1h-1.5V101c0-0.4,0.3-0.7,0.7-0.7c0.4,0,0.7,0.3,0.7,0.7V102.1z M54.3,106.5v-3h0.5l-1.8-1.1
		v-2.3h0.4L52,98.3v-1.1h0.5v-0.3H52v-0.6h-0.3v0.6h-0.5v0.3h0.5v1.1l-1.4,1.8h0.4v2.3l-1.8,1.1h0.5v3H54.3z"/>
</g>
<g>
	<path fill="#FFFFFF" d="M148,99.2c0.8,0,1.5-0.4,2.1-1.2c0.6-0.8,0.9-1.7,0.9-2.7c0-1-0.3-1.8-0.9-2.6c-0.6-0.7-1.3-1.1-2.1-1.1
		c-0.8,0-1.6,0.4-2.1,1.1c-0.6,0.7-0.9,1.6-0.9,2.6c0,1,0.3,1.9,0.9,2.7C146.4,98.8,147.1,99.2,148,99.2z"/>
	<g>
		<path fill="#FFFFFF" d="M156.8,97c0.7,0,1.3-0.3,1.8-1c0.5-0.7,0.8-1.5,0.8-2.3c0-0.8-0.3-1.6-0.8-2.2c-0.5-0.6-1.1-0.9-1.8-0.9
			c-0.7,0-1.3,0.3-1.8,0.9c-0.5,0.6-0.7,1.3-0.7,2.2c0,0.9,0.3,1.6,0.8,2.3C155.5,96.7,156.1,97,156.8,97z"/>
		<path fill="#FFFFFF" d="M159.8,97.3h-6c-1.5,0-2.4,0.5-2.9,1.4h0.6c3,0,4.7,1.5,4.7,4.3v4.4h3.8v-5.7h0.6v5.7h2.4v-7.2
			C163,98.3,161.9,97.3,159.8,97.3z"/>
	</g>
	<g>
		<path fill="#FFFFFF" d="M139.2,97c0.7,0,1.3-0.3,1.8-1c0.5-0.7,0.8-1.5,0.8-2.3c0-0.8-0.3-1.6-0.8-2.2c-0.5-0.6-1.1-0.9-1.8-0.9
			c-0.7,0-1.3,0.3-1.8,0.9c-0.5,0.6-0.7,1.3-0.7,2.2c0,0.9,0.3,1.6,0.8,2.3C137.9,96.7,138.5,97,139.2,97z"/>
		<path fill="#FFFFFF" d="M139.8,107.4V103c0-2.8,1.7-4.3,4.7-4.3h0.6c-0.5-0.9-1.4-1.4-2.9-1.4h-6c-2.1,0-3.2,1-3.2,2.9v7.2h2.4
			v-5.7h0.6v5.7H139.8z"/>
	</g>
	<path fill="#FFFFFF" d="M143.5,111.5v-6.7h0.7v6.7h7.7v-6.7h0.7v6.7h2.8V103c0-2.3-1.3-3.4-3.8-3.4h-7.1c-2.5,0-3.8,1.1-3.8,3.4
		v8.5H143.5z"/>
</g>
</svg>
