<?xml version="1.0" encoding="utf-8"?>
<!-- Generator: Adobe Illustrator 17.0.0, SVG Export Plug-In . SVG Version: 6.00 Build 0)  -->
<!DOCTYPE svg PUBLIC "-//W3C//DTD SVG 1.1//EN" "http://www.w3.org/Graphics/SVG/1.1/DTD/svg11.dtd">
<svg version="1.1" id="icon" xmlns="http://www.w3.org/2000/svg" xmlns:xlink="http://www.w3.org/1999/xlink" x="0px" y="0px"
	 width="200px" height="150px" viewBox="0 0 200 150" enable-background="new 0 0 200 150" xml:space="preserve">
<linearGradient id="SVGID_1_" gradientUnits="userSpaceOnUse" x1="492" y1="461" x2="492" y2="611" gradientTransform="matrix(1 0 0 1 -392 -461)">
	<stop  offset="0" style="stop-color:#517FA4"/>
	<stop  offset="1" style="stop-color:#467391"/>
</linearGradient>
<rect fill="url(#SVGID_1_)" width="200" height="150"/>
<path fill="#FFFFFF" d="M129.958,36.814H72.99c-5.308,0-9.609,4.303-9.609,9.609v57.656c0,5.308,4.301,9.609,9.609,9.609h56.968
	c5.308,0,9.609-4.301,9.609-9.609V46.423C139.567,41.118,135.266,36.814,129.958,36.814z M117.149,75.254
	c0,8.643-7.032,15.676-15.673,15.676c-8.643,0-15.676-7.032-15.676-15.676c0-2.6,0.646-5.044,1.769-7.206
	c2.616-5.023,7.86-8.469,13.906-8.469c6.044,0,11.291,3.444,13.904,8.469C116.503,70.207,117.149,72.654,117.149,75.254z
	 M130.987,101.171c0,2.175-1.764,3.939-3.939,3.939H76.239c-2.175,0-3.939-1.764-3.939-3.939V68.045h6.5
	c-0.725,2.276-1.123,4.693-1.123,7.206c0,13.121,10.674,23.794,23.794,23.794c13.121,0,23.794-10.674,23.794-23.794
	c0-2.513-0.398-4.931-1.123-7.206h6.842v33.126H130.987z M130.987,55.641c0,2.175-1.764,3.939-3.939,3.939h-5.967
	c-2.175,0-3.939-1.764-3.939-3.939v-6.51c0-1.727,1.118-3.177,2.666-3.71h7.238c2.175,0,3.939,1.764,3.939,3.939v6.281H130.987z"/>
</svg>
