<?xml version="1.0" encoding="utf-8"?>
<!-- Generator: Adobe Illustrator 17.0.0, SVG Export Plug-In . SVG Version: 6.00 Build 0)  -->
<!DOCTYPE svg PUBLIC "-//W3C//DTD SVG 1.1//EN" "http://www.w3.org/Graphics/SVG/1.1/DTD/svg11.dtd">
<svg version="1.1" id="icon" xmlns="http://www.w3.org/2000/svg" xmlns:xlink="http://www.w3.org/1999/xlink" x="0px" y="0px"
	 width="200px" height="150px" viewBox="0 0 200 150" enable-background="new 0 0 200 150" xml:space="preserve">
<linearGradient id="SVGID_1_" gradientUnits="userSpaceOnUse" x1="100" y1="150" x2="100" y2="-4.489266e-09">
	<stop  offset="0" style="stop-color:#6C3A97"/>
	<stop  offset="0.4194" style="stop-color:#5F3A97"/>
	<stop  offset="1" style="stop-color:#463A97"/>
</linearGradient>
<rect fill="url(#SVGID_1_)" width="200" height="150"/>
<g>
	<g>
		<path fill="#FFFFFF" d="M147.999,95.505c-0.5-0.095-0.997-0.208-1.5-0.283c-2.736-0.413-5.206-1.425-7.161-3.419
			c-1.587-1.618-2.569-3.606-2.93-5.848c-0.188-1.17-0.268-2.369-0.273-3.555c-0.027-5.882-0.012-11.763-0.012-17.645
			c0-0.239,0-0.479,0-0.627c-4.583,4.583-9.185,9.185-13.81,13.81c5.5,5.499,11.122,11.121,16.812,16.81
			c-0.213,0.03-0.347,0.066-0.482,0.066c-4.367,0.003-8.733,0.01-13.1-0.014c-0.284-0.002-0.631-0.179-0.841-0.385
			c-4.159-4.087-8.301-8.191-12.448-12.291c-0.123-0.121-0.253-0.235-0.463-0.429c0,4.401,0,8.706,0,13.066
			c-3.748,0-7.434,0-11.173,0c0-10.877,0-21.78,0-32.736c3.662,0,7.347,0,11.116,0c0,4.171,0,8.363,0,12.714
			c0.309-0.287,0.5-0.455,0.68-0.635c3.861-3.859,7.717-7.722,11.588-11.569c0.211-0.209,0.55-0.41,0.83-0.411
			c7.352-0.022,14.704-0.017,22.056-0.016c0.109,0,0.218,0.013,0.421,0.026c0,0.269,0,0.527,0,0.784
			c0,5.993-0.029,11.986,0.021,17.979c0.012,1.389,0.116,2.819,0.797,4.092c0.589,1.102,1.5,1.659,2.799,1.732
			c2.666,0.15,4.478-1.138,5.836-3.258c0.163-0.255,0.202-0.626,0.203-0.944c0.011-6.505,0.008-13.011,0.008-19.516
			c0-0.265,0-0.531,0-0.846c3.72,0,7.405,0,11.139,0c0,10.846,0,21.705,0,32.566c-1.516,0.36-2.792,0.02-3.926-1.136
			c-1.063-1.083-2.272-2.022-3.438-3.042c-1.296,1.388-2.802,2.491-4.487,3.33c-1.575,0.785-3.227,1.351-5.002,1.489
			c-0.066,0.005-0.126,0.092-0.189,0.141C150.049,95.505,149.024,95.505,147.999,95.505z"/>
		<path fill="#FFFFFF" d="M31.569,52.997c5.612,0.007,11.224-0.022,16.835,0.037c2.382,0.025,4.677,0.578,6.872,1.547
			c2.056,0.907,3.916,2.102,5.436,3.749c1.881,2.039,3.136,4.396,3.468,7.217c0.43,3.659-0.647,6.829-3.076,9.512
			c-1.166,1.287-2.56,2.368-3.884,3.574c3.779,5.253,7.673,10.665,11.643,16.184c-0.467,0-0.792,0-1.116,0
			c-3.675,0-7.349-0.006-11.024,0.007c-0.456,0.002-0.735-0.108-1.025-0.518c-2.362-3.342-4.764-6.657-7.16-9.976
			c-0.757-1.048-1.524-2.089-2.302-3.121c-0.101-0.134-0.292-0.277-0.445-0.281c-0.975-0.025-1.951-0.013-2.982-0.013
			c0,4.632,0,9.21,0,13.921c-3.783,0-7.512,0-11.24,0C31.569,80.89,31.569,66.943,31.569,52.997z M42.823,60.042
			c0,4.671,0,9.224,0,13.827c1.155,0,2.265-0.013,3.374,0.003c1.835,0.026,3.424-0.655,4.69-1.906
			c1.573-1.554,2.405-3.447,2.1-5.746c-0.385-2.893-1.966-4.793-4.665-5.802C46.539,59.752,44.688,60.193,42.823,60.042z"/>
		<path fill="#FFFFFF" d="M79.825,95.505c-0.5-0.095-0.998-0.203-1.5-0.284c-2.618-0.422-5.002-1.419-7.138-2.979
			c-2.449-1.788-4.307-4.069-5.538-6.849c-0.685-1.549-1.112-3.161-1.324-4.848c-0.356-2.832-0.022-5.575,0.96-8.236
			c0.72-1.952,1.835-3.667,3.211-5.239c1.488-1.7,3.251-3.02,5.262-3.986c2.213-1.063,4.555-1.619,7.044-1.67
			c2.969-0.06,5.779,0.481,8.397,1.859c4.834,2.545,7.845,6.498,8.915,11.875c0.205,1.029,0.402,2.087,0.382,3.128
			c-0.07,3.721-1.038,7.168-3.304,10.2c-1.778,2.379-3.984,4.215-6.676,5.454c-1.7,0.783-3.482,1.29-5.36,1.425
			c-0.133,0.01-0.26,0.097-0.39,0.148C81.786,95.505,80.806,95.505,79.825,95.505z M75.917,78.475
			c0.022,2.555,0.551,4.97,2.163,7.017c1.43,1.816,3.449,2.554,5.411,1.014c0.82-0.644,1.529-1.56,1.996-2.498
			c1.026-2.063,1.4-4.279,1.199-6.616c-0.201-2.333-0.831-4.478-2.336-6.282c-0.753-0.902-1.744-1.556-2.998-1.553
			c-1.922,0.006-3.029,1.282-3.902,2.739C76.322,74.181,75.888,76.279,75.917,78.475z"/>
	</g>
</g>
</svg>
