<?xml version="1.0" encoding="utf-8"?>
<!-- Generator: Adobe Illustrator 17.0.0, SVG Export Plug-In . SVG Version: 6.00 Build 0)  -->
<!DOCTYPE svg PUBLIC "-//W3C//DTD SVG 1.1//EN" "http://www.w3.org/Graphics/SVG/1.1/DTD/svg11.dtd">
<svg version="1.1" id="icon" xmlns="http://www.w3.org/2000/svg" xmlns:xlink="http://www.w3.org/1999/xlink" x="0px" y="0px"
	 width="200px" height="150px" viewBox="0 0 200 150" enable-background="new 0 0 200 150" xml:space="preserve">
<g>
	<path fill="#323031" d="M44.489,73.091c-1.134,0-2.2-0.204-3.198-0.612c-0.998-0.408-1.864-0.979-2.597-1.713
		c-0.734-0.733-1.315-1.602-1.746-2.608c-0.431-1.005-0.646-2.098-0.646-3.277v-0.045c0-1.149,0.211-2.226,0.635-3.232
		c0.423-1.005,1.005-1.883,1.746-2.631c0.741-0.749,1.622-1.334,2.643-1.758c1.021-0.423,2.135-0.635,3.345-0.635
		c0.816,0,1.557,0.08,2.223,0.238c0.665,0.159,1.274,0.385,1.826,0.681c0.552,0.295,1.051,0.646,1.497,1.054
		c0.446,0.408,0.843,0.854,1.191,1.338l-3.312,2.563c-0.453-0.574-0.953-1.028-1.497-1.361c-0.544-0.332-1.202-0.499-1.973-0.499
		c-0.56,0-1.07,0.11-1.531,0.329c-0.461,0.219-0.858,0.518-1.19,0.896c-0.333,0.378-0.594,0.824-0.783,1.338
		c-0.189,0.514-0.283,1.059-0.283,1.633v0.045c0,0.589,0.094,1.145,0.283,1.667c0.189,0.522,0.45,0.972,0.783,1.35
		c0.332,0.378,0.729,0.677,1.19,0.896c0.461,0.22,0.972,0.329,1.531,0.329c0.408,0,0.782-0.045,1.122-0.136
		c0.34-0.091,0.65-0.223,0.93-0.397c0.28-0.174,0.544-0.378,0.794-0.613c0.249-0.234,0.495-0.495,0.737-0.782l3.312,2.359
		c-0.378,0.514-0.791,0.99-1.236,1.429c-0.446,0.439-0.953,0.817-1.52,1.134c-0.567,0.318-1.202,0.567-1.905,0.749
		C46.156,73,45.366,73.091,44.489,73.091z"/>
	<path fill="#323031" d="M53.403,56.897h4.4v5.942h5.648v-5.942h4.4v15.876h-4.4V66.74h-5.648v6.033h-4.4V56.897z"/>
	<path fill="#323031" d="M76.151,56.783h4.242l6.759,15.99h-4.718l-1.157-2.835h-6.124l-1.134,2.835h-4.627L76.151,56.783z
		 M80.007,66.536l-1.769-4.514l-1.792,4.514H80.007z"/>
	<path fill="#323031" d="M88.195,69.575l7.961-8.959h-7.689v-3.719h13.767v3.198l-7.961,8.959h7.961v3.72H88.195V69.575z"/>
	<path fill="#323031" d="M112.509,73.091c-1.225,0-2.359-0.215-3.402-0.646c-1.044-0.431-1.943-1.017-2.699-1.758
		c-0.756-0.741-1.35-1.61-1.781-2.608c-0.43-0.998-0.646-2.064-0.646-3.198v-0.045c0-1.134,0.216-2.204,0.646-3.209
		c0.431-1.005,1.032-1.883,1.803-2.631c0.772-0.749,1.678-1.338,2.722-1.769c1.043-0.431,2.177-0.646,3.402-0.646
		c1.224,0,2.359,0.216,3.402,0.646c1.044,0.431,1.943,1.017,2.699,1.758c0.756,0.741,1.35,1.61,1.781,2.608
		c0.431,0.998,0.646,2.064,0.646,3.198v0.045c0,1.134-0.215,2.204-0.646,3.209c-0.431,1.006-1.032,1.883-1.803,2.631
		c-0.772,0.749-1.678,1.338-2.722,1.769C114.867,72.875,113.733,73.091,112.509,73.091z M112.542,69.121
		c0.606,0,1.16-0.113,1.66-0.34c0.5-0.227,0.925-0.533,1.274-0.919c0.349-0.385,0.621-0.835,0.819-1.349
		c0.197-0.514,0.296-1.059,0.296-1.633v-0.045c0-0.575-0.099-1.119-0.296-1.633c-0.198-0.514-0.478-0.967-0.842-1.361
		c-0.363-0.393-0.796-0.707-1.296-0.941c-0.5-0.234-1.054-0.352-1.66-0.352c-0.607,0-1.157,0.113-1.649,0.34
		c-0.493,0.227-0.917,0.533-1.274,0.918c-0.357,0.386-0.629,0.836-0.819,1.35c-0.19,0.514-0.284,1.059-0.284,1.633v0.045
		c0,0.575,0.098,1.119,0.295,1.633c0.197,0.514,0.474,0.968,0.83,1.361c0.356,0.393,0.784,0.707,1.285,0.941
		C111.382,69.005,111.935,69.121,112.542,69.121z"/>
	<path fill="#323031" d="M122.306,56.897h4.65l2.767,9.186l3.062-9.231h3.787l3.062,9.231l2.767-9.186h4.559l-5.307,15.99h-3.833
		l-3.198-9.14l-3.175,9.14h-3.833L122.306,56.897z"/>
	<path fill="#323031" d="M148.707,56.897h4.114l6.546,8.392v-8.392h4.332v15.876h-3.864l-6.796-8.709v8.709h-4.332V56.897z"/>
	<path fill="#323031" d="M38.367,79.619h9.654v0.911h-8.646V85.9h7.773v0.911h-7.773v5.467h8.743v0.911h-9.751V79.619z"/>
	<path fill="#323031" d="M55.736,86.268l-5.215-6.649h1.202l4.633,5.97l4.613-5.97h1.182l-5.195,6.629l5.389,6.94h-1.202
		l-4.827-6.261l-4.807,6.261h-1.183L55.736,86.268z"/>
	<path fill="#323031" d="M65.351,79.619h4.924c0.749,0,1.431,0.094,2.045,0.281c0.614,0.187,1.144,0.459,1.589,0.814
		c0.446,0.356,0.792,0.788,1.037,1.299c0.245,0.511,0.368,1.095,0.368,1.754v0.039c0,0.711-0.142,1.337-0.426,1.88
		s-0.669,0.995-1.153,1.357c-0.485,0.362-1.047,0.633-1.687,0.814c-0.64,0.181-1.315,0.271-2.026,0.271h-3.664v5.059h-1.008V79.619z
		 M70.081,87.218c0.633,0,1.208-0.081,1.725-0.244c0.517-0.162,0.959-0.39,1.328-0.683c0.368-0.292,0.656-0.644,0.863-1.053
		c0.206-0.409,0.31-0.867,0.31-1.374v-0.039c0-0.546-0.1-1.023-0.3-1.433c-0.201-0.409-0.482-0.751-0.843-1.024
		c-0.362-0.273-0.795-0.481-1.299-0.624c-0.504-0.143-1.06-0.215-1.667-0.215h-3.838v6.688H70.081z"/>
	<path fill="#323031" d="M78.299,79.619h9.654v0.911h-8.646V85.9h7.773v0.911h-7.773v5.467h8.743v0.911h-9.751V79.619z"/>
	<path fill="#323031" d="M91.287,79.619h5.699c0.84,0,1.583,0.119,2.229,0.358c0.646,0.239,1.176,0.565,1.59,0.979
		c0.323,0.323,0.575,0.701,0.756,1.134c0.181,0.433,0.271,0.895,0.271,1.386v0.039c0,0.569-0.101,1.076-0.3,1.521
		c-0.201,0.446-0.479,0.831-0.833,1.154c-0.356,0.323-0.776,0.585-1.26,0.785s-1.011,0.339-1.58,0.417l4.477,5.796h-1.279
		l-4.323-5.622h-0.039h-4.401v5.622h-1.008V79.619z M96.87,86.656c0.569,0,1.095-0.071,1.58-0.214
		c0.485-0.142,0.901-0.347,1.25-0.613c0.349-0.266,0.623-0.59,0.824-0.973s0.3-0.82,0.3-1.313v-0.039
		c0-0.92-0.339-1.646-1.018-2.178c-0.678-0.532-1.638-0.798-2.879-0.798h-4.633v6.125H96.87z"/>
	<path fill="#323031" d="M105.438,79.619h1.008v13.569h-1.008V79.619z"/>
	<path fill="#323031" d="M110.614,79.619h9.654v0.911h-8.646V85.9h7.774v0.911h-7.774v5.467h8.743v0.911h-9.751V79.619z"/>
	<path fill="#323031" d="M123.601,79.619h0.952l9.38,11.805V79.619h0.95v13.569h-0.758l-9.575-12.057v12.057h-0.95V79.619z"/>
	<path fill="#323031" d="M145.06,93.421c-0.969,0-1.864-0.181-2.684-0.543c-0.821-0.361-1.532-0.856-2.133-1.483
		c-0.601-0.627-1.073-1.366-1.415-2.22c-0.342-0.853-0.514-1.764-0.514-2.733v-0.039c0-0.956,0.171-1.861,0.514-2.714
		c0.342-0.853,0.814-1.599,1.415-2.239c0.601-0.64,1.315-1.144,2.142-1.512c0.827-0.369,1.731-0.553,2.714-0.553
		c0.607,0,1.156,0.052,1.647,0.155c0.491,0.104,0.947,0.252,1.367,0.446c0.42,0.194,0.814,0.423,1.182,0.688
		c0.368,0.265,0.727,0.559,1.075,0.882l-0.717,0.737c-0.298-0.284-0.608-0.549-0.931-0.795c-0.324-0.245-0.669-0.455-1.038-0.63
		c-0.368-0.174-0.769-0.313-1.201-0.417c-0.433-0.103-0.902-0.155-1.406-0.155c-0.814,0-1.57,0.155-2.268,0.465
		c-0.698,0.31-1.302,0.74-1.812,1.289c-0.511,0.549-0.911,1.192-1.202,1.929c-0.29,0.737-0.436,1.532-0.436,2.384v0.039
		c0,0.853,0.148,1.651,0.446,2.394c0.297,0.743,0.7,1.389,1.211,1.939c0.51,0.549,1.115,0.982,1.812,1.299s1.454,0.475,2.268,0.475
		c0.982,0,1.835-0.184,2.558-0.553c0.724-0.368,1.428-0.888,2.113-1.56l0.679,0.659c-0.362,0.349-0.734,0.669-1.115,0.959
		c-0.381,0.291-0.788,0.54-1.221,0.747c-0.433,0.207-0.899,0.368-1.396,0.485C146.22,93.363,145.668,93.421,145.06,93.421z"/>
	<path fill="#323031" d="M153.221,79.619h9.654v0.911h-8.645V85.9h7.773v0.911h-7.773v5.467h8.742v0.911h-9.751V79.619z"/>
</g>
</svg>
