<?xml version="1.0" encoding="utf-8"?>
<!-- Generator: Adobe Illustrator 17.0.0, SVG Export Plug-In . SVG Version: 6.00 Build 0)  -->
<!DOCTYPE svg PUBLIC "-//W3C//DTD SVG 1.1//EN" "http://www.w3.org/Graphics/SVG/1.1/DTD/svg11.dtd">
<svg version="1.1" id="icon" xmlns="http://www.w3.org/2000/svg" xmlns:xlink="http://www.w3.org/1999/xlink" x="0px" y="0px"
	 width="200px" height="150px" viewBox="0 0 200 150" enable-background="new 0 0 200 150" xml:space="preserve">
<g>
	<defs>
		<path id="SVGID_1_" d="M149.772,105.606c0,10.493-8.507,19-19,19H69.394c-10.493,0-19-8.507-19-19V44.212c0-10.493,8.507-19,19-19
			h61.378c10.493,0,19,8.507,19,19V105.606z"/>
	</defs>
	<clipPath id="SVGID_2_">
		<use xlink:href="#SVGID_1_"  overflow="visible"/>
	</clipPath>
	<g clip-path="url(#SVGID_2_)">
		<g>
			<path fill="#FEC919" d="M145.014,124.574c-4.14,0-8.28,0-12.419,0c-0.387-0.19-0.653-0.488-0.893-0.849
				c-2.697-4.06-5.329-8.162-8.054-12.203c-1.59-2.484-3.205-4.95-4.863-7.39c-0.866-1.151-1.516-2.441-2.327-3.628
				c-0.184-0.269-0.434-0.603-0.049-0.935c2.24-0.443,4.541-0.503,6.761-1.081c0.813-0.212,1.629-0.403,2.385-0.782
				c1.019-0.394,1.425-1.186,1.571-2.228c0.1-0.718-0.014-1.507,0.507-2.131c0.691-0.308,1.073,0.287,1.574,0.537
				c2.281,1.488,4.578,2.953,6.83,4.487c4.216,2.768,8.448,5.513,12.652,8.298c0.477,0.316,1.041,0.575,1.078,1.273
				c0,3.736-0.011,7.471,0.004,11.205c0.009,2.069-0.836,3.644-2.561,4.788C146.53,124.387,145.731,124.314,145.014,124.574z"/>
			<path fill="#FEC619" d="M68.169,124.574c-4.399,0-8.797,0-13.196,0c-0.718-0.26-1.516-0.187-2.198-0.64
				c-1.726-1.145-2.569-2.721-2.56-4.791c0.016-3.736,0.005-7.472,0.004-11.205c0.065-0.609,0.591-0.81,1.006-1.086
				c4.297-2.851,8.623-5.658,12.924-8.504c1.838-1.182,3.624-2.445,5.48-3.6c0.298-0.185,0.558-0.44,0.924-0.504
				c1.702,0.116,3.384,0.467,5.102,0.356c0.642-0.042,1.286,0.021,1.926-0.137c0.51-0.126,0.964,0.014,1.237,0.519
				c0.171,0.518,0.186,1.067,0.304,1.598c0.135,0.608,0.445,0.862,1.066,0.844c1.282-0.037,2.568,0.085,3.845-0.115
				c0.351-0.055,0.705-0.064,1.04,0.094c0.285,0.149,0.338,0.424,0.2,0.651c-0.839,1.375-1.503,2.879-2.808,3.922
				c-0.27,0.029-0.526-0.045-0.737-0.192c-1.024-0.716-1.949-0.494-2.952,0.13c-2.856,1.778-5.736,3.507-8.097,5.961
				c-0.647,0.672-0.943,1.408-1.015,2.325c-0.292,3.702-0.586,7.403-0.92,11.102c-0.047,0.516-0.017,1.035-0.058,1.55
				C68.639,123.459,68.636,124.088,68.169,124.574z"/>
			<path fill="#4F65A8" d="M68.169,124.574c0.404-4.961,0.817-9.921,1.201-14.883c0.055-0.715,0.286-1.294,0.78-1.809
				c2.813-2.931,6.257-4.976,9.735-6.977c0.304-0.175,0.561-0.091,0.823,0.031c0.613,0.286,1.218,0.59,1.826,0.887
				c0.241-0.058,0.47-0.03,0.686,0.092c3.261,1.849,5.42,4.809,7.646,7.679c3.576,4.611,7.055,9.296,10.679,13.87
				c0.251,0.317,0.6,0.621,0.388,1.11c-1.552,0-3.105,0-4.657,0c-0.429-0.117-0.7-0.377-0.886-0.796
				c-0.407-0.919-1.066-1.67-1.657-2.477c-1.549-2.116-3.544-3.812-5.242-5.787c-1.483-1.724-3.278-3.19-4.936-4.769
				c-0.956-0.911-1.949-1.778-2.472-2.208c0.785,0.61,1.989,1.716,3.16,2.853c1.273,1.236,2.655,2.375,3.83,3.689
				c1.24,1.386,2.652,2.625,3.712,4.17c0.074,0.107,0.144,0.223,0.25,0.293c1.587,1.043,2.133,2.907,3.342,4.25
				c0.159,0.176,0.386,0.476,0.122,0.781c-2.07,0-4.14,0-6.21,0c-0.409-0.207-0.736-0.474-0.978-0.892
				c-1.583-2.735-3.26-5.417-5.119-7.971c-2.536-3.484-5.412-6.647-9.069-8.837c2.137,1.198,5.663,4.465,7.145,6.395
				c2.14,2.787,4.092,5.697,5.96,8.667c0.52,0.827,1.12,1.631,1.285,2.638c-2.911,0-5.822,0-8.732,0
				c-0.246-0.155-0.478-0.317-0.621-0.587c-1.43-2.705-3.102-5.26-4.843-7.77c-0.836-1.383-1.907-2.589-2.91-3.846
				c-0.099-0.124-0.214-0.245-0.402-0.196c-0.346,0.317-0.346,0.77-0.412,1.164c-0.566,3.368-1.332,6.7-1.847,10.078
				c-0.063,0.411-0.078,0.843-0.414,1.158C68.945,124.574,68.557,124.574,68.169,124.574z"/>
			<path fill="#E0DCD9" d="M101.934,124.574c-1.062-1.656-2.383-3.115-3.573-4.674c-3.116-4.08-6.246-8.15-9.391-12.208
				c-1.668-2.152-3.477-4.167-5.878-5.548c0.109-0.313,0.373-0.299,0.629-0.301c0.713,0.137,1.163,0.684,1.665,1.124
				c3.939,3.448,7.944,6.821,11.832,10.327c1.049,0.993,2.401,1.676,3.117,3.013c0.313,0.192,0.682,0.283,0.961,0.534
				c0.536,0.596,1.39,0.876,1.693,1.704c-0.071,0.454-0.456,0.646-0.757,0.908c-0.103,0.066-0.211,0.125-0.31,0.199
				c0.115-0.088,0.246-0.152,0.366-0.233c0.308-0.188,0.482-0.553,0.859-0.649c0.841,0.031,1.184,0.803,1.778,1.202
				c0.451,0.303,0.816,0.713,1.327,1.16c0.068-0.575-0.039-1.05-0.09-1.53c-0.06-0.563-0.212-1.145,0.197-1.656
				c0.337-0.085,0.627,0.158,0.954,0.137c0.531,0.172,1.119,0.155,1.406,0.324c-0.208-0.084-0.663-0.164-1.118-0.251
				c-0.523-0.165-1.123-0.113-1.544-0.56c-0.234-0.394-0.149-0.817-0.113-1.236c0.22-0.647,0.831-0.929,1.278-1.364
				c0.161-0.039,0.273-0.15,0.384-0.265c0.045-0.047,0.089-0.09,0.132-0.131c-0.07,0.063-0.135,0.13-0.202,0.195
				c-0.069,0.066-0.144,0.124-0.229,0.169c-0.519,0.089-0.627,0.986-1.345,0.683c-0.657-1.427-0.666-2.971-0.811-4.489
				c-0.03-0.317-0.008-0.639-0.079-0.954c-0.247-2.85-0.602-5.688-0.896-8.533c-0.066-0.634-0.242-1.27-0.012-1.908
				c0.104-0.158,0.258-0.237,0.436-0.279c0.404-0.055,0.808-0.058,1.212,0.003c0.7,0.255,1.428,0.117,2.143,0.152
				c0.652,0.021,1.305-0.043,1.955,0.043c0.499,0.157,0.773,0.562,1.025,0.972c0.861,1.396,1.701,2.804,2.475,4.251
				c1.362,2.623,2.594,5.306,3.709,8.044c1.38,3.345,2.564,6.757,3.507,10.251c0.124,0.46,0.339,0.933-0.061,1.373
				C114.354,124.574,108.144,124.574,101.934,124.574z"/>
			<path fill="#FED74E" d="M120.563,124.574c-0.125-1.355-0.631-2.614-1.035-3.892c-0.775-2.448-1.542-4.902-2.588-7.254
				c-0.063-0.142-0.063-0.313-0.093-0.47c0.003-0.436,0.281-0.256,0.422-0.147c0.633,0.488,1.225,0.234,1.796-0.087
				c0.841-0.473,1.708-0.9,2.526-1.412c0.783-0.491,1.541-0.63,2.282,0.066c2.738,4.126,5.476,8.252,8.212,12.379
				c0.178,0.268,0.341,0.545,0.51,0.818C128.584,124.574,124.574,124.574,120.563,124.574z"/>
			<path fill="#D6D2CF" d="M72.056,111.568c1.285,1.39,2.489,2.843,3.463,4.474c0.123,2.344,0.437,4.669,0.704,6.998
				c0.081,0.71,0.475,0.987,1.175,0.971c0.675-0.015,1.354-0.036,2.028,0.024c0.384,0.034,0.877-0.055,0.968,0.538
				c-1.617,0-3.234,0-4.851,0c-0.432-0.197-0.893-0.11-1.332-0.086c-0.878,0.049-1.226-0.437-1.337-1.199
				c-0.27-1.853-0.402-3.721-0.621-5.58c-0.117-0.992,0.051-2.108-0.427-2.946c-0.621-1.088-0.273-2.019-0.048-3.027
				C71.811,111.588,71.908,111.534,72.056,111.568z"/>
			<path fill="#CECAC7" d="M72.056,111.568c-0.356,0.522-0.327,1.165-0.533,1.734c-0.04,0.109-0.042,0.32,0.022,0.367
				c1.384,0.999,0.798,2.564,1.042,3.855c0.367,1.946,0.432,3.949,0.646,5.925c0.068,0.63,0.413,0.971,1.105,0.941
				c0.401-0.017,0.845-0.144,1.204,0.182c-2.07,0-4.14,0-6.21,0c0.145-2.607,0.776-5.136,1.245-7.691
				c0.307-1.673,0.702-3.33,1.068-4.992C71.688,111.698,71.613,111.282,72.056,111.568z"/>
			<path fill="#DFDBD8" d="M80.394,124.574c-1.028-0.409-2.1-0.146-3.149-0.176c-0.796-0.023-1.266-0.202-1.353-1.108
				c-0.203-2.11-0.49-4.212-0.731-6.318c-0.041-0.356-0.03-0.724,0.359-0.929c2.036,2.67,3.717,5.559,5.263,8.531
				C80.653,124.574,80.524,124.574,80.394,124.574z"/>
			<path fill="#494F81" d="M89.515,124.574c-0.756-1.189-1.568-2.346-2.254-3.574c-0.837-1.498-1.999-2.781-2.84-4.241
				c-0.777-1.349-1.819-2.456-2.683-3.713c-1.609-2.341-3.9-3.982-6.11-5.694c-0.298-0.231-0.622-0.427-0.886-0.71
				c1.172,0.378,2.129,1.147,3.05,1.89c2.263,1.824,4.223,3.941,6.011,6.255c2.189,2.834,4.019,5.882,5.873,8.924
				c0.184,0.301,0.41,0.576,0.616,0.863C90.032,124.574,89.773,124.574,89.515,124.574z"/>
			<path fill="#484F80" d="M96.501,124.574c-0.369-1.019-1.267-1.677-1.78-2.61c-0.257-0.467-0.719-0.817-0.778-1.408
				c-0.011-0.114-0.098-0.254-0.193-0.32c-1.818-1.274-2.945-3.217-4.524-4.695c-1.645-1.54-3.217-3.159-4.877-4.685
				c-1.215-1.116-2.503-2.173-3.52-3.522c1.244,1.024,2.529,2.003,3.723,3.082c1.578,1.426,3.222,2.816,4.583,4.435
				c1.291,1.536,2.855,2.787,4.093,4.402c0.962,1.255,2.182,2.366,3.114,3.7c0.361,0.517,0.254,1.297,0.935,1.62
				C97.018,124.574,96.759,124.574,96.501,124.574z"/>
			<path fill="#533327" d="M127.736,93.314c-0.17,0.94-0.141,1.912-0.44,2.831c-0.261,0.802-0.573,1.57-1.496,1.835
				c-0.997,0.051-1.872,0.59-2.856,0.704c-0.475,0.055-0.959,0.23-1.304-0.283c-0.021-0.908-0.001-1.816-0.009-2.498
				c0.117,0.759-0.186,1.769,0.143,2.745c-0.744,0.623-1.691,0.54-2.55,0.65c-2.705,0.346-5.417,0.704-8.159,0.531
				c-0.509-0.032-1.041,0.043-1.463-0.346c-0.573-0.664-0.153-1.465-0.291-2.061c0.102,0.593-0.217,1.36,0.225,2.048
				c-0.067,0.118-0.155,0.22-0.293,0.227c-1.949,0.096-3.886,0.06-5.772-0.532c-1.022-0.321-1.515-0.994-1.509-2.085
				c0.005-0.907,0.104-1.798,0.234-2.692c0.267-1.837,0.324-3.661-0.512-5.398c-0.056-0.116-0.092-0.241-0.117-0.368
				c-0.063-0.323-0.125-0.689,0.183-0.889c0.357-0.231,0.674,0.015,0.948,0.25c0.366,0.315,0.682,0.692,1.11,0.928
				c0.69,0.38,1.395,0.685,2.166,0.204c0.948-0.644,2.039-1.081,2.898-1.982c-0.709-0.404-1.578-0.352-2.204-0.87
				c-0.49-0.43-0.27-0.986-0.263-1.504c-0.024,0.188-0.004,0.384-0.112,0.558c-0.334,0.441-0.752,0.521-1.28,0.383
				c-0.789-0.206-1.506-0.549-2.152-1.029c-0.882-0.655-1.144-1.895-0.658-2.95c0.527-1.141,2.216-2.105,3.252-1.857
				c0.356,0.83,0.069,1.694,0.158,2.47c-0.043-0.872,0.124-1.819-0.113-2.757c0.003-0.232,0.114-0.397,0.307-0.513
				c0.099-0.042,0.202-0.063,0.309-0.066c1.053,0.141,2.114,0.044,3.171,0.073c1.059,0.028,1.171,0.133,1.183,1.154
				c0.006,0.475,0.001,0.95,0.001,1.425c0-0.481,0.04-0.967-0.009-1.443c-0.089-0.874,0.365-1.251,1.148-1.316
				c0.417-0.035,0.794-0.28,1.224-0.205c1.842,0.556,3.381,1.72,5.088,2.549c0.602,0.292,1.18,0.634,1.898,0.979
				c0.178-1.543,0.495-2.945,0.976-4.311c0.475-1.347,1.111-2.609,1.85-3.824c0.214-0.352,0.407-0.75,0.898-0.802
				c0.54,0.251,0.388,0.748,0.409,1.177c0.018,0.352,0.004,0.706,0.004,0.937c-0.03-0.822,0.071-1.771-0.094-2.712
				c0.008-0.294,0.125-0.551,0.266-0.8c0.215-0.491-0.073-1.022,0.115-1.515c0.134-0.263,0.113-0.621,0.461-0.753
				c0.249,0.06,0.339,0.256,0.406,0.472c0.037,3.235,1.043,6.315,1.515,9.481c0.047,0.317,0.121,0.63,0.098,0.955
				c0.669,2.887,0.968,5.825,1.194,8.771c0.071,0.927,0.271,1.847,0.199,2.784C128.085,92.515,128.144,92.986,127.736,93.314z"/>
			<path fill="#4B2D23" d="M109.509,99.351c2.019,0.388,4.059,0.205,6.084,0.14c1.567-0.05,3.128-0.329,4.688-0.537
				c0.492-0.066,0.97-0.234,1.455-0.356l0.016-0.018c1.192,0.008,2.328-0.266,3.436-0.678c0.223-0.083,0.431-0.134,0.612,0.078
				c-3.035,1.244-6.263,1.483-9.472,1.818c-0.224,0.229-0.507,0.277-0.81,0.268c-0.745-0.094-1.482-0.067-2.204,0.162
				c-1.074,0.097-2.151,0.238-3.189-0.207c-0.727-0.04-1.454-0.08-2.181-0.12c-0.735-0.195-1.5,0.062-2.233-0.15
				c-0.354-0.014-0.709-0.028-1.063-0.042c-0.573-0.063-1.122,0.215-1.697,0.12c-4.956-0.534-9.703-1.651-13.677-4.916
				c-2.705-2.676-4.427-5.965-5.862-9.432c-0.111-0.268-0.188-0.549-0.112-0.847c0.031-0.098,0.084-0.182,0.158-0.253
				c0.216-0.092,0.387,0,0.548,0.134c0.631,0.942,1.084,1.978,1.539,3.01c0.17,0.387,0.367,0.749,0.612,1.074
				c-0.036,0.113,0.027-0.051,0.036,0.077c0.003,0.046,0.014,0.018,0.001-0.083c-0.048-0.374-0.17-0.782,0.372-0.919
				c0.462,0.344,0.359,0.862,0.403,1.329c0.042,0.449,0.029,0.912,0.519,1.173c0.224-0.255,0.109-0.555,0.112-0.827
				c0.014-1.671,0.027-3.339,0.161-5.011c0.18-2.246-0.016-4.498-0.194-6.743c-0.033-0.419-0.099-0.836,0.163-1.212
				c0.549-0.483,0.9,0.027,1.234,0.301c2.018,1.659,3.974,3.391,5.986,5.057c2.483,2.057,1.472,2.052,4.312,0.331
				c0.111-0.067-0.027,0.018,0.08-0.056c1.464-0.945,2.988-1.786,4.53-2.591c0.591-0.308,1.22-0.81,1.943-0.23
				c-0.065,0.111-0.129,0.223-0.194,0.334c-0.005,0.17-0.023,0.332-0.211,0.407c-1.829,0.189-3.128,1.534-3.091,3.161
				c0.028,1.221,1.017,1.578,1.846,1.981c0.605,0.294,1.328,0.797,2.037,0.102c0.221,0.253,0.318,0.531,0.17,0.857
				c-0.288,0.21-0.615,0.197-0.925,0.108c-1.296-0.37-2.633-0.594-3.893-1.091c-0.588-0.556-0.588-0.556-0.589-1.772
				c0.008,0.772-0.07,1.563,0.509,2.202c0.483,0.527,0.716,1.212,1.131,1.786c0.706,0.977,1.492,1.774,2.828,1.687
				c0.254-0.016,0.515,0.041,0.698,0.261c0.254,0.446-0.145,0.394-0.348,0.413c-1.077,0.105-2.033-0.143-2.803-0.967
				c-0.316-0.338-0.6-0.758-1.116-0.828c-0.221,0.346-0.064,0.633,0.065,0.868c1.128,2.056,0.884,4.231,0.523,6.392
				c-0.141,0.842-0.078,1.669-0.126,2.501c-0.033,0.583,0.317,0.91,0.808,1.067c0.732,0.235,1.462,0.464,2.224,0.624
				c1.131,0.237,2.225,0.154,3.33,0.246c0.282,0.024,0.587,0.057,0.821-0.18L109.509,99.351z"/>
			<path fill="#FED74E" d="M149.639,85.36c0.003,7.445,0.005,14.889,0.008,22.334c-4.3-2.833-8.601-5.665-12.899-8.501
				c-0.294-0.194-0.569-0.415-0.852-0.624c-0.595-0.767-0.491-1.502-0.009-2.305c2.057-3.425,3.541-7.095,4.532-10.96
				c0.226-0.88,0.788-1.368,1.565-1.701c0.383-0.114,0.765-0.061,1.146,0.013c1.832,0.352,3.648,0.777,5.48,1.132
				C149.02,84.826,149.442,84.911,149.639,85.36z"/>
			<path fill="#FEDE6B" d="M141.91,83.822c-1.142,0.569-1.172,1.728-1.474,2.752c-1.046,3.536-2.453,6.928-4.402,10.058
				c-0.456,0.732-0.056,1.301-0.138,1.936c-2.264-1.488-4.527-2.976-6.791-4.464c-0.529-0.727-0.388-1.427,0.043-2.147
				c1.513-2.529,2.644-5.221,3.338-8.087c0.22-0.909,0.7-1.569,1.555-1.954c1.7-0.026,3.284,0.602,4.929,0.89
				c0.695,0.122,1.381,0.319,2.072,0.476C141.389,83.361,141.736,83.456,141.91,83.822z"/>
			<path fill="#FEDE68" d="M123.872,111.377c-1.721-0.699-2.745,0.81-4.09,1.299c-0.236,0.086-0.442,0.259-0.66,0.394
				c-0.784,0.486-1.546,0.516-2.275-0.112c-1.228-2.653-2.456-5.306-3.684-7.959c-0.087-0.378,0.216-0.389,0.401-0.327
				c0.987,0.331,1.733-0.239,2.528-0.629c0.374-0.184,0.728-0.407,1.087-0.618c0.838-0.493,1.29,0.176,1.836,0.574
				C120.747,106.384,122.304,108.884,123.872,111.377z"/>
			<path fill="#FEE27A" d="M133.947,82.107c-1.13,0.844-1.215,2.174-1.562,3.379c-0.556,1.928-1.385,3.742-2.317,5.51
				c-0.517,0.981-1.302,1.868-0.964,3.109c-0.456-0.264-0.912-0.527-1.368-0.791c-0.016-4.302-0.623-8.544-1.287-12.781
				c0.272-0.261,0.604-0.197,0.916-0.14c1.935,0.358,3.867,0.73,5.766,1.253C133.437,81.73,133.77,81.787,133.947,82.107z"/>
			<path fill="#FDE480" d="M119.015,103.999c-1.022-0.721-1.875-0.291-2.787,0.306c-0.908,0.594-1.893,1.133-3.064,0.693
				c-1.06-1.631-1.883-3.406-3.039-4.978c1.088-0.04,2.175-0.079,3.263-0.119c0.735-0.196,1.501,0.064,2.234-0.152
				c0.235,0.016,0.47,0.032,0.706,0.047C117.224,101.198,118.119,102.599,119.015,103.999z"/>
			<path fill="#FED74E" d="M50.349,107.7c-0.001-7.445-0.002-14.889-0.003-22.334c0.23-0.294,0.543-0.453,0.898-0.529
				c2.207-0.468,4.415-0.936,6.628-1.375c0.222-0.044,0.449-0.046,0.67,0.021c0.803,0.561,1.198,1.349,1.448,2.292
				c0.979,3.693,2.407,7.206,4.43,10.458c0.525,0.844,0.625,1.596-0.132,2.334c-3.158,2.097-6.299,4.221-9.483,6.279
				C53.324,105.804,51.924,106.891,50.349,107.7z"/>
			<path fill="#351F15" d="M83.494,84.602c0.52,1.984,1.57,3.725,2.512,5.518c0.892,1.699,2.241,3.06,3.336,4.608
				c0.047,1.319-0.568,2.307-1.554,3.112c-0.869,0.154-1.74,0.332-2.572-0.147c-1.799,0.051-3.598,0.083-5.395,0.164
				c-0.617,0.028-0.964-0.086-0.977-0.798c-0.012-0.637-0.14-1.272-0.217-1.908c-0.044-0.604-0.47-0.627-0.902-0.55
				c-2.347,0.416-4.665,0.14-6.98-0.252c-0.41-0.688,0.277-0.996,0.504-1.464c0.203-0.215,0.346-0.478,0.545-0.697
				c1.152-1.347,1.636-2.997,2.134-4.647c0.17-0.563,0.12-1.227,0.668-1.64c0.775,0.183,0.562,0.765,0.453,1.239
				c-0.447,1.933-1.178,3.757-2.193,5.466c-0.64,1.078-0.6,1.144,0.68,1.299c0.708,0.086,1.421,0.034,2.131,0.052
				c0.711,0.018,1.095-0.35,1.216-0.996c0.255-1.362,0.615-2.718,0.352-4.127c-0.153-0.817,0.127-1.516,0.578-2.186
				c0.863-1.281,1.038-2.664,0.538-4.131c-0.087-0.256-0.307-0.547,0.108-0.737c0.586,0.023,0.989,0.285,1.148,0.87
				c0.234,2.376-0.107,4.753,0.012,7.128c0.017,1.15-0.004,2.3-0.097,3.445c-0.132,0.666-0.083,1.345-0.107,1.956
				c0.033-0.401-0.006-0.868,0.02-1.336c0.159-1.212,0.209-2.426,0.184-3.644c-0.05-2.498,0.075-4.993,0.095-7.49
				c0.698-0.598,1.412-0.214,2.122-0.035c0.238,0.159,0.255,0.433,0.333,0.671c0.964,2.957,1.97,5.898,3.223,8.747
				c0.205,0.4,0.344,0.832,0.553,1.19c-0.035-0.135-0.13-0.287-0.216-0.437c-0.145-0.252-0.173-0.557-0.363-0.787
				c-1.245-2.967-2.359-5.981-3.273-9.067c-0.01-0.111,0.033-0.194,0.131-0.249c0.681-0.184,0.846,0.309,1.061,0.778
				C83.444,83.871,83.369,84.253,83.494,84.602z"/>
			<path fill="#FEDF6C" d="M71.482,92.951c0.016,0.582-0.66,0.637-0.824,1.081c-0.015,0.209-0.275,0.279-0.28,0.493
				c-1.96,1.453-4.033,2.736-6.091,4.042c0.774-1.343-0.224-2.295-0.795-3.287c-1.726-3.002-2.936-6.204-3.86-9.526
				c-0.179-0.642-0.213-1.345-0.955-1.675c-0.173-0.077-0.077-0.281-0.005-0.427c0.155-0.328,0.463-0.441,0.776-0.504
				c2.073-0.415,4.131-0.898,6.21-1.284c0.221-0.041,0.446-0.043,0.668,0.006c1.046,0.351,1.571,1.096,1.849,2.158
				c0.648,2.48,1.625,4.838,2.864,7.086C71.354,91.686,71.644,92.264,71.482,92.951z"/>
			<path fill="#FEE482" d="M85.216,97.693c0.914-0.037,1.828-0.073,2.741-0.11c0.213,0.368,0.011,0.687-0.133,1.002
				c-0.282,0.614-0.594,1.214-0.9,1.817c-0.687,1.354-1.463,1.771-3.039,1.642c-0.264,0.033-0.528,0.067-0.792,0.101
				c-0.186-0.107-0.371-0.214-0.557-0.321C83.428,100.446,84.322,99.069,85.216,97.693z"/>
			<path fill="#3A241D" d="M70.378,94.526c-0.21-0.336,0.122-0.365,0.28-0.493c1.196,0.688,2.552,0.468,3.833,0.623
				c0.975,0.118,1.982,0.091,2.979-0.118c0.423-0.089,1.199-0.379,1.156,0.614c-0.15-0.216-0.173-0.53-0.603-0.449
				C75.465,95.183,72.923,94.77,70.378,94.526z"/>
			<path fill="#B2806B" d="M83.884,102.043c1.977-0.207,2.845-1.586,3.464-3.25c0.157-0.421,0.404-0.808,0.609-1.211
				c0.462-0.952,0.923-1.903,1.385-2.855c0.563,0.061,0.842,0.557,1.257,0.84c2.915,1.983,6.215,2.914,9.615,3.574
				c0.883,0.171,1.778,0.285,2.667,0.425c0.545,0.738-0.07,1.471-0.047,2.213c0.013,0.408-0.105,0.875-0.146,1.48
				c0.036-1.08,0.248-1.973,0.372-2.878c0.129-0.944,0.617-0.863,1.254-0.59c0.367,3.477,0.734,6.954,1.101,10.431
				c0.017,1.342-0.766,1.909-1.978,2.178c-1.101,0.245-2.188,0.57-3.262,0.921c-1.023,0.333-2.036,0.595-3.1,0.204
				C92.678,109.697,88.281,105.87,83.884,102.043z"/>
			<path fill="#A7745C" d="M97.076,113.524c1.308-0.023,2.547-0.376,3.785-0.763c1.046-0.327,2.103-0.626,3.17-0.874
				c0.914-0.213,1.126-0.944,1.386-1.666c0.178,1.834,0.286,3.679,0.79,5.466c-0.683,1.406-1.494,1.86-2.942,1.589
				c-0.818-0.153-1.651-0.26-2.42-0.616c-0.265-0.123-0.544-0.204-0.838-0.08c-0.113-0.043-0.226-0.085-0.34-0.128
				c0.604-0.575-0.108-0.728-0.351-0.959C98.595,114.81,97.826,114.177,97.076,113.524z"/>
			<path fill="#9F6E55" d="M106.42,118.013c-0.158,1.25,0.283,2.464,0.228,3.803c-1.288-0.919-2.272-2.113-3.555-2.935
				C103.639,117.39,105.236,116.949,106.42,118.013z"/>
			<path fill="#533529" d="M106.42,118.013c-0.062-0.012-0.13-0.013-0.186-0.038c-1.297-0.564-2.294-0.092-3.14,0.905
				c-0.259,0.214-0.519,0.427-0.779,0.641c-0.201,0.088-0.222-0.006-0.174-0.171c0.249-0.262,0.498-0.523,0.747-0.785
				c-0.012-0.315,0.27-0.496,0.374-0.824c-0.647-0.394-1.484-0.29-2.106-0.743c-0.349-0.232-0.73-0.378-1.149-0.418
				c0.353-0.283,0.718-0.141,1.09-0.044c0.338,0.089,0.703,0.1,1.024,0.227c1.636,0.649,3.001,0.334,4.086-1.076
				c0.384-0.317,0.769-0.634,1.153-0.951c0.081,0.103,0.081,0.206-0.001,0.308c-0.407,0.39-0.814,0.781-1.221,1.171
				c-0.099,0.378-0.259,0.715-0.649,0.909c0.235,0.199,0.55,0.22,0.723,0.459c0.474,0.259,1.003,0.334,1.52,0.448
				c-0.008,0.312-0.183,0.239-0.362,0.157C107.053,118.13,106.736,118.071,106.42,118.013z"/>
			<path fill="#7E5146" d="M104.315,99.79c-0.624-0.152-1.008-0.065-1.088,0.725c-0.135,1.323-0.389,2.635-0.729,3.938
				c-0.22-1.654,0.358-3.253,0.384-4.887c0.592,0.007,1.198-0.154,1.767,0.142C104.537,99.735,104.426,99.763,104.315,99.79z"/>
			<path fill="#A27057" d="M101.155,116.998c0.972-0.084,1.843,0.349,2.997,0.511c-0.518,0.432-0.891,0.744-1.264,1.056
				C102.31,118.043,101.733,117.521,101.155,116.998z"/>
			<path fill="#A5745B" d="M106.211,117.584c-0.422,0.04-0.803-0.104-1.281-0.271c0.436-0.396,0.822-0.747,1.208-1.098
				C106.162,116.671,106.187,117.128,106.211,117.584z"/>
			<path fill="#A89A93" d="M99.336,116.355c-0.478,0.102-0.88-0.124-1.262-0.473c0.426,0.075,0.851,0.15,1.277,0.225
				C99.346,116.19,99.341,116.272,99.336,116.355z"/>
			<path fill="#9F6E55" d="M107.369,118.189c0.121-0.052,0.241-0.104,0.362-0.157c0.46,0.089,0.929,0.149,1.42,0.467
				C108.473,118.513,107.911,118.415,107.369,118.189z"/>
			<path fill="#88746A" d="M102.14,119.35c0.058,0.057,0.116,0.114,0.174,0.171c-0.355,0.31-0.71,0.619-1.065,0.929
				c-0.046-0.046-0.093-0.093-0.139-0.139C101.453,119.991,101.797,119.67,102.14,119.35z"/>
			<path fill="#533327" d="M105.711,99.75c0.745,0.039,1.508-0.179,2.233,0.15C107.195,99.922,106.445,99.949,105.711,99.75z"/>
			<path fill="#796257" d="M107.358,115.044c0-0.103,0-0.206,0.001-0.308c0.303-0.256,0.607-0.512,0.91-0.768
				c0.039,0.046,0.078,0.091,0.117,0.137C108.043,114.417,107.701,114.731,107.358,115.044z"/>
			<path fill="#FEC619" d="M132.797,25.248c3.808-0.009,7.617-0.07,11.424-0.009c2.853,0.046,5.392,2.592,5.432,5.437
				c0.055,3.937,0.001,7.875-0.007,11.812c-0.178,0.53-0.616,0.807-1.051,1.09c-4.004,2.602-7.971,5.259-11.982,7.85
				c-2.144,1.416-4.264,2.868-6.437,4.24c-1.317,0.813-2.566,1.729-3.87,2.563c-0.637,0.378-1.212,0.848-1.843,1.233
				c-0.295,0.179-0.565,0.447-0.965,0.335c-0.324-0.232-0.362-0.598-0.416-0.943c-0.671-4.284-1.971-8.385-3.582-12.396
				c-0.12-0.298-0.235-0.601-0.219-0.932c0.928-1.849,2.246-3.453,3.296-5.228c0.524-0.886,1.087-1.753,1.667-2.607
				c2.608-3.709,4.992-7.567,7.515-11.333C132.05,25.926,132.334,25.51,132.797,25.248z"/>
			<path fill="#FEC819" d="M50.348,42.48c-0.009-3.969-0.085-7.939-0.005-11.906c0.056-2.806,2.612-5.293,5.425-5.336
				c3.871-0.059,7.744,0.001,11.616,0.01c0.285,0.206,0.579,0.394,0.779,0.704c2.638,4.075,5.349,8.101,7.975,12.184
				c1.509,2.311,3.049,4.601,4.573,6.901c0.279,0.421,0.645,0.816,0.593,1.385c-0.565,0.932-1.516,1.465-2.305,2.151
				c-2.524,2.195-4.162,4.84-4.542,8.204c-0.051,0.45-0.121,0.899-0.574,1.154c-1.02,0.024-1.584-0.811-2.358-1.25
				c-2.437-1.652-4.947-3.196-7.375-4.863c-4.232-2.759-8.443-5.55-12.673-8.312C51.047,43.223,50.608,42.951,50.348,42.48z"/>
			<path fill="#FEC919" d="M133.947,82.107c-2.499-0.525-4.999-1.049-7.498-1.574c-0.491-3.259-1.51-6.431-1.614-9.754
				c-0.008-0.256,0.004-0.512,0.007-0.768c0.166-0.303,0.439-0.454,0.763-0.526c1.525-0.34,3.038-0.743,4.597-0.918
				c1.545-0.385,3.094-0.757,4.668-1.01c2.462-0.488,4.897-1.112,7.38-1.501c2.026-0.452,4.058-0.872,6.087-1.309
				c0.433-0.093,0.882-0.194,1.302,0.073c0,6.846,0,13.692,0,20.539c-2.573-0.529-5.113-1.227-7.729-1.538
				C139.255,83.251,136.601,82.679,133.947,82.107z"/>
			<path fill="#FECA19" d="M66.432,82.093c-2.587,0.52-5.173,1.039-7.76,1.559c-2.776,0.571-5.551,1.143-8.327,1.714
				c0-6.851,0-13.701,0-20.552c0.263-0.263,0.588-0.242,0.908-0.173c2.493,0.532,5.003,0.99,7.478,1.609
				c2.869,0.492,5.723,1.053,8.548,1.757c1.837,0.295,3.653,0.692,5.471,1.078c0.494,0.105,1.021,0.172,1.383,0.602
				c0.504,1.514,0.299,3.107,0.506,4.657c0.24,1.802,0.171,3.637,0.37,5.449c0.018,0.161-0.02,0.319-0.085,0.468
				c-0.271,0.419-0.72,0.509-1.156,0.61c-2.033,0.472-4.086,0.85-6.12,1.319C67.234,82.284,66.822,82.323,66.432,82.093z"/>
			<path fill="#FEC919" d="M89.727,25.256c5.23-0.013,10.461-0.029,15.691-0.035c1.678-0.002,3.357,0.023,5.035,0.035
				c0.25,0.399,0.102,0.81,0.025,1.213c-0.345,1.794-0.708,3.585-1.118,5.366c-0.249,1.427-0.6,2.833-0.88,4.254
				c-0.087,0.44-0.147,0.896-0.477,1.246c-0.36,0.268-0.784,0.276-1.201,0.27c-2.925-0.038-5.745,0.605-8.562,1.291
				c-1.562,0.38-3.113,0.789-4.616,1.364c-0.285,0.109-0.557,0.152-0.832-0.011c-0.156-0.126-0.273-0.29-0.309-0.48
				c-0.483-2.498-1.328-4.922-1.537-7.476c-0.512-2.019-0.895-4.066-1.299-6.108C89.585,25.872,89.527,25.551,89.727,25.256z"/>
			<path fill="#FED74E" d="M58.667,66.527c-2.774-0.571-5.548-1.142-8.322-1.713c0.001-7.445,0.002-14.889,0.003-22.334
				c2.134,1.368,4.28,2.719,6.399,4.109c2.524,1.656,5.026,3.347,7.538,5.023c0.71,0.762,0.603,1.497,0.082,2.355
				c-2.026,3.336-3.453,6.931-4.417,10.708C59.746,65.474,59.315,66.062,58.667,66.527z"/>
			<path fill="#FED74E" d="M149.639,64.821c-2.45,0.507-4.901,1.013-7.351,1.52c-0.849-0.372-1.195-1.081-1.409-1.941
				c-0.912-3.678-2.348-7.149-4.237-10.433c-0.509-0.884-1.003-1.775-0.164-2.743c2.942-1.955,5.884-3.912,8.827-5.865
				c1.446-0.96,2.895-1.914,4.342-2.871C149.644,49.932,149.642,57.377,149.639,64.821z"/>
			<path fill="#FED74E" d="M89.727,25.256c0.503,2.321,1.006,4.641,1.508,6.962c-0.371,0.794-1.011,1.187-1.855,1.385
				c-3.965,0.932-7.65,2.557-11.152,4.612c-0.783,0.459-1.532,0.711-2.304,0.011c-2.94-4.264-5.759-8.609-8.541-12.977
				C74.832,25.251,82.279,25.253,89.727,25.256z"/>
			<path fill="#FED74E" d="M109.098,31.805c0.353-2.204,0.79-4.39,1.355-6.55c4.804-0.013,9.608-0.031,14.412-0.036
				c2.644-0.003,5.288,0.018,7.931,0.029c-1.524,2.335-3.052,4.669-4.572,7.006c-1.223,1.88-2.353,3.822-3.756,5.582
				c-0.692,0.71-1.404,0.573-2.181,0.115c-3.626-2.136-7.448-3.808-11.547-4.816C109.994,32.951,109.348,32.616,109.098,31.805z"/>
			<path fill="#B2806B" d="M105.813,79.197c-0.627-0.184-1.127,0.169-1.621,0.433c-1.605,0.859-3.19,1.756-4.783,2.638
				c-0.362,0.052-0.263-0.227-0.197-0.351c0.351-0.664-0.009-1.085-0.444-1.519c-4.501-4.495-8.998-8.994-13.496-13.492
				c-0.347-0.347-0.703-0.664-1.215-0.745c-0.364-0.057-0.574-0.273-0.591-0.655c0.352-1.261,0.718-2.516,1.534-3.577
				c0.661-0.619,0.913-1.512,1.473-2.2c0.198-0.243,0.315-0.554,0.642-0.672c0.26-0.054,0.519-0.15,0.638-0.392
				c0.573-1.162,1.715-1.818,2.473-2.813c0.156-0.206,0.345-0.384,0.574-0.511c0.423-0.235,0.749-0.065,1.004,0.276
				c0.286,0.384,0.201,0.745-0.183,0.995c-0.511,0.332-1.091,0.554-1.551,0.971c-0.644,0.584-0.559,1.18,0.268,1.437
				c1.152,0.358,2.314,0.456,3.494,0.006c1.091-0.416,3.238,0.479,3.777,1.506c0.126,0.241,0.114,0.43-0.166,0.542
				c-0.405,0.103-0.753-0.1-1.118-0.211c-2.063-0.627-3.895,0.289-4.633,2.316c-0.718,1.971-0.014,4.353,1.66,5.617
				c0.622,0.586,1.311,1.029,2.209,1.018c1.014,0.255,1.833-0.233,2.532-0.818c1.272-1.066,1.743-2.484,1.472-4.133
				c-0.077-0.468-0.296-0.923-0.126-1.413c0.266-0.435,0.546-0.174,0.802,0c0.381,0.26,0.593,0.662,0.835,1.042
				c0.505,0.792,0.965,0.981,1.762,0.49c0.886-0.546,1.952-0.606,2.811-1.209c0.4-0.281,0.865-0.047,1.24,0.246
				c1.327,0.731,2.787,1.164,4.129,1.868c1.58,0.828,3.115,1.715,4.323,3.05c3.329,3.681,2.076,8.269-2.653,9.71
				c-2.183,0.665-4.427,0.724-6.684,0.537l-0.096-0.004L105.813,79.197z"/>
			<path fill="#BA876F" d="M124.4,71.97c-0.115,0.199-0.229,0.399-0.344,0.598c-0.072,0.35-0.156,0.691-0.579,0.78
				c-1.844,2.842-3.184,5.867-3.341,9.437c-2.423-1.309-4.762-2.573-7.101-3.836c-0.035-0.493,0.395-0.527,0.688-0.666
				c4.038-1.914,4.828-6.005,1.781-9.255c-0.306-0.327-0.67-0.62-0.714-1.117c0.01-0.311,0.197-0.536,0.371-0.77
				c2.311-3.101,1.167-6.905-2.465-8.202c-0.152-0.054-0.309-0.096-0.456-0.162c-0.7-0.462-1.359-0.164-1.978,0.164
				c-0.303,0.16-0.584,0.394-0.853,0.627c-1.016,0.882-1.474,0.863-2.467-0.092c-3.018-2.899-5.895-5.94-8.877-8.874
				c-0.977-0.961-0.97-0.96-2.168-0.356c-0.381,0.192-0.785,0.382-1.059-0.169c0.11-0.867,0.91-1.145,1.471-1.532
				c0.73-0.503,1.487-1,2.287-1.408c1.165-0.46,2.275-1.041,3.423-1.539c1.557-0.675,1.966-0.623,3.163,0.57
				c1.71,1.706,3.425,3.407,5.121,5.127c1.017,1.031,0.878,1.49-0.432,2.107c-1.503,0.708-3.059,1.32-4.444,2.252
				c-0.141,0.377,0.11,0.449,0.385,0.484c0.412,0.051,0.832,0.024,1.243,0.112c1.188,0.184,2.213-0.27,3.187-0.851
				c0.298-0.178,0.588-0.393,0.875-0.601c1.233-0.893,1.861-0.836,2.949,0.249c2.288,2.28,4.566,4.569,6.854,6.848
				c0.509,0.507,0.98,1.046,1.225,1.724c0.866,2.39,1.715,4.787,2.176,7.298C124.385,71.259,124.442,71.613,124.4,71.97z"/>
			<path fill="#462C23" d="M98.632,47.341c-1.198,0.945-2.706,1.457-3.715,2.664c-0.049,0.295-0.176,0.54-0.407,0.746
				c-2.571,2.29-4.637,5.011-6.637,7.789c-0.179,0.249-0.31,0.587-0.699,0.61c-0.738,0.917-1.135,2.058-1.927,2.94
				c-0.347-0.481,0.003-0.873,0.206-1.244c1.616-2.965,3.623-5.653,5.806-8.221c1.727-2.032,3.66-3.816,5.776-5.057
				c-0.301,0.236-0.81,0.565-1.367,0.796c-0.728,0.302-1.129,0.07-1.191-0.72c-0.079-0.995-0.06-1.995,0.129-3.104
				c-0.601,0.288-0.937,0.719-1.28,1.121c-1.175,1.375-2.463,2.651-3.575,4.083c-0.25,0.322-0.496,0.692-0.957,0.775
				c-0.154-0.025-0.264-0.112-0.343-0.242c-0.035-0.09-0.048-0.184-0.044-0.28c0.159-0.559,0.638-0.881,0.988-1.294
				c1.315-1.552,2.639-3.099,4.095-4.525c0.495-0.485,0.856-1.038,0.934-1.758c0.2-1.842,0.333-2.009,1.607-2.571
				c-2.524,0.964-5.524,1.969-8.3,3.506c-3.815,1.908-7.285,4.276-10.19,7.439c-1.93,2.101-2.527,4.686-2.795,7.385
				c-0.435,4.385-0.269,8.77,0.123,13.151c0.043,0.483,0.078,0.966,0.011,1.45c-0.069,0.497,0.007,0.964,0.291,1.389
				c0.137,0.397,0.128,0.801,0.064,1.209c-0.309,0.867,0.018,1.728,0.056,2.586c0.091,2.035,0.085,4.07,0.005,6.101
				c-0.027,0.673,0.021,1.458-0.713,1.903c-0.363,2.035-1.019,3.968-2.026,5.778c-0.157,0.282-0.277,0.591-0.665,0.62
				c-0.25-0.405-0.023-0.753,0.16-1.081c1.661-2.977,2.217-6.224,2.358-9.574c0.02-0.482-0.022-0.97,0.227-1.414
				c0.048-3.065-0.359-6.104-0.54-9.156c-0.029-0.481-0.097-0.959-0.146-1.439c-0.562-1.073-0.534-2.235-0.515-3.397
				c0.123-2.106,0.117-4.211-0.005-6.316c0.032-0.739-0.242-1.538,0.414-2.157c0.358-0.493,0.311-1.088,0.393-1.643
				c0.544-3.67,2.699-6.309,5.442-8.579c0.493-0.408,0.988-0.814,1.482-1.221c0.115-0.361,0.39-0.579,0.686-0.784
				c3.119-2.164,6.482-3.869,9.987-5.306c0.335-0.137,0.671-0.233,1.034-0.124c2.86-0.913,5.714-1.837,8.677-2.386
				c2.105-0.39,4.223-0.585,6.36-0.614c0.278-0.189,0.589-0.262,0.92-0.252c3.313,0.102,6.237,1.032,8.3,3.845
				c0.729,0.994,1.377,2.036,1.944,3.127c0.25,0.481,0.546,0.968,0.403,1.559c1.914,4.598,3.331,9.34,4.137,14.259
				c0.537,0.358,0.493,0.959,0.567,1.48c0.318,2.236,0.578,4.479,0.794,6.727c0.055,0.569,0.158,1.168-0.288,1.66
				c-0.073,0.292,0.025,0.635-0.262,0.862c-0.218,0.03-0.273-0.13-0.31-0.285c-0.553-2.317-1.333-4.571-1.934-6.873
				c-1.596-6.109-3.863-11.974-6.339-17.767c-0.381-0.892-0.873-1.732-1.248-2.623c-0.318-0.756-0.809-0.973-1.6-0.84
				c-3.135,0.53-6.183,1.35-9.081,2.669C102.122,45.538,100.33,46.346,98.632,47.341z"/>
			<path fill="#BF8B72" d="M98.632,47.341c0.891-1.018,2.145-1.475,3.298-2.061c3.654-1.855,7.518-3.058,11.584-3.631
				c0.614-0.087,0.846,0.085,1.099,0.584c2.99,5.89,5.262,12.067,7.224,18.356c0.909,2.916,1.546,5.916,2.356,8.865
				c0.09,0.329-0.117,0.728,0.228,0.989c-0.078,0.508,0.398,1.023-0.02,1.527c-0.585-2.543-1.411-5.014-2.235-7.486
				c-0.301-0.903-0.762-1.681-1.453-2.36c-2.352-2.308-4.668-4.651-6.998-6.981c-0.865-0.865-1.448-0.893-2.443-0.091
				c-1.049,0.846-2.24,1.36-3.564,1.575c-0.258,0.042-0.518,0.061-0.726-0.151c0.239-0.42,0.692-0.434,1.081-0.562
				c1.365-0.448,2.623-1.064,3.743-2.352c-0.874,0.15-1.523,0.349-2.162,0.58c-1.093,0.394-2.17,0.829-3.253,1.251
				c-0.346,0.135-0.701,0.375-1.099,0.126c-0.14-0.408,0.251-0.365,0.423-0.45c1.442-0.71,2.895-1.399,4.348-2.09
				c0.907-0.431,0.935-0.55,0.223-1.265c-1.779-1.785-3.563-3.565-5.345-5.347c-1.158-1.158-1.305-1.186-2.762-0.506
				c-0.962,0.449-1.977,0.782-2.895,1.332C99.101,47.303,98.85,47.295,98.632,47.341z"/>
			<path fill="#FEE686" d="M124.682,69.581c-0.13-2.926-0.545-5.821-0.939-8.718c-0.052-0.382-0.09-0.765-0.134-1.149
				c0.813-0.639,1.669-1.211,2.579-1.703c0.487,0.042,0.234,0.379,0.169,0.545c-0.207,0.529-0.112,1.002,0.137,1.48
				c1.204,2.313,2.322,4.661,2.937,7.215c0.086,0.356,0.317,0.619,0.578,0.87c0.194,0.186,0.495,0.367,0.246,0.718
				c-1.804,0.391-3.609,0.782-5.413,1.173C124.789,69.868,124.736,69.725,124.682,69.581z"/>
			<path fill="#FEFEFE" d="M101.548,84.759c1.612,0.421,3.197,0.949,4.844,1.234c0.149,0.001,0.276,0.061,0.395,0.144
				c0.887,0.256,1.774,0.511,2.753,0.793c-0.991,1.083-2.13,1.789-3.411,2.289c-2.224,0.44-3.385-0.883-4.302-2.602
				c-0.181-0.339-0.336-0.692-0.502-1.039c-0.243-0.132-0.346-0.326-0.265-0.6C101.137,84.718,101.309,84.662,101.548,84.759z"/>
			<path fill="#7B4F44" d="M114.923,67.846c0.488,0.556,1.016,1.082,1.457,1.672c2.463,3.299,1.314,7.438-2.482,9.021
				c-0.294,0.122-0.576,0.272-0.864,0.409c-2.358,0.235-2.358,0.235-2.358,2.516c0,0.474,0,0.947,0,1.551
				c-0.538-0.328-0.356-0.708-0.395-1.015c-0.108-0.846,0.396-1.937-0.241-2.486c-0.563-0.485-1.609-0.087-2.438-0.151
				c-0.534-0.041-1.096,0.15-1.598-0.178c2.462,0.058,4.869-0.185,7.204-1.067c4.364-1.648,4.647-6.02,1.879-8.962
				c-2.087-2.219-4.814-3.398-7.582-4.492c-0.261-0.103-0.666-0.011-0.723-0.452c0.363-0.346,0.757-0.139,1.143-0.063
				c0.245,0.037,0.456,0.173,0.692,0.236c1.511,0.549,3.058,1.018,4.415,1.921C113.673,66.805,114.53,67.042,114.923,67.846z"/>
			<path fill="#774E43" d="M123.679,91.599c-0.001-0.609-0.005-1.218,0.003-1.828c0.002-0.152-0.011-0.345,0.193-0.389
				c0.202-0.044,0.314,0.123,0.316,0.272c0.016,1.344,0.018,2.689,0.008,4.033c-0.001,0.15-0.104,0.324-0.301,0.302
				c-0.206-0.024-0.214-0.215-0.215-0.371C123.676,92.946,123.68,92.272,123.679,91.599z"/>
			<path fill="#7D5247" d="M116.262,85.503c0.335,0.59,0.189,1.228,0.21,1.841c0.026,0.774,0.004,1.55-0.006,2.325
				c-0.002,0.161-0.034,0.346-0.224,0.385c-0.211,0.044-0.296-0.141-0.295-0.292C115.958,88.339,115.741,86.898,116.262,85.503z"/>
			<path fill="#764D42" d="M123.477,73.347c0.193-0.26,0.386-0.52,0.579-0.78c0.378,1.229,0.12,2.487,0.165,3.73
				c0.007,0.195-0.078,0.424-0.301,0.422c-0.257-0.003-0.24-0.258-0.242-0.444c-0.007-0.836,0.003-1.672-0.016-2.508
				C123.659,73.626,123.541,73.487,123.477,73.347z"/>
			<path fill="#7D5348" d="M112.331,89.991c0,1.58,0,3.161,0,4.741c-0.374-1.576-0.316-3.157-0.242-4.738
				C112.17,89.993,112.25,89.992,112.331,89.991z"/>
			<path fill="#7D5248" d="M120.936,85.344c-0.027,1.561,0.107,3.125-0.308,4.679c0-1.562,0-3.123,0-4.685
				C120.731,85.339,120.834,85.341,120.936,85.344z"/>
			<path fill="#7F5448" d="M126.44,96.639c0-1.553,0-3.106,0-4.66c0.417,1.544,0.342,3.091,0.262,4.639
				C126.615,96.625,126.528,96.632,126.44,96.639z"/>
			<path fill="#7E5449" d="M109.047,88.824c0,1.385,0,2.771,0,4.156c-0.063,0.002-0.126,0.004-0.189,0.006c0-1.386,0-2.772,0-4.158
				C108.921,88.827,108.984,88.826,109.047,88.824z"/>
			<path fill="#7F5449" d="M115.777,98.418c0-1.386,0-2.772,0-4.158c0.064-0.002,0.128-0.004,0.192-0.007c0,1.387,0,2.774,0,4.161
				C115.904,98.415,115.84,98.417,115.777,98.418z"/>
			<path fill="#7E5348" d="M113.696,81.647c0,1.385,0,2.77,0,4.155c-0.057,0.003-0.113,0.007-0.17,0.01c0-1.386,0-2.772,0-4.158
				C113.583,81.652,113.639,81.649,113.696,81.647z"/>
			<path fill="#7F5449" d="M105.126,97.247c0-1.189,0-2.377,0-3.566c0.055-0.004,0.11-0.008,0.166-0.012c0,1.19,0,2.381,0,3.571
				C105.236,97.242,105.181,97.244,105.126,97.247z"/>
			<path fill="#805449" d="M105.408,79.938c0.07-0.136,0.14-0.271,0.211-0.407c0.415,1.18,0.106,2.368,0.043,3.558
				C105.316,82.057,105.498,80.987,105.408,79.938z"/>
			<path fill="#7F5449" d="M118.721,94.348c0-1.13,0-2.26,0-3.39c0.065,0.001,0.13,0.001,0.196,0.002c0,1.128,0,2.257,0,3.385
				C118.852,94.347,118.786,94.348,118.721,94.348z"/>
			<path fill="#7F5449" d="M109.506,99.355c-0.106-0.06-0.296-0.109-0.306-0.182c-0.146-1.053-0.107-2.105-0.042-3.154
				c0.117-0.001,0.234-0.003,0.351-0.004c0,1.112,0,2.224,0,3.336C109.509,99.351,109.506,99.355,109.506,99.355z"/>
			<path fill="#8E5F54" d="M122.928,84.359c0-1.528,0-3.056,0-4.584c0.038,0,0.076-0.001,0.114-0.001c0,1.52,0,3.041,0,4.561
				C123.004,84.343,122.966,84.351,122.928,84.359z"/>
			<path fill="#7A5146" d="M106.787,86.137c-0.132-0.048-0.263-0.096-0.395-0.144c-0.064-0.27-0.127-0.541-0.191-0.811
				c0.08-0.449-0.144-0.942,0.252-1.458C106.808,84.553,106.381,85.414,106.787,86.137z"/>
			<path fill="#8E5F54" d="M121.736,98.598c-0.483-1.076-0.083-2.187-0.226-3.276c0.081-0.003,0.161-0.006,0.242-0.009
				c0,1.089,0,2.178,0,3.267C121.752,98.58,121.736,98.598,121.736,98.598z"/>
			<path fill="#40271F" d="M88.762,50.448c1.623-1.999,3.339-3.917,5.098-5.796c0.175-0.187,0.368-0.365,0.578-0.511
				c0.161-0.112,0.372-0.138,0.539,0.007c0.153,0.134,0.059,0.304,0.003,0.446c-0.382,0.969-0.17,1.98-0.225,2.972
				c-0.034,0.614,0.142,0.797,0.797,0.564c0.81-0.287,1.423-0.983,2.539-1.158c-1.305,1.082-2.506,1.922-3.636,2.849
				c-1.537,1.261-2.768,2.78-4.025,4.281c-1.781,2.127-3.349,4.409-4.699,6.835c-0.201,0.362-0.325,0.767-0.484,1.152
				c-0.676,1.094-1.135,2.284-1.556,3.492c-0.042,1.204-0.643,2.242-1.026,3.339c-0.36,1.034-0.642,1.996,0.18,2.928
				c-0.103,1.008,0.029,2.018-0.028,2.898c0.118-0.784-0.192-1.719,0.152-2.62c0.273-0.129,0.506-0.013,0.713,0.142
				c1.462,1.095,2.826,2.302,4.113,3.597c0.117,0.117,0.166,0.271,0.163,0.438c-0.259,0.986-0.021,1.978,0.059,2.947
				c0.174,2.087,0.157,4.152-0.004,6.239c-0.128,1.66-0.009,3.34,0.016,5.011c0.003,0.185,0.139,0.392-0.069,0.519
				c-0.223,0.135-0.339-0.093-0.478-0.208c-0.597-0.491-1.001-1.051-0.893-1.899c0.05-0.395,0.132-0.84-0.154-1.212
				c-0.44,0.191-0.01,0.773-0.436,0.97c-0.799-0.475-0.805-1.412-1.211-2.115c-0.363-0.629-0.751-1.262-0.917-1.989
				c-0.396-1.221-0.049-2.478-0.181-3.516c-0.133,0.975,0.237,2.173-0.175,3.331c-0.007,0.074-0.014,0.147-0.021,0.221
				c-0.349-0.289-0.407-0.727-0.524-1.117c-0.132-0.438-0.356-0.668-0.821-0.628c0.104-1.823-0.494-3.546-0.796-5.307
				c-0.217-1.264-0.49-2.526-0.772-3.781c-0.106-0.47-0.178-0.954-0.536-1.322c-0.339-0.37-0.876-0.55-1.047-1.081
				c-0.022-0.654-0.408-1.282-0.146-1.956c0.308-0.346,0.713-0.499,1.152-0.575c0.403-1.568,0.532-3.187,0.989-4.747
				c0.866-2.956,2.176-5.705,3.741-8.34c0.953-1.605,2.01-3.144,3.141-4.632C88.109,50.807,88.317,50.474,88.762,50.448z"/>
			<path fill="#A0725C" d="M82.705,71.805c-0.931-0.505-1.003-1.193-0.622-2.141c0.545-1.356,0.912-2.784,1.607-4.083
				c3.246,1.79,5.322,4.861,7.957,7.317c2.666,2.485,5.154,5.16,7.771,7.7c0.674,0.654,0.091,1.119-0.009,1.671
				c-0.043,0.047-0.078,0.105-0.129,0.141c-2.269,1.616-2.243,1.586-4.323-0.225c-2.299-2.001-4.574-4.032-7-5.882
				c-1.613-1.378-3.227-2.757-4.84-4.136C82.925,72.108,82.785,71.991,82.705,71.805z"/>
			<path fill="#7C5247" d="M83.515,84.38c0-1.688,0-3.375,0-5.063c0.091-0.001,0.182-0.003,0.273-0.004
				c0.201,1.743,0.052,3.502,0.083,5.253C83.752,84.504,83.634,84.442,83.515,84.38z"/>
			<path fill="#7F5449" d="M95.243,93.965c0-1.518,0-3.037,0-4.555c0.381,1.511,0.261,3.032,0.277,4.55
				C95.427,93.961,95.335,93.963,95.243,93.965z"/>
			<path fill="#7C5247" d="M89.488,89.892c0-1.043-0.036-2.088,0.018-3.128c0.021-0.406-0.452-1.132,0.097-1.151
				c0.526-0.019,0.249,0.791,0.269,1.226c0.047,1.013,0.015,2.03,0.015,3.045C89.754,89.887,89.621,89.889,89.488,89.892z"/>
			<path fill="#7C5247" d="M101.26,94.529c0-1.385,0-2.769,0-4.154c0.067-0.001,0.134-0.002,0.202-0.003c0,1.386,0,2.772,0,4.159
				C101.395,94.53,101.328,94.53,101.26,94.529z"/>
			<path fill="#7E5348" d="M97.791,87.477c0,1.321,0,2.641,0,4.061C97.389,90.92,97.328,88.416,97.791,87.477z"/>
			<path fill="#7C5247" d="M89.573,81.601c-0.206-1.086,0.049-2.161-0.209-3.2c-0.027-0.107,0.012-0.279,0.191-0.267
				c0.079,0.006,0.175,0.072,0.226,0.139C90.027,78.597,89.884,81.14,89.573,81.601z"/>
			<path fill="#7D5348" d="M92.576,92.322c0,1.231,0,2.463,0,3.694c-0.081,0.003-0.162,0.005-0.243,0.008
				c-0.184-1.229-0.077-2.468-0.073-3.703C92.365,92.321,92.47,92.321,92.576,92.322z"/>
			<path fill="#7F5349" d="M92.15,83.775c0,1.191,0,2.382,0,3.573c-0.065,0-0.13,0.001-0.195,0.001c0-1.191,0-2.381,0-3.572
				C92.02,83.776,92.085,83.775,92.15,83.775z"/>
			<path fill="#7F564B" d="M101.548,84.759c-0.922,0.043-0.087,0.563-0.223,0.82c-0.171,0.036-0.49,0.212-0.479-0.042
				c0.051-1.151-0.27-2.323,0.106-3.645C101.505,82.914,100.707,84,101.548,84.759z"/>
			<path fill="#7C5247" d="M98.501,98.043c0-1.118,0-2.236,0-3.353c0.059-0.004,0.119-0.008,0.178-0.011c0,1.118,0,2.236,0,3.354
				C98.62,98.036,98.561,98.039,98.501,98.043z"/>
			<path fill="#7F5449" d="M95.37,85.423c-0.318-0.725-0.197-1.455-0.122-2.188C95.719,83.946,95.458,84.69,95.37,85.423z"/>
			<path fill="#7E5348" d="M85.999,88.67c0.013-0.348-0.046-0.719,0.057-1.038c0.138-0.425,0.285-0.167,0.378,0.067
				c0,0.629,0,1.258,0,1.996C85.936,89.403,86.061,88.999,85.999,88.67z"/>
			<path fill="#533327" d="M115.622,99.75c-0.734,0.211-1.485,0.164-2.234,0.152C114.113,99.57,114.876,99.79,115.622,99.75z"/>
			<path fill="#3A241D" d="M74.583,85.967c0.215-0.771,0.398-1.553,0.374-2.356c-0.074-2.497,0.205-5.003-0.178-7.493
				c-0.043-0.277-0.062-0.581,0.146-0.829c0.302,0.141,0.377,0.435,0.426,0.712c0.394,2.233,1.551,4.036,3.132,5.604
				c0.046,0.095,0.04,0.186-0.017,0.274c0.645,0.957,0.532,1.994,0.395,3.065c-0.089,0.693-0.22,1.299-0.718,1.838
				c-0.543,0.589-0.756,1.281-0.567,2.141c0.342,1.554-0.14,3.062-0.476,4.563c-0.136,0.608-0.57,0.872-1.23,0.826
				c-1.026-0.072-2.053,0.034-3.084-0.176c-1.081-0.22-1.15-0.27-0.523-1.225c1.218-1.853,2.007-3.882,2.507-6.032
				C74.846,86.551,75.072,86.183,74.583,85.967z"/>
			<path fill="#FEE37C" d="M74.636,80.296c0.299,3.933-0.375,7.669-2.264,11.159c-0.163,0.302-0.321,0.607-0.481,0.91
				c-0.027,0.272-0.135,0.488-0.41,0.586c-1.457-3.198-3.137-6.307-3.9-9.779c-0.143-0.649-0.925-0.553-1.15-1.079
				C69.167,81.494,71.902,80.895,74.636,80.296z"/>
			<path fill="#966650" d="M80.2,72.179c0.375,0.139,0.512,0.431,0.585,0.809c0.575,2.963,1.153,5.926,1.764,8.882
				c0.097,0.472,0.034,0.78-0.401,0.987c0,0-0.023-0.014-0.023-0.014c-0.051,0.102-0.117,0.112-0.196,0.03
				c-0.701-0.056-1.403-0.111-2.104-0.167c-0.079-0.079-0.125-0.173-0.139-0.284c-0.03-1.095-0.055-2.192-0.024-3.288
				c0.018-0.645,0.051-1.295,0.488-1.831c0.194-0.166,0.39-0.216,0.55-0.001c-0.406-0.871-1.471-1.302-1.633-2.372
				c0.005-0.666-0.031-1.334,0.054-1.994C79.202,72.316,79.469,71.901,80.2,72.179z"/>
			<path fill="#A37059" d="M80.393,77.227c-0.62,1.519-0.365,3.105-0.333,4.67c0.006,0.271,0.117,0.513-0.262,0.578
				c-0.048,0.057-0.109,0.093-0.182,0.107c-0.073-0.01-0.138-0.04-0.195-0.087c-0.318-0.205-0.637-0.411-0.955-0.616
				c-0.02-0.052-0.037-0.106-0.051-0.16c-0.062-0.148-0.204-0.279-0.206-0.431c-0.023-1.846-0.138-3.7,0.426-5.5
				c0.474-0.423,0.774-0.027,1.051,0.262C80.005,76.382,80.468,76.65,80.393,77.227z"/>
			<path fill="#5F4944" d="M79.592,82.499c0.069-0.009,0.138-0.017,0.206-0.026c0.009,0.077,0.018,0.155,0.027,0.232
				c0.237,0.69,0.237,1.416,0.145,2.11c-0.226,1.706-0.159,3.417-0.136,5.122c0.019,1.392-0.267,2.758-0.224,4.146
				c-0.5-0.037-0.237-0.334-0.19-0.558c0.003-1.226,0.007-2.451,0.01-3.677c0.211-1.652,0.029-3.311,0.094-4.965
				C79.554,84.09,79.436,83.291,79.592,82.499z"/>
			<path fill="#5B4540" d="M81.929,82.873c0.065-0.01,0.131-0.02,0.196-0.03c1.104,3.109,2.208,6.217,3.312,9.326l0.005-0.004
				c-0.835-1.138-1.185-2.498-1.692-3.781C83.039,86.584,82.396,84.756,81.929,82.873z"/>
			<path fill="#3A241D" d="M79.592,82.499c0.003,2.144,0.009,4.288,0.008,6.432c0,0.314,0.068,0.646-0.17,0.918
				c-0.003-2.452-0.006-4.904-0.009-7.356C79.479,82.474,79.536,82.476,79.592,82.499z"/>
			<path fill="#3A241D" d="M79.42,93.527c0.023,0.2-0.014,0.42,0.19,0.558c0.063,0.76-0.058,1.492-0.414,2.196
				C79.313,95.364,79.05,94.427,79.42,93.527z"/>
			<path fill="#5B4540" d="M85.437,92.168c0.387,0.426,0.567,0.952,0.687,1.507c-0.315-0.462-0.69-0.895-0.682-1.51
				C85.442,92.164,85.437,92.168,85.437,92.168z"/>
			<path fill="#FEDE68" d="M136.478,51.224c-0.487,1.281,0.273,2.22,0.832,3.251c1.706,3.145,3.108,6.425,3.88,9.928
				c0.18,0.817,0.774,1.273,1.098,1.939c-2.461,0.512-4.921,1.025-7.382,1.537c-0.823-0.173-1.245-0.73-1.442-1.504
				c-0.804-3.168-2.017-6.17-3.667-8.992c-0.414-0.709-0.355-1.342,0.256-1.907C132.194,54.058,134.336,52.641,136.478,51.224z"/>
			<path fill="#FEDD64" d="M119.472,45.454c-0.78-1.55-1.575-3.085-2.618-4.489c-1.931-2.6-4.635-3.523-7.713-3.696
				c-0.412-0.023-0.836,0.091-1.236-0.095c0.398-1.79,0.795-3.58,1.193-5.37c0.923,1.015,2.238,1.159,3.446,1.498
				c3.431,0.963,6.629,2.457,9.685,4.248c0.777,0.455,1.439,0.599,2.239,0.284c-1.568,2.458-3.135,4.916-4.708,7.371
				C119.695,45.309,119.57,45.372,119.472,45.454z"/>
			<path fill="#FEE277" d="M130.053,55.475c-0.526,1.031,0.064,1.795,0.531,2.661c1.27,2.352,2.352,4.796,2.967,7.414
				c0.218,0.928,0.521,1.774,1.355,2.329c-1.55,0.32-3.1,0.64-4.65,0.96c-1.288-0.84-1.283-2.315-1.734-3.561
				c-0.547-1.511-1.181-2.983-1.969-4.38c-0.527-0.933-0.951-1.834-0.364-2.887C127.428,57.093,128.695,56.214,130.053,55.475z"/>
			<path fill="#FEDF6C" d="M58.667,66.527c-0.017-0.121-0.081-0.329-0.043-0.35c1.038-0.567,0.969-1.66,1.251-2.586
				c1.061-3.488,2.361-6.888,4.347-9.953c0.528-0.815,0.027-1.36,0.065-2.026c2.476,1.589,4.982,3.133,7.373,4.851
				c0.78,0.81,0.633,1.597,0.092,2.508c-1.405,2.366-2.399,4.915-3.072,7.581c-0.214,0.849-0.617,1.462-1.481,1.714
				C64.355,67.687,61.511,67.107,58.667,66.527z"/>
			<path fill="#FEDD66" d="M92.868,40.174c-2.04,0.935-4.116,1.791-6.109,2.831c-1.938,1.012-3.756,2.215-5.597,3.383
				c-1.543-2.362-3.089-4.723-4.626-7.088c-0.224-0.345-0.536-0.643-0.61-1.075c1.189,0.488,2.022-0.28,2.963-0.787
				c3.275-1.762,6.641-3.328,10.306-4.098c0.84-0.176,1.379-0.721,2.042-1.124c0.279,2.447,1.087,4.783,1.493,7.203
				C92.771,39.673,92.821,39.923,92.868,40.174z"/>
			<path fill="#FEE480" d="M67.198,68.266c-0.009-0.092-0.033-0.262-0.024-0.263c0.966-0.189,1.045-1.019,1.242-1.74
				c0.682-2.489,1.58-4.892,2.887-7.124c0.504-0.861,0.889-1.696,0.356-2.675c0.728,0.456,1.457,0.912,2.185,1.368
				c-0.094,0.712,0.122,1.434-0.072,2.142c-0.128,2.12-0.11,4.24-0.007,6.361c0.062,1.122,0.123,2.244,0.185,3.367
				C71.7,69.223,69.449,68.745,67.198,68.266z"/>
			<path fill="#B8856F" d="M107.968,64.411c-0.395-0.066-0.791-0.132-1.186-0.199c-0.486-0.258-0.953-0.526-1.359,0.158
				c-0.087,0.147-0.4,0.223-0.608,0.222c-0.616-0.004-1.108,0.277-1.602,0.586c-1.198,0.75-1.837,0.588-2.472-0.631
				c-0.259-0.497-0.515-0.988-1.168-1.038c-0.885-0.713-1.585-1.58-2.134-2.572c-0.518-1.161-2.501-2.082-3.567-1.596
				c-1.314,0.598-2.587,0.288-3.834-0.126c-0.844-0.28-0.941-0.995-0.342-1.676c0.391-0.445,0.861-0.769,1.407-0.996
				c0.251-0.104,0.631-0.081,0.654-0.466c0.018-0.287-0.224-0.48-0.443-0.588c-0.411-0.202-0.588,0.213-0.749,0.432
				c-0.856,1.164-2.143,1.942-2.859,3.229c-0.133,0.239-0.358,0.609-0.532-0.002c1.144-2.06,2.677-3.834,4.186-5.619
				c1.079-1.276,2.195-2.528,3.557-3.526c0.435,0.463,0.801,0.113,1.065-0.17c0.677-0.726,1.216-0.595,1.847,0.08
				c2.136,2.283,4.447,4.392,6.563,6.701c0.967,1.055,2.085,2.006,3.132,3.007c0.53,0.506,1.03,0.425,1.513-0.077
				c0.66-0.686,1.414-1.201,2.395-1.299c0.319-0.032,0.663-0.134,0.786,0.317c-0.235,0.382-0.659,0.359-1.018,0.462
				c-1.806,0.521-2.835,1.852-2.915,3.738C108.261,63.323,108.44,63.934,107.968,64.411z"/>
			<path fill="#FEFEFE" d="M97.44,60.938c0.923,0.682,1.616,1.554,2.134,2.572c0.283,1.148,0.533,2.281,0.225,3.484
				c-0.43,1.682-2.226,3.535-4.304,3.044c-0.032-0.173,0.032-0.325,0.157-0.425c1.273-1.014,1.39-2.414,1.307-3.88
				c-0.154-0.708-0.442-1.351-0.934-1.893c-1.031-0.591-1.856-0.432-2.479,0.524c-0.716,1.101-0.738,2.3-0.421,3.534
				c0.101,0.393,0.389,0.762,0.162,1.2c-1.669-1.059-2.228-2.703-2.19-4.539c0.037-1.794,0.844-3.234,2.562-3.984
				C94.963,60.006,96.216,60.429,97.44,60.938z"/>
			<path fill="#221E1F" d="M93.287,69.099c-0.941-1.607-0.999-3.25-0.075-4.863c0.739-1.289,1.841-1.46,3.073-0.577
				c0.082,0.401-0.294,0.431-0.494,0.588c-0.43,0.338-0.556,0.76-0.405,1.269c0.195,0.66,0.663,0.817,1.227,0.423
				c0.196-0.137,0.314-0.425,0.631-0.328c0.312,2.184-0.229,3.555-1.75,4.427C94.537,70.246,93.848,69.822,93.287,69.099z"/>
			<path fill="#BD9281" d="M112.196,73.334c-1.059,0.075-2.071-0.067-2.975-0.632c-0.924-0.578-0.937-1.373,0.047-1.831
				c1.931-0.898,3.936-0.891,5.871-0.015c1.029,0.466,1.005,1.29,0.021,1.88C114.247,73.284,113.233,73.409,112.196,73.334z"/>
			<path fill="#7E5146" d="M99.756,68.199c-0.688,2.243-3.011,3.577-4.941,2.938C97,71.23,98.464,70.066,99.756,68.199z"/>
			<path fill="#FEFEFE" d="M107.968,64.411c-0.011-0.672-0.081-1.349-0.022-2.014c0.2-2.255,1.809-3.677,4.273-3.833
				c2.19,0.283,3.522,1.642,4.199,3.61c0.673,1.956,0.392,3.807-1.169,5.325c-0.114,0.11-0.217,0.231-0.325,0.348
				c-0.643-0.43-1.285-0.86-1.928-1.29c-0.354-0.63-0.031-1.299-0.111-1.943c-0.142-0.718-0.357-1.405-0.857-1.967
				c-1.024-0.946-2.131-0.669-2.872,0.695c-0.224,0.412-0.183,0.971-0.673,1.236C108.273,64.639,108.106,64.569,107.968,64.411z"/>
			<path fill="#56382B" d="M105.29,55.52c1.997-0.823,3.984-1.675,6.08-2.224c0.318-0.083,0.744-0.362,0.944,0.029
				c0.152,0.298-0.255,0.549-0.478,0.766c-1.36,1.318-3.011,2.053-4.857,2.386c-0.51-0.028-1.025-0.026-1.529-0.097
				c-0.261-0.037-0.647-0.05-0.696-0.389C104.71,55.675,105.143,55.72,105.29,55.52z"/>
			<path fill="#3A241D" d="M79.979,68.878c-0.205,0.382-0.403,0.781-0.931,0.389c-0.509-0.628-0.367-1.411-0.484-2.126
				c-0.401-2.447-0.756-4.901-1.246-7.332c-0.024-0.119-0.06-0.255-0.043-0.27c0.146,0.797,0.294,1.67,0.458,2.54
				c0.537,2.845,0.892,5.716,1.28,8.583c0.031,0.23,0.01,0.453-0.179,0.623c-0.286,0.205-0.608,0.148-0.929,0.134
				c-1.25-0.055-1.9,0.379-2.37,1.537c-0.164,0.405-0.167,0.901-0.611,1.16c-0.271-0.063-0.335-0.259-0.347-0.507
				c-0.227-4.604-0.649-9.213-0.349-13.818c0.203-3.103,0.494-6.278,2.701-8.799c1.34-1.53,2.764-2.978,4.446-4.148
				c2.037-1.417,4.057-2.859,6.391-3.771c0.127,0.53-0.3,0.735-0.604,0.995c-0.415,0.356-0.872,0.661-1.299,1.004
				c-0.398,0.319-0.647,0.717-0.656,1.236c-0.034,2.06-0.038,4.12,0.003,6.18c0.002,0.094,0.039,0.185,0.185,0.29
				c0.757-0.613,1.241-1.514,2.005-2.137c0.334-0.273,0.584-0.722,1.133-0.576c0.002,0.061,0.005,0.122,0.008,0.183
				c-0.362,1.008-1.146,1.739-1.743,2.588c-2.555,3.632-4.611,7.504-5.877,11.775c-0.365,1.232-0.498,2.508-0.723,3.767
				C80.167,68.568,80.182,68.768,79.979,68.878z"/>
			<path fill="#40271F" d="M88.535,50.065c-1.012,0.804-1.872,1.752-2.643,2.786c-0.214,0.287-0.507,0.66-0.825,0.56
				c-0.405-0.128-0.198-0.619-0.201-0.946c-0.018-1.962,0.009-3.925-0.018-5.888c-0.011-0.803,0.224-1.38,0.918-1.874
				c0.695-0.494,1.486-0.902,2-1.629c2.604-1.585,5.464-2.558,8.342-3.489c0.388-0.125,0.787-0.216,1.235-0.223
				c-0.638,0.415-1.308,0.763-1.934,1.18c-0.49,0.327-0.729,0.689-0.658,1.268c0.138,1.128-0.358,1.969-1.156,2.723
				c-1.543,1.46-2.888,3.105-4.266,4.717C89.084,49.538,88.801,49.794,88.535,50.065z"/>
			<path fill="#B27B62" d="M74.925,74.116c0.047-0.551,0.175-1.082,0.401-1.587c0.6-1.346,1.585-1.726,3.303-1.275
				c0.188,0.07,0.45-0.089,0.574,0.182c0.332,0.248,0.665,0.496,0.997,0.744c-0.562,0.032-0.785,0.297-0.795,0.889
				c-0.011,0.675,0.225,1.387-0.18,2.03c-0.743,0.36-1.101-0.518-1.63-0.479c0.382,0.276,1.142,0.275,1.243,1.061
				c-0.141,2.012-0.282,4.025-0.423,6.037c-1.81-1.2-2.649-3.029-3.223-5.02c-0.132-0.458-0.18-0.94-0.267-1.411
				C74.925,74.898,74.925,74.507,74.925,74.116z"/>
			<path fill="#695450" d="M79.979,68.878c0.246-4.056,1.802-7.696,3.645-11.226c1.376-2.636,3.104-5.053,4.919-7.405
				c0.073,0.067,0.145,0.133,0.218,0.2c-3.313,4.263-6.112,8.807-7.581,14.061c-0.468,1.676-0.782,3.387-0.824,5.183
				C79.866,69.539,80.056,69.149,79.979,68.878z"/>
			<path fill="#FEDF6C" d="M73.765,66.334c-0.351-1.483-0.105-2.988-0.148-4.481c-0.018-0.623-0.179-1.278,0.155-1.88
				C73.77,62.094,73.768,64.214,73.765,66.334z"/>
			<path fill="#221E1F" d="M113.16,64.444c0.05,0.712,0.097,1.424-0.164,2.112c-1.448-0.788-3.015-1.306-4.514-1.979
				c0.051-0.658,0.262-1.262,0.63-1.809c0.863-1.283,1.998-1.395,3.148-0.315c0.057,0.335-0.239,0.31-0.415,0.407
				c-0.648,0.357-0.84,0.99-0.468,1.584c0.409,0.654,0.869,0.474,1.346,0.074C112.844,64.415,112.995,64.355,113.16,64.444z"/>
			<path fill="#604A46" d="M79.203,71.435c-0.191-0.061-0.383-0.121-0.574-0.182c0.496-0.778,0.047-1.584-0.041-2.33
				c-0.355-3.023-0.782-6.041-1.407-9.025c-0.06-0.286-0.11-0.565,0.035-1.098c0.834,3.604,1.292,7.044,1.833,10.467
				C79.1,69.99,79.152,70.713,79.203,71.435z"/>
			<path fill="#6C463C" d="M82.705,71.805c0.189,0.061,0.33,0.178,0.412,0.362c-0.004,1.114-0.006,2.228-0.014,3.342
				c-0.001,0.187,0.009,0.439-0.246,0.44c-0.221,0.001-0.304-0.228-0.298-0.422C82.594,74.286,82.368,73.034,82.705,71.805z"/>
			<path fill="#7D5348" d="M87.181,84.598c-0.343-0.043-0.375-0.293-0.375-0.565c0-1.186-0.006-2.373,0.005-3.559
				c0.002-0.229-0.042-0.598,0.401-0.33C87.309,81.63,87.365,83.115,87.181,84.598z"/>
			<path fill="#80554A" d="M85.924,74.897c0,0.922,0,1.845,0,2.767c-0.054,0.005-0.108,0.01-0.162,0.015c0-0.929,0-1.859,0-2.788
				C85.816,74.893,85.87,74.895,85.924,74.897z"/>
			<path fill="#4B2D23" d="M87.181,84.598c0.01-1.485,0.02-2.969,0.031-4.454C87.464,81.631,87.538,83.116,87.181,84.598z"/>
			<path fill="#7B4E44" d="M78.838,75.681c-0.657-0.552-1.358-1.036-2.154-1.39c0.925,0.043,1.723,0.459,2.542,0.808
				c0.697,0.85,1.56,1.589,1.901,2.737c-0.453-0.026-0.466-0.461-0.734-0.609C79.95,76.636,79.447,76.105,78.838,75.681z"/>
			<path fill="#56382B" d="M91.04,58.936c-0.193,0.013-0.388,0.053-0.577,0.034c-0.356-0.037-0.789-0.134-0.866-0.482
				c-0.077-0.348,0.392-0.501,0.639-0.594c1.985-0.747,3.919-1.641,5.989-2.149c0.292-0.072,0.707-0.291,0.881,0.032
				c0.168,0.311-0.209,0.571-0.435,0.784C95.087,58.041,93.212,58.844,91.04,58.936z"/>
			<path fill="#908E8E" d="M97.245,65.611c-0.35,0.499-0.56,1.251-1.414,0.935c-0.655-0.242-0.864-0.823-0.854-1.466
				c0.012-0.77,0.354-1.274,1.205-1.281c0.035,0,0.07-0.091,0.104-0.139C96.808,64.211,97.127,64.862,97.245,65.611z"/>
			<path fill="#918F8F" d="M113.16,64.444c-0.03,0.011-0.07,0.014-0.089,0.035c-0.39,0.442-0.693,1.112-1.463,0.714
				c-0.703-0.364-0.832-1.032-0.739-1.746c0.105-0.81,0.699-0.981,1.391-0.994C112.77,63.021,113.063,63.688,113.16,64.444z"/>
		</g>
	</g>
</g>
</svg>
