<?xml version="1.0" encoding="utf-8"?>
<!-- Generator: Adobe Illustrator 17.0.0, SVG Export Plug-In . SVG Version: 6.00 Build 0)  -->
<!DOCTYPE svg PUBLIC "-//W3C//DTD SVG 1.1//EN" "http://www.w3.org/Graphics/SVG/1.1/DTD/svg11.dtd">
<svg version="1.1" id="icon" xmlns="http://www.w3.org/2000/svg" xmlns:xlink="http://www.w3.org/1999/xlink" x="0px" y="0px"
	 width="200px" height="150px" viewBox="0 0 200 150" enable-background="new 0 0 200 150" xml:space="preserve">
<linearGradient id="SVGID_1_" gradientUnits="userSpaceOnUse" x1="884" y1="922" x2="884" y2="1072" gradientTransform="matrix(1 0 0 1 -784 -922)">
	<stop  offset="0" style="stop-color:#333331"/>
	<stop  offset="1" style="stop-color:#2A2A29"/>
</linearGradient>
<rect fill="url(#SVGID_1_)" width="200" height="150"/>
<path id="church_metrics_logomark" fill="#FFFFFF" d="M60.5,35.5v79h79v-79H60.5z M86.324,89.338
	c-7.405,0-12.617-5.895-12.617-13.264c0-7.297,5.356-12.869,12.473-12.869c3.595,0,9.454,1.546,9.454,5.356v2.085h-2.373v-1.402
	c0-2.372-4.098-3.666-7.009-3.666c-5.607,0-9.921,4.385-9.921,10.496c0,6.039,4.277,10.892,10.029,10.892
	c5.212,0,8.268-3.559,8.268-3.559l1.438,1.834C96.065,85.241,92.579,89.338,86.324,89.338z M126.906,88.907h-2.445
	c-1.545,0-2.085-0.647-2.193-2.193l-1.186-15.35c-0.107-1.366-0.107-3.523-0.107-3.523h-0.072c0,0-0.683,2.229-1.295,3.523
	l-6.003,12.833h-2.264l-5.967-12.833c-0.575-1.258-1.33-3.594-1.33-3.594h-0.072c0,0,0,2.229-0.108,3.594l-1.186,15.35
	c-0.107,1.545-0.647,2.193-2.193,2.193h-2.408v-2.229h1.33c0.503,0,0.755-0.252,0.791-0.79l1.761-22.251h2.553l6.686,14.702
	c0.611,1.294,1.258,2.983,1.258,2.983h0.072c0,0,0.647-1.69,1.223-2.983l6.686-14.702h2.552l1.761,22.251
	c0.036,0.539,0.288,0.79,0.791,0.79h1.366V88.907z"/>
</svg>
