<?xml version="1.0" encoding="utf-8"?>
<!-- Generator: Adobe Illustrator 17.0.0, SVG Export Plug-In . SVG Version: 6.00 Build 0)  -->
<!DOCTYPE svg PUBLIC "-//W3C//DTD SVG 1.1//EN" "http://www.w3.org/Graphics/SVG/1.1/DTD/svg11.dtd">
<svg version="1.1" id="icon" xmlns="http://www.w3.org/2000/svg" xmlns:xlink="http://www.w3.org/1999/xlink" x="0px" y="0px"
	 width="200px" height="150px" viewBox="0 0 200 150" enable-background="new 0 0 200 150" xml:space="preserve">
<linearGradient id="SVGID_1_" gradientUnits="userSpaceOnUse" x1="492" y1="461" x2="492" y2="611" gradientTransform="matrix(1 0 0 1 -392 -461)">
	<stop  offset="0" style="stop-color:#4BD0EF"/>
	<stop  offset="1" style="stop-color:#29AAE1"/>
</linearGradient>
<rect fill="url(#SVGID_1_)" width="200" height="150"/>
<path fill="#FFFFFF" d="M144.796,50.392c-3.074,1.364-6.377,2.287-9.849,2.701c3.544-2.122,6.259-5.485,7.541-9.487
	c-3.311,1.965-6.981,3.393-10.892,4.161c-3.127-3.332-7.585-5.413-12.517-5.413c-9.468,0-17.146,7.675-17.146,17.148
	c0,1.342,0.151,2.652,0.442,3.909c-14.252-0.716-26.888-7.543-35.345-17.917c-1.477,2.534-2.322,5.479-2.322,8.622
	c0,5.949,3.028,11.197,7.629,14.272c-2.811-0.088-5.454-0.859-7.769-2.144c0,0.071,0,0.143,0,0.217
	c0,8.309,5.91,15.238,13.755,16.813c-1.441,0.395-2.954,0.601-4.518,0.601c-1.106,0-2.18-0.104-3.228-0.302
	c2.182,6.81,8.515,11.768,16.017,11.908c-5.869,4.601-13.264,7.343-21.296,7.343c-1.384,0-2.751-0.082-4.093-0.244
	c7.59,4.867,16.602,7.708,26.287,7.708c31.541,0,48.791-26.13,48.791-48.791c0-0.744-0.016-1.482-0.052-2.218
	C139.589,56.851,142.499,53.831,144.796,50.392z"/>
</svg>
