<?xml version="1.0" encoding="utf-8"?>
<!-- Generator: Adobe Illustrator 17.0.0, SVG Export Plug-In . SVG Version: 6.00 Build 0)  -->
<!DOCTYPE svg PUBLIC "-//W3C//DTD SVG 1.1//EN" "http://www.w3.org/Graphics/SVG/1.1/DTD/svg11.dtd">
<svg version="1.1" id="brand" xmlns="http://www.w3.org/2000/svg" xmlns:xlink="http://www.w3.org/1999/xlink" x="0px" y="0px"
	 width="227.333px" height="282.333px" viewBox="0 0 227.333 282.333" enable-background="new 0 0 227.333 282.333"
	 xml:space="preserve">
<g>
	<path fill="#FFFFFF" d="M33.727,40.124c1.059,2.594,1.885,6.367,1.885,9.55c-0.472,0.826-2.241,1.062-2.83,0.354
		c-2.003-5.188-5.542-8.607-10.376-8.607c-4.6,0-7.547,2.948-7.547,7.193c0,4.835,4.952,7.428,9.079,9.787
		c6.25,3.537,12.027,7.546,12.027,15.918c0,8.96-8.255,13.441-16.98,13.441c-5.542,0-9.669-1.179-12.616-3.537
		c-0.943-2.239-1.651-8.018-1.415-11.909c0.59-0.707,2.122-0.825,2.713-0.119c2.003,6.487,5.777,12.148,12.497,12.148
		c4.245,0,7.899-2.478,7.899-7.547c0-5.425-4.715-8.373-9.078-10.848c-6.838-3.89-11.672-8.017-11.672-14.502
		c0-8.607,7.073-13.443,16.035-13.443C28.302,38.001,32.664,39.181,33.727,40.124z"/>
	<path fill="#FFFFFF" d="M120.697,83.514l-2.83-0.353c-4.244-0.59-4.482-1.767-4.482-10.257V52.622
		c0-8.136-4.597-14.621-14.03-14.621c-5.542,0-11.32,2.712-16.036,6.014c-1.06,0.708-1.886,1.179-2.948,0.943
		c-3.302-4.833-6.604-6.956-12.498-6.956c-4.957,0-9.822,2.17-13.962,4.847c-0.042,1.373-0.289,2.705-0.324,4.1
		c1.895-1.759,4.879-3.288,8.979-3.288c7.311,0,10.848,4.245,10.848,12.144v17.099c0,8.49-0.118,9.55-4.481,10.257l-2.121,0.353
		c-0.826,0.589-0.591,2.594,0.236,2.948c3.302-0.236,6.484-0.354,10.731-0.354c4.126,0,7.545,0.118,11.082,0.354
		c0.826-0.354,1.062-2.36,0.235-2.948l-2.475-0.353c-4.244-0.59-4.481-1.767-4.481-10.257V54.862c0-4.126,0.353-5.305,1.769-7.073
		c1.651-2.123,5.305-4.128,9.785-4.128c7.429,0,10.966,4.128,10.966,12.144v17.099c0,8.49-0.117,9.55-4.481,10.257l-2.121,0.353
		c-0.826,0.589-0.589,2.594,0.236,2.948c3.302-0.236,6.485-0.354,10.73-0.354c4.127,0,7.546,0.118,11.436,0.354
		C121.287,86.108,121.521,84.103,120.697,83.514z"/>
	<path fill="#FFFFFF" d="M147.321,61.703c1.771-0.591,2.007-1.652,2.007-3.42l0.117-5.426c0.117-4.361-1.298-10.258-8.608-10.258
		c-3.301,0-7.309,1.651-7.544,5.307c-0.119,1.887-0.237,3.302-1.18,4.008c-1.769,1.416-4.953,2.241-6.721,2.241
		c-1.062,0-1.651-0.591-1.651-1.651c0-6.132,13.322-14.504,21.932-14.504c8.487,0,12.615,4.953,12.261,13.796l-0.706,20.516
		c-0.237,5.425,0.824,10.258,5.422,10.258c1.18,0,2.241-0.354,2.948-0.708c0.591-0.353,1.179-0.824,1.534-0.824
		c0.469,0,0.825,0.707,0.825,1.532c0,0.59-4.128,5.187-9.906,5.187c-2.828,0-5.659-1.062-7.665-3.656
		c-0.47-0.706-1.18-1.649-1.885-1.649c-0.825,0-2.241,1.06-4.6,2.358c-2.592,1.415-5.19,2.947-8.491,2.947
		c-3.416,0-6.246-0.943-8.252-2.711c-2.24-2.005-3.656-4.953-3.656-8.253c0-4.601,2.242-7.31,9.79-10.024L147.321,61.703z
		 M140.012,82.454c2.359,0,6.012-1.768,7.191-2.948c1.415-1.415,1.415-3.067,1.533-5.542l0.235-6.957
		c0-1.296-0.469-1.533-1.178-1.533c-0.707,0-2.711,0.471-4.832,1.18c-6.959,2.356-10.377,4.127-10.377,8.725
		C132.584,77.383,134,82.454,140.012,82.454z"/>
	<path fill="#FFFFFF" d="M186.288,72.903c0,8.49,0.235,9.668,4.482,10.257l2.829,0.353c0.824,0.589,0.59,2.594-0.236,2.948
		c-3.892-0.236-7.309-0.354-11.437-0.354c-4.245,0-7.782,0.118-11.319,0.354c-0.825-0.354-1.06-2.36-0.237-2.948l2.712-0.353
		c4.362-0.59,4.482-1.767,4.482-10.257V19.607c0-6.957-0.119-7.666-3.657-9.786l-1.178-0.708c-0.587-0.355-0.587-2.004,0-2.358
		c2.947-0.943,8.492-2.714,12.735-4.952c0.47,0,0.943,0.235,1.179,0.707c-0.119,3.538-0.354,9.431-0.354,14.62V72.903z"/>
	<path fill="#FFFFFF" d="M213.942,72.903c0,8.49,0.237,9.668,4.483,10.257l2.829,0.353c0.824,0.589,0.59,2.594-0.235,2.948
		c-3.893-0.236-7.312-0.354-11.439-0.354c-4.243,0-7.78,0.118-11.32,0.354c-0.824-0.354-1.059-2.36-0.235-2.948l2.715-0.353
		c4.362-0.59,4.476-1.767,4.476-10.257V19.607c0-6.957-0.114-7.666-3.653-9.786l-1.178-0.708c-0.592-0.355-0.592-2.004,0-2.358
		c2.945-0.943,8.488-2.714,12.734-4.952c0.47,0,0.944,0.235,1.178,0.707c-0.118,3.538-0.355,9.431-0.355,14.62V72.903z"/>
	<path fill="#FFFFFF" d="M23.257,102.496c-1.685,0-1.784,0.297-1.784,2.378v18.529c0,5.746,0.693,10.998,7.232,10.998
		c0.992,0,1.883-0.198,2.675-0.495c0.892-0.298,2.181-1.388,2.478-1.388c0.792,0,1.188,1.091,0.99,1.685
		c-1.782,2.081-5.349,4.558-10.404,4.558c-8.521,0-10.304-4.756-10.304-10.701v-22.689c0-2.675-0.099-2.873-2.081-2.873
		l-5.716-0.047c-0.594-0.396-0.693-1.486-0.297-2.081c2.873-0.891,8.292-2.133,9.282-3.026c1.289-1.189,3.17-3.864,4.161-5.845
		c0.497-0.199,1.685-0.199,2.081,0.496v4.458c0,1.784,0.099,1.883,1.784,1.883h10.998c1.19,0.892,0.991,3.567,0.099,4.162H23.257z"
		/>
	<path fill="#FFFFFF" d="M43.677,54.458c0-5.845-0.099-6.441-3.071-8.224l-0.991-0.594c-0.496-0.298-0.496-1.685,0-1.982
		c2.477-0.792,7.135-2.279,10.702-4.161c0.396,0,0.792,0.198,0.99,0.594c-0.099,2.973-0.296,7.926-0.296,12.286l-0.157,47.838
		c0,0.893,0.099,1.685,0.397,1.883c3.567-2.774,8.323-5.152,13.375-5.152c9.413,0,12.782,5.846,12.782,12.781v16.547
		c0,7.135,0.199,8.225,3.767,8.62l2.674,0.298c0.694,0.495,0.497,2.181-0.198,2.477c-3.567-0.198-6.44-0.296-9.908-0.296
		c-3.567,0-6.54,0.098-9.215,0.296c-0.694-0.296-0.891-1.982-0.198-2.477l1.982-0.298c3.665-0.594,3.764-1.486,3.764-8.62v-14.168
		c0-6.342-3.071-10.602-9.413-10.602c-3.369,0-5.945,1.189-7.728,2.675c-1.784,1.486-2.081,1.98-2.081,5.448v16.646
		c0,7.135,0.198,8.125,3.765,8.62l2.081,0.298c0.693,0.396,0.495,2.181-0.198,2.477c-2.973-0.198-5.846-0.296-9.313-0.296
		c-3.567,0-6.54,0.098-9.71,0.296c-0.693-0.296-0.892-1.982-0.198-2.477l2.477-0.298c3.666-0.396,3.765-1.486,3.765-8.62
		L43.677,54.458z"/>
	<path fill="#FFFFFF" d="M92.729,108.935c0-3.864,0-4.359-2.675-6.143l-0.891-0.594c-0.396-0.396-0.396-1.487,0.099-1.784
		c2.28-0.792,7.926-3.369,10.205-4.854c0.496,0,0.892,0.198,0.992,0.594c-0.2,3.468-0.397,8.225-0.397,12.287v17.834
		c0,7.135,0.197,8.125,3.766,8.62l2.08,0.298c0.693,0.495,0.495,2.181-0.198,2.477c-2.972-0.198-5.846-0.296-9.313-0.296
		c-3.567,0-6.54,0.098-9.314,0.296c-0.694-0.296-0.892-1.982-0.198-2.477l2.081-0.298c3.665-0.495,3.764-1.486,3.764-8.62V108.935z"
		/>
	<path fill="#FFFFFF" d="M114.52,108.935c0-3.864,0-4.359-2.675-6.143l-0.891-0.594c-0.397-0.396-0.397-1.487,0.099-1.784
		c2.279-0.792,7.925-3.369,9.907-4.854c0.397,0,0.892,0.198,1.091,0.693c-0.198,2.279-0.198,3.765-0.198,4.656
		c0,0.596,0.396,1.091,1.09,1.091c4.161-2.577,8.819-5.054,13.871-5.054c8.224,0,11.592,5.648,11.592,12.286v17.042
		c0,7.135,0.198,8.125,3.766,8.62l2.181,0.298c0.692,0.495,0.493,2.181-0.198,2.477c-2.972-0.198-5.845-0.296-9.315-0.296
		c-3.568,0-6.539,0.098-9.213,0.296c-0.695-0.296-0.893-1.982-0.198-2.477l1.881-0.298c3.666-0.594,3.765-1.486,3.765-8.62v-14.763
		c0-5.647-2.575-9.808-9.312-9.808c-3.766,0-7.035,1.585-8.423,3.468c-1.288,1.684-1.486,3.071-1.486,5.945v15.159
		c0,7.135,0.198,8.026,3.766,8.62l1.783,0.298c0.693,0.495,0.494,2.181-0.198,2.477c-2.675-0.198-5.549-0.296-9.017-0.296
		c-3.567,0-6.539,0.098-9.314,0.296c-0.693-0.296-0.892-1.982-0.198-2.477l2.081-0.298c3.666-0.495,3.764-1.486,3.764-8.62V108.935z
		"/>
	<path fill="#FFFFFF" d="M196.717,100.514h-8.027c-2.178,0-2.87-0.198-6.043-1.585c-2.278-0.99-5.748-1.982-9.51-1.982
		c-8.818,0-16.152,6.44-16.152,14.962c0,6.341,4.064,10.205,7.432,11.989c0,0.495-0.493,1.287-0.992,1.882
		c-1.684,1.784-3.566,3.468-5.251,4.558c-1.089,0.792-1.486,1.188-1.486,1.684c0,3.468,3.369,6.836,7.236,7.828
		c0.888,0.594,0.097,1.486-0.796,2.378c-2.278,2.278-5.051,4.855-6.737,6.638c-0.558,0.637-0.91,1.601-1.032,2.772
		c2.424-1.462,5.686-2.309,7.454-2.744c0.397-3.274,2.527-5.917,4.677-7.261c1.387-0.891,5.348-1.089,8.519-1.089h3.37
		c7.134,0,11.296,2.576,11.296,8.62c0,5.649-5.846,10.603-14.666,10.603c-5.41,0-9.077-1.624-11.168-4.066
		c-1.714,0.557-5.288,2.622-6.506,3.948c2.558,2.437,7.002,4.378,13.417,4.378c12.879,0,24.669-7.926,24.669-18.727
		c0-9.908-8.322-10.898-13.871-10.898c-4.358,0-8.422,0.296-11.79,0.296c-4.657,0-6.937-1.881-6.937-4.161
		c0-2.873,3.171-4.756,4.361-5.449c1.188,0.098,2.576,0.297,4.359,0.297c12.581,0,16.644-8.918,16.644-15.754
		c0-1.684,0-3.369-0.198-5.052h7.137C197.607,104.379,197.805,101.01,196.717,100.514z M174.027,122.509
		c-4.757,0-9.018-4.557-9.018-11.592c0-6.737,3.568-11.097,8.325-11.097c6.044,0,8.817,5.648,8.817,12.385
		C182.151,118.249,179.378,122.509,174.027,122.509z"/>
	<path fill="#FFFFFF" d="M221.498,98.731c0.893,2.178,1.585,5.351,1.585,8.025c-0.397,0.694-1.882,0.892-2.377,0.297
		c-1.685-4.359-4.657-7.232-8.718-7.232c-3.867,0-6.343,2.477-6.343,6.044c0,4.062,4.161,6.242,7.628,8.224
		c5.253,2.972,10.109,6.341,10.109,13.376c0,7.53-6.939,11.295-14.268,11.295c-4.657,0-8.126-0.991-10.604-2.971
		c-0.791-1.883-1.386-6.739-1.188-10.008c0.497-0.595,1.784-0.693,2.28-0.099c1.685,5.45,4.855,10.206,10.503,10.206
		c3.565,0,6.639-2.08,6.639-6.341c0-4.558-3.964-7.037-7.629-9.116c-5.749-3.269-9.81-6.737-9.81-12.187
		c0-7.233,5.946-11.296,13.475-11.296C216.942,96.947,220.606,97.938,221.498,98.731z"/>
	<path fill="#FFFFFF" d="M20.12,168.53c0-10.91-0.591-13.711-7.226-14.301l-4.719-0.443c-1.178-0.886-1.03-3.096,0.15-3.685
		c7.961-0.739,17.987-1.18,31.703-1.18c9.289,0,18.134,0.734,24.769,4.127c6.342,3.097,11.209,8.994,11.209,18.432
		c0,10.617-6.191,16.072-15.039,20.201c0,1.475,1.177,1.918,2.798,2.212c7.964,1.473,19.76,8.847,19.76,24.626
		c0,17.105-12.682,28.602-39.221,28.602c-4.276,0-11.502-0.439-17.693-0.439c-6.49,0-11.503,0.295-16.959,0.439
		c-0.885-0.439-1.177-2.796-0.294-3.685l2.652-0.441c7.814-1.328,8.11-2.951,8.11-18.433V168.53z M32.215,188.142
		c0,4.128,0.144,4.424,7.663,4.128c15.043-0.59,23.151-5.013,23.151-18.875c0-14.45-10.763-19.905-21.972-19.905
		c-3.241,0-5.455,0.296-6.78,0.885c-1.475,0.444-2.062,1.18-2.062,3.835V188.142z M32.215,222.349c0,5.307,0.294,12.828,3.092,16.07
		c2.803,3.393,7.228,4.132,11.654,4.132c13.122,0,23.149-5.899,23.149-20.645c0-11.65-5.902-25.213-29.348-25.213
		c-7.961,0-8.547,0.886-8.547,3.835V222.349z"/>
	<path fill="#FFFFFF" d="M99.019,171.774c0-15.629-0.293-18.137-8.996-18.874l-3.688-0.296c-0.883-0.588-0.588-3.242,0.294-3.684
		c7.378,0.294,12.389,0.442,18.579,0.442c5.904,0,10.913-0.148,18.286-0.442c0.886,0.442,1.179,3.096,0.293,3.684l-3.684,0.296
		c-8.695,0.737-8.991,3.244-8.991,18.874v52.492c0,15.63,0.295,17.695,8.991,18.728l3.684,0.441c0.887,0.59,0.593,3.246-0.293,3.685
		c-7.373-0.296-12.382-0.439-18.286-0.439c-6.189,0-11.2,0.143-18.579,0.439c-0.882-0.439-1.177-2.796-0.294-3.685l3.688-0.441
		c8.703-1.032,8.996-3.097,8.996-18.728V171.774z"/>
	<path fill="#FFFFFF" d="M213.482,150.544c-1.769,0.292-6.336-0.741-9.135-1.329c-1.257-0.296-3.87-0.85-7.2-1.327
		c-0.241,1.666-1.001,4.206-1.913,5.513c7.957,2.683,13.747,8.42,16.479,18.963c0.886,0.883,3.541,0.737,3.987-0.443
		C214.367,163.074,213.482,155.408,213.482,150.544z"/>
	<path fill="#FFFFFF" d="M222.925,207.014c-4.866,0.296-9.876,0.447-15.63,0.447c-8.699,0-16.811-0.151-21.091-0.447
		c-1.026,0.447-1.178,3.098,0,3.689l6.492,0.736c9.141,1.033,9.587,1.916,9.587,14.305v5.893c0,4.718-0.741,7.371-1.474,8.406
		c-1.626,2.508-7.08,4.421-16.22,4.421c-29.635,0-44.235-22.263-44.235-50.573c0-22.118,12.531-42.466,41.136-42.466
		c2.429,0,5.038,0.196,7.249,0.481c0.64-1.309,0.959-2.727,0.53-4.801c-1.198-0.061-2.414-0.104-3.654-0.104
		c-22.259,0-36.864,6.93-46.74,17.253c-9.141,9.731-13.27,22.412-13.27,34.946c0,12.975,4.722,24.623,13.567,33.469
		c11.355,11.504,27.426,16.37,44.968,16.37c7.969,0,18.58-1.769,26.398-3.832c2.801-0.743,5.455-1.333,7.226-1.333
		c0.589-0.441,0.589-1.324,0.146-1.767c-2.656-1.032-3.542-4.573-3.542-10.47v-8.256c0-7.519,0.154-11.646,6.342-12.384l2.36-0.295
		C224.105,209.819,223.953,207.602,222.925,207.014z"/>
	<path fill="#FFFFFF" d="M11.134,259.704c0-2.686-0.193-3.493-1.806-3.725l-0.844-0.115c-0.308-0.191-0.347-0.804,0.037-0.958
		c3.264-0.194,6.374-0.308,9.638-0.308c3.223,0,5.952,0.229,8.446,1.152c5.183,1.882,7.795,6.257,7.795,11.326
		c0,4.875-2.34,9.06-6.719,11.443c-2.497,1.346-5.644,1.841-8.602,1.841c-2.455,0-4.913-0.307-6.258-0.307
		c-1.613,0-2.994,0.04-4.8,0.116c-0.23-0.116-0.305-0.73-0.075-0.96l0.882-0.114c2.229-0.307,2.306-0.769,2.306-4.801V259.704z
		 M14.281,273.411c0,2.034,0.114,3.264,0.768,4.187c0.844,1.19,2.303,1.574,4.72,1.574c7.453,0,10.791-4.877,10.791-12.017
		c0-4.226-2.034-11.368-12.096-11.368c-2.266,0-3.491,0.308-3.802,0.539c-0.304,0.23-0.381,1.188-0.381,2.915V273.411z"/>
	<path fill="#FFFFFF" d="M38.562,260.552c0-4.071-0.076-4.725-2.341-4.916l-0.959-0.077c-0.233-0.156-0.156-0.847,0.072-0.961
		c1.924,0.077,3.227,0.114,4.837,0.114c1.537,0,2.842-0.037,4.764-0.114c0.231,0.114,0.305,0.806,0.078,0.961l-0.962,0.077
		c-2.261,0.191-2.342,0.845-2.342,4.916v13.666c0,4.068,0.082,4.608,2.342,4.877l0.962,0.114c0.227,0.153,0.153,0.844-0.078,0.96
		c-1.922-0.077-3.227-0.116-4.764-0.116c-1.61,0-2.913,0.04-4.837,0.116c-0.228-0.116-0.306-0.73-0.072-0.96l0.959-0.114
		c2.265-0.27,2.341-0.809,2.341-4.877V260.552z"/>
	<path fill="#FFFFFF" d="M53.01,265.542c0,1.035,0.117,1.035,1.266,1.035h2.613c1.575,0,2.803-0.077,3.264-0.23
		c0.42-0.153,0.728-0.344,0.958-1.344l0.347-1.534c0.191-0.23,0.842-0.23,0.996,0c0,0.922-0.154,2.457-0.154,3.876
		c0,1.385,0.154,2.843,0.154,3.726c-0.154,0.23-0.729,0.23-0.996,0l-0.384-1.497c-0.193-0.692-0.501-1.231-1.231-1.46
		c-0.534-0.151-1.495-0.193-2.954-0.193h-2.613c-1.149,0-1.266,0.042-1.266,1.037v5.338c0,4.031,0.077,4.608,2.34,4.801l1.309,0.114
		c0.23,0.153,0.153,0.844-0.079,0.96c-2.262-0.077-3.569-0.116-5.105-0.116c-1.689,0-2.997,0.04-4.799,0.116
		c-0.231-0.116-0.307-0.73-0.076-0.96l0.961-0.114c2.226-0.27,2.303-0.769,2.303-4.801v-13.821c0-4.033-0.078-4.57-2.303-4.838
		l-0.618-0.077c-0.227-0.156-0.151-0.847,0.08-0.961c1.612,0.077,2.917,0.114,4.453,0.114h7.064c2.457,0,4.684,0,5.184-0.114
		c0,1.766,0.039,3.61,0.116,5.069c-0.116,0.23-0.652,0.344-0.921,0.115c-0.306-1.729-0.768-3.149-2.688-3.649
		c-0.847-0.23-2.113-0.23-3.725-0.23h-2.345c-1.149,0-1.149,0.076-1.149,1.537V265.542z"/>
	<path fill="#FFFFFF" d="M71.914,265.542c0,1.035,0.112,1.035,1.266,1.035h2.612c1.572,0,2.804-0.077,3.262-0.23
		c0.421-0.153,0.729-0.344,0.96-1.344l0.347-1.534c0.19-0.23,0.844-0.23,0.997,0c0,0.922-0.153,2.457-0.153,3.876
		c0,1.385,0.153,2.843,0.153,3.726c-0.153,0.23-0.728,0.23-0.997,0l-0.387-1.497c-0.191-0.692-0.498-1.231-1.226-1.46
		c-0.538-0.151-1.5-0.193-2.955-0.193H73.18c-1.154,0-1.266,0.042-1.266,1.037v5.338c0,4.031,0.074,4.608,2.341,4.801l1.304,0.114
		c0.232,0.153,0.153,0.844-0.077,0.96c-2.266-0.077-3.568-0.116-5.107-0.116c-1.688,0-2.992,0.04-4.798,0.116
		c-0.231-0.116-0.308-0.73-0.076-0.96l0.958-0.114c2.228-0.27,2.303-0.769,2.303-4.801v-13.821c0-4.033-0.076-4.57-2.303-4.838
		l-0.613-0.077c-0.233-0.156-0.154-0.847,0.077-0.961c1.613,0.077,2.918,0.114,4.452,0.114h7.066c2.458,0,4.684,0,5.184-0.114
		c0,1.766,0.038,3.61,0.116,5.069c-0.116,0.23-0.655,0.344-0.921,0.115c-0.311-1.729-0.769-3.149-2.69-3.649
		c-0.846-0.23-2.112-0.23-3.724-0.23h-2.341c-1.152,0-1.152,0.076-1.152,1.537V265.542z"/>
	<path fill="#FFFFFF" d="M87.665,260.474c0-3.993-0.079-4.57-2.345-4.838l-0.612-0.077c-0.232-0.156-0.153-0.847,0.077-0.961
		c1.652,0.077,2.955,0.114,4.53,0.114h7.218c2.462,0,4.722,0,5.185-0.114c0.23,0.652,0.46,3.419,0.612,5.107
		c-0.152,0.229-0.766,0.307-0.959,0.078c-0.577-1.805-0.92-3.149-2.914-3.649c-0.809-0.191-2.037-0.23-3.724-0.23h-2.767
		c-1.151,0-1.151,0.076-1.151,1.537v7.679c0,1.074,0.116,1.074,1.268,1.074h2.223c1.617,0,2.805-0.076,3.268-0.23
		c0.461-0.153,0.727-0.385,0.921-1.344l0.305-1.574c0.196-0.228,0.844-0.228,1,0.037c0,0.922-0.156,2.418-0.156,3.88
		c0,1.38,0.156,2.841,0.156,3.685c-0.156,0.27-0.804,0.27-1,0.037l-0.342-1.495c-0.156-0.693-0.423-1.269-1.191-1.46
		c-0.538-0.153-1.459-0.193-2.96-0.193h-2.223c-1.152,0-1.268,0.039-1.268,1.039v5.412c0,2.032,0.116,3.341,0.73,3.994
		c0.46,0.458,1.265,0.883,4.647,0.883c2.955,0,4.069-0.151,4.914-0.579c0.688-0.384,1.726-1.727,2.727-3.722
		c0.267-0.193,0.805-0.077,0.958,0.267c-0.267,1.344-1.226,4.301-1.729,5.338c-3.455-0.077-6.87-0.116-10.288-0.116h-3.457
		c-1.649,0-2.954,0.04-5.22,0.116c-0.23-0.116-0.308-0.73-0.079-0.96l1.27-0.114c2.188-0.193,2.381-0.769,2.381-4.801V260.474z"/>
	<path fill="#FFFFFF" d="M109.245,260.453c0-3.646-0.112-4.3-1.687-4.491l-1.229-0.155c-0.267-0.193-0.267-0.804,0.038-0.96
		c2.15-0.193,4.8-0.305,8.562-0.305c2.383,0,4.647,0.189,6.412,1.149c1.846,0.961,3.188,2.69,3.188,5.377
		c0,3.648-2.881,5.643-4.801,6.411c-0.192,0.231,0,0.616,0.192,0.922c3.073,4.954,5.103,8.025,7.719,10.215
		c0.651,0.576,1.612,0.997,2.65,1.074c0.188,0.077,0.23,0.384,0.036,0.537c-0.344,0.116-0.96,0.191-1.687,0.191
		c-3.266,0-5.225-0.958-7.95-4.836c-0.997-1.423-2.571-4.071-3.762-5.798c-0.578-0.846-1.191-1.23-2.73-1.23
		c-1.728,0-1.802,0.039-1.802,0.845v4.839c0,4.031,0.075,4.494,2.303,4.798l0.805,0.114c0.233,0.193,0.153,0.846-0.075,0.96
		c-1.729-0.075-3.034-0.114-4.571-0.114c-1.612,0-2.995,0.04-4.796,0.114c-0.232-0.114-0.31-0.69-0.082-0.96l0.962-0.114
		c2.228-0.267,2.304-0.767,2.304-4.798V260.453z M112.394,265.945c0,0.689,0,1.111,0.115,1.265c0.116,0.115,0.69,0.193,2.652,0.193
		c1.382,0,2.84-0.153,3.952-0.998c1.038-0.806,1.919-2.15,1.919-4.762c0-3.029-1.881-5.912-6.142-5.912
		c-2.382,0-2.496,0.154-2.496,1.23V265.945z"/>
	<path fill="#FFFFFF" d="M133.322,260.474c0-3.993-0.078-4.57-2.343-4.838l-0.615-0.077c-0.23-0.156-0.155-0.847,0.078-0.961
		c1.65,0.077,2.955,0.114,4.529,0.114h7.219c2.457,0,4.724,0,5.185-0.114c0.23,0.652,0.46,3.419,0.613,5.107
		c-0.152,0.229-0.765,0.307-0.963,0.078c-0.571-1.805-0.916-3.149-2.914-3.649c-0.807-0.191-2.033-0.23-3.726-0.23h-2.762
		c-1.151,0-1.151,0.076-1.151,1.537v7.679c0,1.074,0.114,1.074,1.267,1.074h2.224c1.612,0,2.807-0.076,3.267-0.23
		c0.459-0.153,0.728-0.385,0.921-1.344l0.305-1.574c0.193-0.228,0.847-0.228,1.002,0.037c0,0.922-0.155,2.418-0.155,3.88
		c0,1.38,0.155,2.841,0.155,3.685c-0.155,0.27-0.809,0.27-1.002,0.037l-0.344-1.495c-0.153-0.693-0.422-1.269-1.188-1.46
		c-0.536-0.153-1.458-0.193-2.96-0.193h-2.224c-1.153,0-1.267,0.039-1.267,1.039v5.412c0,2.032,0.114,3.341,0.728,3.994
		c0.46,0.458,1.266,0.883,4.648,0.883c2.957,0,4.071-0.151,4.915-0.579c0.692-0.384,1.726-1.727,2.728-3.722
		c0.267-0.193,0.807-0.077,0.959,0.267c-0.269,1.344-1.232,4.301-1.729,5.338c-3.458-0.077-6.873-0.116-10.292-0.116h-3.457
		c-1.648,0-2.954,0.04-5.22,0.116c-0.23-0.116-0.305-0.73-0.078-0.96l1.267-0.114c2.19-0.193,2.383-0.769,2.383-4.801V260.474z"/>
	<path fill="#FFFFFF" d="M175.807,273.528c0,1.153,0,5.721,0.116,6.721c-0.079,0.228-0.309,0.421-0.728,0.421
		c-0.465-0.653-1.576-1.997-4.917-5.8l-8.909-10.134c-1.036-1.192-3.649-4.34-4.454-5.186h-0.077
		c-0.153,0.463-0.192,1.348-0.192,2.499v8.369c0,1.806,0.038,6.795,0.692,7.948c0.23,0.423,0.994,0.653,1.958,0.73l1.191,0.114
		c0.228,0.309,0.191,0.769-0.076,0.96c-1.732-0.077-3.073-0.116-4.496-0.116c-1.613,0-2.649,0.04-3.993,0.116
		c-0.267-0.191-0.307-0.73-0.077-0.96l1.038-0.114c0.883-0.116,1.497-0.346,1.691-0.769c0.533-1.383,0.497-6.065,0.497-7.909V259.32
		c0-1.074-0.037-1.88-0.843-2.763c-0.539-0.537-1.461-0.807-2.383-0.921l-0.65-0.077c-0.233-0.233-0.233-0.809,0.078-0.961
		c1.61,0.114,3.645,0.114,4.335,0.114c0.614,0,1.269-0.037,1.766-0.114c0.769,1.959,5.299,7.027,6.567,8.447l3.722,4.186
		c2.652,2.956,4.531,5.106,6.343,6.95h0.072c0.157-0.193,0.157-0.807,0.157-1.613v-8.216c0-1.806-0.041-6.795-0.774-7.946
		c-0.23-0.35-0.842-0.579-2.379-0.769l-0.652-0.077c-0.27-0.233-0.23-0.847,0.08-0.961c1.764,0.077,3.068,0.114,4.53,0.114
		c1.648,0,2.646-0.037,3.952-0.114c0.306,0.192,0.306,0.728,0.08,0.961l-0.54,0.077c-1.227,0.191-1.997,0.498-2.146,0.804
		c-0.658,1.383-0.58,6.143-0.58,7.911V273.528z"/>
	<path fill="#FFFFFF" d="M183.787,257.363c2.802-2.19,6.376-3.264,10.365-3.264c2.074,0,4.993,0.421,6.794,0.921
		c0.464,0.117,0.733,0.193,1.074,0.153c0.044,0.882,0.234,3.301,0.54,5.647c-0.19,0.27-0.766,0.305-1.034,0.077
		c-0.581-2.613-2.308-5.607-7.874-5.607c-5.873,0-10.866,3.724-10.866,11.673c0,8.06,5.108,12.517,11.405,12.517
		c4.953,0,7.141-3.227,8.026-5.491c0.266-0.193,0.842-0.114,0.994,0.153c-0.266,1.995-1.267,4.531-1.838,5.261
		c-0.462,0.077-0.924,0.23-1.347,0.384c-0.846,0.307-3.609,0.883-6.068,0.883c-3.453,0-6.755-0.69-9.562-2.573
		c-3.069-2.111-5.448-5.605-5.448-10.559C178.95,263.275,180.867,259.628,183.787,257.363z"/>
	<path fill="#FFFFFF" d="M207.968,260.474c0-3.993-0.078-4.57-2.34-4.838l-0.617-0.077c-0.231-0.156-0.156-0.847,0.078-0.961
		c1.65,0.077,2.953,0.114,4.529,0.114h7.222c2.457,0,4.72,0,5.182-0.114c0.23,0.652,0.459,3.419,0.613,5.107
		c-0.154,0.229-0.767,0.307-0.961,0.078c-0.575-1.805-0.921-3.149-2.918-3.649c-0.809-0.191-2.033-0.23-3.724-0.23h-2.762
		c-1.155,0-1.155,0.076-1.155,1.537v7.679c0,1.074,0.116,1.074,1.268,1.074h2.23c1.61,0,2.799-0.076,3.261-0.23
		c0.46-0.153,0.727-0.385,0.921-1.344l0.309-1.574c0.194-0.228,0.843-0.228,0.995,0.037c0,0.922-0.152,2.418-0.152,3.88
		c0,1.38,0.152,2.841,0.152,3.685c-0.152,0.27-0.801,0.27-0.995,0.037l-0.347-1.495c-0.156-0.693-0.422-1.269-1.186-1.46
		c-0.54-0.153-1.461-0.193-2.957-0.193h-2.23c-1.152,0-1.268,0.039-1.268,1.039v5.412c0,2.032,0.116,3.341,0.731,3.994
		c0.46,0.458,1.265,0.883,4.645,0.883c2.96,0,4.071-0.151,4.911-0.579c0.697-0.384,1.733-1.727,2.732-3.722
		c0.267-0.193,0.804-0.077,0.958,0.267c-0.266,1.344-1.227,4.301-1.727,5.338c-3.456-0.077-6.874-0.116-10.291-0.116h-3.456
		c-1.649,0-2.955,0.04-5.22,0.116c-0.231-0.116-0.308-0.73-0.078-0.96l1.267-0.114c2.188-0.193,2.382-0.769,2.382-4.801V260.474z"/>
</g>
</svg>
