<?xml version="1.0" encoding="utf-8"?>
<!-- Generator: Adobe Illustrator 17.1.0, SVG Export Plug-In . SVG Version: 6.00 Build 0)  -->
<!DOCTYPE svg PUBLIC "-//W3C//DTD SVG 1.1//EN" "http://www.w3.org/Graphics/SVG/1.1/DTD/svg11.dtd">
<svg version="1.1" id="Image" xmlns="http://www.w3.org/2000/svg" xmlns:xlink="http://www.w3.org/1999/xlink" x="0px" y="0px"
	 viewBox="0 0 317 542.5" enable-background="new 0 0 317 542.5" xml:space="preserve">
<g>
	<path fill="#E7E7E9" d="M260,501.5c0,22.6-18.4,41-41,41H41c-22.6,0-41-18.4-41-41v-457c0-22.6,18.4-41,41-41h178
		c22.6,0,41,18.4,41,41V501.5z"/>
	<path fill="#010005" d="M252.8,501.5c0,19.3-15.7,35-35,35h-175c-19.3,0-35-15.7-35-35v-456c0-19.3,15.7-35,35-35h175
		c19.3,0,35,15.7,35,35V501.5z"/>
	<rect x="171.8" fill="#E7E7E9" width="41" height="3.5"/>
	<circle fill="#232323" cx="130.5" cy="501.2" r="24.2"/>
	<path fill="#232323" d="M152.8,50.8c0,2.9-2.4,5.2-5.2,5.2h-38c-2.9,0-5.2-2.4-5.2-5.2l0,0c0-2.9,2.4-5.2,5.2-5.2h38
		C150.4,45.5,152.8,47.9,152.8,50.8L152.8,50.8z"/>
	<circle fill="#232323" cx="128.5" cy="31" r="5.2"/>
	<rect x="20.8" y="79.8" fill="#232323" width="218.5" height="384.7"/>
</g>
</svg>
