<?xml version="1.0" encoding="utf-8"?>
<!-- Generator: Adobe Illustrator 17.1.0, SVG Export Plug-In . SVG Version: 6.00 Build 0)  -->
<!DOCTYPE svg PUBLIC "-//W3C//DTD SVG 1.1//EN" "http://www.w3.org/Graphics/SVG/1.1/DTD/svg11.dtd">
<svg version="1.1" id="Layer_1" xmlns="http://www.w3.org/2000/svg" xmlns:xlink="http://www.w3.org/1999/xlink" x="0px" y="0px"
	 viewBox="54.2 0 198.8 412" enable-background="new 54.2 0 198.8 412" xml:space="preserve">
<g id="Phone">
	<g>
		<path fill="#E7E7E9" d="M251.6,380.9c0,17.2-14,31.1-31.1,31.1H85.3c-17.2,0-31.1-14-31.1-31.1V33.8c0-17.2,14-31.1,31.1-31.1
			h135.2c17.2,0,31.1,14,31.1,31.1V380.9z"/>
		<path fill="#010005" d="M246.1,380.9c0,14.7-11.9,26.6-26.6,26.6H86.6c-14.7,0-26.6-11.9-26.6-26.6V34.6C60.1,19.9,72,8,86.6,8
			h132.9c14.7,0,26.6,11.9,26.6,26.6V380.9z"/>
		<rect x="184.6" y="0" fill="#E7E7E9" width="31.1" height="2.7"/>
		<circle fill="#232323" cx="153.2" cy="380.6" r="18.4"/>
		<path fill="#232323" d="M170.2,38.6c0,2.2-1.8,3.9-3.9,3.9h-28.9c-2.2,0-3.9-1.8-3.9-3.9l0,0c0-2.2,1.8-3.9,3.9-3.9h28.9
			C168.4,34.6,170.2,36.4,170.2,38.6L170.2,38.6z"/>
		<circle fill="#232323" cx="151.7" cy="23.5" r="3.9"/>
		<rect x="69.9" y="60.6" fill="#232323" width="165.9" height="292.2"/>
	</g>
</g>
<g id="Contents">
	<rect x="71" y="186.3" fill="#E96658" width="164.4" height="143.5"/>
	<rect x="71" y="92.5" fill="#2F3030" width="164.4" height="93.8"/>
	<path fill="#FFFFFF" d="M87.2,110.4c-0.3,0.1-0.6,0.2-0.9,0.3l-10.9,1.5l4.6-7.1c1.1-1.7,3.7-3.5,7.9-4.3l-4.2,6.2
		c-0.1,0.1-0.2,0.3-0.4,0.6l-1.3,1.9c-0.2,0.3-0.1,0.5,0.2,0.5c1.2-0.1,1.5-0.2,2-0.7c0.1-0.1,0.8-0.9,1.2-1.4l3.8-0.5
		c1.1-0.2,1.9-0.3,1.9-0.3S90.2,109,87.2,110.4z M97,108.8c-1.8,0.6-6.9,1.2-6.9,1.2c2.4-2.6,3.7-2.9,4.2-3.1
		c2.1-0.9,6.9-1.4,6.9-1.4S100.2,107.8,97,108.8z M96.5,102.1c-1.8,0.3-2.7,0.5-3.7,2.5c-0.1,0.2-0.4,0.9-1.2,1.1l-0.3,0.1l-4.6,0.6
		c0.7-1.1,1.7-2.6,1.9-2.9c1.1-1.6,2.4-3.2,8.2-4.3c0,0,3.2-0.5,5.3-0.9C102.1,98.4,100.4,101.4,96.5,102.1z"/>
	<g>
		<path fill="#FFFFFF" d="M202.1,103.1l1.1,3.4l0,0l1.1-3.4h1.5v4.9h-1v-3.5l0,0l-1.1,3.5h-0.8l-1.2-3.4l0,0v3.4h-1v-4.9H202.1z"/>
		<path fill="#FFFFFF" d="M210.5,103.1v0.9h-2.6v1.1h2.4v0.8h-2.4v1.2h2.6v0.9h-3.7v-4.9H210.5z"/>
		<path fill="#FFFFFF" d="M212.4,103.1l2,3.3l0,0v-3.3h1v4.9h-1.1l-2-3.3l0,0v3.3h-1v-4.9H212.4z"/>
		<path fill="#FFFFFF" d="M220,107.6c-0.4,0.3-0.9,0.5-1.5,0.5c-0.7,0-1.2-0.2-1.5-0.5s-0.5-0.8-0.5-1.5v-3h1.1v3c0,0.1,0,0.3,0,0.4
			s0.1,0.2,0.1,0.3c0.1,0.1,0.2,0.2,0.3,0.2c0.1,0.1,0.3,0.1,0.5,0.1c0.4,0,0.7-0.1,0.8-0.3c0.1-0.2,0.2-0.4,0.2-0.8v-3h1.1v3
			C220.5,106.8,220.4,107.3,220,107.6z"/>
	</g>
	<rect x="222.3" y="103.1" fill="#FFFFFF" width="6.9" height="1.1"/>
	<rect x="222.3" y="105" fill="#FFFFFF" width="6.9" height="1.1"/>
	<rect x="222.3" y="107" fill="#FFFFFF" width="6.9" height="1.1"/>
	<g enable-background="new    ">
		<path fill="#FFFFFF" d="M78.4,131.8v-6.6h0.9l2.1,3.3c0.5,0.8,0.9,1.5,1.2,2.1l0,0c-0.1-0.9-0.1-1.7-0.1-2.7v-2.7h0.8v6.6h-0.9
			l-2.1-3.3c-0.5-0.7-0.9-1.5-1.2-2.2l0,0c0,0.8,0.1,1.6,0.1,2.7v2.8H78.4z"/>
		<path fill="#FFFFFF" d="M85.3,129.6c0,1.2,0.8,1.6,1.6,1.6c0.6,0,1-0.1,1.3-0.2l0.1,0.6c-0.3,0.1-0.8,0.3-1.6,0.3
			c-1.4,0-2.3-1-2.3-2.4s0.8-2.5,2.2-2.5c1.5,0,1.9,1.4,1.9,2.2c0,0.2,0,0.3,0,0.4H85.3z M87.8,129c0-0.5-0.2-1.4-1.2-1.4
			c-0.9,0-1.2,0.8-1.3,1.4H87.8z"/>
		<path fill="#FFFFFF" d="M90,127.1l0.7,1c0.2,0.3,0.3,0.5,0.5,0.8h0c0.2-0.3,0.3-0.5,0.5-0.8l0.7-1h0.9l-1.6,2.3l1.7,2.4h-1
			l-0.7-1.1c-0.2-0.3-0.3-0.5-0.5-0.8h0c-0.2,0.3-0.3,0.5-0.5,0.8l-0.7,1.1H89l1.7-2.4l-1.6-2.3H90z"/>
		<path fill="#FFFFFF" d="M95.3,125.8v1.4h1.2v0.7h-1.2v2.5c0,0.6,0.2,0.9,0.6,0.9c0.2,0,0.4,0,0.5-0.1l0,0.6
			c-0.2,0.1-0.4,0.1-0.8,0.1c-0.4,0-0.7-0.1-0.9-0.4c-0.2-0.3-0.3-0.7-0.3-1.2v-2.6h-0.7v-0.7h0.7V126L95.3,125.8z"/>
		<path fill="#FFFFFF" d="M103.8,129.4c0,1.7-1.2,2.5-2.3,2.5c-1.3,0-2.3-0.9-2.3-2.4c0-1.6,1-2.5,2.3-2.5
			C102.9,127,103.8,128,103.8,129.4z M100.1,129.5c0,1,0.6,1.8,1.4,1.8c0.8,0,1.4-0.8,1.4-1.8c0-0.8-0.4-1.8-1.4-1.8
			S100.1,128.6,100.1,129.5z"/>
		<path fill="#FFFFFF" d="M104.9,128.4c0-0.5,0-0.9,0-1.3h0.8l0,0.8h0c0.2-0.4,0.8-0.9,1.6-0.9c0.7,0,1.7,0.4,1.7,2v2.8H108v-2.7
			c0-0.8-0.3-1.4-1.1-1.4c-0.6,0-1,0.4-1.1,0.9c0,0.1-0.1,0.3-0.1,0.4v2.8h-0.9V128.4z"/>
		<path fill="#FFFFFF" d="M110.3,124.9h0.9v6.9h-0.9V124.9z"/>
		<path fill="#FFFFFF" d="M113.5,125.8c0,0.3-0.2,0.5-0.5,0.5c-0.3,0-0.5-0.2-0.5-0.5c0-0.3,0.2-0.5,0.5-0.5
			C113.3,125.3,113.5,125.5,113.5,125.8z M112.6,131.8v-4.7h0.9v4.7H112.6z"/>
		<path fill="#FFFFFF" d="M114.8,128.4c0-0.5,0-0.9,0-1.3h0.8l0,0.8h0c0.2-0.4,0.8-0.9,1.6-0.9c0.7,0,1.7,0.4,1.7,2v2.8H118v-2.7
			c0-0.8-0.3-1.4-1.1-1.4c-0.6,0-1,0.4-1.1,0.9c0,0.1-0.1,0.3-0.1,0.4v2.8h-0.9V128.4z"/>
		<path fill="#FFFFFF" d="M120.7,129.6c0,1.2,0.8,1.6,1.6,1.6c0.6,0,1-0.1,1.3-0.2l0.1,0.6c-0.3,0.1-0.8,0.3-1.6,0.3
			c-1.4,0-2.3-1-2.3-2.4s0.8-2.5,2.2-2.5c1.5,0,1.9,1.4,1.9,2.2c0,0.2,0,0.3,0,0.4H120.7z M123.2,129c0-0.5-0.2-1.4-1.2-1.4
			c-0.9,0-1.2,0.8-1.3,1.4H123.2z"/>
		<path fill="#FFFFFF" d="M127.6,129.6c0,1.2,0.8,1.6,1.6,1.6c0.6,0,1-0.1,1.3-0.2l0.1,0.6c-0.3,0.1-0.8,0.3-1.6,0.3
			c-1.4,0-2.3-1-2.3-2.4s0.8-2.5,2.2-2.5c1.5,0,1.9,1.4,1.9,2.2c0,0.2,0,0.3,0,0.4H127.6z M130.1,129c0-0.5-0.2-1.4-1.2-1.4
			c-0.9,0-1.2,0.8-1.3,1.4H130.1z"/>
		<path fill="#FFFFFF" d="M132.4,127.1l0.7,1c0.2,0.3,0.3,0.5,0.5,0.8h0c0.2-0.3,0.3-0.5,0.5-0.8l0.7-1h0.9l-1.6,2.3l1.7,2.4h-1
			l-0.7-1.1c-0.2-0.3-0.3-0.5-0.5-0.8h0c-0.2,0.3-0.3,0.5-0.5,0.8l-0.7,1.1h-0.9l1.7-2.4l-1.6-2.3H132.4z"/>
		<path fill="#FFFFFF" d="M136.5,128.7c0-0.6,0-1.1,0-1.5h0.8l0,0.8h0c0.3-0.6,0.9-0.9,1.7-0.9c1.1,0,2,1,2,2.4c0,1.7-1,2.5-2.1,2.5
			c-0.6,0-1.2-0.3-1.4-0.7h0v2.6h-0.8V128.7z M137.3,129.9c0,0.1,0,0.2,0,0.4c0.2,0.6,0.7,1,1.3,1c0.9,0,1.4-0.7,1.4-1.8
			c0-0.9-0.5-1.7-1.4-1.7c-0.6,0-1.1,0.4-1.3,1.1c0,0.1-0.1,0.2-0.1,0.3V129.9z"/>
		<path fill="#FFFFFF" d="M142.5,129.6c0,1.2,0.8,1.6,1.6,1.6c0.6,0,1-0.1,1.3-0.2l0.1,0.6c-0.3,0.1-0.8,0.3-1.6,0.3
			c-1.4,0-2.3-1-2.3-2.4s0.8-2.5,2.2-2.5c1.5,0,1.9,1.4,1.9,2.2c0,0.2,0,0.3,0,0.4H142.5z M145,129c0-0.5-0.2-1.4-1.2-1.4
			c-0.9,0-1.2,0.8-1.3,1.4H145z"/>
		<path fill="#FFFFFF" d="M146.9,128.6c0-0.6,0-1,0-1.5h0.7l0,0.9h0c0.2-0.6,0.7-1,1.3-1c0.1,0,0.2,0,0.2,0v0.8c-0.1,0-0.2,0-0.3,0
			c-0.6,0-1,0.5-1.1,1.1c0,0.1,0,0.3,0,0.4v2.5h-0.8V128.6z"/>
		<path fill="#FFFFFF" d="M151.1,125.8c0,0.3-0.2,0.5-0.5,0.5c-0.3,0-0.5-0.2-0.5-0.5c0-0.3,0.2-0.5,0.5-0.5
			C150.9,125.3,151.1,125.5,151.1,125.8z M150.1,131.8v-4.7h0.9v4.7H150.1z"/>
		<path fill="#FFFFFF" d="M152.9,129.6c0,1.2,0.8,1.6,1.6,1.6c0.6,0,1-0.1,1.3-0.2l0.1,0.6c-0.3,0.1-0.8,0.3-1.6,0.3
			c-1.4,0-2.3-1-2.3-2.4s0.8-2.5,2.2-2.5c1.5,0,1.9,1.4,1.9,2.2c0,0.2,0,0.3,0,0.4H152.9z M155.4,129c0-0.5-0.2-1.4-1.2-1.4
			c-0.9,0-1.2,0.8-1.3,1.4H155.4z"/>
		<path fill="#FFFFFF" d="M157.2,128.4c0-0.5,0-0.9,0-1.3h0.8l0,0.8h0c0.2-0.4,0.8-0.9,1.6-0.9c0.7,0,1.7,0.4,1.7,2v2.8h-0.9v-2.7
			c0-0.8-0.3-1.4-1.1-1.4c-0.6,0-1,0.4-1.1,0.9c0,0.1-0.1,0.3-0.1,0.4v2.8h-0.9V128.4z"/>
		<path fill="#FFFFFF" d="M166,131.6c-0.2,0.1-0.7,0.3-1.4,0.3c-1.4,0-2.3-1-2.3-2.4c0-1.4,1-2.5,2.5-2.5c0.5,0,1,0.1,1.2,0.2
			l-0.2,0.7c-0.2-0.1-0.5-0.2-1-0.2c-1.1,0-1.7,0.8-1.7,1.8c0,1.1,0.7,1.8,1.6,1.8c0.5,0,0.8-0.1,1-0.2L166,131.6z"/>
		<path fill="#FFFFFF" d="M167.4,129.6c0,1.2,0.8,1.6,1.6,1.6c0.6,0,1-0.1,1.3-0.2l0.1,0.6c-0.3,0.1-0.8,0.3-1.6,0.3
			c-1.4,0-2.3-1-2.3-2.4s0.8-2.5,2.2-2.5c1.5,0,1.9,1.4,1.9,2.2c0,0.2,0,0.3,0,0.4H167.4z M169.9,129c0-0.5-0.2-1.4-1.2-1.4
			c-0.9,0-1.2,0.8-1.3,1.4H169.9z"/>
		<path fill="#FFFFFF" d="M177.2,131.6c-0.2,0.1-0.7,0.3-1.4,0.3c-1.4,0-2.3-1-2.3-2.4c0-1.4,1-2.5,2.5-2.5c0.5,0,1,0.1,1.2,0.2
			l-0.2,0.7c-0.2-0.1-0.5-0.2-1-0.2c-1.1,0-1.7,0.8-1.7,1.8c0,1.1,0.7,1.8,1.6,1.8c0.5,0,0.8-0.1,1-0.2L177.2,131.6z"/>
		<path fill="#FFFFFF" d="M182.4,129.4c0,1.7-1.2,2.5-2.3,2.5c-1.3,0-2.3-0.9-2.3-2.4c0-1.6,1-2.5,2.3-2.5
			C181.5,127,182.4,128,182.4,129.4z M178.7,129.5c0,1,0.6,1.8,1.4,1.8c0.8,0,1.4-0.8,1.4-1.8c0-0.8-0.4-1.8-1.4-1.8
			S178.7,128.6,178.7,129.5z"/>
		<path fill="#FFFFFF" d="M183.5,128.4c0-0.5,0-0.9,0-1.3h0.7l0,0.8h0c0.3-0.4,0.7-0.9,1.5-0.9c0.6,0,1.1,0.4,1.3,0.9h0
			c0.1-0.3,0.3-0.5,0.5-0.6c0.3-0.2,0.6-0.3,1-0.3c0.6,0,1.5,0.4,1.5,2v2.8h-0.8v-2.7c0-0.9-0.3-1.4-1-1.4c-0.5,0-0.9,0.4-1,0.8
			c0,0.1-0.1,0.3-0.1,0.4v2.9h-0.8V129c0-0.7-0.3-1.3-1-1.3c-0.5,0-0.9,0.4-1.1,0.9c0,0.1-0.1,0.3-0.1,0.4v2.8h-0.8V128.4z"/>
		<path fill="#FFFFFF" d="M192.6,125.8c0,0.3-0.2,0.5-0.5,0.5c-0.3,0-0.5-0.2-0.5-0.5c0-0.3,0.2-0.5,0.5-0.5
			C192.4,125.3,192.6,125.5,192.6,125.8z M191.6,131.8v-4.7h0.9v4.7H191.6z"/>
		<path fill="#FFFFFF" d="M193.9,128.4c0-0.5,0-0.9,0-1.3h0.8l0,0.8h0c0.2-0.4,0.8-0.9,1.6-0.9c0.7,0,1.7,0.4,1.7,2v2.8H197v-2.7
			c0-0.8-0.3-1.4-1.1-1.4c-0.6,0-1,0.4-1.1,0.9c0,0.1-0.1,0.3-0.1,0.4v2.8h-0.9V128.4z"/>
		<path fill="#FFFFFF" d="M203.3,127.1c0,0.3,0,0.7,0,1.3v2.7c0,1.1-0.2,1.7-0.7,2.1c-0.5,0.4-1.1,0.6-1.7,0.6
			c-0.6,0-1.2-0.1-1.6-0.4l0.2-0.7c0.3,0.2,0.8,0.4,1.4,0.4c0.9,0,1.5-0.5,1.5-1.6V131h0c-0.3,0.4-0.8,0.8-1.5,0.8c-1.2,0-2-1-2-2.3
			c0-1.6,1-2.5,2.1-2.5c0.8,0,1.3,0.4,1.5,0.8h0l0-0.7H203.3z M202.4,129c0-0.1,0-0.3,0-0.4c-0.2-0.5-0.6-0.9-1.2-0.9
			c-0.8,0-1.4,0.7-1.4,1.8c0,0.9,0.5,1.7,1.4,1.7c0.5,0,1-0.3,1.2-0.9c0-0.1,0.1-0.3,0.1-0.5V129z"/>
		<path fill="#FFFFFF" d="M210.7,130.5c0,0.5,0,0.9,0,1.3H210l0-0.8h0c-0.2,0.4-0.7,0.9-1.6,0.9c-0.7,0-1.6-0.4-1.6-2.1v-2.8h0.9
			v2.6c0,0.9,0.3,1.5,1,1.5c0.6,0,1-0.4,1.1-0.8c0-0.1,0.1-0.3,0.1-0.4v-2.9h0.9V130.5z"/>
		<path fill="#FFFFFF" d="M212.1,128.7c0-0.6,0-1.1,0-1.5h0.8l0,0.8h0c0.3-0.6,0.9-0.9,1.7-0.9c1.1,0,2,1,2,2.4c0,1.7-1,2.5-2.1,2.5
			c-0.6,0-1.2-0.3-1.4-0.7h0v2.6h-0.8V128.7z M213,129.9c0,0.1,0,0.2,0,0.4c0.2,0.6,0.7,1,1.3,1c0.9,0,1.4-0.7,1.4-1.8
			c0-0.9-0.5-1.7-1.4-1.7c-0.6,0-1.1,0.4-1.3,1.1c0,0.1-0.1,0.2-0.1,0.3V129.9z"/>
		<path fill="#FFFFFF" d="M220.7,125.8c0,0.3-0.2,0.5-0.5,0.5c-0.3,0-0.5-0.2-0.5-0.5c0-0.3,0.2-0.5,0.5-0.5
			C220.5,125.3,220.7,125.5,220.7,125.8z M219.7,131.8v-4.7h0.9v4.7H219.7z"/>
		<path fill="#FFFFFF" d="M222,128.4c0-0.5,0-0.9,0-1.3h0.8l0,0.8h0c0.2-0.4,0.8-0.9,1.6-0.9c0.7,0,1.7,0.4,1.7,2v2.8h-0.9v-2.7
			c0-0.8-0.3-1.4-1.1-1.4c-0.6,0-1,0.4-1.1,0.9c0,0.1-0.1,0.3-0.1,0.4v2.8H222V128.4z"/>
	</g>
	
		<linearGradient id="SVGID_1_" gradientUnits="userSpaceOnUse" x1="80.893" y1="267.8" x2="80.893" y2="244.9683" gradientTransform="matrix(1 0 0 -1 26.5 412)">
		<stop  offset="0" style="stop-color:#FFFFFF"/>
		<stop  offset="0.5179" style="stop-color:#DBDADA"/>
		<stop  offset="0.5196" style="stop-color:#FFFFFF"/>
		<stop  offset="1" style="stop-color:#DDDCDC"/>
	</linearGradient>
	<path fill="url(#SVGID_1_)" d="M118.4,165.7c0,0.8-0.6,1.4-1.4,1.4H97.8c-0.8,0-1.4-0.6-1.4-1.4v-20.1c0-0.8,0.6-1.4,1.4-1.4H117
		c0.8,0,1.4,0.6,1.4,1.4V165.7z"/>
	<g enable-background="new    ">
		<path d="M106.9,156.1c0,3.5-1.3,5.4-3.6,5.4c-2,0-3.4-1.9-3.4-5.3c0-3.5,1.5-5.4,3.6-5.4C105.7,150.9,106.9,152.8,106.9,156.1z
			 M101.3,156.2c0,2.7,0.8,4.2,2.1,4.2c1.4,0,2.1-1.7,2.1-4.3c0-2.5-0.7-4.2-2.1-4.2C102.2,151.9,101.3,153.4,101.3,156.2z"/>
	</g>
	<g enable-background="new    ">
		<path d="M114.7,156.1c0,3.5-1.3,5.4-3.6,5.4c-2,0-3.4-1.9-3.4-5.3c0-3.5,1.5-5.4,3.6-5.4C113.5,150.9,114.7,152.8,114.7,156.1z
			 M109.1,156.2c0,2.7,0.8,4.2,2.1,4.2c1.4,0,2.1-1.7,2.1-4.3c0-2.5-0.7-4.2-2.1-4.2C110,151.9,109.1,153.4,109.1,156.2z"/>
	</g>
	
		<linearGradient id="SVGID_2_" gradientUnits="userSpaceOnUse" x1="111.493" y1="267.8" x2="111.493" y2="244.9683" gradientTransform="matrix(1 0 0 -1 26.5 412)">
		<stop  offset="0" style="stop-color:#FFFFFF"/>
		<stop  offset="0.5179" style="stop-color:#DBDADA"/>
		<stop  offset="0.5196" style="stop-color:#FFFFFF"/>
		<stop  offset="1" style="stop-color:#DDDCDC"/>
	</linearGradient>
	<path fill="url(#SVGID_2_)" d="M149,165.7c0,0.8-0.6,1.4-1.4,1.4h-19.2c-0.8,0-1.4-0.6-1.4-1.4v-20.1c0-0.8,0.6-1.4,1.4-1.4h19.2
		c0.8,0,1.4,0.6,1.4,1.4V165.7z"/>
	<g enable-background="new    ">
		<path d="M137.5,156.1c0,3.5-1.3,5.4-3.6,5.4c-2,0-3.4-1.9-3.4-5.3c0-3.5,1.5-5.4,3.6-5.4C136.3,150.9,137.5,152.8,137.5,156.1z
			 M131.9,156.2c0,2.7,0.8,4.2,2.1,4.2c1.4,0,2.1-1.7,2.1-4.3c0-2.5-0.7-4.2-2.1-4.2C132.8,151.9,131.9,153.4,131.9,156.2z"/>
	</g>
	<g enable-background="new    ">
		<path d="M145.3,156.1c0,3.5-1.3,5.4-3.6,5.4c-2,0-3.4-1.9-3.4-5.3c0-3.5,1.5-5.4,3.6-5.4C144.1,150.9,145.3,152.8,145.3,156.1z
			 M139.7,156.2c0,2.7,0.8,4.2,2.1,4.2c1.4,0,2.1-1.7,2.1-4.3c0-2.5-0.7-4.2-2.1-4.2C140.6,151.9,139.7,153.4,139.7,156.2z"/>
	</g>
	
		<linearGradient id="SVGID_3_" gradientUnits="userSpaceOnUse" x1="141.793" y1="267.8" x2="141.793" y2="244.9683" gradientTransform="matrix(1 0 0 -1 26.5 412)">
		<stop  offset="0" style="stop-color:#FFFFFF"/>
		<stop  offset="0.5179" style="stop-color:#DBDADA"/>
		<stop  offset="0.5196" style="stop-color:#FFFFFF"/>
		<stop  offset="1" style="stop-color:#DDDCDC"/>
	</linearGradient>
	<path fill="url(#SVGID_3_)" d="M179.3,165.7c0,0.8-0.6,1.4-1.4,1.4h-19.2c-0.8,0-1.4-0.6-1.4-1.4v-20.1c0-0.8,0.6-1.4,1.4-1.4h19.2
		c0.8,0,1.4,0.6,1.4,1.4L179.3,165.7L179.3,165.7z"/>
	<g enable-background="new    ">
		<path d="M164.1,152.3L164.1,152.3l-1.8,1l-0.3-1.1l2.3-1.2h1.2v10.3h-1.3V152.3z"/>
	</g>
	<g enable-background="new    ">
		<path d="M167.7,161.3v-0.9l1.1-1.1c2.6-2.5,3.8-3.8,3.8-5.4c0-1-0.5-2-2-2c-0.9,0-1.7,0.5-2.2,0.9l-0.4-1c0.7-0.6,1.7-1,2.9-1
			c2.2,0,3.2,1.5,3.2,3c0,1.9-1.4,3.4-3.6,5.5l-0.8,0.8v0h4.6v1.2H167.7z"/>
	</g>
	
		<linearGradient id="SVGID_4_" gradientUnits="userSpaceOnUse" x1="173.193" y1="267.8" x2="173.193" y2="244.9683" gradientTransform="matrix(1 0 0 -1 26.5 412)">
		<stop  offset="0" style="stop-color:#FFFFFF"/>
		<stop  offset="0.5179" style="stop-color:#DBDADA"/>
		<stop  offset="0.5196" style="stop-color:#FFFFFF"/>
		<stop  offset="1" style="stop-color:#DDDCDC"/>
	</linearGradient>
	<path fill="url(#SVGID_4_)" d="M210.7,165.7c0,0.8-0.6,1.4-1.4,1.4h-19.2c-0.8,0-1.4-0.6-1.4-1.4v-20.1c0-0.8,0.6-1.4,1.4-1.4h19.2
		c0.8,0,1.4,0.6,1.4,1.4V165.7z"/>
	<g enable-background="new    ">
		<path d="M195.9,152.3L195.9,152.3l-1.8,1l-0.3-1.1l2.3-1.2h1.2v10.3h-1.3V152.3z"/>
	</g>
	<g enable-background="new    ">
		<path d="M205.8,151v0.9l-4.5,9.4h-1.4l4.5-9.1v0h-5V151H205.8z"/>
	</g>
	<g enable-background="new    ">
		<path fill="#727272" d="M100.6,171.7c0.4-0.1,0.8-0.1,1.3-0.1c0.9,0,1.5,0.2,1.9,0.6c0.4,0.4,0.7,0.9,0.7,1.7
			c0,0.8-0.2,1.4-0.7,1.8c-0.4,0.4-1.1,0.7-2,0.7c-0.4,0-0.8,0-1.1-0.1V171.7z M101.2,175.8c0.2,0,0.4,0,0.6,0c1.3,0,2-0.7,2-2
			c0-1.1-0.6-1.8-1.9-1.8c-0.3,0-0.5,0-0.7,0.1V175.8z"/>
		<path fill="#727272" d="M105.8,174.8l-0.5,1.5h-0.6l1.6-4.6h0.7l1.6,4.6H108l-0.5-1.5H105.8z M107.4,174.4l-0.5-1.3
			c-0.1-0.3-0.2-0.6-0.2-0.8h0c-0.1,0.3-0.1,0.6-0.2,0.8l-0.5,1.3H107.4z"/>
		<path fill="#727272" d="M109.8,176.3v-2l-1.5-2.7h0.7l0.7,1.3c0.2,0.3,0.3,0.6,0.5,1h0c0.1-0.3,0.3-0.6,0.5-1l0.7-1.3h0.7
			l-1.6,2.7v2H109.8z"/>
		<path fill="#727272" d="M112.3,175.6c0.3,0.2,0.7,0.3,1.1,0.3c0.6,0,1-0.3,1-0.8c0-0.4-0.2-0.7-0.9-0.9c-0.8-0.3-1.2-0.7-1.2-1.3
			c0-0.7,0.6-1.3,1.5-1.3c0.5,0,0.8,0.1,1,0.2l-0.2,0.5c-0.2-0.1-0.5-0.2-0.9-0.2c-0.6,0-0.9,0.4-0.9,0.7c0,0.4,0.3,0.6,0.9,0.9
			c0.8,0.3,1.2,0.7,1.2,1.4c0,0.7-0.5,1.3-1.6,1.3c-0.4,0-0.9-0.1-1.2-0.3L112.3,175.6z"/>
	</g>
	<g enable-background="new    ">
		<path fill="#727272" d="M128.7,171.7v1.9h2.2v-1.9h0.6v4.6h-0.6v-2.2h-2.2v2.2h-0.6v-4.6H128.7z"/>
		<path fill="#727272" d="M136.5,173.9c0,1.6-1,2.4-2.1,2.4c-1.2,0-2.1-0.9-2.1-2.3c0-1.5,0.9-2.4,2.1-2.4
			C135.7,171.6,136.5,172.6,136.5,173.9z M132.9,174c0,1,0.5,1.9,1.5,1.9c0.9,0,1.5-0.9,1.5-1.9c0-0.9-0.5-1.9-1.5-1.9
			C133.4,172.1,132.9,173,132.9,174z"/>
		<path fill="#727272" d="M137.9,171.7v2.7c0,1,0.5,1.5,1.1,1.5c0.7,0,1.1-0.5,1.1-1.5v-2.7h0.6v2.7c0,1.4-0.7,2-1.8,2
			c-0.9,0-1.7-0.5-1.7-2v-2.7H137.9z"/>
		<path fill="#727272" d="M141.7,171.7c0.3-0.1,0.7-0.1,1.1-0.1c0.6,0,1.1,0.1,1.3,0.4c0.2,0.2,0.4,0.5,0.4,0.9c0,0.6-0.4,1-0.9,1.2
			v0c0.4,0.1,0.6,0.5,0.7,0.9c0.2,0.6,0.3,1.1,0.4,1.3h-0.6c-0.1-0.1-0.2-0.5-0.3-1.1c-0.1-0.6-0.4-0.9-0.9-0.9h-0.6v2h-0.6V171.7z
			 M142.3,173.8h0.6c0.6,0,1-0.4,1-0.9c0-0.6-0.4-0.9-1.1-0.9c-0.3,0-0.5,0-0.6,0.1V173.8z"/>
		<path fill="#727272" d="M145.3,175.6c0.3,0.2,0.7,0.3,1.1,0.3c0.6,0,1-0.3,1-0.8c0-0.4-0.2-0.7-0.9-0.9c-0.8-0.3-1.2-0.7-1.2-1.3
			c0-0.7,0.6-1.3,1.5-1.3c0.5,0,0.8,0.1,1,0.2l-0.2,0.5c-0.2-0.1-0.5-0.2-0.9-0.2c-0.6,0-0.9,0.4-0.9,0.7c0,0.4,0.3,0.6,0.9,0.9
			c0.8,0.3,1.2,0.7,1.2,1.4c0,0.7-0.5,1.3-1.6,1.3c-0.4,0-0.9-0.1-1.2-0.3L145.3,175.6z"/>
	</g>
	<g enable-background="new    ">
		<path fill="#727272" d="M164.9,174.3c0-0.6-0.1-1.4-0.1-2h0c-0.2,0.5-0.4,1.1-0.6,1.8l-0.8,2.2H163l-0.7-2.2
			c-0.2-0.7-0.4-1.2-0.5-1.8h0c0,0.6,0,1.4-0.1,2l-0.1,2h-0.6l0.3-4.6h0.8l0.8,2.2c0.2,0.6,0.3,1.1,0.5,1.6h0c0.1-0.5,0.3-1,0.5-1.6
			l0.8-2.2h0.8l0.3,4.6h-0.6L164.9,174.3z"/>
		<path fill="#727272" d="M167.2,171.7v4.6h-0.6v-4.6H167.2z"/>
		<path fill="#727272" d="M168.2,176.3v-4.6h0.7l1.5,2.3c0.3,0.5,0.6,1,0.8,1.5l0,0c-0.1-0.6-0.1-1.2-0.1-1.9v-1.9h0.6v4.6h-0.6
			l-1.5-2.3c-0.3-0.5-0.6-1-0.9-1.5l0,0c0,0.6,0,1.1,0,1.9v2H168.2z"/>
		<path fill="#727272" d="M172.6,175.6c0.3,0.2,0.7,0.3,1.1,0.3c0.6,0,1-0.3,1-0.8c0-0.4-0.2-0.7-0.9-0.9c-0.8-0.3-1.2-0.7-1.2-1.3
			c0-0.7,0.6-1.3,1.5-1.3c0.5,0,0.8,0.1,1,0.2l-0.2,0.5c-0.2-0.1-0.5-0.2-0.9-0.2c-0.6,0-0.9,0.4-0.9,0.7c0,0.4,0.3,0.6,0.9,0.9
			c0.8,0.3,1.2,0.7,1.2,1.4c0,0.7-0.5,1.3-1.6,1.3c-0.4,0-0.9-0.1-1.2-0.3L172.6,175.6z"/>
	</g>
	<g enable-background="new    ">
		<path fill="#727272" d="M192.5,175.6c0.3,0.2,0.7,0.3,1.1,0.3c0.6,0,1-0.3,1-0.8c0-0.4-0.2-0.7-0.9-0.9c-0.8-0.3-1.2-0.7-1.2-1.3
			c0-0.7,0.6-1.3,1.5-1.3c0.5,0,0.8,0.1,1,0.2l-0.2,0.5c-0.2-0.1-0.5-0.2-0.9-0.2c-0.6,0-0.9,0.4-0.9,0.7c0,0.4,0.3,0.6,0.9,0.9
			c0.8,0.3,1.2,0.7,1.2,1.4c0,0.7-0.5,1.3-1.6,1.3c-0.4,0-0.9-0.1-1.2-0.3L192.5,175.6z"/>
		<path fill="#727272" d="M198.4,174.1h-1.8v1.7h2v0.5H196v-4.6h2.5v0.5h-1.9v1.5h1.8V174.1z"/>
		<path fill="#727272" d="M202.6,176.2c-0.2,0.1-0.7,0.2-1.2,0.2c-1.3,0-2.3-0.8-2.3-2.3c0-1.4,1-2.4,2.4-2.4c0.6,0,0.9,0.1,1.1,0.2
			l-0.1,0.5c-0.2-0.1-0.5-0.2-0.9-0.2c-1.1,0-1.8,0.7-1.8,1.9c0,1.1,0.7,1.9,1.8,1.9c0.4,0,0.7-0.1,1-0.2L202.6,176.2z"/>
		<path fill="#727272" d="M203.3,175.6c0.3,0.2,0.7,0.3,1.1,0.3c0.6,0,1-0.3,1-0.8c0-0.4-0.2-0.7-0.9-0.9c-0.8-0.3-1.2-0.7-1.2-1.3
			c0-0.7,0.6-1.3,1.5-1.3c0.5,0,0.8,0.1,1,0.2l-0.2,0.5c-0.2-0.1-0.5-0.2-0.9-0.2c-0.6,0-0.9,0.4-0.9,0.7c0,0.4,0.3,0.6,0.9,0.9
			c0.8,0.3,1.2,0.7,1.2,1.4c0,0.7-0.5,1.3-1.6,1.3c-0.4,0-0.9-0.1-1.2-0.3L203.3,175.6z"/>
	</g>
	<rect x="76.1" y="192" fill="#2F3030" width="154.3" height="15.3"/>
	<g enable-background="new    ">
		<path fill="#FFFFFF" d="M80.7,197.3c0.3-0.1,0.7-0.1,1.1-0.1c0.6,0,1,0.1,1.3,0.3c0.2,0.2,0.4,0.5,0.4,0.8c0,0.4-0.3,0.8-0.8,1v0
			c0.4,0.1,1,0.5,1,1.2c0,0.4-0.2,0.7-0.4,0.9c-0.3,0.3-0.8,0.4-1.6,0.4c-0.4,0-0.7,0-0.9-0.1V197.3z M81.3,199.2h0.5
			c0.6,0,1-0.3,1-0.8c0-0.5-0.4-0.8-1-0.8c-0.3,0-0.4,0-0.5,0V199.2z M81.3,201.4c0.1,0,0.3,0,0.5,0c0.6,0,1.2-0.2,1.2-0.9
			c0-0.6-0.5-0.9-1.2-0.9h-0.5V201.4z"/>
		<path fill="#FFFFFF" d="M84.8,200.3c0,0.8,0.5,1.2,1.1,1.2c0.4,0,0.7-0.1,0.9-0.2l0.1,0.4c-0.2,0.1-0.6,0.2-1.1,0.2
			c-1,0-1.6-0.7-1.6-1.7c0-1,0.6-1.8,1.6-1.8c1.1,0,1.4,1,1.4,1.6c0,0.1,0,0.2,0,0.3H84.8z M86.6,199.9c0-0.4-0.2-1-0.8-1
			c-0.6,0-0.9,0.6-0.9,1H86.6z"/>
		<path fill="#FFFFFF" d="M88.6,197.6c0,0.2-0.1,0.4-0.4,0.4c-0.2,0-0.4-0.2-0.4-0.4c0-0.2,0.2-0.4,0.4-0.4
			C88.4,197.2,88.6,197.4,88.6,197.6z M87.9,201.9v-3.3h0.6v3.3H87.9z"/>
		<path fill="#FFFFFF" d="M89.5,199.5c0-0.3,0-0.6,0-0.9H90l0,0.5h0c0.2-0.3,0.5-0.6,1.1-0.6c0.5,0,1.2,0.3,1.2,1.4v2h-0.6V200
			c0-0.5-0.2-1-0.8-1c-0.4,0-0.7,0.3-0.8,0.6c0,0.1,0,0.2,0,0.3v2h-0.6V199.5z"/>
		<path fill="#FFFFFF" d="M96.2,198.6c0,0.2,0,0.5,0,0.9v1.9c0,0.8-0.2,1.2-0.5,1.5c-0.3,0.3-0.8,0.4-1.2,0.4
			c-0.4,0-0.8-0.1-1.1-0.3l0.2-0.5c0.2,0.1,0.6,0.3,1,0.3c0.6,0,1.1-0.3,1.1-1.2v-0.4h0c-0.2,0.3-0.5,0.6-1.1,0.6
			c-0.8,0-1.4-0.7-1.4-1.6c0-1.1,0.7-1.8,1.5-1.8c0.6,0,0.9,0.3,1,0.6h0l0-0.5H96.2z M95.5,199.9c0-0.1,0-0.2,0-0.3
			c-0.1-0.4-0.4-0.6-0.8-0.6c-0.6,0-1,0.5-1,1.3c0,0.7,0.3,1.2,1,1.2c0.4,0,0.7-0.2,0.8-0.6c0-0.1,0-0.2,0-0.3V199.9z"/>
		<path fill="#FFFFFF" d="M98.6,199.6c0-0.4,0-0.7,0-1h0.5l0,0.7h0c0.2-0.4,0.5-0.7,0.9-0.7c0.1,0,0.1,0,0.2,0v0.6
			c-0.1,0-0.1,0-0.2,0c-0.4,0-0.7,0.3-0.8,0.8c0,0.1,0,0.2,0,0.3v1.8h-0.6V199.6z"/>
		<path fill="#FFFFFF" d="M101.5,197.6c0,0.2-0.1,0.4-0.4,0.4c-0.2,0-0.4-0.2-0.4-0.4c0-0.2,0.2-0.4,0.4-0.4
			C101.4,197.2,101.5,197.4,101.5,197.6z M100.9,201.9v-3.3h0.6v3.3H100.9z"/>
		<path fill="#FFFFFF" d="M104.9,201.8c-0.2,0.1-0.5,0.2-1,0.2c-1,0-1.7-0.7-1.7-1.7c0-1,0.7-1.8,1.8-1.8c0.4,0,0.7,0.1,0.8,0.2
			l-0.1,0.5c-0.1-0.1-0.4-0.2-0.7-0.2c-0.8,0-1.2,0.6-1.2,1.3c0,0.8,0.5,1.2,1.2,1.2c0.3,0,0.6-0.1,0.7-0.2L104.9,201.8z"/>
		<path fill="#FFFFFF" d="M105.6,197h0.6v2.1h0c0.1-0.2,0.2-0.3,0.4-0.4c0.2-0.1,0.4-0.2,0.6-0.2c0.4,0,1.2,0.3,1.2,1.4v2h-0.6V200
			c0-0.5-0.2-1-0.8-1c-0.4,0-0.7,0.3-0.8,0.6c0,0.1,0,0.2,0,0.3v2h-0.6V197z"/>
		<path fill="#FFFFFF" d="M111.5,197.6c0,0.2-0.1,0.4-0.4,0.4c-0.2,0-0.4-0.2-0.4-0.4c0-0.2,0.2-0.4,0.4-0.4
			C111.4,197.2,111.5,197.4,111.5,197.6z M110.8,201.9v-3.3h0.6v3.3H110.8z"/>
		<path fill="#FFFFFF" d="M112.4,199.5c0-0.3,0-0.6,0-0.9h0.5l0,0.5h0c0.2-0.3,0.5-0.6,1.1-0.6c0.5,0,1.2,0.3,1.2,1.4v2h-0.6V200
			c0-0.5-0.2-1-0.8-1c-0.4,0-0.7,0.3-0.8,0.6c0,0.1,0,0.2,0,0.3v2h-0.6V199.5z"/>
		<path fill="#FFFFFF" d="M117.9,198.6l0.4,1.7c0.1,0.4,0.2,0.7,0.2,1.1h0c0.1-0.3,0.2-0.7,0.3-1l0.5-1.7h0.5l0.5,1.7
			c0.1,0.4,0.2,0.7,0.3,1.1h0c0.1-0.3,0.1-0.7,0.3-1.1l0.5-1.7h0.6l-1.1,3.3h-0.5l-0.5-1.6c-0.1-0.4-0.2-0.7-0.3-1.1h0
			c-0.1,0.4-0.2,0.7-0.3,1.1l-0.5,1.6h-0.5l-1-3.3H117.9z"/>
		<path fill="#FFFFFF" d="M122.8,197h0.6v2.1h0c0.1-0.2,0.2-0.3,0.4-0.4c0.2-0.1,0.4-0.2,0.6-0.2c0.4,0,1.2,0.3,1.2,1.4v2H125V200
			c0-0.5-0.2-1-0.8-1c-0.4,0-0.7,0.3-0.8,0.6c0,0.1,0,0.2,0,0.3v2h-0.6V197z"/>
		<path fill="#FFFFFF" d="M128.4,201.9l0-0.4h0c-0.2,0.3-0.5,0.5-1,0.5c-0.7,0-1-0.5-1-1c0-0.8,0.7-1.2,2-1.2v-0.1
			c0-0.3-0.1-0.8-0.8-0.8c-0.3,0-0.6,0.1-0.9,0.2l-0.1-0.4c0.3-0.2,0.7-0.3,1.1-0.3c1,0,1.3,0.7,1.3,1.4v1.2c0,0.3,0,0.6,0.1,0.8
			H128.4z M128.3,200.2c-0.7,0-1.4,0.1-1.4,0.7c0,0.4,0.3,0.6,0.6,0.6c0.4,0,0.7-0.3,0.8-0.6c0-0.1,0-0.1,0-0.2V200.2z"/>
		<path fill="#FFFFFF" d="M130.6,197.6v1h0.9v0.5h-0.9v1.8c0,0.4,0.1,0.6,0.5,0.6c0.2,0,0.3,0,0.4,0l0,0.5c-0.1,0-0.3,0.1-0.5,0.1
			c-0.3,0-0.5-0.1-0.7-0.3c-0.2-0.2-0.2-0.5-0.2-0.9V199h-0.5v-0.5h0.5v-0.8L130.6,197.6z"/>
		<path fill="#FFFFFF" d="M133.6,199.5c0-0.3,0-0.6,0-0.9h0.5l0,0.5h0c0.2-0.3,0.5-0.6,1-0.6c0.5,0,0.8,0.3,0.9,0.7h0
			c0.1-0.2,0.2-0.3,0.4-0.4c0.2-0.2,0.4-0.2,0.7-0.2c0.4,0,1.1,0.3,1.1,1.4v2h-0.6V200c0-0.6-0.2-1-0.7-1c-0.3,0-0.6,0.3-0.7,0.5
			c0,0.1,0,0.2,0,0.3v2.1h-0.6v-2c0-0.5-0.2-0.9-0.7-0.9c-0.4,0-0.7,0.3-0.7,0.6c0,0.1,0,0.2,0,0.3v2h-0.6V199.5z"/>
		<path fill="#FFFFFF" d="M141.1,201.9l0-0.4h0c-0.2,0.3-0.5,0.5-1,0.5c-0.7,0-1-0.5-1-1c0-0.8,0.7-1.2,2-1.2v-0.1
			c0-0.3-0.1-0.8-0.8-0.8c-0.3,0-0.6,0.1-0.9,0.2l-0.1-0.4c0.3-0.2,0.7-0.3,1.1-0.3c1,0,1.3,0.7,1.3,1.4v1.2c0,0.3,0,0.6,0.1,0.8
			H141.1z M141.1,200.2c-0.7,0-1.4,0.1-1.4,0.7c0,0.4,0.3,0.6,0.6,0.6c0.4,0,0.7-0.3,0.8-0.6c0-0.1,0-0.1,0-0.2V200.2z"/>
		<path fill="#FFFFFF" d="M143.3,197.6v1h0.9v0.5h-0.9v1.8c0,0.4,0.1,0.6,0.5,0.6c0.2,0,0.3,0,0.4,0l0,0.5c-0.1,0-0.3,0.1-0.5,0.1
			c-0.3,0-0.5-0.1-0.7-0.3c-0.2-0.2-0.2-0.5-0.2-0.9V199h-0.5v-0.5h0.5v-0.8L143.3,197.6z"/>
		<path fill="#FFFFFF" d="M145.6,197.6v1h0.9v0.5h-0.9v1.8c0,0.4,0.1,0.6,0.5,0.6c0.2,0,0.3,0,0.4,0l0,0.5c-0.1,0-0.3,0.1-0.5,0.1
			c-0.3,0-0.5-0.1-0.7-0.3c-0.2-0.2-0.2-0.5-0.2-0.9V199h-0.5v-0.5h0.5v-0.8L145.6,197.6z"/>
		<path fill="#FFFFFF" d="M147.4,200.3c0,0.8,0.5,1.2,1.1,1.2c0.4,0,0.7-0.1,0.9-0.2l0.1,0.4c-0.2,0.1-0.6,0.2-1.1,0.2
			c-1,0-1.6-0.7-1.6-1.7c0-1,0.6-1.8,1.6-1.8c1.1,0,1.4,1,1.4,1.6c0,0.1,0,0.2,0,0.3H147.4z M149.2,199.9c0-0.4-0.2-1-0.8-1
			c-0.6,0-0.9,0.6-0.9,1H149.2z"/>
		<path fill="#FFFFFF" d="M150.5,199.6c0-0.4,0-0.7,0-1h0.5l0,0.7h0c0.2-0.4,0.5-0.7,0.9-0.7c0.1,0,0.1,0,0.2,0v0.6
			c-0.1,0-0.1,0-0.2,0c-0.4,0-0.7,0.3-0.8,0.8c0,0.1,0,0.2,0,0.3v1.8h-0.6V199.6z"/>
		<path fill="#FFFFFF" d="M152.7,201.3c0.2,0.1,0.5,0.2,0.8,0.2c0.4,0,0.6-0.2,0.6-0.5c0-0.3-0.2-0.4-0.6-0.6
			c-0.6-0.2-0.9-0.5-0.9-0.9c0-0.5,0.4-1,1.1-1c0.3,0,0.6,0.1,0.8,0.2l-0.2,0.4c-0.1-0.1-0.4-0.2-0.7-0.2c-0.4,0-0.6,0.2-0.6,0.5
			c0,0.3,0.2,0.4,0.6,0.6c0.6,0.2,0.9,0.5,0.9,1c0,0.6-0.5,1-1.2,1c-0.4,0-0.7-0.1-0.9-0.2L152.7,201.3z"/>
		<path fill="#FFFFFF" d="M157,199.5c0-0.3,0-0.6,0-0.9h0.5l0,0.5h0c0.2-0.3,0.5-0.6,1-0.6c0.5,0,0.8,0.3,0.9,0.7h0
			c0.1-0.2,0.2-0.3,0.4-0.4c0.2-0.2,0.4-0.2,0.7-0.2c0.4,0,1.1,0.3,1.1,1.4v2h-0.6V200c0-0.6-0.2-1-0.7-1c-0.3,0-0.6,0.3-0.7,0.5
			c0,0.1,0,0.2,0,0.3v2.1H159v-2c0-0.5-0.2-0.9-0.7-0.9c-0.4,0-0.7,0.3-0.7,0.6c0,0.1,0,0.2,0,0.3v2H157V199.5z"/>
		<path fill="#FFFFFF" d="M165.7,200.2c0,1.2-0.9,1.8-1.7,1.8c-0.9,0-1.6-0.7-1.6-1.7c0-1.1,0.7-1.8,1.6-1.8
			C165,198.5,165.7,199.2,165.7,200.2z M163,200.2c0,0.7,0.4,1.3,1,1.3c0.6,0,1-0.5,1-1.3c0-0.6-0.3-1.3-1-1.3S163,199.6,163,200.2z
			"/>
		<path fill="#FFFFFF" d="M166.4,201.3c0.2,0.1,0.5,0.2,0.8,0.2c0.4,0,0.6-0.2,0.6-0.5c0-0.3-0.2-0.4-0.6-0.6
			c-0.6-0.2-0.9-0.5-0.9-0.9c0-0.5,0.4-1,1.1-1c0.3,0,0.6,0.1,0.8,0.2l-0.2,0.4c-0.1-0.1-0.4-0.2-0.7-0.2c-0.4,0-0.6,0.2-0.6,0.5
			c0,0.3,0.2,0.4,0.6,0.6c0.6,0.2,0.9,0.5,0.9,1c0,0.6-0.5,1-1.2,1c-0.4,0-0.7-0.1-0.9-0.2L166.4,201.3z"/>
		<path fill="#FFFFFF" d="M169.9,197.6v1h0.9v0.5h-0.9v1.8c0,0.4,0.1,0.6,0.5,0.6c0.2,0,0.3,0,0.4,0l0,0.5c-0.1,0-0.3,0.1-0.5,0.1
			c-0.3,0-0.5-0.1-0.7-0.3c-0.2-0.2-0.2-0.5-0.2-0.9V199h-0.5v-0.5h0.5v-0.8L169.9,197.6z"/>
	</g>
	<rect x="76.1" y="207.4" fill="#CEC58E" width="154.3" height="115.8"/>
	<path fill="#003E18" d="M191,243.2v-7.9h-5.9l-0.2,0.6c-0.8-0.5-2.1-0.8-3.8-0.8s-3.3,0.6-4.7,1.6v-5h-9.8v2.9l-1.9-2.9h-8.8v1.2
		h-8.2v1.9h-14.4c-1.1-0.8-2.7-1.4-5.3-1.4h-10.1v5.8h1.3v7.3h-1.3v5.9h10.2c1,0,3.3,0,5-1v2.4h16.8V252h8.2v-1.2h7.6v-2.9l1.9,2.9
		h6.5c1.5,2.4,4.1,3.8,7.1,3.8c1.2,0,2.3-0.3,3.3-0.8l0.3,0.6h6.9v-5.8h0.9v-5.3H191V243.2z M126.9,239.3L126.9,239.3
		C126.9,239.3,127,239.3,126.9,239.3c0.1,0,0.1,0.1,0.1,0.3s0,0.3,0,0.4h-0.1V239.3z M127.3,246.6h-0.4v-1.2h0.4
		c0.3,0,0.5,0,0.5,0.6C127.8,246.5,127.4,246.6,127.3,246.6z M134.6,242.8c-0.2-0.2-0.3-0.4-0.5-0.6c0.2-0.3,0.4-0.6,0.5-1V242.8z
		 M143.1,247.9h-0.9V247h0.9V247.9z M143.1,241.1h-0.9v-0.3h0.9V241.1z M149.1,245.8h-2.4v-3h2.4V245.8z M157.2,244.9h-0.5v-6.1h0.5
		V244.9z M182.2,243.2v4.4c-0.9-0.4-1.1-1.8-1.1-2.7c0-1.6,0.8-2.9,1.7-2.9c0.6,0,1,0.4,1.2,1.2H182.2z M175.5,237.5
		c-0.2,0.2-0.4,0.4-0.6,0.6v-0.6H175.5z"/>
	<path fill="#D2DDBB" stroke="#231F20" stroke-width="0.25" stroke-miterlimit="10" d="M149.1,234.3h7.7v3.1h-1.4v10.1h1.4v3.1h-7.7
		v-3.1h1.5v-10.1h-1.5V234.3z"/>
	<path fill="#003E18" d="M208.8,260.8v-9h-18v9h2.7v4.2h-6v-4.2h2.9v-9h-16.2v-2.4h-9.7l-0.6,1.5c-1.4-1-3.5-2.1-6.6-2.1
		c-3.6,0-7.4,1.9-10.4,5c-0.9,0.9-1.6,2-2.3,3v-3h-18.3v8.6h2.9v9.5h-4.5c-0.4-2.1-1.6-3.9-3.4-5.2c2.6-1.5,4.1-3.9,4.1-6.9
		c0-7.6-4.4-11-14.3-11H94.6v8.9h2.6v17.4h-2.6v9h17.9v-4.4c1.6,3.2,4.8,5,9.4,5c1.8,0,3.2-0.4,4.5-1.1v4.6h18.3v-8.7h-2.9v-17.1
		h0.6c-0.4,1.6-0.6,3.2-0.6,4.8c0,11,7,18.1,17.8,18.1c5.8,0,10.2-2.6,13-4.9v6.6h17.9v-9h-2.9v-4h6v4.2h-2.7v9h18v-9h-2.7v-17.4
		L208.8,260.8L208.8,260.8z M110.3,262.9h-0.7v-5h0.9c2,0,2.8,0.8,2.8,2.7C113.3,262.1,112.3,262.9,110.3,262.9z M109.6,275.3V271
		c1.7,0.1,1.8,0.8,1.8,3.8c0,0.2,0,0.4,0,0.5H109.6z M175.2,278.1h-0.1l0.1-0.2V278.1z M175.2,276.9l-6.9-7.6l-1.1,1.2
		c0,0-0.1,0.1-0.2,0.2c-2.7,3.2-4.8,3.9-6.1,3.9c-2.7,0-5.4-2.3-5.4-7.3c0-4.4,1.8-7.8,4.1-7.8c3.1,0,3.5,3.4,3.5,4.5l0.1,1.4h11.1
		v-4.6h0.9L175.2,276.9L175.2,276.9z"/>
	<path fill="#D2DDBB" stroke="#231F20" stroke-width="0.25" stroke-miterlimit="10" d="M119.3,251v-3h1.3v-10.2h-1.3v-3h8.6
		c3.8,0,5.7,1.4,5.7,4c0,1.9-0.5,2.9-2.3,3.6c1.7,0.5,3.1,1.7,3.1,3.9c0,3.3-1.8,4.7-6.3,4.7H119.3z M125.4,237.9v3.5h1.4
		c1.2,0,1.6-0.7,1.6-1.8s-0.6-1.7-1.5-1.7H125.4z M129.2,246c0-1.2-0.7-2-1.9-2h-1.8v4h1.9C128.3,248,129.2,247.3,129.2,246z"/>
	<path fill="#D2DDBB" stroke="#231F20" stroke-width="0.25" stroke-miterlimit="10" d="M134.6,236.2h14v5.1h-4v-2.1h-3.7v3.2h4.4
		v3.1h-4.4v3.8h3.7v-2.2h4v5.2h-14v-3.1h1.5v-10.1h-1.5V236.2z"/>
	<path fill="#D2DDBB" stroke="#231F20" stroke-width="0.25" stroke-miterlimit="10" d="M175,236.1h-1.5v13.2h-5l-5.9-8.8v5.8h1.8v3
		h-7.1v-3h1.4v-10.2h-1.3v-3h6.6l5.7,8.5v-5.5h-1.6v-3h7L175,236.1L175,236.1z"/>
	<g>
		<g>
			<path fill="#003E18" d="M113,294h-2.4v-1.1h0.4v-2h-0.4v-1.1h2v3.2h0.4V294z M111.7,287.6c0.6,0,0.9,0.5,0.9,0.9
				c0,0.5-0.3,0.9-0.9,0.9c-0.5,0-0.9-0.5-0.9-0.9S111.1,287.6,111.7,287.6z"/>
			<path fill="#003E18" d="M115.9,294h-2.6v-1.1h0.4v-2h-0.4v-1.1h1.8l0.2,0.5c0.3-0.4,0.7-0.7,1.2-0.7c1.3,0,1.6,1,1.6,1.9v1.4h0.4
				v1.1h-2.2v-2.3c0-0.3,0-0.8-0.5-0.8c-0.4,0-0.5,0.4-0.5,0.8v1.2h0.6V294z"/>
			<path fill="#003E18" d="M123.1,292.7c0-0.4,0.1-1.2,0.4-2l0.3-1h1.6l0.3,1.1c0.2,0.7,0.3,1.6,0.4,1.9l0,0c0-0.3,0.1-0.9,0.2-1.4
				l0.1-0.5H126v-1.1h2.1v1.1h-0.4l-1,3.2h-1.8l-0.6-1.9l-0.6,1.9h-1.8l-1-3.2h-0.2v-1.1h2.3v1.1h-0.3l0.2,0.6
				C123,291.9,123.1,292.5,123.1,292.7L123.1,292.7z"/>
			<path fill="#003E18" d="M130.9,294h-2.7v-1.1h0.4v-4.2h-0.4v-1.1h2.1v2.7c0.1-0.2,0.7-0.7,1.3-0.7c1.3,0,1.5,1,1.5,1.9v1.4h0.4
				v1.1h-2.2v-2.3c0-0.3,0-0.8-0.5-0.8c-0.4,0-0.5,0.4-0.5,0.8v1.2h0.6L130.9,294L130.9,294z"/>
			<path fill="#003E18" d="M133.8,290.1c0.3-0.2,1.1-0.6,1.9-0.6c1,0,2.3,0.4,2.3,1.8v1.7h0.5v1.1h-1.8l-0.2-0.4
				c-0.3,0.4-0.8,0.5-1.2,0.5c-0.8,0-1.7-0.4-1.7-1.4s0.8-1.6,1.8-1.6c0.5,0,0.8,0.2,0.8,0.3v-0.3c0-0.4-0.4-0.5-0.8-0.5
				c-0.5,0-1,0.2-1.3,0.4L133.8,290.1z M136.2,292.8v-0.3c0,0-0.1-0.2-0.5-0.2c-0.3,0-0.5,0.2-0.5,0.5c0,0.2,0.2,0.4,0.5,0.4
				S136.2,292.9,136.2,292.8z"/>
			<path fill="#003E18" d="M138.3,289.7h0.5V289l1.6-0.5v1.3h0.8v1.1h-0.8v1.5c0,0.3-0.1,0.7,0.3,0.7c0.1,0,0.4-0.1,0.5-0.1v1.1
				c-0.3,0.1-0.8,0.2-1,0.2c-1.3,0-1.3-0.7-1.4-1.8V291h-0.5L138.3,289.7L138.3,289.7z"/>
			<path fill="#003E18" d="M146.2,294h-2.5v-1.1h0.4v-2h-0.4v-1.1h1.6l0.2,0.5c0.1-0.2,0.5-0.6,1.1-0.6c0.9,0,1.1,0.4,1.3,0.6
				c0.3-0.3,0.7-0.6,1.3-0.6c1.4,0,1.6,1,1.6,2.1v1.2h0.4v1.2H149v-2.1c0-0.4,0.1-1.1-0.3-1.1c-0.4,0-0.5,0.3-0.5,0.6v1.4h0.5v1.1
				h-2.2v-2.2c0-0.7,0-1-0.4-1c-0.3,0-0.4,0.2-0.4,0.5v1.5h0.5L146.2,294L146.2,294z"/>
			<path fill="#003E18" d="M151.3,290.1c0.3-0.2,1.1-0.6,1.9-0.6c1,0,2.3,0.4,2.3,1.8v1.7h0.5v1.1h-1.8l-0.2-0.4
				c-0.3,0.4-0.8,0.5-1.2,0.5c-0.8,0-1.7-0.4-1.7-1.4s0.8-1.6,1.8-1.6c0.5,0,0.8,0.2,0.8,0.3v-0.3c0-0.4-0.4-0.5-0.8-0.5
				c-0.5,0-1,0.2-1.3,0.4L151.3,290.1z M153.8,292.8v-0.3c0,0-0.1-0.2-0.5-0.2c-0.3,0-0.5,0.2-0.5,0.5c0,0.2,0.2,0.4,0.5,0.4
				C153.5,293.1,153.7,292.9,153.8,292.8z"/>
			<path fill="#003E18" d="M155.8,289.7h0.5V289l1.6-0.5v1.3h0.8v1.1h-0.8v1.5c0,0.3-0.1,0.7,0.3,0.7c0.1,0,0.4-0.1,0.5-0.1v1.1
				c-0.3,0.1-0.8,0.2-1,0.2c-1.3,0-1.3-0.7-1.4-1.8V291h-0.5L155.8,289.7L155.8,289.7z"/>
			<path fill="#003E18" d="M158.5,289.7h0.5V289l1.6-0.5v1.3h0.8v1.1h-0.8v1.5c0,0.3-0.1,0.7,0.3,0.7c0.1,0,0.4-0.1,0.5-0.1v1.1
				c-0.3,0.1-0.8,0.2-1,0.2c-1.3,0-1.3-0.7-1.4-1.8V291h-0.5L158.5,289.7L158.5,289.7z"/>
			<path fill="#003E18" d="M165.9,293.4c-0.6,0.5-1.3,0.7-2.2,0.7c-1.1,0-2.3-0.7-2.3-2.3c0-1.4,1-2.2,2.3-2.2c1,0,1.8,0.5,2,1.2
				c0.1,0.3,0.2,1,0,1.4H163c0.1,0.2,0.2,0.7,0.9,0.7c0.3,0,0.7,0,1.2-0.4L165.9,293.4z M163.1,291.5h1.3c0-0.3-0.1-0.7-0.6-0.7
				C163.2,290.8,163.1,291.3,163.1,291.5z"/>
			<path fill="#003E18" d="M168.5,294h-2.4v-1.1h0.4v-2h-0.4v-1.1h1.6l0.3,0.5c0.2-0.4,0.4-0.8,1.3-0.8v1.5c-0.8,0-1.2,0.2-1.2,1
				v0.9h0.4L168.5,294L168.5,294z"/>
			<path fill="#003E18" d="M169.3,294v-1.5h1.1c0,0.5,0.7,0.6,0.9,0.6s0.4-0.1,0.4-0.3c0-0.3-0.6-0.3-1.3-0.5
				c-0.6-0.2-1.1-0.6-1.1-1.4c0-0.9,0.9-1.2,1.5-1.2s1.1,0.3,1.3,0.7l0.1-0.6h1.1v1.5h-1.1c0-0.4-0.4-0.7-0.9-0.7
				c-0.2,0-0.3,0.1-0.3,0.3c0,0.2,0.5,0.3,1.1,0.5c0.7,0.2,1.4,0.5,1.4,1.4c0,0.8-0.8,1.3-1.6,1.3c-0.6,0-1.1-0.3-1.3-0.6l-0.1,0.5
				L169.3,294L169.3,294z"/>
			<path fill="#003E18" d="M178.4,294h-2.5v-1.1h0.4v-2h-0.4v-1.1h1.6l0.2,0.5c0.1-0.2,0.5-0.6,1.1-0.6c0.9,0,1.1,0.4,1.3,0.6
				c0.3-0.3,0.7-0.6,1.3-0.6c1.4,0,1.6,1,1.6,2.1v1.2h0.4v1.2h-2.2v-2.1c0-0.4,0.1-1.1-0.3-1.1c-0.4,0-0.5,0.3-0.5,0.6v1.4h0.5v1.1
				h-2.2v-2.2c0-0.7,0-1-0.4-1c-0.3,0-0.4,0.2-0.4,0.5v1.5h0.5L178.4,294L178.4,294z"/>
			<path fill="#003E18" d="M183.4,291.9c0-1.4,1.2-2.2,2.3-2.2c1.4,0,2.4,0.8,2.4,2.3c0,1.4-1,2.2-2.3,2.2
				C184.6,294.1,183.4,293.4,183.4,291.9z M186.4,291.9c0-0.6-0.2-1.1-0.6-1.1c-0.3,0-0.6,0.5-0.6,1.1c0,0.7,0.3,1.2,0.6,1.2
				C186.1,293,186.4,292.6,186.4,291.9z"/>
			<path fill="#003E18" d="M188.2,294v-1.5h1.1c0,0.5,0.7,0.6,0.9,0.6s0.4-0.1,0.4-0.3c0-0.3-0.6-0.3-1.3-0.5
				c-0.6-0.2-1.1-0.6-1.1-1.4c0-0.9,0.9-1.2,1.5-1.2s1.1,0.3,1.3,0.7l0.1-0.6h1.1v1.5h-1.1c0-0.4-0.4-0.7-0.9-0.7
				c-0.2,0-0.3,0.1-0.3,0.3c0,0.2,0.5,0.3,1.1,0.5c0.7,0.2,1.4,0.5,1.4,1.4c0,0.8-0.8,1.3-1.6,1.3c-0.6,0-1.1-0.3-1.3-0.6l-0.1,0.5
				L188.2,294L188.2,294z"/>
			<g>
				<path fill="#003E18" d="M192.3,289.7h0.5V289l1.6-0.5v1.3h0.8v1.1h-0.8v1.5c0,0.3-0.1,0.7,0.3,0.7c0.1,0,0.4-0.1,0.5-0.1v1.1
					c-0.3,0.1-0.8,0.2-1,0.2c-1.3,0-1.3-0.7-1.4-1.8V291h-0.5L192.3,289.7L192.3,289.7z"/>
				<path fill="#003E18" d="M197.1,289.7c0-0.7-0.3-1.2-0.8-1.6c-0.1-0.5-0.3-1-0.8-1.3c-0.5-0.4-1.1-0.5-1.7-0.3l-1.6,0.5
					c-0.4,0.1-0.7,0.4-0.9,0.7h-0.2c-0.1,0-0.2,0-0.4,0c-0.3-0.1-0.6-0.1-1-0.1c-0.7,0-1.3,0.2-1.9,0.5c-0.6-0.3-1.3-0.5-2.1-0.5
					c-0.9,0-1.6,0.2-2.3,0.6c-0.8-0.6-1.7-0.6-2.1-0.6c-0.3,0-0.8,0.1-1.2,0.2c-0.4-0.1-0.8-0.2-1.3-0.2c-0.3,0-0.6,0-0.9,0.2
					c-0.1,0-0.2,0-0.3,0H176c-0.5,0-1,0.2-1.3,0.5c-0.3-0.3-0.8-0.5-1.3-0.5h-1.1c-0.1,0-0.2,0-0.4,0c-0.3-0.1-0.6-0.1-1-0.1
					c-0.3,0-0.5,0-0.8,0.1c-0.3-0.1-0.5-0.2-0.8-0.2c-0.5,0-1,0.1-1.4,0.2c-0.1,0-0.2,0-0.2,0h-1.6c-0.3,0-0.5,0.1-0.8,0.2
					c-0.5-0.2-1-0.3-1.6-0.3c-0.5,0-0.9,0.1-1.3,0.2c-0.1-0.4-0.3-0.8-0.7-1c-0.5-0.4-1.1-0.5-1.7-0.3l-1,0.3c0,0,0,0,0-0.1
					c-0.5-0.4-1.1-0.5-1.7-0.3l-1.6,0.5c-0.4,0.1-0.7,0.4-0.9,0.7c-0.5-0.1-1-0.2-1.5-0.2c-0.8,0-1.5,0.2-2.3,0.6
					c-0.7-0.4-1.5-0.5-1.8-0.5s-0.8,0.1-1.2,0.2c-0.4-0.1-0.8-0.2-1.3-0.2c-0.3,0-0.6,0-0.9,0.2c-0.1,0-0.2,0-0.3,0h-1.6
					c-0.5,0-0.9,0.2-1.2,0.5c-0.1-0.1-0.1-0.1-0.2-0.2c-0.1-0.5-0.3-1-0.8-1.3c-0.5-0.4-1.1-0.5-1.7-0.3l-1.6,0.5
					c-0.4,0.1-0.7,0.4-0.9,0.7c-0.5-0.1-1-0.2-1.6-0.2c-0.7,0-1.5,0.2-2.2,0.6c-0.4-0.2-0.9-0.4-1.2-0.4v-0.1c0-1.1-0.9-1.9-1.9-1.9
					h-2.1c-1.1,0-1.9,0.9-1.9,1.9v0.2h-0.2c-0.1,0-0.2,0-0.4,0c-0.1,0-0.2,0-0.4,0h-1.9c-0.1,0-0.3,0-0.4,0c-0.1,0-0.2,0-0.4,0h-2.2
					c-0.7,0-1.3,0.4-1.6,1c-0.7-0.8-1.6-1.1-2.6-1.1c-0.4,0-0.7,0.1-1.1,0.2c-0.1,0-0.2,0-0.3,0h-0.6c-0.3-1.2-1.4-2.1-2.8-2.1
					c-1.6,0-2.8,1.2-2.8,2.8c0,0.1,0,0.2,0,0.3c-0.2,0.3-0.3,0.6-0.3,1v1.1c0,0.4,0.1,0.7,0.3,1c-0.2,0.3-0.3,0.6-0.3,1v1.1
					c0,1.1,0.9,1.9,1.9,1.9h2.4h0.1h0.1h2.6c0.1,0,0.1,0,0.2,0c0.1,0,0.1,0,0.2,0h2.2c0.8,0,1.6-0.6,1.8-1.3c0.3,0.8,1,1.3,1.8,1.3
					h1.8c0.2,0,0.4,0,0.6-0.1c0.2,0.1,0.4,0.1,0.6,0.1h1.8c0.2,0,0.5-0.1,0.7-0.1c0.2,0.1,0.5,0.1,0.7,0.1h2.7c0.1,0,0.1,0,0.2,0
					c0.1,0,0.1,0,0.2,0h2.2c0.2,0,0.3,0,0.5-0.1c0.4,0.1,0.8,0.2,1.3,0.2c0.4,0,0.8-0.1,1.1-0.2c0.1,0,0.2,0,0.3,0h1.8
					c0.1,0,0.3,0,0.4,0c0.4,0.1,0.7,0.2,1.2,0.2c0,0,1,0,1.7-0.3c0.2-0.1,0.4-0.2,0.5-0.3c0.3,0.3,0.8,0.5,1.2,0.5h2.5h0.1h0.1h2.2
					h0.1h0.1h2.2c0.2,0,0.3,0,0.5-0.1c0.4,0.1,0.8,0.2,1.3,0.2c0.4,0,0.8-0.1,1.1-0.2c0.1,0,0.2,0,0.3,0h1.8c0.1,0,0.2,0,0.3,0
					c0.3,0.1,0.7,0.2,1.2,0.2c0,0,0.8,0,1.5-0.2c0.4,0.1,0.8,0.2,1.3,0.2c0,0,1,0,1.7-0.3c0.5,0.2,1,0.3,1.6,0.3
					c0.7,0,1.2-0.1,1.8-0.3c0.2,0.1,0.4,0.1,0.6,0.1h2.4c0.1,0,0.3,0,0.4-0.1c0.1,0,0.3,0.1,0.4,0.1h1.1c0.1,0,0.3,0,0.4,0
					c0.3,0.1,0.7,0.1,1,0.1c1,0,1.9-0.4,2.5-1c0.3,0.5,0.9,0.9,1.6,0.9h2.5h0.1h0.1h2.2h0.1h0.1h2.2c0.3,0,0.6-0.1,0.8-0.2
					c0.5,0.2,1.1,0.3,1.6,0.3c0.6,0,1.1-0.1,1.6-0.3c0.2,0.1,0.5,0.2,0.8,0.2h1.1c0.1,0,0.3,0,0.4,0c0.3,0.1,0.7,0.1,1,0.1
					c0.6,0,1.2-0.2,1.7-0.4c0.5,0.3,1.1,0.5,1.9,0.5c0,0,1,0,1.7-0.3s1.2-1,1.2-1.8v-1.1c0-0.4-0.1-0.7-0.3-1c0.2-0.3,0.3-0.7,0.3-1
					v-1.2H197.1z"/>
			</g>
		</g>
		<g>
			<path fill="#D2DDBB" d="M113,294h-2.4v-1.1h0.4v-2h-0.4v-1.1h2v3.2h0.4V294z M111.7,287.6c0.6,0,0.9,0.5,0.9,0.9
				c0,0.5-0.3,0.9-0.9,0.9c-0.5,0-0.9-0.5-0.9-0.9C110.8,288,111.1,287.6,111.7,287.6z"/>
			<path fill="#D2DDBB" d="M115.9,294h-2.6v-1.1h0.4v-2h-0.4v-1.1h1.8l0.2,0.5c0.3-0.4,0.7-0.7,1.2-0.7c1.3,0,1.6,1,1.6,1.9v1.4h0.4
				v1.1h-2.2v-2.3c0-0.3,0-0.8-0.5-0.8c-0.4,0-0.5,0.4-0.5,0.8v1.2h0.6V294z"/>
			<path fill="#D2DDBB" d="M123.1,292.6c0-0.4,0.1-1.2,0.4-2l0.3-1h1.6l0.3,1.1c0.2,0.7,0.3,1.6,0.4,1.9l0,0c0-0.3,0.1-0.9,0.2-1.4
				l0.1-0.5H126v-1.1h2.1v1.1h-0.4l-1,3.2h-1.8l-0.6-1.9l-0.6,1.9h-1.8l-1-3.2h-0.2v-1.1h2.3v1.1h-0.3l0.2,0.6
				C123,291.8,123.1,292.4,123.1,292.6L123.1,292.6z"/>
			<path fill="#D2DDBB" d="M130.9,294h-2.7v-1.1h0.4v-4.2h-0.4v-1.1h2.1v2.7c0.1-0.2,0.7-0.7,1.3-0.7c1.3,0,1.5,1,1.5,1.9v1.4h0.4
				v1.1h-2.2v-2.3c0-0.3,0-0.8-0.5-0.8c-0.4,0-0.5,0.4-0.5,0.8v1.2h0.6L130.9,294L130.9,294z"/>
			<path fill="#D2DDBB" d="M133.8,290c0.3-0.2,1.1-0.6,1.9-0.6c1,0,2.3,0.4,2.3,1.8v1.7h0.5v1.1h-1.8l-0.2-0.4
				c-0.3,0.4-0.8,0.5-1.2,0.5c-0.8,0-1.7-0.4-1.7-1.4s0.8-1.6,1.8-1.6c0.5,0,0.8,0.2,0.8,0.3v-0.3c0-0.4-0.4-0.5-0.8-0.5
				c-0.5,0-1,0.2-1.3,0.4L133.8,290z M136.2,292.7v-0.3c0,0-0.1-0.2-0.5-0.2c-0.3,0-0.5,0.2-0.5,0.5c0,0.2,0.2,0.4,0.5,0.4
				S136.2,292.9,136.2,292.7z"/>
			<path fill="#D2DDBB" d="M138.3,289.7h0.5v-0.8l1.6-0.5v1.3h0.8v1.1h-0.8v1.5c0,0.3-0.1,0.7,0.3,0.7c0.1,0,0.4-0.1,0.5-0.1v1.1
				c-0.3,0.1-0.8,0.2-1,0.2c-1.3,0-1.3-0.7-1.4-1.8v-1.5h-0.5L138.3,289.7L138.3,289.7z"/>
			<path fill="#D2DDBB" d="M146.2,294h-2.5v-1.1h0.4v-2h-0.4v-1.1h1.6l0.2,0.5c0.1-0.2,0.5-0.6,1.1-0.6c0.9,0,1.1,0.4,1.3,0.6
				c0.3-0.3,0.7-0.6,1.3-0.6c1.4,0,1.6,1,1.6,2.1v1.2h0.4v1.2H149v-2.1c0-0.4,0.1-1.1-0.3-1.1c-0.4,0-0.5,0.3-0.5,0.6v1.4h0.5v1.1
				h-2.2v-2.2c0-0.7,0-1-0.4-1c-0.3,0-0.4,0.2-0.4,0.5v1.5h0.5L146.2,294L146.2,294z"/>
			<path fill="#D2DDBB" d="M151.3,290c0.3-0.2,1.1-0.6,1.9-0.6c1,0,2.3,0.4,2.3,1.8v1.7h0.5v1.1h-1.8l-0.2-0.4
				c-0.3,0.4-0.8,0.5-1.2,0.5c-0.8,0-1.7-0.4-1.7-1.4s0.8-1.6,1.8-1.6c0.5,0,0.8,0.2,0.8,0.3v-0.3c0-0.4-0.4-0.5-0.8-0.5
				c-0.5,0-1,0.2-1.3,0.4L151.3,290z M153.8,292.7v-0.3c0,0-0.1-0.2-0.5-0.2c-0.3,0-0.5,0.2-0.5,0.5c0,0.2,0.2,0.4,0.5,0.4
				C153.5,293,153.7,292.9,153.8,292.7z"/>
			<path fill="#D2DDBB" d="M155.8,289.7h0.5v-0.8l1.6-0.5v1.3h0.8v1.1h-0.8v1.5c0,0.3-0.1,0.7,0.3,0.7c0.1,0,0.4-0.1,0.5-0.1v1.1
				c-0.3,0.1-0.8,0.2-1,0.2c-1.3,0-1.3-0.7-1.4-1.8v-1.5h-0.5L155.8,289.7L155.8,289.7z"/>
			<path fill="#D2DDBB" d="M158.5,289.7h0.5v-0.8l1.6-0.5v1.3h0.8v1.1h-0.8v1.5c0,0.3-0.1,0.7,0.3,0.7c0.1,0,0.4-0.1,0.5-0.1v1.1
				c-0.3,0.1-0.8,0.2-1,0.2c-1.3,0-1.3-0.7-1.4-1.8v-1.5h-0.5L158.5,289.7L158.5,289.7z"/>
			<path fill="#D2DDBB" d="M165.9,293.4c-0.6,0.5-1.3,0.7-2.2,0.7c-1.1,0-2.3-0.7-2.3-2.3c0-1.4,1-2.2,2.3-2.2c1,0,1.8,0.5,2,1.2
				c0.1,0.3,0.2,1,0,1.4H163c0.1,0.2,0.2,0.7,0.9,0.7c0.3,0,0.7,0,1.2-0.4L165.9,293.4z M163.1,291.4h1.3c0-0.3-0.1-0.7-0.6-0.7
				C163.2,290.7,163.1,291.2,163.1,291.4z"/>
			<path fill="#D2DDBB" d="M168.5,294h-2.4v-1.1h0.4v-2h-0.4v-1.1h1.6l0.3,0.5c0.2-0.4,0.4-0.8,1.3-0.8v1.5c-0.8,0-1.2,0.2-1.2,1
				v0.9h0.4L168.5,294L168.5,294z"/>
			<path fill="#D2DDBB" d="M169.3,294v-1.5h1.1c0,0.5,0.7,0.6,0.9,0.6s0.4-0.1,0.4-0.3c0-0.3-0.6-0.3-1.3-0.5
				c-0.6-0.2-1.1-0.6-1.1-1.4c0-0.9,0.9-1.2,1.5-1.2s1.1,0.3,1.3,0.7l0.1-0.6h1.1v1.5h-1.1c0-0.4-0.4-0.7-0.9-0.7
				c-0.2,0-0.3,0.1-0.3,0.3c0,0.2,0.5,0.3,1.1,0.5c0.7,0.2,1.4,0.5,1.4,1.4c0,0.8-0.8,1.3-1.6,1.3c-0.6,0-1.1-0.3-1.3-0.6l-0.1,0.5
				L169.3,294L169.3,294z"/>
			<path fill="#D2DDBB" d="M178.4,294h-2.5v-1.1h0.4v-2h-0.4v-1.1h1.6l0.2,0.5c0.1-0.2,0.5-0.6,1.1-0.6c0.9,0,1.1,0.4,1.3,0.6
				c0.3-0.3,0.7-0.6,1.3-0.6c1.4,0,1.6,1,1.6,2.1v1.2h0.4v1.2h-2.2v-2.1c0-0.4,0.1-1.1-0.3-1.1c-0.4,0-0.5,0.3-0.5,0.6v1.4h0.5v1.1
				h-2.2v-2.2c0-0.7,0-1-0.4-1c-0.3,0-0.4,0.2-0.4,0.5v1.5h0.5L178.4,294L178.4,294z"/>
			<path fill="#D2DDBB" d="M183.4,291.8c0-1.4,1.2-2.2,2.3-2.2c1.4,0,2.4,0.8,2.4,2.3c0,1.4-1,2.2-2.3,2.2
				C184.6,294.1,183.4,293.3,183.4,291.8z M186.4,291.8c0-0.6-0.2-1.1-0.6-1.1c-0.3,0-0.6,0.5-0.6,1.1c0,0.7,0.3,1.2,0.6,1.2
				S186.4,292.5,186.4,291.8z"/>
			<path fill="#D2DDBB" d="M188.2,294v-1.5h1.1c0,0.5,0.7,0.6,0.9,0.6s0.4-0.1,0.4-0.3c0-0.3-0.6-0.3-1.3-0.5
				c-0.6-0.2-1.1-0.6-1.1-1.4c0-0.9,0.9-1.2,1.5-1.2s1.1,0.3,1.3,0.7l0.1-0.6h1.1v1.5h-1.1c0-0.4-0.4-0.7-0.9-0.7
				c-0.2,0-0.3,0.1-0.3,0.3c0,0.2,0.5,0.3,1.1,0.5c0.7,0.2,1.4,0.5,1.4,1.4c0,0.8-0.8,1.3-1.6,1.3c-0.6,0-1.1-0.3-1.3-0.6l-0.1,0.5
				L188.2,294L188.2,294z"/>
			<path fill="#D2DDBB" d="M192.3,289.7h0.5v-0.8l1.6-0.5v1.3h0.8v1.1h-0.8v1.5c0,0.3-0.1,0.7,0.3,0.7c0.1,0,0.4-0.1,0.5-0.1v1.1
				c-0.3,0.1-0.8,0.2-1,0.2c-1.3,0-1.3-0.7-1.4-1.8v-1.5h-0.5L192.3,289.7L192.3,289.7z"/>
		</g>
	</g>
	<path fill="#D2DDBB" stroke="#231F20" stroke-width="0.25" stroke-miterlimit="10" d="M185,251.5c-0.5,0.9-1.9,1.7-3.7,1.7
		c-4.1,0-7.3-3.2-7.3-8.2c0-5.1,3.5-8.5,7.1-8.5c3.4,0,4.1,1.6,4.5,1.9l0.5-1.7h3.5v6.8h-4.1c-0.1-1.9-1.3-2.9-2.6-2.9
		c-1.9,0-3.2,2-3.2,4.4s1.2,4.3,3.2,4.3c1.3,0,1.9-0.5,2.2-1.1v-1h-1.4v-2.5h7.7v2.5h-0.9v5.8h-4.8L185,251.5z"/>
	<path fill="#D2DDBB" stroke="#231F20" stroke-width="0.25" stroke-miterlimit="10" d="M96,250.4h15.1c10.8,0,12.9,4.3,12.9,9.6
		c0,3.6-2.9,6.2-6.7,6.7c3.2,0.5,6.1,3.3,6.1,6.6c0,2,0.3,3.2,1.1,3.2c0.7,0,1.1-0.6,1.1-1.5v-1.5h3.1v2.6c0,3.9-1.6,7.4-6.8,7.4
		c-6.1,0-9-3.2-9-8.6c0-4.2-0.5-5.3-4.6-5.3v7.2h2.8v6.1h-15v-6.1h2.6v-20.3h-2.6v-6.1H96z M108.2,256.4v7.9h2.1
		c2.7,0,4.5-1.3,4.5-3.8c0-2.7-1.5-4.1-4.2-4.1H108.2z"/>
	<path fill="#D2DDBB" stroke="#231F20" stroke-width="0.25" stroke-miterlimit="10" d="M127.8,255.2h15.4v5.9h-2.9V281h2.9v5.9
		h-15.4V281h2.9v-19.8h-2.9V255.2z"/>
	<path fill="#D2DDBB" stroke="#231F20" stroke-width="0.25" stroke-miterlimit="10" d="M173.7,277.5c-3.2,3.5-8,6.6-14.1,6.6
		c-9.9,0-16.4-6.3-16.4-16.7c0-10.7,8-17.1,14.1-17.1c4.6,0,6.7,2.6,7.2,3.2l1.1-2.6h7.3V264h-8.3c-0.1-3-1.6-5.9-4.9-5.9
		c-3.3,0-5.5,4.1-5.5,9.2c0,4.6,2.4,8.7,6.8,8.7c3.9,0,7-4.1,7.4-4.6L173.7,277.5z"/>
	<path fill="#D2DDBB" stroke="#231F20" stroke-width="0.25" stroke-miterlimit="10" d="M174,253.2h15.1v6.1h-2.9v7h8.8v-7h-2.7v-6.1
		h15.1v6.1h-2.7v20.2h2.7v6.1h-15.1v-6.1h2.7v-7h-8.8v7h2.9v6.1H174v-6.1h2.6v-20.2H174L174,253.2L174,253.2z"/>
	<g>
		<path fill="#231F20" d="M121.9,282.1c-5.2,0-7.7-2.4-7.7-7.4c0-4.8-0.9-6.5-5.9-6.5H107v9.8h2.8v3.6H97.4V278h2.6v-22.8h-2.6v-3.5
			h13.8c10.7,0,11.6,4.3,11.6,8.3c0,3-2.9,5.5-7.4,6.4l-3,0.6l3,0.5c3.7,0.6,6.8,3.3,6.8,5.9c0,1.2,0,4.5,2.4,4.5
			c1.2,0,2.4-0.9,2.4-2.8v-0.2h0.5v1.3C127.4,280.1,125.5,282.1,121.9,282.1z M106.6,267.9h1.6c5.3,0,6.2,2.1,6.2,6.8
			c0,4.8,2.4,7.1,7.5,7.1c3.5,0,5.2-2,5.2-5.9v-0.7c-0.1,1.9-1.4,2.7-2.6,2.7c-2.7,0-2.7-3.4-2.7-4.7c0-2.5-3.1-5.1-6.6-5.7
			l-4.6-0.7l4.6-0.9c4.4-0.8,7.2-3.2,7.2-6.1c0-3.9-0.9-8-11.3-8H97.6v3h2.6v23.4h-2.6v3h11.9v-3h-2.8L106.6,267.9L106.6,267.9z
			 M110.3,265.9h-3.7v-11h3.9c3.6,0,5.8,2.1,5.8,5.7C116.3,263.8,114,265.9,110.3,265.9z M106.9,265.6h3.4c3.5,0,5.8-2,5.8-5.1
			c0-3.4-2.1-5.4-5.5-5.4H107L106.9,265.6L106.9,265.6z"/>
	</g>
	<g>
		<path fill="#231F20" d="M141.9,285.7H129v-3.5h2.9v-22.3H129v-3.4h12.9v3.4H139v22.3h2.9V285.7z M129.3,285.4h12.3v-2.9h-2.9
			v-22.8h2.9v-2.9h-12.3v2.9h2.9v22.8h-2.9V285.4z"/>
	</g>
	<g>
		<path fill="#231F20" d="M159.9,282.6c-9.3,0-15.1-5.9-15.1-15.4c0-10.2,7.6-15.8,12.8-15.8c3.8,0,5.7,2,6.1,2.6l1.4,1.8l1.6-3.9
			h5.1v10.6h-5.9v-0.1c-0.6-3.5-2.9-5.7-6.1-5.7c-4,0-6.8,4.4-6.8,10.5c0,5.9,3.3,10,8.1,10c2.5,0,4.9-1.3,7.3-3.8l0.1-0.1l3.6,4
			l-0.1,0.1C169.7,279.8,165.5,282.6,159.9,282.6z M157.6,251.7c-5.1,0-12.6,5.5-12.6,15.5c0,9.3,5.7,15.1,14.8,15.1
			c5.5,0,9.5-2.7,11.9-5l-3.3-3.6c-2.4,2.5-4.9,3.8-7.4,3.8c-4.9,0-8.4-4.2-8.4-10.3c0-6.2,3-10.8,7.1-10.8c3.3,0,5.7,2.2,6.3,5.9
			h5.4v-10.1h-4.7l-1.7,4.2l-1.7-2.2C163.1,253.6,161.3,251.7,157.6,251.7z"/>
	</g>
	<g>
		<path fill="#231F20" d="M206.2,284.4h-12.5v-3.6h2.7v-9.6H185v9.6h2.9v3.6h-12.5v-3.6h2.6V258h-2.5l-0.2-3.4h12.4v3.6h-2.9v9.6
			l11.6-0.2V258h-2.7v-3.6h12.5v3.6h-2.7v22.8h2.7V284.4z M193.9,284.1h12v-3h-2.7v-23.4h2.7v-3h-12v3h2.7v10.1h-0.1l-12,0.2v-10
			h2.9v-3h-11.9l0.2,2.8h2.6v23.4h-2.6v3h11.9v-3h-2.9V271h12v10.1H194v3H193.9z"/>
	</g>
	<rect x="71" y="329.8" fill="#F3E6E1" width="164.4" height="22.7"/>
	<rect x="71" y="60.6" fill="#E3E3E3" width="164.4" height="31.9"/>
	<polygon fill="#C9C9C9" points="84.5,346.4 78.9,341.2 84.4,335.7 85.1,336.3 80.3,341.2 85.1,345.7 	"/>
	<polygon fill="#C9C9C9" points="116.6,346.4 115.9,345.7 120.4,341.2 115.9,336.3 116.6,335.7 121.7,341.2 	"/>
	<g>
		<polygon fill="#0EA9D6" points="158.4,347.6 147.9,347.6 147.9,337.2 151.7,337.2 151.7,338.2 148.9,338.2 148.9,346.6 
			157.4,346.6 157.4,338.2 154.7,338.2 154.7,337.2 158.4,337.2 		"/>
	</g>
	<polygon fill="#0EA9D6" points="155.5,335.7 153.2,333.5 153.1,333.5 150.6,335.7 151.3,336.4 152.6,335.1 152.6,342.4 
		153.6,342.4 153.6,335.2 154.8,336.4 	"/>
	<path fill="#0EA9D6" d="M194.3,345.1v-8.6c0-0.6-0.3-1-0.5-1.2c-0.5-0.4-1.1-0.4-1.1-0.4h-4.6c-0.5,0-0.9,0.2-1.1,0.4
		c-0.2-0.2-0.5-0.4-1.1-0.4h-4.7c-0.7,0-1.5,0.4-1.5,1.6v8.5c0,0.1-0.1,0.6,0.3,1.1c0.2,0.2,0.5,0.4,1.1,0.4h4.8h0.1
		c0.2,0,0.3,0.2,0.3,0.7h1c0-0.3,0.1-0.6,0.2-0.7c0.1-0.1,0.2,0,0.3,0h4.8c0.6,0,0.9-0.2,1.1-0.4
		C194.3,345.7,194.3,345.1,194.3,345.1z M186.6,345.6c-0.1,0-0.2,0-0.3,0s-0.2,0-0.2,0h-4.8c-0.1,0-0.3,0-0.4-0.1
		c-0.1-0.1-0.1-0.3-0.1-0.4v-8.6c0-0.3,0.1-0.6,0.6-0.6l0,0h4.6c0.2,0,0.4,0,0.5,0.1s0.1,0.4,0.1,0.4L186.6,345.6L186.6,345.6z
		 M193.2,345.5c-0.1,0.1-0.3,0.1-0.4,0.1h-4.7c0,0-0.3-0.1-0.6,0v-9.1c0,0,0,0,0-0.1l0,0c0,0,0-0.2,0.1-0.4c0.1-0.1,0.3-0.2,0.5-0.2
		h4.6c0,0,0.3,0,0.4,0.1c0.1,0.1,0.2,0.3,0.2,0.5v8.6C193.3,345.2,193.3,345.4,193.2,345.5z"/>
	<path fill="#0EA9D6" d="M224.6,347.5h-10.3v-10.2h10.3V347.5z M215.3,346.6h8.4v-8.3h-8.4V346.6z"/>
	<polygon fill="#0EA9D6" points="227.4,344.8 225.2,344.8 225.2,343.8 226.4,343.8 226.4,335.4 218.1,335.4 218.1,336.7 
		217.2,336.7 217.2,334.4 227.4,334.4 	"/>
	<circle cx="75.6" cy="65.8" r="1.3"/>
	<circle cx="79.3" cy="65.8" r="1.3"/>
	<circle cx="86.4" cy="65.8" r="1.3"/>
	<circle cx="90" cy="65.8" r="1.3"/>
	<circle cx="82.9" cy="65.8" r="1.3"/>
	<text transform="matrix(1 0 0 1 93.0186 68.3232)" font-family="'HelveticaNeue-Medium'" font-size="6.8667">L</text>
	<text transform="matrix(1 0 0 1 96.4186 68.3232)" font-family="'HelveticaNeue-Medium'" font-size="6.8667">C</text>
	<text transform="matrix(1 0 0 1 101.4186 68.3232)" font-family="'HelveticaNeue-Medium'" font-size="6.8667">T</text>
	<text transform="matrix(1 0 0 1 105.6186 68.3232)" font-family="'HelveticaNeue-Medium'" font-size="6.8667">V</text>
	<g enable-background="new    ">
		<path d="M142.4,66.8c0,0.2,0.1,0.3,0.2,0.4c0.1,0.1,0.3,0.2,0.4,0.2c0.2,0,0.3-0.1,0.5-0.2c0.1-0.1,0.2-0.2,0.3-0.4
			c0.1-0.2,0.1-0.3,0.1-0.5s0-0.3,0.1-0.5l0,0c-0.1,0.2-0.2,0.3-0.4,0.4c-0.2,0.1-0.3,0.1-0.5,0.1c-0.2,0-0.4,0-0.6-0.1
			s-0.3-0.2-0.4-0.3s-0.2-0.3-0.3-0.5c-0.1-0.2-0.1-0.4-0.1-0.6c0-0.2,0-0.4,0.1-0.6c0.1-0.2,0.2-0.3,0.3-0.5
			c0.1-0.1,0.3-0.2,0.5-0.3s0.4-0.1,0.6-0.1c0.3,0,0.6,0.1,0.8,0.2c0.2,0.1,0.4,0.3,0.5,0.5c0.1,0.2,0.2,0.4,0.2,0.7
			c0,0.3,0.1,0.6,0.1,0.9c0,0.3,0,0.5-0.1,0.8c-0.1,0.3-0.1,0.5-0.3,0.7c-0.1,0.2-0.3,0.4-0.5,0.5S143.3,68,143,68
			c-0.2,0-0.3,0-0.5-0.1s-0.3-0.1-0.4-0.2c-0.1-0.1-0.2-0.2-0.3-0.4c-0.1-0.1-0.1-0.3-0.1-0.5H142.4z M143.1,64
			c-0.1,0-0.2,0-0.3,0.1c-0.1,0-0.2,0.1-0.2,0.2c-0.1,0.1-0.1,0.2-0.1,0.3c0,0.1,0,0.2,0,0.3c0,0.1,0,0.2,0,0.3
			c0,0.1,0.1,0.2,0.1,0.3c0.1,0.1,0.1,0.1,0.2,0.2c0.1,0.1,0.2,0.1,0.3,0.1c0.1,0,0.2,0,0.3-0.1c0.1,0,0.2-0.1,0.2-0.2
			s0.1-0.2,0.1-0.3s0-0.2,0-0.3c0-0.1,0-0.2,0-0.3s-0.1-0.2-0.1-0.3c-0.1-0.1-0.1-0.1-0.2-0.2S143.2,64,143.1,64z"/>
		<path d="M145.3,64.7h0.9v0.8h-0.9V64.7z M145.3,67h0.9v0.8h-0.9V67z"/>
		<path d="M149.9,66.8h-0.6v1h-0.7v-1h-1.9v-0.7l1.9-2.6h0.7v2.8h0.6V66.8z M147.3,66.3h1.3v-1.9h0L147.3,66.3z"/>
		<path d="M150.3,63.5h3v0.6c-0.2,0.3-0.4,0.5-0.6,0.8c-0.2,0.3-0.3,0.6-0.5,0.9c-0.1,0.3-0.3,0.6-0.3,1s-0.1,0.7-0.2,1.1h-0.8
			c0-0.3,0.1-0.7,0.2-1c0.1-0.3,0.2-0.7,0.4-1c0.1-0.3,0.3-0.6,0.5-0.9c0.2-0.3,0.4-0.6,0.6-0.8h-2.3V63.5z"/>
		<path d="M156.9,63.4h0.8l1.7,4.4h-0.8l-0.4-1.2h-1.8l-0.4,1.2h-0.8L156.9,63.4z M156.6,66.1h1.4l-0.7-1.9h0L156.6,66.1z"/>
		<path d="M159.8,63.4h1.1l1.2,3.5h0l1.2-3.5h1.1v4.4h-0.7v-3.4h0l-1.2,3.4h-0.6l-1.2-3.4h0v3.4h-0.7V63.4z"/>
	</g>
	<g>
		<path d="M231.6,68.4H220v-5.1h11.6V68.4z M220.2,68.2h11.1v-4.6h-11.1V68.2z"/>
	</g>
	<rect x="220.7" y="64.1" width="6.9" height="3.4"/>
	<rect x="232" y="65.1" width="0.7" height="1.7"/>
	<path fill="#C2C3C7" d="M230.1,85.1c0,1.5-1.2,2.7-2.7,2.7H78.3c-1.5,0-2.7-1.2-2.7-2.7v-9.6c0-1.5,1.2-2.7,2.7-2.7h149.1
		c1.5,0,2.7,1.2,2.7,2.7L230.1,85.1L230.1,85.1z"/>
	<text transform="matrix(1 0 0 1 121.2875 83.4505)" font-family="'HelveticaNeue'" font-size="8.8379">live.lifechurch.tv</text>
	<path d="M222.9,77.9v1.5l2.4-1.6l-2.4-1.6v1l0,0c-1.8,0-3.3,1.5-3.3,3.3s1.5,3.3,3.3,3.3c1.8,0,3.3-1.5,3.3-3.3h-0.7
		c0,1.5-1.2,2.7-2.7,2.7s-2.7-1.2-2.7-2.7C220.2,79.1,221.4,77.9,222.9,77.9"/>
</g>
</svg>
