<?xml version="1.0" encoding="utf-8"?>
<!-- Generator: Adobe Illustrator 17.1.0, SVG Export Plug-In . SVG Version: 6.00 Build 0)  -->
<!DOCTYPE svg PUBLIC "-//W3C//DTD SVG 1.1//EN" "http://www.w3.org/Graphics/SVG/1.1/DTD/svg11.dtd">
<svg version="1.1" id="Layer_1" xmlns="http://www.w3.org/2000/svg" xmlns:xlink="http://www.w3.org/1999/xlink" x="0px" y="0px"
	 viewBox="-87.5 -193.5 200 412" enable-background="new -87.5 -193.5 200 412" xml:space="preserve">
<g id="Phone">
	<g>
		<path fill="#E7E7E9" d="M109.9,188c0,17.2-14,31.1-31.1,31.1H-56.4c-17.2,0-31.1-14-31.1-31.1v-347.1c0-17.2,14-31.1,31.1-31.1
			H78.8c17.2,0,31.1,14,31.1,31.1V188z"/>
		<path fill="#010005" d="M104.4,188c0,14.7-11.9,26.6-26.6,26.6H-55.1c-14.7,0-26.6-11.9-26.6-26.6v-346.3
			c0.1-14.7,12-26.6,26.6-26.6H77.8c14.7,0,26.6,11.9,26.6,26.6V188z"/>
		<rect x="42.9" y="-192.9" fill="#E7E7E9" width="31.1" height="2.7"/>
		<circle fill="#232323" cx="11.5" cy="187.7" r="18.4"/>
		<path fill="#232323" d="M28.5-154.3c0,2.2-1.8,3.9-3.9,3.9H-4.3c-2.2,0-3.9-1.8-3.9-3.9l0,0c0-2.2,1.8-3.9,3.9-3.9h28.9
			C26.7-158.3,28.5-156.5,28.5-154.3L28.5-154.3z"/>
		<circle fill="#232323" cx="10" cy="-169.4" r="3.9"/>
		<rect x="-71.8" y="-132.3" fill="#232323" width="165.9" height="292.2"/>
	</g>
</g>
<g id="Contents">
	<rect x="-70.7" y="-6.6" fill="#1E1E1E" width="164.4" height="143.5"/>
	<rect x="-70.7" y="-100.4" fill="#2F3030" width="164.4" height="93.8"/>
	<path fill="#FFFFFF" d="M-54.5-82.5c-0.3,0.1-0.6,0.2-0.9,0.3l-10.9,1.5l4.6-7.1c1.1-1.7,3.7-3.5,7.9-4.3l-4.2,6.2
		c-0.1,0.1-0.2,0.3-0.4,0.6l-1.3,1.9c-0.2,0.3-0.1,0.5,0.2,0.5c1.2-0.1,1.5-0.2,2-0.7c0.1-0.1,0.8-0.9,1.2-1.4l3.8-0.5
		c1.1-0.2,1.9-0.3,1.9-0.3S-51.5-83.9-54.5-82.5z M-44.7-84.1c-1.8,0.6-6.9,1.2-6.9,1.2c2.4-2.6,3.7-2.9,4.2-3.1
		c2.1-0.9,6.9-1.4,6.9-1.4S-41.5-85.1-44.7-84.1z M-45.2-90.8c-1.8,0.3-2.7,0.5-3.7,2.5c-0.1,0.2-0.4,0.9-1.2,1.1l-0.3,0.1l-4.6,0.6
		c0.7-1.1,1.7-2.6,1.9-2.9c1.1-1.6,2.4-3.2,8.2-4.3c0,0,3.2-0.5,5.3-0.9C-39.6-94.5-41.3-91.5-45.2-90.8z"/>
	<g>
		<path fill="#FFFFFF" d="M60.4-89.8l1.1,3.4l0,0l1.1-3.4h1.5v4.9h-1v-3.5l0,0L62-84.9h-0.8L60-88.3l0,0v3.4h-1v-4.9H60.4z"/>
		<path fill="#FFFFFF" d="M68.8-89.8v0.9h-2.6v1.1h2.4v0.8h-2.4v1.2h2.6v0.9h-3.7v-4.9H68.8z"/>
		<path fill="#FFFFFF" d="M70.7-89.8l2,3.3l0,0v-3.3h1v4.9h-1.1l-2-3.3l0,0v3.3h-1v-4.9H70.7z"/>
		<path fill="#FFFFFF" d="M78.3-85.3c-0.4,0.3-0.9,0.5-1.5,0.5c-0.7,0-1.2-0.2-1.5-0.5s-0.5-0.8-0.5-1.5v-3h1.1v3c0,0.1,0,0.3,0,0.4
			s0.1,0.2,0.1,0.3c0.1,0.1,0.2,0.2,0.3,0.2c0.1,0.1,0.3,0.1,0.5,0.1c0.4,0,0.7-0.1,0.8-0.3c0.1-0.2,0.2-0.4,0.2-0.8v-3h1.1v3
			C78.8-86.1,78.7-85.6,78.3-85.3z"/>
	</g>
	<rect x="80.6" y="-89.8" fill="#FFFFFF" width="6.9" height="1.1"/>
	<rect x="80.6" y="-87.9" fill="#FFFFFF" width="6.9" height="1.1"/>
	<rect x="80.6" y="-85.9" fill="#FFFFFF" width="6.9" height="1.1"/>
	<g enable-background="new    ">
		<path fill="#FFFFFF" d="M-63.3-61.1v-6.6h0.9l2.1,3.3c0.5,0.8,0.9,1.5,1.2,2.1l0,0c-0.1-0.9-0.1-1.7-0.1-2.7v-2.7h0.8v6.6h-0.9
			l-2.1-3.3c-0.5-0.7-0.9-1.5-1.2-2.2l0,0c0,0.8,0.1,1.6,0.1,2.7v2.8C-62.5-61.1-63.3-61.1-63.3-61.1z"/>
		<path fill="#FFFFFF" d="M-56.4-63.3c0,1.2,0.8,1.6,1.6,1.6c0.6,0,1-0.1,1.3-0.2l0.1,0.6c-0.3,0.1-0.8,0.3-1.6,0.3
			c-1.4,0-2.3-1-2.3-2.4s0.8-2.5,2.2-2.5c1.5,0,1.9,1.4,1.9,2.2c0,0.2,0,0.3,0,0.4C-53.2-63.3-56.4-63.3-56.4-63.3z M-53.9-63.9
			c0-0.5-0.2-1.4-1.2-1.4c-0.9,0-1.2,0.8-1.3,1.4H-53.9z"/>
		<path fill="#FFFFFF" d="M-51.7-65.8l0.7,1c0.2,0.3,0.3,0.5,0.5,0.8l0,0c0.2-0.3,0.3-0.5,0.5-0.8l0.7-1h0.9l-1.6,2.3l1.7,2.4h-1
			l-0.7-1.1c-0.2-0.3-0.3-0.5-0.5-0.8l0,0c-0.2,0.3-0.3,0.5-0.5,0.8l-0.7,1.1h-1l1.7-2.4l-1.6-2.3C-52.6-65.8-51.7-65.8-51.7-65.8z"
			/>
		<path fill="#FFFFFF" d="M-46.4-67.1v1.4h1.2v0.7h-1.2v2.5c0,0.6,0.2,0.9,0.6,0.9c0.2,0,0.4,0,0.5-0.1v0.6
			c-0.2,0.1-0.4,0.1-0.8,0.1s-0.7-0.1-0.9-0.4c-0.2-0.3-0.3-0.7-0.3-1.2v-2.6H-48v-0.7h0.7v-1L-46.4-67.1z"/>
		<path fill="#FFFFFF" d="M-37.9-63.5c0,1.7-1.2,2.5-2.3,2.5c-1.3,0-2.3-0.9-2.3-2.4c0-1.6,1-2.5,2.3-2.5
			C-38.8-65.9-37.9-64.9-37.9-63.5z M-41.6-63.4c0,1,0.6,1.8,1.4,1.8s1.4-0.8,1.4-1.8c0-0.8-0.4-1.8-1.4-1.8S-41.6-64.3-41.6-63.4z"
			/>
		<path fill="#FFFFFF" d="M-36.8-64.5c0-0.5,0-0.9,0-1.3h0.8v0.8l0,0c0.2-0.4,0.8-0.9,1.6-0.9c0.7,0,1.7,0.4,1.7,2v2.8h-1v-2.7
			c0-0.8-0.3-1.4-1.1-1.4c-0.6,0-1,0.4-1.1,0.9c0,0.1-0.1,0.3-0.1,0.4v2.8h-0.9L-36.8-64.5L-36.8-64.5z"/>
		<path fill="#FFFFFF" d="M-31.4-68h0.9v6.9h-0.9V-68z"/>
		<path fill="#FFFFFF" d="M-28.2-67.1c0,0.3-0.2,0.5-0.5,0.5s-0.5-0.2-0.5-0.5s0.2-0.5,0.5-0.5S-28.2-67.4-28.2-67.1z M-29.1-61.1
			v-4.7h0.9v4.7H-29.1z"/>
		<path fill="#FFFFFF" d="M-26.9-64.5c0-0.5,0-0.9,0-1.3h0.8v0.8l0,0c0.2-0.4,0.8-0.9,1.6-0.9c0.7,0,1.7,0.4,1.7,2v2.8h-0.9v-2.7
			c0-0.8-0.3-1.4-1.1-1.4c-0.6,0-1,0.4-1.1,0.9c0,0.1-0.1,0.3-0.1,0.4v2.8h-0.9V-64.5z"/>
		<path fill="#FFFFFF" d="M-21-63.3c0,1.2,0.8,1.6,1.6,1.6c0.6,0,1-0.1,1.3-0.2l0.1,0.6c-0.3,0.1-0.8,0.3-1.6,0.3
			c-1.4,0-2.3-1-2.3-2.4s0.8-2.5,2.2-2.5c1.5,0,1.9,1.4,1.9,2.2c0,0.2,0,0.3,0,0.4C-17.8-63.3-21-63.3-21-63.3z M-18.5-63.9
			c0-0.5-0.2-1.4-1.2-1.4c-0.9,0-1.2,0.8-1.3,1.4H-18.5z"/>
		<path fill="#FFFFFF" d="M-14.1-63.3c0,1.2,0.8,1.6,1.6,1.6c0.6,0,1-0.1,1.3-0.2l0.1,0.6c-0.3,0.1-0.8,0.3-1.6,0.3
			c-1.4,0-2.3-1-2.3-2.4s0.8-2.5,2.2-2.5c1.5,0,1.9,1.4,1.9,2.2c0,0.2,0,0.3,0,0.4C-10.9-63.3-14.1-63.3-14.1-63.3z M-11.6-63.9
			c0-0.5-0.2-1.4-1.2-1.4c-0.9,0-1.2,0.8-1.3,1.4H-11.6z"/>
		<path fill="#FFFFFF" d="M-9.3-65.8l0.7,1c0.2,0.3,0.3,0.5,0.5,0.8l0,0c0.2-0.3,0.3-0.5,0.5-0.8l0.7-1H-6l-1.6,2.3l1.7,2.4h-1
			l-0.7-1.1c-0.2-0.3-0.3-0.5-0.5-0.8l0,0c-0.2,0.3-0.3,0.5-0.5,0.8l-0.7,1.1h-0.9l1.7-2.4l-1.6-2.3C-10.1-65.8-9.3-65.8-9.3-65.8z"
			/>
		<path fill="#FFFFFF" d="M-5.2-64.2c0-0.6,0-1.1,0-1.5h0.8v0.8l0,0c0.3-0.6,0.9-0.9,1.7-0.9c1.1,0,2,1,2,2.4c0,1.7-1,2.5-2.1,2.5
			c-0.6,0-1.2-0.3-1.4-0.7l0,0v2.6H-5v-5.2H-5.2z M-4.4-63c0,0.1,0,0.2,0,0.4c0.2,0.6,0.7,1,1.3,1c0.9,0,1.4-0.7,1.4-1.8
			c0-0.9-0.5-1.7-1.4-1.7c-0.6,0-1.1,0.4-1.3,1.1c0,0.1-0.1,0.2-0.1,0.3v0.7H-4.4z"/>
		<path fill="#FFFFFF" d="M0.8-63.3c0,1.2,0.8,1.6,1.6,1.6c0.6,0,1-0.1,1.3-0.2l0.1,0.6C3.5-61.2,3-61,2.2-61c-1.4,0-2.3-1-2.3-2.4
			s0.8-2.5,2.2-2.5c1.5,0,1.9,1.4,1.9,2.2c0,0.2,0,0.3,0,0.4C4-63.3,0.8-63.3,0.8-63.3z M3.3-63.9c0-0.5-0.2-1.4-1.2-1.4
			c-0.9,0-1.2,0.8-1.3,1.4H3.3z"/>
		<path fill="#FFFFFF" d="M5.2-64.3c0-0.6,0-1,0-1.5h0.7v0.9l0,0c0.2-0.6,0.7-1,1.3-1c0.1,0,0.2,0,0.2,0v0.8c-0.1,0-0.2,0-0.3,0
			c-0.6,0-1,0.5-1.1,1.1c0,0.1,0,0.3,0,0.4v2.5H5.2C5.2-61.1,5.2-64.3,5.2-64.3z"/>
		<path fill="#FFFFFF" d="M9.4-67.1c0,0.3-0.2,0.5-0.5,0.5s-0.5-0.2-0.5-0.5s0.2-0.5,0.5-0.5C9.2-67.6,9.4-67.4,9.4-67.1z M8.4-61.1
			v-4.7h0.9v4.7H8.4z"/>
		<path fill="#FFFFFF" d="M11.2-63.3c0,1.2,0.8,1.6,1.6,1.6c0.6,0,1-0.1,1.3-0.2l0.1,0.6c-0.3,0.1-0.8,0.3-1.6,0.3
			c-1.4,0-2.3-1-2.3-2.4s0.8-2.5,2.2-2.5c1.5,0,1.9,1.4,1.9,2.2c0,0.2,0,0.3,0,0.4C14.4-63.3,11.2-63.3,11.2-63.3z M13.7-63.9
			c0-0.5-0.2-1.4-1.2-1.4c-0.9,0-1.2,0.8-1.3,1.4H13.7z"/>
		<path fill="#FFFFFF" d="M15.5-64.5c0-0.5,0-0.9,0-1.3h0.8v0.8l0,0c0.2-0.4,0.8-0.9,1.6-0.9c0.7,0,1.7,0.4,1.7,2v2.8h-0.9v-2.7
			c0-0.8-0.3-1.4-1.1-1.4c-0.6,0-1,0.4-1.1,0.9c0,0.1-0.1,0.3-0.1,0.4v2.8h-0.9V-64.5z"/>
		<path fill="#FFFFFF" d="M24.3-61.3c-0.2,0.1-0.7,0.3-1.4,0.3c-1.4,0-2.3-1-2.3-2.4s1-2.5,2.5-2.5c0.5,0,1,0.1,1.2,0.2L24.1-65
			c-0.2-0.1-0.5-0.2-1-0.2c-1.1,0-1.7,0.8-1.7,1.8c0,1.1,0.7,1.8,1.6,1.8c0.5,0,0.8-0.1,1-0.2L24.3-61.3z"/>
		<path fill="#FFFFFF" d="M25.7-63.3c0,1.2,0.8,1.6,1.6,1.6c0.6,0,1-0.1,1.3-0.2l0.1,0.6c-0.3,0.1-0.8,0.3-1.6,0.3
			c-1.4,0-2.3-1-2.3-2.4s0.8-2.5,2.2-2.5c1.5,0,1.9,1.4,1.9,2.2c0,0.2,0,0.3,0,0.4C28.9-63.3,25.7-63.3,25.7-63.3z M28.2-63.9
			c0-0.5-0.2-1.4-1.2-1.4c-0.9,0-1.2,0.8-1.3,1.4H28.2z"/>
		<path fill="#FFFFFF" d="M35.5-61.3c-0.2,0.1-0.7,0.3-1.4,0.3c-1.4,0-2.3-1-2.3-2.4s1-2.5,2.5-2.5c0.5,0,1,0.1,1.2,0.2L35.3-65
			c-0.2-0.1-0.5-0.2-1-0.2c-1.1,0-1.7,0.8-1.7,1.8c0,1.1,0.7,1.8,1.6,1.8c0.5,0,0.8-0.1,1-0.2L35.5-61.3z"/>
		<path fill="#FFFFFF" d="M40.7-63.5c0,1.7-1.2,2.5-2.3,2.5c-1.3,0-2.3-0.9-2.3-2.4c0-1.6,1-2.5,2.3-2.5
			C39.8-65.9,40.7-64.9,40.7-63.5z M37-63.4c0,1,0.6,1.8,1.4,1.8c0.8,0,1.4-0.8,1.4-1.8c0-0.8-0.4-1.8-1.4-1.8S37-64.3,37-63.4z"/>
		<path fill="#FFFFFF" d="M41.8-64.5c0-0.5,0-0.9,0-1.3h0.7v0.8l0,0c0.3-0.4,0.7-0.9,1.5-0.9c0.6,0,1.1,0.4,1.3,0.9l0,0
			c0.1-0.3,0.3-0.5,0.5-0.6c0.3-0.2,0.6-0.3,1-0.3c0.6,0,1.5,0.4,1.5,2v2.8h-0.8v-2.7c0-0.9-0.3-1.4-1-1.4c-0.5,0-0.9,0.4-1,0.8
			c0,0.1-0.1,0.3-0.1,0.4v2.9h-0.8v-2.8c0-0.7-0.3-1.3-1-1.3c-0.5,0-0.9,0.4-1.1,0.9c0,0.1-0.1,0.3-0.1,0.4v2.8h-0.8v-3.4H41.8z"/>
		<path fill="#FFFFFF" d="M50.9-67.1c0,0.3-0.2,0.5-0.5,0.5s-0.5-0.2-0.5-0.5s0.2-0.5,0.5-0.5C50.7-67.6,50.9-67.4,50.9-67.1z
			 M49.9-61.1v-4.7h0.9v4.7H49.9z"/>
		<path fill="#FFFFFF" d="M52.2-64.5c0-0.5,0-0.9,0-1.3H53v0.8l0,0c0.2-0.4,0.8-0.9,1.6-0.9c0.7,0,1.7,0.4,1.7,2v2.8h-1v-2.7
			c0-0.8-0.3-1.4-1.1-1.4c-0.6,0-1,0.4-1.1,0.9c0,0.1-0.1,0.3-0.1,0.4v2.8h-0.9v-3.4H52.2z"/>
		<path fill="#FFFFFF" d="M61.6-65.8c0,0.3,0,0.7,0,1.3v2.7c0,1.1-0.2,1.7-0.7,2.1c-0.5,0.4-1.1,0.6-1.7,0.6c-0.6,0-1.2-0.1-1.6-0.4
			l0.2-0.7c0.3,0.2,0.8,0.4,1.4,0.4c0.9,0,1.5-0.5,1.5-1.6v-0.5l0,0c-0.3,0.4-0.8,0.8-1.5,0.8c-1.2,0-2-1-2-2.3c0-1.6,1-2.5,2.1-2.5
			c0.8,0,1.3,0.4,1.5,0.8l0,0v-0.7C60.8-65.8,61.6-65.8,61.6-65.8z M60.7-63.9c0-0.1,0-0.3,0-0.4c-0.2-0.5-0.6-0.9-1.2-0.9
			c-0.8,0-1.4,0.7-1.4,1.8c0,0.9,0.5,1.7,1.4,1.7c0.5,0,1-0.3,1.2-0.9c0-0.1,0.1-0.3,0.1-0.5v-0.8H60.7z"/>
		<path fill="#FFFFFF" d="M69-62.4c0,0.5,0,0.9,0,1.3h-0.7v-0.8l0,0c-0.2,0.4-0.7,0.9-1.6,0.9c-0.7,0-1.6-0.4-1.6-2.1v-2.8H66v2.6
			c0,0.9,0.3,1.5,1,1.5c0.6,0,1-0.4,1.1-0.8c0-0.1,0.1-0.3,0.1-0.4v-2.9h0.9L69-62.4L69-62.4z"/>
		<path fill="#FFFFFF" d="M70.4-64.2c0-0.6,0-1.1,0-1.5h0.8v0.8l0,0c0.3-0.6,0.9-0.9,1.7-0.9c1.1,0,2,1,2,2.4c0,1.7-1,2.5-2.1,2.5
			c-0.6,0-1.2-0.3-1.4-0.7l0,0v2.6h-0.8v-5.2H70.4z M71.3-63c0,0.1,0,0.2,0,0.4c0.2,0.6,0.7,1,1.3,1c0.9,0,1.4-0.7,1.4-1.8
			c0-0.9-0.5-1.7-1.4-1.7c-0.6,0-1.1,0.4-1.3,1.1c0,0.1-0.1,0.2-0.1,0.3v0.7H71.3z"/>
		<path fill="#FFFFFF" d="M79-67.1c0,0.3-0.2,0.5-0.5,0.5S78-66.8,78-67.1s0.2-0.5,0.5-0.5S79-67.4,79-67.1z M78-61.1v-4.7h0.9v4.7
			H78z"/>
		<path fill="#FFFFFF" d="M80.3-64.5c0-0.5,0-0.9,0-1.3h0.8v0.8l0,0c0.2-0.4,0.8-0.9,1.6-0.9c0.7,0,1.7,0.4,1.7,2v2.8h-0.9v-2.7
			c0-0.8-0.3-1.4-1.1-1.4c-0.6,0-1,0.4-1.1,0.9c0,0.1-0.1,0.3-0.1,0.4v2.8h-0.9V-64.5z"/>
	</g>
	
		<linearGradient id="SVGID_1_" gradientUnits="userSpaceOnUse" x1="-1537.3801" y1="-1189.8862" x2="-1537.3801" y2="-813.6201" gradientTransform="matrix(6.067961e-02 0 0 6.067961e-02 58.9876 23.483)">
		<stop  offset="0" style="stop-color:#FFFFFF"/>
		<stop  offset="0.5179" style="stop-color:#DBDADA"/>
		<stop  offset="0.5196" style="stop-color:#FFFFFF"/>
		<stop  offset="1" style="stop-color:#DDDCDC"/>
	</linearGradient>
	<path fill="url(#SVGID_1_)" d="M-23.3-27.2c0,0.8-0.6,1.4-1.4,1.4h-19.2c-0.8,0-1.4-0.6-1.4-1.4v-20.1c0-0.8,0.6-1.4,1.4-1.4h19.2
		c0.8,0,1.4,0.6,1.4,1.4V-27.2z"/>
	<g enable-background="new    ">
		<path d="M-34.8-36.8c0,3.5-1.3,5.4-3.6,5.4c-2,0-3.4-1.9-3.4-5.3c0-3.5,1.5-5.4,3.6-5.4C-36-42-34.8-40.1-34.8-36.8z M-40.4-36.7
			c0,2.7,0.8,4.2,2.1,4.2c1.4,0,2.1-1.7,2.1-4.3c0-2.5-0.7-4.2-2.1-4.2C-39.5-41-40.4-39.5-40.4-36.7z"/>
	</g>
	<g enable-background="new    ">
		<path d="M-27-36.8c0,3.5-1.3,5.4-3.6,5.4c-2,0-3.4-1.9-3.4-5.3c0-3.5,1.5-5.4,3.6-5.4C-28.2-42-27-40.1-27-36.8z M-32.6-36.7
			c0,2.7,0.8,4.2,2.1,4.2c1.4,0,2.1-1.7,2.1-4.3c0-2.5-0.7-4.2-2.1-4.2C-31.7-41-32.6-39.5-32.6-36.7z"/>
	</g>
	
		<linearGradient id="SVGID_2_" gradientUnits="userSpaceOnUse" x1="-1033.092" y1="-1189.8862" x2="-1033.092" y2="-813.6201" gradientTransform="matrix(6.067961e-02 0 0 6.067961e-02 58.9876 23.483)">
		<stop  offset="0" style="stop-color:#FFFFFF"/>
		<stop  offset="0.5179" style="stop-color:#DBDADA"/>
		<stop  offset="0.5196" style="stop-color:#FFFFFF"/>
		<stop  offset="1" style="stop-color:#DDDCDC"/>
	</linearGradient>
	<path fill="url(#SVGID_2_)" d="M7.3-27.2c0,0.8-0.6,1.4-1.4,1.4h-19.2c-0.8,0-1.4-0.6-1.4-1.4v-20.1c0-0.8,0.6-1.4,1.4-1.4H5.9
		c0.8,0,1.4,0.6,1.4,1.4V-27.2z"/>
	<g enable-background="new    ">
		<path d="M-4.2-36.8c0,3.5-1.3,5.4-3.6,5.4c-2,0-3.4-1.9-3.4-5.3c0-3.5,1.5-5.4,3.6-5.4C-5.4-42-4.2-40.1-4.2-36.8z M-9.8-36.7
			c0,2.7,0.8,4.2,2.1,4.2c1.4,0,2.1-1.7,2.1-4.3c0-2.5-0.7-4.2-2.1-4.2C-8.9-41-9.8-39.5-9.8-36.7z"/>
	</g>
	<g enable-background="new    ">
		<path d="M3.6-36.8c0,3.5-1.3,5.4-3.6,5.4c-2,0-3.4-1.9-3.4-5.3c0-3.5,1.5-5.4,3.6-5.4C2.4-42,3.6-40.1,3.6-36.8z M-2-36.7
			c0,2.7,0.8,4.2,2.1,4.2c1.4,0,2.1-1.7,2.1-4.3c0-2.5-0.7-4.2-2.1-4.2C-1.1-41-2-39.5-2-36.7z"/>
	</g>
	
		<linearGradient id="SVGID_3_" gradientUnits="userSpaceOnUse" x1="-533.7479" y1="-1189.8862" x2="-533.7479" y2="-813.6201" gradientTransform="matrix(6.067961e-02 0 0 6.067961e-02 58.9876 23.483)">
		<stop  offset="0" style="stop-color:#FFFFFF"/>
		<stop  offset="0.5179" style="stop-color:#DBDADA"/>
		<stop  offset="0.5196" style="stop-color:#FFFFFF"/>
		<stop  offset="1" style="stop-color:#DDDCDC"/>
	</linearGradient>
	<path fill="url(#SVGID_3_)" d="M37.6-27.2c0,0.8-0.6,1.4-1.4,1.4H17c-0.8,0-1.4-0.6-1.4-1.4v-20.1c0-0.8,0.6-1.4,1.4-1.4h19.2
		c0.8,0,1.4,0.6,1.4,1.4V-27.2L37.6-27.2z"/>
	<g enable-background="new    ">
		<path d="M22.4-40.6L22.4-40.6l-1.8,1l-0.3-1.1l2.3-1.2h1.2v10.3h-1.3L22.4-40.6L22.4-40.6z"/>
	</g>
	<g enable-background="new    ">
		<path d="M26-31.6v-0.9l1.1-1.1c2.6-2.5,3.8-3.8,3.8-5.4c0-1-0.5-2-2-2c-0.9,0-1.7,0.5-2.2,0.9l-0.4-1c0.7-0.6,1.7-1,2.9-1
			c2.2,0,3.2,1.5,3.2,3c0,1.9-1.4,3.4-3.6,5.5L28-32.8l0,0h4.6v1.2H26z"/>
	</g>
	
		<linearGradient id="SVGID_4_" gradientUnits="userSpaceOnUse" x1="-16.276" y1="-1189.8862" x2="-16.276" y2="-813.6201" gradientTransform="matrix(6.067961e-02 0 0 6.067961e-02 58.9876 23.483)">
		<stop  offset="0" style="stop-color:#FFFFFF"/>
		<stop  offset="0.5179" style="stop-color:#DBDADA"/>
		<stop  offset="0.5196" style="stop-color:#FFFFFF"/>
		<stop  offset="1" style="stop-color:#DDDCDC"/>
	</linearGradient>
	<path fill="url(#SVGID_4_)" d="M69-27.2c0,0.8-0.6,1.4-1.4,1.4H48.4c-0.8,0-1.4-0.6-1.4-1.4v-20.1c0-0.8,0.6-1.4,1.4-1.4h19.2
		c0.8,0,1.4,0.6,1.4,1.4V-27.2z"/>
	<g enable-background="new    ">
		<path d="M54.2-40.6L54.2-40.6l-1.8,1l-0.3-1.1l2.3-1.2h1.2v10.3h-1.3L54.2-40.6L54.2-40.6z"/>
	</g>
	<g enable-background="new    ">
		<path d="M64.1-41.9v0.9l-4.5,9.4h-1.4l4.5-9.1l0,0h-5v-1.2H64.1z"/>
	</g>
	<g enable-background="new    ">
		<path fill="#727272" d="M-41.1-21.2c0.4-0.1,0.8-0.1,1.3-0.1c0.9,0,1.5,0.2,1.9,0.6c0.4,0.4,0.7,0.9,0.7,1.7s-0.2,1.4-0.7,1.8
			c-0.4,0.4-1.1,0.7-2,0.7c-0.4,0-0.8,0-1.1-0.1v-4.6H-41.1z M-40.5-17.1c0.2,0,0.4,0,0.6,0c1.3,0,2-0.7,2-2c0-1.1-0.6-1.8-1.9-1.8
			c-0.3,0-0.5,0-0.7,0.1V-17.1z"/>
		<path fill="#727272" d="M-35.9-18.1l-0.5,1.5H-37l1.6-4.6h0.7l1.6,4.6h-0.6l-0.5-1.5H-35.9z M-34.3-18.5l-0.5-1.3
			c-0.1-0.3-0.2-0.6-0.2-0.8l0,0c-0.1,0.3-0.1,0.6-0.2,0.8l-0.5,1.3H-34.3z"/>
		<path fill="#727272" d="M-31.9-16.6v-2l-1.5-2.7h0.7L-32-20c0.2,0.3,0.3,0.6,0.5,1l0,0c0.1-0.3,0.3-0.6,0.5-1l0.7-1.3h0.7
			l-1.6,2.7v2H-31.9z"/>
		<path fill="#727272" d="M-29.4-17.3c0.3,0.2,0.7,0.3,1.1,0.3c0.6,0,1-0.3,1-0.8c0-0.4-0.2-0.7-0.9-0.9c-0.8-0.3-1.2-0.7-1.2-1.3
			c0-0.7,0.6-1.3,1.5-1.3c0.5,0,0.8,0.1,1,0.2l-0.2,0.5c-0.2-0.1-0.5-0.2-0.9-0.2c-0.6,0-0.9,0.4-0.9,0.7c0,0.4,0.3,0.6,0.9,0.9
			c0.8,0.3,1.2,0.7,1.2,1.4s-0.5,1.3-1.6,1.3c-0.4,0-0.9-0.1-1.2-0.3L-29.4-17.3z"/>
	</g>
	<g enable-background="new    ">
		<path fill="#727272" d="M-13-21.2v1.9h2.2v-1.9h0.6v4.6h-0.6v-2.2H-13v2.2h-0.6v-4.6H-13z"/>
		<path fill="#727272" d="M-5.2-19c0,1.6-1,2.4-2.1,2.4c-1.2,0-2.1-0.9-2.1-2.3c0-1.5,0.9-2.4,2.1-2.4C-6-21.3-5.2-20.3-5.2-19z
			 M-8.8-18.9c0,1,0.5,1.9,1.5,1.9c0.9,0,1.5-0.9,1.5-1.9c0-0.9-0.5-1.9-1.5-1.9S-8.8-19.9-8.8-18.9z"/>
		<path fill="#727272" d="M-3.8-21.2v2.7c0,1,0.5,1.5,1.1,1.5c0.7,0,1.1-0.5,1.1-1.5v-2.7H-1v2.7c0,1.4-0.7,2-1.8,2
			c-0.9,0-1.7-0.5-1.7-2v-2.7H-3.8z"/>
		<path fill="#727272" d="M0-21.2c0.3-0.1,0.7-0.1,1.1-0.1c0.6,0,1.1,0.1,1.3,0.4c0.2,0.2,0.4,0.5,0.4,0.9c0,0.6-0.4,1-0.9,1.2l0,0
			c0.4,0.1,0.6,0.5,0.7,0.9c0.2,0.6,0.3,1.1,0.4,1.3H2.4c-0.1-0.1-0.2-0.5-0.3-1.1c-0.1-0.6-0.4-0.9-0.9-0.9H0.6v2H0
			C0-16.6,0-21.2,0-21.2z M0.6-19.1h0.6c0.6,0,1-0.4,1-0.9c0-0.6-0.4-0.9-1.1-0.9c-0.3,0-0.5,0-0.6,0.1v1.7H0.6z"/>
		<path fill="#727272" d="M3.6-17.3C3.9-17.1,4.3-17,4.7-17c0.6,0,1-0.3,1-0.8c0-0.4-0.2-0.7-0.9-0.9C4-19,3.6-19.4,3.6-20
			c0-0.7,0.6-1.3,1.5-1.3c0.5,0,0.8,0.1,1,0.2l-0.2,0.5c-0.2-0.1-0.5-0.2-0.9-0.2c-0.6,0-0.9,0.4-0.9,0.7c0,0.4,0.3,0.6,0.9,0.9
			c0.8,0.3,1.2,0.7,1.2,1.4s-0.5,1.3-1.6,1.3c-0.4,0-0.9-0.1-1.2-0.3L3.6-17.3z"/>
	</g>
	<g enable-background="new    ">
		<path fill="#727272" d="M23.2-18.6c0-0.6-0.1-1.4-0.1-2l0,0c-0.2,0.5-0.4,1.1-0.6,1.8l-0.8,2.2h-0.4l-0.7-2.2
			c-0.2-0.7-0.4-1.2-0.5-1.8l0,0c0,0.6,0,1.4-0.1,2l-0.1,2h-0.6l0.3-4.6h0.8l0.8,2.2c0.2,0.6,0.3,1.1,0.5,1.6l0,0
			c0.1-0.5,0.3-1,0.5-1.6l0.8-2.2h0.8l0.3,4.6h-0.6L23.2-18.6z"/>
		<path fill="#727272" d="M25.5-21.2v4.6h-0.6v-4.6H25.5z"/>
		<path fill="#727272" d="M26.5-16.6v-4.6h0.7l1.5,2.3c0.3,0.5,0.6,1,0.8,1.5l0,0c-0.1-0.6-0.1-1.2-0.1-1.9v-1.9H30v4.6h-0.6
			l-1.5-2.3c-0.3-0.5-0.6-1-0.9-1.5l0,0c0,0.6,0,1.1,0,1.9v2h-0.5V-16.6z"/>
		<path fill="#727272" d="M30.9-17.3c0.3,0.2,0.7,0.3,1.1,0.3c0.6,0,1-0.3,1-0.8c0-0.4-0.2-0.7-0.9-0.9c-0.8-0.3-1.2-0.7-1.2-1.3
			c0-0.7,0.6-1.3,1.5-1.3c0.5,0,0.8,0.1,1,0.2l-0.2,0.5c-0.2-0.1-0.5-0.2-0.9-0.2c-0.6,0-0.9,0.4-0.9,0.7c0,0.4,0.3,0.6,0.9,0.9
			c0.8,0.3,1.2,0.7,1.2,1.4s-0.5,1.3-1.6,1.3c-0.4,0-0.9-0.1-1.2-0.3L30.9-17.3z"/>
	</g>
	<g enable-background="new    ">
		<path fill="#727272" d="M50.8-17.3c0.3,0.2,0.7,0.3,1.1,0.3c0.6,0,1-0.3,1-0.8c0-0.4-0.2-0.7-0.9-0.9c-0.8-0.3-1.2-0.7-1.2-1.3
			c0-0.7,0.6-1.3,1.5-1.3c0.5,0,0.8,0.1,1,0.2l-0.2,0.5c-0.2-0.1-0.5-0.2-0.9-0.2c-0.6,0-0.9,0.4-0.9,0.7c0,0.4,0.3,0.6,0.9,0.9
			c0.8,0.3,1.2,0.7,1.2,1.4s-0.5,1.3-1.6,1.3c-0.4,0-0.9-0.1-1.2-0.3L50.8-17.3z"/>
		<path fill="#727272" d="M56.7-18.8h-1.8v1.7h2v0.5h-2.6v-4.6h2.5v0.5h-1.9v1.5h1.8C56.7-19.2,56.7-18.8,56.7-18.8z"/>
		<path fill="#727272" d="M60.9-16.7c-0.2,0.1-0.7,0.2-1.2,0.2c-1.3,0-2.3-0.8-2.3-2.3c0-1.4,1-2.4,2.4-2.4c0.6,0,0.9,0.1,1.1,0.2
			l-0.1,0.5c-0.2-0.1-0.5-0.2-0.9-0.2c-1.1,0-1.8,0.7-1.8,1.9c0,1.1,0.7,1.9,1.8,1.9c0.4,0,0.7-0.1,1-0.2V-16.7z"/>
		<path fill="#727272" d="M61.6-17.3c0.3,0.2,0.7,0.3,1.1,0.3c0.6,0,1-0.3,1-0.8c0-0.4-0.2-0.7-0.9-0.9C62-19,61.6-19.4,61.6-20
			c0-0.7,0.6-1.3,1.5-1.3c0.5,0,0.8,0.1,1,0.2l-0.2,0.5c-0.2-0.1-0.5-0.2-0.9-0.2c-0.6,0-0.9,0.4-0.9,0.7c0,0.4,0.3,0.6,0.9,0.9
			c0.8,0.3,1.2,0.7,1.2,1.4s-0.5,1.3-1.6,1.3c-0.4,0-0.9-0.1-1.2-0.3L61.6-17.3z"/>
	</g>
	<rect x="-65.6" y="-0.9" fill="#2F3030" width="154.3" height="15.3"/>
	<g enable-background="new    ">
		<path fill="#FFFFFF" d="M-61,4.4c0.3-0.1,0.7-0.1,1.1-0.1c0.6,0,1,0.1,1.3,0.3c0.2,0.2,0.4,0.5,0.4,0.8c0,0.4-0.3,0.8-0.8,1l0,0
			c0.4,0.1,1,0.5,1,1.2c0,0.4-0.2,0.7-0.4,0.9c-0.3,0.3-0.8,0.4-1.6,0.4c-0.4,0-0.7,0-0.9-0.1L-61,4.4L-61,4.4z M-60.4,6.3h0.5
			c0.6,0,1-0.3,1-0.8s-0.4-0.8-1-0.8c-0.3,0-0.4,0-0.5,0V6.3z M-60.4,8.5c0.1,0,0.3,0,0.5,0c0.6,0,1.2-0.2,1.2-0.9
			c0-0.6-0.5-0.9-1.2-0.9h-0.5V8.5z"/>
		<path fill="#FFFFFF" d="M-56.9,7.4c0,0.8,0.5,1.2,1.1,1.2c0.4,0,0.7-0.1,0.9-0.2l0.1,0.4C-55,8.9-55.4,9-55.9,9
			c-1,0-1.6-0.7-1.6-1.7s0.6-1.8,1.6-1.8c1.1,0,1.4,1,1.4,1.6c0,0.1,0,0.2,0,0.3H-56.9z M-55.1,7c0-0.4-0.2-1-0.8-1
			c-0.6,0-0.9,0.6-0.9,1H-55.1z"/>
		<path fill="#FFFFFF" d="M-53.1,4.7c0,0.2-0.1,0.4-0.4,0.4c-0.2,0-0.4-0.2-0.4-0.4s0.2-0.4,0.4-0.4C-53.3,4.3-53.1,4.5-53.1,4.7z
			 M-53.8,9V5.7h0.6V9H-53.8z"/>
		<path fill="#FFFFFF" d="M-52.2,6.6c0-0.3,0-0.6,0-0.9h0.5v0.5l0,0c0.2-0.3,0.5-0.6,1.1-0.6c0.5,0,1.2,0.3,1.2,1.4v2H-50V7.1
			c0-0.5-0.2-1-0.8-1c-0.4,0-0.7,0.3-0.8,0.6c0,0.1,0,0.2,0,0.3v2h-0.6C-52.2,9-52.2,6.6-52.2,6.6z"/>
		<path fill="#FFFFFF" d="M-45.5,5.7c0,0.2,0,0.5,0,0.9v1.9c0,0.8-0.2,1.2-0.5,1.5s-0.8,0.4-1.2,0.4c-0.4,0-0.8-0.1-1.1-0.3l0.2-0.5
			c0.2,0.1,0.6,0.3,1,0.3c0.6,0,1.1-0.3,1.1-1.2V8.3l0,0c-0.2,0.3-0.5,0.6-1.1,0.6c-0.8,0-1.4-0.7-1.4-1.6c0-1.1,0.7-1.8,1.5-1.8
			c0.6,0,0.9,0.3,1,0.6l0,0V5.6h0.5V5.7z M-46.2,7c0-0.1,0-0.2,0-0.3c-0.1-0.4-0.4-0.6-0.8-0.6c-0.6,0-1,0.5-1,1.3
			c0,0.7,0.3,1.2,1,1.2c0.4,0,0.7-0.2,0.8-0.6c0-0.1,0-0.2,0-0.3V7z"/>
		<path fill="#FFFFFF" d="M-43.1,6.7c0-0.4,0-0.7,0-1h0.5v0.7l0,0c0.2-0.4,0.5-0.7,0.9-0.7c0.1,0,0.1,0,0.2,0v0.6
			c-0.1,0-0.1,0-0.2,0c-0.4,0-0.7,0.3-0.8,0.8c0,0.1,0,0.2,0,0.3v1.8h-0.6V6.7z"/>
		<path fill="#FFFFFF" d="M-40.2,4.7c0,0.2-0.1,0.4-0.4,0.4c-0.2,0-0.4-0.2-0.4-0.4s0.2-0.4,0.4-0.4C-40.3,4.3-40.2,4.5-40.2,4.7z
			 M-40.8,9V5.7h0.6V9H-40.8z"/>
		<path fill="#FFFFFF" d="M-36.8,8.9c-0.2,0.1-0.5,0.2-1,0.2c-1,0-1.7-0.7-1.7-1.7s0.7-1.8,1.8-1.8c0.4,0,0.7,0.1,0.8,0.2L-37,6.3
			c-0.1-0.1-0.4-0.2-0.7-0.2c-0.8,0-1.2,0.6-1.2,1.3c0,0.8,0.5,1.2,1.2,1.2c0.3,0,0.6-0.1,0.7-0.2L-36.8,8.9z"/>
		<path fill="#FFFFFF" d="M-36.1,4.1h0.6v2.1l0,0c0.1-0.2,0.2-0.3,0.4-0.4c0.2-0.1,0.4-0.2,0.6-0.2c0.4,0,1.2,0.3,1.2,1.4v2h-0.6
			V7.1c0-0.5-0.2-1-0.8-1c-0.4,0-0.7,0.3-0.8,0.6c0,0.1,0,0.2,0,0.3v2h-0.6C-36.1,9-36.1,4.1-36.1,4.1z"/>
		<path fill="#FFFFFF" d="M-30.2,4.7c0,0.2-0.1,0.4-0.4,0.4c-0.2,0-0.4-0.2-0.4-0.4s0.2-0.4,0.4-0.4C-30.3,4.3-30.2,4.5-30.2,4.7z
			 M-30.9,9V5.7h0.6V9H-30.9z"/>
		<path fill="#FFFFFF" d="M-29.3,6.6c0-0.3,0-0.6,0-0.9h0.5v0.5l0,0c0.2-0.3,0.5-0.6,1.1-0.6c0.5,0,1.2,0.3,1.2,1.4v2h-0.6V7.1
			c0-0.5-0.2-1-0.8-1c-0.4,0-0.7,0.3-0.8,0.6c0,0.1,0,0.2,0,0.3v2h-0.6C-29.3,9-29.3,6.6-29.3,6.6z"/>
		<path fill="#FFFFFF" d="M-23.8,5.7l0.4,1.7c0.1,0.4,0.2,0.7,0.2,1.1l0,0c0.1-0.3,0.2-0.7,0.3-1l0.5-1.7h0.5l0.5,1.7
			c0.1,0.4,0.2,0.7,0.3,1.1l0,0c0.1-0.3,0.1-0.7,0.3-1.1l0.5-1.7h0.6l-1.1,3.3h-0.5l-0.5-1.6c-0.1-0.4-0.2-0.7-0.3-1.1l0,0
			c-0.1,0.4-0.2,0.7-0.3,1.1l-0.5,1.6h-0.5l-1-3.3h0.6V5.7z"/>
		<path fill="#FFFFFF" d="M-18.9,4.1h0.6v2.1l0,0c0.1-0.2,0.2-0.3,0.4-0.4c0.2-0.1,0.4-0.2,0.6-0.2c0.4,0,1.2,0.3,1.2,1.4v2h-0.6
			V7.1c0-0.5-0.2-1-0.8-1c-0.4,0-0.7,0.3-0.8,0.6c0,0.1,0,0.2,0,0.3v2h-0.6C-18.9,9-18.9,4.1-18.9,4.1z"/>
		<path fill="#FFFFFF" d="M-13.3,9V8.6l0,0c-0.2,0.3-0.5,0.5-1,0.5c-0.7,0-1-0.5-1-1c0-0.8,0.7-1.2,2-1.2V6.8c0-0.3-0.1-0.8-0.8-0.8
			c-0.3,0-0.6,0.1-0.9,0.2l-0.1-0.4c0.3-0.2,0.7-0.3,1.1-0.3c1,0,1.3,0.7,1.3,1.4v1.2c0,0.3,0,0.6,0.1,0.8h-0.7V9z M-13.4,7.3
			c-0.7,0-1.4,0.1-1.4,0.7c0,0.4,0.3,0.6,0.6,0.6c0.4,0,0.7-0.3,0.8-0.6c0-0.1,0-0.1,0-0.2V7.3z"/>
		<path fill="#FFFFFF" d="M-11.1,4.7v1h0.9v0.5h-0.9V8c0,0.4,0.1,0.6,0.5,0.6c0.2,0,0.3,0,0.4,0v0.5c-0.1,0-0.3,0.1-0.5,0.1
			c-0.3,0-0.5-0.1-0.7-0.3s-0.2-0.5-0.2-0.9V6.1h-0.5V5.6h0.5V4.8L-11.1,4.7z"/>
		<path fill="#FFFFFF" d="M-8.1,6.6c0-0.3,0-0.6,0-0.9h0.5v0.5l0,0c0.2-0.3,0.5-0.6,1-0.6s0.8,0.3,0.9,0.7l0,0
			C-5.6,6.1-5.5,6-5.3,5.9c0.2-0.2,0.4-0.2,0.7-0.2c0.4,0,1.1,0.3,1.1,1.4v2h-0.6v-2c0-0.6-0.2-1-0.7-1c-0.3,0-0.6,0.3-0.7,0.5
			c0,0.1,0,0.2,0,0.3V9h-0.6V7c0-0.5-0.2-0.9-0.7-0.9c-0.4,0-0.7,0.3-0.7,0.6c0,0.1,0,0.2,0,0.3v2h-0.6C-8.1,9-8.1,6.6-8.1,6.6z"/>
		<path fill="#FFFFFF" d="M-0.6,9V8.6l0,0c-0.2,0.3-0.5,0.5-1,0.5c-0.7,0-1-0.5-1-1c0-0.8,0.7-1.2,2-1.2V6.8C-0.6,6.5-0.7,6-1.4,6
			C-1.7,6-2,6.1-2.3,6.2l-0.1-0.4c0.3-0.2,0.7-0.3,1.1-0.3c1,0,1.3,0.7,1.3,1.4v1.2c0,0.3,0,0.6,0.1,0.8h-0.7V9z M-0.6,7.3
			C-1.3,7.3-2,7.4-2,8c0,0.4,0.3,0.6,0.6,0.6C-1,8.6-0.7,8.3-0.6,8c0-0.1,0-0.1,0-0.2C-0.6,7.8-0.6,7.3-0.6,7.3z"/>
		<path fill="#FFFFFF" d="M1.6,4.7v1h0.9v0.5H1.6V8c0,0.4,0.1,0.6,0.5,0.6c0.2,0,0.3,0,0.4,0v0.5C2.4,9.1,2.2,9.2,2,9.2
			c-0.3,0-0.5-0.1-0.7-0.3S1.1,8.4,1.1,8V6.1H0.6V5.6h0.5V4.8L1.6,4.7z"/>
		<path fill="#FFFFFF" d="M3.9,4.7v1h0.9v0.5H3.9V8c0,0.4,0.1,0.6,0.5,0.6c0.2,0,0.3,0,0.4,0v0.5c-0.1,0-0.3,0.1-0.5,0.1
			C4,9.2,3.8,9.1,3.6,8.9S3.4,8.4,3.4,8V6.1H2.9V5.6h0.5V4.8L3.9,4.7z"/>
		<path fill="#FFFFFF" d="M5.7,7.4c0,0.8,0.5,1.2,1.1,1.2c0.4,0,0.7-0.1,0.9-0.2l0.1,0.4C7.6,8.9,7.2,9,6.7,9c-1,0-1.6-0.7-1.6-1.7
			s0.6-1.8,1.6-1.8c1.1,0,1.4,1,1.4,1.6c0,0.1,0,0.2,0,0.3H5.7z M7.5,7c0-0.4-0.2-1-0.8-1S5.8,6.6,5.8,7H7.5z"/>
		<path fill="#FFFFFF" d="M8.8,6.7c0-0.4,0-0.7,0-1h0.5v0.7l0,0C9.5,6,9.8,5.7,10.2,5.7c0.1,0,0.1,0,0.2,0v0.6c-0.1,0-0.1,0-0.2,0
			c-0.4,0-0.7,0.3-0.8,0.8c0,0.1,0,0.2,0,0.3v1.8H8.8C8.8,9.2,8.8,6.7,8.8,6.7z"/>
		<path fill="#FFFFFF" d="M11,8.4c0.2,0.1,0.5,0.2,0.8,0.2c0.4,0,0.6-0.2,0.6-0.5c0-0.3-0.2-0.4-0.6-0.6c-0.6-0.2-0.9-0.5-0.9-0.9
			c0-0.5,0.4-1,1.1-1c0.3,0,0.6,0.1,0.8,0.2l-0.2,0.4C12.5,6.1,12.2,6,11.9,6c-0.4,0-0.6,0.2-0.6,0.5s0.2,0.4,0.6,0.6
			c0.6,0.2,0.9,0.5,0.9,1c0,0.6-0.5,1-1.2,1c-0.4,0-0.7-0.1-0.9-0.2L11,8.4z"/>
		<path fill="#FFFFFF" d="M15.3,6.6c0-0.3,0-0.6,0-0.9h0.5v0.5l0,0c0.2-0.3,0.5-0.6,1-0.6s0.8,0.3,0.9,0.7l0,0
			c0.1-0.2,0.2-0.3,0.4-0.4c0.2-0.2,0.4-0.2,0.7-0.2c0.4,0,1.1,0.3,1.1,1.4v2h-0.6v-2c0-0.6-0.2-1-0.7-1c-0.3,0-0.6,0.3-0.7,0.5
			c0,0.1,0,0.2,0,0.3V9h-0.6V7c0-0.5-0.2-0.9-0.7-0.9c-0.4,0-0.7,0.3-0.7,0.6c0,0.1,0,0.2,0,0.3v2h-0.6V6.6z"/>
		<path fill="#FFFFFF" d="M24,7.3c0,1.2-0.9,1.8-1.7,1.8c-0.9,0-1.6-0.7-1.6-1.7c0-1.1,0.7-1.8,1.6-1.8C23.3,5.6,24,6.3,24,7.3z
			 M21.3,7.3c0,0.7,0.4,1.3,1,1.3s1-0.5,1-1.3c0-0.6-0.3-1.3-1-1.3S21.3,6.7,21.3,7.3z"/>
		<path fill="#FFFFFF" d="M24.7,8.4c0.2,0.1,0.5,0.2,0.8,0.2c0.4,0,0.6-0.2,0.6-0.5c0-0.3-0.2-0.4-0.6-0.6c-0.6-0.2-0.9-0.5-0.9-0.9
			c0-0.5,0.4-1,1.1-1c0.3,0,0.6,0.1,0.8,0.2l-0.2,0.4C26.2,6.1,25.9,6,25.6,6C25.2,6,25,6.2,25,6.5s0.2,0.4,0.6,0.6
			c0.6,0.2,0.9,0.5,0.9,1c0,0.6-0.5,1-1.2,1c-0.4,0-0.7-0.1-0.9-0.2L24.7,8.4z"/>
		<path fill="#FFFFFF" d="M28.2,4.7v1h0.9v0.5h-0.9V8c0,0.4,0.1,0.6,0.5,0.6c0.2,0,0.3,0,0.4,0v0.5c-0.1,0-0.3,0.1-0.5,0.1
			c-0.3,0-0.5-0.1-0.7-0.3S27.7,8.4,27.7,8V6.1h-0.5V5.6h0.5V4.8L28.2,4.7z"/>
	</g>
	<rect x="-65.6" y="14.5" fill="#CEC58E" width="154.3" height="115.8"/>
	<path fill="#003E18" d="M49.3,50.3v-7.9h-5.9L43.2,43c-0.8-0.5-2.1-0.8-3.8-0.8s-3.3,0.6-4.7,1.6v-5h-9.8v2.9L23,38.8h-8.8V40H6
		v1.9H-8.4c-1.1-0.8-2.7-1.4-5.3-1.4h-10.1v5.8h1.3v7.3h-1.3v5.9h10.2c1,0,3.3,0,5-1v2.4H8.2v-1.8h8.2v-1.2H24V55l1.9,2.9h6.5
		c1.5,2.4,4.1,3.8,7.1,3.8c1.2,0,2.3-0.3,3.3-0.8l0.3,0.6H50v-5.8h0.9v-5.3h-1.6V50.3z M-14.8,46.4L-14.8,46.4
		C-14.8,46.4-14.7,46.4-14.8,46.4c0.1,0,0.1,0.1,0.1,0.3s0,0.3,0,0.4h-0.1V46.4z M-14.4,53.7h-0.4v-1.2h0.4c0.3,0,0.5,0,0.5,0.6
		C-13.9,53.6-14.3,53.7-14.4,53.7z M-7.1,49.9c-0.2-0.2-0.3-0.4-0.5-0.6c0.2-0.3,0.4-0.6,0.5-1V49.9z M1.4,55H0.5v-0.9h0.9V55z
		 M1.4,48.2H0.5v-0.3h0.9V48.2z M7.4,52.9H5v-3h2.4V52.9z M15.5,52H15v-6.1h0.5V52z M40.5,50.3v4.4c-0.9-0.4-1.1-1.8-1.1-2.7
		c0-1.6,0.8-2.9,1.7-2.9c0.6,0,1,0.4,1.2,1.2H40.5z M33.8,44.6c-0.2,0.2-0.4,0.4-0.6,0.6v-0.6H33.8z"/>
	<path fill="#D2DDBB" stroke="#231F20" stroke-width="0.25" stroke-miterlimit="10" d="M7.4,41.4h7.7v3.1h-1.4v10.1h1.4v3.1H7.4
		v-3.1h1.5V44.5H7.4V41.4z"/>
	<path fill="#003E18" d="M67.1,67.9v-9h-18v9h2.7v4.2h-6v-4.2h2.9v-9H32.5v-2.4h-9.7L22.2,58c-1.4-1-3.5-2.1-6.6-2.1
		c-3.6,0-7.4,1.9-10.4,5c-0.9,0.9-1.6,2-2.3,3v-3h-18.3v8.6h2.9V79H-17c-0.4-2.1-1.6-3.9-3.4-5.2c2.6-1.5,4.1-3.9,4.1-6.9
		c0-7.6-4.4-11-14.3-11h-16.5v8.9h2.6v17.4h-2.6v9h17.9v-4.4c1.6,3.2,4.8,5,9.4,5c1.8,0,3.2-0.4,4.5-1.1v4.6H3v-8.7H0.1V69.5h0.6
		c-0.4,1.6-0.6,3.2-0.6,4.8c0,11,7,18.1,17.8,18.1c5.8,0,10.2-2.6,13-4.9v6.6h17.9v-9h-2.9v-4h6v4.2h-2.7v9h18v-9h-2.7V67.9H67.1
		L67.1,67.9z M-31.4,70h-0.7v-5h0.9c2,0,2.8,0.8,2.8,2.7C-28.4,69.2-29.4,70-31.4,70z M-32.1,82.4v-4.3c1.7,0.1,1.8,0.8,1.8,3.8
		c0,0.2,0,0.4,0,0.5H-32.1z M33.5,85.2h-0.1l0.1-0.2V85.2z M33.5,84l-6.9-7.6l-1.1,1.2c0,0-0.1,0.1-0.2,0.2
		c-2.7,3.2-4.8,3.9-6.1,3.9c-2.7,0-5.4-2.3-5.4-7.3c0-4.4,1.8-7.8,4.1-7.8c3.1,0,3.5,3.4,3.5,4.5l0.1,1.4h11.1v-4.6h0.9L33.5,84
		L33.5,84z"/>
	<path fill="#D2DDBB" stroke="#231F20" stroke-width="0.25" stroke-miterlimit="10" d="M-22.4,58.1v-3h1.3V44.9h-1.3v-3h8.6
		c3.8,0,5.7,1.4,5.7,4c0,1.9-0.5,2.9-2.3,3.6c1.7,0.5,3.1,1.7,3.1,3.9c0,3.3-1.8,4.7-6.3,4.7H-22.4z M-16.3,45v3.5h1.4
		c1.2,0,1.6-0.7,1.6-1.8s-0.6-1.7-1.5-1.7H-16.3z M-12.5,53.1c0-1.2-0.7-2-1.9-2h-1.8v4h1.9C-13.4,55.1-12.5,54.4-12.5,53.1z"/>
	<path fill="#D2DDBB" stroke="#231F20" stroke-width="0.25" stroke-miterlimit="10" d="M-7.1,43.3h14v5.1h-4v-2.1h-3.7v3.2h4.4v3.1
		h-4.4v3.8h3.7v-2.2h4v5.2h-14v-3.1h1.5V46.2h-1.5V43.3z"/>
	<path fill="#D2DDBB" stroke="#231F20" stroke-width="0.25" stroke-miterlimit="10" d="M33.3,43.2h-1.5v13.2h-5l-5.9-8.8v5.8h1.8v3
		h-7.1v-3H17V43.2h-1.3v-3h6.6l5.7,8.5v-5.5h-1.6v-3h7L33.3,43.2L33.3,43.2z"/>
	<g>
		<g>
			<path fill="#003E18" d="M-28.7,101.1h-2.4V100h0.4v-2h-0.4v-1.1h2v3.2h0.4V101.1z M-30,94.7c0.6,0,0.9,0.5,0.9,0.9
				c0,0.5-0.3,0.9-0.9,0.9c-0.5,0-0.9-0.5-0.9-0.9S-30.6,94.7-30,94.7z"/>
			<path fill="#003E18" d="M-25.8,101.1h-2.6V100h0.4v-2h-0.4v-1.1h1.8l0.2,0.5c0.3-0.4,0.7-0.7,1.2-0.7c1.3,0,1.6,1,1.6,1.9v1.4
				h0.4v1.1h-2.2v-2.3c0-0.3,0-0.8-0.5-0.8c-0.4,0-0.5,0.4-0.5,0.8v1.2h0.6V101.1z"/>
			<path fill="#003E18" d="M-18.6,99.8c0-0.4,0.1-1.2,0.4-2l0.3-1h1.6l0.3,1.1c0.2,0.7,0.3,1.6,0.4,1.9l0,0c0-0.3,0.1-0.9,0.2-1.4
				l0.1-0.5h-0.4v-1.1h2.1v1.1H-14l-1,3.2h-1.8l-0.6-1.9l-0.6,1.9h-1.8l-1-3.2H-21v-1.1h2.3v1.1H-19l0.2,0.6
				C-18.7,99-18.6,99.6-18.6,99.8L-18.6,99.8z"/>
			<path fill="#003E18" d="M-10.8,101.1h-2.7V100h0.4v-4.2h-0.4v-1.1h2.1v2.7c0.1-0.2,0.7-0.7,1.3-0.7c1.3,0,1.5,1,1.5,1.9v1.4h0.4
				v1.1h-2.2v-2.3c0-0.3,0-0.8-0.5-0.8c-0.4,0-0.5,0.4-0.5,0.8v1.2h0.6L-10.8,101.1L-10.8,101.1z"/>
			<path fill="#003E18" d="M-7.9,97.2c0.3-0.2,1.1-0.6,1.9-0.6c1,0,2.3,0.4,2.3,1.8v1.7h0.5v1.1H-5l-0.2-0.4
				c-0.3,0.4-0.8,0.5-1.2,0.5c-0.8,0-1.7-0.4-1.7-1.4s0.8-1.6,1.8-1.6c0.5,0,0.8,0.2,0.8,0.3v-0.3c0-0.4-0.4-0.5-0.8-0.5
				c-0.5,0-1,0.2-1.3,0.4L-7.9,97.2z M-5.5,99.9v-0.3c0,0-0.1-0.2-0.5-0.2c-0.3,0-0.5,0.2-0.5,0.5c0,0.2,0.2,0.4,0.5,0.4
				S-5.5,100-5.5,99.9z"/>
			<path fill="#003E18" d="M-3.4,96.8h0.5v-0.7l1.6-0.5v1.3h0.8V98h-0.8v1.5c0,0.3-0.1,0.7,0.3,0.7c0.1,0,0.4-0.1,0.5-0.1v1.1
				c-0.3,0.1-0.8,0.2-1,0.2c-1.3,0-1.3-0.7-1.4-1.8v-1.5h-0.5L-3.4,96.8L-3.4,96.8z"/>
			<path fill="#003E18" d="M4.5,101.1H2V100h0.4v-2H2v-1.1h1.6l0.2,0.5c0.1-0.2,0.5-0.6,1.1-0.6c0.9,0,1.1,0.4,1.3,0.6
				c0.3-0.3,0.7-0.6,1.3-0.6c1.4,0,1.6,1,1.6,2.1v1.2h0.4v1.2H7.3v-2.1c0-0.4,0.1-1.1-0.3-1.1c-0.4,0-0.5,0.3-0.5,0.6v1.4H7v1.1H4.8
				V99c0-0.7,0-1-0.4-1C4.1,98,4,98.2,4,98.5v1.5h0.5L4.5,101.1L4.5,101.1z"/>
			<path fill="#003E18" d="M9.6,97.2c0.3-0.2,1.1-0.6,1.9-0.6c1,0,2.3,0.4,2.3,1.8v1.7h0.5v1.1h-1.8l-0.2-0.4
				c-0.3,0.4-0.8,0.5-1.2,0.5c-0.8,0-1.7-0.4-1.7-1.4s0.8-1.6,1.8-1.6c0.5,0,0.8,0.2,0.8,0.3v-0.3c0-0.4-0.4-0.5-0.8-0.5
				c-0.5,0-1,0.2-1.3,0.4L9.6,97.2z M12.1,99.9v-0.3c0,0-0.1-0.2-0.5-0.2c-0.3,0-0.5,0.2-0.5,0.5c0,0.2,0.2,0.4,0.5,0.4
				C11.8,100.2,12,100,12.1,99.9z"/>
			<path fill="#003E18" d="M14.1,96.8h0.5v-0.7l1.6-0.5v1.3H17V98h-0.8v1.5c0,0.3-0.1,0.7,0.3,0.7c0.1,0,0.4-0.1,0.5-0.1v1.1
				c-0.3,0.1-0.8,0.2-1,0.2c-1.3,0-1.3-0.7-1.4-1.8v-1.5h-0.5L14.1,96.8L14.1,96.8z"/>
			<path fill="#003E18" d="M16.8,96.8h0.5v-0.7l1.6-0.5v1.3h0.8V98h-0.8v1.5c0,0.3-0.1,0.7,0.3,0.7c0.1,0,0.4-0.1,0.5-0.1v1.1
				c-0.3,0.1-0.8,0.2-1,0.2c-1.3,0-1.3-0.7-1.4-1.8v-1.5h-0.5L16.8,96.8L16.8,96.8z"/>
			<path fill="#003E18" d="M24.2,100.5c-0.6,0.5-1.3,0.7-2.2,0.7c-1.1,0-2.3-0.7-2.3-2.3c0-1.4,1-2.2,2.3-2.2c1,0,1.8,0.5,2,1.2
				c0.1,0.3,0.2,1,0,1.4h-2.7c0.1,0.2,0.2,0.7,0.9,0.7c0.3,0,0.7,0,1.2-0.4L24.2,100.5z M21.4,98.6h1.3c0-0.3-0.1-0.7-0.6-0.7
				C21.5,97.9,21.4,98.4,21.4,98.6z"/>
			<path fill="#003E18" d="M26.8,101.1h-2.4V100h0.4v-2h-0.4v-1.1H26l0.3,0.5c0.2-0.4,0.4-0.8,1.3-0.8v1.5c-0.8,0-1.2,0.2-1.2,1v0.9
				h0.4L26.8,101.1L26.8,101.1z"/>
			<path fill="#003E18" d="M27.6,101.1v-1.5h1.1c0,0.5,0.7,0.6,0.9,0.6s0.4-0.1,0.4-0.3c0-0.3-0.6-0.3-1.3-0.5
				c-0.6-0.2-1.1-0.6-1.1-1.4c0-0.9,0.9-1.2,1.5-1.2s1.1,0.3,1.3,0.7l0.1-0.6h1.1v1.5h-1.1c0-0.4-0.4-0.7-0.9-0.7
				c-0.2,0-0.3,0.1-0.3,0.3c0,0.2,0.5,0.3,1.1,0.5c0.7,0.2,1.4,0.5,1.4,1.4c0,0.8-0.8,1.3-1.6,1.3c-0.6,0-1.1-0.3-1.3-0.6l-0.1,0.5
				L27.6,101.1L27.6,101.1z"/>
			<path fill="#003E18" d="M36.7,101.1h-2.5V100h0.4v-2h-0.4v-1.1h1.6l0.2,0.5c0.1-0.2,0.5-0.6,1.1-0.6c0.9,0,1.1,0.4,1.3,0.6
				c0.3-0.3,0.7-0.6,1.3-0.6c1.4,0,1.6,1,1.6,2.1v1.2h0.4v1.2h-2.2v-2.1c0-0.4,0.1-1.1-0.3-1.1c-0.4,0-0.5,0.3-0.5,0.6v1.4h0.5v1.1
				H37V99c0-0.7,0-1-0.4-1c-0.3,0-0.4,0.2-0.4,0.5v1.5h0.5L36.7,101.1L36.7,101.1z"/>
			<path fill="#003E18" d="M41.7,99c0-1.4,1.2-2.2,2.3-2.2c1.4,0,2.4,0.8,2.4,2.3c0,1.4-1,2.2-2.3,2.2
				C42.9,101.2,41.7,100.5,41.7,99z M44.7,99c0-0.6-0.2-1.1-0.6-1.1c-0.3,0-0.6,0.5-0.6,1.1c0,0.7,0.3,1.2,0.6,1.2
				C44.4,100.1,44.7,99.7,44.7,99z"/>
			<path fill="#003E18" d="M46.5,101.1v-1.5h1.1c0,0.5,0.7,0.6,0.9,0.6s0.4-0.1,0.4-0.3c0-0.3-0.6-0.3-1.3-0.5
				c-0.6-0.2-1.1-0.6-1.1-1.4c0-0.9,0.9-1.2,1.5-1.2s1.1,0.3,1.3,0.7l0.1-0.6h1.1v1.5h-1.1c0-0.4-0.4-0.7-0.9-0.7
				c-0.2,0-0.3,0.1-0.3,0.3c0,0.2,0.5,0.3,1.1,0.5c0.7,0.2,1.4,0.5,1.4,1.4c0,0.8-0.8,1.3-1.6,1.3c-0.6,0-1.1-0.3-1.3-0.6l-0.1,0.5
				L46.5,101.1L46.5,101.1z"/>
			<g>
				<path fill="#003E18" d="M50.6,96.8h0.5v-0.7l1.6-0.5v1.3h0.8V98h-0.8v1.5c0,0.3-0.1,0.7,0.3,0.7c0.1,0,0.4-0.1,0.5-0.1v1.1
					c-0.3,0.1-0.8,0.2-1,0.2c-1.3,0-1.3-0.7-1.4-1.8v-1.5h-0.5L50.6,96.8L50.6,96.8z"/>
				<path fill="#003E18" d="M55.4,96.8c0-0.7-0.3-1.2-0.8-1.6c-0.1-0.5-0.3-1-0.8-1.3c-0.5-0.4-1.1-0.5-1.7-0.3l-1.6,0.5
					c-0.4,0.1-0.7,0.4-0.9,0.7h-0.2c-0.1,0-0.2,0-0.4,0c-0.3-0.1-0.6-0.1-1-0.1c-0.7,0-1.3,0.2-1.9,0.5c-0.6-0.3-1.3-0.5-2.1-0.5
					c-0.9,0-1.6,0.2-2.3,0.6c-0.8-0.6-1.7-0.6-2.1-0.6c-0.3,0-0.8,0.1-1.2,0.2c-0.4-0.1-0.8-0.2-1.3-0.2c-0.3,0-0.6,0-0.9,0.2
					c-0.1,0-0.2,0-0.3,0h-1.6c-0.5,0-1,0.2-1.3,0.5c-0.3-0.3-0.8-0.5-1.3-0.5h-1.1c-0.1,0-0.2,0-0.4,0c-0.3-0.1-0.6-0.1-1-0.1
					c-0.3,0-0.5,0-0.8,0.1c-0.3-0.1-0.5-0.2-0.8-0.2c-0.5,0-1,0.1-1.4,0.2c-0.1,0-0.2,0-0.2,0h-1.6c-0.3,0-0.5,0.1-0.8,0.2
					c-0.5-0.2-1-0.3-1.6-0.3c-0.5,0-0.9,0.1-1.3,0.2c-0.1-0.4-0.3-0.8-0.7-1c-0.5-0.4-1.1-0.5-1.7-0.3l-1,0.3c0,0,0,0,0-0.1
					c-0.5-0.4-1.1-0.5-1.7-0.3L14,94.1c-0.4,0.1-0.7,0.4-0.9,0.7c-0.5-0.1-1-0.2-1.5-0.2c-0.8,0-1.5,0.2-2.3,0.6
					c-0.7-0.4-1.5-0.5-1.8-0.5s-0.8,0.1-1.2,0.2c-0.4-0.1-0.8-0.2-1.3-0.2c-0.3,0-0.6,0-0.9,0.2c-0.1,0-0.2,0-0.3,0H2.2
					c-0.5,0-0.9,0.2-1.2,0.5c-0.1-0.1-0.1-0.1-0.2-0.2c-0.1-0.5-0.3-1-0.8-1.3c-0.5-0.4-1.1-0.5-1.7-0.3l-1.6,0.5
					c-0.4,0.1-0.7,0.4-0.9,0.7c-0.5-0.1-1-0.2-1.6-0.2c-0.7,0-1.5,0.2-2.2,0.6c-0.4-0.2-0.9-0.4-1.2-0.4v-0.1c0-1.1-0.9-1.9-1.9-1.9
					h-2.1c-1.1,0-1.9,0.9-1.9,1.9v0.2h-0.2c-0.1,0-0.2,0-0.4,0c-0.1,0-0.2,0-0.4,0H-18c-0.1,0-0.3,0-0.4,0s-0.2,0-0.4,0H-21
					c-0.7,0-1.3,0.4-1.6,1c-0.7-0.8-1.6-1.1-2.6-1.1c-0.4,0-0.7,0.1-1.1,0.2c-0.1,0-0.2,0-0.3,0h-0.6c-0.3-1.2-1.4-2.1-2.8-2.1
					c-1.6,0-2.8,1.2-2.8,2.8c0,0.1,0,0.2,0,0.3c-0.2,0.3-0.3,0.6-0.3,1v1.1c0,0.4,0.1,0.7,0.3,1c-0.2,0.3-0.3,0.6-0.3,1v1.1
					c0,1.1,0.9,1.9,1.9,1.9h2.4h0.1h0.1h2.6c0.1,0,0.1,0,0.2,0s0.1,0,0.2,0h2.2c0.8,0,1.6-0.6,1.8-1.3c0.3,0.8,1,1.3,1.8,1.3h1.8
					c0.2,0,0.4,0,0.6-0.1c0.2,0.1,0.4,0.1,0.6,0.1h1.8c0.2,0,0.5-0.1,0.7-0.1c0.2,0.1,0.5,0.1,0.7,0.1h2.7c0.1,0,0.1,0,0.2,0
					c0.1,0,0.1,0,0.2,0h2.2c0.2,0,0.3,0,0.5-0.1c0.4,0.1,0.8,0.2,1.3,0.2c0.4,0,0.8-0.1,1.1-0.2c0.1,0,0.2,0,0.3,0h1.8
					c0.1,0,0.3,0,0.4,0c0.4,0.1,0.7,0.2,1.2,0.2c0,0,1,0,1.7-0.3c0.2-0.1,0.4-0.2,0.5-0.3c0.3,0.3,0.8,0.5,1.2,0.5h2.5h0.1h0.1h2.2
					h0.1h0.1H9c0.2,0,0.3,0,0.5-0.1c0.4,0.1,0.8,0.2,1.3,0.2c0.4,0,0.8-0.1,1.1-0.2c0.1,0,0.2,0,0.3,0H14c0.1,0,0.2,0,0.3,0
					c0.3,0.1,0.7,0.2,1.2,0.2c0,0,0.8,0,1.5-0.2c0.4,0.1,0.8,0.2,1.3,0.2c0,0,1,0,1.7-0.3c0.5,0.2,1,0.3,1.6,0.3
					c0.7,0,1.2-0.1,1.8-0.3c0.2,0.1,0.4,0.1,0.6,0.1h2.4c0.1,0,0.3,0,0.4-0.1c0.1,0,0.3,0.1,0.4,0.1h1.1c0.1,0,0.3,0,0.4,0
					c0.3,0.1,0.7,0.1,1,0.1c1,0,1.9-0.4,2.5-1c0.3,0.5,0.9,0.9,1.6,0.9h2.5h0.1h0.1h2.2h0.1h0.1h2.2c0.3,0,0.6-0.1,0.8-0.2
					c0.5,0.2,1.1,0.3,1.6,0.3c0.6,0,1.1-0.1,1.6-0.3c0.2,0.1,0.5,0.2,0.8,0.2H47c0.1,0,0.3,0,0.4,0c0.3,0.1,0.7,0.1,1,0.1
					c0.6,0,1.2-0.2,1.7-0.4c0.5,0.3,1.1,0.5,1.9,0.5c0,0,1,0,1.7-0.3s1.2-1,1.2-1.8V100c0-0.4-0.1-0.7-0.3-1c0.2-0.3,0.3-0.7,0.3-1
					v-1.2L55.4,96.8L55.4,96.8z"/>
			</g>
		</g>
		<g>
			<path fill="#D2DDBB" d="M-28.7,101.1h-2.4V100h0.4v-2h-0.4v-1.1h2v3.2h0.4V101.1z M-30,94.7c0.6,0,0.9,0.5,0.9,0.9
				c0,0.5-0.3,0.9-0.9,0.9c-0.5,0-0.9-0.5-0.9-0.9C-30.9,95.1-30.6,94.7-30,94.7z"/>
			<path fill="#D2DDBB" d="M-25.8,101.1h-2.6V100h0.4v-2h-0.4v-1.1h1.8l0.2,0.5c0.3-0.4,0.7-0.7,1.2-0.7c1.3,0,1.6,1,1.6,1.9v1.4
				h0.4v1.1h-2.2v-2.3c0-0.3,0-0.8-0.5-0.8c-0.4,0-0.5,0.4-0.5,0.8v1.2h0.6V101.1z"/>
			<path fill="#D2DDBB" d="M-18.6,99.7c0-0.4,0.1-1.2,0.4-2l0.3-1h1.6l0.3,1.1c0.2,0.7,0.3,1.6,0.4,1.9l0,0c0-0.3,0.1-0.9,0.2-1.4
				l0.1-0.5h-0.4v-1.1h2.1v1.1H-14l-1,3.2h-1.8l-0.6-1.9L-18,101h-1.8l-1-3.2H-21v-1.1h2.3v1.1H-19l0.2,0.6
				C-18.7,98.9-18.6,99.5-18.6,99.7L-18.6,99.7z"/>
			<path fill="#D2DDBB" d="M-10.8,101.1h-2.7V100h0.4v-4.2h-0.4v-1.1h2.1v2.7c0.1-0.2,0.7-0.7,1.3-0.7c1.3,0,1.5,1,1.5,1.9v1.4h0.4
				v1.1h-2.2v-2.3c0-0.3,0-0.8-0.5-0.8c-0.4,0-0.5,0.4-0.5,0.8v1.2h0.6L-10.8,101.1L-10.8,101.1z"/>
			<path fill="#D2DDBB" d="M-7.9,97.1c0.3-0.2,1.1-0.6,1.9-0.6c1,0,2.3,0.4,2.3,1.8v1.7h0.5v1.1H-5l-0.2-0.4
				c-0.3,0.4-0.8,0.5-1.2,0.5c-0.8,0-1.7-0.4-1.7-1.4s0.8-1.6,1.8-1.6c0.5,0,0.8,0.2,0.8,0.3v-0.3c0-0.4-0.4-0.5-0.8-0.5
				c-0.5,0-1,0.2-1.3,0.4L-7.9,97.1z M-5.5,99.8v-0.3c0,0-0.1-0.2-0.5-0.2c-0.3,0-0.5,0.2-0.5,0.5c0,0.2,0.2,0.4,0.5,0.4
				S-5.5,100-5.5,99.8z"/>
			<path fill="#D2DDBB" d="M-3.4,96.8h0.5V96l1.6-0.5v1.3h0.8v1.1h-0.8v1.5c0,0.3-0.1,0.7,0.3,0.7c0.1,0,0.4-0.1,0.5-0.1v1.1
				c-0.3,0.1-0.8,0.2-1,0.2c-1.3,0-1.3-0.7-1.4-1.8V98h-0.5L-3.4,96.8L-3.4,96.8z"/>
			<path fill="#D2DDBB" d="M4.5,101.1H2V100h0.4v-2H2v-1.1h1.6l0.2,0.5c0.1-0.2,0.5-0.6,1.1-0.6c0.9,0,1.1,0.4,1.3,0.6
				c0.3-0.3,0.7-0.6,1.3-0.6c1.4,0,1.6,1,1.6,2.1v1.2h0.4v1.2H7.3v-2.1c0-0.4,0.1-1.1-0.3-1.1c-0.4,0-0.5,0.3-0.5,0.6v1.4H7v1.1H4.8
				V99c0-0.7,0-1-0.4-1C4.1,98,4,98.2,4,98.5v1.5h0.5L4.5,101.1L4.5,101.1z"/>
			<path fill="#D2DDBB" d="M9.6,97.1c0.3-0.2,1.1-0.6,1.9-0.6c1,0,2.3,0.4,2.3,1.8v1.7h0.5v1.1h-1.8l-0.2-0.4
				c-0.3,0.4-0.8,0.5-1.2,0.5c-0.8,0-1.7-0.4-1.7-1.4s0.8-1.6,1.8-1.6c0.5,0,0.8,0.2,0.8,0.3v-0.3c0-0.4-0.4-0.5-0.8-0.5
				c-0.5,0-1,0.2-1.3,0.4L9.6,97.1z M12.1,99.8v-0.3c0,0-0.1-0.2-0.5-0.2c-0.3,0-0.5,0.2-0.5,0.5c0,0.2,0.2,0.4,0.5,0.4
				C11.8,100.1,12,100,12.1,99.8z"/>
			<path fill="#D2DDBB" d="M14.1,96.8h0.5V96l1.6-0.5v1.3H17v1.1h-0.8v1.5c0,0.3-0.1,0.7,0.3,0.7c0.1,0,0.4-0.1,0.5-0.1v1.1
				c-0.3,0.1-0.8,0.2-1,0.2c-1.3,0-1.3-0.7-1.4-1.8V98h-0.5L14.1,96.8L14.1,96.8z"/>
			<path fill="#D2DDBB" d="M16.8,96.8h0.5V96l1.6-0.5v1.3h0.8v1.1h-0.8v1.5c0,0.3-0.1,0.7,0.3,0.7c0.1,0,0.4-0.1,0.5-0.1v1.1
				c-0.3,0.1-0.8,0.2-1,0.2c-1.3,0-1.3-0.7-1.4-1.8V98h-0.5L16.8,96.8L16.8,96.8z"/>
			<path fill="#D2DDBB" d="M24.2,100.5c-0.6,0.5-1.3,0.7-2.2,0.7c-1.1,0-2.3-0.7-2.3-2.3c0-1.4,1-2.2,2.3-2.2c1,0,1.8,0.5,2,1.2
				c0.1,0.3,0.2,1,0,1.4h-2.7c0.1,0.2,0.2,0.7,0.9,0.7c0.3,0,0.7,0,1.2-0.4L24.2,100.5z M21.4,98.5h1.3c0-0.3-0.1-0.7-0.6-0.7
				C21.5,97.8,21.4,98.3,21.4,98.5z"/>
			<path fill="#D2DDBB" d="M26.8,101.1h-2.4V100h0.4v-2h-0.4v-1.1H26l0.3,0.5c0.2-0.4,0.4-0.8,1.3-0.8v1.5c-0.8,0-1.2,0.2-1.2,1v0.9
				h0.4L26.8,101.1L26.8,101.1z"/>
			<path fill="#D2DDBB" d="M27.6,101.1v-1.5h1.1c0,0.5,0.7,0.6,0.9,0.6s0.4-0.1,0.4-0.3c0-0.3-0.6-0.3-1.3-0.5
				c-0.6-0.2-1.1-0.6-1.1-1.4c0-0.9,0.9-1.2,1.5-1.2s1.1,0.3,1.3,0.7l0.1-0.6h1.1v1.5h-1.1c0-0.4-0.4-0.7-0.9-0.7
				c-0.2,0-0.3,0.1-0.3,0.3c0,0.2,0.5,0.3,1.1,0.5c0.7,0.2,1.4,0.5,1.4,1.4c0,0.8-0.8,1.3-1.6,1.3c-0.6,0-1.1-0.3-1.3-0.6l-0.1,0.5
				L27.6,101.1L27.6,101.1z"/>
			<path fill="#D2DDBB" d="M36.7,101.1h-2.5V100h0.4v-2h-0.4v-1.1h1.6l0.2,0.5c0.1-0.2,0.5-0.6,1.1-0.6c0.9,0,1.1,0.4,1.3,0.6
				c0.3-0.3,0.7-0.6,1.3-0.6c1.4,0,1.6,1,1.6,2.1v1.2h0.4v1.2h-2.2v-2.1c0-0.4,0.1-1.1-0.3-1.1c-0.4,0-0.5,0.3-0.5,0.6v1.4h0.5v1.1
				H37V99c0-0.7,0-1-0.4-1c-0.3,0-0.4,0.2-0.4,0.5v1.5h0.5L36.7,101.1L36.7,101.1z"/>
			<path fill="#D2DDBB" d="M41.7,98.9c0-1.4,1.2-2.2,2.3-2.2c1.4,0,2.4,0.8,2.4,2.3c0,1.4-1,2.2-2.3,2.2
				C42.9,101.2,41.7,100.4,41.7,98.9z M44.7,98.9c0-0.6-0.2-1.1-0.6-1.1c-0.3,0-0.6,0.5-0.6,1.1c0,0.7,0.3,1.2,0.6,1.2
				S44.7,99.6,44.7,98.9z"/>
			<path fill="#D2DDBB" d="M46.5,101.1v-1.5h1.1c0,0.5,0.7,0.6,0.9,0.6s0.4-0.1,0.4-0.3c0-0.3-0.6-0.3-1.3-0.5
				c-0.6-0.2-1.1-0.6-1.1-1.4c0-0.9,0.9-1.2,1.5-1.2s1.1,0.3,1.3,0.7l0.1-0.6h1.1v1.5h-1.1c0-0.4-0.4-0.7-0.9-0.7
				c-0.2,0-0.3,0.1-0.3,0.3c0,0.2,0.5,0.3,1.1,0.5c0.7,0.2,1.4,0.5,1.4,1.4c0,0.8-0.8,1.3-1.6,1.3c-0.6,0-1.1-0.3-1.3-0.6l-0.1,0.5
				L46.5,101.1L46.5,101.1z"/>
			<path fill="#D2DDBB" d="M50.6,96.8h0.5V96l1.6-0.5v1.3h0.8v1.1h-0.8v1.5c0,0.3-0.1,0.7,0.3,0.7c0.1,0,0.4-0.1,0.5-0.1v1.1
				c-0.3,0.1-0.8,0.2-1,0.2c-1.3,0-1.3-0.7-1.4-1.8V98h-0.5L50.6,96.8L50.6,96.8z"/>
		</g>
	</g>
	<path fill="#D2DDBB" stroke="#231F20" stroke-width="0.25" stroke-miterlimit="10" d="M43.3,58.6c-0.5,0.9-1.9,1.7-3.7,1.7
		c-4.1,0-7.3-3.2-7.3-8.2c0-5.1,3.5-8.5,7.1-8.5c3.4,0,4.1,1.6,4.5,1.9l0.5-1.7h3.5v6.8h-4.1c-0.1-1.9-1.3-2.9-2.6-2.9
		c-1.9,0-3.2,2-3.2,4.4s1.2,4.3,3.2,4.3c1.3,0,1.9-0.5,2.2-1.1v-1H42v-2.5h7.7v2.5h-0.9v5.8H44L43.3,58.6z"/>
	<path fill="#D2DDBB" stroke="#231F20" stroke-width="0.25" stroke-miterlimit="10" d="M-45.7,57.5h15.1c10.8,0,12.9,4.3,12.9,9.6
		c0,3.6-2.9,6.2-6.7,6.7c3.2,0.5,6.1,3.3,6.1,6.6c0,2,0.3,3.2,1.1,3.2c0.7,0,1.1-0.6,1.1-1.5v-1.5h3.1v2.6c0,3.9-1.6,7.4-6.8,7.4
		c-6.1,0-9-3.2-9-8.6c0-4.2-0.5-5.3-4.6-5.3v7.2h2.8V90h-15v-6.1h2.6V63.6h-2.6L-45.7,57.5C-45.6,57.5-45.7,57.5-45.7,57.5z
		 M-33.5,63.5v7.9h2.1c2.7,0,4.5-1.3,4.5-3.8c0-2.7-1.5-4.1-4.2-4.1H-33.5z"/>
	<path fill="#D2DDBB" stroke="#231F20" stroke-width="0.25" stroke-miterlimit="10" d="M-13.9,62.3H1.5v5.9h-2.9v19.9h2.9V94h-15.4
		v-5.9h2.9V68.3h-2.9C-13.9,68.3-13.9,62.3-13.9,62.3z"/>
	<path fill="#D2DDBB" stroke="#231F20" stroke-width="0.25" stroke-miterlimit="10" d="M32,84.6c-3.2,3.5-8,6.6-14.1,6.6
		C8,91.2,1.5,84.9,1.5,74.5c0-10.7,8-17.1,14.1-17.1c4.6,0,6.7,2.6,7.2,3.2l1.1-2.6h7.3v13.1h-8.3c-0.1-3-1.6-5.9-4.9-5.9
		c-3.3,0-5.5,4.1-5.5,9.2c0,4.6,2.4,8.7,6.8,8.7c3.9,0,7-4.1,7.4-4.6L32,84.6z"/>
	<path fill="#D2DDBB" stroke="#231F20" stroke-width="0.25" stroke-miterlimit="10" d="M32.3,60.3h15.1v6.1h-2.9v7h8.8v-7h-2.7v-6.1
		h15.1v6.1H63v20.2h2.7v6.1H50.6v-6.1h2.7v-7h-8.8v7h2.9v6.1H32.3v-6.1h2.6V66.4h-2.6V60.3L32.3,60.3z"/>
	<g>
		<path fill="#231F20" d="M-19.8,89.2c-5.2,0-7.7-2.4-7.7-7.4c0-4.8-0.9-6.5-5.9-6.5h-1.3v9.8h2.8v3.6h-12.4v-3.6h2.6V62.3h-2.6
			v-3.5h13.8c10.7,0,11.6,4.3,11.6,8.3c0,3-2.9,5.5-7.4,6.4l-3,0.6l3,0.5c3.7,0.6,6.8,3.3,6.8,5.9c0,1.2,0,4.5,2.4,4.5
			c1.2,0,2.4-0.9,2.4-2.8V82h0.5v1.3C-14.3,87.2-16.2,89.2-19.8,89.2z M-35.1,75h1.6c5.3,0,6.2,2.1,6.2,6.8c0,4.8,2.4,7.1,7.5,7.1
			c3.5,0,5.2-2,5.2-5.9v-0.7c-0.1,1.9-1.4,2.7-2.6,2.7c-2.7,0-2.7-3.4-2.7-4.7c0-2.5-3.1-5.1-6.6-5.7l-4.6-0.7l4.6-0.9
			c4.4-0.8,7.2-3.2,7.2-6.1c0-3.9-0.9-8-11.3-8h-13.5v3h2.6v23.4h-2.6v3h11.9v-3H-35L-35.1,75L-35.1,75z M-31.4,73h-3.7V62h3.9
			c3.6,0,5.8,2.1,5.8,5.7C-25.4,70.9-27.7,73-31.4,73z M-34.8,72.7h3.4c3.5,0,5.8-2,5.8-5.1c0-3.4-2.1-5.4-5.5-5.4h-3.6L-34.8,72.7
			L-34.8,72.7z"/>
	</g>
	<g>
		<path fill="#231F20" d="M0.2,92.8h-12.9v-3.5h2.9V67h-2.9v-3.4H0.2V67h-2.9v22.3h2.9V92.8z M-12.4,92.5h12.3v-2.9H-3V66.8h2.9
			v-2.9h-12.3v2.9h2.9v22.8h-2.9V92.5z"/>
	</g>
	<g>
		<path fill="#231F20" d="M18.2,89.7c-9.3,0-15.1-5.9-15.1-15.4c0-10.2,7.6-15.8,12.8-15.8c3.8,0,5.7,2,6.1,2.6l1.4,1.8L25,59h5.1
			v10.6h-5.9v-0.1c-0.6-3.5-2.9-5.7-6.1-5.7c-4,0-6.8,4.4-6.8,10.5c0,5.9,3.3,10,8.1,10c2.5,0,4.9-1.3,7.3-3.8l0.1-0.1l3.6,4
			l-0.1,0.1C28,86.9,23.8,89.7,18.2,89.7z M15.9,58.8c-5.1,0-12.6,5.5-12.6,15.5c0,9.3,5.7,15.1,14.8,15.1c5.5,0,9.5-2.7,11.9-5
			l-3.3-3.6c-2.4,2.5-4.9,3.8-7.4,3.8c-4.9,0-8.4-4.2-8.4-10.3c0-6.2,3-10.8,7.1-10.8c3.3,0,5.7,2.2,6.3,5.9h5.4V59.3H25l-1.7,4.2
			l-1.7-2.2C21.4,60.7,19.6,58.8,15.9,58.8z"/>
	</g>
	<g>
		<path fill="#231F20" d="M64.5,91.5H52v-3.6h2.7v-9.6H43.3v9.6h2.9v3.6H33.7v-3.6h2.6V65.1h-2.5l-0.2-3.4H46v3.6h-2.9v9.6l11.6-0.2
			v-9.6H52v-3.6h12.5v3.6h-2.7v22.8h2.7C64.5,87.9,64.5,91.5,64.5,91.5z M52.2,91.2h12v-3h-2.7V64.8h2.7v-3h-12v3h2.7v10.1h-0.1
			l-12,0.2v-10h2.9v-3H33.8l0.2,2.8h2.6v23.4H34v3h11.9v-3H43V78.1h12v10.1h-2.7v3H52.2z"/>
	</g>
	<rect x="-70.7" y="136.9" fill="#F3E6E1" width="164.4" height="22.7"/>
	<rect x="-70.7" y="-132.3" fill="#E3E3E3" width="164.4" height="31.9"/>
	<polygon fill="#C9C9C9" points="-57.2,153.5 -62.8,148.3 -57.3,142.8 -56.6,143.4 -61.4,148.3 -56.6,152.8 	"/>
	<polygon fill="#C9C9C9" points="-25.1,153.5 -25.8,152.8 -21.3,148.3 -25.8,143.4 -25.1,142.8 -20,148.3 	"/>
	<g>
		<polygon fill="#0EA9D6" points="16.7,154.7 6.2,154.7 6.2,144.3 10,144.3 10,145.3 7.2,145.3 7.2,153.7 15.7,153.7 15.7,145.3 
			13,145.3 13,144.3 16.7,144.3 		"/>
	</g>
	<polygon fill="#0EA9D6" points="13.8,142.8 11.5,140.6 11.4,140.6 8.9,142.8 9.6,143.5 10.9,142.2 10.9,149.5 11.9,149.5 
		11.9,142.3 13.1,143.5 	"/>
	<path fill="#0EA9D6" d="M52.6,152.2v-8.6c0-0.6-0.3-1-0.5-1.2C51.6,142,51,142,51,142h-4.6c-0.5,0-0.9,0.2-1.1,0.4
		c-0.2-0.2-0.5-0.4-1.1-0.4h-4.7c-0.7,0-1.5,0.4-1.5,1.6v8.5c0,0.1-0.1,0.6,0.3,1.1c0.2,0.2,0.5,0.4,1.1,0.4h4.8h0.1
		c0.2,0,0.3,0.2,0.3,0.7h1c0-0.3,0.1-0.6,0.2-0.7c0.1-0.1,0.2,0,0.3,0h4.8c0.6,0,0.9-0.2,1.1-0.4C52.6,152.8,52.6,152.2,52.6,152.2z
		 M44.9,152.7c-0.1,0-0.2,0-0.3,0s-0.2,0-0.2,0h-4.8c-0.1,0-0.3,0-0.4-0.1c-0.1-0.1-0.1-0.3-0.1-0.4v-8.6c0-0.3,0.1-0.6,0.6-0.6l0,0
		h4.6c0.2,0,0.4,0,0.5,0.1s0.1,0.4,0.1,0.4L44.9,152.7L44.9,152.7z M51.5,152.6c-0.1,0.1-0.3,0.1-0.4,0.1h-4.7c0,0-0.3-0.1-0.6,0
		v-9.1c0,0,0,0,0-0.1l0,0c0,0,0-0.2,0.1-0.4c0.1-0.1,0.3-0.2,0.5-0.2H51c0,0,0.3,0,0.4,0.1c0.1,0.1,0.2,0.3,0.2,0.5v8.6
		C51.6,152.3,51.6,152.5,51.5,152.6z"/>
	<path fill="#0EA9D6" d="M82.9,154.6H72.6v-10.2h10.3V154.6z M73.6,153.7H82v-8.3h-8.4V153.7z"/>
	<polygon fill="#0EA9D6" points="85.7,151.9 83.5,151.9 83.5,150.9 84.7,150.9 84.7,142.5 76.4,142.5 76.4,143.8 75.5,143.8 
		75.5,141.5 85.7,141.5 	"/>
	<circle cx="-66.1" cy="-127.1" r="1.3"/>
	<circle cx="-62.4" cy="-127.1" r="1.3"/>
	<circle cx="-55.3" cy="-127.1" r="1.3"/>
	<circle cx="-51.7" cy="-127.1" r="1.3"/>
	<circle cx="-58.8" cy="-127.1" r="1.3"/>
	<text transform="matrix(1 0 0 1 -48.6833 -124.6022)" font-family="'HelveticaNeue-Medium'" font-size="6.8667">L</text>
	<text transform="matrix(1 0 0 1 -45.2852 -124.6022)" font-family="'HelveticaNeue-Medium'" font-size="6.8667">C</text>
	<text transform="matrix(1 0 0 1 -40.2755 -124.6022)" font-family="'HelveticaNeue-Medium'" font-size="6.8667">T</text>
	<text transform="matrix(1 0 0 1 -36.0831 -124.6022)" font-family="'HelveticaNeue-Medium'" font-size="6.8667">V</text>
	<g enable-background="new    ">
		<path d="M0.7-126.1c0,0.2,0.1,0.3,0.2,0.4c0.1,0.1,0.3,0.2,0.4,0.2c0.2,0,0.3-0.1,0.5-0.2c0.1-0.1,0.2-0.2,0.3-0.4
			c0.1-0.2,0.1-0.3,0.1-0.5s0-0.3,0.1-0.5l0,0c-0.1,0.2-0.2,0.3-0.4,0.4s-0.3,0.1-0.5,0.1s-0.4,0-0.6-0.1s-0.3-0.2-0.4-0.3
			s-0.2-0.3-0.3-0.5S0-127.9,0-128.1c0-0.2,0-0.4,0.1-0.6s0.2-0.3,0.3-0.5c0.1-0.1,0.3-0.2,0.5-0.3c0.2-0.1,0.4-0.1,0.6-0.1
			c0.3,0,0.6,0.1,0.8,0.2c0.2,0.1,0.4,0.3,0.5,0.5s0.2,0.4,0.2,0.7s0.1,0.6,0.1,0.9s0,0.5-0.1,0.8s-0.1,0.5-0.3,0.7
			c-0.1,0.2-0.3,0.4-0.5,0.5s-0.6,0.4-0.9,0.4c-0.2,0-0.3,0-0.5-0.1s-0.3-0.1-0.4-0.2c-0.1-0.1-0.2-0.2-0.3-0.4
			C0-125.7,0-125.9,0-126.1H0.7z M1.4-128.9c-0.1,0-0.2,0-0.3,0.1c-0.1,0-0.2,0.1-0.2,0.2c-0.1,0.1-0.1,0.2-0.1,0.3
			c0,0.1,0,0.2,0,0.3c0,0.1,0,0.2,0,0.3c0,0.1,0.1,0.2,0.1,0.3c0.1,0.1,0.1,0.1,0.2,0.2c0.1,0.1,0.2,0.1,0.3,0.1s0.2,0,0.3-0.1
			c0.1,0,0.2-0.1,0.2-0.2s0.1-0.2,0.1-0.3s0-0.2,0-0.3s0-0.2,0-0.3s-0.1-0.2-0.1-0.3c-0.1-0.1-0.1-0.1-0.2-0.2
			C1.6-128.9,1.5-128.9,1.4-128.9z"/>
		<path d="M3.6-128.2h0.9v0.8H3.6V-128.2z M3.6-125.9h0.9v0.8H3.6V-125.9z"/>
		<path d="M8.2-126.1H7.6v1H6.9v-1H5v-0.7l1.9-2.6h0.7v2.8h0.6V-126.1z M5.6-126.6h1.3v-1.9l0,0L5.6-126.6z"/>
		<path d="M8.6-129.4h3v0.6c-0.2,0.3-0.4,0.5-0.6,0.8c-0.2,0.3-0.3,0.6-0.5,0.9c-0.1,0.3-0.3,0.6-0.3,1s-0.1,0.7-0.2,1.1H9.2
			c0-0.3,0.1-0.7,0.2-1c0.1-0.3,0.2-0.7,0.4-1c0.1-0.3,0.3-0.6,0.5-0.9c0.2-0.3,0.4-0.6,0.6-0.8H8.6C8.6-128.7,8.6-129.4,8.6-129.4z
			"/>
		<path d="M15.2-129.5H16l1.7,4.4h-0.8l-0.4-1.2h-1.8l-0.4,1.2h-0.8L15.2-129.5z M14.9-126.8h1.4l-0.7-1.9l0,0L14.9-126.8z"/>
		<path d="M18.1-129.5h1.1l1.2,3.5l0,0l1.2-3.5h1.1v4.4H22v-3.4l0,0l-1.2,3.4h-0.6l-1.2-3.4l0,0v3.4h-0.7v-4.4H18.1z"/>
	</g>
	<g>
		<path d="M89.9-124.5H78.3v-5.1h11.6V-124.5z M78.5-124.7h11.1v-4.6H78.5V-124.7z"/>
	</g>
	<rect x="79" y="-128.8" width="6.9" height="3.4"/>
	<rect x="90.3" y="-127.8" width="0.7" height="1.7"/>
	<path fill="#C2C3C7" d="M88.4-107.8c0,1.5-1.2,2.7-2.7,2.7H-63.4c-1.5,0-2.7-1.2-2.7-2.7v-9.6c0-1.5,1.2-2.7,2.7-2.7H85.7
		c1.5,0,2.7,1.2,2.7,2.7V-107.8L88.4-107.8z"/>
	<text transform="matrix(1 0 0 1 -20.4132 -109.4665)" font-family="'HelveticaNeue'" font-size="8.8379">live.lifechurch.tv</text>
	<path d="M81.2-115v1.5l2.4-1.6l-2.4-1.6v1l0,0c-1.8,0-3.3,1.5-3.3,3.3s1.5,3.3,3.3,3.3s3.3-1.5,3.3-3.3h-0.7c0,1.5-1.2,2.7-2.7,2.7
		s-2.7-1.2-2.7-2.7C78.5-113.8,79.7-115,81.2-115"/>
</g>
</svg>
