<?xml version="1.0" encoding="utf-8"?>
<!-- Generator: Adobe Illustrator 17.1.0, SVG Export Plug-In . SVG Version: 6.00 Build 0)  -->
<!DOCTYPE svg PUBLIC "-//W3C//DTD SVG 1.1//EN" "http://www.w3.org/Graphics/SVG/1.1/DTD/svg11.dtd">
<svg version="1.1" xmlns="http://www.w3.org/2000/svg" xmlns:xlink="http://www.w3.org/1999/xlink" x="0px" y="0px"
	 viewBox="84.3 0 200 412" enable-background="new 84.3 0 200 412" xml:space="preserve">
<g id="Phone">
	<g>
		<path fill="#E7E7E9" d="M282.9,380.9c0,17.2-14,31.1-31.1,31.1H116.6c-17.2,0-31.1-14-31.1-31.1V33.8c0-17.2,14-31.1,31.1-31.1
			h135.2c17.2,0,31.1,14,31.1,31.1V380.9z"/>
		<path fill="#010005" d="M277.4,380.9c0,14.7-11.9,26.6-26.6,26.6H117.9c-14.7,0-26.6-11.9-26.6-26.6V34.6
			C91.4,19.9,103.3,8,117.9,8h132.9c14.7,0,26.6,11.9,26.6,26.6V380.9z"/>
		<rect x="215.9" y="0" fill="#E7E7E9" width="31.1" height="2.7"/>
		<circle fill="#232323" cx="184.5" cy="380.6" r="18.4"/>
		<path fill="#232323" d="M201.5,38.6c0,2.2-1.8,3.9-3.9,3.9h-28.9c-2.2,0-3.9-1.8-3.9-3.9l0,0c0-2.2,1.8-3.9,3.9-3.9h28.9
			C199.7,34.6,201.5,36.4,201.5,38.6L201.5,38.6z"/>
		<circle fill="#232323" cx="183" cy="23.5" r="3.9"/>
		<rect x="101.2" y="60.6" fill="#232323" width="165.9" height="292.2"/>
	</g>
</g>
<g id="Contents">
	<rect x="102.3" y="186.3" fill="#E96658" width="164.4" height="143.5"/>
	<rect x="102.3" y="92.5" fill="#2F3030" width="164.4" height="93.8"/>
	<path fill="#FFFFFF" d="M118.5,110.4c-0.3,0.1-0.6,0.2-0.9,0.3l-10.9,1.5l4.6-7.1c1.1-1.7,3.7-3.5,7.9-4.3l-4.2,6.2
		c-0.1,0.1-0.2,0.3-0.4,0.6l-1.3,1.9c-0.2,0.3-0.1,0.5,0.2,0.5c1.2-0.1,1.5-0.2,2-0.7c0.1-0.1,0.8-0.9,1.2-1.4l3.8-0.5
		c1.1-0.2,1.9-0.3,1.9-0.3S121.5,109,118.5,110.4z M128.3,108.8c-1.8,0.6-6.9,1.2-6.9,1.2c2.4-2.6,3.7-2.9,4.2-3.1
		c2.1-0.9,6.9-1.4,6.9-1.4C132.5,105.5,131.5,107.8,128.3,108.8z M127.8,102.1c-1.8,0.3-2.7,0.5-3.7,2.5c-0.1,0.2-0.4,0.9-1.2,1.1
		l-0.3,0.1l-4.6,0.6c0.7-1.1,1.7-2.6,1.9-2.9c1.1-1.6,2.4-3.2,8.2-4.3c0,0,3.2-0.5,5.3-0.9C133.4,98.4,131.7,101.4,127.8,102.1z"/>
	<g>
		<path fill="#FFFFFF" d="M233.4,103.1l1.1,3.4h0l1.1-3.4h1.5v4.9h-1v-3.5h0L235,108h-0.8l-1.2-3.4h0v3.4h-1v-4.9H233.4z"/>
		<path fill="#FFFFFF" d="M241.8,103.1v0.9h-2.6v1.1h2.4v0.8h-2.4v1.2h2.6v0.9h-3.7v-4.9H241.8z"/>
		<path fill="#FFFFFF" d="M243.7,103.1l2,3.3h0v-3.3h1v4.9h-1.1l-2-3.3h0v3.3h-1v-4.9H243.7z"/>
		<path fill="#FFFFFF" d="M251.3,107.6c-0.4,0.3-0.9,0.5-1.5,0.5c-0.7,0-1.2-0.2-1.5-0.5s-0.5-0.8-0.5-1.5v-3h1.1v3
			c0,0.1,0,0.3,0,0.4s0.1,0.2,0.1,0.3c0.1,0.1,0.2,0.2,0.3,0.2c0.1,0.1,0.3,0.1,0.5,0.1c0.4,0,0.7-0.1,0.8-0.3
			c0.1-0.2,0.2-0.4,0.2-0.8v-3h1.1v3C251.8,106.8,251.7,107.3,251.3,107.6z"/>
	</g>
	<rect x="253.6" y="103.1" fill="#FFFFFF" width="6.9" height="1.1"/>
	<rect x="253.6" y="105" fill="#FFFFFF" width="6.9" height="1.1"/>
	<rect x="253.6" y="107" fill="#FFFFFF" width="6.9" height="1.1"/>
	<text transform="matrix(1 0 0 1 108.9906 131.8236)" fill="#FFFFFF" font-family="'MyriadPro-Regular'" font-size="9.7185">Next online experience coming up in</text>
	<linearGradient id="SVGID_1_" gradientUnits="userSpaceOnUse" x1="138.6889" y1="144.2" x2="138.6889" y2="167.0317">
		<stop  offset="0" style="stop-color:#FFFFFF"/>
		<stop  offset="0.5179" style="stop-color:#DBDADA"/>
		<stop  offset="0.5196" style="stop-color:#FFFFFF"/>
		<stop  offset="1" style="stop-color:#DDDCDC"/>
	</linearGradient>
	<path fill="url(#SVGID_1_)" d="M149.7,165.7c0,0.8-0.6,1.4-1.4,1.4h-19.2c-0.8,0-1.4-0.6-1.4-1.4v-20.1c0-0.8,0.6-1.4,1.4-1.4h19.2
		c0.8,0,1.4,0.6,1.4,1.4V165.7z"/>
	<text transform="matrix(1 0 0 1 130.6377 161.3466)"><tspan x="0" y="0" font-family="'MyriadPro-Regular'" font-size="15.8684">0</tspan><tspan x="7.8" y="0" font-family="'MyriadPro-Regular'" font-size="15.8684">0</tspan></text>
	<linearGradient id="SVGID_2_" gradientUnits="userSpaceOnUse" x1="169.3314" y1="144.2" x2="169.3314" y2="167.0317">
		<stop  offset="0" style="stop-color:#FFFFFF"/>
		<stop  offset="0.5179" style="stop-color:#DBDADA"/>
		<stop  offset="0.5196" style="stop-color:#FFFFFF"/>
		<stop  offset="1" style="stop-color:#DDDCDC"/>
	</linearGradient>
	<path fill="url(#SVGID_2_)" d="M180.3,165.7c0,0.8-0.6,1.4-1.4,1.4h-19.2c-0.8,0-1.4-0.6-1.4-1.4v-20.1c0-0.8,0.6-1.4,1.4-1.4h19.2
		c0.8,0,1.4,0.6,1.4,1.4V165.7z"/>
	<text transform="matrix(1 0 0 1 161.2803 161.3466)"><tspan x="0" y="0" font-family="'MyriadPro-Regular'" font-size="15.8684">0</tspan><tspan x="7.8" y="0" font-family="'MyriadPro-Regular'" font-size="15.8684">0</tspan></text>
	<linearGradient id="SVGID_3_" gradientUnits="userSpaceOnUse" x1="199.6306" y1="144.2" x2="199.6306" y2="167.0317">
		<stop  offset="0" style="stop-color:#FFFFFF"/>
		<stop  offset="0.5179" style="stop-color:#DBDADA"/>
		<stop  offset="0.5196" style="stop-color:#FFFFFF"/>
		<stop  offset="1" style="stop-color:#DDDCDC"/>
	</linearGradient>
	<path fill="url(#SVGID_3_)" d="M210.6,165.7c0,0.8-0.6,1.4-1.4,1.4H190c-0.8,0-1.4-0.6-1.4-1.4v-20.1c0-0.8,0.6-1.4,1.4-1.4h19.2
		c0.8,0,1.4,0.6,1.4,1.4V165.7z"/>
	<text transform="matrix(1 0 0 1 191.6651 161.3466)"><tspan x="0" y="0" font-family="'MyriadPro-Regular'" font-size="15.8684" letter-spacing="-1">1</tspan><tspan x="6.6" y="0" font-family="'MyriadPro-Regular'" font-size="15.8684">2</tspan></text>
	<linearGradient id="SVGID_4_" gradientUnits="userSpaceOnUse" x1="231.0456" y1="144.2" x2="231.0456" y2="167.0317">
		<stop  offset="0" style="stop-color:#FFFFFF"/>
		<stop  offset="0.5179" style="stop-color:#DBDADA"/>
		<stop  offset="0.5196" style="stop-color:#FFFFFF"/>
		<stop  offset="1" style="stop-color:#DDDCDC"/>
	</linearGradient>
	<path fill="url(#SVGID_4_)" d="M242,165.7c0,0.8-0.6,1.4-1.4,1.4h-19.2c-0.8,0-1.4-0.6-1.4-1.4v-20.1c0-0.8,0.6-1.4,1.4-1.4h19.2
		c0.8,0,1.4,0.6,1.4,1.4V165.7z"/>
	<text transform="matrix(1 0 0 1 223.5097 161.3466)"><tspan x="0" y="0" font-family="'MyriadPro-Regular'" font-size="15.8684" letter-spacing="-1">1</tspan><tspan x="6.2" y="0" font-family="'MyriadPro-Regular'" font-size="15.8684">7</tspan></text>
	<text transform="matrix(1 0 0 1 131.393 176.3025)" fill="#727272" font-family="'MyriadPro-Regular'" font-size="6.8667">DAYS</text>
	<text transform="matrix(1 0 0 1 158.8599 176.3025)" fill="#727272" font-family="'MyriadPro-Regular'" font-size="6.8667">HOURS</text>
	<text transform="matrix(1 0 0 1 191.8199 176.3025)" fill="#727272" font-family="'MyriadPro-Regular'" font-size="6.8667">MINS</text>
	<text transform="matrix(1 0 0 1 223.4063 176.3025)" fill="#727272" font-family="'MyriadPro-Regular'" font-size="6.8667">SECS</text>
	<rect x="107.4" y="192" fill="#2F3030" width="154.3" height="15.3"/>
	<text transform="matrix(1 0 0 1 111.5088 201.8798)" fill="#FFFFFF" font-family="'MyriadPro-Regular'" font-size="6.8667">Being rich in what matters most</text>
	<rect x="107.4" y="207.4" fill="#CEC58E" width="154.3" height="115.8"/>
	<path fill="#003E18" d="M222.3,243.2v-7.9h-5.9l-0.2,0.6c-0.8-0.5-2.1-0.8-3.8-0.8c-1.7,0-3.3,0.6-4.7,1.6v-5h-9.8v2.9l-1.9-2.9
		h-8.8v1.2h-8.2v1.9h-14.4c-1.1-0.8-2.7-1.4-5.3-1.4h-10.1v5.8h1.3v7.3h-1.3v5.9h10.2c1,0,3.3,0,5-1v2.4h16.8V252h8.2v-1.2h7.6v-2.9
		l1.9,2.9h6.5c1.5,2.4,4.1,3.8,7.1,3.8c1.2,0,2.3-0.3,3.3-0.8l0.3,0.6h6.9v-5.8h0.9v-5.3H222.3z M158.2,239.3L158.2,239.3
		C158.2,239.3,158.3,239.3,158.2,239.3c0.1,0,0.1,0.1,0.1,0.3c0,0.2,0,0.3,0,0.4c0,0-0.1,0-0.1,0V239.3z M158.6,246.6h-0.4v-1.2h0.4
		c0.3,0,0.5,0,0.5,0.6C159.1,246.5,158.7,246.6,158.6,246.6z M165.9,242.8c-0.2-0.2-0.3-0.4-0.5-0.6c0.2-0.3,0.4-0.6,0.5-1V242.8z
		 M174.4,247.9h-0.9V247h0.9V247.9z M174.4,241.1h-0.9v-0.3h0.9V241.1z M180.4,245.8H178v-3h2.4V245.8z M188.5,244.9h-0.5l0-6.1h0.5
		V244.9z M213.5,243.2v4.4c-0.9-0.4-1.1-1.8-1.1-2.7c0-1.6,0.8-2.9,1.7-2.9c0.6,0,1,0.4,1.2,1.2H213.5z M206.8,237.5
		c-0.2,0.2-0.4,0.4-0.6,0.6v-0.6H206.8z"/>
	<path fill="#D2DDBB" stroke="#231F20" stroke-width="0.25" stroke-miterlimit="10" d="M180.4,234.3h7.7v3.1h-1.4v10.1h1.4v3.1h-7.7
		v-3.1h1.5v-10.1h-1.5V234.3z"/>
	<path fill="#003E18" d="M240.1,260.8v-9h-18v9h2.7v4.2h-6v-4.2h2.9v-9h-16.2v-2.4h-9.7l-0.6,1.5c-1.4-1-3.5-2.1-6.6-2.1
		c-3.6,0-7.4,1.9-10.4,5c-0.9,0.9-1.6,2-2.3,3v-3h-18.3v8.6h2.9v9.5H156c-0.4-2.1-1.6-3.9-3.4-5.2c2.6-1.5,4.1-3.9,4.1-6.9
		c0-7.6-4.4-11-14.3-11h-16.5v8.9h2.6v17.4h-2.6v9h17.9v-4.4c1.6,3.2,4.8,5,9.4,5c1.8,0,3.2-0.4,4.5-1.1v4.6h18.3v-8.7h-2.9v-17.1
		h0.6c-0.4,1.6-0.6,3.2-0.6,4.8c0,11,7,18.1,17.8,18.1c5.8,0,10.2-2.6,13-4.9v6.6h17.9v-9h-2.9V274h6v4.2h-2.7v9h18v-9h-2.7v-17.4
		H240.1z M141.6,262.9h-0.7v-5h0.9c2,0,2.8,0.8,2.8,2.7C144.6,262.1,143.6,262.9,141.6,262.9z M140.9,275.3V271
		c1.7,0.1,1.8,0.8,1.8,3.8c0,0.2,0,0.4,0,0.5H140.9z M206.5,278.1h-0.1l0.1-0.2V278.1z M206.5,276.9l-6.9-7.6l-1.1,1.2
		c0,0-0.1,0.1-0.2,0.2c-2.7,3.2-4.8,3.9-6.1,3.9c-2.7,0-5.4-2.3-5.4-7.3c0-4.4,1.8-7.8,4.1-7.8c3.1,0,3.5,3.4,3.5,4.5l0.1,1.4h11.1
		v-4.6h0.9V276.9z"/>
	<path fill="#D2DDBB" stroke="#231F20" stroke-width="0.25" stroke-miterlimit="10" d="M150.6,251v-3h1.3v-10.2h-1.3v-3h8.6
		c3.8,0,5.7,1.4,5.7,4c0,1.9-0.5,2.9-2.3,3.6c1.7,0.5,3.1,1.7,3.1,3.9c0,3.3-1.8,4.7-6.3,4.7H150.6z M156.7,237.9v3.5h1.4
		c1.2,0,1.6-0.7,1.6-1.8c0-1.1-0.6-1.7-1.5-1.7H156.7z M160.5,246c0-1.2-0.7-2-1.9-2h-1.8v4h1.9C159.6,248,160.5,247.3,160.5,246z"
		/>
	<path fill="#D2DDBB" stroke="#231F20" stroke-width="0.25" stroke-miterlimit="10" d="M165.9,236.2h14v5.1h-4v-2.1h-3.7v3.2h4.4
		v3.1h-4.4v3.8h3.7v-2.2h4v5.2h-14v-3.1h1.5v-10.1h-1.5V236.2z"/>
	<path fill="#D2DDBB" stroke="#231F20" stroke-width="0.25" stroke-miterlimit="10" d="M206.3,236.1h-1.5v13.2h-5l-5.9-8.8v5.8h1.8
		v3h-7.1v-3h1.4v-10.2h-1.3v-3h6.6l5.7,8.5l0-5.5h-1.6v-3h7V236.1z"/>
	<g>
		<g>
			<path fill="#003E18" d="M144.3,294h-2.4v-1.1h0.4v-2h-0.4v-1.1h2v3.2h0.4V294z M143,287.6c0.6,0,0.9,0.5,0.9,0.9
				c0,0.5-0.3,0.9-0.9,0.9c-0.5,0-0.9-0.5-0.9-0.9C142.1,288.1,142.4,287.6,143,287.6z"/>
			<path fill="#003E18" d="M147.2,294h-2.6v-1.1h0.4v-2h-0.4v-1.1h1.8l0.2,0.5c0.3-0.4,0.7-0.7,1.2-0.7c1.3,0,1.6,1,1.6,1.9v1.4h0.4
				v1.1h-2.2v-2.3c0-0.3,0-0.8-0.5-0.8c-0.4,0-0.5,0.4-0.5,0.8v1.2h0.6V294z"/>
			<path fill="#003E18" d="M154.4,292.7c0-0.4,0.1-1.2,0.4-2l0.3-1h1.6l0.3,1.1c0.2,0.7,0.3,1.6,0.4,1.9h0c0-0.3,0.1-0.9,0.2-1.4
				l0.1-0.5h-0.4v-1.1h2.1v1.1h-0.4l-1,3.2h-1.8l-0.6-1.9l-0.6,1.9h-1.8l-1-3.2H152v-1.1h2.3v1.1H154l0.2,0.6
				C154.3,291.9,154.4,292.5,154.4,292.7L154.4,292.7z"/>
			<path fill="#003E18" d="M162.2,294h-2.7v-1.1h0.4v-4.2h-0.4v-1.1h2.1v2.7c0.1-0.2,0.7-0.7,1.3-0.7c1.3,0,1.5,1,1.5,1.9v1.4h0.4
				v1.1h-2.2v-2.3c0-0.3,0-0.8-0.5-0.8c-0.4,0-0.5,0.4-0.5,0.8v1.2h0.6V294z"/>
			<path fill="#003E18" d="M165.1,290.1c0.3-0.2,1.1-0.6,1.9-0.6c1,0,2.3,0.4,2.3,1.8v1.7h0.5v1.1H168l-0.2-0.4
				c-0.3,0.4-0.8,0.5-1.2,0.5c-0.8,0-1.7-0.4-1.7-1.4c0-1,0.8-1.6,1.8-1.6c0.5,0,0.8,0.2,0.8,0.3v-0.3c0-0.4-0.4-0.5-0.8-0.5
				c-0.5,0-1,0.2-1.3,0.4L165.1,290.1z M167.5,292.8v-0.3c0,0-0.1-0.2-0.5-0.2c-0.3,0-0.5,0.2-0.5,0.5c0,0.2,0.2,0.4,0.5,0.4
				S167.5,292.9,167.5,292.8z"/>
			<path fill="#003E18" d="M169.6,289.7h0.5V289l1.6-0.5v1.3h0.8v1.1h-0.8v1.5c0,0.3-0.1,0.7,0.3,0.7c0.1,0,0.4-0.1,0.5-0.1v1.1
				c-0.3,0.1-0.8,0.2-1,0.2c-1.3,0-1.3-0.7-1.4-1.8v-1.5h-0.5V289.7z"/>
			<path fill="#003E18" d="M177.5,294h-2.5v-1.1h0.4v-2h-0.4v-1.1h1.6l0.2,0.5c0.1-0.2,0.5-0.6,1.1-0.6c0.9,0,1.1,0.4,1.3,0.6
				c0.3-0.3,0.7-0.6,1.3-0.6c1.4,0,1.6,1,1.6,2.1v1.2h0.4v1.2h-2.2v-2.1c0-0.4,0.1-1.1-0.3-1.1c-0.4,0-0.5,0.3-0.5,0.6v1.4h0.5v1.1
				h-2.2v-2.2c0-0.7,0-1-0.4-1c-0.3,0-0.4,0.2-0.4,0.5v1.5h0.5V294z"/>
			<path fill="#003E18" d="M182.6,290.1c0.3-0.2,1.1-0.6,1.9-0.6c1,0,2.3,0.4,2.3,1.8v1.7h0.5v1.1h-1.8l-0.2-0.4
				c-0.3,0.4-0.8,0.5-1.2,0.5c-0.8,0-1.7-0.4-1.7-1.4c0-1,0.8-1.6,1.8-1.6c0.5,0,0.8,0.2,0.8,0.3v-0.3c0-0.4-0.4-0.5-0.8-0.5
				c-0.5,0-1,0.2-1.3,0.4L182.6,290.1z M185.1,292.8v-0.3c0,0-0.1-0.2-0.5-0.2c-0.3,0-0.5,0.2-0.5,0.5c0,0.2,0.2,0.4,0.5,0.4
				C184.8,293.1,185,292.9,185.1,292.8z"/>
			<path fill="#003E18" d="M187.1,289.7h0.5V289l1.6-0.5v1.3h0.8v1.1h-0.8v1.5c0,0.3-0.1,0.7,0.3,0.7c0.1,0,0.4-0.1,0.5-0.1v1.1
				c-0.3,0.1-0.8,0.2-1,0.2c-1.3,0-1.3-0.7-1.4-1.8v-1.5h-0.5V289.7z"/>
			<path fill="#003E18" d="M189.8,289.7h0.5V289l1.6-0.5v1.3h0.8v1.1h-0.8v1.5c0,0.3-0.1,0.7,0.3,0.7c0.1,0,0.4-0.1,0.5-0.1v1.1
				c-0.3,0.1-0.8,0.2-1,0.2c-1.3,0-1.3-0.7-1.4-1.8v-1.5h-0.5V289.7z"/>
			<path fill="#003E18" d="M197.2,293.4c-0.6,0.5-1.3,0.7-2.2,0.7c-1.1,0-2.3-0.7-2.3-2.3c0-1.4,1-2.2,2.3-2.2c1,0,1.8,0.5,2,1.2
				c0.1,0.3,0.2,1,0,1.4h-2.7c0.1,0.2,0.2,0.7,0.9,0.7c0.3,0,0.7,0,1.2-0.4L197.2,293.4z M194.4,291.5h1.3c0-0.3-0.1-0.7-0.6-0.7
				C194.5,290.8,194.4,291.3,194.4,291.5z"/>
			<path fill="#003E18" d="M199.8,294h-2.4v-1.1h0.4v-2h-0.4v-1.1h1.6l0.3,0.5c0.2-0.4,0.4-0.8,1.3-0.8v1.5c-0.8,0-1.2,0.2-1.2,1
				v0.9h0.4V294z"/>
			<path fill="#003E18" d="M200.6,294v-1.5h1.1c0,0.5,0.7,0.6,0.9,0.6c0.2,0,0.4-0.1,0.4-0.3c0-0.3-0.6-0.3-1.3-0.5
				c-0.6-0.2-1.1-0.6-1.1-1.4c0-0.9,0.9-1.2,1.5-1.2c0.6,0,1.1,0.3,1.3,0.7l0.1-0.6h1.1v1.5h-1.1c0-0.4-0.4-0.7-0.9-0.7
				c-0.2,0-0.3,0.1-0.3,0.3c0,0.2,0.5,0.3,1.1,0.5c0.7,0.2,1.4,0.5,1.4,1.4c0,0.8-0.8,1.3-1.6,1.3c-0.6,0-1.1-0.3-1.3-0.6l-0.1,0.5
				H200.6z"/>
			<path fill="#003E18" d="M209.7,294h-2.5v-1.1h0.4v-2h-0.4v-1.1h1.6l0.2,0.5c0.1-0.2,0.5-0.6,1.1-0.6c0.9,0,1.1,0.4,1.3,0.6
				c0.3-0.3,0.7-0.6,1.3-0.6c1.4,0,1.6,1,1.6,2.1v1.2h0.4v1.2h-2.2v-2.1c0-0.4,0.1-1.1-0.3-1.1c-0.4,0-0.5,0.3-0.5,0.6v1.4h0.5v1.1
				H210v-2.2c0-0.7,0-1-0.4-1c-0.3,0-0.4,0.2-0.4,0.5v1.5h0.5V294z"/>
			<path fill="#003E18" d="M214.7,291.9c0-1.4,1.2-2.2,2.3-2.2c1.4,0,2.4,0.8,2.4,2.3c0,1.4-1,2.2-2.3,2.2
				C215.9,294.1,214.7,293.4,214.7,291.9z M217.7,291.9c0-0.6-0.2-1.1-0.6-1.1c-0.3,0-0.6,0.5-0.6,1.1c0,0.7,0.3,1.2,0.6,1.2
				C217.4,293,217.7,292.6,217.7,291.9z"/>
			<path fill="#003E18" d="M219.5,294v-1.5h1.1c0,0.5,0.7,0.6,0.9,0.6c0.2,0,0.4-0.1,0.4-0.3c0-0.3-0.6-0.3-1.3-0.5
				c-0.6-0.2-1.1-0.6-1.1-1.4c0-0.9,0.9-1.2,1.5-1.2c0.6,0,1.1,0.3,1.3,0.7l0.1-0.6h1.1v1.5h-1.1c0-0.4-0.4-0.7-0.9-0.7
				c-0.2,0-0.3,0.1-0.3,0.3c0,0.2,0.5,0.3,1.1,0.5c0.7,0.2,1.4,0.5,1.4,1.4c0,0.8-0.8,1.3-1.6,1.3c-0.6,0-1.1-0.3-1.3-0.6l-0.1,0.5
				H219.5z"/>
			<g>
				<path fill="#003E18" d="M223.6,289.7h0.5V289l1.6-0.5v1.3h0.8v1.1h-0.8v1.5c0,0.3-0.1,0.7,0.3,0.7c0.1,0,0.4-0.1,0.5-0.1v1.1
					c-0.3,0.1-0.8,0.2-1,0.2c-1.3,0-1.3-0.7-1.4-1.8v-1.5h-0.5V289.7z"/>
				<path fill="#003E18" d="M228.4,289.7c0-0.7-0.3-1.2-0.8-1.6c-0.1-0.5-0.3-1-0.8-1.3c-0.5-0.4-1.1-0.5-1.7-0.3l-1.6,0.5
					c-0.4,0.1-0.7,0.4-0.9,0.7h-0.2c-0.1,0-0.2,0-0.4,0c-0.3-0.1-0.6-0.1-1-0.1c-0.7,0-1.3,0.2-1.9,0.5c-0.6-0.3-1.3-0.5-2.1-0.5
					c-0.9,0-1.6,0.2-2.3,0.6c-0.8-0.6-1.7-0.6-2.1-0.6c-0.3,0-0.8,0.1-1.2,0.2c-0.4-0.1-0.8-0.2-1.3-0.2c-0.3,0-0.6,0-0.9,0.2
					c-0.1,0-0.2,0-0.3,0h-1.6c-0.5,0-1,0.2-1.3,0.5c-0.3-0.3-0.8-0.5-1.3-0.5h-1.1c-0.1,0-0.2,0-0.4,0c-0.3-0.1-0.6-0.1-1-0.1
					c-0.3,0-0.5,0-0.8,0.1c-0.3-0.1-0.5-0.2-0.8-0.2c-0.5,0-1,0.1-1.4,0.2c-0.1,0-0.2,0-0.2,0h-1.6c-0.3,0-0.5,0.1-0.8,0.2
					c-0.5-0.2-1-0.3-1.6-0.3c-0.5,0-0.9,0.1-1.3,0.2c-0.1-0.4-0.3-0.8-0.7-1c-0.5-0.4-1.1-0.5-1.7-0.3l-1,0.3c0,0,0,0,0-0.1
					c-0.5-0.4-1.1-0.5-1.7-0.3l-1.6,0.5c-0.4,0.1-0.7,0.4-0.9,0.7c-0.5-0.1-1-0.2-1.5-0.2c-0.8,0-1.5,0.2-2.3,0.6
					c-0.7-0.4-1.5-0.5-1.8-0.5c-0.3,0-0.8,0.1-1.2,0.2c-0.4-0.1-0.8-0.2-1.3-0.2c-0.3,0-0.6,0-0.9,0.2c-0.1,0-0.2,0-0.3,0h-1.6
					c-0.5,0-0.9,0.2-1.2,0.5c-0.1-0.1-0.1-0.1-0.2-0.2c-0.1-0.5-0.3-1-0.8-1.3c-0.5-0.4-1.1-0.5-1.7-0.3l-1.6,0.5
					c-0.4,0.1-0.7,0.4-0.9,0.7c-0.5-0.1-1-0.2-1.6-0.2c-0.7,0-1.5,0.2-2.2,0.6c-0.4-0.2-0.9-0.4-1.2-0.4v-0.1c0-1.1-0.9-1.9-1.9-1.9
					h-2.1c-1.1,0-1.9,0.9-1.9,1.9v0.2h-0.2c-0.1,0-0.2,0-0.4,0c-0.1,0-0.2,0-0.4,0H155c-0.1,0-0.3,0-0.4,0c-0.1,0-0.2,0-0.4,0H152
					c-0.7,0-1.3,0.4-1.6,1c-0.7-0.8-1.6-1.1-2.6-1.1c-0.4,0-0.7,0.1-1.1,0.2c-0.1,0-0.2,0-0.3,0h-0.6c-0.3-1.2-1.4-2.1-2.8-2.1
					c-1.6,0-2.8,1.2-2.8,2.8c0,0.1,0,0.2,0,0.3c-0.2,0.3-0.3,0.6-0.3,1v1.1c0,0.4,0.1,0.7,0.3,1c-0.2,0.3-0.3,0.6-0.3,1v1.1
					c0,1.1,0.9,1.9,1.9,1.9h2.4c0,0,0.1,0,0.1,0c0,0,0.1,0,0.1,0h2.6c0.1,0,0.1,0,0.2,0c0.1,0,0.1,0,0.2,0h2.2
					c0.8,0,1.6-0.6,1.8-1.3c0.3,0.8,1,1.3,1.8,1.3h1.8c0.2,0,0.4,0,0.6-0.1c0.2,0.1,0.4,0.1,0.6,0.1h1.8c0.2,0,0.5-0.1,0.7-0.1
					c0.2,0.1,0.5,0.1,0.7,0.1h2.7c0.1,0,0.1,0,0.2,0c0.1,0,0.1,0,0.2,0h2.2c0.2,0,0.3,0,0.5-0.1c0.4,0.1,0.8,0.2,1.3,0.2
					c0.4,0,0.8-0.1,1.1-0.2c0.1,0,0.2,0,0.3,0h1.8c0.1,0,0.3,0,0.4,0c0.4,0.1,0.7,0.2,1.2,0.2c0,0,1,0,1.7-0.3
					c0.2-0.1,0.4-0.2,0.5-0.3c0.3,0.3,0.8,0.5,1.2,0.5h2.5c0,0,0.1,0,0.1,0c0,0,0.1,0,0.1,0h2.2c0,0,0.1,0,0.1,0c0,0,0.1,0,0.1,0
					h2.2c0.2,0,0.3,0,0.5-0.1c0.4,0.1,0.8,0.2,1.3,0.2c0.4,0,0.8-0.1,1.1-0.2c0.1,0,0.2,0,0.3,0h1.8c0.1,0,0.2,0,0.3,0
					c0.3,0.1,0.7,0.2,1.2,0.2c0,0,0.8,0,1.5-0.2c0.4,0.1,0.8,0.2,1.3,0.2c0,0,1,0,1.7-0.3c0.5,0.2,1,0.3,1.6,0.3
					c0.7,0,1.2-0.1,1.8-0.3c0.2,0.1,0.4,0.1,0.6,0.1h2.4c0.1,0,0.3,0,0.4-0.1c0.1,0,0.3,0.1,0.4,0.1h1.1c0.1,0,0.3,0,0.4,0
					c0.3,0.1,0.7,0.1,1,0.1c1,0,1.9-0.4,2.5-1c0.3,0.5,0.9,0.9,1.6,0.9h2.5c0,0,0.1,0,0.1,0c0,0,0.1,0,0.1,0h2.2c0,0,0.1,0,0.1,0
					c0,0,0.1,0,0.1,0h2.2c0.3,0,0.6-0.1,0.8-0.2c0.5,0.2,1.1,0.3,1.6,0.3c0.6,0,1.1-0.1,1.6-0.3c0.2,0.1,0.5,0.2,0.8,0.2h1.1
					c0.1,0,0.3,0,0.4,0c0.3,0.1,0.7,0.1,1,0.1c0.6,0,1.2-0.2,1.7-0.4c0.5,0.3,1.1,0.5,1.9,0.5c0,0,1,0,1.7-0.3
					c0.7-0.3,1.2-1,1.2-1.8v-1.1c0-0.4-0.1-0.7-0.3-1c0.2-0.3,0.3-0.7,0.3-1V289.7z"/>
			</g>
		</g>
		<g>
			<path fill="#D2DDBB" d="M144.3,294h-2.4v-1.1h0.4v-2h-0.4v-1.1h2v3.2h0.4V294z M143,287.6c0.6,0,0.9,0.5,0.9,0.9
				c0,0.5-0.3,0.9-0.9,0.9c-0.5,0-0.9-0.5-0.9-0.9C142.1,288,142.4,287.6,143,287.6z"/>
			<path fill="#D2DDBB" d="M147.2,294h-2.6v-1.1h0.4v-2h-0.4v-1.1h1.8l0.2,0.5c0.3-0.4,0.7-0.7,1.2-0.7c1.3,0,1.6,1,1.6,1.9v1.4h0.4
				v1.1h-2.2v-2.3c0-0.3,0-0.8-0.5-0.8c-0.4,0-0.5,0.4-0.5,0.8v1.2h0.6V294z"/>
			<path fill="#D2DDBB" d="M154.4,292.6c0-0.4,0.1-1.2,0.4-2l0.3-1h1.6l0.3,1.1c0.2,0.7,0.3,1.6,0.4,1.9h0c0-0.3,0.1-0.9,0.2-1.4
				l0.1-0.5h-0.4v-1.1h2.1v1.1h-0.4l-1,3.2h-1.8l-0.6-1.9l-0.6,1.9h-1.8l-1-3.2H152v-1.1h2.3v1.1H154l0.2,0.6
				C154.3,291.8,154.4,292.4,154.4,292.6L154.4,292.6z"/>
			<path fill="#D2DDBB" d="M162.2,294h-2.7v-1.1h0.4v-4.2h-0.4v-1.1h2.1v2.7c0.1-0.2,0.7-0.7,1.3-0.7c1.3,0,1.5,1,1.5,1.9v1.4h0.4
				v1.1h-2.2v-2.3c0-0.3,0-0.8-0.5-0.8c-0.4,0-0.5,0.4-0.5,0.8v1.2h0.6V294z"/>
			<path fill="#D2DDBB" d="M165.1,290c0.3-0.2,1.1-0.6,1.9-0.6c1,0,2.3,0.4,2.3,1.8v1.7h0.5v1.1H168l-0.2-0.4
				c-0.3,0.4-0.8,0.5-1.2,0.5c-0.8,0-1.7-0.4-1.7-1.4c0-1,0.8-1.6,1.8-1.6c0.5,0,0.8,0.2,0.8,0.3v-0.3c0-0.4-0.4-0.5-0.8-0.5
				c-0.5,0-1,0.2-1.3,0.4L165.1,290z M167.5,292.7v-0.3c0,0-0.1-0.2-0.5-0.2c-0.3,0-0.5,0.2-0.5,0.5c0,0.2,0.2,0.4,0.5,0.4
				S167.5,292.9,167.5,292.7z"/>
			<path fill="#D2DDBB" d="M169.6,289.7h0.5v-0.8l1.6-0.5v1.3h0.8v1.1h-0.8v1.5c0,0.3-0.1,0.7,0.3,0.7c0.1,0,0.4-0.1,0.5-0.1v1.1
				c-0.3,0.1-0.8,0.2-1,0.2c-1.3,0-1.3-0.7-1.4-1.8v-1.5h-0.5V289.7z"/>
			<path fill="#D2DDBB" d="M177.5,294h-2.5v-1.1h0.4v-2h-0.4v-1.1h1.6l0.2,0.5c0.1-0.2,0.5-0.6,1.1-0.6c0.9,0,1.1,0.4,1.3,0.6
				c0.3-0.3,0.7-0.6,1.3-0.6c1.4,0,1.6,1,1.6,2.1v1.2h0.4v1.2h-2.2v-2.1c0-0.4,0.1-1.1-0.3-1.1c-0.4,0-0.5,0.3-0.5,0.6v1.4h0.5v1.1
				h-2.2v-2.2c0-0.7,0-1-0.4-1c-0.3,0-0.4,0.2-0.4,0.5v1.5h0.5V294z"/>
			<path fill="#D2DDBB" d="M182.6,290c0.3-0.2,1.1-0.6,1.9-0.6c1,0,2.3,0.4,2.3,1.8v1.7h0.5v1.1h-1.8l-0.2-0.4
				c-0.3,0.4-0.8,0.5-1.2,0.5c-0.8,0-1.7-0.4-1.7-1.4c0-1,0.8-1.6,1.8-1.6c0.5,0,0.8,0.2,0.8,0.3v-0.3c0-0.4-0.4-0.5-0.8-0.5
				c-0.5,0-1,0.2-1.3,0.4L182.6,290z M185.1,292.7v-0.3c0,0-0.1-0.2-0.5-0.2c-0.3,0-0.5,0.2-0.5,0.5c0,0.2,0.2,0.4,0.5,0.4
				C184.8,293,185,292.9,185.1,292.7z"/>
			<path fill="#D2DDBB" d="M187.1,289.7h0.5v-0.8l1.6-0.5v1.3h0.8v1.1h-0.8v1.5c0,0.3-0.1,0.7,0.3,0.7c0.1,0,0.4-0.1,0.5-0.1v1.1
				c-0.3,0.1-0.8,0.2-1,0.2c-1.3,0-1.3-0.7-1.4-1.8v-1.5h-0.5V289.7z"/>
			<path fill="#D2DDBB" d="M189.8,289.7h0.5v-0.8l1.6-0.5v1.3h0.8v1.1h-0.8v1.5c0,0.3-0.1,0.7,0.3,0.7c0.1,0,0.4-0.1,0.5-0.1v1.1
				c-0.3,0.1-0.8,0.2-1,0.2c-1.3,0-1.3-0.7-1.4-1.8v-1.5h-0.5V289.7z"/>
			<path fill="#D2DDBB" d="M197.2,293.4c-0.6,0.5-1.3,0.7-2.2,0.7c-1.1,0-2.3-0.7-2.3-2.3c0-1.4,1-2.2,2.3-2.2c1,0,1.8,0.5,2,1.2
				c0.1,0.3,0.2,1,0,1.4h-2.7c0.1,0.2,0.2,0.7,0.9,0.7c0.3,0,0.7,0,1.2-0.4L197.2,293.4z M194.4,291.4h1.3c0-0.3-0.1-0.7-0.6-0.7
				C194.5,290.7,194.4,291.2,194.4,291.4z"/>
			<path fill="#D2DDBB" d="M199.8,294h-2.4v-1.1h0.4v-2h-0.4v-1.1h1.6l0.3,0.5c0.2-0.4,0.4-0.8,1.3-0.8v1.5c-0.8,0-1.2,0.2-1.2,1
				v0.9h0.4V294z"/>
			<path fill="#D2DDBB" d="M200.6,294v-1.5h1.1c0,0.5,0.7,0.6,0.9,0.6c0.2,0,0.4-0.1,0.4-0.3c0-0.3-0.6-0.3-1.3-0.5
				c-0.6-0.2-1.1-0.6-1.1-1.4c0-0.9,0.9-1.2,1.5-1.2c0.6,0,1.1,0.3,1.3,0.7l0.1-0.6h1.1v1.5h-1.1c0-0.4-0.4-0.7-0.9-0.7
				c-0.2,0-0.3,0.1-0.3,0.3c0,0.2,0.5,0.3,1.1,0.5c0.7,0.2,1.4,0.5,1.4,1.4c0,0.8-0.8,1.3-1.6,1.3c-0.6,0-1.1-0.3-1.3-0.6l-0.1,0.5
				H200.6z"/>
			<path fill="#D2DDBB" d="M209.7,294h-2.5v-1.1h0.4v-2h-0.4v-1.1h1.6l0.2,0.5c0.1-0.2,0.5-0.6,1.1-0.6c0.9,0,1.1,0.4,1.3,0.6
				c0.3-0.3,0.7-0.6,1.3-0.6c1.4,0,1.6,1,1.6,2.1v1.2h0.4v1.2h-2.2v-2.1c0-0.4,0.1-1.1-0.3-1.1c-0.4,0-0.5,0.3-0.5,0.6v1.4h0.5v1.1
				H210v-2.2c0-0.7,0-1-0.4-1c-0.3,0-0.4,0.2-0.4,0.5v1.5h0.5V294z"/>
			<path fill="#D2DDBB" d="M214.7,291.8c0-1.4,1.2-2.2,2.3-2.2c1.4,0,2.4,0.8,2.4,2.3c0,1.4-1,2.2-2.3,2.2
				C215.9,294.1,214.7,293.3,214.7,291.8z M217.7,291.8c0-0.6-0.2-1.1-0.6-1.1c-0.3,0-0.6,0.5-0.6,1.1c0,0.7,0.3,1.2,0.6,1.2
				C217.4,293,217.7,292.5,217.7,291.8z"/>
			<path fill="#D2DDBB" d="M219.5,294v-1.5h1.1c0,0.5,0.7,0.6,0.9,0.6c0.2,0,0.4-0.1,0.4-0.3c0-0.3-0.6-0.3-1.3-0.5
				c-0.6-0.2-1.1-0.6-1.1-1.4c0-0.9,0.9-1.2,1.5-1.2c0.6,0,1.1,0.3,1.3,0.7l0.1-0.6h1.1v1.5h-1.1c0-0.4-0.4-0.7-0.9-0.7
				c-0.2,0-0.3,0.1-0.3,0.3c0,0.2,0.5,0.3,1.1,0.5c0.7,0.2,1.4,0.5,1.4,1.4c0,0.8-0.8,1.3-1.6,1.3c-0.6,0-1.1-0.3-1.3-0.6l-0.1,0.5
				H219.5z"/>
			<path fill="#D2DDBB" d="M223.6,289.7h0.5v-0.8l1.6-0.5v1.3h0.8v1.1h-0.8v1.5c0,0.3-0.1,0.7,0.3,0.7c0.1,0,0.4-0.1,0.5-0.1v1.1
				c-0.3,0.1-0.8,0.2-1,0.2c-1.3,0-1.3-0.7-1.4-1.8v-1.5h-0.5V289.7z"/>
		</g>
	</g>
	<path fill="#D2DDBB" stroke="#231F20" stroke-width="0.25" stroke-miterlimit="10" d="M216.3,251.5c-0.5,0.9-1.9,1.7-3.7,1.7
		c-4.1,0-7.3-3.2-7.3-8.2c0-5.1,3.5-8.5,7.1-8.5c3.4,0,4.1,1.6,4.5,1.9l0.5-1.7h3.5v6.8h-4.1c-0.1-1.9-1.3-2.9-2.6-2.9
		c-1.9,0-3.2,2-3.2,4.4c0,2.4,1.2,4.3,3.2,4.3c1.3,0,1.9-0.5,2.2-1.1v-1h-1.4v-2.5h7.7v2.5h-0.9v5.8H217L216.3,251.5z"/>
	<path fill="#D2DDBB" stroke="#231F20" stroke-width="0.25" stroke-miterlimit="10" d="M127.3,250.4h15.1c10.8,0,12.9,4.3,12.9,9.6
		c0,3.6-2.9,6.2-6.7,6.7c3.2,0.5,6.1,3.3,6.1,6.6c0,2,0.3,3.2,1.1,3.2c0.7,0,1.1-0.6,1.1-1.5v-1.5h3.1v2.6c0,3.9-1.6,7.4-6.8,7.4
		c-6.1,0-9-3.2-9-8.6c0-4.2-0.5-5.3-4.6-5.3v7.2h2.8v6.1h-15v-6.1h2.6v-20.3h-2.6V250.4z M139.5,256.4v7.9h2.1
		c2.7,0,4.5-1.3,4.5-3.8c0-2.7-1.5-4.1-4.2-4.1H139.5z"/>
	<path fill="#D2DDBB" stroke="#231F20" stroke-width="0.25" stroke-miterlimit="10" d="M159.1,255.2h15.4v5.9h-2.9V281h2.9v5.9
		h-15.4V281h2.9v-19.8h-2.9V255.2z"/>
	<path fill="#D2DDBB" stroke="#231F20" stroke-width="0.25" stroke-miterlimit="10" d="M205,277.5c-3.2,3.5-8,6.6-14.1,6.6
		c-9.9,0-16.4-6.3-16.4-16.7c0-10.7,8-17.1,14.1-17.1c4.6,0,6.7,2.6,7.2,3.2l1.1-2.6h7.3V264h-8.3c-0.1-3-1.6-5.9-4.9-5.9
		c-3.3,0-5.5,4.1-5.5,9.2c0,4.6,2.4,8.7,6.8,8.7c3.9,0,7-4.1,7.4-4.6L205,277.5z"/>
	<path fill="#D2DDBB" stroke="#231F20" stroke-width="0.25" stroke-miterlimit="10" d="M205.3,253.2h15.1v6.1h-2.9v7h8.8v-7h-2.7
		v-6.1h15.1v6.1H236v20.2h2.7v6.1h-15.1v-6.1h2.7v-7h-8.8v7h2.9v6.1h-15.1v-6.1h2.6v-20.2h-2.6V253.2z"/>
	<g>
		<path fill="#231F20" d="M153.2,282.1c-5.2,0-7.7-2.4-7.7-7.4c0-4.8-0.9-6.5-5.9-6.5h-1.3v9.8h2.8v3.6h-12.4V278h2.6v-22.8h-2.6
			v-3.5h13.8c10.7,0,11.6,4.3,11.6,8.3c0,3-2.9,5.5-7.4,6.4l-3,0.6l3,0.5c3.7,0.6,6.8,3.3,6.8,5.9c0,1.2,0,4.5,2.4,4.5
			c1.2,0,2.4-0.9,2.4-2.8v-0.2h0.5v1.3C158.7,280.1,156.8,282.1,153.2,282.1z M137.9,267.9h1.6c5.3,0,6.2,2.1,6.2,6.8
			c0,4.8,2.4,7.1,7.5,7.1c3.5,0,5.2-2,5.2-5.9v-0.7c-0.1,1.9-1.4,2.7-2.6,2.7c-2.7,0-2.7-3.4-2.7-4.7c0-2.5-3.1-5.1-6.6-5.7
			l-4.6-0.7l4.6-0.9c4.4-0.8,7.2-3.2,7.2-6.1c0-3.9-0.9-8-11.3-8h-13.5v3h2.6v23.4h-2.6v3h11.9v-3h-2.8V267.9z M141.6,265.9h-3.7
			v-11h3.9c3.6,0,5.8,2.1,5.8,5.7C147.6,263.8,145.3,265.9,141.6,265.9z M138.2,265.6h3.4c3.5,0,5.8-2,5.8-5.1
			c0-3.4-2.1-5.4-5.5-5.4h-3.6V265.6z"/>
	</g>
	<g>
		<path fill="#231F20" d="M173.2,285.7h-12.9v-3.5h2.9v-22.3h-2.9v-3.4h12.9v3.4h-2.9v22.3h2.9V285.7z M160.6,285.4h12.3v-2.9h-2.9
			v-22.8h2.9v-2.9h-12.3v2.9h2.9v22.8h-2.9V285.4z"/>
	</g>
	<g>
		<path fill="#231F20" d="M191.2,282.6c-9.3,0-15.1-5.9-15.1-15.4c0-10.2,7.6-15.8,12.8-15.8c3.8,0,5.7,2,6.1,2.6l1.4,1.8l1.6-3.9
			h5.1v10.6h-5.9l0-0.1c-0.6-3.5-2.9-5.7-6.1-5.7c-4,0-6.8,4.4-6.8,10.5c0,5.9,3.3,10,8.1,10c2.5,0,4.9-1.3,7.3-3.8l0.1-0.1l3.6,4
			l-0.1,0.1C201,279.8,196.8,282.6,191.2,282.6z M188.9,251.7c-5.1,0-12.6,5.5-12.6,15.5c0,9.3,5.7,15.1,14.8,15.1
			c5.5,0,9.5-2.7,11.9-5l-3.3-3.6c-2.4,2.5-4.9,3.8-7.4,3.8c-4.9,0-8.4-4.2-8.4-10.3c0-6.2,3-10.8,7.1-10.8c3.3,0,5.7,2.2,6.3,5.9
			h5.4v-10.1h-4.7l-1.7,4.2l-1.7-2.2C194.4,253.6,192.6,251.7,188.9,251.7z"/>
	</g>
	<g>
		<path fill="#231F20" d="M237.5,284.4H225v-3.6h2.7v-9.6h-11.4v9.6h2.9v3.6h-12.5v-3.6h2.6v-22.8h-2.5l-0.2-3.4H219v3.6h-2.9v9.6
			l11.6-0.2v-9.6H225v-3.6h12.5v3.6h-2.7v22.8h2.7V284.4z M225.2,284.1h12v-3h-2.7v-23.4h2.7v-3h-12v3h2.7v10.1l-0.1,0l-12,0.2V258
			h2.9v-3h-11.9l0.2,2.8h2.6v23.4H207v3h11.9v-3H216V271h12v10.1h-2.7V284.1z"/>
	</g>
	<rect x="102.3" y="329.8" fill="#F3E6E1" width="164.4" height="22.7"/>
	<rect x="102.3" y="60.6" fill="#E3E3E3" width="164.4" height="31.9"/>
	<polygon fill="#C9C9C9" points="115.8,346.4 110.2,341.2 115.7,335.7 116.4,336.3 111.6,341.2 116.4,345.7 	"/>
	<polygon fill="#C9C9C9" points="147.9,346.4 147.2,345.7 151.7,341.2 147.2,336.3 147.9,335.7 153,341.2 	"/>
	<g>
		<polygon fill="#0EA9D6" points="189.7,347.6 179.2,347.6 179.2,337.2 183,337.2 183,338.2 180.2,338.2 180.2,346.6 188.7,346.6 
			188.7,338.2 186,338.2 186,337.2 189.7,337.2 		"/>
	</g>
	<polygon fill="#0EA9D6" points="186.8,335.7 184.5,333.5 184.4,333.5 181.9,335.7 182.6,336.4 183.9,335.1 183.9,342.4 
		184.9,342.4 184.9,335.2 186.1,336.4 	"/>
	<path fill="#0EA9D6" d="M225.6,345.1v-8.6c0-0.6-0.3-1-0.5-1.2c-0.5-0.4-1.1-0.4-1.1-0.4h-4.6c-0.5,0-0.9,0.2-1.1,0.4
		c-0.2-0.2-0.5-0.4-1.1-0.4l-4.7,0c-0.7,0-1.5,0.4-1.5,1.6l0,8.5c0,0.1-0.1,0.6,0.3,1.1c0.2,0.2,0.5,0.4,1.1,0.4h4.8l0.1,0
		c0.2,0,0.3,0.2,0.3,0.7h1c0-0.3,0.1-0.6,0.2-0.7c0.1-0.1,0.2,0,0.3,0h4.8c0.6,0,0.9-0.2,1.1-0.4
		C225.6,345.7,225.6,345.1,225.6,345.1z M217.9,345.6c-0.1,0-0.2,0-0.3,0c-0.1,0-0.2,0-0.2,0h-4.8c-0.1,0-0.3,0-0.4-0.1
		c-0.1-0.1-0.1-0.3-0.1-0.4v-8.6c0-0.3,0.1-0.6,0.6-0.6c0,0,0,0,0,0h4.6c0.2,0,0.4,0,0.5,0.1c0.1,0.1,0.1,0.4,0.1,0.4V345.6z
		 M224.5,345.5c-0.1,0.1-0.3,0.1-0.4,0.1l-4.7,0c0,0-0.3-0.1-0.6,0l0-9.1c0,0,0,0,0-0.1l0,0c0,0,0-0.2,0.1-0.4
		c0.1-0.1,0.3-0.2,0.5-0.2l4.6,0c0,0,0.3,0,0.4,0.1c0.1,0.1,0.2,0.3,0.2,0.5l0,8.6C224.6,345.2,224.6,345.4,224.5,345.5z"/>
	<path fill="#0EA9D6" d="M255.9,347.5h-10.3v-10.2h10.3V347.5z M246.6,346.6h8.4v-8.3h-8.4V346.6z"/>
	<polygon fill="#0EA9D6" points="258.7,344.8 256.5,344.8 256.5,343.8 257.7,343.8 257.7,335.4 249.4,335.4 249.4,336.7 
		248.5,336.7 248.5,334.4 258.7,334.4 	"/>
	<circle cx="106.9" cy="65.8" r="1.3"/>
	<circle cx="110.6" cy="65.8" r="1.3"/>
	<circle cx="117.7" cy="65.8" r="1.3"/>
	<circle cx="121.3" cy="65.8" r="1.3"/>
	<circle cx="114.2" cy="65.8" r="1.3"/>
	<text transform="matrix(1 0 0 1 124.3256 68.3232)"><tspan x="0" y="0" font-family="'HelveticaNeue-Medium'" font-size="6.8667">L</tspan><tspan x="3.4" y="0" font-family="'HelveticaNeue-Medium'" font-size="6.8667">C</tspan><tspan x="8.4" y="0" font-family="'HelveticaNeue-Medium'" font-size="6.8667">T</tspan><tspan x="12.6" y="0" font-family="'HelveticaNeue-Medium'" font-size="6.8667">V</tspan></text>
	<text transform="matrix(1 0 0 1 172.7363 67.8741)" font-family="'HelveticaNeue-Medium'" font-size="6.21">9:47 AM</text>
	<g>
		<path d="M262.9,68.4h-11.6v-5.1h11.6V68.4z M251.5,68.2h11.1v-4.6h-11.1V68.2z"/>
	</g>
	<rect x="252" y="64.1" width="6.9" height="3.4"/>
	<rect x="263.3" y="65.1" width="0.7" height="1.7"/>
	<path fill="#C2C3C7" d="M261.4,85.1c0,1.5-1.2,2.7-2.7,2.7H109.6c-1.5,0-2.7-1.2-2.7-2.7v-9.6c0-1.5,1.2-2.7,2.7-2.7h149.1
		c1.5,0,2.7,1.2,2.7,2.7V85.1z"/>
	<text transform="matrix(1 0 0 1 152.5945 83.4505)" font-family="'HelveticaNeue'" font-size="8.8379">live.lifechurch.tv</text>
	<path d="M254.2,77.9v1.5l2.4-1.6l-2.4-1.6v1l0,0c-1.8,0-3.3,1.5-3.3,3.3s1.5,3.3,3.3,3.3c1.8,0,3.3-1.5,3.3-3.3h-0.7
		c0,1.5-1.2,2.7-2.7,2.7c-1.5,0-2.7-1.2-2.7-2.7C251.5,79.1,252.7,77.9,254.2,77.9 M254.2,77.9"/>
</g>
</svg>
