<?xml version="1.0" encoding="utf-8"?>
<!-- Generator: Adobe Illustrator 17.1.0, SVG Export Plug-In . SVG Version: 6.00 Build 0)  -->
<!DOCTYPE svg PUBLIC "-//W3C//DTD SVG 1.1//EN" "http://www.w3.org/Graphics/SVG/1.1/DTD/svg11.dtd">
<svg version="1.1" xmlns="http://www.w3.org/2000/svg" xmlns:xlink="http://www.w3.org/1999/xlink" x="0px" y="0px"
	 viewBox="66.7 -56 253.1 412" enable-background="new 66.7 -56 253.1 412" xml:space="preserve">
<g id="Phones">
	<g>
		<path fill="#E96658" d="M319.8,324c0,17.1-13.9,31-31,31H154.3c-17.1,0-31-13.9-31-31V-21.4c0-17.1,13.9-31,31-31h134.5
			c17.1,0,31,13.9,31,31V324z"/>
		<path fill="#010005" d="M314.3,324c0,14.6-11.9,26.5-26.5,26.5H155.6c-14.6,0-26.5-11.9-26.5-26.5V-20.6
			c0-14.6,11.9-26.5,26.5-26.5h132.3c14.6,0,26.5,11.9,26.5,26.5V324z"/>
		<rect x="253.1" y="-55" fill="#E96658" width="31" height="2.6"/>
		<circle fill="#232323" cx="221.9" cy="323.8" r="18.3"/>
		<path fill="#232323" d="M238.8-16.6c0,2.2-1.8,3.9-3.9,3.9h-28.7c-2.2,0-3.9-1.8-3.9-3.9l0,0c0-2.2,1.8-3.9,3.9-3.9h28.7
			C237-20.6,238.8-18.8,238.8-16.6L238.8-16.6z"/>
		<circle fill="#232323" cx="220.4" cy="-31.6" r="3.9"/>
		<rect x="139" y="5.3" fill="#232323" width="165.1" height="290.7"/>
	</g>
	<g>
		<path fill="#E7E7E9" d="M276.7,324c0,17.1-13.9,31-31,31H111.2c-17.1,0-31-13.9-31-31V-21.4c0-17.1,13.9-31,31-31h134.5
			c17.1,0,31,13.9,31,31V324z"/>
		<path fill="#010005" d="M271.3,324c0,14.6-11.9,26.5-26.5,26.5H112.6c-14.6,0-26.5-11.9-26.5-26.5V-20.6
			c0-14.6,11.9-26.5,26.5-26.5h132.3c14.6,0,26.5,11.9,26.5,26.5V324z"/>
		<rect x="210.1" y="-55" fill="#E7E7E9" width="31" height="2.6"/>
		<circle fill="#232323" cx="178.8" cy="323.8" r="18.3"/>
		<path fill="#232323" d="M195.7-16.6c0,2.2-1.8,3.9-3.9,3.9H163c-2.2,0-3.9-1.8-3.9-3.9l0,0c0-2.2,1.8-3.9,3.9-3.9h28.7
			C193.9-20.6,195.7-18.8,195.7-16.6L195.7-16.6z"/>
		<circle fill="#232323" cx="177.3" cy="-31.6" r="3.9"/>
		<rect x="95.9" y="5.3" fill="#232323" width="165.1" height="290.7"/>
	</g>
</g>
<g id="Content">
	<rect x="96.5" y="5.3" fill="#2F2F2F" width="164.4" height="31.9"/>
	<rect x="96.5" y="274" fill="#2F2F2F" width="164.4" height="23.5"/>
	<circle fill="#FFFFFF" cx="101.1" cy="10.5" r="1.3"/>
	<circle fill="#FFFFFF" cx="104.9" cy="10.5" r="1.3"/>
	<circle fill="#FFFFFF" cx="112" cy="10.5" r="1.3"/>
	<circle fill="#FFFFFF" cx="115.6" cy="10.5" r="1.3"/>
	<circle fill="#FFFFFF" cx="108.4" cy="10.5" r="1.3"/>
	<text transform="matrix(1 0 0 1 118.5367 13.029)"><tspan x="0" y="0" fill="#FFFFFF" font-family="'HelveticaNeue-Medium'" font-size="6.8667">L</tspan><tspan x="3.4" y="0" fill="#FFFFFF" font-family="'HelveticaNeue-Medium'" font-size="6.8667">C</tspan><tspan x="8.4" y="0" fill="#FFFFFF" font-family="'HelveticaNeue-Medium'" font-size="6.8667">T</tspan><tspan x="12.6" y="0" fill="#FFFFFF" font-family="'HelveticaNeue-Medium'" font-size="6.8667">V</tspan></text>
	<text transform="matrix(1 0 0 1 166.9474 12.5799)" fill="#FFFFFF" font-family="'HelveticaNeue-Medium'" font-size="6.21">9:47 AM</text>
	<g>
		<path fill="#FFFFFF" d="M257.1,13.2h-11.6V8.1h11.6V13.2z M245.7,12.9h11.1V8.3h-11.1V12.9z"/>
	</g>
	<rect x="246.2" y="8.9" fill="#FFFFFF" width="6.9" height="3.4"/>
	<rect x="257.5" y="9.8" fill="#FFFFFF" width="0.7" height="1.7"/>
	<text transform="matrix(1 0 0 1 151.3662 30.5918)" fill="#FFFFFF" font-family="'HelveticaNeue'" font-size="10.3398">Genesis 31</text>
	<polygon fill="#FFFFFF" points="207.2,25.9 211.7,25.9 209.4,28.3 	"/>
	<rect x="103.5" y="23.5" fill="#FFFFFF" width="8.4" height="1.2"/>
	<rect x="103.5" y="26.2" fill="#FFFFFF" width="8.4" height="1.2"/>
	<rect x="103.5" y="29.1" fill="#FFFFFF" width="8.4" height="1.2"/>
	<text transform="matrix(1 0 0 1 240.001 28.7784)" fill="#FFFFFF" font-family="'HelveticaNeue-Medium'" font-size="6.3721">NLT</text>
	<rect x="96.5" y="37.2" fill="#FFFFFF" width="164.6" height="236.8"/>
	<text transform="matrix(1 0 0 1 101.081 52.6884)"><tspan x="0" y="0" fill="#3D3D3D" font-family="'HelveticaNeue'" font-size="9.8029">Laben’s sons were grumbling</tspan><tspan x="0" y="14.4" fill="#3D3D3D" font-family="'HelveticaNeue'" font-size="9.8029">about him. “Jacob has robbed our</tspan><tspan x="0" y="28.8" fill="#3D3D3D" font-family="'HelveticaNeue'" font-size="9.8029">father of everything!” they said.</tspan><tspan x="0" y="43.2" fill="#3D3D3D" font-family="'HelveticaNeue'" font-size="9.8029">“He has gained all his wealth at our</tspan><tspan x="0" y="57.6" fill="#3D3D3D" font-family="'HelveticaNeue'" font-size="9.8029">father’s expense.” </tspan><tspan x="82.2" y="57.6" fill="#3D3D3D" font-family="'HelveticaNeue-Bold'" font-size="9.8029">2</tspan><tspan x="87.7" y="57.6" fill="#3D3D3D" font-family="'HelveticaNeue'" font-size="9.8029"> And Jacob</tspan><tspan x="0" y="72" fill="#3D3D3D" font-family="'HelveticaNeue'" font-size="9.8029">began to notice a change in</tspan><tspan x="0" y="86.4" fill="#3D3D3D" font-family="'HelveticaNeue'" font-size="9.8029">Laban’s attitude toward him.</tspan><tspan x="0" y="100.8" fill="#3D3D3D" font-family="'HelveticaNeue'" font-size="9.8029">  </tspan><tspan x="5.5" y="100.8" fill="#3D3D3D" font-family="'HelveticaNeue'" font-size="9.8029"> </tspan><tspan x="9" y="100.8" fill="#3D3D3D" font-family="'HelveticaNeue-Bold'" font-size="9.8029">3</tspan><tspan x="14.4" y="100.8" fill="#3D3D3D" font-family="'HelveticaNeue'" font-size="9.8029"> Then the Lord said to Jacob,</tspan><tspan x="0" y="115.2" fill="#3D3D3D" font-family="'HelveticaNeue'" font-size="9.8029">“Return to the land of your father</tspan><tspan x="0" y="129.6" fill="#3D3D3D" font-family="'HelveticaNeue'" font-size="9.8029">and grandfather and to your</tspan><tspan x="0" y="144" fill="#3D3D3D" font-family="'HelveticaNeue'" font-size="9.8029">relatives there, and I will be with</tspan><tspan x="0" y="158.4" fill="#3D3D3D" font-family="'HelveticaNeue'" font-size="9.8029">you.”</tspan><tspan x="0" y="172.8" fill="#3D3D3D" font-family="'HelveticaNeue'" font-size="9.8029">  </tspan><tspan x="5.5" y="172.8" fill="#3D3D3D" font-family="'HelveticaNeue'" font-size="9.8029"> </tspan><tspan x="9" y="172.8" fill="#3D3D3D" font-family="'HelveticaNeue-Bold'" font-size="9.8029">4</tspan><tspan x="14.4" y="172.8" fill="#3D3D3D" font-family="'HelveticaNeue'" font-size="9.8029"> So Jacob called Rachel and</tspan><tspan x="0" y="187.2" fill="#3D3D3D" font-family="'HelveticaNeue'" font-size="9.8029">Leah out to the field where he was</tspan><tspan x="0" y="201.6" fill="#3D3D3D" font-family="'HelveticaNeue'" font-size="9.8029">watching his flock. </tspan><tspan x="84.2" y="201.6" fill="#3D3D3D" font-family="'HelveticaNeue-Bold'" font-size="9.8029">5</tspan><tspan x="89.7" y="201.6" fill="#3D3D3D" font-family="'HelveticaNeue'" font-size="9.8029"> He said to</tspan><tspan x="0" y="216" fill="#3D3D3D" font-family="'HelveticaNeue'" font-size="9.8029">them, “I have noticed that your</tspan></text>
	<circle fill="none" stroke="#FFFFFF" stroke-width="0.7" stroke-miterlimit="10" cx="110.3" cy="284.8" r="4.8"/>
	<circle fill="none" stroke="#FFFFFF" stroke-width="0.7" stroke-miterlimit="10" cx="110.3" cy="284.8" r="3.5"/>
	<line fill="none" stroke="#FFFFFF" stroke-width="0.7" stroke-miterlimit="10" x1="113.8" y1="288.1" x2="116.4" y2="290.7"/>
	<path fill="none" stroke="#FFFFFF" stroke-width="0.7" stroke-miterlimit="10" d="M141.2,285.4c0,0,0-0.2,0-2.9s-1.3-2.4-1.3-2.4
		s-6.3,0-7.7,0c-1.3,0-1.2,1.7-1.2,1.7v8.9l3.6-2.6l3.3,2.6V282c0,0,0.1-0.9,1-0.9c0.9,0,1.1,0.7,1.1,1.2c0,0.6,0,3,0,3H141.2z"/>
	<polygon fill="#FFFFFF" points="168,281.6 168,289.8 161.8,285.7 	"/>
	<polygon fill="#FFFFFF" points="188.1,281.6 188.1,289.8 194.3,285.7 	"/>
	<polygon fill="none" stroke="#FFFFFF" stroke-width="0.7" stroke-miterlimit="10" points="217.3,282.8 217.3,289.9 215.1,287.6 
		213.4,287.6 213.4,285 214.9,285 	"/>
	<path fill="none" stroke="#FFFFFF" stroke-width="0.7" stroke-miterlimit="10" d="M219.5,283.7c0,0,1.6,0.7,1.6,2.7
		s-1.6,2.6-1.6,2.6"/>
	<path fill="none" stroke="#FFFFFF" stroke-width="0.7" stroke-miterlimit="10" d="M221.1,281.1c0,0,2.8,1.1,2.8,5.2
		c0,4.2-3.6,5.2-3.6,5.2"/>
	<text transform="matrix(1 0 0 1 240.5869 289.6172)" fill="#FFFFFF" font-family="'HelveticaNeue-Bold'" font-size="9.6228">Aa</text>
</g>
<g id="Content_2">
	<rect x="283" y="5.3" fill="#B0DAEF" width="21.5" height="292.3"/>
	<rect x="280.3" y="252.1" fill="#86A693" width="3.3" height="8.2"/>
	<path fill="#A4A7A7" d="M290.7,272.8l12,8.9l-10.1,16l-2.4-0.1C290.1,297.5,286.9,278.1,290.7,272.8z"/>
	<path fill="#5F6E6C" d="M284,251.6l-2.9,4.6l-4.4-3.6v-3.6C276.7,249.1,282.4,245.2,284,251.6z"/>
	<path fill="#9C7D50" d="M276.7,249.9l3.3-0.9c0,0,3.8,2.6,4,2.6s10,0,10,0l1.8-1.3h1.9v-1.6l1.9,2l4.8-0.1l-0.1-4.9l-23.2-8.1
		l-4.5,6.4V249.9z"/>
	<path fill="#91744D" d="M276.7,248.7l4-1l15.2,0.5l1.8-3.2l2.2,3.1l4.4,0.1v-5.2c0,0-21.8-8.6-27.7-2.3V248.7z"/>
	<path fill="#906A37" d="M276.7,245h2.2l3-5.3l1.5,4l5.1,2.1c0,0,15.9,0.9,15.9,0.7s0-2.2,0-2.2l-23.3-7.3l-4.5,2V245z"/>
	<path fill="#F5F5F5" d="M290,27.6c0,0,2.7-0.1,2.7,1.9s-1.6,2.4-1.6,2.4s0.8,1.2,0,1.7c0,0,0.9,0.1,1.2,1c0.3,0.9,0.1,1.3-0.4,1.7
		c0,0,3-0.9,3.9,1.2s-0.9,3.8-0.9,3.8s3.2,0.4,3.2,3.4s-2.1,4.2-2.1,4.2l-6.2-2.1V27.6z"/>
	<path fill="#91B4A1" d="M287.1,15.4c0,0,0,27.4,0,27.4s-9.1-8.1-9.1-8.1l1.8-14.6L287.1,15.4z"/>
	<polygon fill="#B8C1C4" points="294.1,5.3 291.1,12.6 283.9,17.5 	"/>
	<polygon fill="#738985" points="291.1,5.3 290.6,11.5 287.4,15.2 276.7,23.9 276.7,17.5 	"/>
	<polygon fill="#687B77" points="291.1,5.3 285.9,13 276.7,17.5 276.7,5.3 	"/>
	<polygon fill="#D0D4D4" points="294.1,5.3 290.6,11.5 291.1,5.3 	"/>
	<polygon fill="#728784" points="280.5,20.8 282.1,23 279.8,28.8 276.7,30 276.7,23.9 	"/>
	<polygon fill="#687B77" points="280.5,20.8 282.1,23 276.7,27 276.7,23.9 	"/>
	<polygon fill="#5D6E6B" points="279.8,28.8 281.1,32.6 276.7,37.2 276.7,30 	"/>
	<polygon fill="#D0D4D4" points="282.1,23.2 285.3,27.3 279.8,28.8 	"/>
	<polygon fill="#9B9E9E" points="279.8,28.8 281.1,32.6 285.3,27.3 	"/>
	<path fill="#798D89" d="M279.2,34.6l2.9,2.9c0,0,0.2,10.2,0,10.2s-5.4,0.3-5.4,0.3V37.2L279.2,34.6z"/>
	<polygon fill="#CDD0D0" points="282.1,37.5 292,48 282.1,47.7 	"/>
	<polygon fill="#677774" points="282.1,47.7 281.1,52.2 276.7,53.2 276.7,48 	"/>
	<polygon fill="#A3A6A6" points="292,48 282.1,56.3 281.1,52.2 282.1,47.7 	"/>
	<path fill="#96794D" d="M303.1,53.2c0-0.6,0-4.2,0-4.2l-4.8-1.3c0,0-0.7,1.3-0.8,1.3s-1.7-1.9-1.7-1.9l-6.7-0.5l-0.9,6.6H303.1z"/>
	<polygon fill="#AC9063" points="302,52.7 302,50.4 298.9,49 297.2,52.7 296.2,49 290,49 290,53.2 	"/>
	<polygon fill="#8A693E" points="304.5,58.5 288.1,59.9 276.7,57.5 276.7,52 279.8,51.1 283.9,51.1 290.6,50.4 291.1,52.7 
		292.4,51.1 299.5,51.1 304.5,52.7 	"/>
	<polygon fill="#A2855B" points="304.5,54.5 300.2,53.2 293.5,53.4 291.1,55.9 290,52 287.1,54.5 281.1,53.2 276.7,54.5 276.7,59.8 
		304.5,58.5 	"/>
	<path fill="#AD8D59" d="M304.5,56.3l-8.8-1.8l-3.3,2.9l-3.3,0.5l-2,1.2l-1.8-2.3l-8.6,0.7v1.6h8.6c0,0,3.4,3.8,3.7,3.4
		c0.4-0.4,3.3-3.5,3.3-3.5l4.8,0.2l3.8-1.4l3.6,1.2V56.3z"/>
	<polygon fill="#C6AD7F" points="304.4,58.5 299.6,56.9 292,58.5 289,67.6 304.4,63.8 	"/>
	<polygon fill="#BCA070" points="292,58.5 288.4,62.2 285.3,59.1 281.6,58.5 281.1,65 289,67.6 	"/>
	<polygon fill="#A68351" points="281.6,58.5 276.7,59.1 276.7,66 281.1,65 	"/>
	<polygon fill="#DFCFAD" points="289,67 282.2,114.4 281.2,177.5 286.2,215.8 292.8,238.8 299.8,237.5 304.5,238.8 304.4,63.8 	"/>
	<polygon fill="#BFA475" points="281.1,65 276.7,66 276.7,233 281.1,231.7 	"/>
	<polygon fill="#D1BC93" points="289,67 281.1,65 276.7,119.7 276.7,198.3 280.3,231.2 292.8,238.8 281.8,177.3 282.2,114.8 	"/>
	<polygon fill="#C8AF82" points="292.8,238.8 296.8,244.5 304.5,244.5 304.5,238.8 299.8,237.5 	"/>
	<polygon fill="#BFA274" points="296.8,244.5 292.8,238.8 280.3,231.2 281.9,238.4 287.8,243.5 	"/>
	<polygon fill="#B29262" points="280.3,231.2 276.7,233 276.7,242.5 278.9,238.8 281.9,238.4 	"/>
	<polygon fill="#778B87" points="276.7,252.6 284.8,259.4 287.6,266.2 276.7,265.2 	"/>
	<polygon fill="#CDD1D1" points="284.8,259.4 295.4,268.4 287.6,266.2 	"/>
	<polygon fill="#A4A7A7" points="295.4,268.4 294.2,272.7 285.9,269.2 287.6,266.2 	"/>
	<polygon fill="#677773" points="287.6,266.2 285.9,269.2 276.7,270.7 276.7,265.2 	"/>
	<polygon fill="#D0D4D4" points="294.2,272.7 302.6,281.7 285.9,269.2 	"/>
	<polygon fill="#D0D4D4" points="302.6,281.7 289.6,279.1 293.7,287.8 	"/>
	<polygon fill="#D0D4D4" points="302.6,281.7 291.8,297.6 294.4,297.6 	"/>
	<polygon fill="#778B87" points="285.9,269.2 290.7,272.8 276.7,277.3 276.7,270.7 	"/>
	<polygon fill="#778B87" points="289.6,279.1 278.2,281.4 283,291.1 281.7,297.6 284.2,297.6 293.7,287.8 	"/>
	<polygon fill="#677773" points="290.7,272.8 289.6,279.1 278.2,281.4 276.7,277.3 	"/>
	<polygon fill="#677773" points="293.7,287.8 291.8,297.6 284.2,297.6 	"/>
	<polygon fill="#687C76" points="278.2,281.4 283,291.1 281.7,297.6 276.7,297.6 276.7,281.4 	"/>
	<polygon fill="#566662" points="276.7,277.3 278.2,281.4 276.7,281.4 	"/>
	<g>
		<path fill="#276694" d="M292.6,119.5c0,0-0.1,0-0.2,0c-0.1,0-0.1,0-0.1,0c-0.1,0-0.3-0.1-0.6-0.1h-5.5c-0.1,0-0.1,0-0.2,0.1
			s-0.1,0.1-0.1,0.1c-0.4,0-0.6-0.1-0.6-0.2c0-0.1,0-0.3,0.1-0.6c0.1-0.4,0.2-0.6,0.2-0.7c0.1-0.1,0.2-0.2,0.3-0.2c0,0,0.1,0,0.1,0
			c0,0,0.1,0,0.2,0h6.3c0,0,0.1,0,0.1,0c0,0,0.1,0,0.1,0c0.1,0,0.2,0.1,0.3,0.3c0,0.1,0,0.2,0,0.4c0,0.3-0.1,0.5-0.1,0.6
			C292.9,119.4,292.8,119.5,292.6,119.5z"/>
		<path fill="#276694" d="M286.2,124.4c-0.1,0-0.2,0.1-0.3,0.1c-0.2,0-0.3-0.1-0.4-0.2c0,0,0-0.1,0-0.2c0-0.2,0-0.4,0.1-0.7
			c0.1-0.3,0.1-0.5,0.2-0.5c0,0,0.1,0,0.1,0c0.1,0,0.2,0,0.3,0.1c0.1,0.1,0.3,0.1,0.3,0.1c2.4,0,3.6,0,3.6-0.1
			c0-0.1-0.2-0.3-0.8-0.6c-0.6-0.3-1.1-0.5-1.4-0.5h-1.7c-0.1,0.1-0.2,0.1-0.3,0.1c-0.2,0-0.4-0.1-0.5-0.3c0,0,0-0.1,0-0.1
			c0-0.2,0-0.4,0.1-0.7c0.1-0.3,0.1-0.5,0.2-0.5c0,0,0.1-0.1,0.2-0.1c0.1,0,0.1,0,0.2,0.1s0.1,0.1,0.2,0.1h4.2c0,0,0.1,0,0.2-0.1
			c0.1,0,0.1-0.1,0.2,0c0.1,0,0.2,0.1,0.2,0.3c0,0.1,0,0.3-0.1,0.7c-0.1,0.4-0.2,0.6-0.3,0.6c-0.1,0-0.2,0-0.3,0
			c-0.2-0.1-0.3-0.1-0.4-0.1c-0.1,0-0.1,0-0.2,0c0.3,0.1,0.6,0.2,0.8,0.4c0.3,0.2,0.4,0.4,0.4,0.6c0,0.2-0.1,0.5-0.2,0.8
			c-0.1,0.3-0.3,0.5-0.4,0.6C290.1,124.3,288.7,124.4,286.2,124.4z"/>
		<path fill="#276694" d="M290,130.4c-0.1,0-0.2,0-0.3-0.1c-0.1-0.1-0.1-0.1-0.1-0.2c0,0,0,0,0-0.1c0-0.1,0-0.3,0-0.6h-3.6
			c0,0,0,0-0.1,0.1c-0.1,0-0.2,0.1-0.3,0.1c-0.2,0-0.3-0.1-0.3-0.4c0-0.1,0-0.4,0.2-0.7c0.1-0.4,0.2-0.6,0.3-0.6c0,0,0.1,0,0.3,0.1
			c0.1,0.1,0.2,0.1,0.3,0.1h3.2v-0.3c0-0.1,0.1-0.3,0.3-0.4c0.2-0.2,0.4-0.3,0.5-0.3c0.1,0,0.2,0,0.2,0.1c0.1,0.1,0.1,0.1,0.1,0.2
			v0.6h0.8c0.1-0.1,0.2-0.1,0.4-0.1c0.1,0,0.2,0.1,0.2,0.2c0,0.1,0,0.1,0,0.2c0,0.2,0,0.5-0.1,0.8c-0.1,0.3-0.1,0.5-0.2,0.6
			c0,0-0.1,0.1-0.1,0.1c-0.1,0-0.1,0-0.3-0.1c-0.1-0.1-0.2-0.1-0.3-0.2h-0.5v0.3c0,0.1-0.1,0.2-0.3,0.4
			C290.3,130.3,290.1,130.4,290,130.4z"/>
		<path fill="#276694" d="M285.8,135.1c-0.2,0-0.3-0.1-0.3-0.2c0,0,0-0.1,0-0.2c0-0.2,0-0.4,0.1-0.7c0.1-0.3,0.1-0.5,0.2-0.5
			c0,0,0.1,0,0.1,0c0,0,0.1,0,0.3,0.1c0,0,0.1,0.1,0.2,0.1c0.1,0,0.1,0.1,0.2,0.1c2.4,0,3.6,0,3.6-0.1c0-0.1-0.2-0.3-0.7-0.6
			c-0.5-0.3-0.9-0.5-1.2-0.5h-2c-0.1,0.1-0.2,0.1-0.4,0.1c-0.2,0-0.3-0.1-0.4-0.3c0,0,0-0.1,0-0.1c0-0.2,0-0.4,0.1-0.7
			c0.1-0.3,0.1-0.5,0.2-0.5c0.1-0.1,0.2-0.1,0.3,0c0,0,0,0,0.1,0.1s0.1,0.1,0.1,0.1h6.4c0,0,0.1,0,0.2-0.1c0.1,0,0.1-0.1,0.2,0
			c0.1,0,0.2,0.1,0.2,0.3c0,0.1,0,0.3-0.1,0.7c-0.1,0.4-0.2,0.6-0.3,0.6c-0.1,0-0.2,0-0.3,0c-0.1,0-0.3-0.1-0.5-0.1h-1.7
			c0.4,0.3,0.6,0.7,0.6,1c0,0.2-0.1,0.5-0.2,0.8c-0.1,0.3-0.3,0.5-0.4,0.6c-0.4,0.2-1.8,0.3-4.3,0.3
			C286.1,135.1,285.9,135.2,285.8,135.1z"/>
		<path fill="#276694" d="M287.2,139.5c-0.1,0.1-0.4-0.1-0.8-0.4c-0.5-0.3-0.8-0.6-1-0.9c0,0,0-0.1,0-0.2c0-0.2,0.1-0.5,0.2-0.9
			c0.1-0.4,0.3-0.7,0.5-0.8c0.5-0.3,1.1-0.5,1.9-0.5c0.8,0,1.4,0.2,2,0.5c0.6,0.3,1,0.8,1,1.3c0,0.2,0,0.4-0.1,0.7
			c-0.1,0.3-0.3,0.6-0.5,0.8c-0.1,0.1-0.2,0.1-0.5,0.2c-0.3,0.1-0.6,0.1-0.8,0.1c-0.4,0-0.7-0.1-0.8-0.2c-0.2-0.6-0.3-1.2-0.3-1.9
			c-0.3,0-0.6,0-0.9,0.1c-0.3,0.1-0.5,0.2-0.5,0.3c0,0.1,0.1,0.3,0.3,0.4c0.2,0.2,0.3,0.2,0.4,0.3c0.2,0,0.4,0.1,0.6,0.2
			c0,0.1,0,0.3-0.1,0.6C287.4,139.3,287.3,139.5,287.2,139.5z M290,137.9c0-0.1-0.1-0.2-0.5-0.4c-0.3-0.2-0.7-0.3-1-0.3
			c0,0.3,0.1,0.5,0.2,0.6c0.1,0.1,0.4,0.1,0.9,0.1C289.8,138,290,138,290,137.9z"/>
		<path fill="#276694" d="M288.9,146.7c-0.1,0-0.2,0-0.3,0c-0.5,0-1-0.2-1.6-0.6c-0.5-0.3-0.9-0.8-1.2-1.3c-0.3-0.5-0.5-0.8-0.5-0.9
			c0-0.2,0.2-0.5,0.4-1c0.2-0.5,0.4-0.7,0.5-0.7c0,0,0.1,0,0.1,0c0,0,0.1,0,0.1,0c0.1,0,0.1,0,0.1,0h5.8c0.1,0,0.1,0.1,0.1,0.4
			c0,0.1,0,0.2,0,0.3c0.2,0.3,0.3,0.6,0.5,1.1c0.1,0.4,0.2,0.8,0.2,1.1c0,0.2,0,0.3-0.1,0.4c-0.1,0.1-0.1,0.2-0.3,0.3
			c-0.2,0.1-0.3,0.2-0.3,0.2c0,0-0.1,0.1-0.2,0.3c-0.1,0.1-0.2,0.2-0.3,0.2c-0.1,0-0.1,0-0.2,0c-0.5,0-1-0.3-1.5-0.9
			C289.8,146.3,289.3,146.7,288.9,146.7z M291.9,145.1C291.9,145.1,291.9,145.1,291.9,145.1c0-0.2,0-0.5-0.2-0.7
			c-0.1-0.3-0.3-0.5-0.4-0.6h-0.9c0.3,0.4,0.6,0.7,0.9,1C291.6,145.1,291.8,145.2,291.9,145.1z M289.2,145.5c0-0.2-0.1-0.4-0.2-0.8
			c-0.2-0.4-0.3-0.7-0.5-0.9h-1.7c0.1,0.4,0.4,0.8,1,1.2C288.4,145.3,288.8,145.5,289.2,145.5z"/>
		<path fill="#276694" d="M287.2,151.1c-0.1,0.1-0.4-0.1-0.8-0.4c-0.5-0.3-0.8-0.6-1-0.9c0,0,0-0.1,0-0.2c0-0.2,0.1-0.5,0.2-0.9
			c0.1-0.4,0.3-0.7,0.5-0.8c0.5-0.3,1.1-0.5,1.9-0.5c0.8,0,1.4,0.2,2,0.5c0.6,0.3,1,0.8,1,1.3c0,0.2,0,0.4-0.1,0.7
			c-0.1,0.3-0.3,0.6-0.5,0.8c-0.1,0.1-0.2,0.1-0.5,0.2c-0.3,0.1-0.6,0.1-0.8,0.1c-0.4,0-0.7-0.1-0.8-0.2c-0.2-0.6-0.3-1.2-0.3-1.9
			c-0.3,0-0.6,0-0.9,0.1c-0.3,0.1-0.5,0.2-0.5,0.3c0,0.1,0.1,0.3,0.3,0.4c0.2,0.2,0.3,0.2,0.4,0.3c0.2,0,0.4,0.1,0.6,0.2
			c0,0.1,0,0.3-0.1,0.6C287.4,150.8,287.3,151,287.2,151.1z M290,149.5c0-0.1-0.1-0.2-0.5-0.4c-0.3-0.2-0.7-0.3-1-0.3
			c0,0.3,0.1,0.5,0.2,0.6c0.1,0.1,0.4,0.1,0.9,0.1C289.8,149.5,290,149.5,290,149.5z"/>
		<path fill="#276694" d="M290.4,155.6c0,0-0.1,0-0.2-0.1c-0.1,0-0.1-0.1-0.2-0.1h-3.9c-1,0-1.6-0.4-1.9-1.1
			c-0.1-0.3-0.2-0.7-0.2-0.9c0-0.4,0.1-0.8,0.4-1.1c0.1-0.1,0.2-0.2,0.5-0.4c0,0,0.1-0.1,0.2-0.2c0.1-0.1,0.1-0.1,0.2-0.1
			c0.1,0,0.2,0.1,0.2,0.3c0,0,0,0.1,0,0.1c0,0.1,0,0.3-0.1,0.5c-0.1,0.2-0.1,0.3-0.2,0.4c-0.1,0.1-0.2,0.2-0.4,0.3
			c-0.1,0.1-0.2,0.2-0.2,0.4c0,0.2,0.1,0.4,0.5,0.5c0.2,0,0.5,0.1,0.9,0.1c0,0-0.1-0.1-0.2-0.2c-0.1-0.1-0.2-0.1-0.2-0.2
			c-0.1-0.1-0.1-0.1-0.1-0.2c0-0.3,0.1-0.6,0.3-0.8c0.5-0.6,1.3-1,2.4-1c0.7,0,1.3,0.1,1.8,0.4c0.6,0.3,0.9,0.7,1.1,1.2
			c0,0,0,0.1,0,0.1c0,0.1,0,0.2-0.1,0.3c-0.1,0.1-0.2,0.2-0.2,0.3c0.1,0,0.2,0.1,0.3,0.1s0.2,0.1,0.2,0.2c0,0.1,0,0.3-0.1,0.7
			c-0.1,0.3-0.2,0.5-0.3,0.5C290.6,155.6,290.5,155.6,290.4,155.6z M288.2,154c0.4,0,0.8,0.1,1,0.1c0.5,0,0.8-0.1,0.8-0.2
			c0-0.1-0.2-0.3-0.6-0.5c-0.5-0.2-0.9-0.3-1.3-0.3c-0.7,0-1.3,0.1-1.7,0.2C287,153.7,287.6,153.9,288.2,154z"/>
		<path fill="#276694" d="M285.8,158.1c-0.2,0-0.4-0.1-0.4-0.2c0,0,0-0.1,0-0.1c0-0.2,0-0.5,0.1-0.8c0.1-0.3,0.2-0.5,0.3-0.6
			c0,0,0.1,0,0.3,0.1c0.1,0.1,0.3,0.1,0.5,0.1h3.8c0.2-0.1,0.4-0.1,0.5-0.1s0.1,0.1,0.1,0.3c0,0.2-0.1,0.4-0.2,0.8s-0.2,0.5-0.3,0.6
			c0,0-0.1,0-0.1,0c0,0-0.1,0-0.3-0.1c-0.1-0.1-0.2-0.1-0.3-0.1h-3.6c-0.1,0-0.1,0-0.2,0.1C285.9,158.1,285.9,158.1,285.8,158.1z
			 M292,158.1C292,158.2,292,158.2,292,158.1c-0.2,0-0.4,0-0.6-0.1c-0.2-0.1-0.4-0.1-0.4-0.2c0-0.1,0-0.3,0.2-0.8s0.3-0.7,0.3-0.7
			c0,0,0.1,0,0.1,0c0.2,0,0.3,0,0.5,0.1c0.2,0.1,0.3,0.2,0.3,0.3c0,0.1,0,0.4-0.2,0.7C292.3,157.9,292.2,158.1,292,158.1z"/>
		<path fill="#276694" d="M286.2,163.1c-0.1,0-0.2,0.1-0.3,0.1c-0.2,0-0.3-0.1-0.4-0.2c0,0,0-0.1,0-0.2c0-0.2,0-0.4,0.1-0.7
			c0.1-0.3,0.1-0.5,0.2-0.5c0,0,0.1,0,0.1,0c0.1,0,0.2,0,0.3,0.1c0.1,0.1,0.3,0.1,0.3,0.1c2.4,0,3.6,0,3.6-0.1
			c0-0.1-0.2-0.3-0.8-0.6c-0.6-0.3-1.1-0.5-1.4-0.5h-1.7c-0.1,0.1-0.2,0.1-0.3,0.1c-0.2,0-0.4-0.1-0.5-0.3c0,0,0-0.1,0-0.1
			c0-0.2,0-0.4,0.1-0.7c0.1-0.3,0.1-0.5,0.2-0.5c0,0,0.1-0.1,0.2-0.1c0.1,0,0.1,0,0.2,0.1s0.1,0.1,0.2,0.1h4.2c0,0,0.1,0,0.2-0.1
			c0.1,0,0.1-0.1,0.2,0c0.1,0,0.2,0.1,0.2,0.3c0,0.1,0,0.3-0.1,0.7c-0.1,0.4-0.2,0.6-0.3,0.6c-0.1,0-0.2,0-0.3,0
			c-0.2-0.1-0.3-0.1-0.4-0.1c-0.1,0-0.1,0-0.2,0c0.3,0.1,0.6,0.2,0.8,0.4c0.3,0.2,0.4,0.4,0.4,0.6c0,0.2-0.1,0.5-0.2,0.8
			c-0.1,0.3-0.3,0.5-0.4,0.6C290.1,163,288.7,163.1,286.2,163.1z"/>
		<path fill="#276694" d="M286.2,168.1c-0.1,0-0.2,0.1-0.3,0.1c-0.2,0-0.3-0.1-0.4-0.2c0,0,0-0.1,0-0.2c0-0.2,0-0.4,0.1-0.7
			c0.1-0.3,0.1-0.5,0.2-0.5c0,0,0.1,0,0.1,0c0.1,0,0.2,0,0.3,0.1c0.1,0.1,0.3,0.1,0.3,0.1c2.4,0,3.6,0,3.6-0.1
			c0-0.1-0.2-0.3-0.8-0.6c-0.6-0.3-1.1-0.5-1.4-0.5h-1.7c-0.1,0.1-0.2,0.1-0.3,0.1c-0.2,0-0.4-0.1-0.5-0.3c0,0,0-0.1,0-0.1
			c0-0.2,0-0.4,0.1-0.7c0.1-0.3,0.1-0.5,0.2-0.5c0,0,0.1-0.1,0.2-0.1c0.1,0,0.1,0,0.2,0.1s0.1,0.1,0.2,0.1h4.2c0,0,0.1,0,0.2-0.1
			c0.1,0,0.1-0.1,0.2,0c0.1,0,0.2,0.1,0.2,0.3c0,0.1,0,0.3-0.1,0.7c-0.1,0.4-0.2,0.6-0.3,0.6c-0.1,0-0.2,0-0.3,0
			c-0.2-0.1-0.3-0.1-0.4-0.1c-0.1,0-0.1,0-0.2,0c0.3,0.1,0.6,0.2,0.8,0.4c0.3,0.2,0.4,0.4,0.4,0.6c0,0.2-0.1,0.5-0.2,0.8
			c-0.1,0.3-0.3,0.5-0.4,0.6C290.1,168.1,288.7,168.1,286.2,168.1z"/>
		<path fill="#276694" d="M285.8,170.8c-0.2,0-0.4-0.1-0.4-0.2c0,0,0-0.1,0-0.1c0-0.2,0-0.5,0.1-0.8c0.1-0.3,0.2-0.5,0.3-0.6
			c0,0,0.1,0,0.3,0.1c0.1,0.1,0.3,0.1,0.5,0.1h3.8c0.2-0.1,0.4-0.1,0.5-0.1s0.1,0.1,0.1,0.3c0,0.2-0.1,0.4-0.2,0.8s-0.2,0.5-0.3,0.6
			c0,0-0.1,0-0.1,0c0,0-0.1,0-0.3-0.1c-0.1-0.1-0.2-0.1-0.3-0.1h-3.6c-0.1,0-0.1,0-0.2,0.1C285.9,170.8,285.9,170.8,285.8,170.8z
			 M292,170.8C292,170.8,292,170.8,292,170.8c-0.2,0-0.4,0-0.6-0.1c-0.2-0.1-0.4-0.1-0.4-0.2c0-0.1,0-0.3,0.2-0.8s0.3-0.7,0.3-0.7
			c0,0,0.1,0,0.1,0c0.2,0,0.3,0,0.5,0.1c0.2,0.1,0.3,0.2,0.3,0.3c0,0.1,0,0.4-0.2,0.7C292.3,170.6,292.2,170.8,292,170.8z"/>
		<path fill="#276694" d="M286.2,175.8c-0.1,0-0.2,0.1-0.3,0.1c-0.2,0-0.3-0.1-0.4-0.2c0,0,0-0.1,0-0.2c0-0.2,0-0.4,0.1-0.7
			c0.1-0.3,0.1-0.5,0.2-0.5c0,0,0.1,0,0.1,0c0.1,0,0.2,0,0.3,0.1c0.1,0.1,0.3,0.1,0.3,0.1c2.4,0,3.6,0,3.6-0.1
			c0-0.1-0.2-0.3-0.8-0.6c-0.6-0.3-1.1-0.5-1.4-0.5h-1.7c-0.1,0.1-0.2,0.1-0.3,0.1c-0.2,0-0.4-0.1-0.5-0.3c0,0,0-0.1,0-0.1
			c0-0.2,0-0.4,0.1-0.7c0.1-0.3,0.1-0.5,0.2-0.5c0,0,0.1-0.1,0.2-0.1c0.1,0,0.1,0,0.2,0.1s0.1,0.1,0.2,0.1h4.2c0,0,0.1,0,0.2-0.1
			c0.1,0,0.1-0.1,0.2,0c0.1,0,0.2,0.1,0.2,0.3c0,0.1,0,0.3-0.1,0.7c-0.1,0.4-0.2,0.6-0.3,0.6c-0.1,0-0.2,0-0.3,0
			c-0.2-0.1-0.3-0.1-0.4-0.1c-0.1,0-0.1,0-0.2,0c0.3,0.1,0.6,0.2,0.8,0.4c0.3,0.2,0.4,0.4,0.4,0.6c0,0.2-0.1,0.5-0.2,0.8
			c-0.1,0.3-0.3,0.5-0.4,0.6C290.1,175.7,288.7,175.8,286.2,175.8z"/>
		<path fill="#276694" d="M290.4,180.4c0,0-0.1,0-0.2-0.1c-0.1,0-0.1-0.1-0.2-0.1h-3.9c-1,0-1.6-0.4-1.9-1.1
			c-0.1-0.3-0.2-0.7-0.2-0.9c0-0.4,0.1-0.8,0.4-1.1c0.1-0.1,0.2-0.2,0.5-0.4c0,0,0.1-0.1,0.2-0.2c0.1-0.1,0.1-0.1,0.2-0.1
			c0.1,0,0.2,0.1,0.2,0.3c0,0,0,0.1,0,0.1c0,0.1,0,0.3-0.1,0.5c-0.1,0.2-0.1,0.3-0.2,0.4c-0.1,0.1-0.2,0.2-0.4,0.3
			c-0.1,0.1-0.2,0.2-0.2,0.4c0,0.2,0.1,0.4,0.5,0.5c0.2,0,0.5,0.1,0.9,0.1c0,0-0.1-0.1-0.2-0.2c-0.1-0.1-0.2-0.1-0.2-0.2
			c-0.1-0.1-0.1-0.1-0.1-0.2c0-0.3,0.1-0.6,0.3-0.8c0.5-0.6,1.3-1,2.4-1c0.7,0,1.3,0.1,1.8,0.4c0.6,0.3,0.9,0.7,1.1,1.2
			c0,0,0,0.1,0,0.1c0,0.1,0,0.2-0.1,0.3c-0.1,0.1-0.2,0.2-0.2,0.3c0.1,0,0.2,0.1,0.3,0.1s0.2,0.1,0.2,0.2c0,0.1,0,0.3-0.1,0.7
			c-0.1,0.3-0.2,0.5-0.3,0.5C290.6,180.4,290.5,180.5,290.4,180.4z M288.2,178.8c0.4,0,0.8,0.1,1,0.1c0.5,0,0.8-0.1,0.8-0.2
			c0-0.1-0.2-0.3-0.6-0.5c-0.5-0.2-0.9-0.3-1.3-0.3c-0.7,0-1.3,0.1-1.7,0.2C287,178.5,287.6,178.8,288.2,178.8z"/>
	</g>
</g>
</svg>
