<?xml version="1.0" encoding="utf-8"?>
<!-- Generator: Adobe Illustrator 17.1.0, SVG Export Plug-In . SVG Version: 6.00 Build 0)  -->
<!DOCTYPE svg PUBLIC "-//W3C//DTD SVG 1.1//EN" "http://www.w3.org/Graphics/SVG/1.1/DTD/svg11.dtd">
<svg version="1.1" id="Icon" xmlns="http://www.w3.org/2000/svg" xmlns:xlink="http://www.w3.org/1999/xlink" x="0px" y="0px"
	 viewBox="0 0 90 90" enable-background="new 0 0 90 90" xml:space="preserve">
<g>
	<path fill="#FFFFFF" d="M12.9,68.9h2.9v-66C7.9,4.6,2,11.6,2,20v50.5c0,1.1,0.1,2.3,0.3,3.4c0.1-0.1,0.1-0.2,0.2-0.4
		C4.3,70.7,7.8,69.2,12.9,68.9L12.9,68.9z"/>
	<path fill="#FFFFFF" d="M45.8,27.1c0.5,0.3,1.1,0.4,1.7,0.4c0.6,0,1.2-0.1,1.7-0.4c0.5-0.3,0.9-0.7,1.2-1.2
		c0.3-0.5,0.6-1.1,0.7-1.8c0.2-0.7,0.2-1.4,0.2-2.3c0-0.9-0.1-1.7-0.3-2.4c-0.2-0.7-0.4-1.3-0.7-1.8c-0.3-0.5-0.7-0.9-1.2-1.2
		c-0.5-0.3-1.1-0.4-1.7-0.4c-0.7,0-1.3,0.2-1.8,0.5c-0.5,0.3-0.9,0.8-1.2,1.3c-0.3,0.5-0.5,1.1-0.7,1.8c-0.1,0.7-0.2,1.4-0.2,2.2
		c0,0.8,0.1,1.6,0.2,2.3c0.2,0.7,0.4,1.3,0.7,1.8C44.9,26.4,45.3,26.8,45.8,27.1z"/>
	<path fill="#FFFFFF" d="M50.1,39.8c0.3-0.1,0.6-0.3,0.8-0.6c0.2-0.3,0.4-0.5,0.5-0.8c0.1-0.3,0.1-0.7,0.1-1.1
		c0-0.7-0.2-1.2-0.6-1.6c-0.4-0.4-1-0.6-1.8-0.6c-0.2,0-0.4,0-0.7,0c-0.3,0-0.5,0-0.7,0V40h1.1C49.4,40,49.8,39.9,50.1,39.8z"/>
	<path fill="#FFFFFF" d="M49.3,40.7c-0.4,0-0.7,0-1,0c-0.3,0-0.5,0-0.6,0v4.4c0,0.4,0.2,0.7,0.5,0.8c0.3,0.2,0.7,0.3,1.3,0.3
		c0.9,0,1.6-0.3,2-0.8c0.5-0.5,0.7-1.3,0.7-2.3c0-0.7-0.2-1.4-0.7-1.8C50.9,40.9,50.2,40.7,49.3,40.7z"/>
	<path fill="#FFFFFF" d="M70.1,2.4H19.6c-0.6,0-1.3,0-1.9,0.1v66.3l58.5,0c0.1,0,3.2,0.1,6.3-2.8c1.9-1.8,4-5,5.2-10.6V20
		C87.7,10.3,79.7,2.4,70.1,2.4z M26.9,27.4c0.1,0,0.3,0,0.6-0.1c0.3,0,0.5-0.1,0.6-0.1c0.2-0.1,0.3-0.2,0.4-0.3
		c0.1-0.1,0.1-0.3,0.1-0.6v-9.1c0-0.2,0-0.4-0.1-0.5c-0.1-0.2-0.2-0.3-0.4-0.4c-0.2-0.1-0.4-0.1-0.6-0.2c-0.2-0.1-0.4-0.1-0.6-0.1
		v-0.6h5.2v0.6c-0.2,0-0.4,0-0.6,0.1c-0.2,0-0.4,0.1-0.5,0.1c-0.2,0.1-0.3,0.2-0.4,0.4c-0.1,0.2-0.1,0.3-0.1,0.5v3.9h5.9v-3.8
		c0-0.2,0-0.4-0.1-0.5c-0.1-0.2-0.2-0.3-0.4-0.4c-0.2-0.1-0.4-0.1-0.6-0.2c-0.2-0.1-0.4-0.1-0.6-0.1v-0.6h5.2v0.6
		c-0.2,0-0.4,0-0.6,0.1c-0.2,0-0.4,0.1-0.5,0.1c-0.2,0.1-0.3,0.2-0.4,0.4c-0.1,0.2-0.1,0.3-0.1,0.5v9.1c0,0.2,0,0.4,0.1,0.5
		c0.1,0.1,0.2,0.3,0.4,0.4c0.1,0.1,0.3,0.1,0.5,0.2c0.3,0.1,0.5,0.1,0.6,0.1V28h-5.2v-0.6c0.1,0,0.3,0,0.6-0.1
		c0.3,0,0.5-0.1,0.6-0.1c0.2-0.1,0.3-0.2,0.4-0.3c0.1-0.1,0.1-0.3,0.1-0.6v-4.5h-5.9v4.4c0,0.2,0,0.4,0.1,0.5
		c0.1,0.1,0.2,0.3,0.4,0.4c0.1,0.1,0.3,0.1,0.5,0.2c0.3,0.1,0.5,0.1,0.6,0.1V28h-5.2V27.4z M35.1,45.1c-0.3,0.4-0.6,0.8-1,1.1
		c-0.4,0.3-0.8,0.5-1.3,0.6c-0.5,0.1-1,0.2-1.5,0.2h-5.9v-0.6c0.1,0,0.3,0,0.6-0.1c0.3,0,0.5-0.1,0.6-0.1c0.2-0.1,0.3-0.2,0.4-0.3
		c0.1-0.1,0.1-0.3,0.1-0.5v-9c0-0.2,0-0.4-0.1-0.5c-0.1-0.2-0.2-0.3-0.4-0.4c-0.2-0.1-0.4-0.2-0.6-0.2c-0.2,0-0.4-0.1-0.5-0.1v-0.6
		h5.8c0.4,0,0.9,0,1.3,0.1c0.4,0.1,0.8,0.2,1.2,0.5c0.3,0.2,0.6,0.5,0.9,0.8c0.2,0.4,0.3,0.8,0.3,1.3c0,0.4-0.1,0.8-0.2,1.2
		c-0.2,0.3-0.4,0.6-0.7,0.9c-0.3,0.2-0.6,0.4-0.9,0.6c-0.4,0.2-0.7,0.3-1.1,0.4v0.1c0.4,0,0.8,0.1,1.2,0.3c0.4,0.1,0.8,0.3,1.2,0.6
		c0.4,0.2,0.7,0.6,0.9,1c0.2,0.4,0.4,0.9,0.4,1.5C35.4,44.1,35.3,44.6,35.1,45.1z M42.6,35c-0.2,0-0.4,0-0.7,0.1
		c-0.3,0-0.5,0.1-0.7,0.1c-0.2,0.1-0.4,0.2-0.5,0.3c-0.1,0.2-0.1,0.3-0.1,0.5v9.1c0,0.2,0,0.4,0.1,0.5c0.1,0.2,0.2,0.3,0.4,0.4
		c0.1,0,0.3,0.1,0.6,0.2c0.3,0.1,0.5,0.1,0.7,0.1V47H37v-0.6c0.2,0,0.4,0,0.7-0.1c0.3,0,0.5-0.1,0.6-0.1c0.2-0.1,0.3-0.2,0.4-0.3
		c0.1-0.1,0.1-0.3,0.1-0.6v-9.1c0-0.2,0-0.4-0.1-0.5c-0.1-0.1-0.2-0.3-0.5-0.4c-0.2-0.1-0.4-0.1-0.7-0.2C37.3,35.1,37.1,35,37,35
		v-0.6h5.7V35z M41.9,24.4c-0.3-0.8-0.5-1.7-0.5-2.6c0-1,0.2-1.9,0.5-2.7c0.3-0.8,0.8-1.5,1.3-2.1c0.6-0.6,1.2-1,1.9-1.3
		c0.7-0.3,1.5-0.5,2.3-0.5c0.8,0,1.6,0.2,2.4,0.5s1.4,0.8,1.9,1.3c0.6,0.6,1,1.3,1.3,2.1c0.3,0.8,0.5,1.7,0.5,2.7
		c0,1-0.2,1.9-0.5,2.7c-0.3,0.8-0.8,1.5-1.3,2.1c-0.5,0.6-1.2,1-1.9,1.3c-0.7,0.3-1.5,0.5-2.3,0.5c-0.9,0-1.7-0.2-2.4-0.5
		c-0.7-0.3-1.4-0.8-1.9-1.4C42.7,25.9,42.2,25.2,41.9,24.4z M54,45.1c-0.3,0.4-0.6,0.8-1,1.1c-0.4,0.3-0.8,0.5-1.3,0.6
		c-0.5,0.1-1,0.2-1.5,0.2h-5.9v-0.6c0.1,0,0.3,0,0.6-0.1c0.3,0,0.5-0.1,0.6-0.1c0.2-0.1,0.3-0.2,0.4-0.3c0.1-0.1,0.1-0.3,0.1-0.5v-9
		c0-0.2,0-0.4-0.1-0.5c-0.1-0.2-0.2-0.3-0.4-0.4c-0.2-0.1-0.4-0.2-0.6-0.2c-0.2,0-0.4-0.1-0.5-0.1v-0.6H50c0.4,0,0.9,0,1.3,0.1
		c0.4,0.1,0.8,0.2,1.2,0.5c0.3,0.2,0.6,0.5,0.9,0.8c0.2,0.4,0.3,0.8,0.3,1.3c0,0.4-0.1,0.8-0.2,1.2c-0.2,0.3-0.4,0.6-0.7,0.9
		c-0.3,0.2-0.6,0.4-0.9,0.6c-0.4,0.2-0.7,0.3-1.1,0.4v0.1c0.4,0,0.8,0.1,1.2,0.3c0.4,0.1,0.8,0.3,1.2,0.6c0.4,0.2,0.7,0.6,0.9,1
		c0.2,0.4,0.4,0.9,0.4,1.5C54.4,44.1,54.2,44.6,54,45.1z M55.1,27.4c0.1,0,0.3,0,0.6-0.1c0.3,0,0.5-0.1,0.6-0.1
		c0.2-0.1,0.3-0.2,0.4-0.3c0.1-0.1,0.1-0.3,0.1-0.6v-9c0-0.2,0-0.4-0.1-0.5c-0.1-0.2-0.2-0.3-0.4-0.4c-0.1-0.1-0.3-0.1-0.6-0.2
		c-0.2-0.1-0.4-0.1-0.6-0.1v-0.6h5.3v0.6c-0.2,0-0.4,0-0.6,0.1c-0.3,0.1-0.5,0.1-0.6,0.1c-0.2,0.1-0.3,0.2-0.4,0.4
		c-0.1,0.2-0.1,0.4-0.1,0.5v8.4c0,0.4,0,0.7,0.1,0.9c0,0.2,0.1,0.4,0.3,0.5c0.1,0.1,0.3,0.2,0.6,0.2c0.3,0,0.6,0,1.1,0
		c0.2,0,0.4,0,0.7,0c0.2,0,0.5,0,0.7-0.1c0.2,0,0.4-0.1,0.6-0.1c0.2-0.1,0.3-0.1,0.4-0.2c0.2-0.3,0.5-0.7,0.8-1.2
		c0.3-0.6,0.5-1,0.7-1.3h0.6L64.9,28h-9.8V27.4z M65.8,47H56v-0.6c0.1,0,0.3,0,0.6-0.1c0.3,0,0.5-0.1,0.6-0.1
		c0.2-0.1,0.3-0.2,0.4-0.3c0.1-0.1,0.1-0.3,0.1-0.6v-9c0-0.2,0-0.4-0.1-0.5s-0.2-0.3-0.4-0.4c-0.1-0.1-0.3-0.1-0.6-0.2
		C56.4,35.1,56.2,35,56,35v-0.6h5.3V35c-0.2,0-0.4,0-0.6,0.1c-0.3,0.1-0.5,0.1-0.6,0.1c-0.2,0.1-0.3,0.2-0.4,0.4
		c-0.1,0.2-0.1,0.4-0.1,0.5v8.4c0,0.4,0,0.7,0.1,0.9c0,0.2,0.1,0.4,0.3,0.5c0.1,0.1,0.3,0.2,0.6,0.2c0.3,0,0.6,0,1.1,0
		c0.2,0,0.4,0,0.7,0c0.2,0,0.5,0,0.7-0.1c0.2,0,0.4-0.1,0.6-0.1c0.2-0.1,0.3-0.1,0.4-0.2c0.2-0.3,0.5-0.7,0.8-1.2
		c0.3-0.6,0.5-1,0.7-1.3h0.6L65.8,47z M65.8,16.4c-0.1-0.1-0.3-0.2-0.5-0.2c-0.2,0-0.4-0.1-0.5-0.1v-0.6h5.4v0.6
		c-0.6,0-1,0.1-1.3,0.1c-0.2,0.1-0.4,0.2-0.4,0.3c0,0,0,0.1,0.1,0.2c0,0.1,0.1,0.2,0.1,0.3c0.1,0.2,0.2,0.3,0.3,0.5
		c0.1,0.2,0.2,0.4,0.3,0.6c0.3,0.5,0.6,1,0.8,1.6c0.3,0.5,0.7,1.2,1.1,2c0.9-1.5,1.6-2.7,2.1-3.5c0.5-0.8,0.7-1.3,0.7-1.5
		c0-0.1-0.1-0.2-0.2-0.3c-0.1-0.1-0.2-0.1-0.4-0.2c-0.2,0-0.4-0.1-0.6-0.1c-0.2,0-0.4,0-0.6,0v-0.6h4.4v0.6c-0.1,0-0.3,0-0.5,0.1
		c-0.2,0.1-0.4,0.1-0.5,0.2c-0.2,0.1-0.4,0.3-0.5,0.3c-0.1,0.1-0.2,0.3-0.5,0.6c-0.5,0.6-0.9,1.3-1.3,2c-0.4,0.7-0.9,1.5-1.5,2.5
		c-0.2,0.4-0.4,0.7-0.4,0.9c-0.1,0.2-0.1,0.6-0.1,1v2.4c0,0.2,0,0.4,0.1,0.6c0.1,0.2,0.2,0.3,0.4,0.4c0.1,0,0.3,0.1,0.7,0.2
		c0.3,0.1,0.6,0.1,0.8,0.1V28h-5.9v-0.6c0.2,0,0.4,0,0.7-0.1c0.3,0,0.6-0.1,0.7-0.1c0.2-0.1,0.4-0.2,0.4-0.4
		c0.1-0.2,0.1-0.3,0.1-0.6v-3.1c0-0.1-0.1-0.3-0.2-0.5c-0.1-0.3-0.3-0.5-0.4-0.8c-0.4-0.7-0.7-1.4-1.2-2.2c-0.4-0.8-0.8-1.5-1.1-2
		c-0.2-0.3-0.4-0.6-0.5-0.8C66.2,16.6,66,16.5,65.8,16.4z M77.3,47H66.9v-0.6c0.2,0,0.4,0,0.7-0.1c0.3,0,0.5-0.1,0.6-0.1
		c0.2-0.1,0.3-0.2,0.4-0.3c0.1-0.1,0.1-0.3,0.1-0.5v-9c0-0.2,0-0.4-0.1-0.5c-0.1-0.2-0.2-0.3-0.4-0.4c-0.2-0.1-0.4-0.1-0.6-0.2
		C67.2,35.1,67,35,66.9,35v-0.6h9.7v3h-0.7c-0.1-0.4-0.4-0.9-0.8-1.4c-0.4-0.5-0.8-0.8-1.1-0.8c-0.2,0-0.4,0-0.7-0.1
		c-0.3,0-0.5,0-0.9,0h-2v5h1.4c0.5,0,0.8,0,1-0.1c0.2-0.1,0.4-0.2,0.6-0.4c0.1-0.2,0.2-0.4,0.3-0.7c0.1-0.3,0.2-0.6,0.2-0.8h0.7V43
		H74c0-0.3-0.1-0.6-0.2-0.9c-0.1-0.3-0.2-0.5-0.3-0.7c-0.2-0.2-0.4-0.4-0.6-0.5c-0.2-0.1-0.5-0.1-0.9-0.1h-1.4v3.8
		c0,0.4,0,0.7,0.1,0.9c0.1,0.2,0.2,0.4,0.3,0.5c0.2,0.1,0.4,0.2,0.6,0.2c0.3,0,0.6,0,1.1,0c0.2,0,0.5,0,0.8,0c0.3,0,0.6,0,0.8,0
		c0.2,0,0.5-0.1,0.7-0.1c0.2-0.1,0.4-0.1,0.5-0.3c0.3-0.3,0.6-0.7,0.9-1.3c0.3-0.6,0.5-1,0.6-1.3h0.6L77.3,47z"/>
	<path fill="#FFFFFF" d="M31.2,39.8c0.3-0.1,0.6-0.3,0.8-0.6c0.2-0.3,0.4-0.5,0.5-0.8c0.1-0.3,0.1-0.7,0.1-1.1
		c0-0.7-0.2-1.2-0.6-1.6c-0.4-0.4-1-0.6-1.8-0.6c-0.2,0-0.4,0-0.7,0c-0.3,0-0.5,0-0.7,0V40H30C30.4,40,30.9,39.9,31.2,39.8z"/>
	<path fill="#FFFFFF" d="M83.2,67.7c0.3-0.2,0.6-0.4,0.8-0.6c-2.8,3.9-8,5.8-13.9,5.8H29.3v-0.4h-10v0.4H6.5c0.4-0.4,0.8-0.8,1.3-1
		h62.2c3.7,0,7.1-0.8,9.8-2.3c-2,0.8-3.6,0.7-3.9,0.7l-63,0.1c-4.1,0.3-6.8,1.3-8.1,3.2C4.1,74.9,4,76.3,4,77.3
		c3,5.6,8.8,9.4,15.5,9.4h50.5c9.7,0,17.6-7.9,17.6-17.6v-6.8c-1,1.8-2.1,3.3-3.4,4.5C83.9,67.1,83.5,67.4,83.2,67.7z M6,75.5
		c-0.1-0.2-0.2-0.4-0.3-0.6c0-0.1,0-0.3,0.1-0.4h13.6v1H6z M6.9,77.2h12.4v1H7.7C7.4,77.9,7.1,77.6,6.9,77.2z M86.3,67.7
		C86.3,76.6,79,81,70.1,81H29.3h-10h-7.7c-0.7-0.3-1.4-0.6-2-1h9.7v1l5-2.8l3.1,1.7h0l1.9,1v-1h40.8c8.9,0,16.2-4.3,16.2-13.2V67.7z
		 M86.3,64.7V65c0,8.9-7.3,13.2-16.2,13.2H29.3v-1h40.8C78.7,77.2,85.8,73.1,86.3,64.7C86.2,64.7,86.3,64.7,86.3,64.7z M86,65
		c-1.3,7.1-8,10.5-15.9,10.5H29.3v-1h40.8c7.4,0,13.6-3,15.5-9C85.8,65.3,85.9,65.2,86,65z"/>
	<path fill="#FFFFFF" d="M30.4,40.7c-0.4,0-0.7,0-1,0c-0.3,0-0.5,0-0.6,0v4.4c0,0.4,0.2,0.7,0.5,0.8c0.3,0.2,0.7,0.3,1.3,0.3
		c0.9,0,1.6-0.3,2-0.8c0.5-0.5,0.7-1.3,0.7-2.3c0-0.7-0.2-1.4-0.7-1.8C32,40.9,31.3,40.7,30.4,40.7z"/>
</g>
</svg>
