<?xml version="1.0" encoding="utf-8"?>
<!-- Generator: Adobe Illustrator 17.1.0, SVG Export Plug-In . SVG Version: 6.00 Build 0)  -->
<!DOCTYPE svg PUBLIC "-//W3C//DTD SVG 1.1//EN" "http://www.w3.org/Graphics/SVG/1.1/DTD/svg11.dtd">
<svg version="1.1" id="Icon" xmlns="http://www.w3.org/2000/svg" xmlns:xlink="http://www.w3.org/1999/xlink" x="0px" y="0px"
	 viewBox="0 0 90 90" enable-background="new 0 0 90 90" xml:space="preserve">
<path fill="#FFFFFF" d="M47,26.4V13h3.5c1.4,0,2.5-1.1,2.5-2.5S51.9,8,50.5,8H47V5c0-1.4-1.1-2.5-2.5-2.5S42,3.6,42,5v3h-2.5
	C38.1,8,37,9.1,37,10.5s1.1,2.5,2.5,2.5H42v13.4L17,50v38h21V71c0,0,0.2-6.9,6.9-6.9S52,71,52,71v17h21V50L47,26.4z M45,53.8
	c-4.1,0-7.3-3.3-7.3-7.3c0-4.1,3.3-7.3,7.3-7.3s7.3,3.3,7.3,7.3S49.1,53.8,45,53.8z"/>
</svg>
