<?xml version="1.0" encoding="utf-8"?>
<!-- Generator: Adobe Illustrator 17.1.0, SVG Export Plug-In . SVG Version: 6.00 Build 0)  -->
<!DOCTYPE svg PUBLIC "-//W3C//DTD SVG 1.1//EN" "http://www.w3.org/Graphics/SVG/1.1/DTD/svg11.dtd">
<svg version="1.1" id="Icon" xmlns="http://www.w3.org/2000/svg" xmlns:xlink="http://www.w3.org/1999/xlink" x="0px" y="0px"
	 viewBox="0 0 90 90" enable-background="new 0 0 90 90" xml:space="preserve">
<path fill="#FFFFFF" d="M50.7,0.3c-10.4,15.9-30.3,41.3-30.3,58C20.5,75,34,88.6,50.7,88.6S81,75,81,58.3
	C81,41.6,62.4,16.3,50.7,0.3z M51,81.7c-2,0-3.9-0.3-5.7-0.8c0.6,0,1.2,0.1,1.8,0.1c14.6,0,26.3-11.8,26.3-26.3
	c0-0.6-0.1-1.2-0.1-1.8c0.5,1.8,0.8,3.8,0.8,5.7C74,71.3,63.7,81.7,51,81.7z"/>
<g>
	<path fill="#FFFFFF" d="M21.5,69.5c-1.6,0.8-3.3,1.2-5.2,1.2c-1,0-2-0.1-2.9-0.4c0.3,0,0.6,0,0.9,0c2.5,0,4.8-0.7,6.8-1.9
		c-1.1-3.2-1.7-6.6-1.7-10.2c0-5.2,1.8-11.1,4.6-17.3c-2.6-4.1-5.5-8.1-7.8-11.3C11,37.8,1,50.6,1,59c0,8.4,6.8,15.2,15.2,15.2
		c2.4,0,4.7-0.6,6.7-1.6C22.4,71.7,22,70.6,21.5,69.5z"/>
</g>
<path fill="#FFFFFF" d="M75,1.5C72.1,6,67.6,12.1,64.4,17.9c4.5,6.8,8.8,13.9,12.1,20.7c5.2-1.4,9-6.2,9-11.8c0-0.3,0-0.6,0-0.8
	c0.2,0.9,0.4,1.7,0.4,2.7c0,5.4-4,9.7-8.9,10.9c0.5,1,0.8,1.7,1.2,2.7c6.3-1.4,11-7,11-13.7C89.1,20.8,80.5,9,75,1.5z"/>
</svg>
