<?xml version="1.0" encoding="utf-8"?>
<!-- Generator: Adobe Illustrator 17.1.0, SVG Export Plug-In . SVG Version: 6.00 Build 0)  -->
<!DOCTYPE svg PUBLIC "-//W3C//DTD SVG 1.1//EN" "http://www.w3.org/Graphics/SVG/1.1/DTD/svg11.dtd">
<svg version="1.1" id="Icon" xmlns="http://www.w3.org/2000/svg" xmlns:xlink="http://www.w3.org/1999/xlink" x="0px" y="0px"
	 viewBox="0 0 90 90" enable-background="new 0 0 90 90" xml:space="preserve">
<path fill="#FFFFFF" d="M41.9,43.5c-0.5,0.3-1,0.4-1.7,0.6l-19.6,2.7L29,34.2c1.9-3.1,6.6-6.1,14.1-7.7l-7.5,11.1
	c-0.1,0.3-0.4,0.6-0.6,1L32.7,42c-0.5,0.6-0.3,1,0.4,1c2-0.3,2.6-0.3,3.5-1.3c0.3-0.3,1.5-1.7,2-2.4l6.8-1c1.8-0.4,3.3-0.5,3.3-0.5
	S47.2,41,41.9,43.5z M59.5,40.6c-3.3,1.2-12.3,2-12.3,2c4.2-4.6,6.6-5.1,7.5-5.5c3.7-1.7,12.3-2.6,12.3-2.6
	C67,34.7,65.1,38.8,59.5,40.6z M58.6,28.7c-3.2,0.6-4.9,0.9-6.5,4.5c-0.1,0.4-0.8,1.7-2.2,1.8l-0.6,0.1L41,36.2
	c1.4-2,3.1-4.6,3.5-5.1c1.8-2.8,4.2-5.8,14.6-7.8c0,0,5.6-1,9.5-1.5C68.5,22,65.3,27.3,58.6,28.7z"/>
<path fill="#FFFFFF" d="M81,13v46H8V13H81 M87,7h-5.3H8.8H2v5.3v45.5V65h6.8h72.9H87v-7.2V12.3V7L87,7z"/>
<polygon fill="#FFFFFF" points="58,78 58,66 34,66 34,78 20,78 20,81 70,81 70,78 "/>
</svg>
