<?xml version="1.0" encoding="utf-8"?>
<!-- Generator: Adobe Illustrator 17.1.0, SVG Export Plug-In . SVG Version: 6.00 Build 0)  -->
<!DOCTYPE svg PUBLIC "-//W3C//DTD SVG 1.1//EN" "http://www.w3.org/Graphics/SVG/1.1/DTD/svg11.dtd">
<svg version="1.1" id="Layer_1" xmlns="http://www.w3.org/2000/svg" xmlns:xlink="http://www.w3.org/1999/xlink" x="0px" y="0px"
	 viewBox="0 0 66.5 31.5" enable-background="new 0 0 66.5 31.5" xml:space="preserve">
<g>
	<path d="M0.5,9c0.6,0.3,1.4,0.6,2.3,0.6c1.1,0,1.8-0.5,1.8-1.3c0-0.7-0.5-1.2-1.7-1.6C1.3,6.1,0.2,5.2,0.2,3.8
		c0-1.6,1.3-2.8,3.4-2.8c1,0,1.8,0.2,2.3,0.5L5.6,3c-0.3-0.2-1-0.5-1.9-0.5C2.5,2.5,2,3.1,2,3.7c0,0.7,0.6,1.1,1.9,1.6
		c1.7,0.6,2.5,1.5,2.5,2.9c0,1.6-1.2,2.9-3.7,2.9c-1,0-2.1-0.3-2.6-0.6L0.5,9z"/>
	<path d="M12.6,10.7c-0.4,0.2-1.1,0.4-2,0.4C8.4,11,7,9.7,7,7.5c0-2.1,1.4-3.7,3.9-3.7c0.6,0,1.3,0.1,1.7,0.3l-0.3,1.3
		c-0.3-0.1-0.7-0.3-1.3-0.3c-1.4,0-2.2,1-2.1,2.3c0,1.4,0.9,2.3,2.1,2.3c0.6,0,1-0.1,1.4-0.3L12.6,10.7z"/>
	<path d="M13.3,6.2c0-0.9,0-1.6-0.1-2.3h1.5l0.1,1.3h0.1c0.3-1,1.2-1.5,1.9-1.5c0.2,0,0.3,0,0.4,0v1.7c-0.1,0-0.3-0.1-0.5-0.1
		c-0.8,0-1.4,0.5-1.6,1.3c0,0.2-0.1,0.3-0.1,0.5v3.6h-1.8V6.2z"/>
	<path d="M24.4,7.3c0,2.6-1.8,3.7-3.6,3.7c-2,0-3.5-1.4-3.5-3.6c0-2.3,1.5-3.7,3.6-3.7C23,3.7,24.4,5.2,24.4,7.3z M19.1,7.4
		c0,1.4,0.7,2.4,1.7,2.4c1,0,1.7-1,1.7-2.4c0-1.1-0.5-2.3-1.7-2.3C19.6,5,19.1,6.2,19.1,7.4z"/>
	<path d="M25.3,0.7h1.8v10.2h-1.8V0.7z"/>
	<path d="M28.4,0.7h1.8v10.2h-1.8V0.7z"/>
	<path d="M40.4,0.7v8.2c0,0.7,0,1.5,0.1,2h-1.6l-0.1-1.1h0c-0.4,0.8-1.3,1.3-2.3,1.3c-1.7,0-3-1.4-3-3.6c0-2.3,1.5-3.7,3.1-3.7
		c1,0,1.7,0.4,2,0.9h0v-4H40.4z M38.7,6.8c0-0.1,0-0.3,0-0.5c-0.2-0.7-0.7-1.3-1.5-1.3c-1.1,0-1.8,1-1.8,2.3c0,1.3,0.6,2.2,1.8,2.2
		c0.7,0,1.4-0.5,1.5-1.3c0-0.2,0.1-0.3,0.1-0.5V6.8z"/>
	<path d="M48.4,7.3c0,2.6-1.8,3.7-3.6,3.7c-2,0-3.5-1.4-3.5-3.6c0-2.3,1.5-3.7,3.6-3.7C47,3.7,48.4,5.2,48.4,7.3z M43.1,7.4
		c0,1.4,0.7,2.4,1.7,2.4c1,0,1.7-1,1.7-2.4c0-1.1-0.5-2.3-1.7-2.3C43.6,5,43.1,6.2,43.1,7.4z"/>
	<path d="M50.3,3.9L51,7.1c0.2,0.7,0.3,1.5,0.4,2.3h0c0.1-0.8,0.4-1.5,0.6-2.3l0.9-3.2h1.4L55.3,7c0.2,0.8,0.4,1.6,0.6,2.3h0
		C56,8.6,56.1,7.8,56.3,7l0.8-3.1h1.7l-2.2,7H55l-0.8-2.8c-0.2-0.7-0.4-1.4-0.5-2.2h0c-0.1,0.9-0.3,1.6-0.5,2.2l-0.9,2.8h-1.7
		l-2.1-7H50.3z"/>
	<path d="M59.4,6c0-0.8,0-1.5-0.1-2.1h1.6L61,5h0c0.3-0.5,1.1-1.2,2.2-1.2c1.2,0,2.5,0.8,2.5,3v4.2H64v-4c0-1-0.4-1.8-1.3-1.8
		c-0.7,0-1.2,0.5-1.4,1c-0.1,0.2-0.1,0.4-0.1,0.6v4.1h-1.8V6z"/>
</g>
<path d="M33.1,30.8C33.1,30.8,33.1,30.8,33.1,30.8c-0.4,0-0.8-0.1-1.1-0.4l-6.3-6.6l2.2-2l5.3,5.6l5.7-5.6l2.1,2.1l-6.8,6.6
	C33.9,30.7,33.5,30.8,33.1,30.8z"/>
</svg>
