<?xml version="1.0" encoding="utf-8"?>
<!-- Generator: Adobe Illustrator 17.1.0, SVG Export Plug-In . SVG Version: 6.00 Build 0)  -->
<!DOCTYPE svg PUBLIC "-//W3C//DTD SVG 1.1//EN" "http://www.w3.org/Graphics/SVG/1.1/DTD/svg11.dtd">
<svg version="1.1" id="Icon" xmlns="http://www.w3.org/2000/svg" xmlns:xlink="http://www.w3.org/1999/xlink" x="0px" y="0px"
	 viewBox="0 0 90 90" enable-background="new 0 0 90 90" xml:space="preserve">
<g>
	<path fill="#FFFFFF" d="M24.9,58.6c-0.1-0.5-0.5-1.1-0.8-1.3c-0.4-0.3-0.8-0.4-1.5-0.4c-0.5,0-1.1,0.1-1.5,0.4
		c-0.4,0.3-0.7,0.7-0.8,1.3c-0.1,0.5-0.3,1.3-0.4,2.3c0,0.9-0.1,2-0.1,3.4c0.1,1.3,0.1,2.4,0.1,3.4s0.1,1.7,0.4,2.3
		c0.3,0.5,0.5,0.9,0.8,1.2c0.4,0.3,0.8,0.4,1.5,0.4c0.5,0,1.1-0.1,1.5-0.4c0.4-0.3,0.7-0.7,0.8-1.2c0.1-0.5,0.3-1.3,0.4-2.3
		c0-0.9,0.1-2,0.1-3.4c0-1.3,0-2.4-0.1-3.4C25.3,59.9,25.1,59.1,24.9,58.6z"/>
	<path fill="#FFFFFF" d="M38.3,58H36v5h2.5c0.8,0,1.5-0.1,1.9-0.5c0.5-0.5,0.7-1.1,0.7-2.2c0-0.9-0.3-1.3-0.7-1.9
		C40,57.9,39.3,58,38.3,58z"/>
	<path fill="#FFFFFF" d="M86,17.4C86,10,80,4,72.6,4H18.4C11,4,5,10,5,17.4v54.2C5,79,11,85,18.4,85h54.2C80,85,86,79,86,71.6V17.4z
		 M29.1,68.4c-0.1,1.2-0.4,2.3-0.9,3.2c-0.5,0.9-1.2,1.6-2,2c-0.9,0.5-2,0.7-3.6,0.7c-1.6,0-2.7-0.3-3.6-0.7c-0.9-0.4-1.6-1.2-2-2
		c-0.5-0.9-0.8-2-0.9-3.2c-0.1-1.2-0.3-2.7-0.3-4.2c0.1-1.5,0.1-3,0.3-4.2c0.1-1.2,0.4-2.4,0.9-3.2c0.5-0.9,1.2-1.6,2-2.1
		c0.9-0.5,2-0.8,3.6-0.8c1.6,0,2.7,0.3,3.6,0.8c0.9,0.5,1.6,1.2,2,2.1c0.5,0.9,0.8,2,0.9,3.2c0.1,1.2,0.3,2.7,0.3,4.2
		C29.4,65.7,29.3,67.2,29.1,68.4z M44.7,62.9c-0.3,0.8-0.7,1.3-1.2,1.9c-0.5,0.5-1.2,0.7-2,0.9C40.7,66,39.9,66,38.9,66H37v8h-4V54
		h6.7c1.1,0,1.9,0.3,2.5,0.7s1.2,0.9,1.6,1.4c0.4,0.5,0.7,1.2,0.9,1.9c0.1,0.7,0.3,1.5,0.3,2.2C45.1,61.3,45,62.1,44.7,62.9z M59,74
		H47V54h11v4h-7v4h7v3h-7v6h8V74z M75,74h-4.9L65,60.2V74h-4V54h5.2L71,67.9V54h4V74z"/>
</g>
</svg>
