<?xml version="1.0" encoding="utf-8"?>
<!-- Generator: Adobe Illustrator 17.1.0, SVG Export Plug-In . SVG Version: 6.00 Build 0)  -->
<!DOCTYPE svg PUBLIC "-//W3C//DTD SVG 1.1//EN" "http://www.w3.org/Graphics/SVG/1.1/DTD/svg11.dtd">
<svg version="1.1" id="Icon" xmlns="http://www.w3.org/2000/svg" xmlns:xlink="http://www.w3.org/1999/xlink" x="0px" y="0px"
	 viewBox="0 0 90 90" enable-background="new 0 0 90 90" xml:space="preserve">
<path fill="#FFFFFF" d="M61.6,24.4c1.4-1.7,2.3-3.8,2.3-6.2c0-5.3-4.3-9.6-9.6-9.6c-4.5,0-8.3,3.1-9.3,7.3c-1-4.2-4.8-7.3-9.3-7.3
	c-5.3,0-9.6,4.3-9.6,9.6c0,2.4,0.9,4.5,2.3,6.2c0,0,0,0,0,0l0,0c0.5,0.6,0.8,0.9,1.7,1.7L45,39.8l14.6-13.4
	C60.3,25.8,61.1,24.9,61.6,24.4L61.6,24.4L61.6,24.4z"/>
<path fill="#FFFFFF" d="M1.7,67.2c0,0,14.7-16.6,21.8-18.4c7.1-1.8,22.9-0.2,28.6,2.4c0,0,0.7,3.8-0.7,4.7L37,59
	c0,0,11.8,0.5,16.9-1.4c0,0,1.5-3.2,1-6.4c0,0,22-16.8,26-16.8c3,0,4.8,0.8,5.8,1.6c0.3,0.3,0.6,0.5,0.8,0.7
	c0.7,0.9-23.5,29.7-33.5,36.4c0,0-22.6-0.4-30.6-1.5L12,76.6L1.7,67.2z"/>
</svg>
