<?xml version="1.0" encoding="utf-8"?>
<!-- Generator: Adobe Illustrator 17.1.0, SVG Export Plug-In . SVG Version: 6.00 Build 0)  -->
<!DOCTYPE svg PUBLIC "-//W3C//DTD SVG 1.1//EN" "http://www.w3.org/Graphics/SVG/1.1/DTD/svg11.dtd">
<svg version="1.1" id="icon" xmlns="http://www.w3.org/2000/svg" xmlns:xlink="http://www.w3.org/1999/xlink" x="0px" y="0px"
	 viewBox="0 0 56 86" enable-background="new 0 0 56 86" xml:space="preserve">
<path fill="#E96658" d="M44,59V44h2.9L36,33.9V22h3.1L29,12V6h4V3h-4V0h-2v3h-4v3h4v6.1L17.8,22H20v11.9L9.5,44H13v15H0v27h22V69.2
	c0-2.6,2-4.2,4.6-4.2h3.1c2.6,0,5.3,1.7,5.3,4.2V86h21V59H44z M27,56h-4v-5h4V56z M27,49h-4v-5h4V49z M33,56h-4v-5h4V56z M33,49h-4
	v-5h4V49z M33,32.3l-5-4l-5,4V22h10V32.3z"/>
</svg>
