<?xml version="1.0" encoding="utf-8"?>
<!-- Generator: Adobe Illustrator 17.1.0, SVG Export Plug-In . SVG Version: 6.00 Build 0)  -->
<!DOCTYPE svg PUBLIC "-//W3C//DTD SVG 1.1//EN" "http://www.w3.org/Graphics/SVG/1.1/DTD/svg11.dtd">
<svg version="1.1" xmlns="http://www.w3.org/2000/svg" xmlns:xlink="http://www.w3.org/1999/xlink" x="0px" y="0px"
	 viewBox="0 0 362 362" enable-background="new 0 0 362 362" xml:space="preserve">
<g id="Border">
	<path fill="#CCCCCC" d="M181,4c47.3,0,91.7,18.4,125.1,51.8C339.6,89.3,358,133.7,358,181s-18.4,91.7-51.8,125.1
		C272.7,339.6,228.3,358,181,358s-91.7-18.4-125.1-51.8C22.4,272.7,4,228.3,4,181S22.4,89.3,55.8,55.8C89.3,22.4,133.7,4,181,4
		 M181,0C81,0,0,81,0,181s81,181,181,181s181-81,181-181S280.9,0,181,0L181,0z"/>
</g>
<g id="Contents">
	<g>
		<path fill="#444444" d="M35.2,219.3c0.9-0.2,2.1-0.4,3.3-0.4c2,0,3.4,0.4,4.2,1.4c0.7,0.7,1,1.5,1,2.7c0,1.7-1.2,3.1-2.8,3.6v0.1
			c1.4,0.3,3.5,1.5,3.5,4.2c0,1.3-0.5,2.3-1.2,3.1c-1.1,1.1-2.8,1.5-5.2,1.5c-1.2,0-2.2-0.1-2.8-0.1V219.3z M36.4,226.2h2.4
			c2.4,0,3.8-1.4,3.8-3.2c0-2.3-1.7-3.1-4.2-3.1c-1.1,0-1.7,0.1-2.1,0.2V226.2z M36.4,234.3c0.5,0.1,1.1,0.1,2,0.1
			c2.5,0,4.8-0.9,4.8-3.7c0-2.6-2.2-3.7-4.8-3.7h-2.1V234.3z"/>
		<path fill="#444444" d="M46.5,229.4c0,3.7,2,5.2,4.4,5.2c1.7,0,2.6-0.3,3.2-0.7l0.3,0.9c-0.4,0.2-1.6,0.7-3.6,0.7
			c-3.3,0-5.4-2.4-5.4-5.8c0-3.9,2.2-6.3,5.2-6.3c3.8,0,4.5,3.6,4.5,5.2c0,0.3,0,0.5,0,0.7H46.5z M53.9,228.5c0-1.6-0.7-4.1-3.5-4.1
			c-2.6,0-3.6,2.3-3.9,4.1H53.9z"/>
		<path fill="#444444" d="M64.9,234.8c-0.5,0.2-1.7,0.7-3.4,0.7c-3.3,0-5.6-2.4-5.6-5.9c0-3.7,2.5-6.2,6-6.2c1.4,0,2.6,0.4,3,0.7
			l-0.4,0.9c-0.6-0.3-1.4-0.7-2.7-0.7c-3.1,0-4.7,2.4-4.7,5.1c0,3,1.9,5,4.6,5c1.4,0,2.3-0.4,2.9-0.7L64.9,234.8z"/>
		<path fill="#444444" d="M73.8,232.5c0,0.9,0,1.9,0.2,2.8h-1.1l-0.2-1.7h0c-0.6,0.9-1.9,1.9-3.7,1.9c-2.3,0-3.4-1.6-3.4-3.2
			c0-2.7,2.3-4.3,7.1-4.2v-0.3c0-1.1-0.2-3.4-3-3.4c-1,0-2.1,0.3-2.9,0.9l-0.4-0.8c1.1-0.7,2.4-1,3.4-1c3.4,0,4,2.5,4,4.6V232.5z
			 M72.7,229.1c-2.5-0.1-5.9,0.3-5.9,3.1c0,1.7,1.1,2.4,2.3,2.4c1.9,0,3-1.2,3.4-2.3c0.1-0.2,0.1-0.5,0.1-0.7V229.1z"/>
		<path fill="#444444" d="M85.4,232.5c0,1,0,1.9,0.1,2.8h-1.1l-0.1-2.1h0c-0.6,1.1-1.9,2.3-4,2.3c-1.5,0-4-0.7-4-5.1v-6.7h1.2v6.5
			c0,2.5,0.8,4.3,3.1,4.3c1.7,0,2.9-1.2,3.4-2.3c0.1-0.4,0.2-0.8,0.2-1.3v-7.2h1.2V232.5z"/>
		<path fill="#444444" d="M87.7,233.8c0.6,0.4,1.6,0.8,2.6,0.8c1.8,0,2.7-1,2.7-2.2c0-1.3-0.8-2-2.4-2.6c-1.9-0.7-2.9-1.8-2.9-3.2
			c0-1.7,1.3-3.1,3.6-3.1c1.1,0,2,0.3,2.6,0.7l-0.4,0.9c-0.4-0.3-1.2-0.7-2.3-0.7c-1.5,0-2.2,0.9-2.2,2c0,1.2,0.8,1.7,2.4,2.4
			c1.9,0.7,3,1.7,3,3.5c0,2-1.5,3.3-3.9,3.3c-1.1,0-2.2-0.3-2.9-0.8L87.7,233.8z"/>
		<path fill="#444444" d="M96.3,229.4c0,3.7,2,5.2,4.4,5.2c1.7,0,2.6-0.3,3.2-0.7l0.3,0.9c-0.4,0.2-1.6,0.7-3.6,0.7
			c-3.3,0-5.4-2.4-5.4-5.8c0-3.9,2.2-6.3,5.2-6.3c3.8,0,4.5,3.6,4.5,5.2c0,0.3,0,0.5,0,0.7H96.3z M103.7,228.5
			c0-1.6-0.7-4.1-3.5-4.1c-2.6,0-3.6,2.3-3.9,4.1H103.7z"/>
		<path fill="#444444" d="M115.3,235.5c-3,0-5.3-2.3-5.3-6c0-4,2.6-6.2,5.5-6.2c3.2,0,5.4,2.4,5.4,6
			C120.8,233.7,117.9,235.5,115.3,235.5L115.3,235.5z M115.4,234.6c2.4,0,4.3-2.2,4.3-5.1c0-2.1-1.2-5-4.2-5c-3,0-4.3,2.6-4.3,5.1
			C111.1,232.4,113,234.6,115.4,234.6L115.4,234.6z"/>
		<path fill="#444444" d="M122.8,235.3v-10.6h-1.7v-0.9h1.7v-0.6c0-1.8,0.3-3.2,1.3-4.2c0.7-0.7,1.7-1,2.6-1c0.7,0,1.4,0.2,1.7,0.4
			l-0.4,0.9c-0.3-0.2-0.8-0.3-1.5-0.3c-2.2,0-2.6,2-2.6,4.2v0.7h3.1v0.9h-3.1v10.6H122.8z"/>
		<path fill="#444444" d="M131.7,223.7l3,7.6c0.3,0.8,0.6,1.8,0.8,2.5h0c0.2-0.7,0.5-1.6,0.9-2.6l2.8-7.5h1.2l-3.5,8.6
			c-1.4,3.6-2.4,5.7-3.9,7.1c-0.9,0.8-1.8,1.1-2,1.2l-0.4-1c0.6-0.2,1.3-0.6,2-1.3c0.6-0.6,1.4-1.5,1.9-2.9c0.1-0.2,0.1-0.4,0.1-0.5
			c0-0.1,0-0.3-0.1-0.5l-4.3-10.7H131.7z"/>
		<path fill="#444444" d="M145.8,235.5c-3,0-5.3-2.3-5.3-6c0-4,2.6-6.2,5.5-6.2c3.2,0,5.4,2.4,5.4,6
			C151.4,233.7,148.4,235.5,145.8,235.5L145.8,235.5z M145.9,234.6c2.4,0,4.3-2.2,4.3-5.1c0-2.1-1.2-5-4.2-5c-3,0-4.3,2.6-4.3,5.1
			C141.7,232.4,143.5,234.6,145.9,234.6L145.9,234.6z"/>
		<path fill="#444444" d="M162.2,232.5c0,1,0,1.9,0.1,2.8h-1.1l-0.1-2.1h0c-0.6,1.1-1.9,2.3-4,2.3c-1.5,0-4-0.7-4-5.1v-6.7h1.2v6.5
			c0,2.5,0.8,4.3,3.1,4.3c1.7,0,2.9-1.2,3.4-2.3c0.1-0.4,0.2-0.8,0.2-1.3v-7.2h1.2V232.5z"/>
		<path fill="#444444" d="M163.4,238.3c0.4-1,1-3.6,1.3-5.1l1.5-0.2c-0.4,1.8-1.5,4.6-1.9,5.2L163.4,238.3z"/>
		<path fill="#444444" d="M171.9,223.7l2,6.6c0.4,1.4,0.7,2.5,1,3.6h0c0.3-1.1,0.7-2.3,1.2-3.6l2.3-6.6h1.1l2.2,6.5
			c0.5,1.4,0.8,2.6,1.1,3.7h0c0.2-1.1,0.6-2.2,1.1-3.6l2.1-6.6h1.2l-3.9,11.6h-1l-2.2-6.5c-0.5-1.4-0.9-2.6-1.2-3.9h0
			c-0.3,1.4-0.8,2.6-1.3,4l-2.3,6.4h-1l-3.6-11.6H171.9z"/>
		<path fill="#444444" d="M188.4,229.4c0,3.7,2,5.2,4.4,5.2c1.7,0,2.6-0.3,3.2-0.7l0.3,0.9c-0.4,0.2-1.6,0.7-3.6,0.7
			c-3.3,0-5.4-2.4-5.4-5.8c0-3.9,2.2-6.3,5.2-6.3c3.8,0,4.5,3.6,4.5,5.2c0,0.3,0,0.5,0,0.7H188.4z M195.8,228.5
			c0-1.6-0.7-4.1-3.5-4.1c-2.6,0-3.6,2.3-3.9,4.1H195.8z"/>
		<path fill="#444444" d="M199.9,239.4c1,0,1.9-0.4,2.4-1c0.6-0.7,0.9-1.6,0.9-4.7v-10h1.2v10.8c0,2.1-0.2,3.5-1.2,4.6
			c-0.8,0.9-2.3,1.2-3,1.3L199.9,239.4z M203.7,221.4c-0.5,0-0.9-0.5-0.9-1c0-0.5,0.4-1,1-1c0.5,0,0.9,0.5,0.9,1
			C204.7,220.9,204.4,221.4,203.7,221.4L203.7,221.4z"/>
		<path fill="#444444" d="M211.5,235.5c-3,0-5.3-2.3-5.3-6c0-4,2.6-6.2,5.5-6.2c3.2,0,5.4,2.4,5.4,6
			C217,233.7,214.1,235.5,211.5,235.5L211.5,235.5z M211.6,234.6c2.4,0,4.3-2.2,4.3-5.1c0-2.1-1.2-5-4.2-5c-3,0-4.3,2.6-4.3,5.1
			C207.3,232.4,209.2,234.6,211.6,234.6L211.6,234.6z"/>
		<path fill="#444444" d="M219.4,221.4c-0.5,0-0.9-0.5-0.9-1c0-0.5,0.4-1,0.9-1c0.5,0,0.9,0.5,0.9,1
			C220.4,220.9,220,221.4,219.4,221.4L219.4,221.4z M218.9,235.3v-11.6h1.2v11.6H218.9z"/>
		<path fill="#444444" d="M222.9,226.5c0-1.1,0-1.9-0.1-2.8h1.1l0.1,2.1h0c0.6-1.3,2.1-2.3,4-2.3c1.1,0,4.1,0.6,4.1,4.9v7h-1.2v-6.9
			c0-2.1-0.8-4-3.2-4c-1.6,0-3,1.2-3.5,2.7c-0.1,0.3-0.1,0.7-0.1,1v7.2h-1.2V226.5z"/>
		<path fill="#444444" d="M234.9,229.4c0,3.7,2,5.2,4.4,5.2c1.7,0,2.6-0.3,3.2-0.7l0.3,0.9c-0.4,0.2-1.6,0.7-3.6,0.7
			c-3.3,0-5.4-2.4-5.4-5.8c0-3.9,2.2-6.3,5.2-6.3c3.8,0,4.5,3.6,4.5,5.2c0,0.3,0,0.5,0,0.7H234.9z M242.3,228.5
			c0-1.6-0.7-4.1-3.5-4.1c-2.6,0-3.6,2.3-3.9,4.1H242.3z"/>
		<path fill="#444444" d="M254.6,218.1v14.5c0,0.8,0,1.9,0.1,2.7h-1l-0.1-2.2h0c-0.6,1.3-2,2.5-4.1,2.5c-2.9,0-5-2.4-5-5.8
			c0-3.9,2.4-6.3,5.2-6.3c2,0,3.3,1,3.8,2.1h0v-7.4H254.6z M253.4,228.3c0-0.3,0-0.7-0.1-1.1c-0.4-1.5-1.8-2.8-3.6-2.8
			c-2.5,0-4.1,2.2-4.1,5.2c0,2.6,1.3,5,4.1,5c1.7,0,3.2-1.1,3.7-3c0.1-0.3,0.1-0.6,0.1-1V228.3z"/>
		<path fill="#B8252E" d="M270.6,222.1h-6l-0.5,3.1c0.4,0,0.7-0.1,1.1-0.1c1.4,0,2.8,0.3,3.8,1c1.2,0.7,2.1,2.1,2.1,4
			c0,3-2.5,5.4-6.3,5.4c-1.8,0-3.3-0.5-4.2-0.9l0.6-2.2c0.7,0.4,2,0.8,3.5,0.8c1.7,0,3.4-1,3.4-2.9c0-1.8-1.3-3-4.5-3
			c-0.9,0-1.5,0-2.1,0.1l1-7.9h8.1V222.1z"/>
		<path fill="#444444" d="M286.9,233.6c0,3-0.6,4.4-1.6,5.4c-1.1,1-2.6,1.4-3.9,1.4c-1.3,0-2.8-0.3-3.7-1l0.4-0.9c0.8,0.5,2,1,3.5,1
			c2.4,0,4.2-1.3,4.2-4.7V233h0c-0.6,1.2-2,2.2-4,2.2c-2.9,0-5-2.5-5-5.7c0-4,2.7-6.2,5.2-6.2c2.3,0,3.4,1.3,3.9,2.2h0l0.1-2h1.1
			c-0.1,0.9-0.1,1.8-0.1,3V233.6z M285.7,228.2c0-0.4,0-0.8-0.1-1.1c-0.5-1.4-1.7-2.6-3.6-2.6c-2.5,0-4.2,2-4.2,5.1
			c0,2.6,1.4,4.9,4.1,4.9c1.5,0,3-1,3.6-2.6c0.1-0.4,0.2-0.8,0.2-1.2V228.2z"/>
		<path fill="#444444" d="M289.7,218.1h1.2v17.2h-1.2V218.1z"/>
		<path fill="#444444" d="M298,235.5c-3,0-5.3-2.3-5.3-6c0-4,2.6-6.2,5.5-6.2c3.2,0,5.4,2.4,5.4,6
			C303.6,233.7,300.6,235.5,298,235.5L298,235.5z M298.1,234.6c2.4,0,4.3-2.2,4.3-5.1c0-2.1-1.2-5-4.2-5c-3,0-4.3,2.6-4.3,5.1
			C293.9,232.4,295.7,234.6,298.1,234.6L298.1,234.6z"/>
		<path fill="#444444" d="M305.4,218.1h1.2v7.7h0c0.8-1.5,2.2-2.4,4.2-2.4c2.9,0,4.9,2.5,4.9,5.9c0,4.1-2.6,6.2-5.2,6.2
			c-1.9,0-3.2-0.8-4.2-2.3h0l-0.1,2.1h-1c0.1-0.8,0.1-1.8,0.1-2.7V218.1z M306.6,230.8c0,0.3,0,0.6,0.1,0.8c0.5,1.8,2,2.9,3.8,2.9
			c2.7,0,4.2-2.2,4.2-5.2c0-2.7-1.4-5-4.1-5c-1.7,0-3.3,1.2-3.9,3.1c-0.1,0.3-0.1,0.6-0.1,1V230.8z"/>
		<path fill="#444444" d="M324.9,232.5c0,0.9,0,1.9,0.2,2.8H324l-0.2-1.7h0c-0.6,0.9-1.9,1.9-3.7,1.9c-2.3,0-3.4-1.6-3.4-3.2
			c0-2.7,2.3-4.3,7.1-4.2v-0.3c0-1.1-0.2-3.4-3-3.4c-1,0-2.1,0.3-2.9,0.9l-0.4-0.8c1.1-0.7,2.4-1,3.4-1c3.4,0,4,2.5,4,4.6V232.5z
			 M323.7,229.1c-2.5-0.1-5.9,0.3-5.9,3.1c0,1.7,1.1,2.4,2.3,2.4c1.9,0,3-1.2,3.4-2.3c0.1-0.2,0.1-0.5,0.1-0.7V229.1z"/>
		<path fill="#444444" d="M327.6,218.1h1.2v17.2h-1.2V218.1z"/>
		<path fill="#444444" d="M73.5,254.5c0-1.1,0-1.9-0.1-2.8h1.1l0.1,2h0c0.7-1.3,1.9-2.3,3.8-2.3c1.6,0,2.8,1.1,3.3,2.5h0
			c0.3-0.7,0.7-1.2,1.2-1.6c0.7-0.6,1.5-0.9,2.8-0.9c1.1,0,3.8,0.6,3.8,5v6.8h-1.2v-6.7c0-2.6-1-4.2-3-4.2c-1.4,0-2.6,1.1-3,2.3
			c-0.1,0.3-0.2,0.7-0.2,1.2v7.4h-1.2V256c0-2.1-1-3.6-2.9-3.6c-1.5,0-2.8,1.3-3.2,2.6c-0.1,0.3-0.2,0.7-0.2,1.1v7.1h-1.2V254.5z"/>
		<path fill="#444444" d="M92.7,249.4c-0.5,0-0.9-0.5-0.9-1c0-0.5,0.4-1,0.9-1s0.9,0.5,0.9,1C93.7,248.9,93.3,249.4,92.7,249.4
			L92.7,249.4z M92.2,263.3v-11.6h1.2v11.6H92.2z"/>
		<path fill="#444444" d="M95.7,261.8c0.6,0.4,1.6,0.8,2.6,0.8c1.8,0,2.7-1,2.7-2.2c0-1.3-0.8-2-2.4-2.6c-1.9-0.7-2.9-1.8-2.9-3.2
			c0-1.7,1.3-3.1,3.6-3.1c1.1,0,2,0.3,2.6,0.7l-0.4,0.9c-0.4-0.3-1.2-0.7-2.3-0.7c-1.5,0-2.2,0.9-2.2,2c0,1.2,0.8,1.7,2.4,2.4
			c1.9,0.7,3,1.7,3,3.5c0,2-1.5,3.3-3.9,3.3c-1.1,0-2.2-0.3-2.9-0.8L95.7,261.8z"/>
		<path fill="#444444" d="M103.6,261.8c0.6,0.4,1.6,0.8,2.6,0.8c1.8,0,2.7-1,2.7-2.2c0-1.3-0.8-2-2.4-2.6c-1.9-0.7-2.9-1.8-2.9-3.2
			c0-1.7,1.3-3.1,3.6-3.1c1.1,0,2,0.3,2.6,0.7l-0.4,0.9c-0.4-0.3-1.2-0.7-2.3-0.7c-1.5,0-2.2,0.9-2.2,2c0,1.2,0.8,1.7,2.4,2.4
			c1.9,0.7,3,1.7,3,3.5c0,2-1.5,3.3-3.9,3.3c-1.1,0-2.2-0.3-2.9-0.8L103.6,261.8z"/>
		<path fill="#444444" d="M112.5,249.4c-0.5,0-0.9-0.5-0.9-1c0-0.5,0.4-1,0.9-1s0.9,0.5,0.9,1C113.5,248.9,113.1,249.4,112.5,249.4
			L112.5,249.4z M112,263.3v-11.6h1.2v11.6H112z"/>
		<path fill="#444444" d="M120.3,263.5c-3,0-5.3-2.3-5.3-6c0-4,2.6-6.2,5.5-6.2c3.2,0,5.4,2.4,5.4,6
			C125.8,261.7,122.9,263.5,120.3,263.5L120.3,263.5z M120.4,262.6c2.4,0,4.3-2.2,4.3-5.1c0-2.1-1.2-5-4.2-5c-3,0-4.3,2.6-4.3,5.1
			C116.1,260.4,118,262.6,120.4,262.6L120.4,262.6z"/>
		<path fill="#444444" d="M127.7,254.5c0-1.1,0-1.9-0.1-2.8h1.1l0.1,2.1h0c0.6-1.3,2.1-2.3,4-2.3c1.1,0,4.1,0.6,4.1,4.9v7h-1.2v-6.9
			c0-2.1-0.8-4-3.2-4c-1.6,0-3,1.2-3.5,2.7c-0.1,0.3-0.1,0.7-0.1,1v7.2h-1.2V254.5z"/>
		<path fill="#444444" d="M139.1,261.8c0.6,0.4,1.6,0.8,2.6,0.8c1.8,0,2.7-1,2.7-2.2c0-1.3-0.8-2-2.4-2.6c-1.9-0.7-2.9-1.8-2.9-3.2
			c0-1.7,1.3-3.1,3.6-3.1c1.1,0,2,0.3,2.6,0.7l-0.4,0.9c-0.4-0.3-1.2-0.7-2.3-0.7c-1.5,0-2.2,0.9-2.2,2c0,1.2,0.8,1.7,2.4,2.4
			c1.9,0.7,3,1.7,3,3.5c0,2-1.5,3.3-3.9,3.3c-1.1,0-2.2-0.3-2.9-0.8L139.1,261.8z"/>
		<path fill="#444444" d="M151.6,255.4c0-1.4,0-2.6-0.1-3.7h1.1l0.1,2.2h0c0.8-1.5,2.3-2.5,4.3-2.5c3,0,5,2.5,5,5.9
			c0,4.1-2.5,6.3-5.3,6.3c-1.7,0-3.1-0.7-3.9-2.1h0v6.7h-1.2V255.4z M152.8,258.7c0,0.3,0,0.6,0.1,0.9c0.5,1.8,2,2.9,3.8,2.9
			c2.7,0,4.2-2.1,4.2-5.2c0-2.6-1.4-4.9-4.1-4.9c-1.7,0-3.3,1.2-3.8,3.1c-0.1,0.3-0.2,0.7-0.2,1V258.7z"/>
		<path fill="#444444" d="M171.1,260.5c0,0.9,0,1.9,0.2,2.8h-1.1l-0.2-1.7h0c-0.6,0.9-1.9,1.9-3.7,1.9c-2.3,0-3.4-1.6-3.4-3.2
			c0-2.7,2.3-4.3,7.1-4.2v-0.3c0-1.1-0.2-3.4-3-3.4c-1,0-2.1,0.3-2.9,0.9l-0.4-0.8c1.1-0.7,2.4-1,3.4-1c3.4,0,4,2.5,4,4.6V260.5z
			 M169.9,257.1c-2.5-0.1-5.9,0.3-5.9,3.1c0,1.7,1.1,2.4,2.3,2.4c1.9,0,3-1.2,3.4-2.3c0.1-0.2,0.1-0.5,0.1-0.7V257.1z"/>
		<path fill="#444444" d="M173.7,255.2c0-1.2,0-2.3-0.1-3.5h1.1l0,2.3h0.1c0.5-1.5,1.7-2.6,3.3-2.6c0.2,0,0.3,0,0.5,0v1.1
			c-0.2,0-0.3,0-0.6,0c-1.6,0-2.7,1.4-3,3.2c-0.1,0.3-0.1,0.7-0.1,1.1v6.4h-1.2V255.2z"/>
		<path fill="#444444" d="M182,249.1v2.6h3.3v0.9H182v7.5c0,1.5,0.5,2.4,1.7,2.4c0.6,0,1-0.1,1.3-0.2l0.1,0.9
			c-0.4,0.1-0.9,0.3-1.6,0.3c-0.8,0-1.5-0.3-2-0.8c-0.5-0.6-0.7-1.6-0.7-2.8v-7.3h-2v-0.9h2v-2.1L182,249.1z"/>
		<path fill="#444444" d="M186.8,254.5c0-1.1,0-1.9-0.1-2.8h1.1l0.1,2.1h0c0.6-1.3,2.1-2.3,4-2.3c1.1,0,4.1,0.6,4.1,4.9v7h-1.2v-6.9
			c0-2.1-0.8-4-3.2-4c-1.6,0-3,1.2-3.5,2.7c-0.1,0.3-0.1,0.7-0.1,1v7.2h-1.2V254.5z"/>
		<path fill="#444444" d="M198.8,257.4c0,3.7,2,5.2,4.4,5.2c1.7,0,2.6-0.3,3.2-0.7l0.3,0.9c-0.4,0.2-1.6,0.7-3.6,0.7
			c-3.3,0-5.4-2.4-5.4-5.8c0-3.9,2.2-6.3,5.2-6.3c3.8,0,4.5,3.6,4.5,5.2c0,0.3,0,0.5,0,0.7H198.8z M206.2,256.5
			c0-1.6-0.7-4.1-3.5-4.1c-2.6,0-3.6,2.3-3.9,4.1H206.2z"/>
		<path fill="#444444" d="M209.2,255.2c0-1.2,0-2.3-0.1-3.5h1.1l0,2.3h0.1c0.5-1.5,1.7-2.6,3.3-2.6c0.2,0,0.3,0,0.5,0v1.1
			c-0.2,0-0.3,0-0.6,0c-1.6,0-2.7,1.4-3,3.2c-0.1,0.3-0.1,0.7-0.1,1.1v6.4h-1.2V255.2z"/>
		<path fill="#444444" d="M214.8,261.8c0.6,0.4,1.6,0.8,2.6,0.8c1.8,0,2.7-1,2.7-2.2c0-1.3-0.8-2-2.4-2.6c-1.9-0.7-2.9-1.8-2.9-3.2
			c0-1.7,1.3-3.1,3.6-3.1c1.1,0,2,0.3,2.6,0.7l-0.4,0.9c-0.4-0.3-1.2-0.7-2.3-0.7c-1.5,0-2.2,0.9-2.2,2c0,1.2,0.8,1.7,2.4,2.4
			c1.9,0.7,3,1.7,3,3.5c0,2-1.5,3.3-3.9,3.3c-1.1,0-2.2-0.3-2.9-0.8L214.8,261.8z"/>
		<path fill="#444444" d="M227.9,249.4c-0.5,0-0.9-0.5-0.9-1c0-0.5,0.4-1,0.9-1c0.5,0,0.9,0.5,0.9,1
			C228.9,248.9,228.5,249.4,227.9,249.4L227.9,249.4z M227.4,263.3v-11.6h1.2v11.6H227.4z"/>
		<path fill="#444444" d="M231.4,254.5c0-1.1,0-1.9-0.1-2.8h1.1l0.1,2.1h0c0.6-1.3,2.1-2.3,4-2.3c1.1,0,4.1,0.6,4.1,4.9v7h-1.2v-6.9
			c0-2.1-0.8-4-3.2-4c-1.6,0-3,1.2-3.5,2.7c-0.1,0.3-0.1,0.7-0.1,1v7.2h-1.2V254.5z"/>
		<path fill="#444444" d="M246.6,263.3v-0.7l1.4-1.5c4.4-4.3,6.3-6.5,6.3-9.2c0-1.8-0.7-3.5-3.4-3.5c-1.5,0-2.7,0.8-3.3,1.4
			l-0.5-0.8c1-0.9,2.4-1.6,4-1.6c3.3,0,4.4,2.5,4.4,4.3c0,3.1-2.2,5.6-6.2,9.5l-1.1,1.2v0h7.7v1H246.6z"/>
		<path fill="#444444" d="M261.9,263.5c-2.5,0-4.7-2.4-4.8-8c0-5.7,2.5-8.2,5.1-8.2c2.8,0,4.8,2.5,4.8,7.9
			C267,260.8,265,263.5,261.9,263.5L261.9,263.5z M262,262.6c2.6,0,3.8-3,3.8-7.2c0-4.1-1.1-7-3.8-7c-2.3,0-3.8,2.9-3.8,7
			C258.2,259.7,259.7,262.6,262,262.6L262,262.6z"/>
		<path fill="#444444" d="M272.5,248.8L272.5,248.8l-2.6,1.5l-0.3-0.9l3-1.8h1.1v15.7h-1.1V248.8z"/>
		<path fill="#444444" d="M279.1,261.6c0.6,0.4,1.9,1,3.4,1c3.2,0,4-2.2,4-3.6c0-2.6-2.3-3.7-4.6-3.7h-1v-1h1c1.7,0,3.9-1,3.9-3.2
			c0-1.4-0.8-2.8-3-2.8c-1.2,0-2.3,0.6-3,1.1l-0.5-0.8c0.7-0.6,2.2-1.2,3.6-1.2c3,0,4.1,1.9,4.1,3.6c0,1.6-1,3-2.9,3.7v0
			c2,0.4,3.5,1.9,3.5,4.2c0,2.3-1.7,4.7-5.3,4.7c-1.6,0-3-0.6-3.7-1.1L279.1,261.6z"/>
		<path fill="#444444" d="M290.5,263.5c-0.6,0-1-0.5-0.9-1.1c0-0.6,0.4-1.1,1-1.1c0.6,0,1,0.5,1,1.1
			C291.5,263,291.1,263.5,290.5,263.5L290.5,263.5z"/>
	</g>
	<g id="qaeaUl_1_">
		<g>
			<path fill="#B8252E" d="M82.1,88.1c18,0,31.8,14.5,32.2,31.3c0.4,19.1-14.8,32.8-31.3,33.1c-19.1,0.4-32.8-14.8-33.2-31.3
				C49.4,102.5,64.5,88,82.1,88.1z M56.4,110.4c0.5,0.1,0.9,0.1,1.2,0.2c1.5,0.2,2.9,0.4,4.4,0.6c1.7,0.3,2.2,1.4,1.6,2.9
				c-0.6,1.3-1.3,2.6-1.7,4c-0.5,1.6-0.2,3.2,1.2,4.3c0.7,0.6,1.4,1,2.1,1.6c0.6,0.5,1.4,1,1.5,1.9c0.2,2.2,0.5,4.3,0.9,6.5
				c0.3,1.5,0.7,2.9,1.7,4.1c1.1,1.3,2.1,2.7,3.6,3.7c0.9,0.5,1.5,0.3,1.5-0.8c0-0.8,0-1.6,0-2.4c0-1-0.2-1.9-0.2-2.9
				c-0.2-2.3,0.4-4.4,0.9-6.5c0.4-1.6,1.4-2.9,2.7-3.8c0.7-0.5,1.5-0.9,2.3-1.3c1-0.6,2.1-1.1,2.5-2.3c0.6-1.5,1.1-3.1,0.7-4.8
				c-0.2-0.9-0.5-1.6-1-2.3c-1.5-2-3.7-2.7-6-3.3c-1-0.3-2.1-0.4-3.1-0.7c-1.8-0.5-3.5-0.6-5.3-0.2c-0.2,0-0.4,0-0.6,0
				c-0.8-0.3-1.4-0.7-1.9-1.4c-0.6-0.9-0.6-1.6,0-2.4c0.3-0.4,0.7-0.8,1-1.2c1.1-1.2,2.4-2.2,3.3-3.5c0.9-1.1,1.8-2.1,3-2.9
				c1.4-0.9,2.7-1.9,4-2.9c0.4-0.3,0.8-0.6,1.2-1c0-0.1-0.1-0.1-0.1-0.2c-0.2,0-0.4,0-0.6,0c-1.1,0.2-2.1,0.4-3.2,0.7
				c-3.1,0.9-5.9,2.3-8.5,4.2c-3.9,2.8-6.8,6.4-8.8,10.8C56.9,109.4,56.7,109.9,56.4,110.4z M103.8,137c0.2-0.2,0.4-0.4,0.5-0.6
				c2.3-3.3,4-6.9,4.7-10.9c0.3-1.6,0.5-3.3,0.5-4.9c0-2-0.1-4.1-0.6-6.1c-0.4-1.6-0.8-3.2-1.4-4.8c-1.1-2.7-2.6-5.1-4.5-7.3
				c-3.1-3.6-6.8-6.2-11.1-7.9c-0.4-0.1-0.8-0.3-1.1-0.2c-0.5,0.1-1.2,1.7-1.1,2.2c0.1,0.7,0.3,1.4,0.5,2c0.4,1.3,1.5,1.9,2.7,1.6
				c0.8-0.2,1.5-0.5,2.2-0.8c0.5-0.2,0.9-0.4,1.4,0c0.6,0.5,0.9,1.5,0.6,2c-0.3,0.5-0.6,1-0.9,1.5c-0.6,0.7-1.3,1.4-2,2.1
				c-0.8,1-1.5,2-1.5,3.4c0,1.5,0.6,2.8,1.3,4.1c1.2,1.9,2.8,3.1,5.1,3.1c1.5,0,2.5,0.6,3.2,2c0.9,1.8,1.5,3.7,1.5,5.7
				c0,1.9-0.1,3.8-0.3,5.7c-0.1,1-0.4,2.1-0.8,3C102,133.7,102.5,135.8,103.8,137z M90.6,140.9c0-0.1,0-0.1,0-0.2
				c-1.3,0.2-2.6,0.4-3.9,0.7c-2.1,0.6-4.2,1.5-6.3,2.1c-1,0.3-2.2,0.4-3.2,0.7c-0.6,0.2-1.2,0.3-1.8,0.7c-0.5,0.3-0.9,0.7-1.4,1.1
				c-0.1,0.1-0.2,0.2-0.2,0.3c0,0.1,0.2,0.2,0.3,0.2c1.4,0.3,2.8,0.8,4.3,1c2.5,0.4,5,0.3,7.6,0c0.9-0.1,1.8-0.3,2.7-0.5
				c1.2-0.3,2.4-0.7,3.6-1.2c1.6-0.7,3.2-1.6,4.7-2.4c0.3-0.1,0.4-0.4,0-0.6c-0.6-0.4-1.1-0.9-1.7-1.2
				C93.7,141.1,92.2,140.9,90.6,140.9z"/>
		</g>
	</g>
	<g id="qaeaUl_2_">
		<g>
			<path fill="#B8252E" d="M132.1,138.1c18,0,31.8,14.5,32.2,31.3c0.4,19.1-14.8,32.8-31.3,33.1c-19.1,0.4-32.8-14.8-33.2-31.3
				C99.4,152.5,114.5,138,132.1,138.1z M106.4,160.4c0.5,0.1,0.9,0.1,1.2,0.2c1.5,0.2,2.9,0.4,4.4,0.6c1.7,0.3,2.2,1.4,1.6,2.9
				c-0.6,1.3-1.3,2.6-1.7,4c-0.5,1.6-0.2,3.2,1.2,4.3c0.7,0.6,1.4,1,2.1,1.6c0.6,0.5,1.4,1,1.5,1.9c0.2,2.2,0.5,4.3,0.9,6.5
				c0.3,1.5,0.7,2.9,1.7,4.1c1.1,1.3,2.1,2.7,3.6,3.7c0.9,0.5,1.5,0.3,1.5-0.8c0-0.8,0-1.6,0-2.4c0-1-0.2-1.9-0.2-2.9
				c-0.2-2.3,0.4-4.4,0.9-6.5c0.4-1.6,1.4-2.9,2.7-3.8c0.7-0.5,1.5-0.9,2.3-1.3c1-0.6,2.1-1.1,2.5-2.3c0.6-1.5,1.1-3.1,0.7-4.8
				c-0.2-0.9-0.5-1.6-1-2.3c-1.5-2-3.7-2.7-6-3.3c-1-0.3-2.1-0.4-3.1-0.7c-1.8-0.5-3.5-0.6-5.3-0.2c-0.2,0-0.4,0-0.6,0
				c-0.8-0.3-1.4-0.7-1.9-1.4c-0.6-0.9-0.6-1.6,0-2.4c0.3-0.4,0.7-0.8,1-1.2c1.1-1.2,2.4-2.2,3.3-3.5c0.9-1.1,1.8-2.1,3-2.9
				c1.4-0.9,2.7-1.9,4-2.9c0.4-0.3,0.8-0.6,1.2-1c0-0.1-0.1-0.1-0.1-0.2c-0.2,0-0.4,0-0.6,0c-1.1,0.2-2.1,0.4-3.2,0.7
				c-3.1,0.9-5.9,2.3-8.5,4.2c-3.9,2.8-6.8,6.4-8.8,10.8C106.9,159.4,106.7,159.9,106.4,160.4z M153.8,187c0.2-0.2,0.4-0.4,0.5-0.6
				c2.3-3.3,4-6.9,4.7-10.9c0.3-1.6,0.5-3.3,0.5-4.9c0-2-0.1-4.1-0.6-6.1c-0.4-1.6-0.8-3.2-1.4-4.8c-1.1-2.7-2.6-5.1-4.5-7.3
				c-3.1-3.6-6.8-6.2-11.1-7.9c-0.4-0.1-0.8-0.3-1.1-0.2c-0.5,0.1-1.2,1.7-1.1,2.2c0.1,0.7,0.3,1.4,0.5,2c0.4,1.3,1.5,1.9,2.7,1.6
				c0.8-0.2,1.5-0.5,2.2-0.8c0.5-0.2,0.9-0.4,1.4,0c0.6,0.5,0.9,1.5,0.6,2c-0.3,0.5-0.6,1-0.9,1.5c-0.6,0.7-1.3,1.4-2,2.1
				c-0.8,1-1.5,2-1.5,3.4c0,1.5,0.6,2.8,1.3,4.1c1.2,1.9,2.8,3.1,5.1,3.1c1.5,0,2.5,0.6,3.2,2c0.9,1.8,1.5,3.7,1.5,5.7
				c0,1.9-0.1,3.8-0.3,5.7c-0.1,1-0.4,2.1-0.8,3C152,183.7,152.5,185.8,153.8,187z M140.6,190.9c0-0.1,0-0.1,0-0.2
				c-1.3,0.2-2.6,0.4-3.9,0.7c-2.1,0.6-4.2,1.5-6.3,2.1c-1,0.3-2.2,0.4-3.2,0.7c-0.6,0.2-1.2,0.3-1.8,0.7c-0.5,0.3-0.9,0.7-1.4,1.1
				c-0.1,0.1-0.2,0.2-0.2,0.3c0,0.1,0.2,0.2,0.3,0.2c1.4,0.3,2.8,0.8,4.3,1c2.5,0.4,5,0.3,7.6,0c0.9-0.1,1.8-0.3,2.7-0.5
				c1.2-0.3,2.4-0.7,3.6-1.2c1.6-0.7,3.2-1.6,4.7-2.4c0.3-0.1,0.4-0.4,0-0.6c-0.6-0.4-1.1-0.9-1.7-1.2
				C143.7,191.1,142.2,190.9,140.6,190.9z"/>
		</g>
	</g>
	<g id="qaeaUl_3_">
		<g>
			<path fill="#B8252E" d="M182.1,88.1c18,0,31.8,14.5,32.2,31.3c0.4,19.1-14.8,32.8-31.3,33.1c-19.1,0.4-32.8-14.8-33.2-31.3
				C149.4,102.5,164.5,88,182.1,88.1z M156.4,110.4c0.5,0.1,0.9,0.1,1.2,0.2c1.5,0.2,2.9,0.4,4.4,0.6c1.7,0.3,2.2,1.4,1.6,2.9
				c-0.6,1.3-1.3,2.6-1.7,4c-0.5,1.6-0.2,3.2,1.2,4.3c0.7,0.6,1.4,1,2.1,1.6c0.6,0.5,1.4,1,1.5,1.9c0.2,2.2,0.5,4.3,0.9,6.5
				c0.3,1.5,0.7,2.9,1.7,4.1c1.1,1.3,2.1,2.7,3.6,3.7c0.9,0.5,1.5,0.3,1.5-0.8c0-0.8,0-1.6,0-2.4c0-1-0.2-1.9-0.2-2.9
				c-0.2-2.3,0.4-4.4,0.9-6.5c0.4-1.6,1.4-2.9,2.7-3.8c0.7-0.5,1.5-0.9,2.3-1.3c1-0.6,2.1-1.1,2.5-2.3c0.6-1.5,1.1-3.1,0.7-4.8
				c-0.2-0.9-0.5-1.6-1-2.3c-1.5-2-3.7-2.7-6-3.3c-1-0.3-2.1-0.4-3.1-0.7c-1.8-0.5-3.5-0.6-5.3-0.2c-0.2,0-0.4,0-0.6,0
				c-0.8-0.3-1.4-0.7-1.9-1.4c-0.6-0.9-0.6-1.6,0-2.4c0.3-0.4,0.7-0.8,1-1.2c1.1-1.2,2.4-2.2,3.3-3.5c0.9-1.1,1.8-2.1,3-2.9
				c1.4-0.9,2.7-1.9,4-2.9c0.4-0.3,0.8-0.6,1.2-1c0-0.1-0.1-0.1-0.1-0.2c-0.2,0-0.4,0-0.6,0c-1.1,0.2-2.1,0.4-3.2,0.7
				c-3.1,0.9-5.9,2.3-8.5,4.2c-3.9,2.8-6.8,6.4-8.8,10.8C156.9,109.4,156.7,109.9,156.4,110.4z M203.8,137c0.2-0.2,0.4-0.4,0.5-0.6
				c2.3-3.3,4-6.9,4.7-10.9c0.3-1.6,0.5-3.3,0.5-4.9c0-2-0.1-4.1-0.6-6.1c-0.4-1.6-0.8-3.2-1.4-4.8c-1.1-2.7-2.6-5.1-4.5-7.3
				c-3.1-3.6-6.8-6.2-11.1-7.9c-0.4-0.1-0.8-0.3-1.1-0.2c-0.5,0.1-1.2,1.7-1.1,2.2c0.1,0.7,0.3,1.4,0.5,2c0.4,1.3,1.5,1.9,2.7,1.6
				c0.8-0.2,1.5-0.5,2.2-0.8c0.5-0.2,0.9-0.4,1.4,0c0.6,0.5,0.9,1.5,0.6,2c-0.3,0.5-0.6,1-0.9,1.5c-0.6,0.7-1.3,1.4-2,2.1
				c-0.8,1-1.5,2-1.5,3.4c0,1.5,0.6,2.8,1.3,4.1c1.2,1.9,2.8,3.1,5.1,3.1c1.5,0,2.5,0.6,3.2,2c0.9,1.8,1.5,3.7,1.5,5.7
				c0,1.9-0.1,3.8-0.3,5.7c-0.1,1-0.4,2.1-0.8,3C202,133.7,202.5,135.8,203.8,137z M190.6,140.9c0-0.1,0-0.1,0-0.2
				c-1.3,0.2-2.6,0.4-3.9,0.7c-2.1,0.6-4.2,1.5-6.3,2.1c-1,0.3-2.2,0.4-3.2,0.7c-0.6,0.2-1.2,0.3-1.8,0.7c-0.5,0.3-0.9,0.7-1.4,1.1
				c-0.1,0.1-0.2,0.2-0.2,0.3c0,0.1,0.2,0.2,0.3,0.2c1.4,0.3,2.8,0.8,4.3,1c2.5,0.4,5,0.3,7.6,0c0.9-0.1,1.8-0.3,2.7-0.5
				c1.2-0.3,2.4-0.7,3.6-1.2c1.6-0.7,3.2-1.6,4.7-2.4c0.3-0.1,0.4-0.4,0-0.6c-0.6-0.4-1.1-0.9-1.7-1.2
				C193.7,141.1,192.2,140.9,190.6,140.9z"/>
		</g>
	</g>
	<g id="qaeaUl_4_">
		<g>
			<path fill="#B8252E" d="M232.1,138.1c18,0,31.8,14.5,32.2,31.3c0.4,19.1-14.8,32.8-31.3,33.1c-19.1,0.4-32.8-14.8-33.2-31.3
				C199.4,152.5,214.5,138,232.1,138.1z M206.4,160.4c0.5,0.1,0.9,0.1,1.2,0.2c1.5,0.2,2.9,0.4,4.4,0.6c1.7,0.3,2.2,1.4,1.6,2.9
				c-0.6,1.3-1.3,2.6-1.7,4c-0.5,1.6-0.2,3.2,1.2,4.3c0.7,0.6,1.4,1,2.1,1.6c0.6,0.5,1.4,1,1.5,1.9c0.2,2.2,0.5,4.3,0.9,6.5
				c0.3,1.5,0.7,2.9,1.7,4.1c1.1,1.3,2.1,2.7,3.6,3.7c0.9,0.5,1.5,0.3,1.5-0.8c0-0.8,0-1.6,0-2.4c0-1-0.2-1.9-0.2-2.9
				c-0.2-2.3,0.4-4.4,0.9-6.5c0.4-1.6,1.4-2.9,2.7-3.8c0.7-0.5,1.5-0.9,2.3-1.3c1-0.6,2.1-1.1,2.5-2.3c0.6-1.5,1.1-3.1,0.7-4.8
				c-0.2-0.9-0.5-1.6-1-2.3c-1.5-2-3.7-2.7-6-3.3c-1-0.3-2.1-0.4-3.1-0.7c-1.8-0.5-3.5-0.6-5.3-0.2c-0.2,0-0.4,0-0.6,0
				c-0.8-0.3-1.4-0.7-1.9-1.4c-0.6-0.9-0.6-1.6,0-2.4c0.3-0.4,0.7-0.8,1-1.2c1.1-1.2,2.4-2.2,3.3-3.5c0.9-1.1,1.8-2.1,3-2.9
				c1.4-0.9,2.7-1.9,4-2.9c0.4-0.3,0.8-0.6,1.2-1c0-0.1-0.1-0.1-0.1-0.2c-0.2,0-0.4,0-0.6,0c-1.1,0.2-2.1,0.4-3.2,0.7
				c-3.1,0.9-5.9,2.3-8.5,4.2c-3.9,2.8-6.8,6.4-8.8,10.8C206.9,159.4,206.7,159.9,206.4,160.4z M253.8,187c0.2-0.2,0.4-0.4,0.5-0.6
				c2.3-3.3,4-6.9,4.7-10.9c0.3-1.6,0.5-3.3,0.5-4.9c0-2-0.1-4.1-0.6-6.1c-0.4-1.6-0.8-3.2-1.4-4.8c-1.1-2.7-2.6-5.1-4.5-7.3
				c-3.1-3.6-6.8-6.2-11.1-7.9c-0.4-0.1-0.8-0.3-1.1-0.2c-0.5,0.1-1.2,1.7-1.1,2.2c0.1,0.7,0.3,1.4,0.5,2c0.4,1.3,1.5,1.9,2.7,1.6
				c0.8-0.2,1.5-0.5,2.2-0.8c0.5-0.2,0.9-0.4,1.4,0c0.6,0.5,0.9,1.5,0.6,2c-0.3,0.5-0.6,1-0.9,1.5c-0.6,0.7-1.3,1.4-2,2.1
				c-0.8,1-1.5,2-1.5,3.4c0,1.5,0.6,2.8,1.3,4.1c1.2,1.9,2.8,3.1,5.1,3.1c1.5,0,2.5,0.6,3.2,2c0.9,1.8,1.5,3.7,1.5,5.7
				c0,1.9-0.1,3.8-0.3,5.7c-0.1,1-0.4,2.1-0.8,3C252,183.7,252.5,185.8,253.8,187z M240.6,190.9c0-0.1,0-0.1,0-0.2
				c-1.3,0.2-2.6,0.4-3.9,0.7c-2.1,0.6-4.2,1.5-6.3,2.1c-1,0.3-2.2,0.4-3.2,0.7c-0.6,0.2-1.2,0.3-1.8,0.7c-0.5,0.3-0.9,0.7-1.4,1.1
				c-0.1,0.1-0.2,0.2-0.2,0.3c0,0.1,0.2,0.2,0.3,0.2c1.4,0.3,2.8,0.8,4.3,1c2.5,0.4,5,0.3,7.6,0c0.9-0.1,1.8-0.3,2.7-0.5
				c1.2-0.3,2.4-0.7,3.6-1.2c1.6-0.7,3.2-1.6,4.7-2.4c0.3-0.1,0.4-0.4,0-0.6c-0.6-0.4-1.1-0.9-1.7-1.2
				C243.7,191.1,242.2,190.9,240.6,190.9z"/>
		</g>
	</g>
	<g id="qaeaUl_5_">
		<g>
			<path fill="#B8252E" d="M282.1,88.1c18,0,31.8,14.5,32.2,31.3c0.4,19.1-14.8,32.8-31.3,33.1c-19.1,0.4-32.8-14.8-33.2-31.3
				C249.4,102.5,264.5,88,282.1,88.1z M256.4,110.4c0.5,0.1,0.9,0.1,1.2,0.2c1.5,0.2,2.9,0.4,4.4,0.6c1.7,0.3,2.2,1.4,1.6,2.9
				c-0.6,1.3-1.3,2.6-1.7,4c-0.5,1.6-0.2,3.2,1.2,4.3c0.7,0.6,1.4,1,2.1,1.6c0.6,0.5,1.4,1,1.5,1.9c0.2,2.2,0.5,4.3,0.9,6.5
				c0.3,1.5,0.7,2.9,1.7,4.1c1.1,1.3,2.1,2.7,3.6,3.7c0.9,0.5,1.5,0.3,1.5-0.8c0-0.8,0-1.6,0-2.4c0-1-0.2-1.9-0.2-2.9
				c-0.2-2.3,0.4-4.4,0.9-6.5c0.4-1.6,1.4-2.9,2.7-3.8c0.7-0.5,1.5-0.9,2.3-1.3c1-0.6,2.1-1.1,2.5-2.3c0.6-1.5,1.1-3.1,0.7-4.8
				c-0.2-0.9-0.5-1.6-1-2.3c-1.5-2-3.7-2.7-6-3.3c-1-0.3-2.1-0.4-3.1-0.7c-1.8-0.5-3.5-0.6-5.3-0.2c-0.2,0-0.4,0-0.6,0
				c-0.8-0.3-1.4-0.7-1.9-1.4c-0.6-0.9-0.6-1.6,0-2.4c0.3-0.4,0.7-0.8,1-1.2c1.1-1.2,2.4-2.2,3.3-3.5c0.9-1.1,1.8-2.1,3-2.9
				c1.4-0.9,2.7-1.9,4-2.9c0.4-0.3,0.8-0.6,1.2-1c0-0.1-0.1-0.1-0.1-0.2c-0.2,0-0.4,0-0.6,0c-1.1,0.2-2.1,0.4-3.2,0.7
				c-3.1,0.9-5.9,2.3-8.5,4.2c-3.9,2.8-6.8,6.4-8.8,10.8C256.9,109.4,256.7,109.9,256.4,110.4z M303.8,137c0.2-0.2,0.4-0.4,0.5-0.6
				c2.3-3.3,4-6.9,4.7-10.9c0.3-1.6,0.5-3.3,0.5-4.9c0-2-0.1-4.1-0.6-6.1c-0.4-1.6-0.8-3.2-1.4-4.8c-1.1-2.7-2.6-5.1-4.5-7.3
				c-3.1-3.6-6.8-6.2-11.1-7.9c-0.4-0.1-0.8-0.3-1.1-0.2c-0.5,0.1-1.2,1.7-1.1,2.2c0.1,0.7,0.3,1.4,0.5,2c0.4,1.3,1.5,1.9,2.7,1.6
				c0.8-0.2,1.5-0.5,2.2-0.8c0.5-0.2,0.9-0.4,1.4,0c0.6,0.5,0.9,1.5,0.6,2c-0.3,0.5-0.6,1-0.9,1.5c-0.6,0.7-1.3,1.4-2,2.1
				c-0.8,1-1.5,2-1.5,3.4c0,1.5,0.6,2.8,1.3,4.1c1.2,1.9,2.8,3.1,5.1,3.1c1.5,0,2.5,0.6,3.2,2c0.9,1.8,1.5,3.7,1.5,5.7
				c0,1.9-0.1,3.8-0.3,5.7c-0.1,1-0.4,2.1-0.8,3C302,133.7,302.5,135.8,303.8,137z M290.6,140.9c0-0.1,0-0.1,0-0.2
				c-1.3,0.2-2.6,0.4-3.9,0.7c-2.1,0.6-4.2,1.5-6.3,2.1c-1,0.3-2.2,0.4-3.2,0.7c-0.6,0.2-1.2,0.3-1.8,0.7c-0.5,0.3-0.9,0.7-1.4,1.1
				c-0.1,0.1-0.2,0.2-0.2,0.3c0,0.1,0.2,0.2,0.3,0.2c1.4,0.3,2.8,0.8,4.3,1c2.5,0.4,5,0.3,7.6,0c0.9-0.1,1.8-0.3,2.7-0.5
				c1.2-0.3,2.4-0.7,3.6-1.2c1.6-0.7,3.2-1.6,4.7-2.4c0.3-0.1,0.4-0.4,0-0.6c-0.6-0.4-1.1-0.9-1.7-1.2
				C293.7,141.1,292.2,140.9,290.6,140.9z"/>
		</g>
	</g>
</g>
</svg>
