<?xml version="1.0" encoding="utf-8"?>
<!-- Generator: Adobe Illustrator 17.1.0, SVG Export Plug-In . SVG Version: 6.00 Build 0)  -->
<!DOCTYPE svg PUBLIC "-//W3C//DTD SVG 1.1//EN" "http://www.w3.org/Graphics/SVG/1.1/DTD/svg11.dtd">
<svg version="1.1" id="title" xmlns="http://www.w3.org/2000/svg" xmlns:xlink="http://www.w3.org/1999/xlink" x="0px" y="0px"
	 viewBox="0 0 586.3 99.2" enable-background="new 0 0 586.3 99.2" xml:space="preserve">
<g>
	<path fill="#FFFFFF" d="M102.2,24.5c0,4.7,0.1,5.4,2.7,5.7l1.4,0.1c0.3,0.2,0.2,1-0.1,1.1c-2.6-0.1-4.1-0.1-5.9-0.1
		c-1.8,0-3.4,0-6.3,0.1c-0.3-0.1-0.4-0.9,0-1.1l1.6-0.1c2.6-0.2,2.8-0.9,2.8-5.7V4.3c0-1.4,0-1.4-1.4-1.4h-2.5C92.7,2.9,90.2,3,89,4
		c-1.1,1-1.5,2-2,3.1c-0.4,0.3-1,0-1.2-0.3c0.7-2,1.4-4.9,1.7-6.7c0.1-0.1,0.7-0.1,0.9,0c0.3,1.4,1.8,1.4,3.8,1.4h18.3
		c2.4,0,2.8-0.1,3.5-1.3c0.2-0.1,0.7,0,0.8,0.1c-0.5,1.9-0.8,5.5-0.7,6.9c-0.2,0.4-0.9,0.4-1.2,0.1c-0.1-1.1-0.5-2.8-1.1-3.3
		c-1-0.8-2.8-1.1-5.2-1.1h-3.2c-1.4,0-1.3,0-1.3,1.5V24.5z"/>
	<path fill="#FFFFFF" d="M137.2,20.4c1.4,0,1.6,0,1.6-1.2v-2.8c0-3.1-0.2-3.3-2.1-3.6l-0.9-0.1c-0.3-0.2-0.3-1,0.1-1.1
		c1.8,0.1,3.2,0.1,4.6,0.1c1.4,0,2.8,0,4.6-0.1c0.4,0.1,0.4,0.9,0.1,1.1l-0.9,0.1c-1.9,0.3-2.1,0.5-2.1,3.6v10.1
		c0,3.1,0.2,3.3,2.1,3.6l1,0.1c0.3,0.2,0.3,1-0.1,1.1c-1.9-0.1-3.4-0.1-4.8-0.1c-1.4,0-2.8,0-4.6,0.1c-0.4-0.1-0.4-0.9-0.1-1.1
		l0.9-0.1c1.9-0.3,2.1-0.5,2.1-3.6V23c0-1.1-0.1-1.2-1.6-1.2h-8c-1.5,0-1.6,0-1.6,1.2v3.6c0,3.1,0.2,3.4,2.1,3.6l1.2,0.1
		c0.3,0.2,0.3,1-0.1,1.1c-2.1-0.1-3.6-0.1-5-0.1c-1.4,0-2.8,0-4.2,0.1c-0.4-0.1-0.4-0.9-0.1-1.1l0.5-0.1c1.9-0.5,2.1-0.5,2.1-3.6
		V16.5c0-3.1-0.2-3.3-2.1-3.6l-1-0.1c-0.3-0.2-0.3-1,0.1-1.1c1.9,0.1,3.3,0.1,4.8,0.1c1.4,0,2.8,0,4.4-0.1c0.4,0.1,0.4,0.9,0.1,1.1
		l-0.7,0.1c-1.9,0.4-2.1,0.5-2.1,3.6v2.8c0,1.2,0.2,1.2,1.6,1.2H137.2z"/>
	<path fill="#FFFFFF" d="M160.8,16.5c0-3.1-0.2-3.3-1.9-3.6l-0.6-0.1c-0.3-0.2-0.3-1,0.1-1.1c1.3,0.1,2.7,0.1,4.2,0.1h6.4
		c2,0,3.8,0,4.2-0.1c0,0.5,0.3,2.7,0.5,4.6c-0.2,0.4-0.9,0.4-1.2,0.1c-0.3-1.2-0.5-1.8-0.8-2.2c-0.7-1.1-2.8-1.1-3.8-1.1h-2
		c-1.6,0-1.6,0-1.6,1.4v5c0,0.8,0,0.9,0.9,0.9h2.1c2.4,0,2.6-0.4,3-1.7l0.2-0.9c0.2-0.3,0.9-0.3,1.1,0.1c-0.1,1.3-0.1,2.1-0.1,3.2
		c0,1.1,0,1.9,0.1,3.3c-0.2,0.4-0.9,0.4-1.1,0.1l-0.2-0.9c-0.4-1.4-0.6-1.7-3-1.7h-2.1c-0.9,0-0.9,0.1-0.9,1v3.3
		c0,1.4,0.1,2.8,0.5,3.3c0.4,0.5,1.2,0.6,3.8,0.6c2.9,0,4.6-0.1,5.9-3.8c0.3-0.3,1-0.2,1.2,0.2c-0.2,1.9-0.9,4.2-1.4,5
		c-2.8-0.1-5.2-0.1-7.7-0.1h-4c-1.4,0-2.8,0-5,0.1c-0.4-0.1-0.4-0.9-0.1-1.1l1.2-0.1c1.9-0.2,2.1-0.5,2.1-3.6V16.5z"/>
	<path fill="#FFFFFF" d="M11.9,42c6.9-5.4,15.7-8,25.5-8c5.1,0,12.3,1,16.7,2.3c1.1,0.3,1.8,0.5,2.6,0.4c0.1,2.2,0.6,8.1,1.3,13.9
		c-0.5,0.7-1.9,0.8-2.5,0.2c-1.4-6.4-5.7-13.8-19.3-13.8C21.7,36.9,9.4,46,9.4,65.6c0,19.8,12.6,30.8,28,30.8
		c12.2,0,17.6-7.9,19.7-13.5c0.7-0.5,2.1-0.3,2.5,0.4c-0.7,4.9-3.1,11.1-4.5,12.9c-1.1,0.2-2.3,0.6-3.3,0.9
		c-2.1,0.8-8.9,2.2-14.9,2.2c-8.5,0-16.6-1.7-23.5-6.3C5.9,87.7,0,79.1,0,67C0,56.5,4.7,47.5,11.9,42z"/>
	<path fill="#FFFFFF" d="M130.2,77.1c0,12.7-9.6,22-22.9,22C92.7,99.1,84,89.5,84,77.6c0-12.6,9.6-22.2,23.3-22.2
		C122.5,55.5,130.2,65.6,130.2,77.1z M92.4,76.1c0,9.7,4.4,20.2,15.4,20.2c7.2,0,14.1-4.9,14.1-17.8c0-10.1-4.8-20.3-15.2-20.3
		C99.8,58.2,92.4,62.8,92.4,76.1z"/>
	<path fill="#FFFFFF" d="M159.8,66.7c0-6.5-0.5-6.7-4.4-7.5l-1.3-0.3c-0.7-0.5-0.6-2.1,0.2-2.4c3.2,0.2,6.1,0.3,9.2,0.3
		s5.9-0.1,9.6-0.3c0.8,0.3,0.8,1.9,0.2,2.4l-1.8,0.3c-4.1,0.7-4.4,1-4.4,7.5V80c0,9.4,3.1,15.9,12.3,15.9c8.5,0,12.2-6.4,12.2-15.8
		v-8.8c0-9.4-0.6-11.6-4.6-12.2l-2-0.3c-0.7-0.6-0.6-1.9,0.2-2.4c3,0.2,5.2,0.3,7.9,0.3c2.7,0,4.8-0.1,7.8-0.3
		c0.8,0.5,0.8,1.9,0.1,2.4l-2.8,0.3c-2.5,0.3-3.2,2.8-3.2,12.2v9.3c0,12.1-5.6,18.4-17.6,18.4c-6,0-10.6-1.2-13.4-4
		c-2.8-2.8-4.1-7.2-4.1-13.3V66.7z"/>
	<path fill="#FFFFFF" d="M263.9,71.3c0-9.4-0.6-11.9-4.1-12.2l-3-0.3c-0.7-0.6-0.6-1.9,0.2-2.4c3.5,0.2,5.7,0.3,8.4,0.3
		s4.8-0.1,7.8-0.3c0.8,0.5,0.8,1.9,0.1,2.4l-2.8,0.3c-2.5,0.3-3.2,2.8-3.2,12.2v15.9c0,1.9,0,9.5,0.3,10.9c-0.3,0.6-1.1,1-2,0.8
		c-1-1.3-2.9-3.3-8.8-9.6L242.5,74c-3.6-3.8-6-6.2-7.3-7.3c-0.4,0-0.4,1-0.4,4v12.5c0,9.4,0.6,11.9,4.1,12.2l3,0.3
		c0.8,0.6,0.6,1.9-0.2,2.4c-3.5-0.2-5.7-0.3-8.4-0.3c-2.7,0-4.5,0.1-7.8,0.3c-0.8-0.4-0.8-1.9-0.1-2.4l2.8-0.3
		c2.5-0.3,3.2-2.8,3.2-12.2V66.3c0-3.1-0.1-4.4-2-5.8c-0.8-0.6-2.5-1.1-3.5-1.3l-1.4-0.3c-0.7-0.6-0.7-2,0.2-2.4
		c3.6,0.3,6.1,0.3,8.1,0.3c1.3,0,2.6-0.1,3.8-0.3c1.9,3.6,5.4,7.6,9.2,11.6l8.9,9.2c2.1,2.1,7.5,8,8.6,8.8c0.6-0.2,0.6-1.5,0.6-3.8
		V71.3z"/>
	<path fill="#FFFFFF" d="M310,78.5c-4.5-2.4-8.4-6-8.4-11.3c0-6.9,5.3-11.7,14.8-11.7c3.3,0,5.6,0.8,8.8,1.4
		c0.8,1.6,1.4,5.2,1.3,9.2c-0.3,0.8-2,0.8-2.5,0.2c-0.8-3.3-3.2-8.1-8.8-8.1c-5.6,0-7.6,3.2-7.6,6.4c0,3.4,2.5,5.5,6.3,7.5l5.8,3
		c3.4,1.7,7.6,5.7,7.6,12c0,7.4-6,12-15.4,12c-5.8,0-9.5-2-10.9-2.9c-0.9-1.3-2-4.7-2-9.7c0.4-0.9,1.8-1,2.5-0.2
		c0.8,3.4,4.9,10.1,11.2,10.1c4.8,0,7.9-2.5,7.9-6.8c0-3-1.2-6.1-6.6-8.9L310,78.5z"/>
	<path fill="#FFFFFF" d="M360.6,66.7c0-6.5-0.4-6.8-4-7.5l-1.3-0.3c-0.7-0.4-0.6-2,0.2-2.4c2.7,0.2,5.7,0.3,8.8,0.3h13.4
		c4.2,0,7.9-0.1,8.8-0.3c0.1,1.1,0.6,5.6,1,9.6c-0.4,0.8-1.9,0.8-2.5,0.2c-0.6-2.5-1.1-3.7-1.7-4.5c-1.5-2.3-5.8-2.3-8-2.3h-4.2
		c-3.3,0-3.4,0.1-3.4,3V73c0,1.7,0,1.9,1.8,1.9h4.4c5,0,5.5-0.8,6.2-3.6l0.5-1.8c0.5-0.7,1.9-0.6,2.4,0.2c-0.2,2.7-0.2,4.4-0.2,6.6
		c0,2.4,0,4.1,0.2,6.8c-0.5,0.8-1.9,0.9-2.4,0.2l-0.5-1.8c-0.8-2.8-1.2-3.6-6.2-3.6h-4.4c-1.8,0-1.8,0.3-1.8,2.2v6.8
		c0,2.8,0.2,5.8,1,6.8c0.8,0.9,2.5,1.3,7.9,1.3c6,0,9.5-0.3,12.3-7.8c0.7-0.7,2.2-0.5,2.5,0.4c-0.5,4-1.8,8.7-2.8,10.5
		c-5.9-0.2-10.9-0.3-16-0.3h-8.3c-3,0-5.9,0.1-10.5,0.3c-0.8-0.3-0.8-1.9-0.2-2.4l2.5-0.3c4.1-0.5,4.4-1,4.4-7.6V66.7z"/>
	<path fill="#FFFFFF" d="M424.6,66.7c0-6.5-0.4-6.9-4.4-7.5l-1.8-0.3c-0.7-0.5-0.6-2.1,0.2-2.4c3.7,0.2,6.6,0.3,9.6,0.3
		s5.9-0.1,9.1-0.3c0.8,0.3,0.8,1.9,0.2,2.4l-1.2,0.3c-4,0.9-4.4,1-4.4,7.5V87c0,2.9,0.2,5.6,1,6.5c0.9,0.8,2.4,1.5,7.3,1.5
		c5.8,0,9.2-0.3,12-7.8c0.7-0.7,2.2-0.5,2.5,0.4c-0.5,4-1.8,8.7-2.8,10.5c-5.9-0.2-10.9-0.3-15.8-0.3h-7.7c-3,0-5.9,0.1-9.6,0.3
		c-0.8-0.3-0.8-1.9-0.2-2.4l1.8-0.3c4.1-0.7,4.4-1,4.4-7.6V66.7z"/>
	<path fill="#FFFFFF" d="M520.7,77.1c0,12.7-9.6,22-22.9,22c-14.6,0-23.3-9.5-23.3-21.4c0-12.6,9.6-22.2,23.3-22.2
		C513,55.5,520.7,65.6,520.7,77.1z M482.9,76.1c0,9.7,4.4,20.2,15.4,20.2c7.2,0,14.1-4.9,14.1-17.8c0-10.1-4.8-20.3-15.2-20.3
		C490.4,58.2,482.9,62.8,482.9,76.1z"/>
	<path fill="#FFFFFF" d="M548.4,67.8c0-6.1-0.1-7.7-2.3-8l-2.6-0.4c-0.8-0.1-0.9-2.1,0-2.4c5.2-0.4,10.5-0.6,15.7-0.6
		c8.8,0,18.3,1.4,18.3,11.3c0,6-4.7,8.8-8.4,10.1c-0.4,0.4-0.3,0.9,0,1.4c4.7,7.9,8.9,12.6,12,15.1c1.7,1.4,3.5,1.9,5,2
		c0.4,0.4,0.4,1.2,0,1.5c-0.8,0.3-2.2,0.5-4,0.5c-5.7,0-9.1-1.8-13.2-7.1c-2.4-3-4.9-7.2-6.9-10.2c-0.8-1.1-2.3-1.5-3.8-1.5
		c-2.5,0-2.6,0.2-2.6,1.5v6.7c0,6.5,0.4,7,4.4,7.6l2.2,0.3c0.7,0.5,0.6,2.1-0.2,2.4c-4-0.2-7.1-0.3-10-0.3c-3,0-5.9,0.1-9.2,0.3
		c-0.9-0.3-1-2-0.2-2.4l1.4-0.3c4.1-0.8,4.4-1,4.4-7.6V67.8z M555.6,74.7c0,2.4,0.1,2.4,4.7,2.4c6.1,0,9.3-2.5,9.3-9
		c0-4.7-3.3-8.9-9.9-8.9c-3.5,0-4.2,0.2-4.2,2.6V74.7z"/>
</g>
</svg>
