<?xml version="1.0" encoding="utf-8"?>
<!-- Generator: Adobe Illustrator 17.1.0, SVG Export Plug-In . SVG Version: 6.00 Build 0)  -->
<!DOCTYPE svg PUBLIC "-//W3C//DTD SVG 1.1//EN" "http://www.w3.org/Graphics/SVG/1.1/DTD/svg11.dtd">
<svg version="1.1" id="icon" xmlns="http://www.w3.org/2000/svg" xmlns:xlink="http://www.w3.org/1999/xlink" x="0px" y="0px"
	 viewBox="0 0 34.6 28" enable-background="new 0 0 34.6 28" xml:space="preserve">
<path fill="#FFFFFF" d="M21.1,28C21.1,28,21.1,28,21.1,28c-0.4,0-0.7,0-1.1-0.1c-0.1,0-0.2,0-0.3,0c-0.1,0-0.1,0-0.2,0l-9.5-2.9
	c-1.6-0.3-4.2-1.4-4.3-3.4c-0.1-0.9,0.3-1.8,0.8-2.5c0.4-0.4,1.1-0.9,2.3-0.9c0.5,0,0.9,0.1,1.5,0.2c0.1,0,0.1,0,0.2,0.1l0.8,0.2
	L1.1,8.3L1.1,8.2l0,0L1,8.1l0,0c-1.3-1.3-1.3-3.7,0-5c0.6-0.6,1.4-0.9,2.3-0.9c0.9,0,1.9,0.4,2.6,1.1l0,0L6,3.3l3.6,3.6
	c0.2-0.6,0.5-1.2,0.9-1.6c1-1,2.5-1.1,3.8-0.4c0.2-0.7,0.5-1.3,1-1.8c1-1,2.5-1.1,3.8-0.4c0.2-0.7,0.5-1.3,1-1.8
	C20.6,0.3,21.4,0,22.1,0c0.9,0,1.9,0.4,2.6,1.2l8.2,8.2c3.4,3.4,1.3,10.6-2.8,14.7C27.6,26.5,24.3,28,21.1,28z M19.9,25.8
	c0,0,0.1,0,0.1,0c0.3,0.1,0.7,0.1,1.1,0.1c0,0,0,0,0,0c2.6,0,5.5-1.3,7.6-3.4c4-4,4.8-9.7,2.8-11.8l-8.2-8.2
	c-0.6-0.6-1.4-0.7-1.8-0.3C21.2,2.6,21,3.1,21,3.5c0,0.5,0.1,0.9,0.3,1.1L24,7.3c0.2,0.2,0.3,0.5,0.3,0.7c0,0.3-0.1,0.5-0.3,0.7
	c-0.4,0.4-1,0.4-1.5,0l-4-4C18,4.2,17.2,4,16.7,4.5C16.2,5,16,6.3,16.5,6.8l3.2,3.2c0,0,0,0,0,0l0,0h0l0,0c0,0,0,0,0.1,0.1
	c0.4,0.4,0.3,1-0.1,1.4c-0.4,0.4-1,0.4-1.4,0l-3.1-3.1c0,0-0.1-0.1-0.1-0.1l-1.2-1.2c0,0-0.1-0.1-0.1-0.1c-0.6-0.6-1.4-0.7-1.8-0.3
	c-0.5,0.5-0.7,1.8-0.2,2.3l5.1,5.1c0.4,0.4,0.4,1,0,1.4c-0.4,0.4-1,0.8-1.4,0.4c0,0-0.1-0.1-0.1-0.1l0,0c0,0,0,0,0,0L4.5,4.7
	c0,0,0,0,0,0C3.9,4.2,3,4.1,2.5,4.6C2,5.1,1.9,6.1,2.4,6.7l0.1,0.1l0.1,0.1l10.9,10.9l2.7,2.4c0.4,0.3,0.4,0.8,0.2,1.3
	c-0.2,0.4-0.7,0.6-1.2,0.5L10,20.3c0,0-0.1,0-0.1,0c-0.8-0.2-1.5-0.2-1.8,0.1c-0.2,0.2-0.3,0.6-0.3,0.9c0,0.5,1.2,1.3,2.7,1.5
	c0,0,0.1,0,0.1,0L19.9,25.8z"/>
</svg>
