<?xml version="1.0" encoding="utf-8"?>
<!-- Generator: Adobe Illustrator 17.1.0, SVG Export Plug-In . SVG Version: 6.00 Build 0)  -->
<!DOCTYPE svg PUBLIC "-//W3C//DTD SVG 1.1//EN" "http://www.w3.org/Graphics/SVG/1.1/DTD/svg11.dtd">
<svg version="1.1" id="icon" xmlns="http://www.w3.org/2000/svg" xmlns:xlink="http://www.w3.org/1999/xlink" x="0px" y="0px"
	 viewBox="0 0 22.7 66.5" enable-background="new 0 0 22.7 66.5" xml:space="preserve">
<rect x="1.3" y="63.5" fill="#0EA9D6" width="20" height="3"/>
<path fill="#FFFFFF" d="M11.3,55.2C5.1,55.2,0,50.1,0,43.8c0-6.2,5.1-11.3,11.3-11.3s11.3,5.1,11.3,11.3
	C22.7,50.1,17.6,55.2,11.3,55.2z M11.3,35.5c-4.6,0-8.3,3.7-8.3,8.3c0,4.6,3.7,8.3,8.3,8.3s8.3-3.7,8.3-8.3
	C19.7,39.2,15.9,35.5,11.3,35.5z"/>
<circle fill="#FFFFFF" cx="11.3" cy="26.8" r="2.8"/>
<circle fill="#FFFFFF" cx="11.3" cy="18.8" r="2.8"/>
<circle fill="#FFFFFF" cx="11.3" cy="10.8" r="2.8"/>
<circle fill="#FFFFFF" cx="11.3" cy="2.8" r="2.8"/>
</svg>
